<?xml version="1.0" encoding="utf-8"?>
<!-- Generator: Adobe Illustrator 19.0.0, SVG Export Plug-In . SVG Version: 6.00 Build 0)  -->
<svg version="1.2" baseProfile="tiny" id="Layer_1" xmlns="http://www.w3.org/2000/svg" xmlns:xlink="http://www.w3.org/1999/xlink"
	 x="0px" y="0px" viewBox="0 0 412.7 272.4" xml:space="preserve">
<g>
	<path fill="none" d="M211.8,54.8c0-0.3,0-0.5,0-0.7l0,0C211.7,54.3,211.7,54.6,211.8,54.8z"/>
	<path fill="none" d="M204.1,200.8c0-0.1,0-0.3,0-0.4c0.9-12.6,2.6-24.6,4.6-36.7l-17.6-40.6c-1.9,0.6-4.1,0.6-5.3-0.8
		c-0.7-0.9-0.8-1.7-0.6-2.5c-0.5,0-1.1,0-1.6-0.2c-1-0.3-2.2-1-2.4-2.1c0-0.1,0-0.1,0-0.2c-1.1,0.3-2-0.3-2.6-1.3
		c-0.1-0.1-0.2-0.2-0.3-0.4c0-0.1-0.1-0.3-0.1-0.4c0-0.1-0.1-0.3-0.1-0.4c0-0.1,0-0.2,0-0.3c-0.1-0.7-0.2-1.5-0.2-2.3
		c-0.6,0.1-1.1,0.3-1.7,0.6c-2.4,1.1-4.1,2.9-5.1,5.4c-0.9,2.5-0.9,4.9,0.1,7.2l32.3,74.4C203.7,200.1,203.9,200.5,204.1,200.8z"/>
	<path fill="none" d="M239.5,44.5c-0.2,0.1-0.5,0.3-0.8,0.4c-0.3,0.2-0.7,0.5-1.2,0.6c-1.4,0.5-2.9,0.5-4-0.1
		c-0.3-0.1-0.5-0.3-0.7-0.4c-0.3-0.2-0.6-0.4-0.9-0.5c-0.1,0-0.3-0.1-0.5-0.1c-0.2,0-0.3,0-0.4,0.2c-0.4,0.4-0.4,1.6,0,2.1
		c0.1,0.2,0.4,0.4,0.7,0.5c1,0.5,2.1,0.8,3.2,0.8c0.2,0,0.4,0,0.6,0l0.4,0h0c1.2,0.1,2.6-0.2,3.9-0.8c0.6-0.3,1-1,1-1.7
		c0-0.5-0.2-0.9-0.3-1C240.2,44.4,239.8,44.4,239.5,44.5z"/>
	<path fill="none" d="M216.3,53.4c-0.6,0.4-1.2,0.8-1.4,1.4C215.2,54.2,215.7,53.8,216.3,53.4c1.1-0.7,2.7-0.9,3.6-1.8
		c0.3-0.3,0.6-0.9,0.7-1.4c-0.1,0.5-0.4,1-0.7,1.4C219,52.5,217.4,52.7,216.3,53.4z"/>
	<path fill="none" d="M219,68c-0.1-0.4-0.3-0.7-0.4-1.1c-0.9-2.1-1.8-4.2-2.5-6.4c0.8,2.2,1.6,4.3,2.5,6.4
		C218.8,67.2,218.9,67.6,219,68z"/>
	<path fill="none" d="M212.6,58.8L212.6,58.8c3.1,6.4,6,12.9,7.9,19.8c0.3,0.9,0.5,1.8,0.7,2.8c0,0,0,0,0,0
		c-0.2-0.9-0.4-1.8-0.7-2.8C218.6,71.8,215.7,65.2,212.6,58.8z"/>
	<path fill="#1B2A54" d="M252.8,112.1c-0.2,2.1-0.3,4.2-0.4,6.3L252.8,112.1z"/>
	<path fill="#1B2A54" d="M253.8,96.5l0.5-7.9c-0.2,0.8-0.4,1.7-0.6,2.5C253.8,92.9,253.8,94.7,253.8,96.5z"/>
	<path fill="#1B2A54" d="M257.8,143.4c0.8,1.4,1.6,2.8,2.6,4.1c0,0,0.1,0,0.1,0c0.2,0,0.4,0.1,0.6,0.1c2.8,0.5,5.7,0.1,8.2-1.2
		c-1.9-4.3-3.5-8.8-4.8-13.3c-1.1,1.6-2.2,3.1-3.4,4.3c-0.8,0.8-1.6,1.1-2.3,1.1c-0.4,1.2-1,2.4-1.7,3.5
		C257.3,142.5,257.5,142.9,257.8,143.4z"/>
	<path fill="#01A781" d="M270.2,269.1c-5.9,0-11.8-2.1-16.2-5.9c0,1.7,0.5,3.2,1.5,4.1c1.2,1.2,3.1,1.6,4.7,1.9
		c6.1,1.3,11.5,2.2,16.3,0.2c0-0.4-0.1-0.8-0.1-1.2C274.4,268.9,272.3,269.1,270.2,269.1z"/>
	<path fill="#01A781" d="M276,266.6C276,266.6,275.9,266.6,276,266.6c-0.5-1.1-1.3-1.9-2.1-2.2c-0.7-0.2-1.4-0.2-2.2-0.1
		c-0.4,0-0.8,0-1.2,0c-0.5,0-1.1-0.1-1.6-0.2c-0.2,0.3-0.3,0.7-0.5,1c-0.1,0.3-0.5,0.5-0.8,0.5c-0.1,0-0.2,0-0.4-0.1
		c-0.4-0.2-0.6-0.7-0.4-1.1c0.1-0.3,0.2-0.5,0.4-0.8c-0.4-0.2-0.8-0.4-1.2-0.6c-0.2,0.2-0.3,0.5-0.5,0.7l-0.1,0.1
		c-0.2,0.2-0.4,0.4-0.7,0.4c-0.2,0-0.3,0-0.5-0.2c-0.4-0.3-0.5-0.8-0.2-1.2l0.1-0.1c0.2-0.3,0.4-0.6,0.6-0.8
		c-0.4-0.4-0.8-0.8-1.1-1.3c-0.5,0.1-1,0.1-1.5,0.1c-0.1,0-0.2,0-0.3,0c-1.9-0.1-3.8-0.7-5.3-1.7c-0.3-0.2-0.7-0.5-1-0.8
		c-0.4,1-0.7,1.9-1,2.9C259.9,266.5,268.5,268.7,276,266.6z"/>
	<path fill="#446EB7" d="M264.9,248.5c0-0.1,0-0.1,0-0.2c2.2-11.4,3.1-23.8,2.7-37.5c-0.6,2.1-1.2,4.1-2,6.1
		c-2.6,6.5-6.2,12.4-10.9,17.7c0.3,4.2,0.5,8.5,0.6,12.7c0,0.1,0,0.2,0,0.2C258.3,248.9,261.7,249.2,264.9,248.5z"/>
	<path fill="#446EB7" d="M259.9,149.1C259.9,149.1,259.9,149.1,259.9,149.1c-0.1,0-0.1,0-0.1,0c-0.3,0-0.5-0.1-0.7-0.4
		c-0.9-1.3-1.8-2.6-2.5-4c0,0,0,0,0,0c-0.7,0.2-1.4,0.4-2.1,0.6c-0.3,0.4-0.7,0.8-1.1,1.2l9.8,22.7
		C262.2,162.5,261.1,155.8,259.9,149.1L259.9,149.1z"/>
	<path fill="#446EB7" d="M205.7,202.9c0.9,0.8,1.9,1.5,3.1,2c2.4,1,4.9,0.9,7.3-0.1c2.4-1.1,4.1-2.8,5.1-5.3c1-2.4,0.9-4.9-0.1-7.3
		L210,166.6c-1.8,11.2-3.3,22.3-4.2,33.9C205.8,201.3,205.7,202.1,205.7,202.9z"/>
	<path fill="#446EB7" d="M264.9,248.5c-3.2,0.7-6.6,0.3-9.6-1c0,1.3,0,2.6,0,3.9c0.6,0.5,1.2,0.9,2,1.2c1.4,0.6,3,0.7,4.5,0.3
		c0.9-0.2,1.7-0.6,2.4-1.1C264.5,250.7,264.7,249.6,264.9,248.5z"/>
	<path fill="#F3D57B" d="M260.1,255c-0.8,0-1.6-0.1-2.3-0.3l0,3.2c1,0.6,2,0.9,3.1,1.1l0.4-4C260.9,255,260.5,255,260.1,255z"/>
	<path fill="#1B2A54" d="M253.2,84.6c0.4-3.2,0.5-6.3,0.6-9.4c0.2-5.1,0.3-10.5,1.8-15.8c0.1-0.4,0.2-0.7,0.3-1.1
		c-1.8-0.4-1-3.2,0.9-2.9c0.1,0,0.1,0,0.2,0c0.5-1.2,1-2.4,1.7-3.6c-1.1-0.4-2.3-0.8-3.6-1.2c-1.3-0.5-2.7-0.9-3.9-1.3
		c-0.2,0.7-0.3,1.3-0.5,1.9c-0.9,2.9-2.3,5.2-4.1,6.9c0,0,0,0-0.1,0c1.1,2.6,2,5.2,2.8,7.9C251.2,72.1,252.5,78.3,253.2,84.6z"/>
	<path fill="#01A781" d="M250.6,123.7c0-0.1,0-0.3,0.1-0.4c-0.1-4.8,0.3-9.7,0.7-14.4c0.3-2.9,0.5-5.9,0.6-8.9c0.1-3,0.1-6,0-9
		c0,0,0,0,0,0c0,0,0,0,0,0c0,0,0,0,0,0c-0.4-7.8-1.7-15.6-4-23.1c-2.8,2.4-9.5,7.3-11.9,8.8c-0.1,0.1-0.3,0.1-0.5,0.1
		c-0.2,0-0.4-0.1-0.5-0.2c-0.1,0-0.2-0.1-0.3-0.2c-0.8-0.8-1.6-1.6-2.5-2.4c-1.8-1.8-3.6-3.6-5.3-5.5c0.7,6.5,1.3,13.8,0.8,21.2
		c1.5,2.3,2.8,4.7,4,7.2l1.2-8.3c0.2-1.6,1.8-2.8,3.4-2.6l8.8,1.2c1.6,0.2,2.8,1.8,2.6,3.4l-0.1,0.5l-3.1,22.2
		c-0.1,0.8-0.5,1.5-1.2,2c-0.5,0.4-1.2,0.6-1.8,0.6c-0.1,0-0.3,0-0.4,0l-1.2-0.2l5.3,12.2c1.8-0.4,3.6-0.9,5.3-1.1
		C250.5,125.8,250.5,124.7,250.6,123.7z"/>
	<path fill="#01A781" d="M246.8,131.3l0.5,1.2c0,0,0,0,0,0L246.8,131.3z"/>
	<path fill="#F3D57B" d="M218.3,29.8c-0.1-0.2-0.2-0.3-0.2-0.5c-0.1-0.2-0.1-0.3-0.2-0.5c0.2,2.1,0.5,4.2,0.9,6.2
		c0.1,0.4,0.2,0.8,0.4,1c0,0,0.1,0.1,0.1,0.1c0.1-0.3,0.3-0.6,0.5-0.9c0.7-0.8,1.8-1.1,2.8-1c-0.3-0.1-0.6-0.2-0.9-0.4
		C219.7,32.9,219.1,31.6,218.3,29.8z"/>
	<path fill="#F3D57B" d="M252.9,35c0.4-1.9,0.7-3.8,0.8-5.7c-0.1,0.1-0.1,0.3-0.2,0.4c-0.8,1.8-1.3,3.1-3.5,4.2
		c-0.4,0.2-0.8,0.4-1.3,0.5c1.2-0.3,2.5,0,3.2,1c0.2,0.2,0.3,0.5,0.4,0.7c0,0,0.1,0,0.1-0.1C252.7,35.8,252.8,35.4,252.9,35z"/>
	<path fill="#F3D57B" d="M241,33.9c-0.8-0.4-1.5-0.9-2-1.5l-0.4,5.3c0,0.1-0.1,0.3-0.1,0.4c-0.1,0.4-0.5,0.6-0.9,0.6
		c-0.6,0-1.2,0-1.8,0c-0.5,0-0.9,0.1-1.4,0.1c-0.2,0-0.4,0-0.6,0c-0.3,0-0.5-0.2-0.7-0.4c-0.2-0.2-0.3-0.4-0.3-0.6
		c0-1.9-0.1-3.6-0.1-5.2c-0.5,0.5-1.1,0.9-1.8,1.3c-1.4,0.7-3.1,1-4.7,1c-0.9,0-1.8-0.1-2.7-0.3c0.1,0.1,0.3,0.1,0.4,0.2
		c1.2,0.7,1.8,1.8,2.4,2.9l0.1,0.2c0.4,0.9,0.8,1.7,1.5,2.2c0.7,0.6,1.8,0.7,3.1,0.3c0.3-0.1,0.6-0.3,1-0.5c0.5-0.3,1.1-0.6,1.8-0.7
		c0.6-0.1,1.1,0,1.6,0.1c0.2,0,0.3,0.1,0.5,0.1c0,0,0,0,0,0c0,0,0.1,0,0.1,0c0.2,0,0.5,0,0.7-0.1c0.2,0,0.5-0.1,0.7-0.1
		c1-0.1,1.7,0.5,2.3,0.9c0.3,0.2,0.5,0.4,0.8,0.5c0.6,0.2,1.7,0.5,2.8-0.1c0.9-0.5,1.4-1.5,1.9-2.4c0.6-1,1.3-2.3,2.5-3.1
		c0.3-0.2,0.6-0.3,1-0.4c-0.9,0.2-1.9,0.4-2.9,0.4C244.1,34.9,242.4,34.5,241,33.9z"/>
	<path fill="#9B4F51" d="M253.1,13.1c-0.1-1-0.4-1.6-0.8-1.7c-0.2-0.1-0.6,0-0.9,0.2c-0.1,0-0.1,0.1-0.1,0.1
		c-0.2,0.2-0.4,0.6-0.6,1.1c-1,2.4-0.6,5.3,0.8,7.6c0.6,0.1,1.2,0.2,1.8,0.3C253.5,17.7,253.4,15.3,253.1,13.1z"/>
	<path fill="#00FEB4" d="M238.5,25.5c0.5,0.6,0.8,1.4,0.9,2.4c0,0.3,0.1,0.5,0.1,0.8l0,0.2c0,0.4,0.1,0.7,0.1,1
		c0.3,1.3,1.3,2,2.2,2.4c2.2,1.1,5.6,1.1,7.6,0.1c1.6-0.8,1.9-1.6,2.7-3.3c0.1-0.2,0.2-0.4,0.2-0.5c0.5-1.2,0.6-2.5,0.7-4.3l0-0.3
		c0-0.5,0.1-1.1,0.1-1.7c-0.4-0.1-0.8-0.1-1.2-0.2c0.5,0.3,0.9,0.9,0.8,1.6c-0.1,0.9-0.9,1.4-1.7,1.3c-10-1.3-20.1-1.2-30.1,0.4
		c-0.1,0-0.2,0-0.2,0c-0.8,0-1.4-0.5-1.5-1.3c0-0.3,0-0.5,0.1-0.7c0-0.3,0.2-0.6,0.5-0.7c0.2-0.2,0.4-0.3,0.7-0.3
		c8.5-1.3,17.1-1.6,25.7-0.9c-3.8-0.4-7-0.5-10.1-0.4l-0.3,0c-4.2-0.1-8.8,0.2-14.5,0.9c-0.8,0.1-1.6,0.2-2.4,0.3
		c0,0.6,0.1,1.1,0.1,1.7l0,0.3c0.1,1.7,0.2,3,0.7,4.3c0.1,0.2,0.2,0.4,0.2,0.5c0.7,1.7,1.1,2.5,2.7,3.3c2,1,5.4,1,7.6-0.1
		c0.8-0.4,1.9-1.2,2.2-2.4c0.1-0.4,0.1-0.7,0.1-1.1l0-0.2c0-0.3,0-0.5,0.1-0.7c0.1-0.6,0.3-1.6,0.9-2.4c0.6-0.8,1.6-1.2,2.5-1.1
		C236.9,24.3,237.8,24.7,238.5,25.5z"/>
	<path fill="#9B4F51" d="M245,57c0.1,0,0.1,0,0.2-0.1c0,0,0.1-0.1,0.1-0.1c1.6-1.4,2.8-3.5,3.6-6.1c0.2-0.8,0.5-1.7,0.7-2.7
		c0.3-1.5,0.5-3.1,0.7-4.6l0.6-5c0.1-0.5,0.1-1,0-1.5c0-0.2-0.1-0.4-0.2-0.6c-0.4-0.6-1.5-0.5-2.1-0.1c-0.8,0.5-1.4,1.6-1.9,2.5
		c-0.6,1-1.3,2.3-2.5,3.1c-1.2,0.8-2.8,0.9-4.3,0.2c-0.4-0.2-0.8-0.4-1.1-0.6c-0.5-0.3-0.9-0.6-1.3-0.6c-0.2,0-0.4,0-0.6,0.1
		c-0.3,0.1-0.7,0.1-1.1,0.1c-0.1,0-0.2,0-0.3,0c-0.2,0-0.4-0.1-0.6-0.1c-0.3-0.1-0.6-0.2-0.9-0.1c-0.4,0.1-0.8,0.3-1.3,0.5
		c-0.4,0.2-0.8,0.4-1.3,0.6c-1.9,0.6-3.5,0.4-4.7-0.6c-0.9-0.8-1.4-1.8-1.9-2.7l-0.1-0.2c-0.4-0.8-0.9-1.7-1.7-2.2
		c-0.2-0.1-0.6-0.2-0.9-0.2c-0.4,0-0.7,0.1-1,0.4c-0.1,0.2-0.2,0.4-0.3,0.7l0,0c-0.1,0.6,0,1.2,0,1.8l0,0.1c0.3,3.1,0.6,6.1,1.2,9.1
		c0,0.1,0.1,0.3,0.1,0.4c0.7,3.3,1.7,5.5,3.1,7.2c0.1,0.1,0.1,0.1,0.2,0.2c2.5,2.8,6.3,3.6,9.1,3.9c4,0.4,7.6-0.5,10.1-2.3
		C244.7,57.3,244.8,57.1,245,57z M240.4,48.8c-1.4,0.6-2.9,0.9-4.3,0.9c-0.1,0-0.3,0-0.4,0l-0.4,0c-0.2,0-0.4,0-0.6,0
		c-1.3-0.1-2.6-0.4-3.8-1c-0.6-0.3-1.1-0.6-1.4-1.1c-0.7-1-0.9-3,0.1-4.2c0.7-0.8,1.8-1,2.9-0.6c0.4,0.2,0.8,0.4,1.1,0.6
		c0.2,0.1,0.4,0.3,0.6,0.4c0.7,0.4,1.7,0.4,2.6,0c0.3-0.1,0.5-0.3,0.8-0.5c0.3-0.2,0.7-0.4,1.1-0.6c0.9-0.4,2.1-0.4,2.8,0.4
		c0.6,0.6,0.7,1.7,0.8,2.1C242.5,46.9,241.7,48.3,240.4,48.8z"/>
	<path fill="#9B4F51" d="M250.9,6.3c-0.3-1-1.1-1.9-2.2-2.6c-1.2-0.6-2.5-0.9-3.7-1.2c-6.5-1.3-12.3-1.2-17.3,0.4
		c-2.1,0.6-3.5,1.4-4.5,2.4c-1.2,1.2-1.8,2.8-1.6,4.3c0,0,0,0.1,0,0.1c0,0,0.1,0.1,0.1,0.1c6.8,1.3,13.8,2.7,20.8,2.5
		c2-0.1,4.3-0.3,6.1-1.4c0.3-0.2,0.6-0.4,0.9-0.7C250.4,9.5,251.3,7.9,250.9,6.3z"/>
	<path fill="#F3D57B" d="M235.8,19.4l0.2,0c4-0.1,8.2,0.1,13.4,0.8c-1.1-2.3-1.3-4.9-0.5-7.3c-2,1-4.3,1.2-6.4,1.3
		c-0.4,0-0.9,0-1.3,0c-6.4,0-12.8-1.2-19-2.4c0,0.2,0,0.5,0,0.7l-0.3,7.7C227.3,19.5,231.8,19.2,235.8,19.4z M241.6,15.1l4.8,0.7
		c0.5,0.1,0.8,0.5,0.7,1c-0.1,0.4-0.4,0.7-0.9,0.7c0,0-0.1,0-0.1,0l-4.8-0.7c-0.5-0.1-0.8-0.5-0.7-1C240.7,15.4,241.2,15,241.6,15.1
		z M229.2,16.7c-1.7,0-3.5,0.3-5.1,0.8c-0.1,0-0.2,0-0.3,0c-0.4,0-0.7-0.2-0.8-0.6c-0.1-0.5,0.1-0.9,0.6-1.1
		c1.8-0.6,3.7-0.9,5.6-0.9h0c0.5,0,0.9,0.4,0.9,0.9C230,16.3,229.6,16.7,229.2,16.7z"/>
	<path fill="#B2E7DC" d="M245,89l-8.8-1.2c-0.1,0-0.1,0-0.2,0c-0.5,0-1,0.3-1.2,0.8c3.8,0.5,7.5,1,11.3,1.6
		C246,89.5,245.6,89,245,89z"/>
	<path fill="#00FEB4" d="M246,91.8c-3.8-0.5-7.6-1-11.4-1.6l-1.4,9.7l3.6,8.3l6.7,1L246,91.8z"/>
	<path fill="#F3D57B" d="M226.7,65.5c2,2.6,4.5,5,6.9,7.3c0.7,0.7,1.5,1.4,2.2,2.1c2.9-1.9,9.7-7,11.7-8.8c-0.7-2.3-1.6-4.6-2.5-6.8
		c-2.3,1.5-5.3,2.3-8.7,2.3c-0.6,0-1.3,0-2-0.1c-2.5-0.2-5.9-1-8.6-3C226.1,60.9,226.4,63.1,226.7,65.5
		C226.7,65.4,226.7,65.4,226.7,65.5z"/>
	<path fill="#B2E7DC" d="M242.5,114c0.3-0.2,0.5-0.5,0.5-0.8l0.3-2.2l-5.7-0.8l0.3,0.7c0.2,0.1,0.4,0.2,0.6,0.5
		c0.1,0.1,0.1,0.2,0.1,0.4c0,0.1,0,0.3,0,0.4c0,0,0,0,0,0.1l0.8,1.9l2.2,0.3C241.9,114.3,242.2,114.2,242.5,114z"/>
	<path fill="#F4D47B" d="M234.3,30c0.1,2.4,0.3,4.4,0.3,7.1c0.4,0,0.7,0,1.1,0c0.4,0,0.8,0,1.2,0l0.6-8.1c0-0.1,0.1-0.3,0.1-0.4
		c0-0.1,0-0.3,0-0.4c-0.1-0.7-0.3-1.2-0.5-1.5c-0.2-0.3-0.6-0.5-0.9-0.4c0,0-0.1,0-0.1,0c0,0,0,0,0,0c0,0-0.1,0-0.1,0
		c0,0-0.1,0-0.1,0c0,0,0,0,0,0c0,0-0.1,0-0.1,0c-0.3,0-0.7,0.1-0.9,0.4c-0.3,0.3-0.4,0.8-0.5,1.5c0,0.1,0,0.2,0,0.4c0,0,0,0.1,0,0.1
		L234.3,30z M236,26.2L236,26.2L236,26.2z M236,26.2L236,26.2L236,26.2z"/>
	<path fill="#1B2A54" d="M225,66.1c-0.4-3.1-0.8-6.2-1.3-9.6c-1.7-2.2-2.6-4.8-3.1-7l0,0c0,0.2,0,0.4,0,0.7c-0.1,0.5-0.4,1-0.7,1.4
		c-0.9,0.9-2.5,1.2-3.6,1.8c-0.6,0.4-1.2,0.8-1.4,1.4c-0.1,0.2-0.1,0.4-0.2,0.7c0,1,0.4,2.1,0.7,3c0.2,0.7,0.4,1.3,0.6,1.9
		c0.8,2.2,1.6,4.3,2.5,6.4c0.2,0.4,0.3,0.7,0.4,1.1c0.9,2.4,1.4,4.9,1.5,7.3c-2-5.8-4.1-11.7-7.3-17c-0.1-0.1-0.2-0.3-0.3-0.4
		c0.1,0.4-0.1,0.8-0.5,0.9c0,0,0,0,0,0c3.1,6.4,6,12.9,7.9,19.8c0.3,0.9,0.5,1.8,0.7,2.8c1.8,1.9,3.5,3.9,5.1,6
		C226.5,79.9,225.8,72.6,225,66.1z"/>
	<path fill="#1B2A54" d="M211.8,54.1l-0.4,0.2c0.2,0.4,0.4,0.8,0.6,1.2c-0.1-0.2-0.1-0.5-0.2-0.7C211.7,54.6,211.7,54.3,211.8,54.1z
		"/>
	<path fill="#1B2A54" d="M212.6,58.8c-0.1,0-0.1,0-0.2,0c0,0,0,0,0,0c0.4,0.8,0.1,1.8-0.9,2c0,0,0,0,0,0l0.7,2.9
		c0.8-0.1,1.8,0.4,1.9,1.4c0.2,3.2,0.2,6.5-0.3,9.7c2.1,1.5,4,3.1,5.9,4.9c0.6,0.5,1.1,1.1,1.6,1.6c-0.2-0.9-0.4-1.8-0.7-2.8
		C218.6,71.8,215.7,65.2,212.6,58.8z"/>
	<path fill="#9B4F51" d="M220.5,12.4c0-0.5,0-1-0.1-1.3c0-0.1-0.1-0.1-0.1-0.2c-0.1-0.1-0.1-0.1-0.2-0.2c-0.3-0.2-0.7-0.3-1-0.2
		c-0.5,0.1-1,0.6-1.3,1.1c-0.3,0.5-0.4,1.1-0.5,2c-0.2,1.8-0.1,3.8,0.4,5.6c0.1,0.4,0.2,0.7,0.4,1c0.1,0.2,0.3,0.3,0.4,0.3
		c0.1,0,0.3,0,0.4,0.1c0.4-0.1,0.9-0.1,1.3-0.2L220.5,12.4z"/>
	<path fill="#B2E7DC" d="M220.6,75.3c-0.2-2.5-0.7-5-1.5-7.3c-0.1-0.4-0.3-0.7-0.4-1.1c-0.9-2.1-1.8-4.2-2.5-6.4
		c-0.2-0.6-0.4-1.3-0.6-1.9c-0.3-0.9-0.7-2-0.7-3c0-0.3,0.1-0.5,0.2-0.7c0.3-0.6,0.8-1.1,1.4-1.4c1.1-0.7,2.7-0.9,3.6-1.8
		c0.3-0.3,0.6-0.9,0.7-1.4c0-0.2,0-0.4,0-0.7l0,0c-0.1,0-0.2,0.1-0.3,0.1l-0.1,0l-8.5,4.4c-0.1,0.2-0.1,0.4,0,0.7
		c0,0.2,0.1,0.4,0.2,0.7c0.4,0.7,0.7,1.4,1.1,2.2c0,0.1,0,0.1,0.1,0.2c0.1,0.2,0.2,0.3,0.3,0.4C216.5,63.6,218.5,69.5,220.6,75.3z"
		/>
	<path fill="#01A781" d="M196.5,268.3c-0.1,0.4-0.1,0.8-0.1,1.2c4.8,2,10.3,1.1,16.3-0.2c1.6-0.4,3.5-0.8,4.7-1.9
		c1-0.9,1.5-2.5,1.5-4.1c-4.4,3.8-10.3,5.9-16.2,5.9C200.6,269.1,198.5,268.9,196.5,268.3z"/>
	<path fill="#01A781" d="M209,262.8c0.3,0.4,0.2,0.9-0.2,1.2c-0.2,0.1-0.3,0.2-0.5,0.2c-0.3,0-0.5-0.1-0.7-0.4L207,263
		c-0.4,0.2-0.8,0.5-1.2,0.6l0.4,0.8c0.2,0.4,0,0.9-0.4,1.1c-0.1,0.1-0.2,0.1-0.4,0.1c-0.3,0-0.6-0.2-0.8-0.5l-0.5-1
		c-0.5,0.1-1.1,0.2-1.6,0.2c-0.4,0-0.8,0-1.3,0c-0.8,0-1.6-0.1-2.2,0.1c-0.9,0.3-1.7,1.1-2.1,2.1c0,0,0,0,0,0
		c7.5,2,16.1-0.1,21.6-5.5c-0.2-1-0.6-1.9-1-2.9c-0.3,0.3-0.6,0.5-1,0.8c-1.5,1.1-3.4,1.7-5.3,1.7c-0.1,0-0.2,0-0.3,0
		c-0.5,0-1,0-1.5-0.1c-0.3,0.5-0.7,0.9-1.1,1.3L209,262.8z"/>
	<path fill="#F3D57B" d="M211.7,254.9c0.1,1.1,0.3,2.8,0.4,4c1.1-0.1,2.1-0.5,3.1-1.1l0-3.2c-0.8,0.2-1.5,0.3-2.3,0.3
		C212.4,255,212.1,255,211.7,254.9z"/>
	
		<line fill="none" stroke="#1B2A54" stroke-width="0" stroke-linecap="round" stroke-linejoin="round" x1="236" y1="26.2" x2="236" y2="26.2"/>
	<path fill="#1B2A54" d="M218.6,24c0.2,0.4,0,0.9-0.4,1.1c-0.3,0.1-0.5,0.7-0.4,1.7c0,0.7,0.1,1.3,0.1,2c0.1,0.2,0.1,0.3,0.2,0.5
		c0.1,0.2,0.2,0.4,0.2,0.5c0.8,1.8,1.3,3.1,3.5,4.1c0.3,0.1,0.6,0.3,0.9,0.4c0.3,0,0.6,0.1,0.8,0.2c0.8,0.2,1.8,0.3,2.7,0.3
		c1.7,0,3.4-0.3,4.7-1c0.7-0.4,1.3-0.8,1.8-1.3c0-0.8-0.1-1.6-0.1-2.5l-0.1-1.4c0-0.5,0.3-0.9,0.8-0.9c0.4,0,0.8,0.3,0.9,0.7
		c0-0.1,0-0.2,0-0.4c0.1-0.7,0.3-1.2,0.5-1.5c0.2-0.3,0.6-0.5,0.9-0.4c-0.3-0.1-0.6-0.3-0.6-0.6c-0.1-0.5,0.2-0.9,0.6-1
		c0,0,0.1,0,0.1,0c0,0,0.1,0,0.1,0c-0.9-0.1-1.9,0.3-2.5,1.1c-0.6,0.8-0.8,1.7-0.9,2.4c0,0.2,0,0.4-0.1,0.7l0,0.2
		c0,0.4-0.1,0.8-0.1,1.1c-0.3,1.3-1.3,2-2.2,2.4c-2.2,1.1-5.6,1.1-7.6,0.1c-1.6-0.8-1.9-1.6-2.7-3.3c-0.1-0.2-0.2-0.4-0.2-0.5
		c-0.5-1.2-0.6-2.5-0.7-4.3l0-0.3c0-0.5-0.1-1.1-0.1-1.7c0,0,0,0-0.1,0c-0.2,0-0.4,0.1-0.6,0.1c0,0-0.1,0-0.1,0
		c-0.4,0-0.7-0.3-0.8-0.7c0,0-0.1-0.1-0.1-0.1c0,0.1,0,0.2,0,0.2c0.1,0.6,0.1,1.2,0.1,1.8c0.1-0.1,0.2-0.1,0.3-0.2
		C217.9,23.3,218.4,23.5,218.6,24z"/>
	<path fill="#1B2A54" d="M236,26.1c0,0-0.1,0-0.1,0c0,0,0,0,0,0C235.9,26.2,235.9,26.1,236,26.1z"/>
	<path fill="#1B2A54" d="M236.1,26.1C236.1,26.1,236.1,26.1,236.1,26.1C236.1,26.1,236.2,26.1,236.1,26.1
		C236.2,26.1,236.2,26.1,236.1,26.1z"/>
	
		<line fill="none" stroke="#1B2A54" stroke-width="0" stroke-linecap="round" stroke-linejoin="round" x1="236" y1="26.2" x2="236" y2="26.2"/>
	<path fill="#1B2A54" d="M254.4,22c-0.2,0.3-0.5,0.5-0.9,0.5c-0.2,0-0.3,0-0.5-0.1c0,0.6-0.1,1.1-0.1,1.7l0,0.3
		c-0.1,1.7-0.2,3-0.7,4.3c-0.1,0.2-0.2,0.4-0.2,0.5c-0.7,1.7-1.1,2.5-2.7,3.3c-2,1-5.4,1-7.6-0.1c-0.8-0.4-1.9-1.2-2.2-2.4
		c-0.1-0.3-0.1-0.7-0.1-1l0-0.2c0-0.3,0-0.5-0.1-0.8c-0.1-1-0.4-1.8-0.9-2.4c-0.6-0.8-1.6-1.2-2.5-1.1c0,0-0.1,0-0.1,0
		c0,0-0.1,0-0.1,0c-0.5,0.1-0.7,0.6-0.6,1c0.1,0.3,0.3,0.6,0.6,0.6c0,0,0.1,0,0.1,0c0,0,0.1,0,0.1,0c0,0,0.1,0,0.1,0c0,0,0,0,0,0
		c0,0,0,0,0.1,0c0,0,0,0,0.1,0c0.3,0,0.7,0.1,0.9,0.4c0.3,0.3,0.4,0.8,0.5,1.5c0,0.1,0,0.3,0,0.4c0.2-0.3,0.5-0.4,0.8-0.4
		c0.5,0,0.8,0.5,0.8,0.9l-0.3,3.4c0.5,0.6,1.2,1.1,2,1.5c1.4,0.7,3.1,1,4.7,1c1,0,2-0.1,2.9-0.4c0.1,0,0.1,0,0.2,0
		c0.5-0.1,0.9-0.3,1.3-0.5c2.1-1.1,2.7-2.4,3.5-4.2c0.1-0.1,0.1-0.3,0.2-0.4c0.1-0.9,0.2-1.7,0.2-2.6c0-0.9-0.1-1.5-0.4-1.7
		c-0.4-0.2-0.6-0.7-0.4-1.1c0.2-0.4,0.7-0.6,1.1-0.4c0.2,0.1,0.3,0.2,0.4,0.3c0-0.6,0.1-1.2,0.1-1.9c0-0.1,0-0.1,0-0.2
		C254.7,21.9,254.6,21.9,254.4,22z"/>
	<path fill="#1B2A54" d="M235.8,21.1l0.3,0c3.1-0.1,6.3,0,10.1,0.4c1.7,0.1,3.5,0.3,5.2,0.5c0.2,0,0.4,0.1,0.5,0.2
		c0.4,0.1,0.8,0.1,1.2,0.2c0.2,0,0.3,0,0.5,0.1c0.4,0.1,0.7-0.1,0.9-0.5c-0.1,0-0.2,0-0.3,0c0,0,0,0-0.1,0c-0.5,0-0.8-0.4-0.8-0.9
		c0-0.2,0-0.3,0-0.4c-0.6-0.1-1.2-0.2-1.8-0.3c0,0,0,0,0,0.1c0.3,0.4,0.1,0.9-0.2,1.2c-0.4,0.3-0.9,0.1-1.2-0.2
		c-0.3-0.4-0.5-0.8-0.7-1.3c-5.3-0.7-9.5-0.9-13.4-0.8l-0.2,0c-4-0.1-8.4,0.1-13.8,0.8l0,0.6c0,0.5-0.4,0.8-0.9,0.8
		c-0.5,0-0.8-0.4-0.8-0.9l0-0.3c-0.4,0.1-0.9,0.1-1.3,0.2c0.3,0.1,0.5,0.4,0.6,0.7c0,0.5-0.3,0.9-0.8,0.9c-0.1,0-0.1,0-0.2,0
		c-0.5,0-0.9-0.2-1.3-0.5c0.1,0.4,0.4,0.7,0.8,0.7c0,0,0.1,0,0.1,0c0.2,0,0.4-0.1,0.6-0.1c0,0,0,0,0.1,0c0.8-0.1,1.6-0.2,2.4-0.3
		C227,21.2,231.6,20.9,235.8,21.1z"/>
	<path fill="#1B2A54" d="M229.2,15L229.2,15c-1.9,0-3.8,0.3-5.6,0.9c-0.5,0.1-0.7,0.6-0.6,1.1c0.1,0.4,0.5,0.6,0.8,0.6
		c0.1,0,0.2,0,0.3,0c1.7-0.5,3.4-0.8,5.1-0.8c0.5,0,0.9-0.4,0.9-0.9C230,15.4,229.6,15,229.2,15z"/>
	<path fill="#1B2A54" d="M241.4,16.8l4.8,0.7c0,0,0.1,0,0.1,0c0.4,0,0.8-0.3,0.9-0.7c0.1-0.5-0.3-0.9-0.7-1l-4.8-0.7
		c-0.5-0.1-0.9,0.3-1,0.7C240.6,16.3,240.9,16.7,241.4,16.8z"/>
	<path fill="#1B2A54" d="M233.1,38.4c-0.1-0.1-0.1-0.3-0.1-0.5c0-0.5,0.4-0.8,0.9-0.8c0.2,0,0.5,0,0.7,0c0-2.6-0.1-4.7-0.3-7.1
		l-0.1-1.4c0,0,0-0.1,0-0.1c-0.1-0.4-0.4-0.7-0.9-0.7c-0.5,0-0.8,0.4-0.8,0.9l0.1,1.4c0,0.8,0.1,1.7,0.1,2.5
		c0.1,1.6,0.1,3.2,0.1,5.2C232.9,38,233,38.2,233.1,38.4z"/>
	<path fill="#1B2A54" d="M237.7,38.5C237.7,38.5,237.7,38.5,237.7,38.5c-0.5,0-0.9-0.5-0.9-0.9l0-0.6c-0.4,0-0.8,0-1.2,0
		c-0.4,0-0.7,0-1.1,0c-0.2,0-0.5,0-0.7,0c-0.5,0-0.9,0.3-0.9,0.8c0,0.2,0.1,0.3,0.1,0.5c0.1,0.2,0.4,0.4,0.7,0.4c0.2,0,0.4,0,0.6,0
		c0.5,0,1,0,1.4-0.1c0.6,0,1.2-0.1,1.8,0c0.4,0,0.8-0.2,0.9-0.6C238.3,38.3,238,38.5,237.7,38.5z"/>
	<path fill="#1B2A54" d="M236.9,37l0,0.6c0,0.5,0.3,0.9,0.8,0.9c0,0,0,0,0.1,0c0.3,0,0.6-0.2,0.7-0.4c0.1-0.1,0.1-0.2,0.1-0.4
		l0.4-5.3l0.3-3.4c0-0.5-0.3-0.9-0.8-0.9c-0.3,0-0.6,0.1-0.8,0.4c-0.1,0.1-0.1,0.2-0.1,0.4L236.9,37z"/>
	<path fill="#1B2A54" d="M219.2,36.7c0-0.2,0.1-0.4,0.2-0.6c-0.1,0-0.1-0.1-0.1-0.1c-0.2-0.2-0.3-0.6-0.4-1c-0.4-2-0.7-4.1-0.9-6.2
		c-0.1-0.7-0.1-1.3-0.1-2c0-0.9,0.1-1.5,0.4-1.7c0.4-0.2,0.6-0.7,0.4-1.1c-0.2-0.4-0.7-0.6-1.1-0.4c-0.1,0-0.2,0.1-0.3,0.2
		c-0.8,0.5-1.2,1.6-1.1,3.2c0.1,2.9,0.5,5.7,1.1,8.5c0.1,0.5,0.3,1.2,0.8,1.8c0.3,0.3,0.7,0.6,1.2,0.7
		C219.1,37.5,219.1,37.1,219.2,36.7z"/>
	<path fill="#1B2A54" d="M253.1,24c-0.2,0.4,0,0.9,0.4,1.1c0.3,0.1,0.5,0.7,0.4,1.7c0,0.9-0.1,1.7-0.2,2.6c-0.2,1.9-0.5,3.8-0.8,5.7
		c-0.1,0.4-0.2,0.8-0.4,1c0,0-0.1,0.1-0.1,0.1c0.1,0.2,0.1,0.4,0.2,0.6c0.1,0.4,0.1,0.7,0.1,1.1c0.5-0.1,0.9-0.3,1.2-0.7
		c0.5-0.5,0.6-1.2,0.8-1.8c0.6-2.8,0.9-5.7,1.1-8.5c0.1-1.5-0.3-2.5-1-3c-0.1-0.1-0.3-0.2-0.4-0.3C253.8,23.3,253.3,23.5,253.1,24z"
		/>
	<path fill="#1B2A54" d="M238.8,43c-0.4,0.2-0.8,0.4-1.1,0.6c-0.3,0.2-0.5,0.4-0.8,0.5c-0.9,0.3-1.9,0.3-2.6,0
		c-0.2-0.1-0.4-0.2-0.6-0.4c-0.3-0.2-0.7-0.5-1.1-0.6c-1.1-0.5-2.2-0.2-2.9,0.6c-0.9,1.1-0.8,3.1-0.1,4.2c0.3,0.4,0.8,0.8,1.4,1.1
		c1.2,0.6,2.6,0.9,3.8,1c0.2,0,0.4,0,0.6,0l0.4,0c0.1,0,0.2,0,0.4,0c1.4,0,2.9-0.3,4.3-0.9c1.3-0.6,2.1-1.9,2-3.4
		c0-0.4-0.2-1.4-0.8-2.1C240.9,42.6,239.7,42.6,238.8,43z M239.7,47.3c-1.2,0.6-2.7,0.8-3.9,0.8h0l-0.4,0c-0.2,0-0.4,0-0.6,0
		c-1.1,0-2.2-0.3-3.2-0.8c-0.3-0.1-0.6-0.3-0.7-0.5c-0.4-0.5-0.4-1.6,0-2.1c0.1-0.1,0.3-0.2,0.4-0.2c0.2,0,0.4,0.1,0.5,0.1
		c0.3,0.1,0.6,0.3,0.9,0.5c0.2,0.2,0.5,0.3,0.7,0.4c1.1,0.6,2.6,0.7,4,0.1c0.5-0.2,0.8-0.4,1.2-0.6c0.3-0.2,0.5-0.3,0.8-0.4
		c0.4-0.1,0.8-0.1,0.9,0c0.1,0.1,0.3,0.5,0.3,1C240.7,46.3,240.3,47,239.7,47.3z"/>
	<path fill="#1B2A54" d="M221.9,47.9c0.2,0.4,0.1,0.9-0.4,1.2l-0.8,0.4c0.5,2.2,1.4,4.8,3.1,7c0,0,0,0,0-0.1c-0.1-0.5,0.3-0.9,0.7-1
		c0.5-0.1,0.9,0.3,1,0.7c0.1,0.8,0.2,1.5,0.3,2.3c2.7,2.1,6.1,2.8,8.6,3c0.7,0.1,1.3,0.1,2,0.1c3.4,0,6.4-0.8,8.7-2.3
		c-0.1-0.3-0.3-0.7-0.4-1c0,0,0,0,0-0.1l0,0c-0.1-0.2-0.1-0.5,0-0.7c-2.5,1.8-6,2.7-10.1,2.3c-2.7-0.2-6.6-1.1-9.1-3.9
		c-0.1-0.1-0.1-0.1-0.2-0.2c-1.4-1.7-2.4-3.9-3.1-7.2c0-0.1-0.1-0.3-0.1-0.4c-0.6-2.9-0.9-6-1.2-9.1l0-0.1c-0.1-0.6-0.1-1.3,0-1.8
		l0,0c0.1-0.3,0.1-0.5,0.3-0.7c0.2-0.3,0.6-0.4,1-0.4c0.3,0,0.6,0.1,0.9,0.2c0.8,0.4,1.3,1.4,1.7,2.2l0.1,0.2c0.5,0.9,1,2,1.9,2.7
		c1.2,1,2.8,1.2,4.7,0.6c0.5-0.2,0.9-0.4,1.3-0.6c0.4-0.2,0.9-0.5,1.3-0.5c0.3,0,0.6,0,0.9,0.1c0.2,0,0.4,0.1,0.6,0.1
		c0.1,0,0.2,0,0.3,0c0.4,0,0.8,0,1.1-0.1c0.2,0,0.4-0.1,0.6-0.1c0.4,0,0.8,0.3,1.3,0.6c0.3,0.2,0.7,0.5,1.1,0.6
		c1.5,0.6,3.1,0.5,4.3-0.2c1.2-0.8,2-2,2.5-3.1c0.5-0.9,1.1-1.9,1.9-2.5c0.6-0.4,1.7-0.5,2.1,0.1c0.1,0.2,0.2,0.4,0.2,0.6
		c0.1,0.4,0,1,0,1.5l-0.6,5c-0.2,1.5-0.4,3.1-0.7,4.6c-0.2,1-0.4,1.9-0.7,2.7c-0.8,2.6-2,4.6-3.6,6.1c0,0-0.1,0.1-0.1,0.1
		c0.4-0.1,0.7,0.1,0.9,0.5c0,0.1,0,0.1,0.1,0.2c0.1,0.2,0.2,0.4,0.2,0.6c0,0,0,0,0.1,0c1.8-1.6,3.2-4,4.1-6.9
		c0.2-0.6,0.3-1.3,0.5-1.9c-0.2-0.1-0.5-0.2-0.7-0.3c-0.4-0.2-0.7-0.7-0.5-1.1c0.2-0.5,0.6-0.7,1.1-0.5c0.2,0.1,0.3,0.1,0.5,0.2
		c0.2-1.3,0.4-2.6,0.6-3.9l0.6-5c0-0.3,0.1-0.6,0.1-0.9c0-0.4,0-0.7-0.1-1.1c0-0.2-0.1-0.4-0.2-0.6c-0.1-0.3-0.2-0.5-0.4-0.7
		c-0.8-1-2.1-1.2-3.2-1c-0.1,0-0.1,0-0.2,0c-0.4,0.1-0.7,0.2-1,0.4c-1.2,0.8-1.9,2.1-2.5,3.1c-0.5,0.9-1.1,1.9-1.9,2.4
		c-1.1,0.7-2.2,0.3-2.8,0.1c-0.2-0.1-0.5-0.3-0.8-0.5c-0.6-0.4-1.4-0.9-2.3-0.9c-0.3,0-0.5,0.1-0.7,0.1c-0.3,0-0.5,0.1-0.7,0.1
		c0,0-0.1,0-0.1,0c0,0,0,0,0,0c-0.2,0-0.3-0.1-0.5-0.1c-0.5-0.1-1-0.2-1.6-0.1c-0.7,0.1-1.3,0.4-1.8,0.7c-0.3,0.2-0.7,0.4-1,0.5
		c-1.3,0.4-2.3,0.3-3.1-0.3c-0.6-0.5-1-1.3-1.5-2.2l-0.1-0.2c-0.5-1-1.2-2.2-2.4-2.9c-0.1-0.1-0.2-0.1-0.4-0.2
		c-0.3-0.1-0.5-0.2-0.8-0.2c-1.1-0.2-2.1,0.2-2.8,1c-0.2,0.3-0.4,0.6-0.5,0.9c-0.1,0.2-0.1,0.4-0.2,0.6c-0.1,0.4-0.1,0.8-0.1,1.1
		c0,0.4,0,0.8,0.1,1.2l0,0.1c0.3,2.9,0.6,5.8,1.1,8.6l0.4-0.2C221.1,47.3,221.7,47.5,221.9,47.9z"/>
	<path fill="#1B2A54" d="M221.6,9.9c0,0,0.1,0,0.1,0c0-0.1-0.1-0.1-0.1-0.1C221.6,9.8,221.6,9.8,221.6,9.9z"/>
	<path fill="#1B2A54" d="M217.2,21.8c0.4,0.3,0.8,0.5,1.3,0.5c0.1,0,0.1,0,0.2,0c0.5-0.1,0.8-0.5,0.8-0.9c0-0.3-0.3-0.6-0.6-0.7
		c-0.1,0-0.3-0.1-0.4-0.1c-0.1,0-0.3-0.1-0.4-0.3c-0.2-0.2-0.3-0.6-0.4-1c-0.5-1.8-0.6-3.7-0.4-5.6c0.1-0.9,0.3-1.5,0.5-2
		c0.3-0.6,0.8-1,1.3-1.1c0.3-0.1,0.7,0,1,0.2c0.1,0.1,0.2,0.1,0.2,0.2c0,0.1,0.1,0.1,0.1,0.2c0.1,0.3,0.1,0.8,0.1,1.3l-0.3,8l0,0.3
		c0,0.5,0.4,0.9,0.8,0.9c0.5,0,0.9-0.4,0.9-0.8l0-0.6l0.3-7.7c0-0.3,0-0.5,0-0.7c-0.4-0.1-0.7-0.1-1.1-0.2c-0.4-0.1-0.7-0.5-0.7-0.9
		c-0.3-0.1-0.6-0.3-0.6-0.7c-0.1-0.4-0.1-0.8-0.1-1.2c-0.4,0-0.8,0-1.2,0.1c-1,0.3-1.8,1-2.3,2c-0.5,0.9-0.6,1.9-0.7,2.7
		c-0.2,2.1-0.1,4.2,0.5,6.2c0.1,0.5,0.3,1.1,0.7,1.6c0.1,0.1,0.2,0.3,0.3,0.4C217.2,21.7,217.2,21.7,217.2,21.8z"/>
	<path fill="#1B2A54" d="M219.9,10c0.1,0.3,0.3,0.6,0.6,0.7c0,0.4,0.3,0.8,0.7,0.9c0.4,0.1,0.7,0.1,1.1,0.2c6.2,1.2,12.5,2.4,19,2.4
		c0.4,0,0.9,0,1.3,0c2-0.1,4.4-0.3,6.4-1.3c0.1-0.2,0.1-0.4,0.2-0.7c0.3-0.7,0.6-1.2,1-1.7c0.1-0.1,0.2-0.2,0.2-0.2
		c0.5-0.4,1.1-0.7,1.7-0.7c0.6-1.2,0.8-2.5,0.4-3.7c-0.4-1.4-1.5-2.8-3-3.6c-1.4-0.8-2.9-1.1-4.2-1.4c-6.8-1.3-12.9-1.2-18.1,0.4
		c-2.3,0.7-4,1.6-5.2,2.8c-1.3,1.3-2.1,3-2.1,4.7C219.8,9.2,219.8,9.6,219.9,10z M249.4,10.4c-0.3,0.2-0.5,0.5-0.9,0.7
		c-1.8,1.1-4.1,1.3-6.1,1.4c-7,0.2-14-1.2-20.8-2.5c0,0-0.1,0-0.1,0c0,0,0-0.1,0-0.1c0,0,0-0.1,0-0.1c-0.3-1.4,0.3-3,1.6-4.3
		c1-1,2.5-1.8,4.5-2.4c5-1.5,10.8-1.7,17.3-0.4c1.2,0.2,2.5,0.5,3.7,1.2c1.1,0.6,1.9,1.6,2.2,2.6C251.3,7.9,250.4,9.5,249.4,10.4z"
		/>
	<path fill="#1B2A54" d="M250.4,10.3c-0.1,0.1-0.2,0.1-0.2,0.2c-0.4,0.4-0.7,0.9-1,1.7c-0.1,0.2-0.1,0.4-0.2,0.7
		c-0.7,2.4-0.5,5,0.5,7.3c0.2,0.4,0.4,0.9,0.7,1.3c0.3,0.4,0.8,0.5,1.2,0.2c0.4-0.3,0.5-0.8,0.2-1.2c0,0,0,0,0-0.1
		c-1.5-2.3-1.8-5.2-0.8-7.6c0.2-0.5,0.4-0.8,0.6-1.1c0,0,0.1-0.1,0.1-0.1c0.3-0.2,0.6-0.3,0.9-0.2c0.4,0.1,0.7,0.7,0.8,1.7
		c0.3,2.2,0.4,4.6,0.2,7.6c0,0.1,0,0.3,0,0.4c0,0.5,0.3,0.9,0.8,0.9c0,0,0,0,0.1,0c0.1,0,0.2,0,0.3,0c0.1,0,0.3-0.1,0.4-0.2
		c0.1-0.1,0.2-0.3,0.2-0.5c0.2-3.3,0.1-5.9-0.2-8.4c-0.1-0.6-0.4-2.5-1.9-3.1c-0.3-0.1-0.5-0.1-0.8-0.1
		C251.5,9.6,250.9,9.9,250.4,10.3z"/>
	<path fill="#1B2A54" d="M235.2,75.2c0.2-0.1,0.3-0.2,0.5-0.3c-0.7-0.7-1.5-1.4-2.2-2.1c-2.4-2.3-4.8-4.7-6.9-7.3c0,0,0,0-0.1,0
		c0,0.2,0,0.3,0.1,0.5c0.1,0.9,0.2,1.7,0.3,2.6c1.7,1.9,3.5,3.7,5.3,5.5c0.8,0.8,1.6,1.6,2.5,2.4c0.1,0.1,0.2,0.2,0.3,0.2
		c-0.1-0.1-0.1-0.1-0.2-0.2C234.7,76,234.8,75.5,235.2,75.2z"/>
	<path fill="#1B2A54" d="M247.6,66.6c-0.1-0.2-0.1-0.3-0.2-0.5c-2,1.8-8.8,6.9-11.7,8.8c-0.2,0.1-0.4,0.2-0.5,0.3
		c-0.4,0.3-0.5,0.8-0.3,1.2c0.1,0.1,0.1,0.1,0.2,0.2c0.2,0.1,0.3,0.2,0.5,0.2c0.2,0,0.3,0,0.5-0.1c2.4-1.5,9.1-6.4,11.9-8.8
		C247.9,67.4,247.8,67,247.6,66.6z"/>
	<path fill="#1B2A54" d="M212.3,58.9C212.3,58.9,212.3,58.9,212.3,58.9C212.4,58.9,212.4,58.9,212.3,58.9
		C212.4,58.9,212.4,58.9,212.3,58.9z"/>
	<path fill="#1B2A54" d="M210.6,58c0.2,0,0.4,0,0.6,0c-0.1-0.2-0.2-0.3-0.2-0.5c-2,0.6-3.9,1.2-5.9,1.7c0,0,0,0.1,0,0.1
		C207.2,58.8,209.1,58.3,210.6,58z"/>
	<path fill="#1B2A54" d="M257,142c-0.2,0.4-0.5,0.8-0.8,1.1c0.4,0,0.8,0.2,0.9,0.6c0.1,0.4-0.1,0.9-0.6,1.1c0.8,1.4,1.6,2.7,2.5,4
		c0.2,0.2,0.4,0.4,0.7,0.4c0,0,0,0,0.1,0c-0.4-0.2-0.6-0.6-0.5-1c0.1-0.4,0.5-0.7,0.9-0.6c-0.9-1.3-1.8-2.7-2.6-4.1
		C257.5,142.9,257.3,142.5,257,142z"/>
	<path fill="#1B2A54" d="M252.8,112.1l1-15.6c0-1.8,0-3.6-0.1-5.4c0,0,0,0.1,0,0.1c0,0,0,0.1,0,0.1c-0.1,0.3-0.4,0.5-0.8,0.5
		c-0.5,0-0.8-0.4-0.9-0.8c0,0,0,0,0,0c0.1,3,0.2,6,0,9c-0.1,2.9-0.4,5.9-0.6,8.9c-0.4,4.7-0.8,9.6-0.7,14.4c0.2-0.7,0.9-1,1.5-1
		l0.2-3.9C252.5,116.2,252.7,114.1,252.8,112.1z"/>
	<path fill="#1B2A54" d="M247.6,66.6c0.1,0.4,0.3,0.9,0.4,1.3c2.2,7.5,3.6,15.3,4,23.1c0-0.1,0-0.2,0-0.3c0.6-2,0.9-4,1.2-6.1
		c-0.7-6.3-2-12.5-3.9-18.6c-0.8-2.7-1.8-5.3-2.8-7.9c-0.1-0.2-0.2-0.4-0.2-0.6c0-0.1,0-0.1-0.1-0.2c-0.2-0.4-0.5-0.5-0.9-0.5
		c-0.1,0-0.2,0-0.2,0.1c-0.2,0.1-0.3,0.3-0.4,0.5c-0.1,0.2-0.1,0.5,0,0.7l0,0c0,0,0,0,0,0.1c0.1,0.3,0.3,0.7,0.4,1
		c0.9,2.2,1.7,4.5,2.5,6.8C247.5,66.2,247.6,66.4,247.6,66.6z"/>
	<path fill="#1B2A54" d="M270.3,147.5c-0.3,0-0.6-0.2-0.8-0.5c-0.1-0.2-0.2-0.4-0.3-0.6c-2.5,1.3-5.5,1.7-8.2,1.2
		c-0.2,0-0.4-0.1-0.6-0.1c0,0-0.1,0-0.1,0c-0.4-0.1-0.8,0.2-0.9,0.6c-0.1,0.4,0.1,0.8,0.5,1c0,0,0,0,0,0l0,0c-0.1-0.5,0.2-0.9,0.7-1
		c0.5-0.1,0.9,0.2,1,0.7l0,0c0,0.2,0.1,0.4,0.1,0.6c0.5,0.1,1.1,0.1,1.6,0.1c2.5,0,5-0.6,7.2-1.9c0.2-0.1,0.3-0.2,0.3-0.4
		c-0.1,0.1-0.2,0.1-0.3,0.2C270.5,147.5,270.4,147.5,270.3,147.5z"/>
	<path fill="#1B2A54" d="M264.4,133.1c1.3,4.5,2.9,9,4.8,13.3c0.1,0.2,0.2,0.4,0.3,0.6c0.1,0.3,0.5,0.5,0.8,0.5c0.1,0,0.2,0,0.3-0.1
		c0.1,0,0.2-0.1,0.3-0.2c0.2-0.2,0.3-0.6,0.2-0.9c-2.2-4.9-4-10-5.4-15.2C265.3,131.8,264.9,132.4,264.4,133.1z"/>
	<path fill="#1B2A54" d="M257.1,143.7c-0.1-0.4-0.5-0.6-0.9-0.6c-0.3,0.3-0.5,0.7-0.8,1c0,0,0,0.1,0,0.1c-0.2,0.3-0.5,0.7-0.9,1.2
		c0.7-0.2,1.4-0.4,2.1-0.6c0,0,0,0,0,0C257,144.6,257.3,144.2,257.1,143.7z"/>
	<path fill="#1B2A54" d="M267.6,210.9c0.4,13.7-0.5,26-2.7,37.5c0,0.1,0,0.1,0,0.2c-0.2,1.1-0.4,2.2-0.7,3.5c0,0,0.1-0.1,0.1-0.1
		c0.4-0.3,0.9-0.2,1.2,0.2c0.2,0.2,0.2,0.5,0.1,0.8c0.1-0.1,0.2-0.2,0.2-0.4c0.3-1.4,0.6-2.6,0.8-3.8c2.6-13.4,3.4-28.1,2.4-44.6
		C268.7,206.4,268.2,208.7,267.6,210.9z"/>
	<path fill="#1B2A54" d="M261.6,148.8c-0.1-0.5-0.5-0.8-1-0.7c-0.5,0.1-0.8,0.5-0.7,1l0,0l0,0c1.1,6.6,2.3,13.3,3.4,20.1l1.6,3.6
		c0.4,1,0.8,1.9,1.2,2.9c-1.3-8.8-2.8-17.6-4.3-26.2C261.7,149.3,261.7,149,261.6,148.8L261.6,148.8z"/>
	<path fill="#1B2A54" d="M254.1,251.5c0.3-0.3,0.9-0.4,1.2,0c0,0,0,0,0,0c0-1.3,0-2.6,0-3.9c0-0.1,0-0.2,0-0.2
		c-0.1-4.2-0.3-8.4-0.6-12.7c-0.3,0.3-0.6,0.7-0.9,1c-0.2,0.3-0.5,0.5-0.7,0.8c0.2,3.7,0.4,7.3,0.4,10.9c0,1.4,0,2.9,0,4.3
		c0,0.2,0.1,0.5,0.3,0.6C253.8,252,253.9,251.7,254.1,251.5z"/>
	<path fill="#1B2A54" d="M257,252.8c0.5,0,0.9,0.4,0.8,0.9l0,1c0.8,0.2,1.5,0.3,2.3,0.3c0.4,0,0.8,0,1.1-0.1l0-0.5
		c0-0.5,0.5-0.8,0.9-0.8c0.4,0,0.8,0.4,0.8,0.8c0.9-0.3,1.7-0.7,2.4-1.3c0.2-0.1,0.2-0.3,0.3-0.4c0.1-0.3,0-0.5-0.1-0.8
		c-0.3-0.4-0.8-0.4-1.2-0.2c0,0-0.1,0.1-0.1,0.1c-0.7,0.5-1.5,0.9-2.4,1.1c-1.5,0.3-3.1,0.2-4.5-0.3c-0.7-0.3-1.4-0.7-2-1.2
		c0,0,0,0,0,0c-0.3-0.3-0.9-0.3-1.2,0c-0.2,0.2-0.3,0.5-0.2,0.8c0,0.2,0.1,0.3,0.2,0.4c0.6,0.5,1.2,1,2,1.3l0-0.4
		C256.1,253.1,256.5,252.8,257,252.8z"/>
	<path fill="#1B2A54" d="M257.2,257.6c0.2,0.1,0.3,0.2,0.5,0.3l0-3.2l0-1c0-0.5-0.4-0.9-0.8-0.9c-0.5,0-0.9,0.4-0.9,0.8l0,0.4l0,2.5
		C256.4,256.9,256.8,257.3,257.2,257.6z"/>
	<path fill="#1B2A54" d="M262.2,253.7c-0.5-0.1-0.9,0.3-0.9,0.8l0,0.5l-0.4,4c0.3,0,0.5,0.1,0.8,0.1c0.3,0,0.6,0,0.9,0l0.4-4.4
		c0,0,0-0.1,0-0.1C263,254.1,262.7,253.7,262.2,253.7z"/>
	<path fill="#1B2A54" d="M255.8,257L255.8,257c0,0.1,0,0.1-0.1,0.1c-0.2,0.4-0.3,0.7-0.5,1.1c0.3,0.3,0.6,0.5,1,0.8
		c1.6,1.1,3.4,1.7,5.3,1.7c0.1,0,0.2,0,0.3,0c0.5,0,1,0,1.5-0.1c-0.1-0.2-0.3-0.4-0.4-0.6c-0.2-0.4-0.1-0.9,0.3-1.1c0,0-0.1,0-0.1,0
		c-0.2,0-0.5,0.1-0.7,0.1c-0.3,0-0.6,0-0.9,0c-0.3,0-0.5,0-0.8-0.1c-1.1-0.1-2.1-0.5-3.1-1.1c-0.2-0.1-0.3-0.2-0.5-0.3
		c-0.4-0.3-0.8-0.7-1.2-1c-0.1-0.1-0.1-0.1-0.2-0.2C255.9,256.6,255.9,256.8,255.8,257z"/>
	<path fill="#1B2A54" d="M277.7,270.9c0.2-0.1,0.3-0.2,0.4-0.3c-0.1,0.1-0.3,0.2-0.5,0.2c0,0,0,0,0,0c-0.5,0-0.8-0.4-0.9-0.8
		c0-0.2,0-0.3,0-0.5c-4.8,2-10.3,1.1-16.3-0.2c-1.7-0.4-3.5-0.8-4.7-1.9c-1-0.9-1.5-2.5-1.5-4.1c-0.4-0.3-0.7-0.6-1-0.9
		c-0.3-0.3-0.3-0.9,0-1.2c0.3-0.3,0.9-0.3,1.2,0c0,0,0.1,0.1,0.1,0.1c0.2-1,0.6-1.9,1-2.9c0.1-0.4,0.3-0.7,0.5-1.1c0,0,0-0.1,0-0.1
		l0,0c0.1-0.2,0.1-0.5,0-0.7c-0.1-0.2-0.2-0.4-0.4-0.5c-0.4-0.2-0.9,0-1.1,0.4c0,0,0,0.1,0,0.1l0,0.1c-0.7,1.7-1.4,3.3-1.7,5
		c0,0.3-0.1,0.5-0.1,0.8c-0.3,2.5,0.4,4.8,1.9,6.3c1.6,1.5,3.8,2,5.6,2.4c3.7,0.8,7.1,1.4,10.4,1.4h0
		C272.8,272.4,275.3,272,277.7,270.9z"/>
	<path fill="#1B2A54" d="M265.9,263c0.4,0.2,0.8,0.5,1.2,0.6c0.1-0.3,0.3-0.6,0.4-0.8l0.4-0.8c-0.3-0.1-0.6-0.3-0.9-0.5l-0.5,0.7
		C266.2,262.5,266.1,262.7,265.9,263z"/>
	<path fill="#1B2A54" d="M269,263.5c-0.1,0.2-0.2,0.4-0.3,0.6c0.5,0.1,1.1,0.2,1.6,0.2c0.4,0,0.8,0,1.2,0c0.8,0,1.6-0.1,2.2,0.1
		c0.9,0.3,1.7,1.1,2.1,2.1c0,0,0,0,0,0c0.2-0.1,0.4-0.1,0.6-0.2c0.5-0.1,0.9,0.1,1.1,0.6c0.1,0.5-0.1,0.9-0.6,1.1
		c-0.2,0.1-0.4,0.1-0.6,0.2c0.1,0.4,0.1,0.8,0.1,1.2c0,0.2,0,0.3,0,0.5c0,0.5,0.4,0.8,0.9,0.8c0,0,0,0,0,0c0.2,0,0.4-0.1,0.5-0.2
		c0.2-0.2,0.3-0.4,0.3-0.7c0-0.8-0.1-1.9-0.4-2.9c-0.1-0.4-0.2-0.7-0.4-1.1c-0.7-1.5-1.8-2.6-3.2-3.1c-1-0.3-1.9-0.3-2.8-0.2
		c-0.4,0-0.8,0-1.1,0c-0.3,0-0.6,0-0.9-0.1L269,263.5z"/>
	<path fill="#1B2A54" d="M263.1,260c0.1,0.2,0.2,0.4,0.4,0.6c0.3,0.5,0.7,0.9,1.1,1.3c0.1-0.2,0.3-0.4,0.4-0.6l0.5-0.8c0,0,0,0,0,0
		c-0.4-0.4-0.7-0.8-1-1.3c-0.2-0.4-0.8-0.6-1.2-0.3c0,0,0,0-0.1,0.1C263,259.2,262.9,259.6,263.1,260z"/>
	<path fill="#1B2A54" d="M276.4,268.3c0.2-0.1,0.4-0.1,0.6-0.2c0.5-0.1,0.7-0.6,0.6-1.1c-0.1-0.5-0.6-0.7-1.1-0.6
		c-0.2,0.1-0.4,0.1-0.6,0.2c-7.5,2-16.1-0.1-21.6-5.5c0,0-0.1-0.1-0.1-0.1c-0.3-0.3-0.9-0.3-1.2,0c-0.3,0.3-0.3,0.9,0,1.2
		c0.3,0.3,0.7,0.6,1,0.9c4.4,3.8,10.3,5.9,16.2,5.9C272.3,269.1,274.4,268.9,276.4,268.3z"/>
	<path fill="#1B2A54" d="M265,261.3c-0.1,0.2-0.3,0.4-0.4,0.6c-0.2,0.3-0.4,0.6-0.6,0.8l-0.1,0.1c-0.3,0.4-0.2,0.9,0.2,1.2
		c0.2,0.1,0.3,0.2,0.5,0.2c0.3,0,0.5-0.1,0.7-0.4l0.1-0.1c0.2-0.2,0.3-0.5,0.5-0.7c0.2-0.2,0.3-0.5,0.5-0.7l0.5-0.7l0-0.1
		c0.3-0.4,0.2-0.9-0.2-1.2c-0.4-0.3-0.9-0.2-1.2,0.2c0,0,0,0,0,0L265,261.3z"/>
	<path fill="#1B2A54" d="M267.1,263.6c-0.1,0.3-0.2,0.5-0.4,0.8c-0.2,0.4,0,0.9,0.4,1.1c0.1,0.1,0.2,0.1,0.4,0.1
		c0.3,0,0.6-0.2,0.8-0.5c0.2-0.3,0.3-0.7,0.5-1c0.1-0.2,0.2-0.4,0.3-0.6l0.4-1l0.2-0.5c0.2-0.4,0-0.9-0.4-1.1
		c-0.4-0.2-0.9,0-1.1,0.4l-0.3,0.7l-0.4,0.8C267.4,263.1,267.2,263.3,267.1,263.6z"/>
	<path fill="#1B2A54" d="M204.1,200.8c0.4,0.8,1,1.5,1.6,2.1c0.1-0.8,0.1-1.5,0.1-2.3c0.9-11.6,2.4-22.7,4.2-33.9l-1.3-2.9
		c-2,12.1-3.7,24.1-4.6,36.7C204.1,200.6,204.1,200.7,204.1,200.8z"/>
	<path fill="#1B2A54" d="M210.7,253.7c0.5,0,0.9,0.3,0.9,0.8c0,0.1,0,0.3,0,0.5c0.4,0,0.8,0.1,1.1,0.1c0.8,0,1.6-0.1,2.3-0.3l0-1
		c0-0.1,0-0.1,0-0.2c-0.8,0-1.6,0.1-2.3,0c-1.8,0-3.5-0.1-5.3-0.3c0,0,0,0,0,0c0.7,0.5,1.5,1,2.4,1.3
		C209.9,254.1,210.3,253.7,210.7,253.7z"/>
	<path fill="#1B2A54" d="M216.8,253.6l0,0.4c0.5-0.2,0.9-0.5,1.3-0.8c-0.5,0-0.9,0.1-1.4,0.1C216.8,253.4,216.8,253.5,216.8,253.6z"
		/>
	<path fill="#1B2A54" d="M216.8,253.4c-0.5,0-1.1,0.1-1.6,0.1c0,0.1,0,0.1,0,0.2l0,1l0,3.2c0.2-0.1,0.3-0.2,0.5-0.3
		c0.4-0.3,0.8-0.6,1.2-1l0-2.5l0-0.4C216.8,253.5,216.8,253.4,216.8,253.4z"/>
	<path fill="#1B2A54" d="M211.3,259c0.3,0,0.5,0,0.8-0.1c-0.1-1.2-0.3-2.9-0.4-4c0-0.2,0-0.3,0-0.5c0-0.5-0.5-0.8-0.9-0.8
		c-0.4,0-0.8,0.4-0.8,0.8c0,0,0,0.1,0,0.1c0.1,1,0.3,3,0.4,4.4C210.7,259,211,259,211.3,259z"/>
	<path fill="#1B2A54" d="M215.7,257.6c-0.2,0.1-0.3,0.2-0.5,0.3c-0.9,0.6-2,0.9-3.1,1.1c-0.3,0-0.5,0.1-0.8,0.1c-0.3,0-0.6,0-0.9,0
		c-0.2,0-0.5,0-0.7-0.1c0,0-0.1,0-0.1,0c0.4,0.3,0.5,0.7,0.3,1.1c-0.1,0.2-0.2,0.4-0.4,0.6c0.5,0.1,1,0.1,1.5,0.1c0.1,0,0.2,0,0.3,0
		c1.9-0.1,3.8-0.7,5.3-1.7c0.3-0.2,0.7-0.5,1-0.8c-0.1-0.4-0.3-0.7-0.5-1.1c0,0,0,0,0-0.1c0,0,0,0,0-0.1l0,0c-0.1-0.2-0.1-0.4,0-0.6
		c-0.1,0.1-0.1,0.1-0.2,0.2C216.5,256.9,216.1,257.3,215.7,257.6z"/>
	<path fill="#1B2A54" d="M217.1,257L217.1,257C217.1,257.1,217.1,257.1,217.1,257c0,0.1,0.1,0.1,0.1,0.1c0.2,0.4,0.3,0.7,0.5,1.1
		c0.4,1,0.7,1.9,1,2.9c0,0,0.1-0.1,0.1-0.1c0.3-0.3,0.9-0.3,1.2,0c0.3,0.3,0.3,0.9,0,1.2c-0.3,0.3-0.7,0.6-1,0.9
		c0,1.7-0.5,3.2-1.5,4.1c-1.2,1.2-3.1,1.6-4.7,1.9c-6.1,1.3-11.5,2.2-16.3,0.2c0,0.2,0,0.3,0,0.5c0,0.5-0.4,0.8-0.9,0.8c0,0,0,0,0,0
		c-0.2,0-0.4-0.1-0.5-0.2c0.1,0.1,0.2,0.3,0.4,0.3c2.4,1,4.8,1.4,7.4,1.4c3.3,0,6.7-0.6,10.4-1.4c1.8-0.4,4-0.9,5.6-2.4
		c1.5-1.5,2.2-3.8,1.9-6.3c0-0.3-0.1-0.6-0.1-0.8c-0.3-1.7-1-3.3-1.7-5c0,0,0-0.1-0.1-0.1l0,0c-0.2-0.4-0.7-0.6-1.1-0.5
		c-0.2,0.1-0.4,0.3-0.5,0.5C217,256.6,217,256.8,217.1,257z"/>
	<path fill="#1B2A54" d="M208.4,261.9c0.4-0.4,0.8-0.8,1.1-1.3c0.1-0.2,0.3-0.4,0.4-0.6c0.2-0.4,0.1-0.9-0.3-1.1c0,0,0,0-0.1,0
		c-0.4-0.2-0.9-0.1-1.2,0.3c-0.3,0.5-0.6,0.9-1,1.3c0,0,0,0,0,0L208.4,261.9z"/>
	<path fill="#1B2A54" d="M205.8,263.6c0.4-0.2,0.8-0.4,1.2-0.6l-1-1.4c-0.3,0.2-0.6,0.4-0.9,0.5L205.8,263.6z"/>
	<path fill="#1B2A54" d="M195.5,270.8c0.5,0,0.8-0.4,0.9-0.8c0-0.2,0-0.3,0-0.5c0-0.4,0.1-0.8,0.1-1.2c-0.2-0.1-0.4-0.1-0.6-0.2
		c-0.5-0.1-0.7-0.6-0.6-1.1c0.1-0.5,0.6-0.7,1.1-0.6c0.2,0.1,0.4,0.1,0.6,0.2c0,0,0,0,0,0c0.5-1.1,1.2-1.8,2.1-2.1
		c0.7-0.2,1.4-0.2,2.2-0.1c0.4,0,0.8,0,1.3,0c0.5,0,1.1-0.1,1.6-0.2l-0.7-1.6c-0.3,0-0.6,0.1-0.9,0.1c-0.4,0-0.7,0-1.1,0
		c-0.9,0-1.9-0.1-2.8,0.2c-1.3,0.4-2.5,1.6-3.2,3.1c-0.2,0.3-0.3,0.7-0.4,1.1c-0.3,1-0.4,2.1-0.4,2.9c0,0.3,0.1,0.5,0.3,0.7
		C195,270.7,195.2,270.8,195.5,270.8C195.4,270.8,195.4,270.8,195.5,270.8z"/>
	<path fill="#1B2A54" d="M197,266.6c-0.2-0.1-0.4-0.1-0.6-0.2c-0.5-0.1-0.9,0.1-1.1,0.6c-0.1,0.5,0.1,0.9,0.6,1.1
		c0.2,0.1,0.4,0.1,0.6,0.2c2,0.5,4.1,0.8,6.2,0.8c5.9,0,11.8-2.1,16.2-5.9c0.4-0.3,0.7-0.6,1-0.9c0.3-0.3,0.3-0.9,0-1.2
		c-0.3-0.3-0.9-0.3-1.2,0c0,0-0.1,0.1-0.1,0.1C213,266.5,204.4,268.7,197,266.6z"/>
	<path fill="#1B2A54" d="M207,263l0.6,0.8c0.2,0.2,0.4,0.4,0.7,0.4c0.2,0,0.3,0,0.5-0.2c0.4-0.3,0.5-0.8,0.2-1.2l-0.6-0.9l-1-1.4
		c0,0,0,0,0,0c-0.3-0.3-0.8-0.4-1.2-0.2c-0.4,0.3-0.5,0.8-0.2,1.2l0.1,0.1L207,263z"/>
	<path fill="#1B2A54" d="M204.2,264.1l0.5,1c0.1,0.3,0.5,0.5,0.8,0.5c0.1,0,0.2,0,0.4-0.1c0.4-0.2,0.6-0.7,0.4-1.1l-0.4-0.8
		l-0.7-1.6l-0.3-0.7c-0.2-0.4-0.7-0.6-1.1-0.4c-0.4,0.2-0.6,0.7-0.4,1.1l0.2,0.5L204.2,264.1z"/>
	<path fill="#1B2A54" d="M241.7,116c0.6,0,1.3-0.2,1.8-0.6c0.6-0.5,1.1-1.2,1.2-2l3.1-22.2l0.1-0.5c0.2-1.6-0.9-3.2-2.6-3.4
		l-8.8-1.2c-1.6-0.2-3.2,0.9-3.4,2.6l-1.2,8.3c0.2,0.5,0.5,1,0.7,1.5l0.6,1.4l1.4-9.7c-0.2,0-0.4,0-0.5-0.1c-0.5-0.1-0.8-0.5-0.7-1
		c0.1-0.5,0.5-0.8,1-0.7c0.2,0,0.4,0.1,0.6,0.1c0.2-0.5,0.7-0.8,1.2-0.8c0.1,0,0.1,0,0.2,0L245,89c0.6,0.1,1,0.5,1.1,1.1
		c0.2,0,0.4,0.1,0.6,0.1c0.5,0.1,0.8,0.5,0.7,1c-0.1,0.4-0.4,0.7-0.9,0.7c0,0-0.1,0-0.1,0c-0.2,0-0.4-0.1-0.6-0.1l-2.4,17.4l0.4,0.1
		c0.5,0.1,0.8,0.5,0.7,1c-0.1,0.4-0.4,0.7-0.9,0.7c0,0-0.1,0-0.1,0l-0.3-0.1l-0.3,2.2c0,0.3-0.2,0.6-0.5,0.8c-0.3,0.2-0.6,0.3-1,0.2
		l-2.2-0.3l0.8,1.9l1.2,0.2C241.4,115.9,241.6,116,241.7,116z"/>
	<path fill="#1B2A54" d="M243.6,110.9c0,0,0.1,0,0.1,0c0.4,0,0.8-0.3,0.9-0.7c0.1-0.5-0.3-0.9-0.7-1l-0.4-0.1l-6.7-1l0.8,1.9
		l5.7,0.8L243.6,110.9z"/>
	<path fill="#1B2A54" d="M246.5,91.9c0,0,0.1,0,0.1,0c0.4,0,0.8-0.3,0.9-0.7c0.1-0.5-0.3-0.9-0.7-1c-0.2,0-0.4-0.1-0.6-0.1
		c-3.8-0.5-7.5-1-11.3-1.6c-0.2,0-0.4-0.1-0.6-0.1c-0.5-0.1-0.9,0.3-1,0.7c-0.1,0.5,0.3,0.9,0.7,1c0.2,0,0.4,0,0.5,0.1
		c3.8,0.5,7.6,1,11.4,1.6C246.1,91.8,246.3,91.8,246.5,91.9z"/>
	<path fill="#1B2A54" d="M238.5,111.5c0-0.1,0-0.3-0.1-0.4c-0.1-0.2-0.3-0.4-0.6-0.5l0.1,0.1c0.1,0,0.1,0.1,0.2,0.1
		C238.4,111.1,238.5,111.3,238.5,111.5z"/>
	<path fill="#1B2A54" d="M238.5,111.5c0-0.3-0.2-0.5-0.4-0.6c-0.1,0-0.1-0.1-0.2-0.1l0.1,0.2c0.2,0.1,0.4,0.4,0.4,0.6
		c0,0.1,0,0.1,0,0.2l0.1,0.2c0,0,0,0,0-0.1C238.6,111.8,238.6,111.7,238.5,111.5z"/>
	<path fill="#1B2A54" d="M238,111l0.1,0.2l0,0.1c0.1,0.1,0.1,0.3,0.2,0.4l0.1,0.1c0-0.1,0-0.1,0-0.2
		C238.4,111.4,238.2,111.2,238,111z"/>
	<path fill="#1B2A54" d="M238.2,111.3L238.2,111.3l0.2,0.4C238.3,111.5,238.3,111.4,238.2,111.3z"/>
	<path fill="#1B2A54" d="M211.2,58c0.5,0.1,0.9,0.4,1.1,0.9c0,0,0,0,0.1,0c0.1,0,0.1,0,0.2,0h0c0,0,0,0,0,0c0.4-0.2,0.5-0.6,0.5-0.9
		c0-0.1,0-0.1-0.1-0.2c-0.4-0.7-0.7-1.4-1.1-2.2c-0.2-0.4-0.4-0.8-0.6-1.2l0.4-0.2l0,0l8.5-4.4l0.1,0c0.1,0,0.2-0.1,0.3-0.1l0,0l0,0
		l0.8-0.4c0.4-0.2,0.6-0.7,0.4-1.2c-0.2-0.4-0.7-0.6-1.2-0.4l-0.4,0.2l-0.5,0.3c-0.1,0-0.2,0.1-0.2,0.1l-9.7,5.1
		c-0.4,0.2-0.6,0.7-0.4,1.1c0.5,1.1,1,2.1,1.6,3.2C211.1,57.7,211.2,57.8,211.2,58z"/>
	<path fill="#1B2A54" d="M227.1,68.5c-0.1-0.9-0.2-1.8-0.3-2.6c0-0.2,0-0.3-0.1-0.5c-0.3-2.3-0.6-4.5-0.9-6.9
		c-0.1-0.7-0.2-1.5-0.3-2.3c-0.1-0.5-0.5-0.8-1-0.7c-0.5,0.1-0.8,0.5-0.7,1c0,0,0,0,0,0.1c0.5,3.4,0.9,6.5,1.3,9.6
		c0.8,6.5,1.5,13.8,1.2,21.3c0.6,0.8,1.1,1.5,1.6,2.3C228.3,82.3,227.8,75,227.1,68.5z"/>
	<path fill="#1B2A54" d="M253.8,75.3c-0.1,3.1-0.2,6.2-0.6,9.4c-0.2,2-0.6,4.1-1.2,6.1c0,0.1,0,0.2,0,0.3c0,0,0,0,0,0c0,0,0,0,0,0
		c0,0.5,0.4,0.8,0.9,0.8c0.3,0,0.7-0.2,0.8-0.5c0,0,0-0.1,0-0.1c0,0,0-0.1,0-0.1c0.2-0.8,0.4-1.7,0.6-2.5l1.9-30.1
		c-0.1,0-0.2,0-0.3-0.1c0,0,0,0-0.1,0c-0.1,0.4-0.2,0.7-0.3,1.1C254.1,64.8,253.9,70.1,253.8,75.3z"/>
	<path fill="#1B2A54" d="M249.9,48c-0.2,0.4,0.1,0.9,0.5,1.1c0.2,0.1,0.5,0.2,0.7,0.3c1.2,0.4,2.6,0.9,3.9,1.3
		c1.2,0.4,2.5,0.8,3.6,1.2c-0.6,1.2-1.2,2.4-1.7,3.6c0.6,0.1,1.1,0.2,1.7,0.3c0.6-1.4,1.2-2.7,2-4c0.1-0.2,0.2-0.5,0.1-0.7
		c-0.1-0.2-0.3-0.4-0.5-0.5c-1.3-0.5-3-1-4.5-1.6c-1.4-0.5-2.9-1-4.1-1.4c-0.2-0.1-0.3-0.1-0.5-0.2C250.5,47.3,250,47.5,249.9,48z"
		/>
	<path fill="#FFFFFF" d="M246.1,21.5c-8.6-0.7-17.2-0.4-25.7,0.9c-0.3,0-0.5,0.2-0.7,0.3c0.1,0,0.1-0.1,0.2-0.1
		c10.4-1.5,20.9-1.4,31.3,0c0.5,0.1,0.8,0.5,0.7,1c-0.1,0.4-0.4,0.7-0.9,0.7c0,0-0.1,0-0.1,0c-10.2-1.4-20.6-1.4-30.8,0
		c-0.5,0.1-0.9-0.3-1-0.7c0-0.1,0-0.1,0-0.2c-0.1,0.2-0.1,0.5-0.1,0.7c0.1,0.8,0.8,1.3,1.5,1.3c0.1,0,0.2,0,0.2,0
		c10-1.6,20.1-1.7,30.1-0.4c0.9,0.1,1.6-0.5,1.7-1.3c0.1-0.7-0.3-1.3-0.8-1.6c-0.2-0.1-0.3-0.2-0.5-0.2
		C249.6,21.8,247.9,21.6,246.1,21.5z"/>
	<path fill="#1B2A54" d="M220.2,24.4c10.2-1.4,20.6-1.4,30.8,0c0,0,0.1,0,0.1,0c0.4,0,0.8-0.3,0.9-0.7c0.1-0.5-0.3-0.9-0.7-1
		c-10.4-1.5-20.9-1.5-31.3,0c-0.1,0-0.2,0-0.2,0.1c-0.3,0.1-0.5,0.4-0.5,0.7c0,0.1,0,0.1,0,0.2C219.3,24.1,219.7,24.4,220.2,24.4z"
		/>
	<path fill="#1B2A54" d="M211,65.3c-0.1-0.9,0.5-1.3,1.1-1.4l-0.7-2.9c-3.7,0.8-10.8,2.3-16.5,5.1c2.1,0.6,4.1,1.2,6.1,2
		c3.5,1.4,6.8,3.1,10,5.1C211.2,70.5,211.2,67.8,211,65.3z"/>
	<path fill="#1B2A54" d="M214,65.3c-0.1-1.1-1-1.5-1.9-1.4c-0.7,0.1-1.2,0.6-1.1,1.4c0.2,2.6,0.3,5.2,0,7.8c0.9,0.6,1.8,1.2,2.7,1.8
		C214.2,71.8,214.2,68.4,214,65.3z"/>
	<path fill="#1B2A54" d="M194.8,66c5.8-2.7,12.8-4.3,16.5-5.1c0,0,0,0,0,0c1.1-0.2,1.3-1.2,0.9-2c0,0,0,0,0,0
		c-0.2-0.4-0.6-0.8-1.1-0.9c-0.2,0-0.4,0-0.6,0c-1.5,0.3-3.4,0.8-5.5,1.4c-4.4,1.3-9.7,3.2-14,5.7C192.4,65.4,193.6,65.6,194.8,66z"
		/>
	<polygon fill="#172141" points="118,265.4 118,241.7 135.5,241.7 135.5,193.6 118,193.6 118,170 69.6,170 69.6,193.6 54.7,193.6 
		88.3,79.3 37.7,79.3 0,208.2 0,241.7 69.6,241.7 69.6,265.4 	"/>
	<path fill="#172141" d="M254.8,234.7c4.7-5.3,8.3-11.2,10.9-17.7c0.8-2,1.4-4,2-6.1c0.6-2.2,1.1-4.5,1.4-6.8
		c0.4-2.9,0.6-5.8,0.6-8.8c0-6.6-1.2-13.1-3.6-19.5c-0.4-1-0.7-1.9-1.2-2.9l-1.6-3.6l-9.8-22.7c-2.4,2.5-6.1,5.4-7.5,2.2
		c-0.4-0.8-0.2-1.6,0.3-2.5c-2.4,1.3-4.7,1.7-5.3-0.9c-0.2-0.9,0-1.7,0.5-2.5c-1.3,0.3-2.4,0.2-3-0.9c-2-3.8,6.7-8.5,8.9-9.7
		c0,0,0,0,0,0l-0.5-1.2l-1-2.2c0,0-0.1,0-0.1,0c-0.8,0.1-1.1-1-0.3-1.2c0,0,0,0,0,0l-5.3-12.2l-0.8-1.9l-0.8-1.9l-0.1-0.2l-0.1-0.1
		l-0.2-0.5L238,111l-0.1-0.2l-0.1-0.1l-0.3-0.7l-0.8-1.9l-3.6-8.3l-0.6-1.4c-0.2-0.5-0.5-1-0.7-1.5c-1.2-2.5-2.5-4.9-4-7.2
		c-0.5-0.8-1.1-1.6-1.6-2.3c-1.6-2.1-3.3-4.1-5.1-6c0,0,0,0,0,0c-0.5-0.5-1.1-1.1-1.6-1.6c-1.9-1.8-3.9-3.4-5.9-4.9
		c-0.9-0.6-1.8-1.3-2.7-1.8c-3.1-2-6.5-3.7-10-5.1c-2-0.8-4.1-1.5-6.1-2c-1.2-0.3-2.5-0.6-3.7-0.9c-3.8-0.8-7.7-1.2-11.8-1.2
		c-7.5,0-15,1.6-22.3,4.7c-7.3,3.2-13.6,7.5-18.8,13.1c-5.2,5.6-9.2,11.8-12,18.7c-2.8,6.9-4.2,14.1-4.2,21.7c0,7.5,1.6,15,4.7,22.3
		l32.3,74.4c3.2,7.3,7.5,13.6,13.1,18.8c5.5,5.2,11.8,9.2,18.8,11.8c5.3,2.1,10.9,3.3,16.6,3.8c1.7,0.2,3.5,0.2,5.3,0.3
		c0.8,0,1.6,0,2.3,0c0.5,0,1.1-0.1,1.6-0.1c0.5,0,0.9-0.1,1.4-0.1c5.8-0.5,11.5-2,17.1-4.4c7-3,12.9-7.2,17.9-12.4
		c0.2-0.3,0.5-0.5,0.7-0.8C254.2,235.3,254.5,235,254.8,234.7z M171.3,125.4c-1-2.3-1-4.7-0.1-7.2c0.9-2.5,2.6-4.3,5.1-5.4
		c0.6-0.2,1.1-0.4,1.7-0.6c0.1-1.6,0.7-3.2,2.3-4.1c1.8-1,4.3-0.2,4.9,1.9c0.1,0.5,0.1,1,0.1,1.5c0.9-0.5,2-0.6,3.2-0.2
		c1.7,0.7,2.4,2.6,2.1,4.3c1.1-0.3,2.2-0.2,3.4,0.5c2.1,1.4,1.6,4.4-0.2,5.8c-0.6,0.5-1.5,1-2.4,1.3l17.6,40.6l1.3,2.9l11.1,25.5
		c1.1,2.4,1.1,4.9,0.1,7.3c-1,2.4-2.7,4.2-5.1,5.3c-2.4,1.1-4.9,1.1-7.3,0.1c-1.2-0.5-2.2-1.1-3.1-2c-0.6-0.6-1.2-1.3-1.6-2.1
		c-0.2-0.3-0.4-0.7-0.6-1.1L171.3,125.4z"/>
	<polygon fill="#172141" points="395.2,170 346.8,170 346.8,193.6 331.9,193.6 365.5,79.3 314.9,79.3 277.2,208.2 277.2,241.7 
		346.8,241.7 346.8,265.4 395.2,265.4 395.2,241.7 412.7,241.7 412.7,193.6 395.2,193.6 	"/>
	<path fill="#F3D57B" d="M247.9,133.5c-2,1-9.2,4.8-7.8,7.4c0.7,1.4,1.6,0.6,3,0c0.3-0.2,0.7-0.3,1-0.5c1.4-1,3-1.8,4.1-2.5
		c0.2-0.1,0.4-0.2,0.5-0.3c0.7-0.4,1.3,0.6,0.6,1c-0.7,0.4-2.8,2-5.1,3.2c-0.1,0.1-0.2,0.2-0.2,0.2c-1,1.1-1.2,0.6-0.8,2.5
		c0.5,2.1,1.2,1.4,2.9,0.5c0.9-0.4,1.7-1,2.5-1.7c0.8-0.8,1.7-1.5,2.4-2c0.4-0.3,0.7-0.6,1.1-0.9c0.6-0.5,1.4,0.3,0.8,0.8
		c-1.3,1.2-2.5,2.4-3.7,3.7c-0.2,0.3-1.5,1.1-1.5,1.5c0.6,0.5,1.3,1.1,1.9,1.6c0.3-0.3,0.6-0.6,0.9-0.8c1.1-0.5,2.4-1.8,3.3-2.9
		c0-0.1,0.1-0.2,0.1-0.3c1.5-1.7,2.8-3.6,3.6-5.7c-0.9-0.4-1.8-1.2-2.7-2.2c-2.2-2.4-3.5-5.2-4-8.2c-1.7,0.3-3.4,0.8-5,1.1l1,2.2
		l0.5,1.2C248,132.1,248.6,133.1,247.9,133.5z"/>
	<path fill="#172141" d="M255.4,144.2C255.4,144.2,255.5,144.2,255.4,144.2c0.3-0.4,0.6-0.8,0.8-1.1c0.3-0.4,0.5-0.7,0.8-1.1
		c0.7-1.1,1.3-2.3,1.7-3.5c-0.4,0-0.8-0.1-1.2-0.2c-0.8,2.1-2.1,4.1-3.6,5.7c-0.1,0.1-0.1,0.2-0.1,0.3c-0.9,1.1-2.2,2.4-3.3,2.9
		c-0.3,0.3-0.6,0.5-0.9,0.8c-0.6-0.5-1.3-1.1-1.9-1.6c0-0.4,1.3-1.3,1.5-1.5c1.2-1.3,2.5-2.5,3.7-3.7c0.6-0.5-0.3-1.3-0.8-0.8
		c-0.4,0.3-0.7,0.6-1.1,0.9c-0.7,0.6-1.6,1.3-2.4,2c-0.8,0.6-1.6,1.2-2.5,1.7c-1.7,0.9-2.4,1.5-2.9-0.5c-0.5-1.9-0.2-1.4,0.8-2.5
		c0.1-0.1,0.2-0.2,0.2-0.2c2.2-1.2,4.4-2.8,5.1-3.2c0.6-0.4,0.1-1.4-0.6-1c-0.2,0.1-0.4,0.2-0.5,0.3c-1.1,0.6-2.7,1.5-4.1,2.5
		c-0.3,0.2-0.7,0.4-1,0.5c-1.4,0.7-2.3,1.4-3,0c-1.4-2.6,5.7-6.4,7.8-7.4c0.7-0.3,0.1-1.3-0.6-1.1c0,0,0,0,0,0c0,0,0,0,0,0
		c-2.2,1.1-11,5.9-8.9,9.7c0.6,1,1.7,1.2,3,0.9c-0.5,0.8-0.7,1.6-0.5,2.5c0.6,2.6,2.9,2.2,5.3,0.9c-0.4,0.8-0.6,1.7-0.3,2.5
		c1.5,3.2,5.1,0.3,7.5-2.2c0.4-0.4,0.7-0.8,1.1-1.2C254.9,144.9,255.2,144.5,255.4,144.2z"/>
	<path fill="#172141" d="M250.8,127.9c-0.1-0.4-0.1-0.7-0.2-1.1c-1.7,0.3-3.5,0.8-5.3,1.1c0,0,0,0,0,0c-0.8,0.2-0.4,1.3,0.3,1.2
		c0,0,0.1,0,0.1,0C247.4,128.8,249.1,128.2,250.8,127.9z"/>
	<path fill="#F3D57B" d="M182.3,114.2c0.1-0.2,0.2-0.3,0.3-0.5c0.1-0.1,0.2-0.2,0.2-0.2c0.1-0.1,0.2-0.3,0.4-0.4
		c0.4-0.9,0.7-1.9,0.4-2.7c-0.7-2.2-3.2-1-3.9,0.4c-0.6,1.3-0.4,2.7-0.1,4.1c0.2,0.8,0.6,1.3,1.8,0.6c0,0,0.1-0.1,0.1-0.1
		c0,0,0-0.1,0-0.1C181.8,115,182.1,114.6,182.3,114.2z"/>
	<path fill="#172141" d="M178.1,114.5c0,0.1,0,0.2,0,0.3c0,0.1,0.1,0.3,0.1,0.4c0,0.1,0.1,0.3,0.1,0.4c0.1,0.2,0.2,0.3,0.3,0.4
		c0.6,1,1.5,1.6,2.6,1.3c0-0.5,0.1-1,0.3-1.5c0-0.1,0-0.2,0.1-0.4c0,0-0.1,0.1-0.1,0.1c-1.2,0.7-1.5,0.1-1.8-0.6
		c-0.3-1.3-0.6-2.8,0.1-4.1c0.7-1.4,3.2-2.7,3.9-0.4c0.3,0.8,0,1.8-0.4,2.7c0.6-0.6,1.2-1.2,2-1.6c0-0.5,0-1-0.1-1.5
		c-0.6-2.1-3.1-2.9-4.9-1.9c-1.6,0.9-2.2,2.4-2.3,4.1C177.9,113,178,113.7,178.1,114.5z"/>
	<path fill="#F3D57B" d="M186.6,117.8c0.3-0.2,0.5-0.4,0.8-0.6c0.1-0.1,0.3-0.2,0.4-0.3c0.1,0,0.1-0.1,0.2-0.1
		c0.2-0.1,0.4-0.2,0.6-0.3c0.1-0.2,0.3-0.4,0.3-0.6c0.5-1.4-0.2-3.3-1.9-3.2c-1.4,0-2.3,1-3.1,2.1c-0.4,0.6-1,1.4-1.1,2.2
		c-0.1,1.2,1.4,1.5,2.3,1.5c0.4,0,0.8-0.1,1.2-0.2c0,0,0,0,0,0C186.4,118,186.5,117.9,186.6,117.8z"/>
	<path fill="#172141" d="M183.2,113.1c-0.1,0.1-0.2,0.3-0.4,0.4c-0.1,0.1-0.2,0.1-0.2,0.2c-0.1,0.2-0.2,0.3-0.3,0.5
		c-0.3,0.4-0.5,0.7-0.7,1.1c0,0,0,0.1,0,0.1c-0.1,0.1-0.1,0.3-0.1,0.4c-0.2,0.5-0.3,1-0.3,1.5c0,0.1,0,0.1,0,0.2
		c0.2,1.1,1.4,1.8,2.4,2.1c0.5,0.1,1,0.2,1.6,0.2c0.2-0.6,0.6-1.2,1.1-1.7c-0.4,0.1-0.8,0.2-1.2,0.2c-0.9,0-2.4-0.3-2.3-1.5
		c0.1-0.7,0.6-1.6,1.1-2.2c0.8-1.1,1.7-2,3.1-2.1c1.7,0,2.4,1.8,1.9,3.2c-0.1,0.2-0.2,0.4-0.3,0.6c0.6-0.4,1.3-0.7,1.9-0.8
		c0.3-1.7-0.4-3.6-2.1-4.3c-1.2-0.5-2.2-0.3-3.2,0.2C184.5,111.9,183.8,112.4,183.2,113.1z"/>
	<path fill="#F3D57B" d="M188.5,118.1C188.5,118.1,188.5,118.2,188.5,118.1c-1.3,1-3.2,2.9-0.6,3.7c1.4,0.4,3.6-0.2,4.7-1.2
		c1.6-1.4,1.1-3.8-1.2-3.8C190.4,116.9,189.4,117.5,188.5,118.1z"/>
	<path fill="#172141" d="M188.5,116.4c-0.2,0.1-0.4,0.2-0.6,0.3c-0.1,0-0.1,0-0.2,0.1c-0.1,0.1-0.3,0.2-0.4,0.3
		c-0.3,0.2-0.5,0.4-0.8,0.6c-0.1,0.1-0.2,0.2-0.2,0.3c0,0,0,0,0,0c-0.5,0.5-0.9,1.1-1.1,1.7c-0.2,0.8-0.1,1.6,0.6,2.5
		c1.2,1.4,3.4,1.5,5.3,0.8c0.9-0.3,1.8-0.7,2.4-1.3c1.8-1.5,2.3-4.4,0.2-5.8c-1.1-0.7-2.2-0.8-3.4-0.5
		C189.7,115.8,189.1,116.1,188.5,116.4z M192.7,120.7c-1.1,0.9-3.4,1.6-4.7,1.2c-2.6-0.9-0.7-2.7,0.6-3.7c0,0,0,0,0,0
		c0.9-0.6,1.8-1.2,2.9-1.2C193.7,116.9,194.3,119.3,192.7,120.7z"/>
	<path fill="#1B2A54" d="M254.3,88.5l-0.5,7.9l-1,15.6l-0.4,6.3l-0.2,3.9c0.8,0,1.5,0.5,1.4,1.4c0,0.3,0,0.8,0,1.4
		c0.3-0.3,0.7-0.6,1-0.9c1.8-5.9,3.3-11.8,4.7-17.8c1.2-5.3,2.3-10.7,2.7-16.2c0.1-2.1,0.1-4.2-0.2-6.3c-0.1-0.6-0.3-1.2-0.4-1.7
		c-0.3-1-1.3-3-0.5-4.1c0.6-0.9,1.9-0.7,2.5,0.1c0.6,0.7,0.8,1.6,0.9,2.5c1.4,8.9-1.2,17.9-3,26.8c-0.6,3-1.1,6.1-2,9
		c-0.9,2.9-2.4,5.6-4.5,7.6c0.1-0.1,0.1-0.1,0.2-0.2c0.3-0.3,0.7,0.2,0.4,0.4c-0.5,0.5-1.1,1-1.6,1.4c0.1,0.7,0.2,1.5,0.4,2.3
		c0.3-0.3,0.6-0.5,0.8-0.8c0.3-0.3,0.7,0.2,0.4,0.4c-0.4,0.4-0.7,0.7-1.1,1.1c0.2,0.6,0.3,1.3,0.6,1.9c0.2-0.2,0.5-0.4,0.7-0.6
		c0.3-0.3,0.7,0.2,0.4,0.4c-0.3,0.3-0.6,0.5-0.9,0.8c0.2,0.5,0.4,1,0.6,1.4c0.3-0.3,0.6-0.6,1-0.9c0.3-0.3,0.7,0.2,0.4,0.4
		c-0.4,0.3-0.7,0.7-1.1,1c0.9,1.4,2.1,2.1,3.5,1.1c0.5-0.4,1-0.9,1.5-1.5c-2.4-1.8-3.8-4.5-5.1-7.2c-0.2-0.3,0.3-0.6,0.5-0.3
		c1.3,2.6,2.7,5.2,5,7c1.8-2.4,3.3-5.7,4.4-7.8c4.3-7.9,7-16.1,8.4-25c1.4-8.5,2.7-18.3,0.4-26.8c-2.3-8.5-10-13-18.4-14.4
		L254.3,88.5z"/>
	<path fill="#1B2A54" d="M256.9,55.5c-0.1,0-0.1,0-0.2,0c-1.9-0.3-2.7,2.5-0.9,2.9c0,0,0,0,0.1,0c0.1,0,0.2,0,0.3,0.1
		c8.4,1.4,16,5.9,18.4,14.4c2.3,8.4,1,18.2-0.4,26.8c-1.4,8.9-4.1,17.1-8.4,25c-1.1,2.1-2.6,5.4-4.4,7.8c0.2,0.2,0.5,0.4,0.7,0.5
		c0.3,0.2,0,0.7-0.3,0.5c-0.3-0.2-0.5-0.4-0.8-0.6c-0.5,0.6-1,1.1-1.5,1.5c-1.4,1-2.6,0.3-3.5-1.1c-0.1,0.1-0.3,0.3-0.4,0.4
		c-0.3,0.3-0.7-0.2-0.4-0.4c0.2-0.2,0.4-0.4,0.6-0.5c-0.2-0.4-0.5-0.9-0.6-1.4c-0.4,0.3-0.8,0.7-1.2,1c-0.3,0.3-0.7-0.2-0.4-0.4
		c0.5-0.4,0.9-0.8,1.4-1.2c-0.2-0.6-0.4-1.2-0.6-1.9c-0.5,0.5-1,0.9-1.5,1.4c-0.3,0.3-0.7-0.2-0.4-0.4c0.6-0.6,1.2-1.1,1.7-1.7
		c-0.2-0.8-0.3-1.6-0.4-2.3c-0.5,0.5-1,0.9-1.5,1.4c-0.3,0.3-0.7-0.2-0.4-0.4c0.6-0.6,1.3-1.1,1.9-1.7c-0.1-0.6-0.1-1.1,0-1.4
		c0.1-1-0.6-1.4-1.4-1.4c-0.6,0-1.3,0.4-1.5,1c0,0.1-0.1,0.3-0.1,0.4c-0.1,1.1-0.1,2.1,0,3.1c0,0.4,0.1,0.8,0.2,1.1
		c0.5,3,1.9,5.8,4,8.2c0.9,1,1.8,1.8,2.7,2.2c0.4,0.2,0.8,0.2,1.2,0.2c0.7,0,1.5-0.4,2.3-1.1c1.2-1.2,2.4-2.7,3.4-4.3
		c0.4-0.6,0.8-1.3,1.2-1.9c1.5-2.5,2.8-5,3.9-7.3c2.8-5.5,5-11.2,6.3-17.2c2.4-10.6,4.3-23.1,1.8-33.8c-2.3-9.4-9.9-15-19.1-17
		C258,55.7,257.5,55.6,256.9,55.5z M258.9,137.4c-0.2,0.3-0.7-0.1-0.4-0.4c0.8-1,1.6-2,2.5-3.1c0.2-0.3,0.7,0.1,0.4,0.4L258.9,137.4
		z M269,123c-1.1,3.3-2.8,6.3-5.2,8.9c-0.3,0.3-0.7-0.1-0.4-0.4c2.3-2.5,3.9-5.4,5-8.6C268.5,122.5,269.1,122.7,269,123z"/>
	<path fill="#B2E7DC" d="M259.3,116.5c1-2.9,1.4-6,2-9c1.7-8.8,4.4-17.8,3-26.8c-0.1-0.9-0.4-1.9-0.9-2.5c-0.6-0.7-1.9-1-2.5-0.1
		c-0.7,1.1,0.2,3,0.5,4.1c0.2,0.6,0.3,1.1,0.4,1.7c0.4,2,0.4,4.2,0.2,6.3c-0.3,5.5-1.4,10.9-2.7,16.2c-1.4,6-3,11.9-4.7,17.8
		c0,0,0,0,0.1-0.1C256.9,122.1,258.3,119.4,259.3,116.5z"/>
	<path fill="#B2E7DC" d="M254.9,123.9c-0.1,0.1-0.1,0.1-0.2,0.2c0,0,0,0-0.1,0.1c-0.3,0.3-0.7,0.6-1,0.9c-0.6,0.6-1.3,1.1-1.9,1.7
		c-0.3,0.3,0.1,0.7,0.4,0.4c0.5-0.5,1-0.9,1.5-1.4c0.5-0.5,1.1-1,1.6-1.4C255.6,124.1,255.2,123.7,254.9,123.9z"/>
	<path fill="#B2E7DC" d="M256.4,125.3c-0.2-0.3-0.7,0-0.5,0.3c1.3,2.7,2.7,5.4,5.1,7.2c0.3,0.2,0.5,0.4,0.8,0.6
		c0.3,0.2,0.6-0.3,0.3-0.5c-0.3-0.2-0.5-0.3-0.7-0.5C259.1,130.6,257.7,128,256.4,125.3z"/>
	<path fill="#B2E7DC" d="M268.4,122.9c-1.1,3.2-2.8,6.1-5,8.6c-0.3,0.3,0.2,0.7,0.4,0.4c2.3-2.6,4-5.6,5.2-8.9
		C269.1,122.7,268.5,122.5,268.4,122.9z"/>
	<path fill="#B2E7DC" d="M261,134c-0.8,1-1.6,2-2.5,3.1c-0.2,0.3,0.2,0.7,0.4,0.4l2.5-3.1C261.6,134.1,261.2,133.7,261,134z"/>
	<path fill="#B2E7DC" d="M255.4,127.7c0.3-0.3-0.1-0.7-0.4-0.4c-0.3,0.3-0.6,0.5-0.8,0.8c-0.6,0.6-1.2,1.1-1.7,1.7
		c-0.3,0.3,0.1,0.7,0.4,0.4c0.5-0.5,1-0.9,1.5-1.4C254.7,128.4,255,128.1,255.4,127.7z"/>
	<path fill="#B2E7DC" d="M255.6,130.1c-0.2,0.2-0.5,0.4-0.7,0.6c-0.5,0.4-0.9,0.8-1.4,1.2c-0.3,0.3,0.1,0.7,0.4,0.4
		c0.4-0.3,0.8-0.7,1.2-1c0.3-0.3,0.6-0.5,0.9-0.8C256.3,130.2,255.8,129.8,255.6,130.1z"/>
	<path fill="#B2E7DC" d="M256.7,131.8c-0.3,0.3-0.6,0.6-1,0.9c-0.2,0.2-0.4,0.4-0.6,0.5c-0.3,0.3,0.1,0.7,0.4,0.4
		c0.2-0.1,0.3-0.3,0.4-0.4c0.4-0.3,0.7-0.7,1.1-1C257.4,131.9,257,131.5,256.7,131.8z"/>
</g>
</svg>
