<?xml version="1.0" encoding="utf-8"?>
<!-- Generator: Adobe Illustrator 19.0.0, SVG Export Plug-In . SVG Version: 6.00 Build 0)  -->
<svg version="1.2" baseProfile="tiny" id="Layer_1" xmlns="http://www.w3.org/2000/svg" xmlns:xlink="http://www.w3.org/1999/xlink"
	 x="0px" y="0px" viewBox="0 0 39.2 27.4" xml:space="preserve">
<g>
	<path fill="#1B2240" d="M29.2,10.3c-9,0.5-18,0.5-27,0.1c-1.4-0.1-2.2,1-2.2,2.1v0c0,1.1,0.7,2.3,2.2,2.3
		c9.5,0.4,19.1,0.4,28.6-0.2c0.8-0.7,1.5-1.4,2.3-2C31.8,11.9,30.5,11.1,29.2,10.3z"/>
	<path fill="#1B2240" d="M36,10.4c0.5-0.4,1-0.5,1.4-0.4c-0.1-0.1-0.3-0.3-0.5-0.4c-4.7-2.6-9-5.6-13.1-9.1
		c-2.2-1.9-5.4,1.3-3.2,3.2c2.7,2.4,5.6,4.5,8.6,6.5c1.3,0.8,2.6,1.6,3.9,2.4C34,11.9,35,11.2,36,10.4z"/>
	<path fill="#1B2240" d="M37.4,10.1c-0.4-0.1-0.9,0-1.4,0.4c-1,0.7-1.9,1.5-2.9,2.2c-0.8,0.7-1.6,1.3-2.3,2c-3.1,2.8-5.9,6-8.3,9.5
		c-1.7,2.4,2.2,4.6,3.9,2.3c3.3-4.7,7.3-8.8,11.9-12.1C40.1,13,39.1,10.3,37.4,10.1z"/>
</g>
</svg>
