<?xml version="1.0" encoding="utf-8"?>
<!-- Generator: Adobe Illustrator 19.0.0, SVG Export Plug-In . SVG Version: 6.00 Build 0)  -->
<svg version="1.2" baseProfile="tiny" id="Layer_1" xmlns="http://www.w3.org/2000/svg" xmlns:xlink="http://www.w3.org/1999/xlink"
	 x="0px" y="0px" viewBox="0 0 168 168" xml:space="preserve">
<g>
	<path fill="none" d="M84,12c-39.7,0-72,32.3-72,72s32.3,72,72,72s72-32.3,72-72S123.7,12,84,12z M134.5,81
		c-9.2,6.6-18.5,13.2-27.7,19.9c-7.4,5.3-15.8,13.9-25.6,11c-4.6-1.4-8.8-4.5-12.8-7c-4.3-2.7-8.5-5.6-12.5-8.6
		c-8.1-6-15.8-12.4-23.1-19.4c-5.6-5.3,2.9-13.8,8.5-8.5c6.6,6.2,13.4,12.1,20.7,17.5c6.4,4.8,13.5,10.5,20.9,13.7
		c4.5,1.9,7.4-1.3,10.9-3.9l11.1-8l23.8-17C134.7,66.1,140.7,76.5,134.5,81z"/>
	<path fill="#202642" d="M128.4,70.6l-23.8,17l-11.1,8c-3.5,2.5-6.5,5.8-10.9,3.9c-7.4-3.2-14.4-8.9-20.9-13.7
		c-7.3-5.4-14.1-11.3-20.7-17.5c-5.6-5.3-14.1,3.2-8.5,8.5c7.3,6.9,15,13.4,23.1,19.4c4.1,3,8.3,5.9,12.5,8.6c4,2.6,8.2,5.6,12.8,7
		c9.9,3,18.3-5.7,25.6-11c9.2-6.6,18.5-13.2,27.7-19.9C140.7,76.5,134.7,66.1,128.4,70.6z"/>
	<path fill="#202642" d="M84,0C37.7,0,0,37.7,0,84c0,46.3,37.7,84,84,84c46.3,0,84-37.7,84-84C168,37.7,130.3,0,84,0z M84,156
		c-39.7,0-72-32.3-72-72s32.3-72,72-72s72,32.3,72,72S123.7,156,84,156z"/>
</g>
</svg>
