<?xml version="1.0" encoding="utf-8"?>
<!-- Generator: Adobe Illustrator 19.0.0, SVG Export Plug-In . SVG Version: 6.00 Build 0)  -->
<svg version="1.1" id="Layer_1" xmlns="http://www.w3.org/2000/svg" xmlns:xlink="http://www.w3.org/1999/xlink" x="0px" y="0px"
	 viewBox="-290 377.3 29.8 38.7" style="enable-background:new -290 377.3 29.8 38.7;" xml:space="preserve">
<style type="text/css">
	.st0{fill:#0E71B8;enable-background:new    ;}
	.st1{fill:#11213F;enable-background:new    ;}
	.st2{fill:#172141;}
	.st3{fill:#80D0E6;enable-background:new    ;}
</style>
<g>
	<g>
		<circle class="st0" cx="-271.2" cy="392.2" r="10.6"/>
		<path class="st1" d="M-263.8,392.2c0-4.8-2.9-8.9-7-10.5c-0.4-0.1-0.8-0.1-1.3-0.1c-5.8,0-10.6,4.7-10.6,10.6s4.7,10.6,10.6,10.6
			c0.3,0,0.7,0,1,0C-266.9,401.3-263.8,397.1-263.8,392.2z"/>
	</g>
	<rect id="XMLID_557_" x="-272.4" y="401.1" class="st2" width="1.5" height="14.9"/>
	<path class="st3" d="M-271.6,388c0,1.4-1.9,3.2-3.3,3.2s-2.1-1-2.1-2.3c0-1.4,1.5-3.3,2.8-3.3C-272.8,385.6-271.6,386.2-271.6,388z
		"/>
</g>
</svg>
