<?xml version="1.0" encoding="utf-8"?>
<!-- Generator: Adobe Illustrator 19.0.0, SVG Export Plug-In . SVG Version: 6.00 Build 0)  -->
<svg version="1.2" baseProfile="tiny" id="Layer_1" xmlns="http://www.w3.org/2000/svg" xmlns:xlink="http://www.w3.org/1999/xlink"
	 x="0px" y="0px" viewBox="0 0 950 140" xml:space="preserve">
<g id="XMLID_156_">
	<path id="XMLID_15_" fill="#FFFFFF" d="M187.3,17.8h-16c-4.1,0-7.4-3.3-7.4-7.4v0c0-4.1,3.3-7.4,7.4-7.4h16c4.1,0,7.4,3.3,7.4,7.4
		v0C194.7,14.5,191.4,17.8,187.3,17.8z"/>
	<path id="XMLID_16_" fill="#FFFFFF" d="M386.4,40.3h-38.5c-1.3,0-2.4,1.1-2.4,2.4v4.7c0,1.3-1.1,2.4-2.4,2.4h-11.5
		c-1.3,0-2.4,1.1-2.4,2.4v9.5c0,1.3,1.1,2.4,2.4,2.4H362c1.3,0,2.4-1.1,2.4-2.4v0c0-1.3,1.1-2.4,2.4-2.4h19.6c1.3,0,2.4-1.1,2.4-2.4
		V42.7C388.7,41.4,387.7,40.3,386.4,40.3z"/>
	<path id="XMLID_17_" fill="#FFFFFF" d="M127.5,54.3H74c-1.8,0-3.3,1.5-3.3,3.3v6.6c0,1.8-1.5,3.3-3.3,3.3H51.5
		c-1.8,0-3.3,1.5-3.3,3.3v13.1c0,1.8,1.5,3.3,3.3,3.3h42.2c1.8,0,3.3-1.5,3.3-3.3v0c0-1.8,1.5-3.3,3.3-3.3h27.2
		c1.8,0,3.3-1.5,3.3-3.3V57.6C130.7,55.8,129.3,54.3,127.5,54.3z"/>
	<path id="XMLID_153_" fill="#FFFFFF" d="M608.4,114.3h-38.5c-1.3,0-2.4,1.1-2.4,2.4v4.7c0,1.3-1.1,2.4-2.4,2.4h-11.5
		c-1.3,0-2.4,1.1-2.4,2.4v9.5c0,1.3,1.1,2.4,2.4,2.4H584c1.3,0,2.4-1.1,2.4-2.4l0,0c0-1.3,1.1-2.4,2.4-2.4h19.6
		c1.3,0,2.4-1.1,2.4-2.4v-14.2C610.7,115.4,609.7,114.3,608.4,114.3z"/>
	<path id="XMLID_154_" fill="#FFFFFF" d="M725.8,68.7h-18.1c-3.1,0-5.7-2.5-5.7-5.7v0c0-3.1,2.5-5.7,5.7-5.7h18.1
		c3.1,0,5.7,2.5,5.7,5.7v0C731.4,66.1,728.9,68.7,725.8,68.7z"/>
	<path id="XMLID_155_" fill="#FFFFFF" d="M898.5,81.5H845c-1.8,0-3.3,1.5-3.3,3.3v6.6c0,1.8-1.5,3.3-3.3,3.3h-15.9
		c-1.8,0-3.3,1.5-3.3,3.3v13.1c0,1.8,1.5,3.3,3.3,3.3h42.2c1.8,0,3.3-1.5,3.3-3.3v0c0-1.8,1.5-3.3,3.3-3.3h27.2
		c1.8,0,3.3-1.5,3.3-3.3V84.8C901.7,83,900.3,81.5,898.5,81.5z"/>
</g>
</svg>
