<?xml version="1.0" encoding="utf-8"?>
<!-- Generator: Adobe Illustrator 19.0.0, SVG Export Plug-In . SVG Version: 6.00 Build 0)  -->
<svg version="1.2" baseProfile="tiny" id="Слой_2__x28_копия_x29_"
	 xmlns="http://www.w3.org/2000/svg" xmlns:xlink="http://www.w3.org/1999/xlink" x="0px" y="0px"
	 viewBox="-281.9 -8.7 811.2 809.7" xml:space="preserve">
<g>
	<path fill="none" d="M110.1,47.6c-0.1,0.2-0.2,0.5-0.3,0.7l0,0C109.9,48.1,110,47.8,110.1,47.6l0.1-1.2c0.5-0.2,1-0.4,1.5-0.4l0,0
		c-0.5,0-1,0.2-1.5,0.4L110.1,47.6z"/>
	<path fill="none" d="M118.9,156.7L118.9,156.7c4.3-9.1,8.1-18.6,10.3-28.4C126.9,138.1,123.2,147.6,118.9,156.7z"/>
	<path fill="none" d="M111.2,60.7c-0.8-1.4-1.5-2.9-1.8-4.5C109.7,57.8,110.4,59.3,111.2,60.7c1.1,1.9,2.5,3.7,3.9,5.4l0,0
		C113.6,64.3,112.3,62.6,111.2,60.7z"/>
	<path fill="none" d="M119.2,70.9L119.2,70.9c0.1,0.2,0.3,0.4,0.5,0.6c0.8,1,1.5,1.9,2.1,3l0,0c-0.7-1.1-1.5-2-2.2-3
		C119.5,71.3,119.4,71.1,119.2,70.9z"/>
	<path fill="none" d="M130.4,44.8c-0.5,1.7-1.4,2.3-3.2,1.4c-0.2-0.1-0.3-0.2-0.5-0.3c0.2,0.1,0.3,0.2,0.5,0.3
		C129,47.1,129.9,46.5,130.4,44.8z"/>
	<path fill="none" d="M176,93c1-15.9-0.9-32.2-6.7-46.9C175.1,60.8,176.8,77.1,176,93z"/>
	<path fill="none" d="M157.5,26.4c-1.2-1.2-2.4-2.2-3.7-3.2s-2.7-1.8-4.2-2.6c1.5,0.8,2.9,1.7,4.2,2.6
		C155.1,24.2,156.3,25.3,157.5,26.4z"/>
	<path fill="none" d="M135.1,18.8c4.6-1.9,9.8-0.8,14.4,1.7C144.9,18.1,139.7,16.9,135.1,18.8c-0.7,0.3-1.3,0.8-1.8,1.3
		C133.9,19.6,134.4,19.1,135.1,18.8z"/>
	<path fill="none" d="M164,162.5L164,162.5c-0.1,0-0.1-0.1-0.2-0.2C163.9,162.4,163.9,162.5,164,162.5z"/>
	<polygon fill="none" points="66.6,188.5 66.9,188.7 66.9,188.7 	"/>
	<path fill="none" d="M162.1,159.3c-0.4-2.1,0.1-4.8,0.8-6.8c3.2-9.9,6.2-19.9,8.6-30c-2.3,10.1-5.3,20.1-8.6,30
		C162.2,154.7,161.8,157.3,162.1,159.3z"/>
	<path fill="none" d="M73.2,372.8c0.1,1.9,0.3,3.9,0.4,5.7l0,0C73.5,376.6,73.3,374.6,73.2,372.8L73.2,372.8z"/>
	<path fill="none" d="M107.1,242.6L107.1,242.6c0.3-0.7,0.6-1.5,0.9-2.2C107.7,241.1,107.4,241.9,107.1,242.6z"/>
	<path fill="none" d="M114.4,206.9c0.5-13.2-1.5-26.5-5.6-39.2l0,0C113,180.3,114.9,193.7,114.4,206.9c0,0.4,0,0.9,0.1,1.3l0,0
		C114.4,207.8,114.4,207.4,114.4,206.9z"/>
	<polygon fill="none" points="126.9,186.7 126.9,186.7 128,188.4 	"/>
	<path fill="none" d="M57.9,80.2L57.9,80.2c-0.8,4.4-1.2,8.8-1.3,13.2c0,0.1,0,0.2,0,0.2l0,0c0-0.1,0-0.2,0-0.2
		C56.8,89,57.1,84.6,57.9,80.2z"/>
	<path fill="none" d="M116.3,218.8c1.4-3.6,2.6-7.3,3.9-11c0.3-0.8,0.5-1.6,0.8-2.2c-0.3,0.8-0.5,1.6-0.8,2.2l-0.4-0.1l0,0l0.4,0.1
		C118.9,211.7,117.5,215.3,116.3,218.8z"/>
	<path fill="none" d="M67.6,368.8L67.6,368.8c-0.4-6.7-0.8-13.3-1.3-20l0,0C66.9,355.5,67.3,362.1,67.6,368.8z"/>
	<path fill="none" d="M71.6,343.9c-1.2-26.4-1.7-53.2-4.9-79.4l0,0C70,290.7,70.5,317.4,71.6,343.9L71.6,343.9z"/>
	<path fill="none" d="M162.7,161L162.7,161C162.7,161.1,162.7,161.1,162.7,161z"/>
	<path fill="none" d="M38.8,306.5c-1.8-9.6-3.5-18.8-4.6-28.1c-7.6,7.8-11.7,19-10.8,29.8c1.1,12.3,8.8,24.2,19.6,30.1
		c0.4,0.2,0.7,0.4,1.1,0.5c-0.5-4.3-1.2-8.9-1.9-14C41,318.5,39.8,312.4,38.8,306.5z"/>
	<path fill="none" d="M54.4,790.3c-1.8,1.6-4.5,2-6.7,1.3c-0.8-0.3-1.6-0.8-2-1.5c-0.4-0.6-0.5-1.3-0.5-1.9c0,0.7,0.1,1.4,0.5,1.9
		c0.5,0.7,1.3,1.2,2,1.5C49.9,792.4,52.6,791.8,54.4,790.3c1.6-1.3,2.5-3.5,2.5-5.6C56.9,786.8,55.9,789,54.4,790.3z"/>
	<path fill="none" d="M95.6,298.1c1.6,1.4,3.4,3,3.2,5.1c-0.1,0.6-0.3,1.1-0.6,1.5c0.3-0.4,0.5-0.9,0.6-1.5
		C99.1,301.1,97.2,299.5,95.6,298.1c-1.9-1.8-3.7-3.7-5.2-5.9l0,0C91.9,294.4,93.7,296.3,95.6,298.1z"/>
	<path fill="none" d="M97.1,790.5c-0.7-0.9-0.8-2.1-0.5-3.1c0.5-2.2,2.1-4.4,3.8-5.8c0.5-0.5,1.1-0.8,1.8-1.1
		c0.9-0.4,1.9-0.5,2.8-0.3c-0.9-0.2-1.9-0.1-2.8,0.3c-0.6,0.3-1.3,0.6-1.8,1.1c-1.7,1.5-3.2,3.6-3.8,5.8
		C96.3,788.3,96.4,789.6,97.1,790.5c0.5,0.7,1.3,1.1,2,1.4c0.3,0.1,0.6,0.2,0.9,0.2c-0.3,0-0.6-0.1-0.9-0.2
		C98.4,791.5,97.6,791.2,97.1,790.5z"/>
	<path fill="none" d="M67.9,374.2c0.1,1,0.1,1.9,0.2,2.9l0,0C68,376.2,68,375.2,67.9,374.2L67.9,374.2z"/>
	<path fill="none" d="M63.9,194.4L63.9,194.4c0,0,3.7,13.6,7.2,23c2.5,7,6,14.7,8.7,20.1l0,0c-2.6-5.5-6-13.2-8.7-20.1
		C67.6,208.1,63.9,194.4,63.9,194.4z"/>
	<path fill="none" d="M66.1,259.6c-0.3-1.8-0.5-3.6-0.8-5.3l0,0C65.6,256.1,65.9,257.8,66.1,259.6L66.1,259.6z"/>
	<path fill="none" d="M90.5,292.2L90.5,292.2c1.1-0.7,2-1.4,3-2l0,0C92.5,290.8,91.6,291.5,90.5,292.2z"/>
	<path fill="none" d="M121.2,22c0.1-0.9,0.3-1.8,0.5-2.9C121.5,20.1,121.3,21.1,121.2,22c-0.3,2.4-0.7,14.9,3,21.2
		C120.5,36.8,120.9,24.4,121.2,22z"/>
	<path fill="none" d="M98.2,285.4c-0.7,1.3-1.7,2.3-2.7,3.3l0,0C96.5,287.7,97.5,286.6,98.2,285.4c1.4-2.4,1.5-5.5,0.5-8.1
		C99.6,279.8,99.4,282.9,98.2,285.4z"/>
	<path fill="none" d="M87.8,308.6c-2.7-0.4-5.3-2.6-5.3-5.3l0,0C82.4,305.9,85,308.1,87.8,308.6c1.9,0.3,3.9-0.1,5.6-0.8l0,0
		C91.6,308.5,89.7,308.9,87.8,308.6z"/>
	<path fill="none" d="M85.8,285.8c0.3,0.8,0.7,1.6,1.2,2.2l0,0C86.5,287.4,86.1,286.7,85.8,285.8z"/>
	<path fill="none" d="M141.1,84.9c0.3,2.8,0.5,5.7,0.6,8.6c0,0.1,0,0.2,0,0.3l0,0c0-0.1,0-0.2,0-0.3
		C141.6,90.6,141.4,87.7,141.1,84.9z"/>
	<path fill="#FFD576" d="M269.5,228.9c0.4,0.5,0.7,1.2,0.6,1.8c0,0.1,0.1,0.3,0.5,0.6c0.1,0.1,0.2,0.1,0.4,0.1
		c0.7,0.1,1.6-0.3,2.1-1.1c0.9-1,1.3-2.3,1.7-3.5c0.8-2.7,1.2-5.5,1.1-8.5c0-0.9-0.1-1.8-0.4-2.4c-0.1-0.2-0.2-0.3-0.3-0.4
		c-0.1,1-0.9,1.8-1.8,2c-0.2,1.8-0.5,3.7-1,5.4C271.8,224.9,271,227.1,269.5,228.9z"/>
	<path fill="#FFD576" d="M263.3,231.1c-1.6-0.3-2.9-1.1-3.7-2.3c-0.8-1.2-0.4-2.6,0.7-3.4c1.2-0.8,2.6-0.4,3.4,0.7
		c0.1,0.1,0.3,0.2,0.4,0.2c0.5,0.1,1.1-0.1,1.5-0.4c1.1-0.9,1.7-2.6,1.9-4.1c0.6-2.4,1-4.9,1.1-7.4c0.1-3.4-0.2-6.8-0.9-10.1
		c-0.1-0.6-0.3-1-0.4-1.3c-0.5,0.6-1.2,1-1.9,1l0,0h-0.1c-0.1,0-0.3,0-0.4,0c-0.1,0-0.2,0-0.3,0c-1.4-0.2-2.2-1.4-2.1-2.7
		c0-0.1,0-0.2,0-0.3c1.8-10,2.1-20.2,1.2-30.3c0.2,14.2-3.4,28.6-10.3,40.9c-0.7,1.3-1.5,2.5-2.2,3.8c0.2-0.1,0.5-0.3,0.8-0.3
		c0.9-0.2,1.8-1.1,2.7-2c0.3-0.3,0.6-0.5,0.8-0.8c2.6-2.4,5.6-3.2,8.1-2c1.5,0.7,2.4,1.9,2.8,3.6c0.5,1.9,0,4.2-1.2,5.8
		c-1.6,2-3.7,3.1-5.6,4.1l-0.8,0.4c-2,1.1-3.1,2-3.5,3.1c-0.3,1.1-1.3,1.8-2.3,1.8c-0.2,0-0.5,0-0.7-0.1c-1.3-0.4-2-1.8-1.7-3
		c0.9-3.2,3.8-5,5.9-6l0.8-0.4c1.6-0.8,3-1.6,3.9-2.6c0.4-0.5,0.5-1.3,0.4-1.8c0-0.2-0.1-0.4-0.3-0.4c-0.4-0.2-1.5,0.2-2.5,1.3
		c-0.2,0.2-0.5,0.5-0.7,0.7c-1.3,1.3-2.9,2.8-5.2,3.3c-1.4,0.3-2.6-0.6-2.9-1.8c0-0.2-0.1-0.4,0-0.7c-1.9,3.3-3.7,6.5-4.9,9.9
		c-1.4,4.3-1.6,10.3,1.8,14.2l0.5,0.5c0.2,0.3,0.4,0.6,0.5,0.9l12.4,5.1c1-5.2,2.9-10.1,5.8-14.6c-0.5-0.7-0.7-1.6-0.8-2.3
		c-0.3,0-0.6,0.1-0.9,0.1C264,231.2,263.7,231.2,263.3,231.1z"/>
	<path fill="#FFFFFF" d="M243.3,246.8c-0.3,0-0.3,0.1-0.4,0.1c-0.3,0.2-0.7,1.2-1,1.9c-0.3,0.7-0.6,1.5-1,2.1c0.7,0.6,1.4,1.2,2,1.8
		c2.6,2.3,5.1,4.4,7.6,6.1c2.2,1.6,4.6,2.9,6.9,4.1c1.3-2.8,2.5-5.6,3.7-8.5c-0.6-0.2-1.1-0.7-1.4-1.2l-14.4-5.8
		C245.1,247.1,244.1,246.8,243.3,246.8z"/>
	<path fill="#446EB7" d="M218,288.5c-0.8,0.2-1.6,0.3-2.4,0.3c-3.3,0-6.8-1.7-9.3-4.5c-2.6-3-4-6.7-5.3-9.9
		c-5.8-15.6-13.1-34.9-24.6-50.7c-10.8-14.9-24.4-25.1-38.9-29.3c5.1,8.4,10.8,18.6,15.7,29.3v0.1c0,0,0,0.1,0.1,0.1v0.1
		c0,0.1,0,0.2,0.1,0.2c0,0.1,0,0.2,0,0.3c0,0.1,0,0.1,0,0.2c0,0.1,0,0.2,0,0.3c0,0.1,0,0.1,0,0.2s0,0.2-0.1,0.3c0,0.1,0,0.1-0.1,0.2
		c0,0.1-0.1,0.2-0.1,0.2c0,0.1-0.1,0.1-0.1,0.2s-0.1,0.1-0.2,0.2c0,0.1-0.1,0.1-0.2,0.2c-0.1,0.1-0.1,0.1-0.2,0.2
		c-0.1,0-0.1,0.1-0.2,0.1c-0.1,0-0.2,0.1-0.2,0.1s-0.1,0-0.1,0.1h-0.1c0,0-0.1,0-0.1,0.1c-12.8,4.4-25.3,9.9-36.9,16.7
		c-2.7,1.6-5.3,3.2-7.9,4.8c-0.4,0.3-0.8,0.5-1.2,0.8c13.9-0.1,27.8-0.1,41.7-0.2l0.2-0.2c0.7-0.8,1.8-1,2.7-0.5
		c1,0.4,1.5,1.4,1.4,2.4c-2.9,31.5-4.8,52.7-4.6,80.4c0.1,0,0.2,0,0.2,0.1c0.9,0.2,1.7,0.7,2.4,1.3c0.2-1.2,0.4-2.3,0.6-3.5l0.1-0.5
		c0.7-4.3,1.5-8.8,2.1-12.9c1.4-8,2.8-16.2,3.9-24.4c2.6-19.4,2.8-34.3,0.5-48c-0.2-1.4,0.7-2.5,2-2.8c1.4-0.2,2.5,0.7,2.8,2
		c2.2,13.6,2.2,28.3-0.2,47.1c0.6,0.2,1.1,0.6,1.4,1.3c4.5,9.2,9.1,18.9,15.8,26.7c7.2,8.7,16,14.1,24.9,15.5
		c13.7,2,29-5.7,38.8-19.8c9.1-13,12.9-28.9,16.7-44.2c-1-0.4-2-0.8-2.9-1.3c-2.9-1.4-5.7-2.9-8.5-4.9c-2.7-1.9-5.3-4.1-8-6.4
		c-1.2-1-2.3-2-3.5-3l-8.7,23.4C226.5,280,224,286.9,218,288.5z M248.5,275.2c0.3-0.4,0.6-0.8,1-1.2c0.6-0.7,1.6-1.1,2.4-0.9
		c0.9,0.2,1.7,0.9,1.8,1.8c0.1,0.5,0.3,1,0.4,1.6c0.2,0.9-0.1,1.8-0.8,2.4c-0.5,0.4-1.2,0.7-1.8,0.7c-0.6,0-1.2-0.2-1.7-0.5
		c-0.3-0.1-0.6-0.2-0.8-0.4C247.9,277.8,247.6,276.3,248.5,275.2z M243.5,286.3c0.5-1.2,1.7-2,3-2.1c1.8-0.1,3.3,1,3.6,2.6
		c0.3,1.7-0.7,3.2-2.3,3.7c-0.4,0.1-0.8,0.2-1.2,0.2c-0.8,0-1.6-0.3-2.1-0.8c-0.2-0.1-0.4-0.2-0.5-0.3
		C242.9,289,242.8,287.4,243.5,286.3z M239.1,297.4L239.1,297.4c0.2-0.2,0.3-0.2,0.4-0.2c1.1-0.5,2.3-0.3,3.3,0.5
		c1,0.7,1.6,1.8,1.5,3c-0.1,1.2-0.8,2.2-1.9,2.8c-0.5,0.3-1.1,0.4-1.6,0.4c-0.6,0-1.3-0.2-1.8-0.5c-1-0.7-1.6-1.8-1.6-3
		C237.4,299.1,238,298,239.1,297.4z"/>
	<path fill="#446EB7" d="M121.2,22c-0.3,2.4-0.7,14.9,3,21.2c0.5,0.8,1,1.4,1.5,1.9l0,0c0.3,0.3,0.6,0.5,0.9,0.7
		c0.2,0.1,0.3,0.2,0.5,0.3c1.8,1.1,2.7,0.4,3.2-1.4c1.4-5.1-1.7-19.5,3-24.6c0.5-0.6,1.1-1,1.8-1.3c4.6-1.9,9.8-0.8,14.4,1.7
		c0,0,0.1,0,0.1,0.1c1.5,0.8,2.9,1.7,4.2,2.6c1.4,1,2.5,2,3.7,3.2c3.5,3.5,6.1,7.8,8.5,12.3c1.3,2.4,2.3,5,3.3,7.4
		c5.8,14.8,7.6,31,6.7,46.9c-0.1,0.9-0.1,1.8-0.2,2.6c-0.7,9-2.2,18-4.3,26.8c-2.3,10.1-5.3,20.1-8.6,30c-0.7,2.1-1.2,4.8-0.8,6.8
		c0.1,0.6,0.3,1.2,0.6,1.7l0.1,0.1c0.3,0.5,0.6,0.9,1,1.2c0.1,0.1,0.1,0.1,0.2,0.2c0-0.1,0.1-0.1,0.1-0.2
		c12.7-30.1,19.3-62.1,19.1-92.6c-0.2-23.6-5.5-40.3-16.2-51C156.1,7.7,140,4.7,125.9,11c-0.5,0.2-1,0.4-1.4,0.7
		c-0.2,0.1-0.5,0.2-0.7,0.2c-0.8,2.3-1.6,4.9-2,7.2C121.5,20.1,121.3,21.1,121.2,22z"/>
	<path fill="#1B2A54" d="M162.8,161.2L162.8,161.2c-0.4-0.6-0.5-1.2-0.7-1.8c-0.4-2.1,0.1-4.8,0.8-6.8c3.2-9.9,6.2-19.9,8.6-30
		c2-8.8,3.6-17.8,4.3-26.8c0.1-0.9,0.1-1.8,0.2-2.6c1-15.9-0.9-32.2-6.7-46.9c-1-2.5-2.1-5.1-3.3-7.4c-2.2-4.4-5-8.7-8.5-12.3
		c-1.2-1.2-2.4-2.2-3.7-3.2s-2.7-1.8-4.2-2.6c0,0-0.1,0-0.1-0.1c-4.6-2.4-9.8-3.6-14.4-1.7c-0.7,0.3-1.3,0.8-1.8,1.3
		c-4.7,5.1-1.7,19.4-3,24.6c-0.5,1.7-1.4,2.3-3.2,1.4c-0.2-0.1-0.3-0.2-0.5-0.3c-0.3-0.2-0.6-0.4-0.9-0.7l-0.4,0.3
		c3.1,2.8,5.9,5.9,8.2,9.5c2.6,4.1,4.9,8.7,6.5,13.6c0.4,1.3,0.9,2.6,1.2,4c0.3,1,0.5,2,0.8,3.1c0.7,0.1,1.4,0.1,2.1,0.2
		c0.3,0,0.6,0.1,0.9,0.3l0.4,0.2c0.7,0.4,1.2,1.2,1.3,2c0.1,1.4,0.1,2.5,0.2,3.7c0.2,2.6,0.3,5,0.2,9.2v0.3c0,1.4-0.1,3.5-0.7,5.3
		c-0.3,1-1.2,1.6-2.2,1.7c-0.1,8-1.1,15.9-2.7,23.7c-0.7,3.1-1.5,6.3-2.4,9.4c-1.5,4.7-3,8.8-4.8,12.4v0.1v0.1l0,0l0,0
		c-2.4,5-5.3,9.3-8.7,12.9l-0.1,0.1l0,0c0,0.1-0.1,0.1-0.2,0.2c-1.5,1.6-3,2.9-4.6,4.2c0.1,0.3,0.1,0.5,0,0.8
		c-0.1,0.5-0.1,0.9-0.2,1.4c-0.1,0.9-0.1,1.8-0.1,2.5c13.9,0.3,28,0.1,42.2-0.4c0.5-1.2,1-2.2,1.5-3.4c-0.1,0-0.1-0.1-0.2-0.2
		C163.4,162,163,161.6,162.8,161.2z"/>
	<path fill="#446EB7" d="M112.3,430.2c-0.2,0-0.4,0.1-0.6,0.1c-0.4,0-0.8-0.1-1.1-0.3c-0.8,0-1.7-0.5-2-1.2c-2-3.6-3.9-7.9-5.5-12.2
		c-1-2.4-1.9-4.9-3-7.1c-1.8,7.7-4.7,15-11,19.7c-0.1,0.1-0.2,0.2-0.3,0.2c0,0-0.1,0.1-0.2,0.1c-0.4,0.3-0.9,0.4-1.4,0.4
		c-0.7,0-1.3-0.3-1.8-0.7c-15.1-2.3-29.3-6.9-42.1-13.6c-13.4,31.1-18.8,68.4-16,110.6c2.5,37.7,11,75.3,19.3,111.5l45.4-0.4
		c0,0,0,0,0.1,0l0,0l0,0l5.3-0.1c0.1,0,0.2,0,0.3,0s0.2,0,0.3,0l0,0c1.9,0,3.8,0,5.7,0.1c13.1,0.1,26.3,0.3,39.3,0.4
		c0.4-0.2,0.8-0.4,1.3-0.4c0.5,0,1,0.2,1.4,0.4c1.2,0,2.2,0,3.4,0c8.3-36.3,16.8-73.8,19.3-111.5c2.7-41.5-2.4-78.1-15.2-108.6
		c-5.8,1.7-11.8,3.6-17.6,5.5C127.9,425.7,120,428.4,112.3,430.2z M148.5,432.1c1.3-0.4,2.6,0.4,3,1.7
		c11.4,41.3,13.3,85.5,5.8,127.7c-0.2,1.2-1.3,2-2.4,2c-0.1,0-0.3,0-0.4,0c-1.4-0.2-2.2-1.5-1.9-2.8c7.4-41.4,5.4-84.9-5.7-125.4
		C146.5,433.8,147.3,432.5,148.5,432.1z M140.6,623.5c4.1-16.5,7.5-33.4,10.1-50.2c0.2-1.4,1.5-2.2,2.8-2c1.4,0.2,2.2,1.5,2,2.8
		c-2.6,16.9-6.1,33.9-10.2,50.6c-0.3,1.1-1.3,1.8-2.3,1.8c-0.2,0-0.4,0-0.6-0.1C141.1,626.2,140.2,624.9,140.6,623.5z"/>
	<path fill="#446EB7" d="M135.9,386.8c0.1,1.3-0.9,2.3-2.1,2.5c-0.7,0.1-15.7,1.8-23.8,1.9c-1.2,0-2.2,0-3.4,0
		c-5.7,0-11.5-0.2-17-0.4l-34-1.2c-1.2,0-2.1-0.9-2.3-2l-0.8-4.5c-1.1-0.1-2.2-0.3-3.3-0.4c-1.5,9.5-4,18.4-7.6,26.3
		c0.7,0.4,1.4,0.8,2,1.1c13.2,7.2,27.8,12.1,43.6,14.4c5.7-5,7.8-13.1,9.2-21.3c0.1-0.4,0.1-0.9,0.2-1.3c0.2-1.4,0.5-2.8,0.7-4.2
		l0.1-0.5c0.2-1.4,1.5-2.2,2.8-2s2.2,1.5,2,2.8l-0.1,0.5c-0.2,1.2-0.4,2.3-0.6,3.5c0.2,0.2,0.4,0.4,0.6,0.7c2,3.6,3.9,7.9,5.5,12.2
		c1.5,3.6,3,7.3,4.7,10.4c7.2-1.8,14.7-4.3,22.1-6.7c6.4-2.1,13-4.3,19.4-6c0.3-0.2,0.6-0.2,1-0.3c0.2,0,0.3-0.1,0.5-0.1
		c-5.6-12.5-8.5-26.9-8.4-43.8c-0.2,0.1-0.4,0.2-0.6,0.3c-3.4,1.5-6.9,2.7-10.4,3.7c0,1.1,0,2.3,0.1,3.6
		C135.7,379.9,135.8,384.8,135.9,386.8z"/>
	<path fill="#FFD576" d="M147.2,362.7c0.4-0.6,1.1-1,1.8-1c1.7-1,2.5-1.8,2.8-2.9c0.1-0.3,0-0.8-0.2-1.2c-0.2-0.4-0.5-0.6-0.6-0.6
		c-0.5,0.2-1.1,0.2-1.6,0.1c-1.2,0.6-2.5,1-4,1.4c-0.2,0-0.4,0.1-0.6,0.1c0,1.7,0,3.4,0.1,5.1C145.7,363.4,146.5,363,147.2,362.7z"
		/>
	<path fill="#FFD576" d="M144.2,341c-0.9,1.9-2.7,3.5-4.8,3.8c-2.7,0.4-5.5-1-7.4-3.6c-0.3-0.4-0.5-0.8-0.7-1.1
		c-0.3-0.5-0.5-1-0.7-1.5c-0.8-2-0.9-4.3-1.1-6.1c-0.1-1.8,0.3-3.8,0.7-5.8c0.2-0.9,0.4-1.8,0.5-2.6c0-0.6,0-1.3,0-1.8
		c-1.8,1.1-2.8,3.5-3.2,5.7c-0.2,1.2-0.3,2.4-0.5,3.7c-0.2,2.3-0.4,4.8-1.3,7.1c-1.8,5.2-6.5,9.2-12.7,11.3
		c-4.8,1.6-9.7,1.8-14.5,1.8c0.8,5.8,1.5,11.8,2.2,17.6c0.1,0,0.1,0,0.2,0c10,1.8,20.7,1.4,30.8-1.1c0.2,0,0.4-0.1,0.6-0.2
		c4-1,7.9-2.3,11.7-4c0.3-0.1,0.6-0.3,1-0.4c0-1.7,0-3.4-0.1-5.1c-1.1,0.3-2.2,0.5-3.3,0.7h-0.1c-0.1,0-0.3,0-0.4,0
		c-1.2,0-2.1-0.9-2.4-2c-0.2-1.4,0.7-2.6,1.9-2.8h0.1c1.2-0.2,2.4-0.4,3.5-0.7c1.5-0.4,2.6-0.8,3.6-1.3c2-1.1,3.5-2.8,3.7-4.6
		c0.1-0.9-0.2-1.8-0.7-2.5c-0.1-0.1-0.2-0.2-0.3-0.3c-0.4,0.3-1,0.5-1.5,0.5s-0.9-0.1-1.3-0.4c-1.2-0.7-1.5-2.2-0.8-3.3
		c0.2-0.3,0.3-0.6,0.5-0.9c0.4-0.8,0.5-1.6,0.5-2.3c0-0.7-0.3-1.5-0.8-2c-0.2-0.3-0.6-0.7-1.1-0.8c-0.2-0.1-0.4-0.1-0.7,0
		c-0.6,0.1-1.2,0.6-1.2,1c0,0,0,0,0,0.1C144.7,338.2,144.7,339.6,144.2,341z M146.3,346.9c0.6,1.2,0.1,2.6-1.1,3.3
		c-1.6,0.8-3.3,1.4-5.4,1.7c-0.1,0-0.3,0-0.4,0c-1.2,0-2.2-0.9-2.4-2c-0.2-1.4,0.7-2.5,2-2.8c1.7-0.3,2.9-0.7,4-1.3
		C144.3,345.3,145.7,345.7,146.3,346.9z"/>
	<path fill="#FFFFFF" d="M146.7,254c-15.8,0.1-31.4,0.1-47.2,0.2c-1.4,0-2.6,0-4,0l-30.1,0.1c0.3,1.8,0.5,3.6,0.8,5.3
		c0.1,0,0.2,0,0.3,0c20,0,50.1,0,68.7,0l0,0c0.7,0,1.3,0.3,1.8,0.8c0.4,0.5,0.7,1.1,0.7,1.7l2.3,0.3c-1.8,17.5-3,35.3-3.4,53.1
		c-0.2,8.5-0.2,16.9-0.2,23.5c0.7,0.7,1.5,1.2,2.3,1.1c0.4-0.1,0.8-0.4,1-0.9c0.1-0.2,0.1-0.4,0.1-0.5c-0.6-0.8-0.6-1.8-0.1-2.5
		c0.3-1.7,1.4-3,2.8-3.9C142.2,304.8,143.9,283.9,146.7,254z"/>
	<path fill="#F4D47B" d="M112.4,707.2c1.9,15.2,4,30.8,5.2,46.4c5,0.5,11,0.7,15.5,0.4c0.3-0.1,0.7-0.2,1-0.2
		c5.8-34.2,6.8-69.6,7.7-103.8c0.1-2.4,0.1-4.9,0.2-7.4c-11.9-0.1-23.7-0.2-35.6-0.3C106.7,664,109.6,685.9,112.4,707.2z"/>
	<path fill="#FFFFFF" d="M141.7,93.4c0,0.1,0,0.2,0,0.3h0.1c0.1,0,0.2,0,0.3,0c0.1-0.8,0.1-1.7,0.1-2.2v-0.3c0.1-4.1,0-6.2-0.2-8.8
		c0-0.6-0.1-1.3-0.1-1.8c-0.1,0-0.3,0-0.4,0c-0.4,0-0.7-0.1-1.1-0.1c0.3,1.6,0.5,3.1,0.7,4.6C141.4,87.7,141.6,90.6,141.7,93.4z"/>
	<path fill="#B0D8DB" d="M121.9,153.8c3-3.2,5.6-7.2,7.9-11.8l0,0c0,0,0,0,0-0.1c1.8-3.5,3.2-7.3,4.6-11.8c0.9-3,1.8-6,2.3-9
		c1.7-7.5,2.5-15.1,2.6-22.7c-2.9-0.1-5.7-0.1-8.5-0.1c0.8,5.5,1,11.2,0.5,16.8c-0.4,4.5-1.2,8.8-2.1,13.1
		c-2.3,9.7-6,19.3-10.3,28.4c1-0.9,1.9-1.8,2.8-2.6c0,0,0,0,0.1-0.1L121.9,153.8C121.8,153.9,121.9,153.8,121.9,153.8z"/>
	<path fill="#FFFFFF" d="M129.4,83.6c1.4,0,2.4,1.1,2.4,2.4s-1.1,2.4-2.4,2.4h-0.8c0.5,1.7,1,3.3,1.4,5.1c0.2,0,0.3,0,0.5,0
		c3.7,0,7.5,0,11.4,0.1c0-0.1,0-0.2,0-0.3c-0.1-2.8-0.3-5.7-0.6-8.6c-0.2-1.6-0.4-3.1-0.7-4.6c-0.2,0-0.5,0-0.7-0.1
		c-5-0.5-10-0.8-15.1-0.9c0.8,1.4,1.5,2.8,2,4.3L129.4,83.6L129.4,83.6z"/>
	<path fill="#FFFFFF" d="M119.8,207.8l0.4,0.1c0.3-0.8,0.5-1.6,0.8-2.2c2.2-6.6,4.4-13.1,5.9-19l0,0l0,0l1.2,1.8l0.2,0.2
		c1.8,3.4,3,5.7,3,5.7s-3.7,13.6-7.2,23c-2.5,7-6,14.7-8.7,20.2c10.2-5.7,21-10.6,32.1-14.5c-5.4-11.7-11.9-22.6-17-30.9
		c-0.2-0.2-0.4-0.5-0.5-0.9c-1.1-1.8-2.1-3.4-3.1-5.1c-0.5,1.6-1,3.2-1.6,5C123.6,197,121.7,202.4,119.8,207.8z"/>
	<path fill="#B0D8DB" d="M111.2,60.7c1.1,1.9,2.5,3.7,3.9,5.4c0.7,0,1.4,0,2,0l5.3-0.1c2.5,0,5-0.1,6.9-0.1c0.4,0,0.7,0.1,1,0.2
		c-1.3-1.1-2.6-2-4.1-3c-0.6-0.4-1.2-0.8-1.8-1.2c-3.3-2.3-6.9-5.3-8.9-9.3c-0.4-0.7-0.8-1.5-1.1-2.1c-1.2,1.4-2.5,2.3-4.4,3.5
		c-0.4,0.2-0.8,0.5-1.2,0.7c0.1,0.6,0.2,1.1,0.3,1.7C109.7,57.8,110.4,59.3,111.2,60.7z"/>
	<path fill="#B0D8DB" d="M129.5,70.8c-1.9,0-4.4,0.1-6.9,0.1l-3.4,0.1c0.1,0.2,0.3,0.4,0.4,0.6c0.8,1,1.5,1.9,2.2,3
		c0.5,0,1.1,0,1.6,0c4.5,0,8.9,0.3,13.4,0.6c0-0.5-0.1-0.9-0.2-1.3c-0.5-1.6-1.6-3.1-3.2-4.9c-0.6-0.7-1.3-1.4-1.9-1.9
		c0.3,0.4,0.4,0.8,0.4,1.3C131.9,69.6,130.8,70.8,129.5,70.8z"/>
	<path fill="#1B2A54" d="M127.4,57.9L127.4,57.9c-2.3-2.2-4.7-4.5-7-6.7C122.1,53.9,124.7,56.1,127.4,57.9z"/>
	<path fill="#1B2A54" d="M116.2,758.4c-7.4,5.1-13.8,11.4-18.9,18.8c-1.7,2.3-3.4,5.2-4.1,8.3c-0.6,2.9,0,5.7,1.6,7.5
		c1.5,1.7,4.2,2.6,7.1,2.5c4.6-0.2,8.5-2.5,11-4.4c3.4-2.6,6.2-6.1,8.8-9.4l0.3-0.4c2.2-2.9,4.8-6.2,8.6-7.9
		c0.5-0.2,1.1-0.4,1.6-0.6c0.8-0.3,1.6-0.5,2-0.9c1.2-1,1.5-3,1.7-5.2c0.2-1.9,0.3-3.8-0.2-5.3c-0.3-1.2-1-2.1-1.8-2.5
		c-1.8,0.1-3.7,0.2-5.8,0.2C124,759,119.8,758.8,116.2,758.4z M105.8,790.1c-1.5,1.5-3.7,2.1-5.7,1.8c-0.3,0-0.6-0.1-0.9-0.2
		c-0.8-0.2-1.6-0.7-2.1-1.4c-0.7-0.9-0.8-2.1-0.5-3.1c0.5-2.2,2.1-4.4,3.8-5.8c0.5-0.4,1.1-0.8,1.8-1.1c1-0.4,1.9-0.5,2.8-0.3
		c0.6,0.1,1.1,0.4,1.6,0.9C109,783.4,108.1,787.8,105.8,790.1z"/>
	<path fill="#1B2A54" d="M122,48.8c-1.3-1.1-2.5-2-3.8-2.9c0,0.3,0.1,0.6,0.2,1c0.3,1.1,1,2.2,1.7,3.6c0.2,0.3,0.3,0.6,0.5,0.9
		c2.3,2.2,4.7,4.5,7,6.7c0.6,0.4,1.1,0.8,1.7,1.2c0.8,0.6,1.7,1.2,2.4,1.8c-0.6-1.2-1.3-2.2-1.9-3.3C127.4,54.3,124.9,51.3,122,48.8
		z"/>
	<path fill="#1B2A54" d="M66.8,264.5c3.2,26.3,3.7,52.9,4.9,79.4c0,0,0,0,0.1,0c3.4-0.1,7.1-0.3,11.6-0.7c0.4-0.2,0.8-0.4,1.3-0.4
		c1.4,0,2.4,1.1,2.4,2.4c0,0.1,0,0.2,0,0.3v1.2l8.7-0.6c0.8,0,1.5,0.3,1.8,0.8c4.8-0.1,9.6-0.2,14.1-1.7c4.8-1.6,8.4-4.7,9.7-8.3
		c0.7-1.8,0.9-3.8,1-5.8c0.1-1.4,0.3-2.7,0.5-4.1c0.9-5.2,3.8-8.9,7.6-9.9c0.2,0,0.3-0.1,0.5-0.1c0.6-24,1.5-45.3,1.8-52.5
		C114,264.5,85.9,264.5,66.8,264.5z M98.2,317.8c-1.7,2.4-4.4,4.3-7.4,5.1c-1.1,0.3-2.1,0.4-3.3,0.4c-3.6,0-7.3-1.5-9.9-4
		c-3.4-3.3-4.9-8.5-3.7-13.1c0.6-2.3,1.7-4.4,2.8-6.2l0.5,0.2V300l-0.4-0.3l0.1-0.1c3.2-5.3,6.5-9,10.1-11.6
		c-0.5-0.7-0.9-1.5-1.2-2.2c-0.6-1.6-0.9-3.2-0.8-4.9c0.1-1.1,0.3-2.1,0.8-3c1.3-2.2,4.2-3.1,6.7-3.7c1.2-0.3,2.5-0.6,3.7-0.1
		c0.9,0.4,1.5,1.2,1.9,2c0.2,0.4,0.4,0.7,0.5,1.1c1,2.6,0.9,5.6-0.5,8.1c-0.7,1.3-1.7,2.3-2.7,3.3c-0.3,0.6-0.8,1.1-1.5,1.3
		c-0.2,0.1-0.3,0.1-0.5,0.2c-1,0.7-2,1.4-3,2l0,0l0,0c1.5,2.2,3.2,4.2,5.2,5.9c1.6,1.4,3.4,3,3.2,5.1c-0.1,0.6-0.3,1.1-0.6,1.5
		c-0.2,0.2-0.4,0.5-0.6,0.7c0.9,1.2,1.5,2.2,1.8,3.4C100.5,311.6,100,315.1,98.2,317.8z M123.5,304.3L123.5,304.3H123
		c-2,0-4.1-0.1-6-0.1c-0.1,1.8-0.1,3.6-0.2,5.4c0,1.4-1.2,2.3-2.4,2.3h-0.1c-1.4,0-2.4-1.2-2.3-2.5c0.1-1.8,0.1-3.6,0.2-5.3
		c-1.9,0-4-0.1-5.9-0.1c-1.4,0-2.4-1.2-2.4-2.4c0-1.4,1.2-2.3,2.4-2.4c2,0,4,0.1,6,0.1l0.2-5.9c0-1.4,1.2-2.3,2.5-2.3
		c1.4,0,2.4,1.2,2.3,2.5l-0.2,5.8c2,0,4,0.1,6,0.1h0.6c1.4,0,2.4,1.2,2.4,2.4C126,303.2,124.9,304.3,123.5,304.3z"/>
	<path fill="#FFFFFF" d="M100.5,376.7c-0.4,0.4-1,0.5-1.5,0.5c-0.3,0-0.6-0.1-0.9-0.2c-3.3-1.3-6.8-1.8-10.3-1.5l0.1,3.2
		c0,1.3-0.9,2.3-2.1,2.5c-0.2,0.1-0.4,0.2-0.6,0.2c-3.7,0.9-7.5,1.5-11.2,1.8c-3.5,0.4-6.9,0.6-10.4,0.6c-2,0-4.1-0.1-6.1-0.2
		l0.2,1.3l32.1,1.1c6.6,0.2,13.5,0.4,20.2,0.4c6.1-0.1,16.5-1.2,21.1-1.7c-0.1-2.3-0.1-5.6-0.2-8.7c0-0.9,0-1.8,0-2.5
		c-5.6,1.2-11.3,1.8-17,1.8c-4.2,0-8.3-0.3-12.3-1v0.1C101.6,375.3,101.2,376.2,100.5,376.7z"/>
	<path fill="#F4D47B" d="M99.1,164.2c0.1,0,0.2,0,0.3,0h0.1c2.5,0.1,5.2-0.3,7.7-1.1c0.1,0,0.1,0,0.2,0c0.1,0,0.1,0,0.2-0.1
		c2.3-0.7,4.6-1.8,6.8-3.1c1.6-1,3-2,4.5-3.2c4.3-9.1,8.1-18.6,10.3-28.4c1-4.3,1.8-8.8,2.1-13.1c0.5-5.5,0.4-11.3-0.5-16.8
		c-0.1,0-0.3,0-0.4,0c-1.5,0-3,0-4.5,0c-5.4,0-11,0-16.5-0.1c-0.6,6.5-1.3,13.1-1.8,19.6c0,0.5-0.2,0.9-0.5,1.2c-0.2,1.1-1,1.8-2,2
		c-2.4,0.3-4.9,0.5-7.2,0.5c-1.1,0-2,0-3.1-0.1c-0.9-0.1-1.7-0.6-2-1.4c-0.3-0.3-0.6-0.8-0.6-1.3l-3.6-20.6
		c-5.4,0.2-11.1,0.1-16.4,0.1c-4.3,0-8.7,0-12.9,0c0.2,10.8,1.8,21.4,5,31.7c3.1,10.2,7.2,18,12.4,23.6c1.1,1.1,2.1,2.1,3.2,3.1
		c5.8,4.9,12.5,7.5,19.1,7.3C98.9,164.1,98.9,164.1,99.1,164.2C99,164.2,99.1,164.2,99.1,164.2z M90.7,139.7c-1.4,0-2.4-1.1-2.4-2.4
		c0-1.4,1.1-2.4,2.4-2.4l0,0l16.8,0.1c1.4,0,2.4,1.1,2.4,2.4c0,1.4-1.1,2.4-2.4,2.4l0,0L90.7,139.7z"/>
	<path fill="#B2E7DC" d="M116.3,218.8c-3,8.3-5.9,15.8-8.2,21.5c-0.3,0.8-0.6,1.6-0.9,2.2c1.7-1.1,3.4-2,5.2-3.1c1-0.6,2-1.2,3-1.8
		c2.6-5.5,6.1-13.2,8.7-20.2c3.4-9.4,7.2-23,7.2-23s-1.2-2.3-3-5.7l-0.2-0.2l-1.2-1.8l0,0c-1.6,5.8-3.7,12.3-5.9,19
		c-0.3,0.8-0.5,1.6-0.8,2.2C118.9,211.7,117.5,215.3,116.3,218.8z"/>
	<path fill="#FFFFFF" d="M125.9,93.6c1.4,0,2.6,0,4,0c-0.4-1.8-0.9-3.4-1.4-5.1h-5.9c-1.4,0-2.4-1.1-2.4-2.4s1.1-2.4,2.4-2.4h4.2
		c-0.6-1.5-1.3-2.9-2-4.3c-0.5,0-1,0-1.4,0c-4.5-0.1-9.1,0.1-13.7,0.3c-0.3,2.2-0.4,4.6-0.3,6.8c0.1,2.4,0.3,4.8,0.8,7
		C115.4,93.6,120.7,93.6,125.9,93.6z"/>
	<path fill="#1B2A54" d="M72.9,157.1c-5.7-6.2-10.2-14.6-13.5-25.5c-3.3-10.7-5-21.8-5.2-33.1c-0.2,0-0.3-0.1-0.5-0.1
		c-1.1,0-2-0.6-2.4-1.7c-0.6-1.8-0.7-3.9-0.7-5.3v-0.3c-0.1-4.4,0-6.7,0.2-9.3c0.1-1.1,0.2-2.2,0.2-3.6c0-0.9,0.5-1.6,1.3-2l0.4-0.2
		c0.3-0.2,0.6-0.3,0.9-0.3c1-0.1,1.8-0.2,2.8-0.3c1.8-7.8,4.6-14.8,8.5-20.6C72.9,42.5,86,34.8,99,34.8h0.1h0.1h0.1h0.1
		c5.9,0,12.2,1.7,17.8,4.8l0,0l0,0c0.4,0.2,0.8,0.4,1.1,0.7l0,0c0,0,0.1,0,0.1,0.1c2.3,1.4,4.7,3,6.8,5c0.1,0.1,0.2,0.2,0.3,0.2
		l0.4-0.3l0,0c-0.6-0.6-1.1-1.2-1.5-1.9c-3.8-6.3-3.3-18.8-3-21.2c0.1-0.9,0.3-1.8,0.5-2.9c0.5-2.3,1.3-4.9,2-7.2
		c-0.6,0.1-1.3-0.1-1.8-0.4c-0.2-0.1-0.5-0.1-0.7-0.3c-16.6-10-36.9-12.9-55.4-8C48.8,8,34.6,18.9,26,34.4c-0.3,0.6-0.7,1.3-1,1.9
		c-8.8,16.7-7.7,34.3-5.8,50.9c2.9,26.6,9,53,18.1,78.2c6.2,0,13,0.1,19.8,0.1c6.4,0,12.9,0.1,18.8,0.1c0-1.9-0.1-3.8-0.2-5.7
		C74.7,159,73.8,158.1,72.9,157.1z"/>
	<path fill="#B0D8DB" d="M108.8,167.8c4.3,12.5,6.2,25.9,5.6,39.2c0,0.4,0,0.9,0.1,1.3c2.2-5.9,4.3-12.1,6.2-18.3
		c0.3-1.1,0.7-2.1,1-3.1c-0.4-0.2-0.7-0.5-0.9-0.9c-3.8-6.2-5.6-13.6-5.3-20.9c-2,1.2-4.2,2-6.4,2.7
		C109,167.7,108.9,167.8,108.8,167.8z"/>
	<path fill="#F4D47B" d="M105.2,76.9c0.2-1.2,1.2-1.9,2.3-2h0.7c4.6-0.3,9.2-0.5,13.7-0.4c-0.7-1.1-1.5-2-2.1-3
		c-0.1-0.2-0.3-0.4-0.5-0.6h-1.9c-2.6,0-5.1,0.1-7,0.1c0,0,0,0-0.1,0c-1.4,0-2.4-1.1-2.4-2.3c0-1.4,1.1-2.4,2.3-2.4
		c1.5,0,3.1-0.1,5.1-0.1c-1.5-1.8-2.8-3.5-3.9-5.4c-0.8-1.4-1.5-2.9-1.8-4.5c-0.1-0.5-0.2-1.1-0.3-1.7c-0.3,0.1-0.5,0.3-0.8,0.5
		c-0.7,0.4-1.5,0.9-2.2,1.4c-6.3,3.8-13.2,6.4-19.9,8.8c-0.6,0.2-1.2,0.5-1.8,0.7l3.5-0.1c1.4,0,2.4,1.1,2.4,2.4s-1.1,2.4-2.4,2.4
		L72.4,71l0,0c-0.1,0-0.2,0-0.3,0c-2.3,1.2-4.6,2.3-6.7,3.7c8.1-0.5,16.1-0.4,24.1,0.1h0.7c1.2,0,2.1,0.9,2.3,2
		c0.4,2.3,0.7,4.8,0.7,7.2l11.2,0.1C104.5,81.8,104.7,79.3,105.2,76.9z"/>
	<path fill="#FFFFFF" d="M108.1,240.3c2.2-5.6,5.2-13.2,8.2-21.5c1.4-3.6,2.6-7.3,3.9-11l-0.4-0.1c-0.4,1-0.7,1.8-1.1,2.8
		c-4.3,11.5-9.1,22.8-14.5,33.8c1-0.6,1.8-1.2,2.8-1.8C107.4,241.9,107.7,241.1,108.1,240.3z"/>
	<path fill="#FFD576" d="M114.2,208.9c0.1-0.2,0.2-0.5,0.3-0.7c-0.1-0.4-0.1-0.9-0.1-1.3c0.5-13.2-1.5-26.5-5.6-39.2
		c-0.1,0-0.1,0-0.2,0.1c-2.8,0.8-5.6,1.3-8.4,1.3c-0.3,0-0.7,0-1,0l0,0c-0.4,0-0.7,0-1.1,0c-5.8,0-11.9-1.8-17.3-5.3
		c0,1.5,0,2.9,0,4.4c-0.1,1.8-0.2,3.4-0.3,5.2c-0.3,2.6-0.7,5.4-2,8.1c-1.2,2.3-3,4.2-5.2,5.1c6.3,20.8,14.5,41.2,24.3,60.8
		C103.7,234.8,109.4,222,114.2,208.9z"/>
	<path fill="#1B2A54" d="M84.4,60.8c6.5-2.4,13.2-4.9,19.2-8.5c0.9-0.5,1.6-1,2.3-1.4c0.7-0.4,1.3-0.8,1.8-1.1
		c0.9-0.6,1.6-1,2.1-1.5c0.1-0.2,0.2-0.5,0.3-0.7l0.1-1.2c0.5-0.2,1-0.4,1.5-0.4c0.1-0.2,0.2-0.4,0.3-0.7c0.3-0.7,0.7-1.6,1.1-2.6
		c-4.5-2.1-9.1-3.2-13.7-3.2h-0.1h-0.1H99h-0.1c-11.4,0-22.9,6.9-30.1,17.9c-2.5,3.9-4.6,8.4-6.2,13.2c5.5-3.6,11.7-6.2,17.6-8.5
		C81.6,61.7,83,61.2,84.4,60.8z"/>
	<path fill="#1B2A54" d="M110.1,47.6c-0.1,0.2-0.2,0.5-0.3,0.7c0.8-0.7,1.4-1.3,1.8-2.2c-0.5,0-1,0.2-1.5,0.4L110.1,47.6z"/>
	<path fill="#F4D47B" d="M96.6,116.8c2,0.1,4.2,0,6.2-0.2c0.7-7.2,1.4-14.4,2-21.6c0-0.4,0.2-0.8,0.4-1.1c-0.3-1.6-0.5-3.2-0.7-4.9
		l-11.5-0.1c-0.1,1.6-0.3,3-0.6,4.6c0,0.1,0.1,0.2,0.1,0.3L96.6,116.8z"/>
	<path fill="#B0D8DB" d="M104.9,780.2c-0.9-0.2-1.9-0.1-2.8,0.3c-0.6,0.3-1.3,0.6-1.8,1.1c-1.7,1.5-3.2,3.6-3.8,5.8
		c-0.3,1.1-0.2,2.2,0.5,3.1c0.5,0.7,1.3,1.1,2.1,1.4c0.3,0.1,0.6,0.2,0.9,0.2c2,0.3,4.3-0.4,5.7-1.8c2.3-2.2,3.2-6.7,0.7-9.1
		C106,780.6,105.5,780.3,104.9,780.2z"/>
	<path fill="#FFFFFF" d="M96.1,371.3c-0.9-6.7-1.7-13.4-2.5-20.2l-6.5,0.4l0.6,19.2C90.6,370.5,93.4,370.7,96.1,371.3z"/>
	<path fill="#1B2A54" d="M95.6,298.1c-1.9-1.8-3.7-3.7-5.2-5.9c-1.7,1.1-3.2,2.1-4.6,3.6c-0.6,0.7-1.2,1.4-1.7,2.1
		c4.7,0.3,9.3,2.6,12.6,6.4c0.3,0.3,0.5,0.6,0.8,0.9c0,0,0,0,0,0.1c0.2-0.2,0.4-0.4,0.6-0.7c0.3-0.4,0.5-0.9,0.6-1.5
		C99.1,301.1,97.2,299.5,95.6,298.1z"/>
	<path fill="#1B2A54" d="M93.5,290.1c-1.2,0.4-2.2,1-3.3,1.7c0.1,0.1,0.2,0.3,0.2,0.4C91.6,291.5,92.5,290.8,93.5,290.1z"/>
	<path fill="#1B2A54" d="M87.2,288c1.7-1.1,3.4-2,5.2-2.6c1.3-0.4,2.6,0.3,3.1,1.6c0.2,0.6,0.2,1.3-0.1,1.8c1.1-1,2-2,2.7-3.3
		c1.4-2.4,1.5-5.5,0.5-8.1c-0.1-0.4-0.3-0.8-0.5-1.1c-0.5-0.8-1.1-1.7-1.9-2c-1.2-0.5-2.4-0.2-3.7,0.1c-2.5,0.6-5.3,1.5-6.7,3.7
		c-0.6,0.9-0.8,1.9-0.8,3c-0.1,1.7,0.2,3.3,0.8,4.9c0.3,0.8,0.7,1.6,1.2,2.2C87.1,288.1,87.2,288.1,87.2,288z"/>
	<path fill="#1B2A54" d="M87.8,308.6c-2.7-0.4-5.3-2.6-5.3-5.3l0,0l0,0c0-0.2,0-0.3,0-0.5c-0.1,0-0.2,0-0.3,0
		c-0.9,0.1-1.1,0.3-1.1,0.3c-0.2,0.2-0.5,0.4-0.8,0.5c-0.8,1.4-1.4,2.5-1.7,3.8c-0.7,2.9,0.2,6.4,2.4,8.6c2.2,2.1,5.5,3.1,8.6,2.3
		c1.9-0.5,3.6-1.6,4.6-3.1c1-1.5,1.3-3.4,0.8-5c-0.2-0.6-0.6-1.3-1.2-2c-0.1-0.1-0.2-0.3-0.3-0.4C91.6,308.5,89.7,308.9,87.8,308.6z
		"/>
	<path fill="#FFFFFF" d="M68.2,186.7c5,18.2,14.8,43.5,19.7,55.9c1,0.6,1.8,1.2,2.8,1.8C81.6,225.7,74.2,206.3,68.2,186.7
		L68.2,186.7z"/>
	<path fill="#1B2A54" d="M82.4,303.1c0.1,2.7,2.6,5,5.3,5.3c1.9,0.3,3.9-0.1,5.6-0.8c-0.1-0.1-0.1-0.2-0.2-0.3
		c-2.6-3-6.4-4.8-10.1-4.8c-0.2,0-0.5,0-0.7,0C82.4,302.9,82.3,303.1,82.4,303.1L82.4,303.1z"/>
	<path fill="#446EB7" d="M71.8,374.3c-0.6,0.4-1.3,0.6-1.8,0.6c-0.4,0-0.7-0.1-1.1-0.2c-0.3,0.8-0.5,1.7-0.8,2.4l0,0l0,0
		c-0.1-1-0.1-1.9-0.2-2.9l0,0c-0.9-0.6-1.4-1.7-1.5-2.7c0-1.1,0.4-2,1.2-2.7c-0.4-6.7-0.8-13.3-1.3-20c-0.1,0-0.1,0-0.2,0l0,0l0,0
		h-0.1c-6.3-0.2-11.9-1.1-16.8-2.6c-1.8-0.6-3.6-1.2-5.3-1.9c-1.2-0.5-2.2-1.1-3.4-1.7c-12.3-6.7-21-20-22.2-34
		c-1.2-13.6,4.6-27.4,15.1-36.3c-0.8-10.5-0.4-20.2,1.2-29.6c0.2-1.4,1.5-2.2,2.8-2s2.2,1.5,2,2.8c-1.5,9.1-1.8,18.6-1.1,28.9
		c0.2,0.5,0.2,0.9,0.1,1.4c0.9,10.5,2.9,20.8,5,31.8c1.2,5.9,2.3,12.2,3.3,18.5c1,6.2,1.8,11.8,2.3,16.9c0.1,0,0.1,0,0.2,0.1v-0.8
		c-2-37.3-2-37.3-5-74.7l-0.3-3.3c-0.1-0.7,0.2-1.4,0.7-1.8c0.5-0.5,1.1-0.8,1.8-0.8l0,0c0,0,4.2,0,10.8,0c-0.1-1.1-0.2-2-0.3-3.1
		l-0.4-4.5c-0.1-0.7,0.2-1.4,0.7-1.8s1.1-0.8,1.8-0.8c2,0,4.1,0,6.1,0l24.2-0.1c-0.5-0.3-0.9-0.6-1.4-0.9c-2.6-1.7-5.3-3.3-7.9-4.8
		c-11.7-6.8-24-12.4-36.9-16.7c-0.1,0-0.1,0-0.1-0.1h-0.1c0,0-0.1,0-0.1-0.1c-0.1,0-0.2-0.1-0.2-0.1c-0.1,0-0.1-0.1-0.2-0.1
		c-0.1-0.1-0.1-0.1-0.2-0.2c-0.1-0.1-0.1-0.1-0.2-0.2c-0.1-0.1-0.1-0.1-0.1-0.2c0-0.1-0.1-0.1-0.1-0.2c0-0.1-0.1-0.1-0.1-0.2
		c0-0.1-0.1-0.1-0.1-0.2c0-0.1,0-0.2-0.1-0.2c0-0.1,0-0.2,0-0.2c0-0.1,0-0.2,0-0.2c0-0.1,0-0.2,0-0.2c0-0.1,0-0.2,0-0.2
		c0-0.1,0-0.2,0.1-0.3V224c0,0,0-0.1,0.1-0.1v-0.1c5.1-10.7,10.7-21.3,16.9-31.7c-16.7,8.6-36.7,20.2-52.9,36.8
		c-17.8,17.8-28.6,39.6-30.2,60.9c-2,26.2,10.5,53.9,31.9,70.6c11.3,8.8,25.1,14.8,39.9,17.4c2.4,0.4,4.9,0.8,7.3,1
		c6.2,0.6,12.5,0.6,18.7-0.1c0,0,0,0,0.1,0c-0.2-1.9-0.3-3.9-0.4-5.7C72.9,373.3,72.4,373.9,71.8,374.3z M51.5,372.2
		c-0.5,1-1.5,1.6-2.5,1.6c-0.1,0-0.1,0-0.2,0c-0.9,0-1.8-0.5-2.1-1.3c-0.3-0.6-0.5-1.3-0.5-1.8c-0.1-0.7,0-1.4,0.4-1.9
		c0.1-0.1,0.2-0.2,0.3-0.4c0.3-0.5,0.7-0.9,1.2-1.1c0.8-0.5,1.8-0.5,2.4,0c0.8,0.5,1.3,1.3,1.2,2.1c0,0.2,0,0.4,0,0.6
		C52,370.6,51.9,371.5,51.5,372.2z M63,371.9L63,371.9c-0.1,1.4-1.2,2.3-2.4,2.3h-0.1l-1.1-0.1c-0.7,0-1.3-0.3-1.7-0.8
		c-0.4-0.5-0.7-1.2-0.6-1.8l0.1-0.9c0-0.1,0-0.2,0-0.2c0.1-0.8,0.5-1.6,1.1-2c1.1-0.9,2.5-0.7,3.4,0.4c0.1,0.1,0.2,0.2,0.2,0.4
		l0.1,0.1C62.7,369.9,63.1,370.9,63,371.9z"/>
	<path fill="#F4D47B" d="M60.1,707.2c1.9,15.2,4,30.8,5.2,46.4c5,0.5,10.9,0.7,15.5,0.4c0.3-0.1,0.7-0.2,1-0.2
		c5.8-34.1,6.8-69.5,7.7-103.7c0.1-2.6,0.1-5.3,0.2-7.9l-35.6,0.3C54.4,664.2,57.2,686,60.1,707.2z"/>
	<path fill="#FFFFFF" d="M58.6,80.1c-0.2,0-0.5,0-0.7,0.1c-0.8,4.4-1.2,8.8-1.3,13.2c0,0.1,0,0.2,0,0.2c5.2-0.1,10.4-0.1,15.5-0.1
		c5.2,0,10.4,0,15.6-0.1c0.5-2.3,0.7-4.8,0.8-7.1s0-4.6-0.3-6.8C78.2,79,68.3,79.2,58.6,80.1z M75,88.5h-6.7c-1.4,0-2.4-1.1-2.4-2.4
		s1.1-2.4,2.4-2.4H75c1.4,0,2.4,1.1,2.4,2.4S76.4,88.5,75,88.5z"/>
	<path fill="#1B2A54" d="M90.3,291.8c-0.1,0.1-0.2,0.1-0.3,0.2c-2,1.4-4,3.3-5.9,5.8c0.1,0,0.2,0,0.2,0c0.5-0.8,1.1-1.5,1.7-2.1
		c1.4-1.4,2.9-2.5,4.6-3.6l0,0l0,0l0,0l0,0C90.4,292.1,90.4,292,90.3,291.8z"/>
	<path fill="#1B2A54" d="M63.8,758.3c-7.4,5.1-13.8,11.4-18.9,18.8c-1.7,2.3-3.4,5.2-4.1,8.3c-0.6,2.9,0,5.7,1.6,7.5
		c1.5,1.7,4.2,2.6,7.1,2.5c4.6-0.2,8.5-2.5,11-4.4c3.4-2.6,6.2-6.1,8.8-9.4l0.3-0.3c2.2-2.9,4.8-6.2,8.6-7.9
		c0.5-0.2,1.1-0.4,1.6-0.6c0.8-0.3,1.6-0.5,2-0.9c1.2-1,1.5-3,1.7-5.2c0.2-1.9,0.3-3.8-0.2-5.3c-0.3-1.2-1-2.1-1.8-2.5
		c-1.8,0.1-3.7,0.2-5.8,0.2C71.6,759,67.4,758.8,63.8,758.3z M54.4,790.3c-1.8,1.6-4.5,2-6.7,1.3c-0.8-0.3-1.6-0.8-2-1.5
		c-0.4-0.6-0.5-1.3-0.5-1.9c0-0.4,0.1-0.9,0.2-1.3c0.7-2.1,2.3-4.3,4.1-5.6c0.5-0.4,1.2-0.8,1.8-1c1.5-0.5,3.2-0.4,4.3,0.8
		c0.9,1,1.3,2.2,1.3,3.5C56.9,786.8,55.9,789,54.4,790.3z"/>
	<path fill="#446EB7" d="M71.7,348.8c-0.8,0-1.5,0-2.2,0c-1.1,0-2,0-3.1-0.1c0.4,6.7,0.9,13.3,1.3,20l0.1-0.1
		c0.1-0.1,0.2-0.2,0.3-0.2c0.1-0.1,0.2-0.1,0.3-0.2c0.3-0.2,0.7-0.2,1-0.3c0.7-0.2,1.4-0.2,1.9,0.2c0.2,0.1,0.5,0.3,0.7,0.5
		c0.9,0.6,1.5,1.7,1.5,2.7c0,0.5-0.1,1-0.3,1.5c0.1,1.9,0.3,3.9,0.4,5.7c3.2-0.3,6.3-0.9,9.5-1.6l-1-28.8
		C78.1,348.6,74.8,348.8,71.7,348.8z"/>
	<path fill="#446EB7" d="M68.5,374.6c-0.2-0.1-0.4-0.2-0.6-0.3c0.1,1,0.1,1.9,0.2,2.9l0,0c0.3-0.8,0.5-1.7,0.8-2.4
		C68.7,374.6,68.6,374.6,68.5,374.6z"/>
	<path fill="#B2E7DC" d="M68.2,186.7l-1.4,2l0,0l0,0l0,0c-1.8,3.4-3,5.7-3,5.7s3.7,13.6,7.2,23c2.5,7,6,14.7,8.7,20.1
		c1.1,0.6,2,1.2,3,1.8c1.8,1,3.5,2,5.2,3.1C83,230.1,73.2,204.8,68.2,186.7L68.2,186.7z"/>
	<path fill="#FFFFFF" d="M71,217.5c-3.4-9.4-7.2-23-7.2-23l0,0c0,0,1.2-2.3,3-5.7l0,0l-0.2-0.2l-0.4,0.6
		c-6.9,11.1-13.1,22.5-18.7,34c11.1,3.9,21.9,8.8,32.1,14.5C77.1,232.2,73.6,224.5,71,217.5z"/>
	<path fill="#1B2A54" d="M68.5,343.9c1,0,2,0,3,0c-1.2-26.4-1.7-53.2-4.9-79.4c-0.1,0-0.2,0-0.3,0c-1.4,0-2.6,0-3.9,0
		c1.3,16.3,2.6,33.3,3.9,49.8C67.3,324.4,67.9,334.4,68.5,343.9z"/>
	<path fill="#FFFFFF" d="M66.9,188.7l1.4-2l0,0h0.1l0,0c0-0.1-0.1-0.3-0.1-0.4C67.7,187.1,67.3,187.8,66.9,188.7L66.9,188.7
		L66.9,188.7L66.9,188.7z"/>
	<path fill="#FFFFFF" d="M66.1,259.6c-0.3-1.8-0.5-3.6-0.8-5.3h-0.1c-1.2,0-2.3,0-3.5,0l0.4,5.3C63.5,259.7,64.8,259.7,66.1,259.6z"
		/>
	<path fill="#1B2A54" d="M61.6,314.6c-1.3-16.7-2.6-33.7-3.9-50.2c-3.7,0-6.6,0-8.6,0l0.1,0.7c2.9,37.3,2.9,37.3,5,74.8l0.1,2.4
		c2.9,0.7,5.9,1.1,9.3,1.3C63.1,334.4,62.4,324.6,61.6,314.6z"/>
	<path fill="#FFFFFF" d="M57.9,80.2c-0.7,0.1-1.5,0.1-2.1,0.2c0,0.6-0.1,1.3-0.1,1.8c-0.2,2.6-0.3,4.8-0.2,8.8v0.3
		c0,0.7,0,1.5,0.1,2.2h0.9h0.1c0-0.1,0-0.2,0-0.2C56.8,89,57.1,84.6,57.9,80.2z"/>
	<path fill="#B0D8DB" d="M55.6,781.2c-1.2-1.3-2.8-1.4-4.3-0.8c-0.7,0.2-1.3,0.6-1.8,1c-1.8,1.4-3.4,3.4-4.1,5.6
		c-0.1,0.4-0.2,0.8-0.2,1.3c0,0.7,0.1,1.4,0.5,1.9c0.5,0.7,1.3,1.2,2,1.5c2.2,0.8,4.9,0.3,6.7-1.3c1.6-1.3,2.5-3.5,2.5-5.6
		C56.9,783.4,56.6,782.2,55.6,781.2z"/>
	<path fill="#1B2A54" d="M99.1,164.2C99.1,164.2,99.2,164.2,99.1,164.2c0.1,0,0.2,0,0.4,0h-0.1C99.3,164.2,99.2,164.2,99.1,164.2z"
		/>
	<path fill="#1B2A54" d="M99.2,169.1L99.2,169.1C99.1,169.1,99.1,169.1,99.2,169.1c-0.1,0-0.2,0-0.3,0c-1.4,0-2.4-1.1-2.4-2.4
		c0-1.3,1-2.3,2.3-2.4c-6.5,0.2-13.2-2.4-19.1-7.3c-1.2-1-2.2-1.9-3.2-3.1c-5.3-5.7-9.3-13.4-12.4-23.6c-3.1-10.3-4.8-20.9-5-31.7
		c-0.8,0-1.7,0-2.4,0l-2,0.1c0,0,0,0-0.1,0s-0.2,0-0.3,0c0.2,11.2,1.9,22.4,5.2,33.1c3.3,10.9,7.8,19.3,13.5,25.5
		c0.9,1,1.8,1.8,2.8,2.7c0-0.3,0-0.5-0.1-0.8c-0.1-1.4,0.9-2.5,2.2-2.6s2.5,0.9,2.6,2.2c0.2,1.7,0.2,3.4,0.3,5.1
		c5.4,3.5,11.5,5.3,17.3,5.3C98.5,169.1,98.9,169.1,99.2,169.1z"/>
	<path fill="#1B2A54" d="M56.9,75.1c1.8-1.7,3.7-3,5.7-4.4c1.6-4.9,3.6-9.3,6.2-13.2C76.1,46.5,87.7,39.7,99,39.7h0.1h0.1
		c-1.3-0.1-2.3-1.1-2.3-2.4s1.1-2.3,2.3-2.4h-0.1H99c-13,0-26.2,7.7-34.2,20.1c-3.9,5.8-6.7,12.8-8.5,20.6c0.1,0,0.2,0,0.3,0
		C56.8,75.3,56.8,75.2,56.9,75.1z"/>
	<path fill="#1B2A54" d="M151.8,250.7c0.1-1.1-0.5-2-1.4-2.4c-1-0.4-2-0.2-2.7,0.5l-0.2,0.2c-13.9,0.1-27.8,0.1-41.7,0.2
		c-1.6,1.1-3.1,2-4.6,3.1l-0.7-0.9c0,0,0,0-0.1,0l0.7,1l-0.2,0.1c-0.4,0.3-0.9,0.4-1.4,0.4c-0.8,0-1.6-0.4-2-1.1l0,0l0,0
		c-0.5,0.7-1.2,1-1.9,1c-0.5,0-1-0.2-1.5-0.5l-0.1-0.1c0,0-0.1,0-0.1-0.1c-1.5-1-2.9-2-4.4-3l-24.2,0.1c-2,0-4.1,0-6.1,0
		c-0.7,0-1.4,0.3-1.8,0.8c-0.5,0.5-0.7,1.2-0.7,1.8l0.4,4.5c0.1,1.1,0.2,2,0.3,3.1c0.9,0,1.8,0,2.6,0c0.7,0,1.5,0,2.2,0L62,254
		c1.2,0,2.3,0,3.5,0h0.1l0,0l30.1-0.1c1.4,0,2.7,0,4,0c15.8-0.1,31.4-0.1,47.2-0.2c-2.8,29.9-4.5,50.9-4.3,78.1
		c0.7-0.4,1.5-0.7,2.2-0.9c1-0.2,1.8-0.2,2.6,0.1C147.1,303.5,148.9,282.2,151.8,250.7z"/>
	<path fill="#1B2A54" d="M66.3,348.8L66.3,348.8L66.3,348.8z"/>
	<path fill="#1B2A54" d="M63.7,343.8c0.9,0.1,1.8,0.1,2.7,0.1c0.7,0,1.5,0,2.2,0c-0.7-9.5-1.4-19.4-2-29.7
		c-1.3-16.6-2.5-33.4-3.9-49.8c-0.9,0-1.8,0-2.6,0c-0.8,0-1.6,0-2.2,0c1.3,16.4,2.6,33.4,3.9,50.2C62.4,324.6,63.1,334.4,63.7,343.8
		z"/>
	<path fill="#FFFFFF" d="M135.7,321c0.1,1,0.1,1.9-0.1,3.3c-0.1,4.3-0.2,8.6-0.2,12.9c0.1,0.2,0.1,0.4,0.2,0.5
		c0.1,0.2,0.2,0.3,0.3,0.5c0.1,0.2,0.3,0.4,0.5,0.6c0-6.6,0-15.1,0.2-23.5c0.4-17.7,1.6-35.6,3.4-53.1l-2.3-0.3v0.1
		C137.6,262.4,136.4,290,135.7,321z"/>
	<path fill="#1B2A54" d="M130.7,323.9c0.1-0.9,0.2-1.5,0.1-1.8l-0.1,0.1c0,0.6,0,1.2,0,1.8C130.7,323.9,130.7,323.9,130.7,323.9z"/>
	<path fill="#1B2A54" d="M46.5,259.6c-0.7,0-1.4,0.3-1.8,0.8c-0.5,0.5-0.7,1.2-0.7,1.8l0.3,3.3c2.9,37.3,2.9,37.3,5,74.7v0.8
		c0.5,0.2,0.9,0.3,1.4,0.5c1.2,0.4,2.3,0.7,3.6,1l-0.1-2.4c-2-37.4-2-37.4-5-74.8l-0.1-0.7c1.9,0,4.9,0,8.6,0c0.7,0,1.5,0,2.2,0
		c0.9,0,1.8,0,2.6,0c1.3,0,2.5,0,3.9,0c0.1,0,0.2,0,0.3,0l0,0c19.2,0,47.3,0,65.9,0c-0.3,7.2-1.2,28.5-1.8,52.5h0.1
		c2.4,0,4.1,1.4,4.6,3.7c0,0.1,0,0.3,0.1,0.4c0.7-31,1.9-58.6,1.9-58.9v-0.1c0-0.6-0.2-1.3-0.7-1.7c-0.5-0.5-1.1-0.8-1.8-0.8l0,0
		c-18.8,0.1-48.7,0.1-68.7,0c-0.1,0-0.2,0-0.3,0l0,0c-1.4,0-2.6,0-3.9,0c-0.8,0-1.6,0-2.2,0c-0.9,0-1.8,0-2.6,0
		C50.7,259.6,46.5,259.6,46.5,259.6L46.5,259.6z"/>
	<path fill="#1B2A54" d="M135.6,324.5c-0.1,1-0.3,1.9-0.5,2.9c-0.3,1.7-0.7,3.4-0.6,4.6c0.1,1.7,0.3,3.4,0.8,4.9
		c0,0.1,0.1,0.2,0.2,0.4c0.1-4.4,0.1-8.7,0.2-12.9C135.6,324.4,135.6,324.4,135.6,324.5z"/>
	<path fill="#1B2A54" d="M130.9,384.7c-4.6,0.5-15,1.6-21.1,1.7c-6.7,0.1-13.6-0.1-20.2-0.4l-32.1-1.1l-0.2-1.3c-1-0.1-2-0.1-3-0.2
		c-0.7-0.1-1.4-0.2-1.9-0.2l0.8,4.5c0.2,1.2,1.2,1.9,2.3,2l34,1.2c5.5,0.2,11.4,0.4,17,0.4c1.2,0,2.2,0,3.4,0
		c8.2-0.1,23.1-1.9,23.8-1.9c1.3-0.2,2.2-1.3,2.1-2.5c-0.1-1.9-0.2-6.8-0.3-10.8c0-1.4,0-2.6-0.1-3.6c-0.7,0.2-1.3,0.4-1.9,0.5
		c-0.2,0.1-0.4,0.1-0.7,0.2c-0.8,0.2-1.5,0.4-2.2,0.5c0,0.8,0,1.7,0,2.5C130.8,379,130.9,382.3,130.9,384.7z"/>
	<path fill="#FFFFFF" d="M97.7,305.3C97.7,305.3,97.7,305.2,97.7,305.3c-0.3-0.4-0.5-0.7-0.8-1c-3.3-3.8-8-6.1-12.6-6.4
		c-0.1,0-0.2,0-0.2,0c1.9-2.5,3.9-4.5,5.9-5.8c0.1-0.1,0.2-0.1,0.3-0.2c1.1-0.7,2.1-1.3,3.3-1.7l0,0c0.2-0.1,0.3-0.1,0.5-0.2
		c0.7-0.2,1.2-0.7,1.5-1.3l0,0c0.3-0.6,0.3-1.2,0.1-1.8c-0.4-1.3-1.8-1.9-3.1-1.6c-1.8,0.6-3.6,1.5-5.2,2.6c-0.1,0-0.1,0.1-0.2,0.2
		l0,0c-3.6,2.5-6.9,6.3-10.1,11.6l-0.1,0.1l0.4,0.3v0.1l-0.5-0.2c-1.2,1.8-2.2,3.9-2.8,6.2c-1.2,4.7,0.3,9.8,3.7,13.1
		c2.6,2.5,6.2,4,9.9,4c1.1,0,2.2-0.1,3.3-0.4c3.1-0.8,5.7-2.6,7.4-5.1c1.8-2.7,2.3-6.2,1.4-9.1C99.1,307.5,98.6,306.5,97.7,305.3z
		 M93.7,308.1c0.6,0.8,1,1.5,1.2,2c0.5,1.6,0.2,3.5-0.8,5s-2.6,2.6-4.6,3.1c-3,0.8-6.3-0.2-8.6-2.3c-2.1-2.1-3.1-5.5-2.4-8.6
		c0.3-1.3,0.9-2.4,1.7-3.8c0.3-0.1,0.6-0.3,0.8-0.5c0,0,0.3-0.2,1.1-0.3c0.1,0,0.2,0,0.3,0c0.2,0,0.4,0,0.7,0
		c3.7,0,7.5,1.8,10.1,4.8c0.1,0.1,0.1,0.2,0.2,0.3l0,0C93.5,307.9,93.6,308,93.7,308.1z"/>
	<path fill="#FFFFFF" d="M123.5,299.5H123c-2,0-4-0.1-6-0.1l-0.1,2.4c0,0.8,0,1.6-0.1,2.4c2,0,4.1,0.1,6,0.1h0.6l0,0
		c1.4,0,2.4-1.1,2.4-2.4C126,300.6,124.9,299.5,123.5,299.5z"/>
	<path fill="#FFFFFF" d="M112.2,299.3c-2,0-4-0.1-6-0.1c-1.4,0-2.4,1.1-2.4,2.4c0,1.4,1.1,2.4,2.4,2.4c1.9,0,4,0.1,5.9,0.1
		c0-0.8,0.1-1.7,0.1-2.4L112.2,299.3z"/>
	<path fill="#FFFFFF" d="M117,299.4l0.2-5.8c0-1.4-1-2.4-2.3-2.5c-1.4,0-2.4,1-2.5,2.3l-0.2,5.9l-0.1,2.4c0,0.8,0,1.7-0.1,2.4
		c-0.1,1.8-0.1,3.6-0.2,5.3c0,1.4,1,2.4,2.3,2.5h0.1c1.3,0,2.4-1.1,2.4-2.3c0.1-1.8,0.1-3.6,0.2-5.4c0-0.8,0-1.6,0.1-2.4L117,299.4z
		"/>
	<path fill="#1B2A54" d="M124.9,157.6c-0.1,0.1-0.3,0.2-0.4,0.3c-0.4,0.2-0.8,0.3-1.1,0.3c-0.9,0-1.8-0.5-2.1-1.4
		c-0.5-1-0.3-2.1,0.5-2.8l0,0c0,0,0,0-0.1,0.1c-0.9,1-1.8,1.8-2.8,2.6l0,0c-1.5,1.2-2.9,2.3-4.5,3.2c-2.2,1.4-4.5,2.3-6.8,3.1
		c-0.1,0-0.2,0-0.2,0.1c-0.1,0-0.1,0-0.2,0c-2.5,0.8-5.2,1.1-7.7,1.1c-0.1,0-0.2,0-0.3,0l0,0c-0.1,0-0.2,0-0.2,0c-0.1,0-0.1,0-0.2,0
		c-1.3,0.1-2.3,1.2-2.3,2.4c0,1.4,1.1,2.4,2.4,2.4c0.1,0,0.2,0,0.2,0h0.1c0.3,0,0.7,0,1,0c2.7,0,5.5-0.4,8.4-1.3
		c0.1,0,0.1,0,0.2-0.1l0,0c0.1,0,0.3-0.1,0.4-0.1c2.1-0.7,4.3-1.7,6.4-2.7c0-0.5,0.1-1.1,0.1-1.6c0-0.5,0.1-1.1,0.2-1.7
		c0.2-1.4,1.4-2.2,2.7-2c1.1,0.1,1.8,1,2,1.9c1.7-1.3,3.1-2.6,4.6-4.2C125.1,157.5,125,157.6,124.9,157.6z"/>
	<path fill="#1B2A54" d="M132,145.4c-0.4,0-0.8-0.1-1.2-0.3c-1-0.6-1.5-1.7-1.2-2.7v-0.1v-0.1c0-0.1,0.1-0.2,0.1-0.2
		c-2.2,4.6-4.9,8.6-7.9,11.8l-0.1,0.1l-0.1,0.1l0,0c0.1-0.1,0.1-0.1,0.2-0.2c0.1-0.1,0.3-0.2,0.5-0.3c1.2-0.6,2.6-0.1,3.2,1.2
		c0.5,0.9,0.3,1.9-0.4,2.6l0,0c0.1-0.1,0.1-0.1,0.1-0.1c3.3-3.6,6.2-7.9,8.7-12.9C133.7,145.1,132.9,145.4,132,145.4z"/>
	<path fill="#1B2A54" d="M134.1,144.1L134.1,144.1C134.1,144.2,134.1,144.2,134.1,144.1L134.1,144.1L134.1,144.1L134.1,144.1z"/>
	<path fill="#1B2A54" d="M143.2,98.6L143.2,98.6C143.1,98.6,143.1,98.6,143.2,98.6c-0.5,0-1,0-1.4,0c-0.8,0-1.6,0-2.4-0.1
		c-0.1,7.6-1,15.2-2.6,22.7c-0.7,3-1.5,6-2.3,9c-1.4,4.4-2.8,8.3-4.6,11.8c0,0,0,0,0,0.1c0.4-0.9,1.3-1.5,2.2-1.5
		c1.4,0,2.4,1.1,2.4,2.4c0,0.4-0.1,0.8-0.3,1.1l0,0l0,0c1.8-3.7,3.4-7.8,4.8-12.4c1-3.1,1.8-6.3,2.4-9.4c1.7-7.8,2.6-15.8,2.7-23.7
		c-0.1,0-0.1,0-0.2,0C143.7,98.6,143.5,98.6,143.2,98.6z"/>
	<path fill="#1B2A54" d="M129.7,142.3L129.7,142.3L129.7,142.3z"/>
	<path fill="#1B2A54" d="M117.7,39.9c0.2,0,0.4,0.1,0.6,0.2c-0.4-0.2-0.8-0.5-1.1-0.7l0,0C117.3,39.7,117.5,39.7,117.7,39.9z"/>
	<path fill="#1B2A54" d="M119,43.8c-0.6,0.8-0.9,1.4-0.8,1.9c1.3,0.9,2.6,1.8,3.8,2.9c2.9,2.5,5.4,5.4,7.6,8.8
		c0.7,1.1,1.4,2.1,1.9,3.3c1.9,1.5,3.9,3,5.5,4.9c2,2.2,3.5,4.3,4.2,6.7c0.3,1.1,0.4,2,0.4,3.1c0.1,0,0.3,0,0.4,0l0,0
		c-0.2-1.1-0.5-2.1-0.8-3.1c-0.4-1.4-0.8-2.7-1.2-4c-1.7-5-3.8-9.5-6.5-13.6c-2.3-3.5-5.1-6.7-8.2-9.5c-0.1-0.1-0.2-0.2-0.3-0.2
		c-2.1-1.8-4.5-3.6-6.8-5c0,0-0.1,0-0.1-0.1c0.1,0.1,0.3,0.2,0.4,0.3C119.8,41.3,119.9,42.9,119,43.8z"/>
	<path fill="#1B2A54" d="M96.8,37.2c0,1.3,1.1,2.3,2.3,2.4h0.1h0.1c4.6,0,9.2,1.1,13.7,3.2c0.2-0.6,0.4-1.2,0.6-1.9
		c0.4-1.3,1.8-2,3-1.7c0.2,0,0.3,0.1,0.5,0.2c-5.6-3.1-11.8-4.8-17.8-4.8h-0.1h-0.1C97.9,34.8,96.8,35.9,96.8,37.2z"/>
	<path fill="#1B2A54" d="M72,98.5c5.3,0,11,0,16.4-0.1l-0.7-3.8c-0.2-1.4,0.7-2.6,1.9-2.8c1.3-0.2,2.4,0.6,2.7,1.8
		c0.3-1.5,0.5-3,0.6-4.6h-1.5c-1.4,0-2.4-1.1-2.4-2.4s1.1-2.4,2.4-2.4l0,0h1.6c-0.1-2.4-0.3-4.9-0.7-7.2c-0.2-1.2-1.2-1.9-2.3-2
		h-0.7c-8-0.6-16.1-0.6-24.1-0.1c-1.8,1.2-3.6,2.5-5.3,4c-0.5,0.4-1.1,0.6-1.7,0.6c-0.7,0-1.4-0.3-1.8-0.8c-0.8-0.9-0.8-2.1-0.1-3.1
		c-0.1,0-0.2,0-0.3,0c-1,0.1-1.8,0.2-2.8,0.3c-0.3,0-0.6,0.1-0.9,0.3l-0.4,0.2c-0.7,0.4-1.2,1.2-1.3,2c-0.1,1.4-0.1,2.5-0.2,3.6
		c-0.2,2.7-0.4,5-0.2,9.3v0.3c0,1.4,0.1,3.5,0.7,5.3c0.4,1.1,1.4,1.7,2.4,1.7c0.2,0.1,0.3,0.1,0.5,0.1c0.1,0,0.2,0,0.3,0
		c0,0,0,0,0.1,0l2-0.1c0.8,0,1.7,0,2.4,0C63.4,98.4,67.7,98.5,72,98.5z M88.4,86.4c-0.1,2.3-0.3,4.7-0.8,7.1
		c-5.2,0.1-10.4,0.1-15.6,0.1c-5.1,0-10.3,0-15.5,0.1l0,0h-0.1h-0.9c-0.1-0.8-0.1-1.7-0.1-2.2v-0.3c-0.1-4.2,0-6.2,0.2-8.8
		c0-0.6,0.1-1.2,0.1-1.8c0.7-0.1,1.5-0.2,2.1-0.2l0,0c0.2,0,0.5,0,0.7-0.1c9.8-1,19.7-1.1,29.6-0.5C88.4,81.9,88.4,84.2,88.4,86.4z"
		/>
	<path fill="#1B2A54" d="M75,83.6h-6.7c-1.4,0-2.4,1.1-2.4,2.4s1.1,2.4,2.4,2.4H75c1.4,0,2.4-1.1,2.4-2.4S76.4,83.6,75,83.6z"/>
	<path fill="#1B2A54" d="M141.6,75.5c0,0.6-0.1,1.3-0.2,1.8c-0.2,1.2-1.3,1.9-2.3,1.9c-0.2,0-0.3,0-0.5,0c-1.4-0.3-2.1-1.6-1.9-2.8
		c0.1-0.5,0.1-1,0.1-1.4c-4.5-0.4-8.9-0.6-13.4-0.6c-0.5,0-1.1,0-1.6,0l0,0c-4.5,0-9.1,0.1-13.7,0.4h-0.7c-1.2,0-2.1,0.9-2.3,2
		c-0.4,2.4-0.7,4.9-0.7,7.3h1.5c1.4,0,2.4,1.1,2.4,2.4s-1.1,2.4-2.4,2.4l0,0h-1.3c0.1,1.7,0.4,3.3,0.7,4.9c0.5-0.8,1.4-1.3,2.2-1.2
		c1.4,0.1,2.3,1.4,2.2,2.6c-0.1,1-0.2,1.9-0.3,2.9c5.5,0.2,11.1,0.1,16.5,0.1c1.5,0,3,0,4.5,0c0.1,0,0.3,0,0.4,0
		c2.7,0,5.6,0,8.5,0.1c0.8,0,1.7,0,2.4,0.1c0.4,0,0.9,0,1.3,0h0.1l0,0c0.3,0,0.6-0.1,0.8-0.1c0.1,0,0.1,0,0.2,0c1,0,1.8-0.7,2.2-1.7
		c0.6-1.8,0.7-3.9,0.7-5.3v-0.3c0.1-4.4,0-6.6-0.2-9.2c-0.1-1.1-0.2-2.2-0.2-3.7c0-0.9-0.5-1.6-1.3-2l-0.4-0.2
		c-0.3-0.2-0.6-0.3-0.9-0.3c-0.7-0.1-1.5-0.2-2.1-0.2l0,0C141.9,75.5,141.8,75.5,141.6,75.5z M109.4,86.5c-0.1-2.2,0-4.6,0.3-6.8
		c4.7-0.3,9.2-0.4,13.7-0.3c0.5,0,1,0,1.4,0c5.1,0.1,10.1,0.4,15.1,0.9c0.2,0,0.5,0,0.7,0.1c0.4,0,0.7,0.1,1.1,0.1
		c0.1,0,0.3,0,0.4,0c0,0.7,0.1,1.3,0.1,1.8c0.2,2.5,0.3,4.7,0.2,8.8v0.3c0,0.7,0,1.5-0.1,2.2c-0.1,0-0.2,0-0.3,0h-0.1l0,0
		c-3.8-0.1-7.7-0.1-11.4-0.1c-0.2,0-0.3,0-0.5,0c-1.4,0-2.6,0-4,0c-5.3,0-10.6,0.1-15.8-0.1C109.6,91.3,109.4,88.9,109.4,86.5z"/>
	<path fill="#1B2A54" d="M131.8,86c0-1.4-1.1-2.4-2.4-2.4h-2.6h-4.2c-1.4,0-2.4,1.1-2.4,2.4s1.1,2.4,2.4,2.4h5.9h0.8
		C130.7,88.5,131.8,87.4,131.8,86z"/>
	<path fill="#1B2A54" d="M105.9,89L105.9,89c1.4,0,2.4-1.1,2.4-2.4s-1.1-2.4-2.4-2.4h-1.5l-11.2-0.1h-1.6l0,0
		c-1.4,0-2.4,1.1-2.4,2.4s1.1,2.4,2.4,2.4h1.5l11.5,0.1H105.9z"/>
	<path fill="#1B2A54" d="M95,116.8c0.6,0,1.1,0,1.7,0.1l-4-23c0-0.1,0-0.2-0.1-0.3c-0.3-1.2-1.5-1.9-2.7-1.8
		c-1.4,0.2-2.2,1.5-1.9,2.8l0.7,3.8l3.6,20.6c0.1,0.5,0.3,0.9,0.6,1.3c-0.2-0.4-0.3-0.8-0.3-1.2C92.5,117.7,93.6,116.7,95,116.8z"/>
	<path fill="#1B2A54" d="M105.2,120.2c-0.1,0-0.2,0-0.2,0c-1.4-0.1-2.3-1.3-2.2-2.6c0-0.3,0.1-0.7,0.1-1c-2,0.2-4.2,0.3-6.2,0.2
		c-0.6,0-1.1,0-1.7-0.1c-1.4-0.1-2.5,1-2.5,2.3c0,0.4,0.1,0.9,0.3,1.2c0.4,0.8,1.2,1.4,2,1.4c1.1,0.1,2,0.1,3.1,0.1
		c2.4,0,4.9-0.2,7.2-0.5c1.1-0.1,1.9-1,2-2C106.6,119.8,106,120.2,105.2,120.2z"/>
	<path fill="#1B2A54" d="M109.7,95.4c0.1-1.4-0.9-2.5-2.2-2.6c-1-0.1-1.8,0.4-2.2,1.2c-0.2,0.3-0.3,0.7-0.4,1.1
		c-0.7,7.2-1.4,14.4-2,21.6c0,0.3-0.1,0.7-0.1,1c-0.1,1.4,0.9,2.5,2.2,2.6c0.1,0,0.2,0,0.2,0c0.8,0,1.6-0.4,1.9-1
		c0.3-0.4,0.4-0.8,0.5-1.2c0.6-6.5,1.3-13.1,1.8-19.6C109.5,97.4,109.6,96.3,109.7,95.4z"/>
	<path fill="#1B2A54" d="M107.6,139.9c1.4,0,2.4-1.1,2.4-2.4c0-1.4-1.1-2.4-2.4-2.4l-16.8-0.1l0,0c-1.4,0-2.4,1.1-2.4,2.4
		c0,1.4,1.1,2.4,2.4,2.4L107.6,139.9C107.5,139.9,107.6,139.9,107.6,139.9z"/>
	<path fill="#1B2A54" d="M113.6,40.9c-0.2,0.7-0.4,1.4-0.6,1.9c-0.4,1.1-0.7,1.9-1.1,2.6c-0.1,0.2-0.2,0.5-0.3,0.7l0,0
		c-0.5,0.9-1.1,1.6-1.8,2.2l0,0c-0.6,0.5-1.3,1-2.1,1.5c-0.6,0.3-1.2,0.7-1.8,1.1c-0.7,0.4-1.5,0.9-2.3,1.4
		c-5.9,3.6-12.6,6-19.2,8.5c-1.4,0.5-2.8,1.1-4.2,1.6c-5.9,2.2-12.1,4.9-17.6,8.5c-2,1.3-3.9,2.7-5.7,4.4c-0.1,0.1-0.2,0.2-0.3,0.4
		c-0.7,0.9-0.7,2.2,0.1,3.1c0.5,0.5,1.2,0.8,1.8,0.8c0.6,0,1.2-0.2,1.7-0.6c1.7-1.5,3.4-2.7,5.3-4c2.1-1.4,4.4-2.6,6.7-3.7
		c-1.2-0.2-2-1.2-2.1-2.3c0-1.4,1.1-2.4,2.4-2.4l11.9-0.2c0.6-0.2,1.2-0.5,1.8-0.7c6.7-2.5,13.6-5.1,19.9-8.8c0.8-0.5,1.6-1,2.2-1.4
		c0.3-0.2,0.5-0.3,0.8-0.5c0.4-0.2,0.8-0.5,1.2-0.7c1.8-1.2,3.2-2.1,4.4-3.5c-0.4-0.8-0.7-1.6-0.9-2.4c-0.8-2.7-0.2-5.2,1.7-7.4
		c0.6-0.8,1.6-1,2.4-0.8c-0.2-0.2-0.4-0.3-0.6-0.4l0,0c-0.1-0.1-0.3-0.1-0.5-0.2C115.4,38.9,114,39.7,113.6,40.9z"/>
	<path fill="#1B2A54" d="M115.3,40.7c-1.8,2.2-2.4,4.7-1.7,7.4c0.2,0.8,0.6,1.6,0.9,2.4c0.3,0.7,0.7,1.5,1.1,2.1
		c2,4.1,5.7,7,8.9,9.3c0.6,0.4,1.2,0.8,1.8,1.2c1.5,1,2.8,1.9,4.1,3c0.5,0.2,0.8,0.5,1.1,0.9c0.7,0.6,1.4,1.3,1.9,1.9
		c1.6,1.8,2.7,3.3,3.2,4.9c0.1,0.4,0.2,0.9,0.2,1.3c0,0.5,0,0.9-0.1,1.4c-0.3,1.4,0.6,2.6,1.9,2.8c0.2,0,0.3,0,0.5,0
		c1.2,0,2.1-0.8,2.3-1.9c0.1-0.7,0.2-1.3,0.2-1.8c0-1.1-0.1-2.1-0.4-3.1c-0.7-2.4-2.2-4.5-4.2-6.7c-1.7-1.8-3.6-3.4-5.5-4.9
		c-0.8-0.6-1.7-1.2-2.4-1.8c-0.6-0.4-1.1-0.8-1.7-1.2l0,0c-2.6-1.8-5.3-4-7-6.7c-0.2-0.3-0.4-0.6-0.5-0.9c-0.7-1.4-1.4-2.5-1.7-3.6
		c-0.1-0.3-0.2-0.7-0.2-1c0-0.6,0.2-1.3,0.8-1.9c0.9-1.1,0.8-2.5-0.3-3.4c-0.1-0.1-0.3-0.2-0.4-0.3l0,0c-0.2-0.1-0.4-0.2-0.6-0.2
		C116.8,39.7,115.9,39.9,115.3,40.7z"/>
	<path fill="#1B2A54" d="M72.5,71.1L88,70.8c1.4,0,2.4-1.2,2.4-2.4c0-1.4-1.2-2.4-2.4-2.4L84.5,66l-11.9,0.2c-1.4,0-2.4,1.2-2.4,2.4
		s1,2.2,2.1,2.3C72.2,71.1,72.3,71.1,72.5,71.1C72.4,71.1,72.4,71.1,72.5,71.1z"/>
	<path fill="#1B2A54" d="M122.5,66l-5.3,0.1c-0.7,0-1.4,0-2,0l0,0c-1.8,0-3.6,0.1-5.1,0.1c-1.4,0-2.4,1.2-2.3,2.4
		c0,1.4,1.1,2.3,2.4,2.3c0,0,0,0,0.1,0c1.9,0,4.4-0.1,7-0.1h1.9l0,0l3.4-0.1c2.5,0,5-0.1,6.9-0.1c1.4,0,2.4-1.2,2.4-2.4
		c0-0.5-0.2-0.9-0.4-1.3c-0.3-0.4-0.7-0.7-1.1-0.9c-0.3-0.1-0.7-0.2-1-0.2C127.5,65.9,125.1,66,122.5,66z"/>
	<path fill="#1B2A54" d="M75.9,168c0-0.8,0-1.6,0-2.3c-5.9,0-12.3-0.1-18.8-0.1c-6.8,0-13.6-0.1-19.8-0.1
		C28.2,140.3,22,114,19.2,87.3c-1.8-16.6-2.9-34.2,5.6-51c0.3-0.7,0.7-1.3,1-1.9C34.4,18.8,48.6,7.9,65.9,3.2c18.6-5,38.8-2,55.4,8
		c0.2,0.1,0.4,0.2,0.7,0.3c-0.3-0.2-0.6-0.5-0.8-0.9c-0.6-1.2-0.1-2.6,1.1-3.2c0.4-0.2,0.8-0.4,1.1-0.5c-17.6-10.6-39-13.6-58.6-8.4
		C46.1,3.6,30.8,15.4,21.7,32.1c-0.4,0.7-0.8,1.4-1.1,2c-9.1,18-8.1,36.4-6.2,53.7c3,27.6,9.3,54.8,19,80.9c0.4,1,1.3,1.6,2.2,1.6
		c6.6,0,14.1,0.1,21.6,0.1c6.4,0,12.8,0.1,18.7,0.1C75.9,169.7,75.9,168.8,75.9,168z"/>
	<path fill="#1B2A54" d="M121.2,10.6c0.2,0.4,0.5,0.7,0.8,0.9c0.5,0.4,1.2,0.5,1.8,0.4c0.2,0,0.5-0.1,0.7-0.2
		c0.5-0.2,0.9-0.5,1.4-0.7c14.1-6.2,30.1-3.2,41,7.6c10.7,10.7,15.9,27.4,16.2,51c0.3,30.4-6.3,62.5-19.1,92.6
		c0,0.1-0.1,0.1-0.1,0.2l0,0c-0.5,1.2-1,2.2-1.5,3.4c0.6,0,1.1,0,1.7-0.1l0.3,2.4l-0.1-2.4c0.1,0,0.2,0,0.3,0c1.2,0,2.2,0.9,2.4,2
		c0.6-1.3,1.1-2.4,1.7-3.7c12.9-30.7,19.6-63.4,19.4-94.5c-0.2-24.9-6-42.7-17.6-54.4c-12.4-12.3-30.6-15.6-46.6-8.6
		c-0.2,0.1-0.3,0.2-0.5,0.2c-0.4,0.2-0.8,0.3-1.1,0.5C121.1,8,120.6,9.4,121.2,10.6z"/>
	<path fill="#1B2A54" d="M164.6,165.9c-0.1,0-0.2,0-0.3,0l0.1,2.4l-0.3-2.4c-0.6,0-1.1,0-1.7,0.1c-14.2,0.6-28.3,0.7-42.2,0.4
		c0,1.7,0.1,3.3,0.3,4.9c4.4,0.1,8.8,0.1,13.1,0.1c10.1,0,20.3-0.2,30.5-0.6c0.1,0,0.2,0,0.3,0c1.4,0,2.4-1.1,2.4-2.4
		c0-0.1,0-0.3,0-0.4C166.7,166.7,165.7,165.9,164.6,165.9z"/>
	<path fill="#1B2A54" d="M149.8,366.8c-1.1,0.6-2.1,1.1-3.2,1.6c0,16.8,2.7,31.2,8.4,43.8c0.9-0.2,1.8-0.5,2.7-0.7
		c1.3-0.3,2.6,0.5,2.9,1.8c0,0.1,0,0.2,0,0.4c0-0.4,0-0.9-0.2-1.4c-6.3-12.9-9.2-28.1-8.9-46.4c-0.4,0.3-0.9,0.5-1.3,0.7
		C150.1,366.6,150,366.7,149.8,366.8z"/>
	<path fill="#1B2A54" d="M147.2,362.7c0.2-0.1,0.3-0.2,0.5-0.2c0.1,0,0.2-0.1,0.2-0.1s0.1,0,0.1-0.1c0.4-0.2,0.7-0.4,1.1-0.6
		C148.2,361.7,147.7,362.1,147.2,362.7z"/>
	<path fill="#1B2A54" d="M158.7,292.8c-0.6-1.2-0.1-2.6,1.2-3.2c0.6-0.3,1.3-0.3,1.8-0.1c2.4-18.9,2.4-33.4,0.2-47.1
		c-0.2-1.4-1.5-2.2-2.8-2c-1.4,0.2-2.2,1.5-2,2.8c2.2,13.7,2.1,28.5-0.5,48c-1.1,8.2-2.5,16.4-3.9,24.4c-0.8,4.3-1.5,8.7-2.1,12.9
		l-0.1,0.5c-0.2,1.2-0.4,2.3-0.6,3.5c0.4,0.4,0.9,0.7,1.2,1.2c0.8,1,1.4,2.1,1.7,3.4c0.9-0.3,1.6-1,1.7-1.9c0.3-1.8,0.6-3.6,0.9-5.3
		l0.1-0.5c0.7-4.3,1.5-8.7,2.1-12.9c1.1-6.4,2.2-13,3.2-19.6C160,295.5,159.4,294.1,158.7,292.8z"/>
	<path fill="#1B2A54" d="M101,404.2c-0.3,1.8-0.7,3.6-1.1,5.4c1.1,2.2,2,4.8,3,7.1c1.8,4.2,3.5,8.6,5.5,12.2c0.5,0.8,1.3,1.2,2,1.2
		c-0.6-0.3-1.1-0.9-1.3-1.6c-0.3-1.3,0.5-2.6,1.8-2.9c0.3-0.1,0.7-0.2,1-0.3c-1.7-3.1-3.2-6.8-4.7-10.4c-1.8-4.2-3.5-8.6-5.5-12.2
		c-0.2-0.3-0.4-0.5-0.6-0.7c0,0.3-0.1,0.5-0.1,0.8C101.2,403.3,101.1,403.7,101,404.2z"/>
	<path fill="#1B2A54" d="M112.2,425.3c-0.3,0.1-0.7,0.2-1,0.3c-1.3,0.3-2.1,1.7-1.8,2.9c0.2,0.7,0.7,1.3,1.3,1.6
		c0.3,0.2,0.7,0.3,1.1,0.3c0.2,0,0.4,0,0.6-0.1c7.7-1.8,15.7-4.5,23.4-7.1c5.8-1.9,11.8-3.9,17.6-5.5c-0.3-0.7-0.5-1.4-0.8-1.9l0,0
		l0,0c-0.5-1.2-0.1-2.5,1.1-3.1h0.1c-6.4,1.8-13,3.9-19.4,6C126.9,420.9,119.4,423.4,112.2,425.3z"/>
	<path fill="#1B2A54" d="M157.7,411.4c-0.9,0.2-1.8,0.5-2.7,0.7c-0.2,0-0.3,0.1-0.5,0.1c0.9-0.1,1.8,0.4,2.2,1.3
		c0,0.1,0.1,0.2,0.1,0.3l0,0c0.4,0.9,0.7,1.8,1.1,2.6c0.3-0.1,0.6-0.1,0.8-0.2c1.2-0.3,1.9-1.4,1.8-2.5c0-0.1,0-0.2,0-0.4
		C160.3,411.9,159,411.1,157.7,411.4z"/>
	<path fill="#1B2A54" d="M125,178.8c1.2-0.7,2.6-0.4,3.3,0.8c0.1,0.1,0.2,0.3,0.3,0.4c0-1.1-0.7-2-1.8-2.3c-1.3-0.4-2.6,0.4-3,1.8
		c-0.1,0.2-0.1,0.5-0.2,0.8c0,0.2-0.1,0.4-0.2,0.5c0.2,0.4,0.4,0.8,0.6,1.2C123.6,180.7,124,179.5,125,178.8z"/>
	<path fill="#1B2A54" d="M114.5,208.2L114.5,208.2c-0.1,0.2-0.2,0.5-0.3,0.7c-4.9,13-10.5,25.9-16.6,38.2c0.2,0.4,0.4,0.8,0.6,1.1
		c0,0.1,0.1,0.2,0.1,0.3l0.2-0.2c1.8-1.3,3.9-2.6,5.9-4l0,0c5.3-11,10.2-22.4,14.5-33.8c0.4-1,0.7-1.8,1.1-2.8l0,0
		c1.9-5.3,3.8-10.9,5.5-16.4c0.6-1.8,1.1-3.4,1.6-5c-0.9-1.4-1.7-2.6-2.4-4c0.2,0.3,0.3,0.6,0.5,1c0.7,1.2,0.3,2.6-0.8,3.3
		c-0.4,0.2-0.9,0.4-1.3,0.4c-0.4,0-0.8-0.1-1.2-0.3c-0.3,1.1-0.6,2-1,3.1C118.8,196.2,116.6,202.3,114.5,208.2z"/>
	<path fill="#1B2A54" d="M100.4,251.5L100.4,251.5l-0.8-1.1L100.4,251.5z"/>
	<path fill="#1B2A54" d="M152.8,226c0,0.1-0.1,0.1-0.2,0.2C152.7,226.1,152.8,226,152.8,226z"/>
	<path fill="#1B2A54" d="M153.2,224.2c0,0.1,0,0.2,0,0.3C153.2,224.4,153.2,224.3,153.2,224.2z"/>
	<path fill="#1B2A54" d="M153.1,223.9C153.1,223.9,153.1,223.8,153.1,223.9c-0.1,0,0,0.1,0,0.2C153.2,224,153.1,223.9,153.1,223.9z"
		/>
	<path fill="#1B2A54" d="M153.1,225.7c0,0.1-0.1,0.2-0.1,0.2C153,225.8,153,225.7,153.1,225.7z"/>
	<path fill="#1B2A54" d="M152.5,226.3c-0.1,0.1-0.1,0.1-0.2,0.2C152.4,226.5,152.4,226.4,152.5,226.3z"/>
	<path fill="#1B2A54" d="M153.2,225.2c0,0.1,0,0.2-0.1,0.3C153.2,225.4,153.2,225.3,153.2,225.2z"/>
	<path fill="#1B2A54" d="M152.1,226.7c-0.1,0-0.2,0.1-0.2,0.1C152,226.7,152.1,226.7,152.1,226.7z"/>
	<path fill="#1B2A54" d="M153.3,224.7c0,0.1,0,0.2,0,0.3C153.2,224.9,153.3,224.8,153.3,224.7z"/>
	<path fill="#1B2A54" d="M148.6,225.7c-0.4-0.8-0.8-1.7-1.1-2.4c-11.1,3.9-21.9,8.8-32.1,14.5c-1.1,0.6-2,1.2-3,1.8
		c-1.8,1.1-3.5,2-5.2,3.1l0,0c-1,0.6-1.9,1.2-2.8,1.8l0,0c-2,1.3-4,2.6-5.9,4l-0.2,0.2c0.3,0.8,0.2,1.6-0.3,2.2
		c0,0.4-0.2,0.8-0.5,1.2l0,0c0.5,0.7,1.3,1.1,2,1.1c0.5,0,1-0.1,1.4-0.4l0.2-0.1l-0.7-1l-0.8-1.1l0.8,1l0.7,0.9c1.5-1.1,3-2,4.6-3.1
		c0.4-0.3,0.8-0.5,1.2-0.8c2.4-1.6,5.2-3.2,7.9-4.8c11.6-6.8,24-12.4,36.9-16.7c0,0,0.1,0,0.1-0.1c-0.3,0.1-0.6,0.2-0.9,0.2
		C149.9,227.1,149,226.5,148.6,225.7z"/>
	<path fill="#1B2A54" d="M125,178.8c-1.1,0.7-1.4,1.9-1,3c0.1,0.2,0.2,0.4,0.3,0.6c0.8,1.3,1.7,2.6,2.4,4c1.1,1.7,2,3.4,3.1,5.1
		c-0.1-0.3-0.2-0.5-0.2-0.8c0-1.5,1.3-2.6,2.8-2.4h0.1c0.4,0.1,0.8,0.2,1.1,0.2c-1.8-2.9-3.6-5.8-5.3-8.6c-0.1-0.1-0.2-0.3-0.3-0.4
		C127.6,178.4,126.2,178.1,125,178.8z"/>
	<path fill="#1B2A54" d="M148.6,225.7c0.4,0.9,1.3,1.5,2.2,1.5c0.3,0,0.6-0.1,0.9-0.2h0.1c0,0,0.1,0,0.1-0.1c0.1,0,0.2-0.1,0.2-0.1
		c0.1,0,0.1-0.1,0.2-0.1c0.1-0.1,0.1-0.1,0.2-0.2c0.1-0.1,0.1-0.1,0.2-0.2c0.1-0.1,0.1-0.1,0.2-0.2c0-0.1,0.1-0.1,0.1-0.2
		s0.1-0.2,0.1-0.2c0-0.1,0.1-0.1,0.1-0.2s0.1-0.2,0.1-0.3c0-0.1,0-0.1,0-0.2c0-0.1,0-0.2,0-0.3s0-0.1,0-0.2c0-0.1,0-0.2,0-0.3
		c0-0.1,0-0.2-0.1-0.2c0-0.1-0.1-0.2-0.1-0.3v-0.1c-4.9-10.7-10.6-20.9-15.7-29.3c-1.8-0.5-3.6-1-5.4-1.3c-0.6-0.1-1.1-0.4-1.5-0.8
		c5.2,8.5,11.6,19.3,17,30.9C147.9,224,148.2,224.9,148.6,225.7z"/>
	<path fill="#1B2A54" d="M37.9,409.8c0.7-1.2,2.1-1.6,3.3-0.9c0.1,0.1,0.2,0.1,0.3,0.2c3.7-7.9,6.2-16.7,7.6-26.3
		c-0.8-0.1-1.7-0.2-2.4-0.4c-0.8-0.1-1.6-0.3-2.3-0.5c-1.5,9.8-4.1,18.6-8,26.5c-0.6,1.2-0.1,2.6,1.1,3.2c0.1,0,0.2,0.1,0.3,0.1
		C37.5,411.3,37.5,410.5,37.9,409.8z"/>
	<path fill="#1B2A54" d="M37.8,275.1C37.8,275.1,37.7,275.2,37.8,275.1c-1.4,1.1-2.5,2.1-3.6,3.2c1.1,9.3,2.7,18.5,4.6,28.1
		c1.2,5.9,2.2,12.1,3.3,18.3c0.8,5.1,1.5,9.7,1.9,14c0.7,0.3,1.4,0.7,2,1c1,0.5,2,0.9,3.1,1.2c-0.6-5.2-1.4-10.7-2.3-16.9
		c-1.1-6.3-2.2-12.5-3.3-18.5c-2-10.9-4-21.2-5-31.8C38.5,274.4,38.2,274.9,37.8,275.1z"/>
	<path fill="#1B2A54" d="M34.7,271.5c1.1-0.8,2.6-0.7,3.4,0.4c0.2,0.2,0.3,0.4,0.4,0.7c-0.8-10.3-0.5-19.7,1.1-28.9
		c0.2-1.4-0.7-2.5-2-2.8c-1.4-0.2-2.5,0.7-2.8,2c-1.6,9.3-1.9,19.1-1.2,29.6C33.9,272,34.3,271.7,34.7,271.5
		C34.6,271.5,34.7,271.5,34.7,271.5z"/>
	<path fill="#1B2A54" d="M70.1,178.7c1.2,0.8,1.5,2.2,0.7,3.4l0,0c0.4-0.1,0.8-0.3,1.2-0.5c-0.2-0.6-0.3-1.1-0.5-1.7
		c-0.1-0.2-0.1-0.5-0.2-0.7c-0.4-1.3-1.7-2-3-1.8c-1.1,0.3-1.8,1.3-1.8,2.3c0.1-0.1,0.2-0.3,0.3-0.4C67.4,178.3,68.9,178,70.1,178.7
		z"/>
	<path fill="#1B2A54" d="M68.2,186.7c5.8,19.6,13.4,39.1,22.5,57.7c0,0,0,0,0.1,0c1.9,1.3,4,2.6,5.8,4c0.1,0.1,0.2,0.2,0.4,0.2
		c0.7,0.5,1.1,1.4,1,2.2c0.4-0.7,0.6-1.5,0.3-2.2c0-0.1-0.1-0.2-0.1-0.3c-0.2-0.4-0.4-0.8-0.6-1.1c-9.8-19.5-18-40-24.3-60.8
		c-0.7,0.3-1.5,0.6-2.1,0.7c-0.1,0-0.3,0-0.4,0c-1,0-1.8-0.6-2.2-1.5c-0.1,0.2-0.2,0.4-0.4,0.6C68.1,186.4,68.2,186.5,68.2,186.7
		L68.2,186.7z"/>
	<path fill="#1B2A54" d="M41.8,224.9c0-0.1,0-0.2,0-0.2C41.8,224.7,41.8,224.8,41.8,224.9z"/>
	<path fill="#1B2A54" d="M42.8,226.5c0.1,0,0.1,0.1,0.2,0.1C42.9,226.6,42.9,226.6,42.8,226.5z"/>
	<path fill="#1B2A54" d="M42,225.5c0,0.1,0.1,0.1,0.1,0.2C42,225.7,42,225.6,42,225.5z"/>
	<path fill="#1B2A54" d="M42.2,225.9c0,0.1,0.1,0.1,0.1,0.2C42.3,226,42.3,225.9,42.2,225.9z"/>
	<path fill="#1B2A54" d="M80.3,243.6c2.6,1.6,5.3,3.1,7.9,4.8c0.5,0.3,0.9,0.6,1.4,0.9c1.5,1,3,1.9,4.4,3c0,0,0.1,0,0.1,0.1l0.1,0.1
		c0.4,0.3,1,0.5,1.5,0.5c0.8,0,1.5-0.3,1.9-1l0,0c0.3-0.4,0.4-0.8,0.5-1.2c0.1-0.8-0.2-1.7-1-2.2c-0.1-0.1-0.2-0.2-0.4-0.2
		c-1.8-1.4-3.9-2.6-5.8-4c0,0,0,0-0.1,0c-1-0.6-1.8-1.2-2.8-1.8c-1.8-1.1-3.5-2.1-5.2-3.1c-1-0.6-2-1.2-3-1.8l0,0
		c-10.2-5.7-21-10.6-32.1-14.5c-0.4,0.8-0.8,1.7-1.2,2.4c-0.4,0.9-1.3,1.4-2.2,1.4c-0.3,0-0.6-0.1-0.9-0.2c0.1,0,0.1,0,0.1,0.1
		C56.3,231.2,68.6,236.8,80.3,243.6z"/>
	<path fill="#1B2A54" d="M42.7,226.4c-0.1-0.1-0.1-0.1-0.2-0.2C42.6,226.3,42.6,226.3,42.7,226.4z"/>
	<path fill="#1B2A54" d="M41.9,223.9c0-0.1,0.1-0.2,0.1-0.2S42,223.8,41.9,223.9C41.9,223.8,41.9,223.8,41.9,223.9z"/>
	<path fill="#1B2A54" d="M41.8,225.1c0,0.1,0,0.2,0.1,0.2C41.9,225.2,41.9,225.2,41.8,225.1z"/>
	<path fill="#1B2A54" d="M41.8,224.1c0,0.1,0,0.2,0,0.2S41.8,224.2,41.8,224.1z"/>
	<path fill="#1B2A54" d="M65.2,186c0.6,1.2,0.1,2.6-1.1,3.3c-1.7,0.9-3.4,1.8-5.2,2.6c-6.2,10.3-11.9,21-16.9,31.7v0.1
		c0,0.1-0.1,0.2-0.1,0.2c0,0.1,0,0.2-0.1,0.3c0,0.1,0,0.2,0,0.2c0,0.1,0,0.2,0,0.2c0,0.1,0,0.2,0,0.2c0,0.1,0,0.2,0,0.2
		c0,0.1,0,0.2,0.1,0.2c0,0.1,0.1,0.1,0.1,0.2s0.1,0.1,0.1,0.2s0.1,0.1,0.1,0.2s0.1,0.1,0.1,0.2c0.1,0.1,0.1,0.1,0.2,0.2
		c0.1,0.1,0.1,0.1,0.2,0.2c0.1,0,0.1,0.1,0.2,0.1c0.1,0,0.1,0.1,0.2,0.1c0,0,0.1,0,0.1,0.1h0.1c0.3,0.1,0.6,0.2,0.9,0.2
		c0.9,0,1.8-0.5,2.2-1.4c0.4-0.8,0.8-1.7,1.2-2.4c5.5-11.6,11.9-22.9,18.7-34l0.4-0.6l0,0l0,0c0.5-0.8,1-1.6,1.5-2.3
		c0.1-0.2,0.2-0.4,0.4-0.6c-0.1-0.2-0.2-0.4-0.2-0.6c-0.2-1.4,0.7-2.5,2-2.8c0.1,0,0.3-0.1,0.4-0.1l0,0c0.8-1.2,0.4-2.6-0.7-3.4
		c-1.2-0.8-2.6-0.4-3.4,0.7c-0.1,0.1-0.2,0.3-0.3,0.4c-1.1,1.7-2.1,3.3-3.1,4.8C64.1,184.7,64.8,185.2,65.2,186z"/>
	<path fill="#1B2A54" d="M156.9,413.7L156.9,413.7c0-0.1-0.1-0.2-0.1-0.3c-0.5-0.9-1.4-1.3-2.2-1.3c-0.3,0-0.7,0.1-1,0.3h-0.1
		c-1.1,0.6-1.6,1.9-1.1,3.1l0,0l0,0c0.3,0.7,0.6,1.3,0.8,1.9c12.8,30.5,17.9,67.1,15.2,108.6c-2.5,37.8-11,75.3-19.3,111.5
		c0.6,0,1.1,0,1.7,0h0.6c1.2,0,2,0.8,2.3,1.8l0,0c8.4-36.7,17-74.6,19.5-113.1c2.7-42-2.4-79-15.3-110.2
		C157.7,415.5,157.3,414.6,156.9,413.7z"/>
	<path fill="#1B2A54" d="M103.9,637.8L103.9,637.8c1.4,0,2.4,1.1,2.4,2.4c0,0.7,0,1.4,0,2c11.9,0.1,23.7,0.2,35.6,0.3
		c0-0.8,0-1.7,0.1-2.4c0,0,0-0.1,0-0.2v-0.1c0-0.9,0.5-1.7,1.2-2c-13.1-0.1-26.2-0.2-39.3-0.4c-1.9,0-3.8,0-5.7-0.1l0,0
		c-0.1,0-0.2,0-0.3,0c1.2,0.2,2.1,1.2,2.1,2.3c0,1.3-0.9,2.2-2.1,2.4c0.1,0,0.2,0,0.3,0c1.1,0,2.2,0,3.3,0c0-0.7,0-1.3,0-1.9
		C101.5,638.9,102.5,637.8,103.9,637.8z"/>
	<path fill="#1B2A54" d="M151.5,637.8h-0.6c-0.6,0-1.1,0-1.7,0c-1.2,0-2.2,0-3.4,0c0.7,0.4,1.1,1.2,1.1,2c0,0.1,0,0.2,0,0.3v0.1
		c0,0.8,0,1.7-0.1,2.4c1.4,0,2.6,0,4,0h0.7c1.4,0,2.4-1.1,2.4-2.4c0-0.2,0-0.4-0.1-0.6C153.5,638.6,152.5,637.8,151.5,637.8z"/>
	<path fill="#1B2A54" d="M44.4,637.8h2.2c-8.3-36.3-16.8-73.8-19.3-111.5c-2.8-42.2,2.6-79.4,16-110.6c-0.7-0.4-1.5-0.8-2.1-1.2
		c-0.7-0.4-1.4-0.8-2.1-1.2c-13.8,32-19.4,70-16.5,113.3c2.5,38.4,11.2,76.3,19.5,113.1c0.3,1.2,1.3,1.8,2.3,1.8v-1.3L44.4,637.8
		L44.4,637.8z"/>
	<path fill="#1B2A54" d="M51.5,637.8L51.5,637.8c1.4,0,2.4,1.1,2.4,2.4c0,0.8,0,1.6,0,2.3l35.6-0.3c0-0.9,0-1.7,0.1-2.5
		c0-1.3,1.1-2.3,2.3-2.3l-45.4,0.4h-2.2v2.4v1.3v1.2H49c0-0.8,0-1.6,0-2.3C49.1,638.9,50.1,637.8,51.5,637.8z"/>
	<path fill="#1B2A54" d="M100,639.8c0-1.3-1-2.2-2.1-2.3c-0.1,0-0.2,0-0.3,0l-5.3,0.1c1.3,0,2.3,1.1,2.3,2.4l0,0
		c0,0.8,0,1.7-0.1,2.4h3.1c0.1,0,0.2,0,0.3,0C99.1,642,100,640.9,100,639.8z"/>
	<path fill="#1B2A54" d="M87.2,430c0.5,0,1-0.1,1.4-0.4c0.1,0,0.1-0.1,0.2-0.1c0.1-0.1,0.2-0.1,0.3-0.2c6.3-4.8,9.2-12.1,11-19.7
		c0.4-1.8,0.8-3.6,1.1-5.4c0.1-0.5,0.2-0.9,0.2-1.4c0-0.3,0.1-0.5,0.1-0.8c0.2-1.2,0.4-2.3,0.6-3.5l0.1-0.5c0.2-1.4-0.7-2.5-2-2.8
		c-1.4-0.2-2.5,0.7-2.8,2l-0.1,0.5c-0.2,1.4-0.4,2.8-0.7,4.2c-0.1,0.4-0.1,0.8-0.2,1.3c-1.4,8.2-3.5,16.3-9.2,21.3
		c0.1,0,0.3,0,0.4,0.1c1.4,0.2,2.2,1.5,2,2.7c-0.2,1.2-1.2,2-2.4,2c-0.1,0-0.2,0-0.4,0c-0.4-0.1-0.9-0.1-1.3-0.2
		C85.9,429.7,86.6,430,87.2,430z"/>
	<path fill="#1B2A54" d="M43.3,415.6c12.9,6.7,27,11.3,42.1,13.6c0.4,0.1,0.9,0.1,1.3,0.2c0.1,0,0.2,0,0.4,0c1.2,0,2.2-0.9,2.4-2
		c0.2-1.4-0.7-2.5-2-2.7c-0.1,0-0.3,0-0.4-0.1c-15.7-2.3-30.3-7.2-43.6-14.4c-0.7-0.4-1.4-0.8-2-1.1c-0.1-0.1-0.2-0.1-0.3-0.2
		c-1.2-0.7-2.6-0.3-3.3,0.9c-0.4,0.7-0.4,1.5-0.2,2c0.2,0.5,0.6,1,1.1,1.3c0.1,0.1,0.2,0.1,0.3,0.2c0.7,0.4,1.5,0.8,2.1,1.2
		C41.9,414.9,42.7,415.3,43.3,415.6z"/>
	<path fill="#1B2A54" d="M120.3,166.3c0-0.9,0.1-1.8,0.1-2.5c0-0.5,0.1-0.9,0.2-1.4c0-0.3,0-0.6,0-0.8c-0.2-1-1-1.8-2-1.9
		c-1.4-0.2-2.5,0.8-2.7,2c-0.1,0.6-0.1,1.1-0.2,1.7c-0.1,0.5-0.1,1.1-0.1,1.6c-0.4,7.3,1.5,14.7,5.3,20.9c0.2,0.4,0.6,0.7,0.9,0.9
		c0.4,0.2,0.8,0.3,1.2,0.3c0.4,0,0.9-0.1,1.3-0.4c1.2-0.7,1.6-2.2,0.8-3.3c-0.2-0.3-0.3-0.6-0.5-1c-0.1-0.2-0.2-0.4-0.3-0.6
		c-0.2-0.4-0.4-0.8-0.6-1.2c-1.5-3-2.4-6.1-2.8-9.4C120.4,169.6,120.3,168,120.3,166.3z"/>
	<path fill="#1B2A54" d="M70.3,182.3c-1.4,0.2-2.2,1.5-2,2.8c0,0.2,0.1,0.4,0.2,0.6c0.4,0.9,1.3,1.5,2.2,1.5c0.1,0,0.3,0,0.4,0
		c0.8-0.1,1.5-0.4,2.1-0.7c2.1-1,4-2.7,5.2-5.1c1.4-2.5,1.8-5.3,2-8.1c0.2-1.7,0.3-3.4,0.3-5.2c0-1.5,0-2.9,0-4.4
		c0-1.7-0.1-3.4-0.3-5.1c-0.1-1.4-1.3-2.3-2.6-2.2c-1.4,0.1-2.3,1.3-2.2,2.6c0,0.3,0,0.5,0.1,0.8c0.2,1.9,0.2,3.8,0.2,5.7
		c0,0.8,0,1.6,0,2.3c0,0.8-0.1,1.7-0.1,2.5c-0.1,0.8-0.1,1.6-0.2,2.3c-0.2,2.1-0.6,4.5-1.5,6.3c-0.6,1.1-1.4,2-2.2,2.5
		c-0.4,0.2-0.8,0.4-1.2,0.5C70.6,182.2,70.5,182.2,70.3,182.3z"/>
	<path fill="#1B2A54" d="M62.7,753.3c0.1,0,0.2,0,0.3,0h0.1h0.1c0.6,0.1,1.3,0.2,1.9,0.2c-1.2-15.5-3.2-31.2-5.2-46.4
		c-2.7-21.2-5.6-43.1-6-64.7c0-0.8,0-1.6,0-2.3c0-1.4-1.1-2.4-2.4-2.4l0,0c-1.4,0-2.4,1.1-2.4,2.4c0,0.8,0,1.6,0,2.3
		c0.4,21.9,3.3,43.9,6,65.2c2,15.4,4.1,31.3,5.2,46.9l0,0C60.8,753.9,61.6,753.3,62.7,753.3z"/>
	<path fill="#1B2A54" d="M94.6,639.8c0-1.4-1.1-2.3-2.3-2.4l0,0l0,0c0,0,0,0-0.1,0c-1.3,0-2.3,1.1-2.3,2.3c0,0.9,0,1.7-0.1,2.5
		c-0.1,2.6-0.1,5.3-0.2,7.9c-1,34.2-1.9,69.5-7.7,103.7c0.1,0,0.2,0,0.4,0.1c0.5,0,1-0.1,1.5-0.2h0.1h0.1c1.2-0.2,2.3,0.6,2.6,1.8
		c6-34.7,7-70.5,7.9-105.2c0.1-2.6,0.1-5.3,0.2-8C94.5,641.4,94.5,640.6,94.6,639.8L94.6,639.8z"/>
	<path fill="#1B2A54" d="M65.2,753.6c-0.7-0.1-1.4-0.1-1.9-0.2h-0.1h-0.1c-0.1,0-0.2,0-0.3,0c-1,0-1.8,0.6-2.2,1.5
		c0.4-0.3,0.7-0.5,1.1-0.8c1.1-0.8,2.6-0.5,3.4,0.7c0.8,1.1,0.5,2.6-0.7,3.4c-0.2,0.1-0.3,0.2-0.4,0.3c3.6,0.4,7.9,0.7,11.8,0.7
		c2,0,4-0.1,5.8-0.2c-0.1-0.1-0.2-0.1-0.4-0.2h-0.1H81c-1.3-0.4-2-1.8-1.7-3c0.2-0.8,0.8-1.4,1.5-1.6
		C76.1,754.3,70.2,754.1,65.2,753.6z"/>
	<path fill="#1B2A54" d="M83.7,753.7L83.7,753.7h-0.2c-0.5,0.1-1,0.1-1.5,0.2c0.1,0,0.1,0,0.2,0s0.3,0.1,0.4,0.1
		c1.5,0.5,2.7,1.5,3.7,2.8c0.1-0.4,0.2-0.7,0.1-1.1c0-0.1-0.1-0.3-0.1-0.4C86,754.3,84.9,753.5,83.7,753.7z"/>
	<path fill="#1B2A54" d="M82.6,754c-0.1-0.1-0.3-0.1-0.4-0.1s-0.1,0-0.2,0c-0.1,0-0.2-0.1-0.4-0.1c-0.4,0-0.7,0-1,0.2
		c-0.7,0.3-1.3,0.8-1.5,1.6c-0.4,1.3,0.4,2.6,1.7,3H81h0.1c0.1,0,0.2,0.1,0.4,0.2c0.8,0.4,1.5,1.4,1.8,2.5c0.4,1.6,0.3,3.4,0.2,5.3
		c-0.2,2.1-0.4,4.3-1.7,5.2c-0.5,0.4-1.3,0.7-2,0.9c-0.5,0.2-1.1,0.4-1.6,0.6c-3.8,1.6-6.3,5-8.6,7.9l-0.3,0.3
		c-2.5,3.3-5.3,6.7-8.8,9.4c-2.4,1.9-6.3,4.3-11,4.4c-3,0.1-5.6-0.8-7.1-2.5c-1.6-1.8-2.1-4.7-1.6-7.5c0.7-3.1,2.4-5.9,4.1-8.3
		c5.2-7.4,11.5-13.6,18.9-18.8c0.2-0.1,0.3-0.2,0.4-0.3c1.1-0.8,1.4-2.2,0.7-3.4c-0.8-1.1-2.2-1.4-3.4-0.7c-0.4,0.3-0.8,0.5-1.1,0.8
		l0,0c-7.6,5.3-14.2,11.9-19.5,19.4c-1.9,2.7-4,6.1-4.9,10c-1,4.5,0.1,8.8,2.7,11.8c2.3,2.6,6,4.1,10.2,4.1h0.1c0.2,0,0.4,0,0.7,0
		c4.7-0.2,9.4-2,13.7-5.4c3.9-3,6.9-6.7,9.6-10.3l0.3-0.3c1.9-2.5,4-5.3,6.6-6.3c0.4-0.2,0.8-0.3,1.3-0.4c1.2-0.4,2.4-0.8,3.6-1.8
		c2.9-2.3,3.3-6.2,3.5-8.7c0.2-2.1,0.4-4.6-0.3-7c-0.3-1.2-0.9-2.2-1.6-3.2C85.3,755.6,84.1,754.5,82.6,754z"/>
	<path fill="#1B2A54" d="M115,753.3c0.1,0,0.2,0,0.3,0s0.2,0,0.3,0c0.6,0.1,1.3,0.2,1.9,0.2c-1.2-15.5-3.2-31.2-5.2-46.4
		c-2.8-21.3-5.6-43.3-6-65c0-0.7,0-1.4,0-2c0-1.4-1.1-2.4-2.4-2.4l0,0c-1.4,0-2.4,1.1-2.4,2.4c0,0.7,0,1.3,0,1.9
		c0.4,22,3.2,44.2,6,65.6c2,15.4,4.1,31.3,5.2,47l0,0C113.1,753.9,114,753.3,115,753.3z"/>
	<path fill="#1B2A54" d="M146.9,640.2L146.9,640.2c0-0.2,0-0.3,0-0.4c0-0.9-0.5-1.7-1.1-2c-0.4-0.3-0.9-0.4-1.4-0.4
		c-0.5,0-0.9,0.1-1.3,0.4c-0.7,0.4-1.2,1.2-1.2,2v0.1c0,0.1,0,0.2,0,0.2c0,0.8,0,1.7-0.1,2.4c-0.1,2.4-0.1,4.9-0.2,7.4
		c-1,34.2-1.9,69.7-7.7,103.8c0.1,0,0.2,0,0.3,0.1c0.5,0,1-0.1,1.5-0.2h0.1h0.1c1.2-0.2,2.3,0.6,2.6,1.8c6-34.8,7-70.7,7.9-105.3
		c0.1-2.4,0.1-5,0.2-7.5C146.9,641.8,146.9,641,146.9,640.2z"/>
	<path fill="#1B2A54" d="M117.5,753.6c-0.7-0.1-1.4-0.1-1.9-0.2c-0.1,0-0.2,0-0.3,0s-0.2,0-0.3,0c-1,0-1.8,0.6-2.2,1.5
		c0.4-0.3,0.8-0.5,1.1-0.8c1.1-0.8,2.6-0.5,3.4,0.7c0.8,1.1,0.5,2.6-0.7,3.4c-0.2,0.1-0.3,0.2-0.5,0.3c3.6,0.4,7.9,0.7,11.8,0.7
		c2,0,4.1-0.1,5.8-0.2c-0.1-0.1-0.2-0.1-0.4-0.2h-0.1h-0.1c-1.3-0.4-2-1.8-1.7-3c0.2-0.8,0.8-1.4,1.5-1.6
		C128.5,754.3,122.6,754.1,117.5,753.6z"/>
	<path fill="#1B2A54" d="M136.1,753.7L136.1,753.7h-0.2c-0.5,0.1-1,0.1-1.5,0.2c0.1,0,0.1,0,0.2,0s0.3,0.1,0.4,0.1
		c1.5,0.5,2.7,1.6,3.7,2.8c0.1-0.4,0.2-0.7,0.1-1.1c0-0.1-0.1-0.3-0.1-0.4C138.4,754.3,137.3,753.5,136.1,753.7z"/>
	<path fill="#1B2A54" d="M135,754c-0.1-0.1-0.3-0.1-0.4-0.1c-0.1,0-0.1,0-0.2,0c-0.1,0-0.2,0-0.3-0.1c-0.4,0-0.7,0-1,0.2
		c-0.7,0.3-1.3,0.8-1.5,1.6c-0.4,1.3,0.4,2.6,1.7,3h0.1h0.1c0.1,0,0.2,0.1,0.4,0.2c0.8,0.4,1.5,1.4,1.8,2.5c0.4,1.6,0.3,3.4,0.2,5.3
		c-0.2,2.1-0.4,4.3-1.7,5.2c-0.5,0.4-1.3,0.7-2,0.9c-0.5,0.2-1.1,0.4-1.6,0.6c-3.8,1.6-6.3,5-8.6,7.9l-0.3,0.4
		c-2.5,3.3-5.3,6.7-8.8,9.4c-2.4,1.9-6.3,4.3-11,4.4c-3,0.1-5.6-0.8-7.1-2.5c-1.6-1.8-2.1-4.7-1.6-7.5c0.7-3.1,2.4-5.9,4.1-8.3
		c5.2-7.4,11.5-13.6,18.9-18.8c0.2-0.1,0.3-0.2,0.5-0.3c1.1-0.8,1.4-2.2,0.7-3.4c-0.8-1.1-2.2-1.4-3.4-0.7c-0.4,0.3-0.8,0.5-1.1,0.8
		l0,0c-7.6,5.3-14.2,11.9-19.5,19.4c-1.9,2.7-4,6.1-4.9,10c-1,4.5,0.1,8.8,2.7,11.8c2.3,2.6,6,4.1,10.2,4.1h0.1c0.2,0,0.4,0,0.7,0
		c5.8-0.2,10.7-3.1,13.7-5.4c3.9-3,6.9-6.7,9.6-10.3l0.3-0.4c1.9-2.5,4-5.2,6.6-6.3c0.4-0.2,0.8-0.3,1.3-0.4
		c1.2-0.4,2.4-0.8,3.6-1.8c2.9-2.3,3.3-6.2,3.5-8.7c0.2-2.1,0.4-4.6-0.3-7c-0.3-1.2-0.9-2.2-1.6-3.1
		C137.7,755.6,136.5,754.5,135,754z"/>
	<path fill="#1B2A54" d="M134.4,143c0-1.4-1.1-2.4-2.4-2.4c-1,0-1.8,0.6-2.2,1.5l0,0c0,0.1-0.1,0.2-0.1,0.2v0.1v0.1
		c-0.3,1.1,0.2,2.2,1.2,2.7c0.4,0.2,0.8,0.3,1.2,0.3c0.9,0,1.8-0.5,2.1-1.3l0,0l0,0v-0.1C134.3,143.8,134.4,143.4,134.4,143z"/>
	<path fill="#1B2A54" d="M125.7,154.7c-0.6-1.2-2-1.8-3.2-1.2c-0.2,0.1-0.3,0.2-0.5,0.3c-0.1,0.1-0.2,0.1-0.2,0.2
		c-0.8,0.7-1,1.8-0.5,2.8c0.4,0.9,1.3,1.4,2.1,1.4c0.4,0,0.8-0.1,1.1-0.3c0.1-0.1,0.3-0.2,0.4-0.3c0.1-0.1,0.1-0.1,0.2-0.2
		c0.1-0.1,0.1-0.1,0.2-0.2C125.9,156.6,126.1,155.6,125.7,154.7z"/>
	<path fill="#1B2A54" d="M152.6,560.5c-0.2,1.4,0.7,2.6,1.9,2.8c0.1,0,0.3,0,0.4,0c1.2,0,2.1-0.8,2.4-2c7.6-42.2,5.5-86.3-5.8-127.7
		c-0.4-1.3-1.7-2-3-1.7c-1.3,0.4-2,1.7-1.7,3C158.1,475.7,160,519.1,152.6,560.5z"/>
	<path fill="#1B2A54" d="M142.3,626.5c0.2,0,0.4,0.1,0.6,0.1c1.1,0,2-0.8,2.3-1.8c4.1-16.6,7.6-33.6,10.2-50.6
		c0.2-1.4-0.7-2.5-2-2.8c-1.4-0.2-2.5,0.7-2.8,2c-2.6,16.8-6,33.7-10.1,50.2C140.2,624.9,141.1,626.2,142.3,626.5z"/>
	<path fill="#1B2A54" d="M49.2,382.9c1.1,0.2,2.2,0.3,3.3,0.4c0.7,0.1,1.4,0.2,1.9,0.2c1,0.1,2,0.2,3,0.2c2,0.1,4.1,0.2,6.1,0.2
		c3.5,0,7-0.2,10.4-0.6c3.7-0.4,7.5-1,11.2-1.8c0.2,0,0.4-0.1,0.6-0.2c-0.1,0-0.1,0-0.2,0h-0.1c-1.3,0-2.4-1.1-2.4-2.3l-0.1-1.9
		c-3.1,0.7-6.3,1.2-9.5,1.6l0,0c0,0,0,0-0.1,0c-6.1,0.7-12.4,0.7-18.7,0.1c-2.4-0.2-4.9-0.6-7.3-1c-14.8-2.5-28.6-8.6-39.9-17.4
		c-21.4-16.7-33.8-44.4-31.8-70.6c1.8-21.2,12.5-43,30.3-61.1c16.2-16.5,36.2-28.2,52.9-36.8c1.8-0.9,3.5-1.8,5.2-2.6
		c1.2-0.6,1.7-2,1.1-3.3c-0.4-0.8-1.1-1.2-1.8-1.4c-0.5-0.1-1,0-1.5,0.2c-18,8.9-40.9,21.6-59.4,40.4c-18.7,19-29.8,41.7-31.6,64.2
		c-2.1,28.2,10.7,56.9,33.6,74.9c11.3,8.8,25,15,39.7,17.9c0.8,0.2,1.6,0.3,2.3,0.5C47.5,382.6,48.3,382.7,49.2,382.9z"/>
	<path fill="#1B2A54" d="M71.6,343.9L71.6,343.9c-1,0-2,0-3,0c-0.8,0-1.5,0-2.2,0c-0.9,0-1.8-0.1-2.7-0.1c-3.3-0.2-6.4-0.7-9.3-1.3
		c-1.3-0.3-2.4-0.6-3.6-1c-0.5-0.1-1-0.3-1.4-0.5c-0.1,0-0.1,0-0.2-0.1c-1.1-0.4-2.1-0.8-3.1-1.2c-0.7-0.3-1.4-0.6-2-1
		c-0.4-0.2-0.7-0.4-1.1-0.5c-10.9-5.9-18.6-17.8-19.6-30.1c-0.9-10.7,3.2-22,10.8-29.8c1.1-1.2,2.2-2.2,3.5-3.2l0.1-0.1
		c0.5-0.4,0.7-0.9,0.9-1.4c0.1-0.5,0.1-1-0.1-1.4c-0.1-0.2-0.2-0.5-0.4-0.7c-0.8-1.1-2.3-1.2-3.4-0.4l-0.1,0.1
		c-0.4,0.3-0.7,0.6-1,0.9c-10.5,8.8-16.2,22.6-15.1,36.3c1.2,13.9,9.8,27.3,22.2,34c1.2,0.6,2.2,1.2,3.4,1.7
		c1.7,0.8,3.5,1.4,5.3,1.9c5,1.6,10.5,2.3,16.8,2.6h0.1l0,0c0.1,0,0.1,0,0.2,0l0,0c1.1,0,2,0.1,3.1,0.1c0.8,0,1.5,0,2.2,0
		c3.1-0.1,6.4-0.2,10.4-0.6l-0.1-2.5c0-0.2,0-0.3,0-0.4c0-0.9,0.5-1.7,1.2-2C78.7,343.6,75,343.9,71.6,343.9L71.6,343.9z"/>
	<path fill="#1B2A54" d="M88,378.8l-0.1-3.2c-0.5,0-0.9,0.1-1.3,0.1c-1.4,0.2-2.5-0.8-2.7-2c-0.2-1.4,0.8-2.5,2-2.7
		c0.6-0.1,1.2-0.1,1.8-0.2l-0.6-19.2l-1.8,0.1c-1.4,0.1-2.5-1-2.6-2.2c-0.1-1.4,1-2.5,2.2-2.6l1.9-0.1v-1.2c0-0.1,0-0.2,0-0.3
		c0-1.4-1.1-2.4-2.4-2.4c-0.5,0-0.9,0.1-1.3,0.4c-0.7,0.4-1.2,1.2-1.2,2c0,0.1,0,0.2,0,0.4l0.1,2.5l1,28.8l0.1,1.9
		c0,1.4,1.2,2.3,2.4,2.3h0.1c0.1,0,0.1,0,0.2,0C87.1,381.1,88.1,380.1,88,378.8z"/>
	<path fill="#1B2A54" d="M97.2,351.8C97.2,351.8,97.1,351.8,97.2,351.8c-1.4,0-2.4-1.1-2.4-2.4c0-1.4,1.1-2.4,2.4-2.4
		c0.1,0,0.3,0,0.4,0c-0.5-0.5-1.2-0.8-1.8-0.8l-8.7,0.6l-1.9,0.1c-1.4,0.1-2.3,1.3-2.2,2.6c0.1,1.4,1.3,2.3,2.6,2.2l1.8-0.1l6.5-0.4
		c0.9,6.7,1.7,13.5,2.5,20.2c-2.7-0.7-5.6-0.9-8.5-0.7c-0.6,0-1.2,0.1-1.8,0.2c-1.4,0.2-2.2,1.5-2,2.7c0.2,1.4,1.5,2.2,2.7,2
		c0.4-0.1,0.9-0.1,1.3-0.1c3.5-0.3,7,0.2,10.3,1.5c0.3,0.1,0.6,0.2,0.9,0.2c0.6,0,1.1-0.2,1.5-0.5c0.7-0.5,1-1.4,0.9-2.2v-0.1
		c-0.4-0.1-0.9-0.1-1.3-0.2c-1.4-0.2-2.2-1.5-1.9-2.8c0.2-1.3,1.4-2.1,2.6-1.9c-0.8-5.8-1.5-11.8-2.2-17.6
		C98.2,351.8,97.7,351.8,97.2,351.8z"/>
	<path fill="#1B2A54" d="M51.8,369.4c0-0.9-0.4-1.8-1.2-2.1c-0.8-0.5-1.8-0.5-2.4,0c-0.5,0.3-0.9,0.7-1.2,1.1
		c-0.1,0.1-0.2,0.2-0.3,0.4c-0.4,0.6-0.6,1.3-0.4,1.9c0,0.7,0.1,1.3,0.5,1.8c0.4,0.8,1.3,1.3,2.1,1.3c0.1,0,0.1,0,0.2,0
		c1.1-0.1,1.9-0.7,2.5-1.6c0.4-0.7,0.5-1.5,0.3-2.2C51.8,369.8,51.8,369.6,51.8,369.4z"/>
	<path fill="#1B2A54" d="M61.9,369.1c-0.1-0.1-0.2-0.2-0.2-0.4c-0.9-1.1-2.3-1.2-3.4-0.4c-0.7,0.5-1.1,1.3-1.1,2c0,0.1,0,0.1,0,0.2
		l-0.1,0.9c0,0.7,0.2,1.3,0.6,1.8c0.4,0.5,1.1,0.8,1.7,0.8l1.1,0.1h0.1c1.3,0,2.3-1,2.4-2.3l0,0C63.1,370.7,62.8,369.8,61.9,369.1
		C61.9,369.2,61.9,369.1,61.9,369.1z"/>
	<path fill="#1B2A54" d="M71.5,368.3L71.5,368.3C71.5,368.3,71.6,368.3,71.5,368.3c0.2,0.2,0.4,0.3,0.5,0.3
		c-0.2-0.2-0.4-0.4-0.7-0.5c-0.7-0.4-1.4-0.4-1.9-0.2C70.1,367.9,70.8,368,71.5,368.3z"/>
	<path fill="#1B2A54" d="M66.5,371.5c0,1.1,0.6,2.1,1.5,2.7l0,0l0,0c0.1,0.1,0.3,0.2,0.6,0.3c0.1,0.1,0.2,0.1,0.4,0.1
		c0.3,0.1,0.7,0.2,1.1,0.2c0.7,0,1.3-0.2,1.8-0.6c0.6-0.4,1.1-1,1.4-1.6l0,0c0.2-0.4,0.3-0.9,0.3-1.5c0-1.1-0.6-2-1.5-2.7
		c-0.1-0.1-0.3-0.2-0.4-0.2c0,0-0.1,0-0.1-0.1l0,0c-0.7-0.4-1.5-0.5-2.1-0.3c-0.3,0.1-0.7,0.1-1,0.3c-0.1,0.1-0.2,0.1-0.3,0.2
		c-0.1,0.1-0.2,0.1-0.3,0.2l-0.1,0.1l0,0C66.9,369.5,66.5,370.4,66.5,371.5z"/>
	<path fill="#1B2A54" d="M139.8,338.5c0,0.1,0,0.2-0.1,0.5c-0.2,0.4-0.6,0.8-1,0.9c-0.8,0.1-1.7-0.4-2.3-1.1
		c-0.2-0.2-0.3-0.4-0.5-0.6c-0.1-0.2-0.2-0.4-0.3-0.5c-0.1-0.2-0.2-0.4-0.2-0.5c-0.1-0.1-0.1-0.2-0.2-0.4c-0.5-1.5-0.7-3.2-0.8-4.9
		c-0.1-1.1,0.3-2.8,0.6-4.6c0.2-1,0.4-2,0.5-2.9c0-0.1,0-0.1,0-0.2c0.2-1.3,0.2-2.3,0.1-3.3c0-0.1,0-0.3-0.1-0.4
		c-0.5-2.3-2.2-3.7-4.6-3.7h-0.1c-0.2,0-0.3,0-0.5,0.1c-3.9,1.1-6.7,4.8-7.6,9.9c-0.3,1.4-0.4,2.7-0.5,4.1c-0.2,2.1-0.4,4.1-1,5.8
		c-1.4,3.7-5,6.8-9.7,8.3c-4.5,1.5-9.3,1.6-14.1,1.7c-0.1,0-0.3,0-0.4,0c-1.4,0-2.4,1.2-2.4,2.4c0,1.4,1.1,2.4,2.4,2.4l0,0
		c0.5,0,1,0,1.5,0c4.8-0.1,9.7-0.3,14.5-1.8c6.2-2,10.9-6.1,12.7-11.3c0.9-2.3,1.1-4.8,1.3-7.1c0.1-1.3,0.2-2.5,0.5-3.7
		c0.4-2.2,1.5-4.7,3.2-5.7l0.1-0.1c0,0.4,0,1-0.1,1.8v0.1c-0.1,0.8-0.3,1.7-0.5,2.6c-0.4,2-0.8,4.1-0.7,5.8c0.2,1.9,0.3,4.1,1.1,6.1
		c0.2,0.5,0.4,1,0.7,1.5c0.2,0.4,0.4,0.8,0.7,1.1c1.8,2.6,4.7,4,7.4,3.6c2-0.3,3.9-1.8,4.8-3.8c0.6-1.3,0.6-2.7,0.2-3.9
		c-0.1,1.3-1.3,2.2-2.6,2.1c-1.4-0.1-2.3-1.3-2.2-2.6c0-0.2,0.1-0.4,0.1-0.6C139.2,336.8,139.2,337.8,139.8,338.5z"/>
	<path fill="#1B2A54" d="M143.1,345.8c-1.1,0.6-2.4,1-4,1.3c-1.4,0.2-2.2,1.5-2,2.8c0.2,1.2,1.3,2,2.4,2c0.1,0,0.3,0,0.4,0
		c2.1-0.4,3.9-0.9,5.4-1.7c1.2-0.6,1.7-2,1.1-3.3C145.7,345.7,144.3,345.3,143.1,345.8z"/>
	<path fill="#1B2A54" d="M151.1,333.7c-0.4-0.5-0.8-0.9-1.2-1.2c-0.7-0.6-1.6-1-2.4-1.3c-0.1,0-0.2,0-0.2-0.1
		c-0.9-0.2-1.8-0.2-2.6-0.1c-0.8,0.2-1.6,0.5-2.2,0.9c-1.5,0.9-2.5,2.3-2.8,3.9c0,0.2-0.1,0.4-0.1,0.6c-0.1,1.4,0.9,2.5,2.2,2.6
		s2.4-0.9,2.6-2.1c0,0,0,0,0-0.1c0-0.4,0.6-0.9,1.2-1c0.3,0,0.5,0,0.7,0c0.5,0.1,0.9,0.5,1.1,0.8c0.5,0.6,0.8,1.3,0.8,2
		c0,0.8-0.1,1.6-0.5,2.3c-0.1,0.3-0.3,0.6-0.5,0.9c-0.7,1.2-0.4,2.6,0.8,3.3c0.4,0.3,0.9,0.4,1.3,0.4c0.6,0,1.1-0.2,1.5-0.5
		c-0.3-0.3-0.7-0.6-1.2-0.6c-1.4-0.2-2.2-1.4-2-2.7c0.2-1.4,1.4-2.2,2.7-2c1,0.1,1.8,0.5,2.6,1c0.1-0.7,0.2-1.4,0.2-2
		c0-0.5-0.1-1-0.2-1.5C152.4,335.8,151.9,334.7,151.1,333.7z"/>
	<path fill="#1B2A54" d="M150.2,339.7c-1.4-0.2-2.5,0.8-2.7,2c-0.2,1.4,0.8,2.5,2,2.7c0.5,0.1,0.9,0.4,1.2,0.6
		c0.1,0.1,0.2,0.2,0.3,0.3c0.6,0.7,0.8,1.8,0.7,2.5c-0.2,1.8-1.7,3.4-3.7,4.6c-1,0.5-2.1,1-3.6,1.3c-1.2,0.3-2.3,0.5-3.5,0.7h-0.1
		c-1.4,0.2-2.2,1.5-1.9,2.8c0.2,1.2,1.3,2,2.4,2c0.1,0,0.3,0,0.4,0h0.1c1.1-0.2,2.2-0.4,3.3-0.7c0.2,0,0.4-0.1,0.6-0.1
		c1.6-0.4,2.8-0.8,4-1.4c-0.7-0.2-1.3-0.7-1.6-1.4c-0.5-1.3,0.1-2.6,1.4-3.2c1.7-0.7,3.6-0.4,5.1,0.9c1.2-1.5,1.9-3.1,2.1-4.8
		c0.3-2.1-0.3-4.4-1.7-6.1c-0.6-0.8-1.3-1.4-2-1.8C151.9,340.1,151.1,339.8,150.2,339.7z"/>
	<path fill="#1B2A54" d="M149.2,352.5c-1.3,0.5-1.8,1.9-1.4,3.2c0.3,0.7,0.9,1.2,1.6,1.4c0.5,0.1,1.1,0.1,1.6-0.1
		c0.1,0,0.3,0.2,0.6,0.6c0.2,0.4,0.3,0.9,0.2,1.2c-0.3,1-1.2,1.9-2.8,2.9c-0.3,0.2-0.7,0.4-1.1,0.6c0,0-0.1,0-0.1,0.1
		c-0.1,0-0.2,0.1-0.2,0.1c-0.2,0.1-0.3,0.2-0.5,0.2c-0.8,0.4-1.5,0.7-2.1,1.1c-0.3,0.1-0.7,0.3-1,0.4c-3.8,1.7-7.7,3-11.7,4
		c-0.2,0.1-0.4,0.1-0.6,0.2c-10.1,2.4-20.8,2.8-30.8,1.1c-0.1,0-0.1,0-0.2,0c-1.3-0.1-2.4,0.7-2.6,1.9c-0.2,1.4,0.7,2.6,1.9,2.8
		c0.4,0.1,0.9,0.1,1.3,0.2c4,0.7,8.2,1,12.3,1c5.7,0,11.4-0.6,17-1.8c0.8-0.2,1.5-0.3,2.2-0.5c0.3-0.1,0.5-0.1,0.7-0.2
		c0.7-0.2,1.3-0.4,1.9-0.5c3.5-1,7-2.2,10.4-3.7c0.2-0.1,0.4-0.2,0.6-0.3c1.1-0.5,2.1-1,3.2-1.6c0.1-0.1,0.3-0.2,0.5-0.2
		c0.4-0.2,0.8-0.5,1.3-0.7c2-1.3,4.2-2.9,5.1-5.7c0.7-2.2-0.2-5-1.9-6.6c-0.1-0.1-0.2-0.1-0.2-0.2
		C152.8,352.2,151,351.9,149.2,352.5z"/>
	<path fill="#1B2A54" d="M132.7,188.2c-1.6-0.2-2.8,1-2.8,2.4c0,0.3,0.1,0.6,0.2,0.8c0.1,0.3,0.3,0.6,0.5,0.9
		c0.4,0.4,0.9,0.7,1.5,0.8c1.8,0.3,3.7,0.8,5.4,1.3c14.4,4.2,28.1,14.4,38.9,29.3c11.5,15.8,18.8,35.1,24.6,50.7
		c1.3,3.3,2.6,7,5.3,9.9c2.5,2.9,6,4.5,9.3,4.5c0.8,0,1.7-0.1,2.4-0.3c6-1.6,8.6-8.5,9.8-11.8l8.7-23.4c-0.1-0.1-0.1-0.1-0.2-0.2
		c-0.4-0.2-0.7-0.4-0.9-0.8c-0.2-0.2-0.4-0.4-0.7-0.6l-1.1-0.9c-0.6-0.5-0.9-1.3-0.8-1.9l-0.1,0.1l-9.6,26c-1.5,4.1-3.3,7.9-6.5,8.8
		c-2.5,0.7-5.3-0.9-6.9-2.7c-2-2.3-3.2-5.4-4.4-8.5c-5.9-15.8-13.4-35.5-25.3-51.8c-12.6-17.4-29.1-28.8-46.4-32.3
		C133.3,188.2,132.9,188.1,132.7,188.2C132.8,188.2,132.7,188.2,132.7,188.2z"/>
	<path fill="#1B2A54" d="M261.7,269.7c0,0-0.1,0-0.2-0.1c-0.8-0.3-1.6-0.6-2.3-0.9c-3.7,15.4-7.6,31.2-16.7,44.2
		c-9.8,14.1-25.1,21.9-38.8,19.8c-8.8-1.4-17.7-6.8-24.9-15.5c-6.6-8-11.3-17.5-15.8-26.7c-0.3-0.6-0.8-1.1-1.4-1.3
		c-0.6-0.2-1.3-0.2-1.8,0.1c-1.2,0.6-1.8,2-1.2,3.2c0.7,1.4,1.3,2.6,1.9,4c4.1,8.3,8.5,16.5,14.4,23.7c8,9.5,17.9,15.7,27.9,17.2
		c1.8,0.3,3.4,0.4,5.2,0.4c14,0,28.6-8.4,38.3-22.3c9.6-13.8,13.8-30.9,17.4-46c0.1-0.2,0.1-0.5,0.1-0.7c-0.4,0.4-1,0.6-1.6,0.6
		C262.2,269.8,261.9,269.8,261.7,269.7z"/>
	<path fill="#1B2A54" d="M259.6,266.8c-0.3,0-0.7-0.1-1-0.2c-1.3-0.6-1.8-1.9-1.3-3.2c0.1-0.2,0.2-0.4,0.2-0.5
		c-2.4-1.2-4.8-2.5-6.9-4.1c-2.5-1.8-5-3.8-7.6-6.1c-0.7-0.6-1.4-1.2-2-1.8c-0.6,1-1.5,1.9-2.9,2.3c-0.1,0-0.1,0-0.2,0.1
		c-0.6,0.2-1.2,0.1-1.8-0.2c0.1,0.1,0.1,0.1,0.2,0.2c1.2,1.1,2.3,2,3.5,3c2.7,2.4,5.3,4.6,8,6.4c2.6,1.8,5.4,3.5,8.5,4.9
		c1,0.5,1.9,0.9,2.9,1.3c0.8,0.3,1.6,0.6,2.3,0.9c0,0,0.1,0,0.2,0.1c0.3,0.1,0.5,0.1,0.8,0.1c0.6,0,1.2-0.2,1.6-0.6
		c0.3-0.3,0.6-0.6,0.7-1.1c0.4-1.3-0.3-2.6-1.6-3.1c0,0-0.1,0-0.2-0.1c-0.3-0.1-0.6-0.2-1-0.3c-0.1,0.2-0.2,0.4-0.3,0.6
		C261.4,266.3,260.5,266.8,259.6,266.8z"/>
	<path fill="#1B2A54" d="M233.6,250.9l1.1,0.9c0.2,0.2,0.4,0.4,0.7,0.6c-0.1-0.2-0.3-0.4-0.3-0.7c-0.4-1.3,0.3-2.6,1.6-3.1l0,0
		c0.1,0,0.1,0,0.2-0.1c0.1-0.1,0.3-0.5,0.5-1l-0.4-0.3c-1-0.9-2.5-0.8-3.4,0.2c-0.4,0.4-0.6,1-0.6,1.5
		C232.7,249.7,233,250.4,233.6,250.9z"/>
	<path fill="#1B2A54" d="M249,278.6c0.2,0.2,0.5,0.3,0.8,0.4c0.5,0.4,1.1,0.5,1.7,0.5c0.7,0,1.3-0.2,1.8-0.7
		c0.7-0.6,1.1-1.6,0.8-2.4c-0.1-0.5-0.3-1-0.4-1.6c-0.2-0.9-1-1.6-1.8-1.8c-0.9-0.2-1.8,0.1-2.4,0.9c-0.3,0.4-0.6,0.8-1,1.2
		C247.6,276.3,247.9,277.8,249,278.6z"/>
	<path fill="#1B2A54" d="M244,289.7c0.2,0.1,0.3,0.2,0.5,0.3c0.6,0.5,1.4,0.8,2.1,0.8c0.4,0,0.8-0.1,1.2-0.2
		c1.7-0.6,2.7-2.1,2.3-3.7c-0.3-1.7-1.8-2.7-3.6-2.6c-1.5,0.1-2.6,1-3,2.1C242.8,287.4,242.9,289,244,289.7z"/>
	<path fill="#1B2A54" d="M239,303.3c0.6,0.3,1.2,0.5,1.8,0.5c0.6,0,1.1-0.1,1.6-0.4c1.1-0.6,1.8-1.6,1.9-2.8c0.1-1.2-0.5-2.3-1.5-3
		c-1-0.8-2.2-0.9-3.3-0.5c-0.1,0-0.2,0.1-0.3,0.1l-0.1,0.1c-1.1,0.6-1.7,1.8-1.7,2.9C237.3,301.6,237.9,302.7,239,303.3z"/>
	<path fill="#1B2A54" d="M264.5,252.3c-0.1,1.3-1.2,2.2-2.4,2.2c-0.1,0-0.2,0-0.2,0c-0.2,0-0.4-0.1-0.6-0.1
		c-1.3,2.8-2.5,5.6-3.7,8.5c-0.1,0.2-0.2,0.4-0.2,0.5c-0.6,1.3,0,2.6,1.3,3.2c0.3,0.1,0.7,0.2,1,0.2c1,0,1.8-0.6,2.2-1.5
		c0.1-0.2,0.2-0.4,0.3-0.6c1.3-2.9,2.5-5.7,3.8-8.7c0.3-0.7,0.8-1.8,0.6-3.1c-0.2-1.1-0.8-2-1.7-2.8c-0.1,0.5-0.1,1-0.2,1.5
		L264.5,252.3z"/>
	<path fill="#1B2A54" d="M236.7,248.6c-0.1,0-0.1,0-0.2,0.1l0,0c-1.3,0.4-1.9,1.8-1.6,3.1c0.1,0.2,0.2,0.5,0.3,0.7
		c0.2,0.3,0.5,0.6,0.9,0.8c0.5,0.3,1.2,0.3,1.8,0.2c0.1,0,0.1,0,0.2-0.1c1.5-0.4,2.3-1.4,2.9-2.3c0.4-0.7,0.8-1.5,1-2.1
		c0.3-0.7,0.7-1.7,1-1.9c0,0,0.1-0.1,0.4-0.1c0.7,0,1.8,0.4,2.1,0.6l14.4,5.8c-0.2-0.4-0.3-0.9-0.3-1.3l0.1-0.6
		c0.1-1.1,0.3-2.1,0.5-3.2l-12.4-5.1c0.3,0.9,0.1,1.8-0.6,2.5c-0.5,0.5-1.1,0.7-1.7,0.7c-0.7,0-1.3-0.3-1.8-0.8l-0.5-0.5
		c-0.8-0.9-1.4-1.8-1.8-2.7c-0.3,0.1-0.6,0.2-0.9,0.4c-1.8,1.1-2.4,2.8-3,4.3c-0.1,0.2-0.2,0.4-0.3,0.7
		C237,248,236.8,248.5,236.7,248.6z"/>
	<path fill="#1B2A54" d="M243.2,245l0.5,0.5c0.5,0.5,1.2,0.8,1.8,0.8c0.6,0,1.2-0.2,1.7-0.7c0.7-0.7,1-1.7,0.6-2.5
		c-0.1-0.3-0.3-0.6-0.5-0.9l-0.5-0.5c-3.4-3.9-3.2-9.9-1.8-14.2c1.1-3.5,2.9-6.6,4.9-9.9c0-0.8,0.5-1.6,1.2-1.9
		c0.8-1.3,1.5-2.5,2.2-3.8c6.9-12.3,10.5-26.7,10.3-40.9c0-0.4-0.1-0.8-0.1-1.1c0-0.2,0-0.3-0.1-0.5c-0.8,1-2.2,1.2-3.2,0.4
		c-0.9-0.6-1.5-1.6-1.6-2.7c0-0.4,0-0.7,0.1-1.1c-0.1,0.3-0.2,0.7-0.2,1c1,14.6-2.4,29.7-9.6,42.5c-0.8,1.4-1.6,2.7-2.3,4
		c-2.3,3.9-4.8,8-6.2,12.5c-1.5,4.8-1.8,11.1,1,16.2C241.9,243.2,242.5,244.1,243.2,245z"/>
	<path fill="#1B2A54" d="M260.2,169.7c1.1,0.7,2.4,0.5,3.2-0.4c0,0.2,0,0.3,0.1,0.5c0,0.4,0.1,0.8,0.1,1.1c1,10.1,0.6,20.3-1.2,30.3
		c0,0.1,0,0.2,0,0.3c-0.2,1.4,0.8,2.5,2.1,2.7c0.1,0,0.2,0,0.3,0c0.1,0,0.3,0,0.4,0c-1.3-0.1-2.3-1.1-2.3-2.4c0-0.2,0-0.4,0-0.6
		c0.2-1.3,1.1-2.3,2.2-2.9c0.8-0.4,1.8-0.5,2.6-0.4c1.4-9.5,1.6-19.2,0.5-28.8c-0.1-1.2-0.3-2.8-1.3-4.3c-1.3-2-3.7-2.9-5.7-2.2
		c-1.4,0.5-2.4,1.8-2.6,3.2c-0.1,0.3-0.1,0.7-0.1,1.1C258.7,168.1,259.3,169.1,260.2,169.7z"/>
	<path fill="#1B2A54" d="M265.2,198.3c-1.3,0.6-2.1,1.7-2.2,2.9c0,0.2,0,0.4,0,0.6c0,1.3,1,2.3,2.3,2.4h0.1l0,0c0.8,0,1.5-0.4,1.9-1
		c0.1,0.3,0.2,0.7,0.4,1.3c0.8,3.3,1.1,6.7,0.9,10.1c-0.1,2.4-0.5,5-1.1,7.4c-0.3,1.5-0.9,3.2-1.9,4.1c-0.4,0.3-1,0.5-1.5,0.4
		c-0.1,0-0.4-0.1-0.4-0.2c-0.8-1.2-2.2-1.5-3.4-0.7c-1.2,0.8-1.5,2.2-0.7,3.4c0.8,1.3,2.1,2,3.7,2.3c0.4,0.1,0.7,0.1,1.1,0.1
		c0.3,0,0.6,0,0.9-0.1c0-0.4,0-0.7,0-1.1c0.2-1.4,1.5-2.2,2.7-2c0.7,0.1,1.2,0.4,1.6,0.9c1.6-1.8,2.2-4,2.7-5.8
		c0.4-1.8,0.8-3.6,1-5.4h-0.1c-1.4,0.2-2.6-0.7-2.8-2c-0.1-0.4-0.1-0.8,0-1c0-0.1,0-0.1,0-0.2c0.2-1.7,1.6-3.1,3.1-3.7
		c-0.1-2.5-0.5-5-1-7.4c-0.3-1.2-0.8-3.5-2.8-4.8c-0.5-0.3-1.2-0.6-1.8-0.7C267,197.8,266,197.9,265.2,198.3z"/>
	<path fill="#1B2A54" d="M274.7,210.5c-0.5,0-1,0.1-1.4,0.3c-1.7,0.6-2.9,1.9-3.1,3.7c0,0.1,0,0.1,0,0.2c0,0.2,0,0.6,0,1
		c0.2,1.4,1.5,2.2,2.8,2h0.1c1-0.2,1.8-1.1,1.8-2c0.1,0.1,0.2,0.3,0.3,0.4c0.3,0.6,0.4,1.6,0.4,2.4c0.1,2.9-0.3,5.7-1.1,8.5
		c-0.3,1.1-0.8,2.5-1.7,3.5c-0.6,0.7-1.5,1.2-2.1,1.1c-0.1,0-0.3-0.1-0.4-0.1c-0.3-0.2-0.5-0.5-0.5-0.6c0.1-0.7-0.1-1.4-0.6-1.8
		c-0.4-0.5-0.9-0.8-1.6-0.9c-1.4-0.2-2.5,0.8-2.7,2c-0.1,0.4,0,0.7,0,1.1c0.1,0.8,0.4,1.7,0.8,2.3c0.3-0.4,0.6-0.9,0.8-1.3
		c0.8-1.1,2.3-1.4,3.4-0.6s1.4,2.3,0.6,3.4c-0.3,0.4-0.5,0.8-0.8,1.2h0.1c0.3,0,0.6,0.1,0.9,0.1c2,0,4.2-1,5.6-2.7
		c1.5-1.8,2.1-3.8,2.6-5.3c0.9-3.2,1.4-6.5,1.3-9.9c0-1.5-0.2-3-0.9-4.5C278.7,211.8,276.7,210.5,274.7,210.5z"/>
	<path fill="#1B2A54" d="M270.3,231.7c-1.1-0.8-2.6-0.5-3.4,0.6c-0.3,0.4-0.6,0.9-0.8,1.3c-2.9,4.4-4.9,9.3-5.8,14.6
		c-0.2,1.1-0.4,2.1-0.5,3.2l-0.1,0.6c0,0.5,0.1,0.9,0.3,1.3c0.3,0.6,0.8,1,1.4,1.2c0.2,0.1,0.4,0.1,0.6,0.1c0.1,0,0.2,0,0.2,0
		c1.3,0,2.3-1,2.4-2.2l0.1-0.6c0-0.5,0.1-1,0.2-1.5c0.7-5,2.5-9.8,5.3-14c0.3-0.4,0.5-0.8,0.8-1.2
		C271.6,233.9,271.3,232.5,270.3,231.7z"/>
	<path fill="#1B2A54" d="M249.9,218.2c0.3,1.4,1.6,2.1,2.9,1.8c2.3-0.5,3.9-2,5.2-3.3c0.2-0.2,0.5-0.5,0.7-0.7
		c1.1-1.1,2.1-1.5,2.5-1.3c0.1,0.1,0.2,0.3,0.3,0.4c0.1,0.6,0,1.4-0.4,1.8c-0.8,1.1-2.3,1.8-3.9,2.6l-0.8,0.4c-2.1,1.1-5,2.8-5.9,6
		c-0.4,1.3,0.4,2.6,1.7,3c0.2,0.1,0.5,0.1,0.7,0.1c1.1,0,2-0.7,2.3-1.8c0.3-1.1,1.4-2,3.5-3.1l0.8-0.4c1.9-1,4.1-2,5.6-4.1
		c1.2-1.7,1.7-3.9,1.2-5.8c-0.4-1.7-1.4-2.9-2.8-3.6c-2.4-1.2-5.4-0.4-8.1,2c-0.3,0.3-0.6,0.5-0.8,0.8c-1,1-1.8,1.8-2.7,2
		c-0.3,0.1-0.6,0.2-0.8,0.3c-0.7,0.4-1.1,1.2-1.2,1.9C249.9,217.7,249.9,218,249.9,218.2z"/>
</g>
</svg>
