<?xml version="1.0" encoding="utf-8"?>
<!-- Generator: Adobe Illustrator 19.0.0, SVG Export Plug-In . SVG Version: 6.00 Build 0)  -->
<svg version="1.2" baseProfile="tiny" id="Layer_1" xmlns="http://www.w3.org/2000/svg" xmlns:xlink="http://www.w3.org/1999/xlink"
	 x="0px" y="0px" viewBox="0 0 318.7 829.3" xml:space="preserve">
<g>
	<path fill="none" d="M143.4,55.3c-0.1,0.2-0.2,0.5-0.3,0.7c0,0,0,0,0,0C143.2,55.8,143.3,55.5,143.4,55.3l0.1-1.2
		c0.5-0.2,1-0.4,1.5-0.4v0c-0.5,0-1,0.2-1.5,0.4L143.4,55.3z"/>
	<path fill="none" d="M152.4,167.5C152.4,167.5,152.4,167.5,152.4,167.5c4.4-9.4,8.3-19.1,10.6-29.2
		C160.6,148.4,156.8,158.1,152.4,167.5z"/>
	<path fill="none" d="M144.5,68.7c-0.8-1.4-1.5-3-1.9-4.6C143,65.8,143.7,67.3,144.5,68.7c1.1,2,2.6,3.8,4,5.6c0,0,0,0,0,0
		C147,72.5,145.6,70.7,144.5,68.7z"/>
	<path fill="none" d="M152.7,79.2L152.7,79.2c0.1,0.2,0.3,0.4,0.5,0.6c0.8,1,1.5,2,2.2,3.1c0,0,0,0,0,0c-0.7-1.1-1.5-2.1-2.3-3.1
		C153,79.6,152.9,79.4,152.7,79.2z"/>
	<path fill="none" d="M164.2,52.4c-0.5,1.7-1.4,2.4-3.3,1.4c-0.2-0.1-0.3-0.2-0.5-0.3c0.2,0.1,0.3,0.2,0.5,0.3
		C162.8,54.8,163.7,54.1,164.2,52.4z"/>
	<path fill="none" d="M211.1,102c1-16.4-0.9-33.1-6.9-48.2C210.2,68.9,212,85.6,211.1,102z"/>
	<path fill="none" d="M192.1,33.5c-1.2-1.2-2.5-2.3-3.8-3.3c-1.3-1-2.8-1.9-4.3-2.7c1.5,0.8,3,1.7,4.3,2.7
		C189.7,31.2,190.9,32.3,192.1,33.5z"/>
	<path fill="none" d="M169.1,25.7c4.7-2,10.1-0.8,14.8,1.7C179.2,24.9,173.8,23.7,169.1,25.7c-0.7,0.3-1.3,0.8-1.9,1.3
		C167.8,26.5,168.4,26,169.1,25.7z"/>
	<path fill="none" d="M198.8,173.4L198.8,173.4c-0.1,0-0.1-0.1-0.2-0.2C198.7,173.3,198.7,173.4,198.8,173.4z"/>
	
		<rect x="98.6" y="200.3" transform="matrix(0.8472 0.5312 -0.5312 0.8472 121.5041 -21.8796)" fill="none" width="0.3" height="0"/>
	<path fill="none" d="M196.9,170.2c-0.4-2.2,0.1-4.9,0.8-7c3.3-10.2,6.4-20.5,8.8-30.9c-2.4,10.4-5.5,20.7-8.8,30.9
		C197,165.4,196.5,168.1,196.9,170.2z"/>
	<path fill="none" d="M105.4,389.7c0.1,2,0.3,4,0.4,5.9c0,0,0,0,0,0C105.7,393.6,105.5,391.6,105.4,389.7
		C105.4,389.7,105.4,389.7,105.4,389.7z"/>
	<path fill="none" d="M140.3,255.8C140.3,255.8,140.3,255.8,140.3,255.8c0.3-0.7,0.6-1.5,0.9-2.3
		C140.9,254.3,140.6,255.1,140.3,255.8z"/>
	<path fill="none" d="M147.8,219.1c0.5-13.6-1.5-27.3-5.8-40.3c0,0,0,0,0,0C146.3,191.8,148.3,205.5,147.8,219.1
		c0,0.4,0,0.9,0.1,1.3c0,0,0,0,0,0C147.8,220,147.8,219.6,147.8,219.1z"/>
	<polygon fill="none" points="160.6,198.3 160.6,198.3 161.8,200.1 	"/>
	<path fill="none" d="M89.7,88.8L89.7,88.8c-0.8,4.5-1.2,9-1.3,13.6c0,0.1,0,0.2,0,0.2l0,0c0-0.1,0-0.2,0-0.2
		C88.5,97.9,88.9,93.3,89.7,88.8z"/>
	<path fill="none" d="M149.7,231.4c1.4-3.7,2.7-7.5,4-11.3c0.3-0.8,0.5-1.6,0.8-2.3c-0.3,0.8-0.5,1.6-0.8,2.3l-0.4-0.1c0,0,0,0,0,0
		l0.4,0.1C152.4,224,151,227.7,149.7,231.4z"/>
	<path fill="none" d="M99.7,385.6C99.7,385.6,99.7,385.6,99.7,385.6c-0.4-6.9-0.8-13.7-1.3-20.6c0,0,0,0,0,0
		C98.9,371.9,99.3,378.7,99.7,385.6z"/>
	<path fill="none" d="M103.8,360c-1.2-27.2-1.7-54.7-5-81.7c0,0,0,0,0,0C102.1,305.3,102.6,332.8,103.8,360
		C103.8,360,103.8,360,103.8,360z"/>
	<path fill="none" d="M197.5,171.9c0,0,0.1,0.1,0.1,0.1C197.5,172,197.5,172,197.5,171.9z"/>
	<path fill="none" d="M70,321.5c-1.9-9.9-3.6-19.3-4.7-28.9c-7.8,8-12,19.5-11.1,30.6c1.1,12.7,9,24.9,20.2,31
		c0.4,0.2,0.7,0.4,1.1,0.5c-0.5-4.4-1.2-9.2-2-14.4C72.3,333.9,71.1,327.6,70,321.5z"/>
	<path fill="none" d="M86.1,819.1c-1.9,1.6-4.6,2.1-6.9,1.3c-0.8-0.3-1.6-0.8-2.1-1.5c-0.4-0.6-0.5-1.3-0.5-2c0,0.7,0.1,1.4,0.5,2
		c0.5,0.7,1.3,1.2,2.1,1.5C81.5,821.3,84.2,820.7,86.1,819.1c1.6-1.3,2.6-3.6,2.6-5.8C88.7,815.5,87.6,817.8,86.1,819.1z"/>
	<path fill="none" d="M128.5,312.9c1.6,1.4,3.5,3.1,3.3,5.2c-0.1,0.6-0.3,1.1-0.6,1.5c0.3-0.4,0.5-0.9,0.6-1.5
		C132.1,316,130.1,314.3,128.5,312.9c-2-1.8-3.8-3.8-5.3-6.1c0,0,0,0,0,0C124.7,309.1,126.5,311.1,128.5,312.9z"/>
	<path fill="none" d="M130,819.3c-0.7-0.9-0.8-2.2-0.5-3.2c0.5-2.3,2.2-4.5,3.9-6c0.5-0.5,1.1-0.8,1.8-1.1c0.9-0.4,2-0.5,2.9-0.3
		c-0.9-0.2-2-0.1-2.9,0.3c-0.6,0.3-1.3,0.6-1.8,1.1c-1.7,1.5-3.3,3.7-3.9,6C129.2,817.1,129.3,818.4,130,819.3
		c0.5,0.7,1.3,1.1,2.1,1.4c0.3,0.1,0.6,0.2,0.9,0.2c-0.3,0-0.6-0.1-0.9-0.2C131.3,820.4,130.5,820,130,819.3z"/>
	<path fill="none" d="M100,391.2c0.1,1,0.1,2,0.2,3c0,0,0,0,0,0C100.1,393.2,100.1,392.2,100,391.2C100,391.2,100,391.2,100,391.2z"
		/>
	<path fill="none" d="M95.9,206.3L95.9,206.3c0,0,3.8,14,7.4,23.7c2.6,7.2,6.2,15.1,8.9,20.7c0,0,0,0,0,0
		c-2.7-5.7-6.2-13.6-8.9-20.7C99.7,220.3,95.9,206.3,95.9,206.3z"/>
	<path fill="none" d="M98.1,273.3c-0.3-1.8-0.5-3.7-0.8-5.5h0C97.6,269.7,97.9,271.5,98.1,273.3C98.1,273.3,98.1,273.3,98.1,273.3z"
		/>
	<path fill="none" d="M123.2,306.8C123.2,306.8,123.2,306.8,123.2,306.8c1.1-0.7,2.1-1.4,3.1-2.1c0,0,0,0,0,0
		C125.3,305.4,124.3,306.1,123.2,306.8z"/>
	<path fill="none" d="M154.8,28.9c0.1-0.9,0.3-1.9,0.5-3C155.1,27,154.9,28,154.8,28.9c-0.3,2.5-0.7,15.3,3.1,21.8
		C154.1,44.2,154.5,31.4,154.8,28.9z"/>
	<path fill="none" d="M131.1,299.8c-0.7,1.3-1.7,2.4-2.8,3.4c0,0,0,0,0,0C129.4,302.2,130.4,301.1,131.1,299.8
		c1.4-2.5,1.5-5.7,0.5-8.3C132.6,294.1,132.4,297.3,131.1,299.8z"/>
	<path fill="none" d="M120.4,323.7c-2.8-0.4-5.5-2.7-5.5-5.5v0C114.9,320.9,117.6,323.2,120.4,323.7c2,0.3,4-0.1,5.8-0.8l0,0
		C124.3,323.6,122.4,324,120.4,323.7z"/>
	<path fill="none" d="M118.4,300.3c0.3,0.8,0.7,1.6,1.2,2.3c0,0,0,0,0,0C119.1,301.9,118.7,301.2,118.4,300.3z"/>
	<path fill="none" d="M175.3,93.6c0.3,2.9,0.5,5.9,0.6,8.8c0,0.1,0,0.2,0,0.3c0,0,0,0,0,0c0-0.1,0-0.2,0-0.3
		C175.8,99.5,175.6,96.5,175.3,93.6z"/>
	<path fill="#FFD576" d="M307.3,241.7c0.4,0.5,0.7,1.2,0.6,1.9c0,0.1,0.1,0.3,0.5,0.6c0.1,0.1,0.2,0.1,0.4,0.1
		c0.7,0.1,1.6-0.3,2.2-1.1c0.9-1,1.3-2.4,1.7-3.6c0.8-2.8,1.2-5.7,1.1-8.7c0-0.9-0.1-1.8-0.4-2.5c-0.1-0.2-0.2-0.3-0.3-0.4
		c-0.1,1-0.9,1.9-1.9,2.1c-0.2,1.9-0.5,3.8-1,5.6C309.7,237.6,308.9,239.9,307.3,241.7z"/>
	<path fill="#FFD576" d="M300.9,244c-1.6-0.3-3-1.1-3.8-2.4c-0.8-1.2-0.4-2.7,0.7-3.5c1.2-0.8,2.7-0.4,3.5,0.7
		c0.1,0.1,0.3,0.2,0.4,0.2c0.5,0.1,1.1-0.1,1.5-0.4c1.1-0.9,1.7-2.7,2-4.2c0.6-2.5,1-5,1.1-7.6c0.1-3.5-0.2-7-0.9-10.4
		c-0.1-0.6-0.3-1-0.4-1.3c-0.5,0.6-1.2,1-2,1c0,0,0,0,0,0c0,0-0.1,0-0.1,0c-0.1,0-0.3,0-0.4,0c-0.1,0-0.2,0-0.3,0
		c-1.4-0.2-2.3-1.4-2.2-2.8c0-0.1,0-0.2,0-0.3c1.8-10.3,2.2-20.8,1.2-31.2c0.2,14.6-3.5,29.4-10.6,42.1c-0.7,1.3-1.5,2.6-2.3,3.9
		c0.2-0.1,0.5-0.3,0.8-0.3c0.9-0.2,1.8-1.1,2.8-2.1c0.3-0.3,0.6-0.5,0.8-0.8c2.7-2.5,5.8-3.3,8.3-2.1c1.5,0.7,2.5,2,2.9,3.7
		c0.5,2,0,4.3-1.2,6c-1.6,2.1-3.8,3.2-5.8,4.2l-0.8,0.4c-2.1,1.1-3.2,2.1-3.6,3.2c-0.3,1.1-1.3,1.8-2.4,1.8c-0.2,0-0.5,0-0.7-0.1
		c-1.3-0.4-2.1-1.8-1.7-3.1c0.9-3.3,3.9-5.1,6.1-6.2l0.8-0.4c1.6-0.8,3.1-1.6,4-2.7c0.4-0.5,0.5-1.3,0.4-1.9c0-0.2-0.1-0.4-0.3-0.4
		c-0.4-0.2-1.5,0.2-2.6,1.3c-0.2,0.2-0.5,0.5-0.7,0.7c-1.3,1.3-3,2.9-5.3,3.4c-1.4,0.3-2.7-0.6-3-1.9c0-0.2-0.1-0.4,0-0.7
		c-2,3.4-3.8,6.7-5,10.2c-1.4,4.4-1.6,10.6,1.9,14.6l0.5,0.5c0.2,0.3,0.4,0.6,0.5,0.9l12.8,5.2c1-5.3,3-10.4,6-15
		c-0.5-0.7-0.7-1.6-0.8-2.4c-0.3,0-0.6,0.1-0.9,0.1C301.6,244.1,301.3,244.1,300.9,244z"/>
	<path fill="#FFFFFF" d="M280.4,260.1c-0.3,0-0.3,0.1-0.4,0.1c-0.3,0.2-0.7,1.2-1,2c-0.3,0.7-0.6,1.5-1,2.2c0.7,0.6,1.4,1.2,2.1,1.8
		c2.7,2.4,5.2,4.5,7.8,6.3c2.3,1.6,4.7,3,7.1,4.2c1.3-2.9,2.6-5.8,3.8-8.7c-0.6-0.2-1.1-0.7-1.4-1.2l-14.8-6
		C282.2,260.5,281.2,260.1,280.4,260.1z"/>
	<path fill="#446EB7" d="M254.3,303c-0.8,0.2-1.6,0.3-2.5,0.3c-3.4,0-7-1.7-9.6-4.6c-2.7-3.1-4.1-6.9-5.4-10.2
		c-6-16-13.5-35.9-25.3-52.1c-11.1-15.3-25.1-25.8-40-30.1c5.2,8.6,11.1,19.1,16.1,30.1c0,0,0,0.1,0,0.1c0,0,0,0.1,0.1,0.1
		c0,0,0,0.1,0,0.1c0,0.1,0,0.2,0.1,0.2c0,0.1,0,0.2,0,0.3c0,0.1,0,0.1,0,0.2c0,0.1,0,0.2,0,0.3c0,0.1,0,0.1,0,0.2
		c0,0.1,0,0.2-0.1,0.3c0,0.1,0,0.1-0.1,0.2c0,0.1-0.1,0.2-0.1,0.2c0,0.1-0.1,0.1-0.1,0.2c0,0.1-0.1,0.1-0.2,0.2
		c0,0.1-0.1,0.1-0.2,0.2c-0.1,0.1-0.1,0.1-0.2,0.2c-0.1,0-0.1,0.1-0.2,0.1c-0.1,0-0.2,0.1-0.2,0.1c0,0-0.1,0-0.1,0.1
		c0,0-0.1,0-0.1,0c0,0-0.1,0-0.1,0.1c-13.2,4.5-26,10.2-37.9,17.2c-2.8,1.6-5.5,3.3-8.1,4.9c-0.4,0.3-0.8,0.5-1.2,0.8
		c14.3-0.1,28.6-0.1,42.9-0.2l0.2-0.2c0.7-0.8,1.9-1,2.8-0.5c1,0.4,1.5,1.4,1.4,2.5c-3,32.4-4.9,54.2-4.7,82.7c0.1,0,0.2,0,0.2,0.1
		c0.9,0.2,1.7,0.7,2.5,1.3c0.2-1.2,0.4-2.4,0.6-3.6l0.1-0.5c0.7-4.4,1.5-9,2.2-13.3c1.4-8.2,2.9-16.7,4-25.1
		c2.7-20,2.9-35.3,0.5-49.4c-0.2-1.4,0.7-2.6,2.1-2.9c1.4-0.2,2.6,0.7,2.9,2.1c2.3,14,2.3,29.1-0.2,48.4c0.6,0.2,1.1,0.6,1.4,1.3
		c4.6,9.5,9.4,19.4,16.2,27.5c7.4,8.9,16.5,14.5,25.6,15.9c14.1,2.1,29.8-5.9,39.9-20.4c9.4-13.4,13.3-29.7,17.2-45.5
		c-1-0.4-2.1-0.8-3-1.3c-3-1.4-5.9-3-8.7-5c-2.8-2-5.4-4.2-8.2-6.6c-1.2-1-2.4-2.1-3.6-3.1l-8.9,24.1
		C263.1,294.3,260.5,301.4,254.3,303z M285.7,289.4c0.3-0.4,0.6-0.8,1-1.2c0.6-0.7,1.6-1.1,2.5-0.9c0.9,0.2,1.7,0.9,1.9,1.8
		c0.1,0.5,0.3,1,0.4,1.6c0.2,0.9-0.1,1.9-0.8,2.5c-0.5,0.4-1.2,0.7-1.8,0.7c-0.6,0-1.2-0.2-1.7-0.5c-0.3-0.1-0.6-0.2-0.8-0.4
		C285.1,292,284.8,290.5,285.7,289.4z M280.6,300.8c0.5-1.2,1.7-2.1,3.1-2.2c1.8-0.1,3.4,1,3.7,2.7c0.3,1.7-0.7,3.3-2.4,3.8
		c-0.4,0.1-0.8,0.2-1.2,0.2c-0.8,0-1.6-0.3-2.2-0.8c-0.2-0.1-0.4-0.2-0.5-0.3C280,303.5,279.8,301.9,280.6,300.8z M276,312.2
		c0,0,0.1-0.1,0.1-0.1c0.1-0.1,0.2-0.1,0.3-0.1c1.1-0.5,2.4-0.3,3.4,0.5c1,0.7,1.6,1.9,1.5,3.1c-0.1,1.2-0.8,2.3-2,2.9
		c-0.5,0.3-1.1,0.4-1.6,0.4c-0.6,0-1.3-0.2-1.8-0.5c-1-0.7-1.6-1.8-1.6-3.1C274.3,313.9,274.9,312.8,276,312.2z"/>
	<path fill="#446EB7" d="M154.8,28.9c-0.3,2.5-0.7,15.3,3.1,21.8c0.5,0.8,1,1.4,1.5,2l0,0c0.3,0.3,0.6,0.5,0.9,0.7
		c0.2,0.1,0.3,0.2,0.5,0.3c1.9,1.1,2.8,0.4,3.3-1.4c1.4-5.2-1.7-20.1,3.1-25.3c0.5-0.6,1.1-1,1.9-1.3c4.7-2,10.1-0.8,14.8,1.7
		c0,0,0.1,0,0.1,0.1c1.5,0.8,3,1.7,4.3,2.7c1.4,1,2.6,2.1,3.8,3.3c3.6,3.6,6.3,8,8.7,12.6c1.3,2.5,2.4,5.1,3.4,7.6
		c6,15.2,7.8,31.9,6.9,48.2c-0.1,0.9-0.1,1.8-0.2,2.7c-0.7,9.3-2.3,18.5-4.4,27.6c-2.4,10.4-5.5,20.7-8.8,30.9
		c-0.7,2.2-1.2,4.9-0.8,7c0.1,0.6,0.3,1.2,0.6,1.7c0,0,0.1,0.1,0.1,0.1c0.3,0.5,0.6,0.9,1,1.2c0.1,0.1,0.1,0.1,0.2,0.2
		c0-0.1,0.1-0.1,0.1-0.2c13.1-31,19.8-63.9,19.6-95.2c-0.2-24.3-5.7-41.4-16.7-52.5c-11.1-11.2-27.7-14.2-42.2-7.8
		c-0.5,0.2-1,0.4-1.4,0.7c-0.2,0.1-0.5,0.2-0.7,0.2c-0.8,2.4-1.6,5-2.1,7.4C155.1,27,154.9,28,154.8,28.9z"/>
	<path fill="#1B2A54" d="M197.6,172.1c0,0-0.1-0.1-0.1-0.1c-0.3-0.5-0.4-1.1-0.6-1.7c-0.4-2.2,0.1-4.9,0.8-7
		c3.3-10.2,6.4-20.5,8.8-30.9c2.1-9.1,3.7-18.3,4.4-27.6c0.1-0.9,0.1-1.8,0.2-2.7c1-16.4-0.9-33.1-6.9-48.2c-1-2.6-2.2-5.2-3.4-7.6
		c-2.3-4.5-5.1-8.9-8.7-12.6c-1.2-1.2-2.5-2.3-3.8-3.3c-1.3-1-2.8-1.9-4.3-2.7c0,0-0.1,0-0.1-0.1c-4.7-2.5-10.1-3.7-14.8-1.7
		c-0.7,0.3-1.3,0.8-1.9,1.3c-4.8,5.2-1.7,20-3.1,25.3c-0.5,1.7-1.4,2.4-3.3,1.4c-0.2-0.1-0.3-0.2-0.5-0.3c-0.3-0.2-0.6-0.4-0.9-0.7
		l-0.4,0.3c3.2,2.9,6.1,6.1,8.4,9.8c2.7,4.2,5,8.9,6.7,14c0.4,1.3,0.9,2.7,1.2,4.1c0.3,1,0.5,2.1,0.8,3.2c0.7,0.1,1.4,0.1,2.2,0.2
		c0.3,0,0.6,0.1,0.9,0.3l0.4,0.2c0.7,0.4,1.2,1.2,1.3,2.1c0.1,1.4,0.1,2.6,0.2,3.8c0.2,2.7,0.3,5.1,0.2,9.5l0,0.3
		c0,1.4-0.1,3.6-0.7,5.4c-0.3,1-1.2,1.6-2.3,1.7c-0.1,8.2-1.1,16.4-2.8,24.4c-0.7,3.2-1.5,6.5-2.5,9.7c-1.5,4.8-3.1,9-4.9,12.8
		c0,0,0,0.1,0,0.1c0,0,0,0.1,0,0.1c0,0,0,0,0,0c0,0,0,0,0,0c-2.5,5.1-5.5,9.6-8.9,13.3c0,0-0.1,0.1-0.1,0.1c0,0,0,0,0,0
		c0,0.1-0.1,0.1-0.2,0.2c-1.5,1.6-3.1,3-4.7,4.3c0.1,0.3,0.1,0.5,0,0.8c-0.1,0.5-0.1,0.9-0.2,1.4c-0.1,0.9-0.1,1.8-0.1,2.6
		c14.3,0.3,28.8,0.1,43.4-0.4c0.5-1.2,1-2.3,1.5-3.5c-0.1,0-0.1-0.1-0.2-0.2C198.2,172.9,197.8,172.5,197.6,172.1z"/>
	<path fill="#446EB7" d="M145.6,448.8c-0.2,0-0.4,0.1-0.6,0.1c-0.4,0-0.8-0.1-1.1-0.3c-0.8,0-1.7-0.5-2.1-1.2
		c-2.1-3.7-4-8.1-5.7-12.5c-1-2.5-2-5-3.1-7.3c-1.8,7.9-4.8,15.4-11.3,20.3c-0.1,0.1-0.2,0.2-0.3,0.2c0,0-0.1,0.1-0.2,0.1
		c-0.4,0.3-0.9,0.4-1.4,0.4c-0.7,0-1.3-0.3-1.8-0.7c-15.5-2.4-30.1-7.1-43.3-14c-13.8,32-19.3,70.3-16.5,113.7
		c2.6,38.8,11.3,77.4,19.8,114.7l46.7-0.4c0,0,0,0,0.1,0c0,0,0,0,0,0c0,0,0,0,0,0l5.5-0.1c0.1,0,0.2,0,0.3,0c0.1,0,0.2,0,0.3,0
		c0,0,0,0,0,0c2,0,3.9,0,5.9,0.1c13.5,0.1,27,0.3,40.4,0.4c0.4-0.2,0.8-0.4,1.3-0.4c0.5,0,1,0.2,1.4,0.4c1.2,0,2.3,0,3.5,0
		c8.5-37.3,17.3-75.9,19.8-114.7c2.8-42.7-2.5-80.3-15.6-111.7c-6,1.7-12.1,3.7-18.1,5.7C161.7,444.1,153.5,446.9,145.6,448.8z
		 M182.9,450.7c1.3-0.4,2.7,0.4,3.1,1.7c11.7,42.5,13.7,87.9,6,131.3c-0.2,1.2-1.3,2.1-2.5,2.1c-0.1,0-0.3,0-0.4,0
		c-1.4-0.2-2.3-1.5-2-2.9c7.6-42.6,5.6-87.3-5.9-129C180.8,452.5,181.6,451.1,182.9,450.7z M174.7,647.6c4.2-17,7.7-34.3,10.4-51.6
		c0.2-1.4,1.5-2.3,2.9-2.1c1.4,0.2,2.3,1.5,2.1,2.9c-2.7,17.4-6.3,34.9-10.5,52c-0.3,1.1-1.3,1.9-2.4,1.9c-0.2,0-0.4,0-0.6-0.1
		C175.2,650.3,174.3,649,174.7,647.6z"/>
	<path fill="#446EB7" d="M169.9,404.1c0.1,1.3-0.9,2.4-2.2,2.6c-0.7,0.1-16.1,1.9-24.5,2c-1.2,0-2.3,0-3.5,0
		c-5.9,0-11.8-0.2-17.5-0.4l-35-1.2c-1.2,0-2.2-0.9-2.4-2.1l-0.8-4.6c-1.1-0.1-2.3-0.3-3.4-0.4c-1.5,9.8-4.1,18.9-7.8,27
		c0.7,0.4,1.4,0.8,2.1,1.1c13.6,7.4,28.6,12.4,44.8,14.8c5.9-5.1,8-13.5,9.5-21.9c0.1-0.4,0.1-0.9,0.2-1.3c0.2-1.4,0.5-2.9,0.7-4.3
		l0.1-0.5c0.2-1.4,1.5-2.3,2.9-2.1c1.4,0.2,2.3,1.5,2.1,2.9l-0.1,0.5c-0.2,1.2-0.4,2.4-0.6,3.6c0.2,0.2,0.4,0.4,0.6,0.7
		c2.1,3.7,4,8.1,5.7,12.5c1.5,3.7,3.1,7.5,4.8,10.7c7.4-1.8,15.1-4.4,22.7-6.9c6.6-2.2,13.4-4.4,20-6.2c0.3-0.2,0.6-0.2,1-0.3
		c0.2,0,0.3-0.1,0.5-0.1c-5.8-12.9-8.7-27.7-8.6-45c-0.2,0.1-0.4,0.2-0.6,0.3c-3.5,1.5-7.1,2.8-10.7,3.8c0,1.1,0,2.4,0.1,3.7
		C169.7,397,169.8,402.1,169.9,404.1z"/>
	<path fill="#FFD576" d="M181.5,379.3c0.4-0.6,1.1-1,1.9-1c1.7-1,2.6-1.9,2.9-3c0.1-0.3,0-0.8-0.2-1.2c-0.2-0.4-0.5-0.6-0.6-0.6
		c-0.5,0.2-1.1,0.2-1.6,0.1c-1.2,0.6-2.6,1-4.1,1.4c-0.2,0-0.4,0.1-0.6,0.1c0,1.7,0,3.5,0.1,5.2C180,380.1,180.8,379.7,181.5,379.3z
		"/>
	<path fill="#FFD576" d="M178.4,357c-0.9,2-2.8,3.6-4.9,3.9c-2.8,0.4-5.7-1-7.6-3.7c-0.3-0.4-0.5-0.8-0.7-1.1
		c-0.3-0.5-0.5-1-0.7-1.5c-0.8-2.1-0.9-4.4-1.1-6.3c-0.1-1.8,0.3-3.9,0.7-6c0.2-0.9,0.4-1.8,0.5-2.7c0-0.6,0-1.3,0-1.9
		c-1.8,1.1-2.9,3.6-3.3,5.9c-0.2,1.2-0.3,2.5-0.5,3.8c-0.2,2.4-0.4,4.9-1.3,7.3c-1.9,5.3-6.7,9.5-13.1,11.6
		c-4.9,1.6-10,1.8-14.9,1.9c0.8,6,1.5,12.1,2.3,18.1c0.1,0,0.1,0,0.2,0c10.3,1.8,21.3,1.4,31.7-1.1c0.2,0,0.4-0.1,0.6-0.2
		c4.1-1,8.1-2.4,12-4.1c0.3-0.1,0.6-0.3,1-0.4c0-1.7,0-3.5-0.1-5.2c-1.1,0.3-2.3,0.5-3.4,0.7l-0.1,0c-0.1,0-0.3,0-0.4,0
		c-1.2,0-2.2-0.9-2.5-2.1c-0.2-1.4,0.7-2.7,2-2.9l0.1,0c1.2-0.2,2.5-0.4,3.6-0.7c1.5-0.4,2.7-0.8,3.7-1.3c2.1-1.1,3.6-2.9,3.8-4.7
		c0.1-0.9-0.2-1.9-0.7-2.6c-0.1-0.1-0.2-0.2-0.3-0.3c-0.4,0.3-1,0.5-1.5,0.5c-0.5,0-0.9-0.1-1.3-0.4c-1.2-0.7-1.5-2.3-0.8-3.4
		c0.2-0.3,0.3-0.6,0.5-0.9c0.4-0.8,0.5-1.6,0.5-2.4c0-0.7-0.3-1.5-0.8-2.1c-0.2-0.3-0.6-0.7-1.1-0.8c-0.2-0.1-0.4-0.1-0.7,0
		c-0.6,0.1-1.2,0.6-1.2,1c0,0,0,0,0,0.1C179,354.2,179,355.6,178.4,357z M180.6,363.1c0.6,1.2,0.1,2.7-1.1,3.4
		c-1.6,0.8-3.4,1.4-5.6,1.7c-0.1,0-0.3,0-0.4,0c-1.2,0-2.3-0.9-2.5-2.1c-0.2-1.4,0.7-2.6,2.1-2.9c1.7-0.3,3-0.7,4.1-1.3
		C178.5,361.4,180,361.9,180.6,363.1z"/>
	<path fill="#FFFFFF" d="M181,267.5c-16.2,0.1-32.3,0.1-48.5,0.2c-1.4,0-2.7,0-4.1,0l-31,0.1c0.3,1.8,0.5,3.7,0.8,5.5
		c0.1,0,0.2,0,0.3,0c20.6,0,51.5,0,70.7,0c0,0,0,0,0,0c0.7,0,1.3,0.3,1.8,0.8c0.4,0.5,0.7,1.1,0.7,1.7l2.4,0.3
		c-1.9,18-3.1,36.3-3.5,54.6c-0.2,8.7-0.2,17.4-0.2,24.2c0.7,0.7,1.5,1.2,2.4,1.1c0.4-0.1,0.8-0.4,1-0.9c0.1-0.2,0.1-0.4,0.1-0.5
		c-0.6-0.8-0.6-1.8-0.1-2.6c0.3-1.7,1.4-3.1,2.9-4C176.4,319.8,178.1,298.3,181,267.5z"/>
	<path fill="#F4D47B" d="M145.7,733.7c2,15.6,4.1,31.7,5.3,47.7c5.1,0.5,11.3,0.7,15.9,0.4c0.3-0.1,0.7-0.2,1-0.2
		c6-35.2,7-71.6,7.9-106.8c0.1-2.5,0.1-5,0.2-7.6c-12.2-0.1-24.4-0.2-36.6-0.3C139.9,689.2,142.9,711.8,145.7,733.7z"/>
	<path fill="#FFFFFF" d="M175.9,102.4c0,0.1,0,0.2,0,0.3c0,0,0.1,0,0.1,0c0.1,0,0.2,0,0.3,0c0.1-0.8,0.1-1.7,0.1-2.3l0-0.3
		c0.1-4.2,0-6.4-0.2-9c0-0.6-0.1-1.3-0.1-1.9c-0.1,0-0.3,0-0.4,0c-0.4,0-0.7-0.1-1.1-0.1c0.3,1.6,0.5,3.2,0.7,4.7
		C175.6,96.5,175.8,99.5,175.9,102.4z"/>
	<path fill="#B0D8DB" d="M155.5,164.5c3.1-3.3,5.8-7.4,8.1-12.1c0,0,0,0,0,0c0,0,0,0,0-0.1c1.8-3.6,3.3-7.5,4.7-12.1
		c0.9-3.1,1.8-6.2,2.4-9.3c1.7-7.7,2.6-15.5,2.7-23.3c-3-0.1-5.9-0.1-8.7-0.1c0.8,5.7,1,11.5,0.5,17.3c-0.4,4.6-1.2,9.1-2.2,13.5
		c-2.4,10-6.2,19.8-10.6,29.2c1-0.9,2-1.8,2.9-2.7c0,0,0,0,0.1-0.1l0.1-0.1C155.4,164.6,155.5,164.5,155.5,164.5z"/>
	<path fill="#FFFFFF" d="M163.2,92.3c1.4,0,2.5,1.1,2.5,2.5s-1.1,2.5-2.5,2.5h-0.8c0.5,1.7,1,3.4,1.4,5.2c0.2,0,0.3,0,0.5,0
		c3.8,0,7.7,0,11.7,0.1c0-0.1,0-0.2,0-0.3c-0.1-2.9-0.3-5.9-0.6-8.8c-0.2-1.6-0.4-3.2-0.7-4.7c-0.2,0-0.5,0-0.7-0.1
		c-5.1-0.5-10.3-0.8-15.5-0.9c0.8,1.4,1.5,2.9,2.1,4.4H163.2z"/>
	<path fill="#FFFFFF" d="M153.3,220l0.4,0.1c0.3-0.8,0.5-1.6,0.8-2.3c2.3-6.8,4.5-13.5,6.1-19.5l0,0c0,0,0,0,0,0l1.2,1.9l0.2,0.2
		c1.9,3.5,3.1,5.9,3.1,5.9s-3.8,14-7.4,23.7c-2.6,7.2-6.2,15.1-8.9,20.8c10.5-5.9,21.6-10.9,33-14.9c-5.6-12-12.2-23.2-17.5-31.8
		c-0.2-0.2-0.4-0.5-0.5-0.9c-1.1-1.8-2.2-3.5-3.2-5.2c-0.5,1.6-1,3.3-1.6,5.1C157.3,208.9,155.3,214.5,153.3,220z"/>
	<path fill="#B0D8DB" d="M144.5,68.7c1.1,2,2.6,3.8,4,5.6c0.7,0,1.4,0,2.1,0l5.5-0.1c2.6,0,5.1-0.1,7.1-0.1c0.4,0,0.7,0.1,1,0.2
		c-1.3-1.1-2.7-2.1-4.2-3.1c-0.6-0.4-1.2-0.8-1.8-1.2c-3.4-2.4-7.1-5.4-9.2-9.6c-0.4-0.7-0.8-1.5-1.1-2.2c-1.2,1.4-2.6,2.4-4.5,3.6
		c-0.4,0.2-0.8,0.5-1.2,0.7c0.1,0.6,0.2,1.1,0.3,1.7C143,65.8,143.7,67.3,144.5,68.7z"/>
	<path fill="#B0D8DB" d="M163.3,79.1c-2,0-4.5,0.1-7.1,0.1l-3.5,0.1c0.1,0.2,0.3,0.4,0.4,0.6c0.8,1,1.5,2,2.3,3.1c0.5,0,1.1,0,1.6,0
		c4.6,0,9.2,0.3,13.8,0.6c0-0.5-0.1-0.9-0.2-1.3c-0.5-1.6-1.6-3.2-3.3-5c-0.6-0.7-1.3-1.4-2-2c0.3,0.4,0.4,0.8,0.4,1.3
		C165.8,77.9,164.7,79.1,163.3,79.1z"/>
	<path fill="#1B2A54" d="M161.2,65.9C161.2,65.9,161.2,65.9,161.2,65.9c-2.4-2.3-4.8-4.6-7.2-6.9C155.7,61.8,158.4,64,161.2,65.9z"
		/>
	<path fill="#1B2A54" d="M149.6,786.3c-7.6,5.2-14.2,11.7-19.4,19.3c-1.7,2.4-3.5,5.3-4.2,8.5c-0.6,3,0,5.9,1.6,7.7
		c1.5,1.7,4.3,2.7,7.3,2.6c4.7-0.2,8.7-2.6,11.3-4.5c3.5-2.7,6.4-6.3,9-9.7l0.3-0.4c2.3-3,4.9-6.4,8.8-8.1c0.5-0.2,1.1-0.4,1.6-0.6
		c0.8-0.3,1.6-0.5,2.1-0.9c1.2-1,1.5-3.1,1.7-5.3c0.2-2,0.3-3.9-0.2-5.5c-0.3-1.2-1-2.2-1.8-2.6c-1.8,0.1-3.8,0.2-6,0.2
		C157.7,786.9,153.3,786.7,149.6,786.3z M138.9,818.9c-1.5,1.5-3.8,2.2-5.9,1.9c-0.3,0-0.6-0.1-0.9-0.2c-0.8-0.2-1.6-0.7-2.2-1.4
		c-0.7-0.9-0.8-2.2-0.5-3.2c0.5-2.3,2.2-4.5,3.9-6c0.5-0.4,1.1-0.8,1.8-1.1c1-0.4,2-0.5,2.9-0.3c0.6,0.1,1.1,0.4,1.6,0.9
		C142.2,812,141.3,816.6,138.9,818.9z"/>
	<path fill="#1B2A54" d="M155.6,56.5c-1.3-1.1-2.6-2.1-3.9-3c0,0.3,0.1,0.6,0.2,1c0.3,1.1,1,2.3,1.7,3.7c0.2,0.3,0.3,0.6,0.5,0.9
		c2.4,2.3,4.8,4.6,7.2,6.9c0.6,0.4,1.1,0.8,1.7,1.2c0.8,0.6,1.7,1.2,2.5,1.8c-0.6-1.2-1.3-2.3-2-3.4
		C161.2,62.2,158.6,59.1,155.6,56.5z"/>
	<path fill="#1B2A54" d="M98.8,278.3c3.3,27,3.8,54.4,5,81.7c0,0,0,0,0.1,0c3.5-0.1,7.3-0.3,11.9-0.7c0.4-0.2,0.8-0.4,1.3-0.4
		c1.4,0,2.5,1.1,2.5,2.5c0,0.1,0,0.2,0,0.3l0,1.2l8.9-0.6c0.8,0,1.5,0.3,1.9,0.8c4.9-0.1,9.9-0.2,14.5-1.7c4.9-1.6,8.6-4.8,10-8.5
		c0.7-1.8,0.9-3.9,1-6c0.1-1.4,0.3-2.8,0.5-4.2c0.9-5.3,3.9-9.2,7.8-10.2c0.2,0,0.3-0.1,0.5-0.1c0.6-24.7,1.5-46.6,1.8-54
		C147.4,278.4,118.5,278.4,98.8,278.3z M131.1,333.2c-1.7,2.5-4.5,4.4-7.6,5.2c-1.1,0.3-2.2,0.4-3.4,0.4c-3.7,0-7.5-1.5-10.2-4.1
		c-3.5-3.4-5-8.7-3.8-13.5c0.6-2.4,1.7-4.5,2.9-6.4l0.5,0.2c0,0,0-0.1,0-0.1l-0.4-0.3l0.1-0.1c3.3-5.4,6.7-9.3,10.4-11.9
		c-0.5-0.7-0.9-1.5-1.2-2.3c-0.6-1.6-0.9-3.3-0.8-5c0.1-1.1,0.3-2.2,0.8-3.1c1.3-2.3,4.3-3.2,6.9-3.8c1.2-0.3,2.6-0.6,3.8-0.1
		c0.9,0.4,1.5,1.2,2,2.1c0.2,0.4,0.4,0.7,0.5,1.1c1,2.7,0.9,5.8-0.5,8.3c-0.7,1.3-1.7,2.4-2.8,3.4c-0.3,0.6-0.8,1.1-1.5,1.3
		c-0.2,0.1-0.3,0.1-0.5,0.2c-1,0.7-2.1,1.4-3.1,2.1l0,0l0,0c1.5,2.3,3.3,4.3,5.3,6.1c1.6,1.4,3.5,3.1,3.3,5.2
		c-0.1,0.6-0.3,1.1-0.6,1.5c-0.2,0.2-0.4,0.5-0.6,0.7c0.9,1.2,1.5,2.3,1.9,3.5C133.5,326.8,133,330.4,131.1,333.2z M157.2,319.3
		C157.2,319.3,157.2,319.3,157.2,319.3l-0.6,0c-2.1,0-4.2-0.1-6.2-0.1c-0.1,1.9-0.1,3.7-0.2,5.6c0,1.4-1.2,2.4-2.5,2.4
		c0,0-0.1,0-0.1,0c-1.4,0-2.5-1.2-2.4-2.6c0.1-1.8,0.1-3.7,0.2-5.5c-2,0-4.1-0.1-6.1-0.1c-1.4,0-2.5-1.2-2.5-2.5
		c0-1.4,1.2-2.4,2.5-2.5c2.1,0,4.1,0.1,6.2,0.1l0.2-6.1c0-1.4,1.2-2.4,2.6-2.4c1.4,0,2.5,1.2,2.4,2.6l-0.2,6c2.1,0,4.1,0.1,6.2,0.1
		l0.6,0c1.4,0,2.5,1.2,2.5,2.5C159.7,318.2,158.6,319.3,157.2,319.3z"/>
	<path fill="#FFFFFF" d="M133.5,393.7c-0.4,0.4-1,0.5-1.5,0.5c-0.3,0-0.6-0.1-0.9-0.2c-3.4-1.3-7-1.8-10.6-1.5l0.1,3.3
		c0,1.3-0.9,2.4-2.2,2.6c-0.2,0.1-0.4,0.2-0.6,0.2c-3.8,0.9-7.7,1.5-11.5,1.9c-3.6,0.4-7.1,0.6-10.7,0.6c-2.1,0-4.2-0.1-6.3-0.2
		l0.2,1.3l33,1.1c6.8,0.2,13.9,0.4,20.8,0.4c6.3-0.1,17-1.2,21.7-1.7c-0.1-2.4-0.1-5.8-0.2-8.9c0-0.9,0-1.8,0-2.6
		c-5.8,1.2-11.6,1.8-17.5,1.8c-4.3,0-8.5-0.3-12.6-1l0,0.1C134.6,392.3,134.2,393.2,133.5,393.7z"/>
	<path fill="#F4D47B" d="M132.1,175.2c0.1,0,0.2,0,0.3,0c0,0,0.1,0,0.1,0c2.6,0.1,5.3-0.3,7.9-1.1c0.1,0,0.1,0,0.2,0
		c0.1,0,0.1,0,0.2-0.1c2.4-0.7,4.7-1.8,7-3.2c1.6-1,3.1-2.1,4.6-3.3c4.4-9.4,8.3-19.1,10.6-29.2c1-4.4,1.8-9,2.2-13.5
		c0.5-5.7,0.4-11.6-0.5-17.3c-0.1,0-0.3,0-0.4,0c-1.5,0-3.1,0-4.6,0c-5.6,0-11.3,0-17-0.1c-0.6,6.7-1.3,13.5-1.9,20.2
		c0,0.5-0.2,0.9-0.5,1.2c-0.2,1.1-1,1.9-2.1,2.1c-2.5,0.3-5,0.5-7.4,0.5c-1.1,0-2.1,0-3.2-0.1c-0.9-0.1-1.7-0.6-2.1-1.4
		c-0.3-0.3-0.6-0.8-0.6-1.3l-3.7-21.2c-5.6,0.2-11.4,0.1-16.9,0.1c-4.4,0-8.9,0-13.3,0c0.2,11.1,1.9,22,5.1,32.6
		c3.2,10.5,7.4,18.5,12.8,24.3c1.1,1.1,2.2,2.2,3.3,3.2c6,5,12.9,7.7,19.6,7.5c0.1,0,0.1,0,0.2,0C132,175.2,132.1,175.2,132.1,175.2
		z M123.4,150c-1.4,0-2.5-1.1-2.5-2.5c0-1.4,1.1-2.5,2.5-2.5c0,0,0,0,0,0l17.3,0.1c1.4,0,2.5,1.1,2.5,2.5c0,1.4-1.1,2.5-2.5,2.5
		c0,0,0,0,0,0L123.4,150z"/>
	<path fill="#B2E7DC" d="M149.7,231.4c-3.1,8.5-6.1,16.3-8.4,22.1c-0.3,0.8-0.6,1.6-0.9,2.3c1.7-1.1,3.5-2.1,5.3-3.2
		c1-0.6,2.1-1.2,3.1-1.8c2.7-5.7,6.3-13.6,8.9-20.8c3.5-9.7,7.4-23.7,7.4-23.7s-1.2-2.4-3.1-5.9l-0.2-0.2l-1.2-1.9l0,0
		c-1.6,6-3.8,12.7-6.1,19.5c-0.3,0.8-0.5,1.6-0.8,2.3C152.4,224,151,227.7,149.7,231.4z"/>
	<path fill="#FFFFFF" d="M159.6,102.6c1.4,0,2.7,0,4.1,0c-0.4-1.8-0.9-3.5-1.4-5.2h-6.1c-1.4,0-2.5-1.1-2.5-2.5s1.1-2.5,2.5-2.5h4.3
		c-0.6-1.5-1.3-3-2.1-4.4c-0.5,0-1,0-1.4,0c-4.6-0.1-9.4,0.1-14.1,0.3c-0.3,2.3-0.4,4.7-0.3,7c0.1,2.5,0.3,4.9,0.8,7.2
		C148.8,102.6,154.3,102.6,159.6,102.6z"/>
	<path fill="#1B2A54" d="M105.1,167.9c-5.9-6.4-10.5-15-13.9-26.2c-3.4-11-5.1-22.4-5.3-34c-0.2,0-0.3-0.1-0.5-0.1
		c-1.1,0-2.1-0.6-2.5-1.7c-0.6-1.8-0.7-4-0.7-5.4l0-0.3c-0.1-4.5,0-6.9,0.2-9.6c0.1-1.1,0.2-2.3,0.2-3.7c0-0.9,0.5-1.6,1.3-2.1
		l0.4-0.2c0.3-0.2,0.6-0.3,0.9-0.3c1-0.1,1.9-0.2,2.9-0.3c1.8-8,4.7-15.2,8.7-21.2c8.3-12.8,21.8-20.7,35.2-20.7c0,0,0.1,0,0.1,0
		c0,0,0.1,0,0.1,0c0,0,0.1,0,0.1,0c0,0,0.1,0,0.1,0c6.1,0,12.5,1.7,18.3,4.9c0,0,0,0,0,0c0,0,0,0,0,0c0.4,0.2,0.8,0.4,1.1,0.7
		c0,0,0,0,0,0c0,0,0.1,0,0.1,0.1c2.4,1.4,4.8,3.1,7,5.1c0.1,0.1,0.2,0.2,0.3,0.2l0.4-0.3l0,0c-0.6-0.6-1.1-1.2-1.5-2
		c-3.9-6.5-3.4-19.3-3.1-21.8c0.1-0.9,0.3-1.9,0.5-3c0.5-2.4,1.3-5,2.1-7.4c-0.6,0.1-1.3-0.1-1.8-0.4c-0.2-0.1-0.5-0.1-0.7-0.3
		c-17.1-10.3-37.9-13.3-57-8.2c-17.8,4.8-32.4,16.1-41.2,32c-0.3,0.6-0.7,1.3-1,2C46.9,60.9,48,79,49.9,96.1
		c3,27.4,9.3,54.5,18.6,80.4c6.4,0,13.4,0.1,20.4,0.1c6.6,0,13.3,0.1,19.3,0.1c0-2-0.1-3.9-0.2-5.9C107,169.8,106,168.9,105.1,167.9
		z"/>
	<path fill="#B0D8DB" d="M142,178.9c4.4,12.9,6.4,26.6,5.8,40.3c0,0.4,0,0.9,0.1,1.3c2.3-6.1,4.4-12.4,6.4-18.8
		c0.3-1.1,0.7-2.2,1-3.2c-0.4-0.2-0.7-0.5-0.9-0.9c-3.9-6.4-5.8-14-5.4-21.5c-2.1,1.2-4.3,2.1-6.6,2.8
		C142.2,178.8,142.1,178.9,142,178.9z"/>
	<path fill="#F4D47B" d="M138.3,85.4c0.2-1.2,1.2-2,2.4-2.1l0.7,0c4.7-0.3,9.5-0.5,14.1-0.4c-0.7-1.1-1.5-2.1-2.2-3.1
		c-0.1-0.2-0.3-0.4-0.5-0.6l-2,0c-2.7,0-5.2,0.1-7.2,0.1c0,0,0,0-0.1,0c-1.4,0-2.5-1.1-2.5-2.4c0-1.4,1.1-2.5,2.4-2.5
		c1.5,0,3.2-0.1,5.2-0.1c-1.5-1.8-2.9-3.6-4-5.6c-0.8-1.4-1.5-3-1.9-4.6c-0.1-0.5-0.2-1.1-0.3-1.7c-0.3,0.1-0.5,0.3-0.8,0.5
		c-0.7,0.4-1.5,0.9-2.3,1.4c-6.5,3.9-13.6,6.6-20.5,9.1c-0.6,0.2-1.2,0.5-1.9,0.7l3.6-0.1c1.4,0,2.5,1.1,2.5,2.5
		c0,1.4-1.1,2.5-2.5,2.5l-15.9,0.3c0,0,0,0,0,0c-0.1,0-0.2,0-0.3,0c-2.4,1.2-4.7,2.4-6.9,3.8c8.3-0.5,16.6-0.4,24.8,0.1l0.7,0
		c1.2,0,2.2,0.9,2.4,2.1c0.4,2.4,0.7,4.9,0.7,7.4l11.5,0.1C137.6,90.4,137.8,87.9,138.3,85.4z"/>
	<path fill="#FFFFFF" d="M141.3,253.5c2.3-5.8,5.3-13.6,8.4-22.1c1.4-3.7,2.7-7.5,4-11.3l-0.4-0.1c-0.4,1-0.7,1.9-1.1,2.9
		c-4.4,11.8-9.4,23.5-14.9,34.8c1-0.6,1.9-1.2,2.9-1.9C140.6,255.1,140.9,254.3,141.3,253.5z"/>
	<path fill="#FFD576" d="M147.6,221.2c0.1-0.2,0.2-0.5,0.3-0.7c-0.1-0.4-0.1-0.9-0.1-1.3c0.5-13.6-1.5-27.3-5.8-40.3
		c-0.1,0-0.1,0-0.2,0.1c-2.9,0.8-5.8,1.3-8.6,1.3c-0.3,0-0.7,0-1,0c0,0,0,0,0,0c-0.4,0-0.7,0-1.1,0c-6,0-12.2-1.9-17.8-5.5
		c0,1.5,0,3,0,4.5c-0.1,1.8-0.2,3.5-0.3,5.3c-0.3,2.7-0.7,5.6-2.1,8.3c-1.2,2.4-3.1,4.3-5.3,5.2c6.5,21.4,14.9,42.4,25,62.5
		C136.8,247.8,142.6,234.6,147.6,221.2z"/>
	<path fill="#1B2A54" d="M116.9,68.8c6.7-2.5,13.6-5,19.7-8.7c0.9-0.5,1.6-1,2.4-1.4c0.7-0.4,1.3-0.8,1.9-1.1c0.9-0.6,1.6-1,2.2-1.5
		c0.1-0.2,0.2-0.5,0.3-0.7l0.1-1.2c0.5-0.2,1-0.4,1.5-0.4c0.1-0.2,0.2-0.4,0.3-0.7c0.3-0.7,0.7-1.6,1.1-2.7
		c-4.6-2.2-9.4-3.3-14.1-3.3c0,0-0.1,0-0.1,0c0,0-0.1,0-0.1,0c0,0-0.1,0-0.1,0c0,0-0.1,0-0.1,0c-11.7,0-23.6,7.1-31,18.4
		c-2.6,4-4.7,8.6-6.4,13.6c5.7-3.7,12-6.4,18.1-8.7C114.1,69.8,115.5,69.3,116.9,68.8z"/>
	<path fill="#1B2A54" d="M143.4,55.3c-0.1,0.2-0.2,0.5-0.3,0.7c0.8-0.7,1.4-1.3,1.9-2.3c-0.5,0-1,0.2-1.5,0.4L143.4,55.3z"/>
	<path fill="#F4D47B" d="M129.5,126.4c2.1,0.1,4.3,0,6.4-0.2c0.7-7.4,1.4-14.8,2.1-22.2c0-0.4,0.2-0.8,0.4-1.1
		c-0.3-1.6-0.5-3.3-0.7-5l-11.8-0.1c-0.1,1.6-0.3,3.1-0.6,4.7c0,0.1,0.1,0.2,0.1,0.3L129.5,126.4z"/>
	<path fill="#B0D8DB" d="M138,808.7c-0.9-0.2-2-0.1-2.9,0.3c-0.6,0.3-1.3,0.6-1.8,1.1c-1.7,1.5-3.3,3.7-3.9,6
		c-0.3,1.1-0.2,2.3,0.5,3.2c0.5,0.7,1.3,1.1,2.2,1.4c0.3,0.1,0.6,0.2,0.9,0.2c2.1,0.3,4.4-0.4,5.9-1.9c2.4-2.3,3.3-6.9,0.7-9.4
		C139.1,809.1,138.6,808.8,138,808.7z"/>
	<path fill="#FFFFFF" d="M129,388.2c-0.9-6.9-1.7-13.8-2.6-20.8l-6.7,0.4l0.6,19.7C123.3,387.4,126.2,387.6,129,388.2z"/>
	<path fill="#1B2A54" d="M128.5,312.9c-2-1.8-3.8-3.8-5.3-6.1c-1.7,1.1-3.3,2.2-4.7,3.7c-0.6,0.7-1.2,1.4-1.7,2.2
		c4.8,0.3,9.6,2.7,13,6.6c0.3,0.3,0.5,0.6,0.8,0.9c0,0,0,0,0,0.1c0.2-0.2,0.4-0.4,0.6-0.7c0.3-0.4,0.5-0.9,0.6-1.5
		C132.1,316,130.1,314.3,128.5,312.9z"/>
	<path fill="#1B2A54" d="M126.3,304.7c-1.2,0.4-2.3,1-3.4,1.7c0.1,0.1,0.2,0.3,0.2,0.4C124.3,306.1,125.3,305.4,126.3,304.7z"/>
	<path fill="#1B2A54" d="M119.8,302.5c1.7-1.1,3.5-2.1,5.3-2.7c1.3-0.4,2.7,0.3,3.2,1.6c0.2,0.6,0.2,1.3-0.1,1.8
		c1.1-1,2.1-2.1,2.8-3.4c1.4-2.5,1.5-5.7,0.5-8.3c-0.1-0.4-0.3-0.8-0.5-1.1c-0.5-0.8-1.1-1.7-2-2.1c-1.2-0.5-2.5-0.2-3.8,0.1
		c-2.6,0.6-5.5,1.5-6.9,3.8c-0.6,0.9-0.8,2-0.8,3.1c-0.1,1.7,0.2,3.4,0.8,5c0.3,0.8,0.7,1.6,1.2,2.3
		C119.7,302.6,119.8,302.6,119.8,302.5z"/>
	<path fill="#1B2A54" d="M120.4,323.7c-2.8-0.4-5.5-2.7-5.5-5.5v0v0c0-0.2,0-0.3,0-0.5c-0.1,0-0.2,0-0.3,0c-0.9,0.1-1.1,0.3-1.1,0.3
		c-0.2,0.2-0.5,0.4-0.8,0.5c-0.8,1.4-1.4,2.6-1.7,3.9c-0.7,3,0.2,6.6,2.5,8.8c2.3,2.2,5.7,3.2,8.8,2.4c2-0.5,3.7-1.6,4.7-3.2
		c1-1.5,1.3-3.5,0.8-5.1c-0.2-0.6-0.6-1.3-1.2-2.1c-0.1-0.1-0.2-0.3-0.3-0.4C124.3,323.6,122.4,324,120.4,323.7z"/>
	<path fill="#FFFFFF" d="M100.3,198.3c5.1,18.7,15.2,44.7,20.3,57.5c1,0.6,1.9,1.2,2.9,1.8C114.1,238.4,106.4,218.5,100.3,198.3
		L100.3,198.3z"/>
	<path fill="#1B2A54" d="M114.9,318.1c0.1,2.8,2.7,5.1,5.5,5.5c2,0.3,4-0.1,5.8-0.8c-0.1-0.1-0.1-0.2-0.2-0.3
		c-2.7-3.1-6.6-4.9-10.4-4.9c-0.2,0-0.5,0-0.7,0C114.9,317.8,114.8,318,114.9,318.1L114.9,318.1z"/>
	<path fill="#446EB7" d="M104,391.3c-0.6,0.4-1.3,0.6-1.9,0.6c-0.4,0-0.7-0.1-1.1-0.2c-0.3,0.8-0.5,1.7-0.8,2.5c0,0,0,0,0,0
		c0,0,0,0,0,0c-0.1-1-0.1-2-0.2-3c0,0,0,0,0,0c-0.9-0.6-1.4-1.7-1.5-2.8c0-1.1,0.4-2.1,1.2-2.8c-0.4-6.9-0.8-13.7-1.3-20.6
		c-0.1,0-0.1,0-0.2,0c0,0,0,0,0,0c0,0,0,0,0,0c0,0-0.1,0-0.1,0c-6.5-0.2-12.2-1.1-17.3-2.7c-1.9-0.6-3.7-1.2-5.4-2
		c-1.2-0.5-2.3-1.1-3.5-1.7c-12.7-6.9-21.6-20.6-22.8-35c-1.2-14,4.7-28.2,15.5-37.3c-0.8-10.8-0.4-20.8,1.2-30.4
		c0.2-1.4,1.5-2.3,2.9-2.1c1.4,0.2,2.3,1.5,2.1,2.9c-1.5,9.4-1.9,19.1-1.1,29.7c0.2,0.5,0.2,0.9,0.1,1.4c0.9,10.8,3,21.4,5.1,32.7
		c1.2,6.1,2.4,12.5,3.4,19c1,6.4,1.8,12.1,2.4,17.4c0.1,0,0.1,0,0.2,0.1l0-0.8c-2.1-38.4-2.1-38.4-5.1-76.8l-0.3-3.4
		c-0.1-0.7,0.2-1.4,0.7-1.9c0.5-0.5,1.1-0.8,1.8-0.8c0,0,0,0,0,0c0,0,4.3,0,11.1,0c-0.1-1.1-0.2-2.1-0.3-3.2l-0.4-4.6
		c-0.1-0.7,0.2-1.4,0.7-1.9c0.5-0.5,1.1-0.8,1.8-0.8c2.1,0,4.2,0,6.3,0l24.9-0.1c-0.5-0.3-0.9-0.6-1.4-0.9c-2.7-1.7-5.4-3.4-8.1-4.9
		c-12-7-24.7-12.8-37.9-17.2c-0.1,0-0.1,0-0.1-0.1c0,0-0.1,0-0.1,0c0,0-0.1,0-0.1-0.1c-0.1,0-0.2-0.1-0.2-0.1
		c-0.1,0-0.1-0.1-0.2-0.1c-0.1-0.1-0.1-0.1-0.2-0.2c-0.1-0.1-0.1-0.1-0.2-0.2c-0.1-0.1-0.1-0.1-0.1-0.2c0-0.1-0.1-0.1-0.1-0.2
		c0-0.1-0.1-0.1-0.1-0.2c0-0.1-0.1-0.1-0.1-0.2c0-0.1,0-0.2-0.1-0.2c0-0.1,0-0.2,0-0.2c0-0.1,0-0.2,0-0.2c0-0.1,0-0.2,0-0.2
		c0-0.1,0-0.2,0-0.2c0-0.1,0-0.2,0.1-0.3c0,0,0-0.1,0-0.1c0,0,0-0.1,0.1-0.1c0,0,0-0.1,0-0.1c5.2-11,11-21.9,17.4-32.6
		c-17.2,8.8-37.7,20.8-54.4,37.8C18,260,6.9,282.4,5.2,304.3C3.1,331.2,16,359.7,38,376.9c11.6,9.1,25.8,15.2,41,17.9
		c2.5,0.4,5,0.8,7.5,1c6.4,0.6,12.9,0.6,19.2-0.1c0,0,0,0,0.1,0c-0.2-2-0.3-4-0.4-5.9C105.1,390.3,104.6,390.9,104,391.3z
		 M83.1,389.1c-0.5,1-1.5,1.6-2.6,1.6c-0.1,0-0.1,0-0.2,0c-0.9,0-1.8-0.5-2.2-1.3c-0.3-0.6-0.5-1.3-0.5-1.9c-0.1-0.7,0-1.4,0.4-2
		c0.1-0.1,0.2-0.2,0.3-0.4c0.3-0.5,0.7-0.9,1.2-1.1c0.8-0.5,1.8-0.5,2.5,0c0.8,0.5,1.3,1.3,1.2,2.2c0,0.2,0,0.4,0,0.6
		C83.6,387.5,83.5,388.4,83.1,389.1z M94.9,388.8C94.9,388.8,94.9,388.8,94.9,388.8c-0.1,1.4-1.2,2.4-2.5,2.4c0,0-0.1,0-0.1,0
		l-1.1-0.1c-0.7,0-1.3-0.3-1.7-0.8c-0.4-0.5-0.7-1.2-0.6-1.8l0.1-0.9c0-0.1,0-0.2,0-0.2c0.1-0.8,0.5-1.6,1.1-2.1
		c1.1-0.9,2.6-0.7,3.5,0.4c0.1,0.1,0.2,0.2,0.2,0.4c0,0,0.1,0.1,0.1,0.1C94.6,386.8,95,387.8,94.9,388.8z"/>
	<path fill="#F4D47B" d="M91.9,733.7c2,15.6,4.1,31.7,5.3,47.7c5.1,0.5,11.2,0.7,15.9,0.4c0.3-0.1,0.7-0.2,1-0.2
		c6-35.1,7-71.5,7.9-106.7c0.1-2.7,0.1-5.4,0.2-8.1l-36.6,0.3C86.1,689.4,89,711.9,91.9,733.7z"/>
	<path fill="#FFFFFF" d="M90.4,88.7c-0.2,0-0.5,0-0.7,0.1c-0.8,4.5-1.2,9-1.3,13.6c0,0.1,0,0.2,0,0.2c5.3-0.1,10.7-0.1,15.9-0.1
		c5.3,0,10.7,0,16-0.1c0.5-2.4,0.7-4.9,0.8-7.3c0.1-2.4,0-4.7-0.3-7C110.6,87.6,100.4,87.8,90.4,88.7z M107.3,97.3h-6.9
		c-1.4,0-2.5-1.1-2.5-2.5s1.1-2.5,2.5-2.5h6.9c1.4,0,2.5,1.1,2.5,2.5S108.7,97.3,107.3,97.3z"/>
	<path fill="#1B2A54" d="M123,306.4c-0.1,0.1-0.2,0.1-0.3,0.2c-2.1,1.4-4.1,3.4-6.1,6c0.1,0,0.2,0,0.2,0c0.5-0.8,1.1-1.5,1.7-2.2
		c1.4-1.4,3-2.6,4.7-3.7c0,0,0,0,0,0l0,0l0,0c0,0,0,0,0,0C123.1,306.7,123.1,306.6,123,306.4z"/>
	<path fill="#1B2A54" d="M95.7,786.2c-7.6,5.2-14.2,11.7-19.4,19.3c-1.7,2.4-3.5,5.3-4.2,8.5c-0.6,3,0,5.9,1.6,7.7
		c1.5,1.7,4.3,2.7,7.3,2.6c4.7-0.2,8.7-2.6,11.3-4.5c3.5-2.7,6.4-6.3,9-9.7l0.3-0.3c2.3-3,4.9-6.4,8.8-8.1c0.5-0.2,1.1-0.4,1.6-0.6
		c0.8-0.3,1.6-0.5,2.1-0.9c1.2-1,1.5-3.1,1.7-5.3c0.2-2,0.3-3.9-0.2-5.5c-0.3-1.2-1-2.2-1.8-2.6c-1.8,0.1-3.8,0.2-6,0.2
		C103.8,786.9,99.5,786.7,95.7,786.2z M86.1,819.1c-1.9,1.6-4.6,2.1-6.9,1.3c-0.8-0.3-1.6-0.8-2.1-1.5c-0.4-0.6-0.5-1.3-0.5-2
		c0-0.4,0.1-0.9,0.2-1.3c0.7-2.2,2.4-4.4,4.2-5.8c0.5-0.4,1.2-0.8,1.8-1c1.5-0.5,3.3-0.4,4.4,0.8c0.9,1,1.3,2.3,1.3,3.6
		C88.7,815.5,87.6,817.8,86.1,819.1z"/>
	<path fill="#446EB7" d="M103.9,365c-0.8,0-1.5,0-2.3,0c-1.1,0-2.1,0-3.2-0.1c0.4,6.9,0.9,13.7,1.3,20.6c0,0,0.1-0.1,0.1-0.1
		c0.1-0.1,0.2-0.2,0.3-0.2c0.1-0.1,0.2-0.1,0.3-0.2c0.3-0.2,0.7-0.2,1-0.3c0.7-0.2,1.4-0.2,2,0.2c0.2,0.1,0.5,0.3,0.7,0.5
		c0.9,0.6,1.5,1.7,1.5,2.8c0,0.5-0.1,1-0.3,1.5c0.1,2,0.3,4,0.4,5.9c3.3-0.3,6.5-0.9,9.8-1.6l-1-29.6
		C110.5,364.8,107.1,365,103.9,365z"/>
	<path fill="#446EB7" d="M100.6,391.6c-0.2-0.1-0.4-0.2-0.6-0.3c0.1,1,0.1,2,0.2,3c0,0,0,0,0,0c0.3-0.8,0.5-1.7,0.8-2.5
		C100.8,391.6,100.7,391.6,100.6,391.6z"/>
	<path fill="#B2E7DC" d="M100.3,198.3l-1.4,2.1l0,0l0,0h0c-1.9,3.5-3.1,5.9-3.1,5.9c0,0,3.8,14,7.4,23.7c2.6,7.2,6.2,15.1,8.9,20.7
		c1.1,0.6,2.1,1.2,3.1,1.8c1.8,1,3.6,2.1,5.3,3.2C115.5,243,105.4,217,100.3,198.3L100.3,198.3z"/>
	<path fill="#FFFFFF" d="M103.2,230c-3.5-9.7-7.4-23.7-7.4-23.7l0,0c0,0,1.2-2.4,3.1-5.9h0l-0.2-0.2l-0.4,0.6
		c-7.1,11.4-13.5,23.1-19.2,35c11.4,4,22.5,9,33,14.9C109.4,245.1,105.8,237.2,103.2,230z"/>
	<path fill="#1B2A54" d="M100.6,360c1,0,2.1,0,3.1,0c-1.2-27.2-1.7-54.7-5-81.7c-0.1,0-0.2,0-0.3,0c-1.4,0-2.7,0-4,0
		c1.3,16.8,2.7,34.2,4,51.2C99.3,340,100,350.2,100.6,360z"/>
	<path fill="#FFFFFF" d="M98.9,200.4l1.4-2.1l0,0l0.1,0c0,0,0,0,0,0c0-0.1-0.1-0.3-0.1-0.4c-0.5,0.8-1,1.6-1.5,2.4l0,0L98.9,200.4
		L98.9,200.4z"/>
	<path fill="#FFFFFF" d="M98.1,273.3c-0.3-1.8-0.5-3.7-0.8-5.5l-0.1,0c-1.2,0-2.4,0-3.6,0l0.4,5.5C95.4,273.4,96.8,273.4,98.1,273.3
		z"/>
	<path fill="#1B2A54" d="M93.5,329.9c-1.3-17.2-2.7-34.7-4-51.6c-3.8,0-6.8,0-8.8,0l0.1,0.7c3,38.4,3,38.4,5.1,76.9l0.1,2.5
		c3,0.7,6.1,1.1,9.6,1.3C95,350.2,94.3,340.2,93.5,329.9z"/>
	<path fill="#FFFFFF" d="M89.7,88.8c-0.7,0.1-1.5,0.1-2.2,0.2c0,0.6-0.1,1.3-0.1,1.8c-0.2,2.7-0.3,4.9-0.2,9.1l0,0.3
		c0,0.7,0,1.5,0.1,2.3l0.9,0c0,0,0.1,0,0.1,0c0-0.1,0-0.2,0-0.2C88.5,97.9,88.9,93.3,89.7,88.8z"/>
	<path fill="#B0D8DB" d="M87.3,809.8c-1.2-1.3-2.9-1.4-4.4-0.8c-0.7,0.2-1.3,0.6-1.8,1c-1.8,1.4-3.5,3.5-4.2,5.8
		c-0.1,0.4-0.2,0.8-0.2,1.3c0,0.7,0.1,1.4,0.5,2c0.5,0.7,1.3,1.2,2.1,1.5c2.3,0.8,5,0.3,6.9-1.3c1.6-1.3,2.6-3.6,2.6-5.8
		C88.7,812,88.3,810.8,87.3,809.8z"/>
	<path fill="#1B2A54" d="M132.1,175.2C132.1,175.2,132.2,175.2,132.1,175.2c0.1,0,0.2,0,0.4,0c0,0-0.1,0-0.1,0
		C132.3,175.2,132.2,175.2,132.1,175.2z"/>
	<path fill="#1B2A54" d="M132.2,180.2C132.2,180.2,132.2,180.2,132.2,180.2C132.1,180.2,132.1,180.2,132.2,180.2c-0.1,0-0.2,0-0.3,0
		c-1.4,0-2.5-1.1-2.5-2.5c0-1.3,1-2.4,2.4-2.5c-6.7,0.2-13.6-2.5-19.6-7.5c-1.2-1-2.3-2-3.3-3.2c-5.4-5.9-9.6-13.8-12.8-24.3
		c-3.2-10.6-4.9-21.5-5.1-32.6c-0.8,0-1.7,0-2.5,0l-2.1,0.1c0,0,0,0-0.1,0c-0.1,0-0.2,0-0.3,0c0.2,11.5,2,23,5.3,34
		c3.4,11.2,8,19.8,13.9,26.2c0.9,1,1.9,1.9,2.9,2.8c0-0.3,0-0.5-0.1-0.8c-0.1-1.4,0.9-2.6,2.3-2.7c1.4-0.1,2.6,0.9,2.7,2.3
		c0.2,1.7,0.2,3.5,0.3,5.2c5.6,3.6,11.8,5.5,17.8,5.5C131.4,180.2,131.8,180.2,132.2,180.2z"/>
	<path fill="#1B2A54" d="M88.7,83.6c1.8-1.7,3.8-3.1,5.9-4.5c1.6-5,3.7-9.6,6.4-13.6c7.4-11.4,19.3-18.4,31-18.4c0,0,0.1,0,0.1,0
		c0,0,0.1,0,0.1,0c-1.3-0.1-2.4-1.1-2.4-2.5c0-1.4,1.1-2.4,2.4-2.5c0,0-0.1,0-0.1,0c0,0-0.1,0-0.1,0c-13.4,0-26.9,7.9-35.2,20.7
		c-4,6-6.9,13.2-8.7,21.2c0.1,0,0.2,0,0.3,0C88.5,83.8,88.6,83.7,88.7,83.6z"/>
	<path fill="#1B2A54" d="M186.3,264.2c0.1-1.1-0.5-2.1-1.4-2.5c-1-0.4-2.1-0.2-2.8,0.5l-0.2,0.2c-14.3,0.1-28.6,0.1-42.9,0.2
		c-1.6,1.1-3.2,2.1-4.7,3.2l-0.7-0.9c0,0,0,0-0.1,0l0.7,1l-0.2,0.1c-0.4,0.3-0.9,0.4-1.4,0.4c-0.8,0-1.6-0.4-2.1-1.1c0,0,0,0,0,0
		c0,0,0,0,0,0c-0.5,0.7-1.2,1-2,1c-0.5,0-1-0.2-1.5-0.5l-0.1-0.1c0,0-0.1,0-0.1-0.1c-1.5-1-3-2.1-4.5-3.1l-24.9,0.1
		c-2.1,0-4.2,0-6.3,0c-0.7,0-1.4,0.3-1.8,0.8c-0.5,0.5-0.7,1.2-0.7,1.9l0.4,4.6c0.1,1.1,0.2,2.1,0.3,3.2c0.9,0,1.8,0,2.7,0
		c0.7,0,1.5,0,2.3,0l-0.4-5.5c1.2,0,2.4,0,3.6,0l0.1,0h0l31-0.1c1.4,0,2.8,0,4.1,0c16.2-0.1,32.3-0.1,48.5-0.2
		c-2.9,30.8-4.6,52.3-4.4,80.3c0.7-0.4,1.5-0.7,2.3-0.9c1-0.2,1.8-0.2,2.7,0.1C181.4,318.5,183.3,296.6,186.3,264.2z"/>
	<polygon fill="#1B2A54" points="98.3,365 98.3,365 98.3,365 	"/>
	<path fill="#1B2A54" d="M95.6,359.9c0.9,0.1,1.8,0.1,2.8,0.1c0.7,0,1.5,0,2.3,0c-0.7-9.8-1.4-20-2.1-30.5
		c-1.3-17.1-2.6-34.4-4-51.2c-0.9,0-1.8,0-2.7,0c-0.8,0-1.6,0-2.3,0c1.3,16.9,2.7,34.4,4,51.6C94.3,340.2,95,350.2,95.6,359.9z"/>
	<path fill="#FFFFFF" d="M169.7,336.5c0.1,1,0.1,2-0.1,3.4c-0.1,4.4-0.2,8.8-0.2,13.3c0.1,0.2,0.1,0.4,0.2,0.5
		c0.1,0.2,0.2,0.3,0.3,0.5c0.1,0.2,0.3,0.4,0.5,0.6c0-6.8,0-15.5,0.2-24.2c0.4-18.2,1.6-36.6,3.5-54.6l-2.4-0.3c0,0,0,0.1,0,0.1
		C171.7,276.2,170.4,304.6,169.7,336.5z"/>
	<path fill="#1B2A54" d="M164.6,339.4c0.1-0.9,0.2-1.5,0.1-1.8c0,0-0.1,0.1-0.1,0.1c0,0.6,0,1.2,0,1.9
		C164.6,339.4,164.6,339.4,164.6,339.4z"/>
	<path fill="#1B2A54" d="M78,273.3c-0.7,0-1.4,0.3-1.8,0.8c-0.5,0.5-0.7,1.2-0.7,1.9l0.3,3.4c3,38.4,3,38.4,5.1,76.8l0,0.8
		c0.5,0.2,0.9,0.3,1.4,0.5c1.2,0.4,2.4,0.7,3.7,1l-0.1-2.5c-2.1-38.5-2.1-38.5-5.1-76.9l-0.1-0.7c2,0,5,0,8.8,0c0.7,0,1.5,0,2.3,0
		c0.9,0,1.8,0,2.7,0c1.3,0,2.6,0,4,0c0.1,0,0.2,0,0.3,0c0,0,0,0,0,0c19.7,0,48.6,0,67.8,0c-0.3,7.4-1.2,29.3-1.8,54c0,0,0.1,0,0.1,0
		c2.5,0,4.2,1.4,4.7,3.8c0,0.1,0,0.3,0.1,0.4c0.7-31.9,2-60.3,2-60.6c0,0,0-0.1,0-0.1c0-0.6-0.2-1.3-0.7-1.7
		c-0.5-0.5-1.1-0.8-1.8-0.8c0,0,0,0,0,0c-19.3,0.1-50.1,0.1-70.7,0c-0.1,0-0.2,0-0.3,0c0,0,0,0,0,0c-1.4,0-2.7,0-4,0
		c-0.8,0-1.6,0-2.3,0c-0.9,0-1.8,0-2.7,0C82.3,273.3,78,273.3,78,273.3C78,273.3,78,273.3,78,273.3z"/>
	<path fill="#1B2A54" d="M169.6,340.1c-0.1,1-0.3,2-0.5,3c-0.3,1.7-0.7,3.5-0.6,4.7c0.1,1.7,0.3,3.5,0.8,5c0,0.1,0.1,0.2,0.2,0.4
		c0.1-4.5,0.1-8.9,0.2-13.3C169.6,340,169.6,340,169.6,340.1z"/>
	<path fill="#1B2A54" d="M164.8,402c-4.7,0.5-15.4,1.6-21.7,1.7c-6.9,0.1-14-0.1-20.8-0.4l-33-1.1l-0.2-1.3c-1-0.1-2.1-0.1-3.1-0.2
		c-0.7-0.1-1.4-0.2-2-0.2l0.8,4.6c0.2,1.2,1.2,2,2.4,2.1l35,1.2c5.7,0.2,11.7,0.4,17.5,0.4c1.2,0,2.3,0,3.5,0c8.4-0.1,23.8-2,24.5-2
		c1.3-0.2,2.3-1.3,2.2-2.6c-0.1-2-0.2-7-0.3-11.1c0-1.4,0-2.7-0.1-3.7c-0.7,0.2-1.3,0.4-2,0.5c-0.2,0.1-0.4,0.1-0.7,0.2
		c-0.8,0.2-1.5,0.4-2.3,0.5c0,0.8,0,1.7,0,2.6C164.7,396.1,164.8,399.5,164.8,402z"/>
	<path fill="#FFFFFF" d="M130.6,320.3C130.6,320.3,130.6,320.2,130.6,320.3c-0.3-0.4-0.5-0.7-0.8-1c-3.4-3.9-8.2-6.3-13-6.6
		c-0.1,0-0.2,0-0.2,0c2-2.6,4-4.6,6.1-6c0.1-0.1,0.2-0.1,0.3-0.2c1.1-0.7,2.2-1.3,3.4-1.7c0,0,0,0,0,0c0.2-0.1,0.3-0.1,0.5-0.2
		c0.7-0.2,1.2-0.7,1.5-1.3c0,0,0,0,0,0c0.3-0.6,0.3-1.2,0.1-1.8c-0.4-1.3-1.9-2-3.2-1.6c-1.9,0.6-3.7,1.5-5.3,2.7
		c-0.1,0-0.1,0.1-0.2,0.2c0,0,0,0,0,0c-3.7,2.6-7.1,6.5-10.4,11.9l-0.1,0.1l0.4,0.3c0,0,0,0.1,0,0.1l-0.5-0.2
		c-1.2,1.9-2.3,4-2.9,6.4c-1.2,4.8,0.3,10.1,3.8,13.5c2.7,2.6,6.4,4.1,10.2,4.1c1.1,0,2.3-0.1,3.4-0.4c3.2-0.8,5.9-2.7,7.6-5.2
		c1.9-2.8,2.4-6.4,1.4-9.4C132.1,322.6,131.5,321.5,130.6,320.3z M126.5,323.2c0.6,0.8,1,1.5,1.2,2.1c0.5,1.6,0.2,3.6-0.8,5.1
		c-1,1.5-2.7,2.7-4.7,3.2c-3.1,0.8-6.5-0.2-8.8-2.4c-2.2-2.2-3.2-5.7-2.5-8.8c0.3-1.3,0.9-2.5,1.7-3.9c0.3-0.1,0.6-0.3,0.8-0.5
		c0,0,0.3-0.2,1.1-0.3c0.1,0,0.2,0,0.3,0c0.2,0,0.4,0,0.7,0c3.8,0,7.7,1.8,10.4,4.9c0.1,0.1,0.1,0.2,0.2,0.3l0,0
		C126.3,323,126.4,323.1,126.5,323.2z"/>
	<path fill="#FFFFFF" d="M157.2,314.3l-0.6,0c-2.1,0-4.1-0.1-6.2-0.1l-0.1,2.5c0,0.8,0,1.6-0.1,2.5c2.1,0,4.2,0.1,6.2,0.1l0.6,0
		c0,0,0,0,0,0c1.4,0,2.5-1.1,2.5-2.5C159.7,315.5,158.6,314.3,157.2,314.3z"/>
	<path fill="#FFFFFF" d="M145.5,314.1c-2.1,0-4.1-0.1-6.2-0.1c-1.4,0-2.5,1.1-2.5,2.5c0,1.4,1.1,2.5,2.5,2.5c2,0,4.1,0.1,6.1,0.1
		c0-0.8,0.1-1.7,0.1-2.5L145.5,314.1z"/>
	<path fill="#FFFFFF" d="M150.5,314.2l0.2-6c0-1.4-1-2.5-2.4-2.6c-1.4,0-2.5,1-2.6,2.4l-0.2,6.1l-0.1,2.5c0,0.8,0,1.7-0.1,2.5
		c-0.1,1.8-0.1,3.7-0.2,5.5c0,1.4,1,2.5,2.4,2.6c0,0,0.1,0,0.1,0c1.3,0,2.5-1.1,2.5-2.4c0.1-1.9,0.1-3.7,0.2-5.6
		c0-0.8,0-1.6,0.1-2.5L150.5,314.2z"/>
	<path fill="#1B2A54" d="M158.6,168.4c-0.1,0.1-0.3,0.2-0.4,0.3c-0.4,0.2-0.8,0.3-1.1,0.3c-0.9,0-1.8-0.5-2.2-1.4
		c-0.5-1-0.3-2.2,0.5-2.9l0,0c0,0,0,0-0.1,0.1c-0.9,1-1.9,1.9-2.9,2.7c0,0,0,0,0,0c-1.5,1.2-3,2.4-4.6,3.3c-2.3,1.4-4.6,2.4-7,3.2
		c-0.1,0-0.2,0-0.2,0.1c-0.1,0-0.1,0-0.2,0c-2.6,0.8-5.3,1.1-7.9,1.1c-0.1,0-0.2,0-0.3,0c0,0,0,0,0,0c-0.1,0-0.2,0-0.2,0
		c-0.1,0-0.1,0-0.2,0c-1.3,0.1-2.4,1.2-2.4,2.5c0,1.4,1.1,2.5,2.5,2.5c0.1,0,0.2,0,0.2,0c0,0,0.1,0,0.1,0c0.3,0,0.7,0,1,0
		c2.8,0,5.7-0.4,8.6-1.3c0.1,0,0.1,0,0.2-0.1c0,0,0,0,0,0c0.1,0,0.3-0.1,0.4-0.1c2.2-0.7,4.4-1.7,6.6-2.8c0-0.5,0.1-1.1,0.1-1.6
		c0-0.5,0.1-1.1,0.2-1.7c0.2-1.4,1.4-2.3,2.8-2.1c1.1,0.1,1.9,1,2.1,2c1.7-1.3,3.2-2.7,4.7-4.3C158.8,168.3,158.7,168.4,158.6,168.4
		z"/>
	<path fill="#1B2A54" d="M165.9,155.9c-0.4,0-0.8-0.1-1.2-0.3c-1-0.6-1.5-1.7-1.2-2.8c0,0,0-0.1,0-0.1c0,0,0-0.1,0-0.1
		c0-0.1,0.1-0.2,0.1-0.2c-2.3,4.7-5,8.8-8.1,12.1c0,0-0.1,0.1-0.1,0.1l-0.1,0.1l0,0c0.1-0.1,0.1-0.1,0.2-0.2
		c0.1-0.1,0.3-0.2,0.5-0.3c1.2-0.6,2.7-0.1,3.3,1.2c0.5,0.9,0.3,2-0.4,2.7c0,0,0,0,0,0c0.1-0.1,0.1-0.1,0.1-0.1
		c3.4-3.7,6.4-8.1,8.9-13.3C167.6,155.5,166.8,155.9,165.9,155.9z"/>
	<path fill="#1B2A54" d="M168.1,154.5c0,0,0,0.1,0,0.1C168.1,154.6,168.1,154.6,168.1,154.5C168.1,154.5,168.1,154.5,168.1,154.5
		C168.1,154.5,168.1,154.5,168.1,154.5C168.1,154.5,168.1,154.5,168.1,154.5z"/>
	<path fill="#1B2A54" d="M177.4,107.7L177.4,107.7c-0.1,0-0.1,0-0.1,0c-0.4,0-0.9,0-1.3,0c-0.8,0-1.6,0-2.5-0.1
		c-0.1,7.8-1,15.6-2.7,23.3c-0.7,3.1-1.5,6.2-2.4,9.3c-1.4,4.5-2.9,8.5-4.7,12.1c0,0,0,0,0,0.1c0.4-0.9,1.3-1.5,2.3-1.5
		c1.4,0,2.5,1.1,2.5,2.5c0,0.4-0.1,0.8-0.3,1.1c0,0,0,0,0,0c0,0,0,0,0,0c1.9-3.8,3.5-8,4.9-12.8c1-3.2,1.8-6.5,2.5-9.7
		c1.7-8,2.7-16.2,2.8-24.4c-0.1,0-0.1,0-0.2,0C177.9,107.7,177.7,107.7,177.4,107.7z"/>
	<path fill="#1B2A54" d="M163.5,152.7c0,0,0,0.1,0,0.1C163.5,152.8,163.5,152.7,163.5,152.7z"/>
	<path fill="#1B2A54" d="M151.2,47.4c0.2,0,0.4,0.1,0.6,0.2c-0.4-0.2-0.8-0.5-1.1-0.7c0,0,0,0,0,0C150.8,47.1,151,47.2,151.2,47.4z"
		/>
	<path fill="#1B2A54" d="M152.5,51.4c-0.6,0.8-0.9,1.4-0.8,2c1.3,0.9,2.7,1.9,3.9,3c3,2.6,5.6,5.6,7.8,9c0.7,1.1,1.4,2.2,2,3.4
		c2,1.5,4,3.1,5.7,5c2.1,2.3,3.6,4.4,4.3,6.9c0.3,1.1,0.4,2.1,0.4,3.2c0.1,0,0.3,0,0.4,0c0,0,0,0,0,0c-0.2-1.1-0.5-2.2-0.8-3.2
		c-0.4-1.4-0.8-2.8-1.2-4.1c-1.7-5.1-3.9-9.8-6.7-14c-2.4-3.6-5.2-6.9-8.4-9.8c-0.1-0.1-0.2-0.2-0.3-0.2c-2.2-1.9-4.6-3.7-7-5.1
		c0,0-0.1,0-0.1-0.1c0.1,0.1,0.3,0.2,0.4,0.3C153.3,48.8,153.4,50.4,152.5,51.4z"/>
	<path fill="#1B2A54" d="M129.7,44.6c0,1.3,1.1,2.4,2.4,2.5c0,0,0.1,0,0.1,0c0,0,0.1,0,0.1,0c4.7,0,9.5,1.1,14.1,3.3
		c0.2-0.6,0.4-1.2,0.6-2c0.4-1.3,1.8-2.1,3.1-1.7c0.2,0,0.3,0.1,0.5,0.2c-5.8-3.2-12.1-4.9-18.3-4.9c0,0-0.1,0-0.1,0
		c0,0-0.1,0-0.1,0C130.8,42.1,129.7,43.2,129.7,44.6z"/>
	<path fill="#1B2A54" d="M104.2,107.6c5.5,0,11.3,0,16.9-0.1l-0.7-3.9c-0.2-1.4,0.7-2.7,2-2.9c1.3-0.2,2.5,0.6,2.8,1.8
		c0.3-1.5,0.5-3.1,0.6-4.7l-1.5,0c-1.4,0-2.5-1.1-2.5-2.5c0-1.4,1.1-2.5,2.5-2.5c0,0,0,0,0,0l1.6,0c-0.1-2.5-0.3-5-0.7-7.4
		c-0.2-1.2-1.2-2-2.4-2.1l-0.7,0c-8.2-0.6-16.6-0.6-24.8-0.1c-1.9,1.2-3.7,2.6-5.4,4.1c-0.5,0.4-1.1,0.6-1.7,0.6
		c-0.7,0-1.4-0.3-1.9-0.8c-0.8-0.9-0.8-2.2-0.1-3.2c-0.1,0-0.2,0-0.3,0c-1,0.1-1.9,0.2-2.9,0.3c-0.3,0-0.6,0.1-0.9,0.3l-0.4,0.2
		c-0.7,0.4-1.2,1.2-1.3,2.1c-0.1,1.4-0.1,2.6-0.2,3.7c-0.2,2.8-0.4,5.1-0.2,9.6l0,0.3c0,1.4,0.1,3.6,0.7,5.4
		c0.4,1.1,1.4,1.7,2.5,1.7c0.2,0.1,0.3,0.1,0.5,0.1c0.1,0,0.2,0,0.3,0c0,0,0,0,0.1,0l2.1-0.1c0.8,0,1.7,0,2.5,0
		C95.3,107.5,99.8,107.6,104.2,107.6z M121.1,95.2c-0.1,2.4-0.3,4.8-0.8,7.3c-5.3,0.1-10.7,0.1-16,0.1c-5.2,0-10.6,0-15.9,0.1l0,0
		c0,0-0.1,0-0.1,0l-0.9,0c-0.1-0.8-0.1-1.7-0.1-2.3l0-0.3c-0.1-4.3,0-6.4,0.2-9.1c0-0.6,0.1-1.2,0.1-1.8c0.7-0.1,1.5-0.2,2.2-0.2
		l0,0c0.2,0,0.5,0,0.7-0.1c10.1-1,20.3-1.1,30.4-0.5C121,90.5,121.1,92.9,121.1,95.2z"/>
	<path fill="#1B2A54" d="M107.3,92.3h-6.9c-1.4,0-2.5,1.1-2.5,2.5s1.1,2.5,2.5,2.5h6.9c1.4,0,2.5-1.1,2.5-2.5S108.7,92.3,107.3,92.3
		z"/>
	<path fill="#1B2A54" d="M175.8,84c0,0.6-0.1,1.3-0.2,1.9c-0.2,1.2-1.3,2-2.4,2c-0.2,0-0.3,0-0.5,0c-1.4-0.3-2.2-1.6-2-2.9
		c0.1-0.5,0.1-1,0.1-1.4c-4.6-0.4-9.2-0.6-13.8-0.6c-0.5,0-1.1,0-1.6,0c0,0,0,0,0,0c-4.6,0-9.4,0.1-14.1,0.4l-0.7,0
		c-1.2,0-2.2,0.9-2.4,2.1c-0.4,2.5-0.7,5-0.7,7.5l1.5,0c1.4,0,2.5,1.1,2.5,2.5c0,1.4-1.1,2.5-2.5,2.5c0,0,0,0,0,0l-1.3,0
		c0.1,1.7,0.4,3.4,0.7,5c0.5-0.8,1.4-1.3,2.3-1.2c1.4,0.1,2.4,1.4,2.3,2.7c-0.1,1-0.2,2-0.3,3c5.7,0.2,11.4,0.1,17,0.1
		c1.5,0,3.1,0,4.6,0c0.1,0,0.3,0,0.4,0c2.8,0,5.8,0,8.7,0.1c0.8,0,1.7,0,2.5,0.1c0.4,0,0.9,0,1.3,0c0,0,0.1,0,0.1,0h0
		c0.3,0,0.6-0.1,0.8-0.1c0.1,0,0.1,0,0.2,0c1,0,1.9-0.7,2.3-1.7c0.6-1.8,0.7-4,0.7-5.4l0-0.3c0.1-4.5,0-6.8-0.2-9.5
		c-0.1-1.1-0.2-2.3-0.2-3.8c0-0.9-0.5-1.6-1.3-2.1l-0.4-0.2c-0.3-0.2-0.6-0.3-0.9-0.3c-0.7-0.1-1.5-0.2-2.2-0.2c0,0,0,0,0,0
		C176.1,84,176,84,175.8,84z M142.6,95.3c-0.1-2.3,0-4.7,0.3-7c4.8-0.3,9.5-0.4,14.1-0.3c0.5,0,1,0,1.4,0c5.2,0.1,10.4,0.4,15.5,0.9
		c0.2,0,0.5,0,0.7,0.1c0.4,0,0.7,0.1,1.1,0.1c0.1,0,0.3,0,0.4,0c0,0.7,0.1,1.3,0.1,1.9c0.2,2.6,0.3,4.8,0.2,9l0,0.3
		c0,0.7,0,1.5-0.1,2.3c-0.1,0-0.2,0-0.3,0c0,0-0.1,0-0.1,0c0,0,0,0,0,0c-3.9-0.1-7.9-0.1-11.7-0.1c-0.2,0-0.3,0-0.5,0
		c-1.4,0-2.7,0-4.1,0c-5.4,0-10.9,0.1-16.3-0.1C142.9,100.2,142.6,97.7,142.6,95.3z"/>
	<path fill="#1B2A54" d="M165.7,94.8c0-1.4-1.1-2.5-2.5-2.5h-2.7h-4.3c-1.4,0-2.5,1.1-2.5,2.5s1.1,2.5,2.5,2.5h6.1h0.8
		C164.6,97.3,165.7,96.2,165.7,94.8z"/>
	<path fill="#1B2A54" d="M139,97.9C139,97.9,139,97.9,139,97.9c1.4,0,2.5-1.1,2.5-2.5c0-1.4-1.1-2.5-2.5-2.5l-1.5,0l-11.5-0.1
		l-1.6,0c0,0,0,0,0,0c-1.4,0-2.5,1.1-2.5,2.5c0,1.4,1.1,2.5,2.5,2.5l1.5,0l11.8,0.1L139,97.9z"/>
	<path fill="#1B2A54" d="M127.8,126.4c0.6,0,1.1,0,1.7,0.1l-4.1-23.7c0-0.1,0-0.2-0.1-0.3c-0.3-1.2-1.5-2-2.8-1.8
		c-1.4,0.2-2.3,1.5-2,2.9l0.7,3.9l3.7,21.2c0.1,0.5,0.3,0.9,0.6,1.3c-0.2-0.4-0.3-0.8-0.3-1.2C125.3,127.4,126.4,126.3,127.8,126.4z
		"/>
	<path fill="#1B2A54" d="M138.3,129.9c-0.1,0-0.2,0-0.2,0c-1.4-0.1-2.4-1.3-2.3-2.7c0-0.3,0.1-0.7,0.1-1c-2.1,0.2-4.3,0.3-6.4,0.2
		c-0.6,0-1.1,0-1.7-0.1c-1.4-0.1-2.6,1-2.6,2.4c0,0.4,0.1,0.9,0.3,1.2c0.4,0.8,1.2,1.4,2.1,1.4c1.1,0.1,2.1,0.1,3.2,0.1
		c2.5,0,5-0.2,7.4-0.5c1.1-0.1,2-1,2.1-2.1C139.8,129.5,139.1,129.9,138.3,129.9z"/>
	<path fill="#1B2A54" d="M143,104.4c0.1-1.4-0.9-2.6-2.3-2.7c-1-0.1-1.9,0.4-2.3,1.2c-0.2,0.3-0.3,0.7-0.4,1.1
		c-0.7,7.4-1.4,14.8-2.1,22.2c0,0.3-0.1,0.7-0.1,1c-0.1,1.4,0.9,2.6,2.3,2.7c0.1,0,0.2,0,0.2,0c0.8,0,1.6-0.4,2-1
		c0.3-0.4,0.4-0.8,0.5-1.2c0.6-6.7,1.3-13.5,1.9-20.2C142.8,106.5,142.9,105.4,143,104.4z"/>
	<path fill="#1B2A54" d="M140.8,150.2c1.4,0,2.5-1.1,2.5-2.5c0-1.4-1.1-2.5-2.5-2.5l-17.3-0.1c0,0,0,0,0,0c-1.4,0-2.5,1.1-2.5,2.5
		c0,1.4,1.1,2.5,2.5,2.5L140.8,150.2C140.7,150.2,140.8,150.2,140.8,150.2z"/>
	<path fill="#1B2A54" d="M147,48.4c-0.2,0.7-0.4,1.4-0.6,2c-0.4,1.1-0.7,2-1.1,2.7c-0.1,0.2-0.2,0.5-0.3,0.7v0
		c-0.5,0.9-1.1,1.6-1.9,2.3c0,0,0,0,0,0c-0.6,0.5-1.3,1-2.2,1.5c-0.6,0.3-1.2,0.7-1.9,1.1c-0.7,0.4-1.5,0.9-2.4,1.4
		c-6.1,3.7-13,6.2-19.7,8.7c-1.4,0.5-2.9,1.1-4.3,1.6c-6.1,2.3-12.4,5-18.1,8.7c-2.1,1.3-4,2.8-5.9,4.5c-0.1,0.1-0.2,0.2-0.3,0.4
		c-0.7,0.9-0.7,2.3,0.1,3.2c0.5,0.5,1.2,0.8,1.9,0.8c0.6,0,1.2-0.2,1.7-0.6c1.7-1.5,3.5-2.8,5.4-4.1c2.2-1.4,4.5-2.7,6.9-3.8
		c-1.2-0.2-2.1-1.2-2.2-2.4c0-1.4,1.1-2.5,2.5-2.5l12.2-0.2c0.6-0.2,1.2-0.5,1.9-0.7c6.9-2.6,14-5.2,20.5-9.1c0.8-0.5,1.6-1,2.3-1.4
		c0.3-0.2,0.5-0.3,0.8-0.5c0.4-0.2,0.8-0.5,1.2-0.7c1.9-1.2,3.3-2.2,4.5-3.6c-0.4-0.8-0.7-1.6-0.9-2.5c-0.8-2.8-0.2-5.3,1.7-7.6
		c0.6-0.8,1.6-1,2.5-0.8c-0.2-0.2-0.4-0.3-0.6-0.4c0,0,0,0,0,0c-0.1-0.1-0.3-0.1-0.5-0.2C148.8,46.3,147.4,47.1,147,48.4z"/>
	<path fill="#1B2A54" d="M148.7,48.2c-1.9,2.3-2.5,4.8-1.7,7.6c0.2,0.8,0.6,1.6,0.9,2.5c0.3,0.7,0.7,1.5,1.1,2.2
		c2.1,4.2,5.9,7.2,9.2,9.6c0.6,0.4,1.2,0.8,1.8,1.2c1.5,1,2.9,2,4.2,3.1c0.5,0.2,0.8,0.5,1.1,0.9c0.7,0.6,1.4,1.3,2,2
		c1.6,1.8,2.8,3.4,3.3,5c0.1,0.4,0.2,0.9,0.2,1.3c0,0.5,0,0.9-0.1,1.4c-0.3,1.4,0.6,2.7,2,2.9c0.2,0,0.3,0,0.5,0
		c1.2,0,2.2-0.8,2.4-2c0.1-0.7,0.2-1.3,0.2-1.9c0-1.1-0.1-2.2-0.4-3.2c-0.7-2.5-2.3-4.6-4.3-6.9c-1.7-1.9-3.7-3.5-5.7-5
		c-0.8-0.6-1.7-1.2-2.5-1.8c-0.6-0.4-1.1-0.8-1.7-1.2c0,0,0,0,0,0c-2.7-1.9-5.4-4.1-7.2-6.9c-0.2-0.3-0.4-0.6-0.5-0.9
		c-0.7-1.4-1.4-2.6-1.7-3.7c-0.1-0.3-0.2-0.7-0.2-1c0-0.6,0.2-1.3,0.8-2c0.9-1.1,0.8-2.6-0.3-3.5c-0.1-0.1-0.3-0.2-0.4-0.3
		c0,0,0,0,0,0c-0.2-0.1-0.4-0.2-0.6-0.2C150.3,47.2,149.3,47.4,148.7,48.2z"/>
	<path fill="#1B2A54" d="M104.7,79.4l15.9-0.3c1.4,0,2.5-1.2,2.5-2.5c0-1.4-1.2-2.5-2.5-2.5l-3.6,0.1l-12.2,0.2
		c-1.4,0-2.5,1.2-2.5,2.5c0,1.3,1,2.3,2.2,2.4C104.4,79.4,104.5,79.4,104.7,79.4C104.6,79.4,104.6,79.4,104.7,79.4z"/>
	<path fill="#1B2A54" d="M156.1,74.2l-5.5,0.1c-0.7,0-1.4,0-2.1,0c0,0,0,0,0,0c-1.9,0-3.7,0.1-5.2,0.1c-1.4,0-2.5,1.2-2.4,2.5
		c0,1.4,1.1,2.4,2.5,2.4c0,0,0,0,0.1,0c2,0,4.5-0.1,7.2-0.1l2,0h0l3.5-0.1c2.6,0,5.1-0.1,7.1-0.1c1.4,0,2.5-1.2,2.5-2.5
		c0-0.5-0.2-0.9-0.4-1.3c-0.3-0.4-0.7-0.7-1.1-0.9c-0.3-0.1-0.7-0.2-1-0.2C161.3,74.1,158.8,74.2,156.1,74.2z"/>
	<path fill="#1B2A54" d="M108.2,179.1c0-0.8,0-1.6,0-2.4c-6.1,0-12.7-0.1-19.3-0.1c-7,0-14-0.1-20.4-0.1
		c-9.4-25.9-15.7-52.9-18.6-80.4C48,79,46.9,60.9,55.7,43.6c0.3-0.7,0.7-1.3,1-2c8.8-15.9,23.4-27.2,41.2-32
		c19.1-5.1,39.9-2.1,57,8.2c0.2,0.1,0.4,0.2,0.7,0.3c-0.3-0.2-0.6-0.5-0.8-0.9c-0.6-1.2-0.1-2.7,1.1-3.3c0.4-0.2,0.8-0.4,1.1-0.5
		C138.9,2.5,116.9-0.6,96.7,4.8C77.5,10,61.8,22.2,52.4,39.3c-0.4,0.7-0.8,1.4-1.1,2.1c-9.4,18.5-8.3,37.4-6.4,55.2
		C48,125,54.5,153,64.4,179.8c0.4,1,1.3,1.6,2.3,1.6c6.8,0,14.5,0.1,22.2,0.1c6.6,0,13.2,0.1,19.2,0.1
		C108.2,180.8,108.2,179.9,108.2,179.1z"/>
	<path fill="#1B2A54" d="M154.8,17.2c0.2,0.4,0.5,0.7,0.8,0.9c0.5,0.4,1.2,0.5,1.8,0.4c0.2,0,0.5-0.1,0.7-0.2
		c0.5-0.2,0.9-0.5,1.4-0.7c14.5-6.4,31-3.3,42.2,7.8c11,11,16.4,28.2,16.7,52.5c0.3,31.3-6.5,64.3-19.6,95.2c0,0.1-0.1,0.1-0.1,0.2
		l0,0c-0.5,1.2-1,2.3-1.5,3.5c0.6,0,1.1,0,1.7-0.1l0.3,2.5l-0.1-2.5c0.1,0,0.2,0,0.3,0c1.2,0,2.3,0.9,2.5,2.1
		c0.6-1.3,1.1-2.5,1.7-3.8c13.3-31.6,20.2-65.2,20-97.2c-0.2-25.6-6.2-43.9-18.1-55.9C192.7,9.3,174,5.9,157.6,13.1
		c-0.2,0.1-0.3,0.2-0.5,0.2c-0.4,0.2-0.8,0.3-1.1,0.5C154.7,14.5,154.2,16,154.8,17.2z"/>
	<path fill="#1B2A54" d="M199.4,176.9c-0.1,0-0.2,0-0.3,0l0.1,2.5l-0.3-2.5c-0.6,0-1.1,0-1.7,0.1c-14.6,0.6-29.1,0.7-43.4,0.4
		c0,1.7,0.1,3.4,0.3,5c4.5,0.1,9,0.1,13.5,0.1c10.4,0,20.9-0.2,31.4-0.6c0.1,0,0.2,0,0.3,0c1.4,0,2.5-1.1,2.5-2.5c0-0.1,0-0.3,0-0.4
		C201.6,177.8,200.6,176.9,199.4,176.9z"/>
	<path fill="#1B2A54" d="M184.2,383.6c-1.1,0.6-2.2,1.1-3.3,1.6c0,17.3,2.8,32.1,8.6,45c0.9-0.2,1.8-0.5,2.8-0.7
		c1.3-0.3,2.7,0.5,3,1.8c0,0.1,0,0.2,0,0.4c0-0.4,0-0.9-0.2-1.4c-6.5-13.3-9.5-28.9-9.2-47.7c-0.4,0.3-0.9,0.5-1.3,0.7
		C184.5,383.4,184.4,383.5,184.2,383.6z"/>
	<path fill="#1B2A54" d="M181.5,379.3c0.2-0.1,0.3-0.2,0.5-0.2c0.1,0,0.2-0.1,0.2-0.1c0,0,0.1,0,0.1-0.1c0.4-0.2,0.7-0.4,1.1-0.6
		C182.6,378.3,182,378.7,181.5,379.3z"/>
	<path fill="#1B2A54" d="M193.4,307.5c-0.6-1.2-0.1-2.7,1.2-3.3c0.6-0.3,1.3-0.3,1.9-0.1c2.5-19.4,2.5-34.4,0.2-48.4
		c-0.2-1.4-1.5-2.3-2.9-2.1c-1.4,0.2-2.3,1.5-2.1,2.9c2.3,14.1,2.2,29.3-0.5,49.4c-1.1,8.4-2.6,16.9-4,25.1
		c-0.8,4.4-1.5,8.9-2.2,13.3l-0.1,0.5c-0.2,1.2-0.4,2.4-0.6,3.6c0.4,0.4,0.9,0.7,1.2,1.2c0.8,1,1.4,2.2,1.7,3.5c0.9-0.3,1.6-1,1.7-2
		c0.3-1.9,0.6-3.7,0.9-5.5l0.1-0.5c0.7-4.4,1.5-8.9,2.2-13.3c1.1-6.6,2.3-13.4,3.3-20.2C194.7,310.2,194.1,308.8,193.4,307.5z"/>
	<path fill="#1B2A54" d="M134,422c-0.3,1.9-0.7,3.7-1.1,5.6c1.1,2.3,2.1,4.9,3.1,7.3c1.8,4.3,3.6,8.8,5.7,12.5
		c0.5,0.8,1.3,1.2,2.1,1.2c-0.6-0.3-1.1-0.9-1.3-1.6c-0.3-1.3,0.5-2.7,1.8-3c0.3-0.1,0.7-0.2,1-0.3c-1.7-3.2-3.3-7-4.8-10.7
		c-1.8-4.3-3.6-8.8-5.7-12.5c-0.2-0.3-0.4-0.5-0.6-0.7c0,0.3-0.1,0.5-0.1,0.8C134.2,421.1,134.1,421.5,134,422z"/>
	<path fill="#1B2A54" d="M145.5,443.7c-0.3,0.1-0.7,0.2-1,0.3c-1.3,0.3-2.2,1.7-1.8,3c0.2,0.7,0.7,1.3,1.3,1.6
		c0.3,0.2,0.7,0.3,1.1,0.3c0.2,0,0.4,0,0.6-0.1c7.9-1.9,16.1-4.6,24.1-7.3c6-2,12.1-4,18.1-5.7c-0.3-0.7-0.5-1.4-0.8-2v0
		c0,0,0,0,0,0c-0.5-1.2-0.1-2.6,1.1-3.2c0,0,0.1,0,0.1,0c-6.6,1.8-13.4,4-20,6.2C160.6,439.2,152.9,441.8,145.5,443.7z"/>
	<path fill="#1B2A54" d="M192.3,429.4c-0.9,0.2-1.8,0.5-2.8,0.7c-0.2,0-0.3,0.1-0.5,0.1c0.9-0.1,1.9,0.4,2.3,1.3
		c0,0.1,0.1,0.2,0.1,0.3c0,0,0,0,0,0c0.4,0.9,0.7,1.8,1.1,2.7c0.3-0.1,0.6-0.1,0.8-0.2c1.2-0.3,2-1.4,1.9-2.6c0-0.1,0-0.2,0-0.4
		C195,429.9,193.7,429.1,192.3,429.4z"/>
	<path fill="#1B2A54" d="M158.7,190.2c1.2-0.7,2.7-0.4,3.4,0.8c0.1,0.1,0.2,0.3,0.3,0.4c0-1.1-0.7-2.1-1.8-2.4
		c-1.3-0.4-2.7,0.4-3.1,1.8c-0.1,0.2-0.1,0.5-0.2,0.8c0,0.2-0.1,0.4-0.2,0.5c0.2,0.4,0.4,0.8,0.6,1.2
		C157.3,192.2,157.7,190.9,158.7,190.2z"/>
	<path fill="#1B2A54" d="M147.9,220.4C147.9,220.4,147.9,220.4,147.9,220.4c-0.1,0.2-0.2,0.5-0.3,0.7c-5,13.4-10.8,26.6-17.1,39.3
		c0.2,0.4,0.4,0.8,0.6,1.1c0,0.1,0.1,0.2,0.1,0.3l0.2-0.2c1.9-1.3,4-2.7,6.1-4.1c0,0,0,0,0,0c5.5-11.3,10.5-23,14.9-34.8
		c0.4-1,0.7-1.9,1.1-2.9c0,0,0,0,0,0c2-5.5,3.9-11.2,5.7-16.9c0.6-1.8,1.1-3.5,1.6-5.1c-0.9-1.4-1.7-2.7-2.5-4.1
		c0.2,0.3,0.3,0.6,0.5,1c0.7,1.2,0.3,2.7-0.8,3.4c-0.4,0.2-0.9,0.4-1.3,0.4c-0.4,0-0.8-0.1-1.2-0.3c-0.3,1.1-0.6,2.1-1,3.2
		C152.3,208.1,150.1,214.4,147.9,220.4z"/>
	<path fill="#1B2A54" d="M133.4,265C133.4,265,133.4,265,133.4,265l-0.8-1.1L133.4,265z"/>
	<path fill="#1B2A54" d="M187.3,238.8c0,0.1-0.1,0.1-0.2,0.2C187.2,238.9,187.3,238.8,187.3,238.8z"/>
	<path fill="#1B2A54" d="M187.7,236.9c0,0.1,0,0.2,0,0.3C187.7,237.1,187.7,237,187.7,236.9z"/>
	<path fill="#1B2A54" d="M187.6,236.6c0,0,0-0.1-0.1-0.1c0,0.1,0.1,0.2,0.1,0.3C187.7,236.7,187.6,236.6,187.6,236.6z"/>
	<path fill="#1B2A54" d="M187.6,238.4c0,0.1-0.1,0.2-0.1,0.2C187.5,238.5,187.5,238.4,187.6,238.4z"/>
	<path fill="#1B2A54" d="M187,239.1c-0.1,0.1-0.1,0.1-0.2,0.2C186.9,239.3,186.9,239.2,187,239.1z"/>
	<path fill="#1B2A54" d="M187.7,237.9c0,0.1,0,0.2-0.1,0.3C187.7,238.1,187.7,238,187.7,237.9z"/>
	<path fill="#1B2A54" d="M186.6,239.5c-0.1,0-0.2,0.1-0.2,0.1C186.5,239.5,186.6,239.5,186.6,239.5z"/>
	<path fill="#1B2A54" d="M187.8,237.4c0,0.1,0,0.2,0,0.3C187.7,237.6,187.8,237.5,187.8,237.4z"/>
	<path fill="#1B2A54" d="M183,238.4c-0.4-0.8-0.8-1.7-1.1-2.5c-11.4,4-22.5,9-33,14.9c-1.1,0.6-2.1,1.2-3.1,1.8
		c-1.8,1.1-3.6,2.1-5.3,3.2c0,0,0,0,0,0c-1,0.6-2,1.2-2.9,1.9c0,0,0,0,0,0c-2.1,1.3-4.1,2.7-6.1,4.1l-0.2,0.2
		c0.3,0.8,0.2,1.6-0.3,2.3c0,0.4-0.2,0.8-0.5,1.2c0,0,0,0,0,0c0.5,0.7,1.3,1.1,2.1,1.1c0.5,0,1-0.1,1.4-0.4l0.2-0.1l-0.7-1l-0.8-1.1
		l0.8,1l0.7,0.9c1.5-1.1,3.1-2.1,4.7-3.2c0.4-0.3,0.8-0.5,1.2-0.8c2.5-1.6,5.3-3.3,8.1-4.9c11.9-7,24.7-12.8,37.9-17.2
		c0,0,0.1,0,0.1-0.1c-0.3,0.1-0.6,0.2-0.9,0.2C184.3,239.9,183.4,239.3,183,238.4z"/>
	<path fill="#1B2A54" d="M158.7,190.2c-1.1,0.7-1.4,2-1,3.1c0.1,0.2,0.2,0.4,0.3,0.6c0.8,1.3,1.7,2.7,2.5,4.1
		c1.1,1.7,2.1,3.5,3.2,5.2c-0.1-0.3-0.2-0.5-0.2-0.8c0-1.5,1.3-2.7,2.9-2.5c0,0,0.1,0,0.1,0c0.4,0.1,0.8,0.2,1.1,0.2
		c-1.8-3-3.7-6-5.4-8.8c-0.1-0.1-0.2-0.3-0.3-0.4C161.4,189.8,159.9,189.5,158.7,190.2z"/>
	<path fill="#1B2A54" d="M183,238.4c0.4,0.9,1.3,1.5,2.3,1.5c0.3,0,0.6-0.1,0.9-0.2c0,0,0.1,0,0.1,0c0,0,0.1,0,0.1-0.1
		c0.1,0,0.2-0.1,0.2-0.1c0.1,0,0.1-0.1,0.2-0.1c0.1-0.1,0.1-0.1,0.2-0.2c0.1-0.1,0.1-0.1,0.2-0.2c0.1-0.1,0.1-0.1,0.2-0.2
		c0-0.1,0.1-0.1,0.1-0.2c0-0.1,0.1-0.2,0.1-0.2c0-0.1,0.1-0.1,0.1-0.2c0-0.1,0.1-0.2,0.1-0.3c0-0.1,0-0.1,0-0.2c0-0.1,0-0.2,0-0.3
		c0-0.1,0-0.1,0-0.2c0-0.1,0-0.2,0-0.3c0-0.1,0-0.2-0.1-0.2c0-0.1-0.1-0.2-0.1-0.3c0,0,0-0.1,0-0.1c-5-11-10.9-21.5-16.1-30.1
		c-1.9-0.5-3.7-1-5.6-1.3c-0.6-0.1-1.1-0.4-1.5-0.8c5.3,8.7,11.9,19.9,17.5,31.8C182.2,236.7,182.6,237.6,183,238.4z"/>
	<path fill="#1B2A54" d="M69.1,427.8c0.7-1.2,2.2-1.6,3.4-0.9c0.1,0.1,0.2,0.1,0.3,0.2c3.8-8.1,6.4-17.2,7.8-27
		c-0.8-0.1-1.7-0.2-2.5-0.4c-0.8-0.1-1.6-0.3-2.4-0.5c-1.5,10.1-4.2,19.1-8.2,27.3c-0.6,1.2-0.1,2.7,1.1,3.3c0.1,0,0.2,0.1,0.3,0.1
		C68.7,429.3,68.7,428.5,69.1,427.8z"/>
	<path fill="#1B2A54" d="M69,289.3C69,289.3,68.9,289.4,69,289.3c-1.4,1.1-2.6,2.2-3.7,3.3c1.1,9.6,2.8,19,4.7,28.9
		c1.2,6.1,2.3,12.4,3.4,18.8c0.8,5.2,1.5,10,2,14.4c0.7,0.3,1.4,0.7,2.1,1c1,0.5,2.1,0.9,3.2,1.2c-0.6-5.3-1.4-11-2.4-17.4
		c-1.1-6.5-2.3-12.9-3.4-19c-2.1-11.2-4.1-21.8-5.1-32.7C69.7,288.5,69.4,289,69,289.3z"/>
	<path fill="#1B2A54" d="M65.8,285.5c1.1-0.8,2.7-0.7,3.5,0.4c0.2,0.2,0.3,0.4,0.4,0.7c-0.8-10.6-0.5-20.3,1.1-29.7
		c0.2-1.4-0.7-2.6-2.1-2.9c-1.4-0.2-2.6,0.7-2.9,2.1c-1.6,9.6-2,19.6-1.2,30.4C65,286.1,65.4,285.8,65.8,285.5
		C65.7,285.5,65.8,285.5,65.8,285.5z"/>
	<path fill="#1B2A54" d="M102.2,190.1c1.2,0.8,1.5,2.3,0.7,3.5c0,0,0,0,0,0c0.4-0.1,0.8-0.3,1.2-0.5c-0.2-0.6-0.3-1.1-0.5-1.7
		c-0.1-0.2-0.1-0.5-0.2-0.7c-0.4-1.3-1.7-2.1-3.1-1.8c-1.1,0.3-1.8,1.3-1.8,2.4c0.1-0.1,0.2-0.3,0.3-0.4
		C99.5,189.7,101,189.4,102.2,190.1z"/>
	<path fill="#1B2A54" d="M100.3,198.3c6,20.2,13.8,40.2,23.1,59.3c0,0,0,0,0.1,0c2,1.3,4.1,2.7,6,4.1c0.1,0.1,0.2,0.2,0.4,0.2
		c0.7,0.5,1.1,1.4,1,2.3c0.4-0.7,0.6-1.5,0.3-2.3c0-0.1-0.1-0.2-0.1-0.3c-0.2-0.4-0.4-0.8-0.6-1.1c-10.1-20.1-18.5-41.1-25-62.5
		c-0.7,0.3-1.5,0.6-2.2,0.7c-0.1,0-0.3,0-0.4,0c-1,0-1.9-0.6-2.3-1.5c-0.1,0.2-0.2,0.4-0.4,0.6C100.2,198,100.3,198.1,100.3,198.3
		C100.3,198.3,100.3,198.3,100.3,198.3z"/>
	<path fill="#1B2A54" d="M73.1,237.6c0-0.1,0-0.2,0-0.2C73.1,237.4,73.1,237.5,73.1,237.6z"/>
	<path fill="#1B2A54" d="M74.2,239.3c0.1,0,0.1,0.1,0.2,0.1C74.3,239.4,74.3,239.4,74.2,239.3z"/>
	<path fill="#1B2A54" d="M73.3,238.2c0,0.1,0.1,0.1,0.1,0.2C73.3,238.4,73.3,238.3,73.3,238.2z"/>
	<path fill="#1B2A54" d="M73.5,238.7c0,0.1,0.1,0.1,0.1,0.2C73.6,238.8,73.6,238.7,73.5,238.7z"/>
	<path fill="#1B2A54" d="M112.7,256.9c2.7,1.6,5.4,3.2,8.1,4.9c0.5,0.3,0.9,0.6,1.4,0.9c1.5,1,3.1,2,4.5,3.1c0,0,0.1,0,0.1,0.1
		l0.1,0.1c0.4,0.3,1,0.5,1.5,0.5c0.8,0,1.5-0.3,2-1c0,0,0,0,0,0c0.3-0.4,0.4-0.8,0.5-1.2c0.1-0.8-0.2-1.7-1-2.3
		c-0.1-0.1-0.2-0.2-0.4-0.2c-1.9-1.4-4-2.7-6-4.1c0,0,0,0-0.1,0c-1-0.6-1.9-1.2-2.9-1.8c-1.8-1.1-3.6-2.2-5.3-3.2
		c-1-0.6-2.1-1.2-3.1-1.8c0,0,0,0,0,0c-10.5-5.9-21.6-10.9-33-14.9c-0.4,0.8-0.8,1.7-1.2,2.5c-0.4,0.9-1.3,1.4-2.3,1.4
		c-0.3,0-0.6-0.1-0.9-0.2c0.1,0,0.1,0,0.1,0.1C88,244.1,100.7,249.9,112.7,256.9z"/>
	<path fill="#1B2A54" d="M74,239.2c-0.1-0.1-0.1-0.1-0.2-0.2C73.9,239.1,73.9,239.1,74,239.2z"/>
	<path fill="#1B2A54" d="M73.2,236.6c0-0.1,0.1-0.2,0.1-0.2c0,0,0,0.1-0.1,0.1C73.2,236.5,73.2,236.5,73.2,236.6z"/>
	<path fill="#1B2A54" d="M73.1,237.8c0,0.1,0,0.2,0.1,0.2C73.2,237.9,73.2,237.9,73.1,237.8z"/>
	<path fill="#1B2A54" d="M73.1,236.8c0,0.1,0,0.2,0,0.2C73.1,237,73.1,236.9,73.1,236.8z"/>
	<path fill="#1B2A54" d="M97.2,197.6c0.6,1.2,0.1,2.7-1.1,3.4c-1.7,0.9-3.5,1.8-5.3,2.7c-6.4,10.6-12.2,21.6-17.4,32.6
		c0,0,0,0.1,0,0.1c0,0.1-0.1,0.2-0.1,0.2c0,0.1,0,0.2-0.1,0.3c0,0.1,0,0.2,0,0.2c0,0.1,0,0.2,0,0.2c0,0.1,0,0.2,0,0.2
		c0,0.1,0,0.2,0,0.2c0,0.1,0,0.2,0.1,0.2c0,0.1,0.1,0.1,0.1,0.2c0,0.1,0.1,0.1,0.1,0.2c0,0.1,0.1,0.1,0.1,0.2s0.1,0.1,0.1,0.2
		c0.1,0.1,0.1,0.1,0.2,0.2c0.1,0.1,0.1,0.1,0.2,0.2c0.1,0,0.1,0.1,0.2,0.1c0.1,0,0.1,0.1,0.2,0.1c0,0,0.1,0,0.1,0.1c0,0,0.1,0,0.1,0
		c0.3,0.1,0.6,0.2,0.9,0.2c0.9,0,1.8-0.5,2.3-1.4c0.4-0.8,0.8-1.7,1.2-2.5c5.7-11.9,12.2-23.6,19.2-35l0.4-0.6v0l0,0
		c0.5-0.8,1-1.6,1.5-2.4c0.1-0.2,0.2-0.4,0.4-0.6c-0.1-0.2-0.2-0.4-0.2-0.6c-0.2-1.4,0.7-2.6,2.1-2.9c0.1,0,0.3-0.1,0.4-0.1
		c0,0,0,0,0,0c0.8-1.2,0.4-2.7-0.7-3.5c-1.2-0.8-2.7-0.4-3.5,0.7c-0.1,0.1-0.2,0.3-0.3,0.4c-1.1,1.7-2.2,3.4-3.2,4.9
		C96.1,196.3,96.8,196.8,97.2,197.6z"/>
	<path fill="#1B2A54" d="M191.5,431.8C191.5,431.8,191.5,431.8,191.5,431.8c0-0.1-0.1-0.2-0.1-0.3c-0.5-0.9-1.4-1.3-2.3-1.3
		c-0.3,0-0.7,0.1-1,0.3c0,0-0.1,0-0.1,0c-1.1,0.6-1.6,2-1.1,3.2c0,0,0,0,0,0v0c0.3,0.7,0.6,1.3,0.8,2c13.2,31.4,18.4,69,15.6,111.7
		c-2.6,38.9-11.3,77.4-19.8,114.7c0.6,0,1.1,0,1.7,0l0.6,0c1.2,0,2.1,0.8,2.4,1.9c0,0,0,0,0,0c8.6-37.7,17.5-76.7,20.1-116.3
		c2.8-43.2-2.5-81.3-15.7-113.3C192.3,433.6,191.9,432.7,191.5,431.8z"/>
	<path fill="#1B2A54" d="M137,662.3C137,662.3,137,662.3,137,662.3c1.4,0,2.5,1.1,2.5,2.5c0,0.7,0,1.4,0,2.1
		c12.2,0.1,24.4,0.2,36.6,0.3c0-0.8,0-1.7,0.1-2.5c0,0,0-0.1,0-0.2l0-0.1c0-0.9,0.5-1.7,1.2-2.1c-13.5-0.1-26.9-0.2-40.4-0.4
		c-2,0-3.9,0-5.9-0.1c0,0,0,0,0,0c-0.1,0-0.2,0-0.3,0c1.2,0.2,2.2,1.2,2.2,2.4c0,1.3-0.9,2.3-2.2,2.5c0.1,0,0.2,0,0.3,0
		c1.1,0,2.3,0,3.4,0c0-0.7,0-1.3,0-2C134.5,663.4,135.6,662.3,137,662.3z"/>
	<path fill="#1B2A54" d="M185.9,662.3l-0.6,0c-0.6,0-1.1,0-1.7,0c-1.2,0-2.3,0-3.5,0c0.7,0.4,1.1,1.2,1.1,2.1c0,0.1,0,0.2,0,0.3
		l0,0.1c0,0.8,0,1.7-0.1,2.5c1.4,0,2.7,0,4.1,0l0.7,0c1.4,0,2.5-1.1,2.5-2.5c0-0.2,0-0.4-0.1-0.6C188,663.1,187,662.3,185.9,662.3z"
		/>
	<path fill="#1B2A54" d="M75.8,662.3l2.3,0c-8.5-37.3-17.3-75.9-19.8-114.7c-2.9-43.4,2.7-81.7,16.5-113.7c-0.7-0.4-1.5-0.8-2.2-1.2
		c-0.7-0.4-1.4-0.8-2.2-1.2c-14.2,32.9-20,72-17,116.5c2.6,39.5,11.5,78.5,20.1,116.3c0.3,1.2,1.3,1.9,2.4,1.9l0-1.3V662.3z"/>
	<path fill="#1B2A54" d="M83.1,662.3C83.1,662.3,83.1,662.3,83.1,662.3c1.4,0,2.5,1.1,2.5,2.5c0,0.8,0,1.6,0,2.4l36.6-0.3
		c0-0.9,0-1.7,0.1-2.6c0-1.3,1.1-2.4,2.4-2.4l-46.7,0.4l-2.3,0v2.5l0,1.3l0,1.2l4.8,0c0-0.8,0-1.6,0-2.4
		C80.6,663.4,81.7,662.3,83.1,662.3z"/>
	<path fill="#1B2A54" d="M133,664.3c0-1.3-1-2.3-2.2-2.4c-0.1,0-0.2,0-0.3,0l-5.5,0.1c1.3,0,2.4,1.1,2.4,2.5v0c0,0.8,0,1.7-0.1,2.5
		l3.2,0c0.1,0,0.2,0,0.3,0C132.1,666.6,133,665.5,133,664.3z"/>
	<path fill="#1B2A54" d="M119.8,448.6c0.5,0,1-0.1,1.4-0.4c0.1,0,0.1-0.1,0.2-0.1c0.1-0.1,0.2-0.1,0.3-0.2
		c6.5-4.9,9.5-12.4,11.3-20.3c0.4-1.8,0.8-3.7,1.1-5.6c0.1-0.5,0.2-0.9,0.2-1.4c0-0.3,0.1-0.5,0.1-0.8c0.2-1.2,0.4-2.4,0.6-3.6
		l0.1-0.5c0.2-1.4-0.7-2.6-2.1-2.9c-1.4-0.2-2.6,0.7-2.9,2.1l-0.1,0.5c-0.2,1.4-0.4,2.9-0.7,4.3c-0.1,0.4-0.1,0.8-0.2,1.3
		c-1.4,8.4-3.6,16.8-9.5,21.9c0.1,0,0.3,0,0.4,0.1c1.4,0.2,2.3,1.5,2.1,2.8c-0.2,1.2-1.2,2.1-2.5,2.1c-0.1,0-0.2,0-0.4,0
		c-0.4-0.1-0.9-0.1-1.3-0.2C118.5,448.3,119.2,448.6,119.8,448.6z"/>
	<path fill="#1B2A54" d="M74.7,433.8c13.3,6.9,27.8,11.6,43.3,14c0.4,0.1,0.9,0.1,1.3,0.2c0.1,0,0.2,0,0.4,0c1.2,0,2.3-0.9,2.5-2.1
		c0.2-1.4-0.7-2.6-2.1-2.8c-0.1,0-0.3,0-0.4-0.1c-16.1-2.4-31.2-7.4-44.8-14.8c-0.7-0.4-1.4-0.8-2.1-1.1c-0.1-0.1-0.2-0.1-0.3-0.2
		c-1.2-0.7-2.7-0.3-3.4,0.9c-0.4,0.7-0.4,1.5-0.2,2.1c0.2,0.5,0.6,1,1.1,1.3c0.1,0.1,0.2,0.1,0.3,0.2c0.7,0.4,1.5,0.8,2.2,1.2
		C73.2,433,74,433.4,74.7,433.8z"/>
	<path fill="#1B2A54" d="M153.9,177.4c0-0.9,0.1-1.8,0.1-2.6c0-0.5,0.1-0.9,0.2-1.4c0-0.3,0-0.6,0-0.8c-0.2-1-1-1.8-2.1-2
		c-1.4-0.2-2.6,0.8-2.8,2.1c-0.1,0.6-0.1,1.1-0.2,1.7c-0.1,0.5-0.1,1.1-0.1,1.6c-0.4,7.5,1.5,15.1,5.4,21.5c0.2,0.4,0.6,0.7,0.9,0.9
		c0.4,0.2,0.8,0.3,1.2,0.3c0.4,0,0.9-0.1,1.3-0.4c1.2-0.7,1.6-2.3,0.8-3.4c-0.2-0.3-0.3-0.6-0.5-1c-0.1-0.2-0.2-0.4-0.3-0.6
		c-0.2-0.4-0.4-0.8-0.6-1.2c-1.5-3.1-2.5-6.3-2.9-9.7C154,180.7,153.9,179.1,153.9,177.4z"/>
	<path fill="#1B2A54" d="M102.4,193.8c-1.4,0.2-2.3,1.5-2.1,2.9c0,0.2,0.1,0.4,0.2,0.6c0.4,0.9,1.3,1.5,2.3,1.5c0.1,0,0.3,0,0.4,0
		c0.8-0.1,1.5-0.4,2.2-0.7c2.2-1,4.1-2.8,5.3-5.2c1.4-2.6,1.8-5.5,2.1-8.3c0.2-1.7,0.3-3.5,0.3-5.3c0-1.5,0-3,0-4.5
		c0-1.7-0.1-3.5-0.3-5.2c-0.1-1.4-1.3-2.4-2.7-2.3c-1.4,0.1-2.4,1.3-2.3,2.7c0,0.3,0,0.5,0.1,0.8c0.2,2,0.2,3.9,0.2,5.9
		c0,0.8,0,1.6,0,2.4c0,0.8-0.1,1.7-0.1,2.6c-0.1,0.8-0.1,1.6-0.2,2.4c-0.2,2.2-0.6,4.6-1.5,6.5c-0.6,1.1-1.4,2.1-2.3,2.6
		c-0.4,0.2-0.8,0.4-1.2,0.5C102.7,193.7,102.6,193.7,102.4,193.8z"/>
	<path fill="#1B2A54" d="M94.6,781.1c0.1,0,0.2,0,0.3,0c0,0,0.1,0,0.1,0c0,0,0.1,0,0.1,0c0.6,0.1,1.3,0.2,2,0.2
		c-1.2-15.9-3.3-32.1-5.3-47.7c-2.8-21.8-5.8-44.3-6.2-66.5c0-0.8,0-1.6,0-2.4c0-1.4-1.1-2.5-2.5-2.5c0,0,0,0,0,0
		c-1.4,0-2.5,1.1-2.5,2.5c0,0.8,0,1.6,0,2.4c0.4,22.5,3.4,45.2,6.2,67.1c2.1,15.8,4.2,32.2,5.3,48.2c0,0,0,0,0,0
		C92.7,781.7,93.5,781.1,94.6,781.1z"/>
	<path fill="#1B2A54" d="M127.4,664.3c0-1.4-1.1-2.4-2.4-2.5c0,0,0,0,0,0c0,0,0,0,0,0c0,0,0,0-0.1,0c-1.3,0-2.4,1.1-2.4,2.4
		c0,0.9,0,1.7-0.1,2.6c-0.1,2.7-0.1,5.4-0.2,8.1c-1,35.2-2,71.5-7.9,106.7c0.1,0,0.2,0,0.4,0.1c0.5,0,1-0.1,1.5-0.2c0,0,0.1,0,0.1,0
		l0.1,0c1.2-0.2,2.4,0.6,2.7,1.8c6.2-35.7,7.2-72.5,8.1-108.2c0.1-2.7,0.1-5.5,0.2-8.2C127.3,666,127.3,665.2,127.4,664.3
		L127.4,664.3z"/>
	<path fill="#1B2A54" d="M97.2,781.4c-0.7-0.1-1.4-0.1-2-0.2c0,0-0.1,0-0.1,0c0,0-0.1,0-0.1,0c-0.1,0-0.2,0-0.3,0
		c-1,0-1.9,0.6-2.3,1.5c0.4-0.3,0.7-0.5,1.1-0.8c1.1-0.8,2.7-0.5,3.5,0.7c0.8,1.1,0.5,2.7-0.7,3.5c-0.2,0.1-0.3,0.2-0.4,0.3
		c3.7,0.4,8.1,0.7,12.1,0.7c2.1,0,4.1-0.1,6-0.2c-0.1-0.1-0.2-0.1-0.4-0.2c0,0-0.1,0-0.1,0l-0.1,0c-1.3-0.4-2.1-1.8-1.7-3.1
		c0.2-0.8,0.8-1.4,1.5-1.6C108.4,782.1,102.3,781.9,97.2,781.4z"/>
	<path fill="#1B2A54" d="M116.2,781.5l-0.1,0c0,0-0.1,0-0.1,0c-0.5,0.1-1,0.1-1.5,0.2c0.1,0,0.1,0,0.2,0c0.1,0,0.3,0.1,0.4,0.1
		c1.5,0.5,2.8,1.5,3.8,2.9c0.1-0.4,0.2-0.7,0.1-1.1c0-0.1-0.1-0.3-0.1-0.4C118.6,782.1,117.5,781.3,116.2,781.5z"/>
	<path fill="#1B2A54" d="M115.1,781.8c-0.1-0.1-0.3-0.1-0.4-0.1c-0.1,0-0.1,0-0.2,0c-0.1,0-0.2-0.1-0.4-0.1c-0.4,0-0.7,0-1,0.2
		c-0.7,0.3-1.3,0.8-1.5,1.6c-0.4,1.3,0.4,2.7,1.7,3.1l0.1,0c0,0,0.1,0,0.1,0c0.1,0,0.2,0.1,0.4,0.2c0.8,0.4,1.5,1.4,1.8,2.6
		c0.4,1.6,0.3,3.5,0.2,5.5c-0.2,2.2-0.4,4.4-1.7,5.3c-0.5,0.4-1.3,0.7-2.1,0.9c-0.5,0.2-1.1,0.4-1.6,0.6c-3.9,1.6-6.5,5.1-8.8,8.1
		l-0.3,0.3c-2.6,3.4-5.5,6.9-9,9.7c-2.5,2-6.5,4.4-11.3,4.5c-3.1,0.1-5.8-0.8-7.3-2.6c-1.6-1.8-2.2-4.8-1.6-7.7
		c0.7-3.2,2.5-6.1,4.2-8.5c5.3-7.6,11.8-14,19.4-19.3c0.2-0.1,0.3-0.2,0.4-0.3c1.1-0.8,1.4-2.3,0.7-3.5c-0.8-1.1-2.3-1.4-3.5-0.7
		c-0.4,0.3-0.8,0.5-1.1,0.8c0,0,0,0,0,0c-7.8,5.5-14.6,12.2-20.1,20c-2,2.8-4.1,6.3-5,10.3c-1,4.6,0.1,9.1,2.8,12.1
		c2.4,2.7,6.2,4.2,10.5,4.2h0.1c0.2,0,0.4,0,0.7,0c4.8-0.2,9.7-2.1,14.1-5.6c4-3.1,7.1-6.9,9.9-10.6l0.3-0.3c2-2.6,4.1-5.4,6.8-6.5
		c0.4-0.2,0.8-0.3,1.3-0.4c1.2-0.4,2.5-0.8,3.7-1.8c3-2.4,3.4-6.4,3.6-8.9c0.2-2.2,0.4-4.7-0.3-7.2c-0.3-1.2-0.9-2.3-1.6-3.3
		C117.9,783.4,116.6,782.3,115.1,781.8z"/>
	<path fill="#1B2A54" d="M148.4,781.1c0.1,0,0.2,0,0.3,0c0.1,0,0.2,0,0.3,0c0.6,0.1,1.3,0.2,2,0.2c-1.2-15.9-3.3-32.1-5.3-47.7
		c-2.9-21.9-5.8-44.5-6.2-66.9c0-0.7,0-1.4,0-2.1c0-1.4-1.1-2.5-2.5-2.5c0,0,0,0,0,0c-1.4,0-2.5,1.1-2.5,2.5c0,0.7,0,1.3,0,2
		c0.4,22.6,3.3,45.5,6.2,67.5c2.1,15.8,4.2,32.2,5.3,48.3c0,0,0,0,0,0C146.5,781.7,147.4,781.1,148.4,781.1z"/>
	<path fill="#1B2A54" d="M181.2,664.7l0-0.1c0-0.1,0-0.2,0-0.3c0-0.9-0.5-1.7-1.1-2.1c-0.4-0.3-0.9-0.4-1.4-0.4
		c-0.5,0-0.9,0.1-1.3,0.4c-0.7,0.4-1.2,1.2-1.2,2.1l0,0.1c0,0.1,0,0.2,0,0.2c0,0.8,0,1.7-0.1,2.5c-0.1,2.5-0.1,5-0.2,7.6
		c-1,35.2-2,71.7-7.9,106.8c0.1,0,0.2,0,0.3,0.1c0.5,0,1-0.1,1.5-0.2c0,0,0.1,0,0.1,0l0.1,0c1.2-0.2,2.4,0.6,2.7,1.8
		c6.2-35.8,7.2-72.7,8.1-108.3c0.1-2.5,0.1-5.1,0.2-7.7C181.2,666.4,181.2,665.6,181.2,664.7z"/>
	<path fill="#1B2A54" d="M151,781.4c-0.7-0.1-1.4-0.1-2-0.2c-0.1,0-0.2,0-0.3,0c-0.1,0-0.2,0-0.3,0c-1,0-1.9,0.6-2.3,1.5
		c0.4-0.3,0.8-0.5,1.1-0.8c1.1-0.8,2.7-0.5,3.5,0.7c0.8,1.1,0.5,2.7-0.7,3.5c-0.2,0.1-0.3,0.2-0.5,0.3c3.7,0.4,8.1,0.7,12.1,0.7
		c2.1,0,4.2-0.1,6-0.2c-0.1-0.1-0.2-0.1-0.4-0.2c0,0-0.1,0-0.1,0l-0.1,0c-1.3-0.4-2.1-1.8-1.7-3.1c0.2-0.8,0.8-1.4,1.5-1.6
		C162.3,782.1,156.2,781.9,151,781.4z"/>
	<path fill="#1B2A54" d="M170.1,781.5l-0.1,0c0,0-0.1,0-0.1,0c-0.5,0.1-1,0.1-1.5,0.2c0.1,0,0.1,0,0.2,0c0.1,0,0.3,0.1,0.4,0.1
		c1.5,0.5,2.8,1.6,3.8,2.9c0.1-0.4,0.2-0.7,0.1-1.1c0-0.1-0.1-0.3-0.1-0.4C172.5,782.1,171.3,781.3,170.1,781.5z"/>
	<path fill="#1B2A54" d="M169,781.8c-0.1-0.1-0.3-0.1-0.4-0.1c-0.1,0-0.1,0-0.2,0c-0.1,0-0.2,0-0.3-0.1c-0.4,0-0.7,0-1,0.2
		c-0.7,0.3-1.3,0.8-1.5,1.6c-0.4,1.3,0.4,2.7,1.7,3.1l0.1,0c0,0,0.1,0,0.1,0c0.1,0,0.2,0.1,0.4,0.2c0.8,0.4,1.5,1.4,1.8,2.6
		c0.4,1.6,0.3,3.5,0.2,5.5c-0.2,2.2-0.4,4.4-1.7,5.3c-0.5,0.4-1.3,0.7-2.1,0.9c-0.5,0.2-1.1,0.4-1.6,0.6c-3.9,1.6-6.5,5.1-8.8,8.1
		l-0.3,0.4c-2.6,3.4-5.5,6.9-9,9.7c-2.5,2-6.5,4.4-11.3,4.5c-3.1,0.1-5.8-0.8-7.3-2.6c-1.6-1.8-2.2-4.8-1.6-7.7
		c0.7-3.2,2.5-6.1,4.2-8.5c5.3-7.6,11.8-14,19.4-19.3c0.2-0.1,0.3-0.2,0.5-0.3c1.1-0.8,1.4-2.3,0.7-3.5c-0.8-1.1-2.3-1.4-3.5-0.7
		c-0.4,0.3-0.8,0.5-1.1,0.8c0,0,0,0,0,0c-7.8,5.5-14.6,12.2-20.1,20c-2,2.8-4.1,6.3-5,10.3c-1,4.6,0.1,9.1,2.8,12.1
		c2.4,2.7,6.2,4.2,10.5,4.2h0.1c0.2,0,0.4,0,0.7,0c6-0.2,11-3.2,14.1-5.6c4-3.1,7.1-6.9,9.9-10.6l0.3-0.4c2-2.6,4.1-5.3,6.8-6.5
		c0.4-0.2,0.8-0.3,1.3-0.4c1.2-0.4,2.5-0.8,3.7-1.8c3-2.4,3.4-6.4,3.6-8.9c0.2-2.2,0.4-4.7-0.3-7.2c-0.3-1.2-0.9-2.3-1.6-3.2
		C171.8,783.4,170.5,782.3,169,781.8z"/>
	<path fill="#1B2A54" d="M168.4,153.4c0-1.4-1.1-2.5-2.5-2.5c-1,0-1.9,0.6-2.3,1.5c0,0,0,0,0,0c0,0.1-0.1,0.2-0.1,0.2
		c0,0,0,0.1,0,0.1c0,0,0,0.1,0,0.1c-0.3,1.1,0.2,2.3,1.2,2.8c0.4,0.2,0.8,0.3,1.2,0.3c0.9,0,1.8-0.5,2.2-1.3c0,0,0,0,0,0
		c0,0,0,0,0,0c0,0,0-0.1,0-0.1C168.3,154.2,168.4,153.8,168.4,153.4z"/>
	<path fill="#1B2A54" d="M159.4,165.4c-0.6-1.2-2.1-1.8-3.3-1.2c-0.2,0.1-0.3,0.2-0.5,0.3c-0.1,0.1-0.2,0.1-0.2,0.2
		c-0.8,0.7-1,1.9-0.5,2.9c0.4,0.9,1.3,1.4,2.2,1.4c0.4,0,0.8-0.1,1.1-0.3c0.1-0.1,0.3-0.2,0.4-0.3c0.1-0.1,0.1-0.1,0.2-0.2
		c0.1-0.1,0.1-0.1,0.2-0.2C159.6,167.4,159.8,166.3,159.4,165.4z"/>
	<path fill="#1B2A54" d="M187.1,582.8c-0.2,1.4,0.7,2.7,2,2.9c0.1,0,0.3,0,0.4,0c1.2,0,2.2-0.8,2.5-2.1c7.8-43.4,5.7-88.8-6-131.3
		c-0.4-1.3-1.7-2.1-3.1-1.7c-1.3,0.4-2.1,1.7-1.7,3.1C192.7,495.6,194.7,540.2,187.1,582.8z"/>
	<path fill="#1B2A54" d="M176.5,650.7c0.2,0,0.4,0.1,0.6,0.1c1.1,0,2.1-0.8,2.4-1.9c4.2-17.1,7.8-34.6,10.5-52
		c0.2-1.4-0.7-2.6-2.1-2.9c-1.4-0.2-2.6,0.7-2.9,2.1c-2.7,17.3-6.2,34.7-10.4,51.6C174.3,649,175.2,650.3,176.5,650.7z"/>
	<path fill="#1B2A54" d="M80.7,400.1c1.1,0.2,2.3,0.3,3.4,0.4c0.7,0.1,1.4,0.2,2,0.2c1,0.1,2.1,0.2,3.1,0.2c2.1,0.1,4.2,0.2,6.3,0.2
		c3.6,0,7.2-0.2,10.7-0.6c3.8-0.4,7.7-1,11.5-1.9c0.2,0,0.4-0.1,0.6-0.2c-0.1,0-0.1,0-0.2,0c0,0-0.1,0-0.1,0c-1.3,0-2.5-1.1-2.5-2.4
		l-0.1-2c-3.2,0.7-6.5,1.2-9.8,1.6c0,0,0,0,0,0c0,0,0,0-0.1,0c-6.3,0.7-12.8,0.7-19.2,0.1c-2.5-0.2-5-0.6-7.5-1
		c-15.2-2.6-29.4-8.8-41-17.9c-22-17.2-34.8-45.7-32.7-72.6C6.9,282.4,18,260,36.3,241.4c16.7-17,37.2-29,54.4-37.8
		c1.8-0.9,3.6-1.8,5.3-2.7c1.2-0.6,1.7-2.1,1.1-3.4c-0.4-0.8-1.1-1.2-1.9-1.4c-0.5-0.1-1,0-1.5,0.2c-18.5,9.2-42.1,22.2-61.1,41.5
		c-19.2,19.5-30.7,42.9-32.5,66c-2.2,29,11,58.5,34.6,77c11.6,9.1,25.7,15.4,40.8,18.4c0.8,0.2,1.6,0.3,2.4,0.5
		C79,399.8,79.8,399.9,80.7,400.1z"/>
	<path fill="#1B2A54" d="M103.8,360C103.8,360,103.8,360,103.8,360c-1,0-2.1,0-3.1,0c-0.8,0-1.5,0-2.3,0c-0.9,0-1.9-0.1-2.8-0.1
		c-3.4-0.2-6.6-0.7-9.6-1.3c-1.3-0.3-2.5-0.6-3.7-1c-0.5-0.1-1-0.3-1.4-0.5c-0.1,0-0.1,0-0.2-0.1c-1.1-0.4-2.2-0.8-3.2-1.2
		c-0.7-0.3-1.4-0.6-2.1-1c-0.4-0.2-0.7-0.4-1.1-0.5c-11.2-6.1-19.1-18.3-20.2-31c-0.9-11,3.3-22.6,11.1-30.6
		c1.1-1.2,2.3-2.3,3.6-3.3c0,0,0.1-0.1,0.1-0.1c0.5-0.4,0.7-0.9,0.9-1.4c0.1-0.5,0.1-1-0.1-1.4c-0.1-0.2-0.2-0.5-0.4-0.7
		c-0.8-1.1-2.4-1.2-3.5-0.4c0,0-0.1,0.1-0.1,0.1c-0.4,0.3-0.7,0.6-1,0.9c-10.8,9.1-16.7,23.2-15.5,37.3c1.2,14.3,10.1,28.1,22.8,35
		c1.2,0.6,2.3,1.2,3.5,1.7c1.7,0.8,3.6,1.4,5.4,2c5.1,1.6,10.8,2.4,17.3,2.7c0,0,0.1,0,0.1,0c0,0,0,0,0,0c0.1,0,0.1,0,0.2,0
		c0,0,0,0,0,0c1.1,0,2.1,0.1,3.2,0.1c0.8,0,1.5,0,2.3,0c3.2-0.1,6.6-0.2,10.7-0.6l-0.1-2.6c0-0.2,0-0.3,0-0.4c0-0.9,0.5-1.7,1.2-2.1
		C111.1,359.7,107.3,360,103.8,360C103.8,360,103.8,360,103.8,360z"/>
	<path fill="#1B2A54" d="M120.6,395.9l-0.1-3.3c-0.5,0-0.9,0.1-1.3,0.1c-1.4,0.2-2.6-0.8-2.8-2.1c-0.2-1.4,0.8-2.6,2.1-2.8
		c0.6-0.1,1.2-0.1,1.9-0.2l-0.6-19.7l-1.9,0.1c-1.4,0.1-2.6-1-2.7-2.3c-0.1-1.4,1-2.6,2.3-2.7l2-0.1l0-1.2c0-0.1,0-0.2,0-0.3
		c0-1.4-1.1-2.5-2.5-2.5c-0.5,0-0.9,0.1-1.3,0.4c-0.7,0.4-1.2,1.2-1.2,2.1c0,0.1,0,0.2,0,0.4l0.1,2.6l1,29.6l0.1,2
		c0,1.4,1.2,2.4,2.5,2.4c0,0,0.1,0,0.1,0c0.1,0,0.1,0,0.2,0C119.7,398.3,120.7,397.2,120.6,395.9z"/>
	<path fill="#1B2A54" d="M130.1,368.1C130.1,368.1,130,368.1,130.1,368.1c-1.4,0-2.5-1.1-2.5-2.5c0-1.4,1.1-2.5,2.5-2.5
		c0.1,0,0.3,0,0.4,0c-0.5-0.5-1.2-0.8-1.9-0.8l-8.9,0.6l-2,0.1c-1.4,0.1-2.4,1.3-2.3,2.7c0.1,1.4,1.3,2.4,2.7,2.3l1.9-0.1l6.7-0.4
		c0.9,6.9,1.7,13.9,2.6,20.8c-2.8-0.7-5.8-0.9-8.7-0.7c-0.6,0-1.2,0.1-1.9,0.2c-1.4,0.2-2.3,1.5-2.1,2.8c0.2,1.4,1.5,2.3,2.8,2.1
		c0.4-0.1,0.9-0.1,1.3-0.1c3.6-0.3,7.2,0.2,10.6,1.5c0.3,0.1,0.6,0.2,0.9,0.2c0.6,0,1.1-0.2,1.5-0.5c0.7-0.5,1-1.4,0.9-2.3l0-0.1
		c-0.4-0.1-0.9-0.1-1.3-0.2c-1.4-0.2-2.3-1.5-2-2.9c0.2-1.3,1.4-2.2,2.7-2c-0.8-6-1.5-12.1-2.3-18.1
		C131.1,368.1,130.6,368.1,130.1,368.1z"/>
	<path fill="#1B2A54" d="M83.4,386.2c0-0.9-0.4-1.8-1.2-2.2c-0.8-0.5-1.8-0.5-2.5,0c-0.5,0.3-0.9,0.7-1.2,1.1
		c-0.1,0.1-0.2,0.2-0.3,0.4c-0.4,0.6-0.6,1.3-0.4,2c0,0.7,0.1,1.3,0.5,1.9c0.4,0.8,1.3,1.3,2.2,1.3c0.1,0,0.1,0,0.2,0
		c1.1-0.1,2-0.7,2.6-1.6c0.4-0.7,0.5-1.5,0.3-2.3C83.4,386.6,83.4,386.4,83.4,386.2z"/>
	<path fill="#1B2A54" d="M93.8,385.9c-0.1-0.1-0.2-0.2-0.2-0.4c-0.9-1.1-2.4-1.2-3.5-0.4c-0.7,0.5-1.1,1.3-1.1,2.1
		c0,0.1,0,0.1,0,0.2l-0.1,0.9c0,0.7,0.2,1.3,0.6,1.8c0.4,0.5,1.1,0.8,1.7,0.8l1.1,0.1c0,0,0.1,0,0.1,0c1.3,0,2.4-1,2.5-2.4
		c0,0,0,0,0,0c0.1-1-0.2-2-1-2.8C93.8,386,93.8,385.9,93.8,385.9z"/>
	<path fill="#1B2A54" d="M103.7,385.1L103.7,385.1c0,0,0.1,0,0.1,0.1c0.1,0.1,0.3,0.2,0.4,0.2c-0.2-0.2-0.4-0.4-0.7-0.5
		c-0.7-0.4-1.4-0.4-2-0.2C102.2,384.7,103,384.8,103.7,385.1z"/>
	<path fill="#1B2A54" d="M98.5,388.4c0,1.1,0.6,2.2,1.5,2.8c0,0,0,0,0,0c0,0,0,0,0,0c0.1,0.1,0.3,0.2,0.6,0.3
		c0.1,0.1,0.2,0.1,0.4,0.1c0.3,0.1,0.7,0.2,1.1,0.2c0.7,0,1.3-0.2,1.9-0.6c0.6-0.4,1.1-1,1.4-1.6c0,0,0,0,0,0
		c0.2-0.4,0.3-0.9,0.3-1.5c0-1.1-0.6-2.1-1.5-2.8c-0.1-0.1-0.3-0.2-0.4-0.2c0,0-0.1,0-0.1-0.1h0c-0.7-0.4-1.5-0.5-2.2-0.3
		c-0.3,0.1-0.7,0.1-1,0.3c-0.1,0.1-0.2,0.1-0.3,0.2c-0.1,0.1-0.2,0.1-0.3,0.2c0,0-0.1,0.1-0.1,0.1c0,0,0,0,0,0
		C98.9,386.3,98.5,387.3,98.5,388.4z"/>
	<path fill="#1B2A54" d="M173.9,354.5c0,0.1,0,0.2-0.1,0.5c-0.2,0.4-0.6,0.8-1,0.9c-0.8,0.1-1.7-0.4-2.4-1.1
		c-0.2-0.2-0.3-0.4-0.5-0.6c-0.1-0.2-0.2-0.4-0.3-0.5c-0.1-0.2-0.2-0.4-0.2-0.5c-0.1-0.1-0.1-0.2-0.2-0.4c-0.5-1.5-0.7-3.3-0.8-5
		c-0.1-1.1,0.3-2.9,0.6-4.7c0.2-1,0.4-2.1,0.5-3c0-0.1,0-0.1,0-0.2c0.2-1.3,0.2-2.4,0.1-3.4c0-0.1,0-0.3-0.1-0.4
		c-0.5-2.4-2.3-3.8-4.7-3.8c0,0-0.1,0-0.1,0c-0.2,0-0.3,0-0.5,0.1c-4,1.1-6.9,4.9-7.8,10.2c-0.3,1.4-0.4,2.8-0.5,4.2
		c-0.2,2.2-0.4,4.2-1,6c-1.4,3.8-5.1,7-10,8.5c-4.6,1.5-9.6,1.6-14.5,1.7c-0.1,0-0.3,0-0.4,0c-1.4,0-2.5,1.2-2.5,2.5
		c0,1.4,1.1,2.5,2.5,2.5c0,0,0,0,0,0c0.5,0,1,0,1.5,0c4.9-0.1,10-0.3,14.9-1.9c6.4-2.1,11.2-6.3,13.1-11.6c0.9-2.4,1.1-4.9,1.3-7.3
		c0.1-1.3,0.2-2.6,0.5-3.8c0.4-2.3,1.5-4.8,3.3-5.9c0,0,0.1-0.1,0.1-0.1c0,0.4,0,1-0.1,1.8c0,0,0,0.1,0,0.1
		c-0.1,0.8-0.3,1.7-0.5,2.7c-0.4,2.1-0.8,4.2-0.7,6c0.2,2,0.3,4.2,1.1,6.3c0.2,0.5,0.4,1,0.7,1.5c0.2,0.4,0.4,0.8,0.7,1.1
		c1.9,2.7,4.8,4.1,7.6,3.7c2.1-0.3,4-1.8,4.9-3.9c0.6-1.3,0.6-2.8,0.2-4c-0.1,1.3-1.3,2.3-2.7,2.2c-1.4-0.1-2.4-1.3-2.3-2.7
		c0-0.2,0.1-0.4,0.1-0.6C173.3,352.7,173.3,353.7,173.9,354.5z"/>
	<path fill="#1B2A54" d="M177.3,362c-1.1,0.6-2.5,1-4.1,1.3c-1.4,0.2-2.3,1.5-2.1,2.9c0.2,1.2,1.3,2.1,2.5,2.1c0.1,0,0.3,0,0.4,0
		c2.2-0.4,4-0.9,5.6-1.7c1.2-0.6,1.7-2.1,1.1-3.4C180,361.9,178.5,361.4,177.3,362z"/>
	<path fill="#1B2A54" d="M185.5,349.5c-0.4-0.5-0.8-0.9-1.2-1.2c-0.7-0.6-1.6-1-2.5-1.3c-0.1,0-0.2,0-0.2-0.1
		c-0.9-0.2-1.8-0.2-2.7-0.1c-0.8,0.2-1.6,0.5-2.3,0.9c-1.5,0.9-2.6,2.4-2.9,4c0,0.2-0.1,0.4-0.1,0.6c-0.1,1.4,0.9,2.6,2.3,2.7
		c1.4,0.1,2.5-0.9,2.7-2.2c0,0,0,0,0-0.1c0-0.4,0.6-0.9,1.2-1c0.3,0,0.5,0,0.7,0c0.5,0.1,0.9,0.5,1.1,0.8c0.5,0.6,0.8,1.3,0.8,2.1
		c0,0.8-0.1,1.6-0.5,2.4c-0.1,0.3-0.3,0.6-0.5,0.9c-0.7,1.2-0.4,2.7,0.8,3.4c0.4,0.3,0.9,0.4,1.3,0.4c0.6,0,1.1-0.2,1.5-0.5
		c-0.3-0.3-0.7-0.6-1.2-0.6c-1.4-0.2-2.3-1.4-2.1-2.8c0.2-1.4,1.4-2.3,2.8-2.1c1,0.1,1.9,0.5,2.7,1c0.1-0.7,0.2-1.4,0.2-2.1
		c0-0.5-0.1-1-0.2-1.5C186.9,351.7,186.4,350.5,185.5,349.5z"/>
	<path fill="#1B2A54" d="M184.6,355.7c-1.4-0.2-2.6,0.8-2.8,2.1c-0.2,1.4,0.8,2.6,2.1,2.8c0.5,0.1,0.9,0.4,1.2,0.6
		c0.1,0.1,0.2,0.2,0.3,0.3c0.6,0.7,0.8,1.8,0.7,2.6c-0.2,1.8-1.7,3.5-3.8,4.7c-1,0.5-2.2,1-3.7,1.3c-1.2,0.3-2.4,0.5-3.6,0.7l-0.1,0
		c-1.4,0.2-2.3,1.5-2,2.9c0.2,1.2,1.3,2.1,2.5,2.1c0.1,0,0.3,0,0.4,0l0.1,0c1.1-0.2,2.3-0.4,3.4-0.7c0.2,0,0.4-0.1,0.6-0.1
		c1.6-0.4,2.9-0.8,4.1-1.4c-0.7-0.2-1.3-0.7-1.6-1.4c-0.5-1.3,0.1-2.7,1.4-3.3c1.7-0.7,3.7-0.4,5.2,0.9c1.2-1.5,2-3.2,2.2-4.9
		c0.3-2.2-0.3-4.5-1.7-6.3c-0.6-0.8-1.3-1.4-2.1-1.9C186.4,356.1,185.5,355.8,184.6,355.7z"/>
	<path fill="#1B2A54" d="M183.6,368.9c-1.3,0.5-1.9,2-1.4,3.3c0.3,0.7,0.9,1.2,1.6,1.4c0.5,0.1,1.1,0.1,1.6-0.1
		c0.1,0,0.3,0.2,0.6,0.6c0.2,0.4,0.3,0.9,0.2,1.2c-0.3,1-1.2,2-2.9,3c-0.3,0.2-0.7,0.4-1.1,0.6c0,0-0.1,0-0.1,0.1
		c-0.1,0-0.2,0.1-0.2,0.1c-0.2,0.1-0.3,0.2-0.5,0.2c-0.8,0.4-1.5,0.7-2.2,1.1c-0.3,0.1-0.7,0.3-1,0.4c-3.9,1.7-7.9,3.1-12,4.1
		c-0.2,0.1-0.4,0.1-0.6,0.2c-10.4,2.5-21.4,2.9-31.7,1.1c-0.1,0-0.1,0-0.2,0c-1.3-0.1-2.5,0.7-2.7,2c-0.2,1.4,0.7,2.7,2,2.9
		c0.4,0.1,0.9,0.1,1.3,0.2c4.1,0.7,8.4,1,12.6,1c5.9,0,11.7-0.6,17.5-1.8c0.8-0.2,1.5-0.3,2.3-0.5c0.3-0.1,0.5-0.1,0.7-0.2
		c0.7-0.2,1.3-0.4,2-0.5c3.6-1,7.2-2.3,10.7-3.8c0.2-0.1,0.4-0.2,0.6-0.3c1.1-0.5,2.2-1,3.3-1.6c0.1-0.1,0.3-0.2,0.5-0.2
		c0.4-0.2,0.8-0.5,1.3-0.7c2.1-1.3,4.3-3,5.2-5.9c0.7-2.3-0.2-5.1-2-6.8c-0.1-0.1-0.2-0.1-0.2-0.2
		C187.3,368.5,185.4,368.2,183.6,368.9z"/>
	<path fill="#1B2A54" d="M166.6,199.9c-1.6-0.2-2.9,1-2.9,2.5c0,0.3,0.1,0.6,0.2,0.8c0.1,0.3,0.3,0.6,0.5,0.9
		c0.4,0.4,0.9,0.7,1.5,0.8c1.9,0.3,3.8,0.8,5.6,1.3c14.8,4.3,28.9,14.8,40,30.1c11.8,16.2,19.3,36.1,25.3,52.1
		c1.3,3.4,2.7,7.2,5.4,10.2c2.6,3,6.2,4.6,9.6,4.6c0.8,0,1.7-0.1,2.5-0.3c6.2-1.6,8.8-8.7,10.1-12.1l8.9-24.1
		c-0.1-0.1-0.1-0.1-0.2-0.2c-0.4-0.2-0.7-0.4-0.9-0.8c-0.2-0.2-0.4-0.4-0.7-0.6l-1.1-0.9c-0.6-0.5-0.9-1.3-0.8-2
		c0,0-0.1,0.1-0.1,0.1l-9.9,26.7c-1.5,4.2-3.4,8.1-6.7,9c-2.6,0.7-5.4-0.9-7.1-2.8c-2.1-2.4-3.3-5.6-4.5-8.7
		c-6.1-16.3-13.8-36.5-26-53.3c-13-17.9-29.9-29.6-47.7-33.2c-0.4-0.1-0.8-0.2-1.1-0.2C166.7,199.9,166.6,199.9,166.6,199.9z"/>
	<path fill="#1B2A54" d="M299.3,283.7c0,0-0.1,0-0.2-0.1c-0.8-0.3-1.6-0.6-2.4-0.9c-3.8,15.8-7.8,32.1-17.2,45.5
		c-10.1,14.5-25.8,22.5-39.9,20.4c-9.1-1.4-18.2-7-25.6-15.9c-6.8-8.2-11.6-18-16.2-27.5c-0.3-0.6-0.8-1.1-1.4-1.3
		c-0.6-0.2-1.3-0.2-1.9,0.1c-1.2,0.6-1.8,2.1-1.2,3.3c0.7,1.4,1.3,2.7,2,4.1c4.2,8.5,8.7,17,14.8,24.4c8.2,9.8,18.4,16.1,28.7,17.7
		c1.8,0.3,3.5,0.4,5.3,0.4c14.4,0,29.4-8.6,39.4-22.9c9.9-14.2,14.2-31.8,17.9-47.3c0.1-0.2,0.1-0.5,0.1-0.7c-0.4,0.4-1,0.6-1.6,0.6
		C299.8,283.8,299.5,283.8,299.3,283.7z"/>
	<path fill="#1B2A54" d="M297.1,280.7c-0.3,0-0.7-0.1-1-0.2c-1.3-0.6-1.8-2-1.3-3.3c0.1-0.2,0.2-0.4,0.2-0.5
		c-2.5-1.2-4.9-2.6-7.1-4.2c-2.6-1.8-5.1-3.9-7.8-6.3c-0.7-0.6-1.4-1.2-2.1-1.8c-0.6,1-1.5,2-3,2.4c-0.1,0-0.1,0-0.2,0.1
		c-0.6,0.2-1.2,0.1-1.8-0.2c0.1,0.1,0.1,0.1,0.2,0.2c1.2,1.1,2.4,2.1,3.6,3.1c2.8,2.5,5.4,4.7,8.2,6.6c2.7,1.9,5.6,3.6,8.7,5
		c1,0.5,2,0.9,3,1.3c0.8,0.3,1.6,0.6,2.4,0.9c0,0,0.1,0,0.2,0.1c0.3,0.1,0.5,0.1,0.8,0.1c0.6,0,1.2-0.2,1.6-0.6
		c0.3-0.3,0.6-0.6,0.7-1.1c0.4-1.3-0.3-2.7-1.6-3.2c0,0-0.1,0-0.2-0.1c-0.3-0.1-0.6-0.2-1-0.3c-0.1,0.2-0.2,0.4-0.3,0.6
		C299,280.2,298.1,280.7,297.1,280.7z"/>
	<path fill="#1B2A54" d="M270.4,264.4l1.1,0.9c0.2,0.2,0.4,0.4,0.7,0.6c-0.1-0.2-0.3-0.4-0.3-0.7c-0.4-1.3,0.3-2.7,1.6-3.2
		c0,0,0,0,0,0c0.1,0,0.1,0,0.2-0.1c0.1-0.1,0.3-0.5,0.5-1l-0.4-0.3c-1-0.9-2.6-0.8-3.5,0.2c-0.4,0.4-0.6,1-0.6,1.5
		C269.5,263.1,269.8,263.9,270.4,264.4z"/>
	<path fill="#1B2A54" d="M286.2,292.9c0.2,0.2,0.5,0.3,0.8,0.4c0.5,0.4,1.1,0.5,1.7,0.5c0.7,0,1.3-0.2,1.8-0.7
		c0.7-0.6,1.1-1.6,0.8-2.5c-0.1-0.5-0.3-1-0.4-1.6c-0.2-0.9-1-1.6-1.9-1.8c-0.9-0.2-1.9,0.1-2.5,0.9c-0.3,0.4-0.6,0.8-1,1.2
		C284.8,290.5,285.1,292,286.2,292.9z"/>
	<path fill="#1B2A54" d="M281.1,304.3c0.2,0.1,0.3,0.2,0.5,0.3c0.6,0.5,1.4,0.8,2.2,0.8c0.4,0,0.8-0.1,1.2-0.2
		c1.7-0.6,2.8-2.2,2.4-3.8c-0.3-1.7-1.8-2.8-3.7-2.7c-1.5,0.1-2.7,1-3.1,2.2C279.8,301.9,280,303.5,281.1,304.3z"/>
	<path fill="#1B2A54" d="M275.9,318.3c0.6,0.3,1.2,0.5,1.8,0.5c0.6,0,1.1-0.1,1.6-0.4c1.1-0.6,1.9-1.6,2-2.9
		c0.1-1.2-0.5-2.4-1.5-3.1c-1-0.8-2.3-0.9-3.4-0.5c-0.1,0-0.2,0.1-0.3,0.1c0,0-0.1,0.1-0.1,0.1c-1.1,0.6-1.7,1.8-1.7,3
		C274.2,316.5,274.8,317.6,275.9,318.3z"/>
	<path fill="#1B2A54" d="M302.2,265.8c-0.1,1.3-1.2,2.3-2.5,2.3c-0.1,0-0.2,0-0.2,0c-0.2,0-0.4-0.1-0.6-0.1
		c-1.3,2.9-2.6,5.8-3.8,8.7c-0.1,0.2-0.2,0.4-0.2,0.5c-0.6,1.3,0,2.7,1.3,3.3c0.3,0.1,0.7,0.2,1,0.2c1,0,1.9-0.6,2.3-1.5
		c0.1-0.2,0.2-0.4,0.3-0.6c1.3-3,2.6-5.9,3.9-8.9c0.3-0.7,0.8-1.8,0.6-3.2c-0.2-1.1-0.8-2.1-1.7-2.9c-0.1,0.5-0.1,1-0.2,1.5
		L302.2,265.8z"/>
	<path fill="#1B2A54" d="M273.6,262c-0.1,0-0.1,0-0.2,0.1c0,0,0,0,0,0c-1.3,0.4-2,1.9-1.6,3.2c0.1,0.2,0.2,0.5,0.3,0.7
		c0.2,0.3,0.5,0.6,0.9,0.8c0.5,0.3,1.2,0.3,1.8,0.2c0.1,0,0.1,0,0.2-0.1c1.5-0.4,2.4-1.4,3-2.4c0.4-0.7,0.8-1.5,1-2.2
		c0.3-0.7,0.7-1.7,1-2c0,0,0.1-0.1,0.4-0.1c0.7,0,1.8,0.4,2.2,0.6l14.8,6c-0.2-0.4-0.3-0.9-0.3-1.3l0.1-0.6c0.1-1.1,0.3-2.2,0.5-3.3
		l-12.8-5.2c0.3,0.9,0.1,1.9-0.6,2.6c-0.5,0.5-1.1,0.7-1.7,0.7c-0.7,0-1.3-0.3-1.8-0.8l-0.5-0.5c-0.8-0.9-1.4-1.8-1.9-2.8
		c-0.3,0.1-0.6,0.2-0.9,0.4c-1.8,1.1-2.5,2.9-3.1,4.4c-0.1,0.2-0.2,0.4-0.3,0.7C273.9,261.4,273.7,261.9,273.6,262z"/>
	<path fill="#1B2A54" d="M280.3,258.3l0.5,0.5c0.5,0.5,1.2,0.8,1.8,0.8c0.6,0,1.2-0.2,1.7-0.7c0.7-0.7,1-1.7,0.6-2.6
		c-0.1-0.3-0.3-0.6-0.5-0.9l-0.5-0.5c-3.5-4-3.3-10.2-1.9-14.6c1.1-3.6,3-6.8,5-10.2c0-0.8,0.5-1.6,1.2-2c0.8-1.3,1.5-2.6,2.3-3.9
		c7.1-12.7,10.8-27.5,10.6-42.1c0-0.4-0.1-0.8-0.1-1.1c0-0.2,0-0.3-0.1-0.5c-0.8,1-2.3,1.2-3.3,0.4c-0.9-0.6-1.5-1.6-1.6-2.8
		c0-0.4,0-0.7,0.1-1.1c-0.1,0.3-0.2,0.7-0.2,1c1,15-2.5,30.5-9.9,43.7c-0.8,1.4-1.6,2.8-2.4,4.1c-2.4,4-4.9,8.2-6.4,12.9
		c-1.5,4.9-1.9,11.4,1,16.7C278.9,256.4,279.5,257.4,280.3,258.3z"/>
	<path fill="#1B2A54" d="M297.7,180.8c1.1,0.7,2.5,0.5,3.3-0.4c0,0.2,0,0.3,0.1,0.5c0,0.4,0.1,0.8,0.1,1.1c1,10.4,0.6,20.9-1.2,31.2
		c0,0.1,0,0.2,0,0.3c-0.2,1.4,0.8,2.6,2.2,2.8c0.1,0,0.2,0,0.3,0c0.1,0,0.3,0,0.4,0c-1.3-0.1-2.4-1.1-2.4-2.5c0-0.2,0-0.4,0-0.6
		c0.2-1.3,1.1-2.4,2.3-3c0.8-0.4,1.8-0.5,2.7-0.4c1.4-9.8,1.6-19.7,0.5-29.6c-0.1-1.2-0.3-2.9-1.3-4.4c-1.3-2.1-3.8-3-5.9-2.3
		c-1.4,0.5-2.5,1.8-2.7,3.3c-0.1,0.3-0.1,0.7-0.1,1.1C296.2,179.2,296.8,180.2,297.7,180.8z"/>
	<path fill="#1B2A54" d="M302.9,210.3c-1.3,0.6-2.2,1.7-2.3,3c0,0.2,0,0.4,0,0.6c0,1.3,1,2.4,2.4,2.5c0,0,0.1,0,0.1,0c0,0,0,0,0,0
		c0.8,0,1.5-0.4,2-1c0.1,0.3,0.2,0.7,0.4,1.3c0.8,3.4,1.1,6.9,0.9,10.4c-0.1,2.5-0.5,5.1-1.1,7.6c-0.3,1.5-0.9,3.3-2,4.2
		c-0.4,0.3-1,0.5-1.5,0.4c-0.1,0-0.4-0.1-0.4-0.2c-0.8-1.2-2.3-1.5-3.5-0.7c-1.2,0.8-1.5,2.3-0.7,3.5c0.8,1.3,2.2,2.1,3.8,2.4
		c0.4,0.1,0.7,0.1,1.1,0.1c0.3,0,0.6,0,0.9-0.1c0-0.4,0-0.7,0-1.1c0.2-1.4,1.5-2.3,2.8-2.1c0.7,0.1,1.2,0.4,1.6,0.9
		c1.6-1.8,2.3-4.1,2.8-6c0.4-1.9,0.8-3.7,1-5.6c0,0-0.1,0-0.1,0c-1.4,0.2-2.7-0.7-2.9-2.1c-0.1-0.4-0.1-0.8,0-1c0-0.1,0-0.1,0-0.2
		c0.2-1.7,1.6-3.2,3.2-3.8c-0.1-2.6-0.5-5.1-1-7.6c-0.3-1.2-0.8-3.6-2.9-4.9c-0.5-0.3-1.2-0.6-1.8-0.7
		C304.7,209.8,303.7,209.9,302.9,210.3z"/>
	<path fill="#1B2A54" d="M312.7,222.8c-0.5,0-1,0.1-1.4,0.3c-1.7,0.6-3,2-3.2,3.8c0,0.1,0,0.1,0,0.2c0,0.2,0,0.6,0,1
		c0.2,1.4,1.5,2.3,2.9,2.1c0,0,0.1,0,0.1,0c1-0.2,1.8-1.1,1.9-2.1c0.1,0.1,0.2,0.3,0.3,0.4c0.3,0.6,0.4,1.6,0.4,2.5
		c0.1,3-0.3,5.9-1.1,8.7c-0.3,1.1-0.8,2.6-1.7,3.6c-0.6,0.7-1.5,1.2-2.2,1.1c-0.1,0-0.3-0.1-0.4-0.1c-0.3-0.2-0.5-0.5-0.5-0.6
		c0.1-0.7-0.1-1.4-0.6-1.9c-0.4-0.5-0.9-0.8-1.6-0.9c-1.4-0.2-2.6,0.8-2.8,2.1c-0.1,0.4,0,0.7,0,1.1c0.1,0.8,0.4,1.7,0.8,2.4
		c0.3-0.4,0.6-0.9,0.8-1.3c0.8-1.1,2.4-1.4,3.5-0.6c1.1,0.8,1.4,2.4,0.6,3.5c-0.3,0.4-0.5,0.8-0.8,1.2c0,0,0.1,0,0.1,0
		c0.3,0,0.6,0.1,0.9,0.1c2.1,0,4.3-1,5.8-2.8c1.5-1.8,2.2-3.9,2.7-5.5c0.9-3.3,1.4-6.7,1.3-10.2c0-1.5-0.2-3.1-0.9-4.6
		C316.8,224.1,314.7,222.8,312.7,222.8z"/>
	<path fill="#1B2A54" d="M308.1,244.6c-1.1-0.8-2.7-0.5-3.5,0.6c-0.3,0.4-0.6,0.9-0.8,1.3c-3,4.5-5,9.6-6,15
		c-0.2,1.1-0.4,2.2-0.5,3.3l-0.1,0.6c0,0.5,0.1,0.9,0.3,1.3c0.3,0.6,0.8,1,1.4,1.2c0.2,0.1,0.4,0.1,0.6,0.1c0.1,0,0.2,0,0.2,0
		c1.3,0,2.4-1,2.5-2.3l0.1-0.6c0-0.5,0.1-1,0.2-1.5c0.7-5.1,2.6-10.1,5.4-14.4c0.3-0.4,0.5-0.8,0.8-1.2
		C309.5,246.9,309.2,245.4,308.1,244.6z"/>
	<path fill="#1B2A54" d="M287.1,230.7c0.3,1.4,1.6,2.2,3,1.9c2.4-0.5,4-2.1,5.3-3.4c0.2-0.2,0.5-0.5,0.7-0.7
		c1.1-1.1,2.2-1.5,2.6-1.3c0.1,0.1,0.2,0.3,0.3,0.4c0.1,0.6,0,1.4-0.4,1.9c-0.8,1.1-2.4,1.9-4,2.7l-0.8,0.4
		c-2.2,1.1-5.1,2.9-6.1,6.2c-0.4,1.3,0.4,2.7,1.7,3.1c0.2,0.1,0.5,0.1,0.7,0.1c1.1,0,2.1-0.7,2.4-1.8c0.3-1.1,1.4-2.1,3.6-3.2
		l0.8-0.4c2-1,4.2-2.1,5.8-4.2c1.2-1.7,1.7-4,1.2-6c-0.4-1.7-1.4-3-2.9-3.7c-2.5-1.2-5.6-0.4-8.3,2.1c-0.3,0.3-0.6,0.5-0.8,0.8
		c-1,1-1.9,1.9-2.8,2.1c-0.3,0.1-0.6,0.2-0.8,0.3c-0.7,0.4-1.1,1.2-1.2,2C287.1,230.2,287.1,230.5,287.1,230.7z"/>
</g>
</svg>
