<?xml version="1.0" encoding="utf-8"?>
<!-- Generator: Adobe Illustrator 19.0.0, SVG Export Plug-In . SVG Version: 6.00 Build 0)  -->
<svg version="1.2" baseProfile="tiny" id="Layer_1" xmlns="http://www.w3.org/2000/svg" xmlns:xlink="http://www.w3.org/1999/xlink"
	 x="0px" y="0px" viewBox="0 0 182.6 182.6" xml:space="preserve">
<g id="XMLID_664_">
	<path id="XMLID_665_" fill="none" d="M83.7,93.3c0.1,0,0.2,0,0.3,0C83.9,93.3,83.8,93.3,83.7,93.3c-1.1,0.2-1.9,1.2-1.7,2.3
		l0.6,3.1c0,0,0.1,0,0.1,0l-0.6-3.1C81.9,94.5,82.6,93.4,83.7,93.3z"/>
	<path id="XMLID_729_" fill="none" d="M86.5,90.9L86.5,90.9c-0.2,1.2-0.3,2.5-0.5,3.7c0,0.1,0,0.1,0.1,0.2
		C86.2,93.4,86.4,92.2,86.5,90.9z"/>
	<path id="XMLID_730_" fill="none" d="M109.8,147c0-0.1,0-0.1,0-0.2C109.8,146.9,109.8,146.9,109.8,147z"/>
	<path id="XMLID_731_" fill="none" d="M109.2,155.4C109.2,155.4,109.2,155.4,109.2,155.4C109.2,155.4,109.2,155.4,109.2,155.4
		C109.2,155.4,109.2,155.4,109.2,155.4C109.2,155.4,109.2,155.4,109.2,155.4z"/>
	<path id="XMLID_732_" fill="none" d="M86.1,116.9C86.1,116.9,86.1,116.9,86.1,116.9c0-0.1-0.1-0.3-0.2-0.5
		C86,116.5,86,116.7,86.1,116.9z"/>
	<path id="XMLID_733_" fill="none" d="M56,79.8c0,0-0.1,0-0.1,0c-0.5,0.8-0.5,1.8,0.1,2.5c0,0,0,0,0.1,0
		C55.5,81.6,55.5,80.5,56,79.8z"/>
	<path id="XMLID_734_" fill="none" d="M100.3,96.3c-0.1,0.8-0.2,1.6-0.2,2.4c0,0,0,0,0,0C100.2,97.9,100.3,97.1,100.3,96.3
		C100.3,96.3,100.3,96.3,100.3,96.3z"/>
	<path id="XMLID_735_" fill="none" d="M61.2,75.7L61.2,75.7c2.9-1.8,5.9-3.4,9-4.7C67.1,72.3,64,73.9,61.2,75.7z"/>
	<path id="XMLID_736_" fill="none" d="M90.1,157.2c0.1,0.1,0.2,0.1,0.3,0.2C90.3,157.4,90.2,157.3,90.1,157.2z"/>
	<path id="XMLID_737_" fill="none" d="M95.9,87L95.9,87c0-0.1,0-0.2,0-0.3C95.9,86.8,95.9,86.8,95.9,87l-9.3-0.2c0-2-0.2-4-0.6-6
		c-0.2-1-1-1.7-1.9-1.7h-0.6c-6.5-0.4-13.2-0.5-19.8-0.1c0,0-0.1,0.1-0.1,0.1c6.6-0.4,13.3-0.4,19.9,0.1H84c1,0.1,1.8,0.7,1.9,1.7
		c0.3,1.9,0.5,4,0.6,6h0.1L95.9,87z"/>
	<path id="XMLID_738_" fill="none" d="M83.2,88.9c0-1.1,0.9-2,2-2h-0.1C84.1,86.9,83.2,87.8,83.2,88.9c-0.1,1.1,0.8,2,1.9,2h0.1
		C84.1,90.9,83.2,90,83.2,88.9z"/>
	<path id="XMLID_739_" fill="none" d="M100.5,57c0,0,0,0.1-0.1,0.1c0.6-0.6,1.1-1.1,1.5-1.9c0,0,0,0,0,0
		C101.5,56,101.1,56.5,100.5,57z"/>
	<path id="XMLID_740_" fill="none" d="M89.5,156.4c0.1,0.2,0.2,0.4,0.3,0.5C89.7,156.8,89.6,156.6,89.5,156.4z"/>
	<path id="XMLID_741_" fill="none" d="M131.4,93c0-0.9,0-1.7,0-2.5C131.4,91.3,131.4,92.1,131.4,93L131.4,93z"/>
	<path id="XMLID_742_" fill="none" d="M122.4,94.8c-0.1,0-0.2,0-0.2,0C122.2,94.8,122.3,94.8,122.4,94.8z"/>
	<path id="XMLID_743_" fill="none" d="M52.3,154.7c-2.8,0-5.6,0-8.3-0.1C46.7,154.7,49.5,154.7,52.3,154.7z"/>
	<path id="XMLID_744_" fill="none" d="M129,98.9C129,99,129,99,129,98.9c0.9,0,1.5-0.5,1.8-1.3c0.5-1.5,0.6-3.2,0.6-4.4v-0.1
		c0,1.1-0.1,2.9-0.6,4.4C130.5,98.4,129.8,98.9,129,98.9z"/>
	<path id="XMLID_745_" fill="none" d="M117.5,94.7c0,0,0.1,0,0.1,0C117.6,94.7,117.6,94.7,117.5,94.7
		C117.6,94.7,117.5,94.7,117.5,94.7z"/>
	<path id="XMLID_746_" fill="none" d="M118.9,138c0.4,0,0.7-0.1,1-0.3C119.6,137.9,119.2,138,118.9,138z"/>
	<path id="XMLID_747_" fill="none" d="M116.6,90.5L116.6,90.5c1.2,0,2.1-0.9,2.1-2C118.7,89.6,117.8,90.5,116.6,90.5z"/>
	<path id="XMLID_748_" fill="none" d="M116,90.5H111c-1.1,0-2-0.9-2-2c0,0,0,0,0,0c0,1.1,0.9,2,2,2L116,90.5
		c0.4,1.4,0.8,2.8,1.1,4.2c0,0,0,0,0,0c0,0,0.1,0,0.1,0C116.9,93.3,116.5,91.9,116,90.5L116,90.5z"/>
	<path id="XMLID_749_" fill="none" d="M116.9,135.3c0,0,0.1-0.1,0.1-0.2C117,135.2,117,135.3,116.9,135.3
		C116.9,135.3,116.9,135.3,116.9,135.3z"/>
	<path id="XMLID_750_" fill="none" d="M145.6,155l0.2,2l0-0.2l-0.2-1.9c-0.4,0.1-0.8,0.1-1.2,0.1c0,0.1,0,0.1-0.1,0.1
		C144.8,155,145.2,155,145.6,155z"/>
	<path id="XMLID_751_" fill="none" d="M40,154.7c-7.5-21-12.6-42.9-15.1-65.1C27.3,111.8,32.4,133.7,40,154.7z"/>
	<path id="XMLID_752_" fill="none" d="M116.9,136.1c0-0.2,0-0.4,0.1-0.7C116.9,135.7,116.9,135.9,116.9,136.1z"/>
	<path id="XMLID_753_" fill="none" d="M110.9,144.7c-0.2,0.1-0.3,0.2-0.4,0.2c0,0,0,0,0,0c0,0-0.1,0.1,0,0.1c0,0,0.1,0,0.1-0.1
		C110.7,144.9,110.8,144.8,110.9,144.7c0.6-0.2,1.1-0.2,1.6-0.1C111.9,144.5,111.4,144.5,110.9,144.7z"/>
	<path id="XMLID_754_" fill="none" d="M110.2,23.4c-0.5,0.6-0.7,1.5-0.3,2.2C109.5,24.9,109.7,24.1,110.2,23.4z"/>
	<path id="XMLID_755_" fill="none" d="M120.8,125.3c-1.1,3.7-2.3,6.9-3.8,9.8c0,0.1,0,0.1,0,0.1v0c0-0.1,0.1-0.2,0.2-0.3
		C118.6,132,119.8,128.8,120.8,125.3c0.8-2.5,1.5-5,2-7.5c1.4-6.2,2.1-12.5,2.2-18.8c0,0-0.1,0-0.1,0c0,0,0,0,0,0
		c-0.1,6.3-0.8,12.6-2.2,18.8C122.3,120.3,121.6,122.8,120.8,125.3z"/>
	<path id="XMLID_756_" fill="none" d="M114.8,55.4c1.5,0.8,2.3,0.2,2.7-1.1c0.3-1.1,0.3-2.6,0.3-4.4c0,1.7,0,3.2-0.3,4.3
		c-0.4,1.5-1.1,2-2.7,1.1c-0.2-0.1-0.2-0.2-0.4-0.2c-0.2-0.1-0.4-0.3-0.6-0.5l-0.1,0.1c0.2,0.2,0.5,0.4,0.7,0.5
		C114.5,55.2,114.6,55.3,114.8,55.4z"/>
	<path id="XMLID_757_" fill="none" d="M126.7,94.8c0.1,0,0.2,0,0.2,0c0,0,0,0,0,0C126.9,94.8,126.8,94.8,126.7,94.8z"/>
	<path id="XMLID_758_" fill="none" d="M96.6,95.1C96.6,95.1,96.6,95.1,96.6,95.1c-0.2,0.2-0.3,0.6-0.3,0.9
		C96.4,95.6,96.4,95.3,96.6,95.1z"/>
	<path id="XMLID_759_" fill="none" d="M121.5,32.7c3.8-1.6,8.2-0.6,12,1.4c0,0.1,0.1,0.1,0.1,0.1c1.2,0.6,2.4,1.4,3.5,2.2
		c1.1,0.8,2.1,1.7,3.1,2.7c2.9,3,5.2,6.6,7,10.2c1,1.9,1.9,4,2.8,6.2c1.8,4.6,3.2,9.3,4.1,14.1c-0.9-4.9-2.3-9.7-4.1-14.3
		c-0.8-2-1.7-4.1-2.8-6.2c-1.9-3.7-4.1-7.3-7-10.2c-1-1-1.9-1.9-3.1-2.7c-1.1-0.8-2.3-1.5-3.5-2.2c0-0.1-0.1-0.1-0.1-0.1
		c-3.8-2-8.2-3-12-1.4c-0.6,0.2-1.1,0.6-1.5,1.1c-2,2.1-2.3,6.2-2.3,10.3c0-4,0.4-8.1,2.3-10.2C120.4,33.3,120.9,32.9,121.5,32.7z"
		/>
	<polygon id="XMLID_760_" fill="none" points="122.9,79.4 122.9,79.4 122.8,79.4 	"/>
	<polygon id="XMLID_761_" fill="none" points="89.4,114.1 89.4,114.1 86.1,95 	"/>
	<path id="XMLID_762_" fill="none" d="M85.9,116.1C85.9,116.1,85.9,116.1,85.9,116.1C85.9,116,85.9,116,85.9,116.1
		C85.9,116.1,85.9,116.1,85.9,116.1z"/>
	<polygon id="XMLID_763_" fill="none" points="96.5,116.9 96.5,116.9 96.5,116.9 	"/>
	<path id="XMLID_764_" fill="none" d="M89.3,155.7c0-1.1,0.9-1.9,1.9-2C90.1,153.7,89.3,154.6,89.3,155.7z"/>
	<path id="XMLID_765_" fill="none" d="M126.7,81.3c0.1-0.5,0.2-1.1,0.2-1.5C126.9,80.2,126.8,80.7,126.7,81.3z"/>
	<path id="XMLID_766_" fill="none" d="M98.5,115.2c-0.1,0.2-0.1,0.4-0.2,0.6C98.4,115.6,98.5,115.4,98.5,115.2z"/>
	<polygon id="XMLID_767_" fill="none" points="86.5,90.9 86.5,90.9 96,91 	"/>
	<path id="XMLID_768_" fill="none" d="M86,116.7C86,116.7,86,116.7,86,116.7C86,116.7,86,116.7,86,116.7z"/>
	<path id="XMLID_769_" fill="none" d="M122.9,79.4c0,0.3,0,0.7-0.1,1.1C122.9,80.2,122.9,79.8,122.9,79.4z"/>
	<path id="XMLID_770_" fill="none" d="M85.9,116.5c-0.1-0.2-0.1-0.3-0.2-0.5C85.7,116.2,85.8,116.4,85.9,116.5z"/>
	<path id="XMLID_771_" fill="none" d="M103.9,58c0,0.1,0.1,0.1,0.1,0.2C104,58.1,104,58.1,103.9,58z"/>
	<path id="XMLID_772_" fill="none" d="M116.5,123.7c0.8-3.6,1.5-7.2,1.8-10.9C118,116.4,117.3,120.2,116.5,123.7z"/>
	<path id="XMLID_773_" fill="none" d="M62.9,62.6c0.8-1.3,1.7-2.5,2.7-3.7C64.7,60.1,63.8,61.3,62.9,62.6z"/>
	<path id="XMLID_774_" fill="none" d="M103.1,52.5c-0.3,0.9-0.6,1.6-0.9,2.2C102.5,54.2,102.8,53.4,103.1,52.5z"/>
	<path id="XMLID_775_" fill="none" d="M75.6,50.3c1.2-0.7,2.5-1.4,3.8-1.9C78.1,48.9,76.9,49.6,75.6,50.3z"/>
	<path id="XMLID_776_" fill="none" d="M79.2,67.4c-1.1,0.4-2.3,0.8-3.5,1.3C76.8,68.3,78.1,67.9,79.2,67.4z"/>
	<path id="XMLID_777_" fill="none" d="M81.4,47.6c1.3-0.5,2.6-0.9,4-1.1C84,46.8,82.7,47.2,81.4,47.6z"/>
	<path id="XMLID_778_" fill="none" d="M100.4,57.2c-0.5,0.4-1.1,0.7-1.8,1.2C99.4,58,99.9,57.6,100.4,57.2z"/>
	<path id="XMLID_779_" fill="none" d="M97.1,59.3c-0.6,0.3-1.2,0.7-1.9,1.1C95.9,60,96.5,59.6,97.1,59.3z"/>
	<path id="XMLID_780_" fill="none" d="M108.3,75.9l2.7-0.1c2.1,0,4.1-0.1,5.8-0.1c0.9,0,1.6-0.6,1.8-1.3c-0.3,0.7-1,1.2-1.8,1.2
		c-1.6,0-3.6,0.1-5.8,0.1l-2.8,0.1L108.3,75.9C108.3,75.9,108.3,75.9,108.3,75.9z"/>
	<path id="XMLID_781_" fill="none" d="M97.1,91H96c0,0,0,0.1,0,0.1L97.1,91c1.1,0.1,2-0.8,2-1.9c0,0,0,0,0,0
		C99.1,90.1,98.2,91,97.1,91z"/>
	<path id="XMLID_782_" fill="none" d="M106.7,75.9L106.7,75.9c-2.3,0-4.3,0.1-5.9,0.1c0.1,0,0.1,0,0.1,0
		C102.4,76,104.5,75.9,106.7,75.9z"/>
	<path id="XMLID_783_" fill="none" d="M99,79.2h-0.6c-0.4,0-0.7,0.1-1,0.3c0.3-0.2,0.6-0.3,0.9-0.3L99,79.2
		c3.7-0.2,7.6-0.2,11.3-0.2c0,0,0-0.1-0.1-0.1C106.6,78.8,102.8,79,99,79.2z"/>
	<path id="XMLID_784_" fill="none" d="M116.7,71.7c-1.6,0-3.6,0.1-5.8,0.1C113.1,71.8,115.1,71.7,116.7,71.7
		C116.7,71.7,116.7,71.7,116.7,71.7z"/>
	<path id="XMLID_785_" fill="none" d="M107.5,50.4C107.5,50.4,107.5,50.4,107.5,50.4C107.5,50.4,107.5,50.4,107.5,50.4z"/>
	<path id="XMLID_786_" fill="none" d="M69.2,76c-1-0.1-1.8-0.9-1.8-1.9c0-0.5,0.2-1.1,0.6-1.5c-0.5,0.4-0.8,0.9-0.8,1.6
		c0.1,0.9,0.7,1.7,1.6,1.9c0.1,0,0.1-0.1,0.2-0.1C69,76,69.1,76,69.2,76z"/>
	<path id="XMLID_787_" fill="none" d="M83.8,72.6c-0.4-0.6-1-0.9-1.7-0.9l-2.3,0.1c-0.1,0-0.2,0.1-0.2,0.1l2.6-0.1
		C82.8,71.7,83.4,72.1,83.8,72.6z"/>
	<path id="XMLID_788_" fill="none" d="M71.4,86.5c0.6,0,1.1,0.2,1.4,0.6C72.5,86.7,72,86.5,71.4,86.5z"/>
	<path id="XMLID_789_" fill="none" d="M110.9,148.4c0.3,0.1,0.6,0.2,0.9,0.2c0,0,0,0,0,0c0,0,0,0,0,0
		C111.4,148.6,111.1,148.5,110.9,148.4z"/>
	<path id="XMLID_790_" fill="none" d="M69,94.7c-4.2,0-8.6,0-12.9,0.1c0,0,0-0.1,0-0.2c0.1-2.8,0.3-5.5,0.6-8.3
		c-0.4,2.8-0.6,5.5-0.7,8.2c0,0,0,0.1,0,0.2h-0.1h-0.7c0,0.1,0,0.1,0,0.2H56h0.1C60.4,94.8,64.8,94.8,69,94.7c4.3,0.1,8.7,0.1,13,0
		c0.4-2,0.6-4,0.6-5.9c0,0,0,0,0-0.1c-0.1,1.9-0.2,4-0.6,5.9C77.7,94.7,73.3,94.7,69,94.7z"/>
	<path id="XMLID_791_" fill="none" d="M113.2,148.2c0.1-0.1,0.2-0.1,0.2-0.2l0.1-0.1c2.8-3,5.2-6.6,7.2-10.8v-0.1V137
		c0.1-0.2,0.2-0.4,0.3-0.6c0-0.1,0.1-0.3,0.1-0.5c0-1.1-0.9-2-2-2c0,0,0,0,0,0c1.1,0,2,0.9,2,2c0,0.3-0.1,0.6-0.2,0.9v0.1
		c-0.1,0.2-0.2,0.3-0.4,0.5c-2,4-4.3,7.5-7,10.4c0,0,0,0-0.1,0.1c0,0,0,0-0.1,0.1c-0.1,0.1-0.1,0.1-0.2,0.2c0.1,0,0.2-0.1,0.2-0.2
		c-1.2,1.3-2.4,2.4-3.8,3.5c-0.2-0.8-0.8-1.5-1.7-1.6c-1.1-0.2-2.1,0.6-2.3,1.7c-0.1,0.5-0.2,1-0.2,1.4c0,0.1,0,0.1,0,0.2
		c0,0,0-0.1,0-0.1c0.1-0.5,0.1-0.9,0.2-1.4c0.2-1.1,1.1-1.9,2.3-1.7c0.9,0.2,1.5,0.8,1.7,1.6c0,0,0,0.1,0,0.2
		C110.7,150.6,112,149.5,113.2,148.2z"/>
	<path id="XMLID_792_" fill="none" d="M109.4,152.3c0.1-0.2,0.1-0.4,0-0.6c0,0.1,0,0.3,0,0.5c-0.1,0.4-0.2,0.7-0.2,1.1
		c0,0.1,0,0.3,0,0.4c0-0.1,0-0.2,0-0.2C109.3,153.1,109.3,152.7,109.4,152.3z"/>
	<path id="XMLID_793_" fill="none" d="M84.5,129.2l14,0.1c0.5,0,1,0.2,1.4,0.6c-0.4-0.4-0.9-0.6-1.5-0.6H84.5
		c-1.2-0.1-2.1,0.8-2.1,1.9c0,0.6,0.2,1.1,0.6,1.5c-0.3-0.4-0.6-0.8-0.6-1.4C82.5,130.1,83.4,129.2,84.5,129.2z"/>
	<path id="XMLID_794_" fill="none" d="M144.6,151L144.6,151c-0.3-0.5-0.5-1-0.6-1.5c-0.1-0.4-0.1-0.8-0.1-1.3c0,0.5,0,1,0.1,1.5
		C144.2,150.1,144.2,150.6,144.6,151v0.2c0.2,0.3,0.5,0.6,0.8,1.1c0,0,0,0,0,0c0-0.1,0-0.1,0.1-0.2c0,0,0,0,0-0.1
		c0,0-0.1-0.1-0.1-0.1C145,151.7,144.8,151.4,144.6,151z"/>
	<path id="XMLID_795_" fill="none" d="M104.2,150.1C104.2,150.1,104.2,150.1,104.2,150.1c1.3-0.7,2.5-1.7,3.7-2.7
		C106.7,148.4,105.5,149.3,104.2,150.1C104.2,150.1,104.2,150.1,104.2,150.1z"/>
	<path id="XMLID_796_" fill="none" d="M131,82.3c0,1.1,0.1,1.9,0.1,2.7C131.1,84.2,131.1,83.3,131,82.3z"/>
	<path id="XMLID_797_" fill="none" d="M72.9,87.1c0.2,0.2,0.3,0.4,0.4,0.6C73.2,87.5,73,87.3,72.9,87.1z"/>
	<path id="XMLID_798_" fill="none" d="M82.5,84.2c0-0.3,0-0.6,0-0.9c0,0,0,0-0.1,0C82.4,83.6,82.4,83.9,82.5,84.2z"/>
	<path id="XMLID_799_" fill="none" d="M91.4,153.5c-0.1,0-0.1,0-0.2,0c-5.4,0.2-11-2-15.9-6.1c-0.9-0.8-1.8-1.7-2.7-2.6
		c-4.4-4.7-7.8-11.2-10.4-19.7c-2.6-8.6-4-17.4-4.1-26.4c-0.1,0-0.2,0-0.2,0c-0.6,0-1.4,0-2,0l-1.7,0.1c-0.1,0-0.1,0-0.1,0
		c-0.1,0-0.2,0-0.2,0c-0.2,0-0.2,0-0.4-0.1c-0.4,0-0.8-0.1-1.1-0.3c0.4,0.2,0.8,0.4,1.2,0.4c0.2,0,0.2,0.1,0.4,0.1
		c0.2,9.4,1.5,18.6,4.3,27.5c2.8,9.1,6.5,16,11.3,21.2c0.7,0.8,1.5,1.5,2.2,2.2c0-0.1,0-0.1,0-0.2c-0.7-0.7-1.5-1.3-2.1-2.1
		c-4.8-5.2-8.5-12.1-11.3-21.2c-2.7-8.9-4.1-18.2-4.3-27.5c0.1,0,0.2,0,0.2,0s0.1,0,0.1,0l1.7-0.1c0.6,0,1.4,0,2,0
		c0.2,9,1.5,17.8,4.1,26.4c2.6,8.5,6,14.9,10.4,19.7c0.8,1,1.7,1.8,2.7,2.6c4.9,4,10.4,6.2,15.9,6.1
		C91.3,153.6,91.3,153.6,91.4,153.5C91.4,153.6,91.5,153.6,91.4,153.5C91.5,153.6,91.4,153.6,91.4,153.5z"/>
	<path id="XMLID_800_" fill="none" d="M110.4,145.1C110.3,145.2,110.3,145.2,110.4,145.1c-0.8,0.8-1.6,1.5-2.4,2.3c0,0,0,0,0,0
		C108.8,146.7,109.6,146,110.4,145.1C110.4,145.1,110.4,145.1,110.4,145.1C110.4,145.1,110.4,145.1,110.4,145.1L110.4,145.1z"/>
	<path id="XMLID_801_" fill="none" d="M113.4,170.2c-0.2-0.3-0.4-0.6-0.5-0.9c0,0.1,0.1,0.1,0.1,0.2c0.5,0.7,0.4,1.5,0,2.2
		C113.3,171.3,113.5,170.8,113.4,170.2z"/>
	<path id="XMLID_802_" fill="none" d="M115.9,174.3C115.9,174.3,115.9,174.3,115.9,174.3c0.1,0.3,0.3,0.5,0.4,0.8
		C116.1,174.8,116,174.5,115.9,174.3z"/>
	<path id="XMLID_803_" fill="none" d="M122.8,23.5c-3.1,0.4-6.1,1.2-9.1,2.5c-0.2,0.1-0.3,0.1-0.5,0.2c0.2-0.1,0.4-0.2,0.5-0.2
		C116.7,24.7,119.7,23.9,122.8,23.5z"/>
	<path id="XMLID_804_" fill="none" d="M109.6,171.8c0.2,0.3,0.4,0.6,0.7,0.7c-0.2,0.8-0.6,1.7-0.8,2.6c-0.6,1.9-1.2,3.8-1.8,5.7
		c0.7-1.9,1.3-3.9,2-5.9c0.3-0.8,0.5-1.6,0.8-2.4c0,0-0.1,0-0.1,0C110.1,172.3,109.7,172,109.6,171.8c-2.8-4.6-4.3-9.9-4.4-15.2
		C105.3,161.9,106.8,167.2,109.6,171.8z"/>
	<polygon id="XMLID_805_" fill="none" points="115.7,174 115.7,174 115.6,173.9 	"/>
	<path id="XMLID_806_" fill="none" d="M112.1,26.8C112.1,26.8,112.1,26.7,112.1,26.8c0.2-0.1,0.4-0.2,0.6-0.2
		c0.1-0.1,0.3-0.2,0.5-0.3c-0.2,0.1-0.4,0.2-0.6,0.3C112.4,26.6,112.2,26.7,112.1,26.8c-0.3,0-0.6,0-0.8-0.1
		C111.5,26.8,111.8,26.8,112.1,26.8z"/>
	<path id="XMLID_807_" fill="none" d="M110.6,26.4C110.6,26.4,110.6,26.4,110.6,26.4c-0.3-0.1-0.4-0.2-0.5-0.2c0,0,0,0,0,0
		C110.3,26.4,110.5,26.4,110.6,26.4z"/>
	<path id="XMLID_808_" fill="none" d="M66,169.7C66,169.7,66,169.7,66,169.7C66,169.7,66,169.7,66,169.7z"/>
	<path id="XMLID_809_" fill="none" d="M29.8,47.1c0.2-0.6,0.6-1.1,0.8-1.6c7.1-12.9,19-22,33.4-25.9c13.5-3.6,28.1-2.2,40.8,3.8
		c-12.8-6.1-27.4-7.5-41-3.9c-14.4,3.9-26.2,13-33.4,25.9c-0.2,0.6-0.6,1.1-0.8,1.6c-7.1,14-6.2,28.7-4.7,42.5
		C23.4,75.7,22.5,61,29.8,47.1z"/>
	<path id="XMLID_810_" fill="none" d="M56.5,154.8c5.3,0,10.6,0.1,15.6,0.1c0,0,0,0,0,0C67.2,154.8,61.8,154.8,56.5,154.8z"/>
	<rect id="XMLID_811_" x="98.6" y="152.7" fill="none" width="0" height="0"/>
	<path id="XMLID_812_" fill="none" d="M107.9,53.4c-0.5,0.6-0.6,1.1-0.6,1.6c0,0.2,0.1,0.6,0.2,0.8c0.2,0.9,0.8,1.9,1.4,3
		c0.1,0.2,0.2,0.5,0.4,0.7c0,0,0.1,0,0.1,0.1c-0.2-0.2-0.2-0.5-0.4-0.7c-0.6-1.1-1.1-2.1-1.4-3c-0.1-0.3-0.2-0.6-0.2-0.8
		c1.1,0.7,2.1,1.5,3.2,2.4c2.4,2.1,4.5,4.6,6.4,7.4c0.6,0.9,1.1,1.8,1.6,2.7c1.6,1.2,3.2,2.5,4.6,4c1.2,1.4,2.3,2.8,3,4.2
		c0-0.1-0.1-0.2-0.1-0.3c-0.7-1.4-1.6-2.6-2.9-4c-1.4-1.5-3-2.8-4.6-4c-0.5-1-1.1-1.9-1.6-2.8c-1.8-2.8-3.9-5.2-6.3-7.3
		c-1-0.9-2.1-1.7-3.2-2.4C107.3,54.5,107.5,54,107.9,53.4c0.7-0.7,0.7-1.8,0.1-2.6c-0.1-0.1-0.2-0.1-0.3-0.2
		C108.6,51.3,108.7,52.5,107.9,53.4z"/>
	<path id="XMLID_813_" fill="none" d="M114.5,86.5h2.2v-0.1L114.5,86.5c-0.4-1.2-0.9-2.4-1.5-3.5c-0.1,0-0.1,0-0.2,0
		C113.4,84.1,114,85.3,114.5,86.5L114.5,86.5z"/>
	<path id="XMLID_814_" fill="none" d="M123.4,178.7c-1.5-0.4-3-0.8-4.5-1.1C120.4,177.9,121.9,178.3,123.4,178.7z"/>
	<path id="XMLID_815_" fill="none" d="M111.7,83c-3.7-0.1-7.5,0-11.4,0.2C104.1,83.1,107.9,82.9,111.7,83z"/>
	<path id="XMLID_816_" fill="none" d="M100.6,94.7c-0.4-1.8-0.6-3.8-0.6-5.8C100,90.9,100.3,92.9,100.6,94.7
		C100.6,94.7,100.6,94.7,100.6,94.7z"/>
	<path id="XMLID_819_" fill="none" d="M126.9,78.9C126.9,78.9,126.9,78.9,126.9,78.9c0,0.3,0,0.6,0,0.9c0.1,0,0.2,0,0.2,0
		c0,0,0-0.1,0-0.1c-0.1,0-0.1,0-0.2,0C126.9,79.4,126.9,79.2,126.9,78.9z"/>
	<path id="XMLID_913_" fill="none" d="M103.6,50.9c0.3-1.1,1.5-1.7,2.6-1.2c0.2,0.1,0.3,0.1,0.4,0.2c0.1,0.1,0.3,0.1,0.4,0.3
		c0.1,0,0.2,0.1,0.3,0.1c0,0-0.1-0.1-0.1-0.1c-0.1,0-0.2,0-0.2,0c-0.1-0.1-0.2-0.2-0.3-0.3c0,0-0.1,0-0.1-0.1
		c-0.2-0.1-0.3-0.2-0.5-0.2c0,0,0,0,0,0C105,49.2,103.9,49.9,103.6,50.9z"/>
	<path id="XMLID_921_" fill="none" d="M126.8,84c0.1,0,0.2,0,0.3,0c0,0.5,0.1,1.1,0.1,1.5c0.1,1.6,0.2,3,0.2,5c0-2.1-0.1-3.5-0.2-5
		c0-0.5-0.1-1-0.1-1.5C127.1,83.9,126.9,83.9,126.8,84c-0.3-0.1-0.5-0.1-0.8-0.2c0,0,0,0.1,0,0.1C126.3,83.9,126.5,84,126.8,84z"/>
	<path id="XMLID_922_" fill="none" d="M100.1,84.7c-0.1,1.4-0.2,2.9-0.1,4.3C100,87.5,100,86.1,100.1,84.7z"/>
	<path id="XMLID_923_" fill="#466FB6" d="M132.7,182.6c-3-1.6-6.1-2.8-9.2-3.7c0.7,1.2,1.5,2.4,2.2,3.7H132.7z"/>
	<path id="XMLID_926_" fill="#466FB6" d="M112.1,26.7C112.1,26.7,112.1,26.8,112.1,26.7C112.1,26.8,112.1,26.8,112.1,26.7
		c-0.6,2-1.2,4.1-1.6,6.1c-0.2,0.9-0.3,1.7-0.4,2.4c-0.2,2-0.6,12.4,2.5,17.7c0.3,0.6,0.7,1.1,1.2,1.6l0,0c0.2,0.2,0.4,0.3,0.6,0.5
		c0.2,0.1,0.2,0.2,0.4,0.2c1.5,0.9,2.3,0.3,2.7-1.1c0.3-1,0.3-2.5,0.3-4.3c0-1.8-0.1-3.9-0.1-5.9c0-4.1,0.3-8.2,2.3-10.3
		c0.4-0.5,0.9-0.8,1.5-1.1c3.8-1.6,8.2-0.6,12,1.4c0,0,0.1,0,0.1,0.1c1.2,0.6,2.4,1.4,3.5,2.2c1.1,0.8,2.1,1.7,3.1,2.7
		c2.9,2.9,5.1,6.5,7,10.2c1.1,2,1.9,4.1,2.8,6.2c1.8,4.6,3.2,9.4,4.1,14.3c1.6,8.1,2,16.6,1.5,24.9c-0.1,0.7-0.1,1.5-0.2,2.2
		c-0.6,7.5-1.9,15-3.6,22.4c-1.9,8.4-4.5,16.8-7.1,25c-0.4,1.3-0.7,2.8-0.8,4.2c0,0.5,0,0.9,0.1,1.3c0.1,0.5,0.2,1,0.5,1.4l0.1,0.1
		c0.2,0.4,0.5,0.7,0.8,1c0.1,0.1,0.1,0.1,0.1,0.1c0,0,0.1-0.1,0.1-0.1c10.6-25,16.1-51.8,15.9-77.1c-0.2-19.7-4.6-33.6-13.5-42.5
		c-6.8-6.7-16-9.8-25.1-8.8c-3,0.4-6.1,1.2-9,2.5c-0.2,0.1-0.4,0.1-0.5,0.2c0,0-0.1,0-0.1,0.1c-0.2,0.1-0.3,0.2-0.5,0.3
		C112.5,26.6,112.2,26.7,112.1,26.7z"/>
	<path id="XMLID_927_" fill="#1B2B54" d="M144.6,151.1L144.6,151.1c-0.3-0.5-0.4-1-0.6-1.5c-0.1-0.5-0.1-1-0.1-1.5
		c0-1.4,0.3-3,0.8-4.2c2.7-8.3,5.2-16.6,7.1-25c1.7-7.4,3-14.8,3.6-22.4c0.1-0.7,0.1-1.5,0.2-2.2c0.5-8.3,0.1-16.8-1.5-24.9
		c-0.9-4.8-2.3-9.6-4.1-14.1c-0.8-2.1-1.8-4.2-2.8-6.2c-1.9-3.6-4.1-7.2-7-10.2c-1-1-2-1.9-3.1-2.7c-1.1-0.8-2.3-1.5-3.5-2.2
		c0,0-0.1,0-0.1-0.1c-3.8-2-8.2-3-12-1.4c-0.6,0.2-1.1,0.6-1.5,1.1c-1.9,2.1-2.3,6.1-2.3,10.2c0,2,0.1,4.1,0.1,5.9
		c0,1.8,0,3.4-0.3,4.4c-0.4,1.4-1.1,1.9-2.7,1.1c-0.2-0.1-0.2-0.2-0.4-0.2c-0.2-0.2-0.5-0.3-0.7-0.5l-0.1,0.1
		c2.5,2.3,4.7,4.9,6.6,7.8c2.3,3.4,4,7.2,5.4,11.3c0.3,1.1,0.6,2.2,1,3.3c0.2,0.8,0.5,1.7,0.6,2.6c0,0-0.1,0-0.2,0c0,0,0,0.1,0,0.1
		c0,0,0.1,0.1,0.1,0.1c0.6,0,1.2,0.1,1.8,0.2c0.2,0,0.5,0.1,0.7,0.2l0.3,0.2c0.6,0.4,1.1,1,1.1,1.7c0,0,0,0.1,0,0.1
		c0.1,1,0.1,1.9,0.1,2.7c0,0.1,0,0.2,0,0.3c0.1,1.7,0.2,3.1,0.2,5.3c0,0.7,0,1.5,0,2.5v0.2v0.1c0,1.1-0.1,2.9-0.6,4.4
		c-0.2,0.8-0.9,1.3-1.8,1.4c-0.1,6.6-0.9,13.2-2.3,19.6c-0.6,2.6-1.2,5.3-2,7.9c-1.1,3.9-2.4,7.3-4,10.4c0.1-0.1,0.1-0.3,0.2-0.4
		c-0.1,0.2-0.2,0.4-0.3,0.6v0.1v0.1c-2,4.1-4.5,7.8-7.2,10.8l-0.1,0.1c0,0.1-0.1,0.1-0.2,0.2c-1.2,1.3-2.5,2.4-3.8,3.5
		c0.1,0.2,0.1,0.4,0,0.6c-0.1,0.4-0.1,0.7-0.2,1.1c0,0.1,0,0.2,0,0.2c0,0.5-0.1,1.1-0.1,1.6c0,0,0,0,0,0.1
		c11.6,0.2,23.3,0.2,35.1-0.3c0.1,0,0.1,0,0.2,0c0-0.1,0-0.1,0.1-0.1c-0.1,0-0.1,0-0.2,0c0.4-0.9,0.8-1.8,1.1-2.7c0,0,0,0,0,0
		C145,151.8,144.7,151.4,144.6,151.1z"/>
	<path id="XMLID_940_" fill="#1B2B54" d="M126.1,75.8c0.2,0.4,0.4,0.9,0.5,1.4c0.2,0.5,0.2,1.1,0.3,1.7c0,0,0,0,0,0
		c0-0.6-0.1-1.2-0.3-1.8c-0.2-0.6-0.4-1.1-0.6-1.6C126,75.6,126,75.7,126.1,75.8z"/>
	<path id="XMLID_941_" fill="#FFFFFF" d="M127.1,84c-0.1,0-0.2,0-0.3,0c-0.3,0-0.5-0.1-0.8-0.1c0.2,1.1,0.4,2.3,0.5,3.6
		c0.2,2.3,0.4,4.8,0.5,7.1c0,0.1,0,0.2,0,0.2c0.1,0,0.2,0,0.2,0c0.1-0.6,0.1-1.3,0.1-1.9v-0.2v-0.1c0-0.8,0-1.6,0-2.2
		c0-2-0.1-3.4-0.2-5C127.2,85,127.1,84.5,127.1,84z"/>
	<path id="XMLID_964_" fill="#FFFFFF" d="M127,94.8L127,94.8C127,94.8,127,94.8,127,94.8C127,94.8,127,94.8,127,94.8z"/>
	<path id="XMLID_965_" fill="#B1D8DB" d="M116.9,135.3C116.9,135.3,116.9,135.3,116.9,135.3c0-0.1,0.1-0.1,0.1-0.2v0
		C117,135.2,117,135.3,116.9,135.3z"/>
	<path id="XMLID_968_" fill="#B1D8DB" d="M110.5,145L110.5,145l-0.2,0.2L110.5,145C110.4,145,110.4,145,110.5,145
		C110.5,145,110.5,145,110.5,145c0.6-0.7,1.2-1.4,1.8-2.1c1.7-2.2,3.3-4.7,4.7-7.5c0-0.1,0.1-0.2,0.1-0.2s0,0,0-0.1
		c1.5-2.9,2.7-6.1,3.8-9.8c0.7-2.5,1.5-5,1.9-7.5c1.4-6.2,2.1-12.5,2.2-18.8c-2.3-0.1-4.8-0.1-7-0.1c0.7,4.6,0.8,9.3,0.4,13.9
		c-0.3,3.7-1,7.4-1.8,10.9c-1.9,8.2-5,16-8.6,23.7c0.8-0.7,1.6-1.5,2.3-2.2c0,0,0,0,0.1-0.1l0,0C110.4,145.1,110.4,145.1,110.5,145
		C110.4,145,110.5,145,110.5,145z"/>
	<path id="XMLID_969_" fill="#FFFFFF" d="M116.7,86.4L116.7,86.4c1.1,0.1,2,1,2,2.1c0,1.1-0.9,2-2,2h-0.1H116
		c0.4,1.4,0.8,2.8,1.1,4.2c0.1,0,0.2,0,0.3,0c0,0,0,0,0.1,0c0,0,0,0,0,0c1.5,0,3,0,4.5,0c0.1,0,0.2,0,0.2,0c1.5,0,2.9,0,4.4,0.1
		c0.1,0,0.2,0,0.2,0c0,0,0.1,0,0.1,0c0-0.1,0-0.2,0-0.2c-0.1-2.3-0.2-4.8-0.5-7.1c-0.2-1.2-0.3-2.4-0.5-3.6c0,0,0-0.1,0-0.1
		c0,0-0.1,0-0.1,0c-0.2-0.1-0.4-0.1-0.6-0.1c-4.1-0.4-8.2-0.6-12.4-0.7c0.6,1.1,1.2,2.2,1.6,3.4H116.7z"/>
	<path id="XMLID_972_" fill="#FFFFFF" d="M113.5,176.1c-0.7,2.2-1.4,4.3-2.1,6.5h0.2c1-3,1.9-6,2.7-8.8
		C114,174.5,113.7,175.3,113.5,176.1z"/>
	<path id="XMLID_973_" fill="#FFFFFF" d="M115.9,174.3c0.1,0.3,0.3,0.5,0.4,0.8c1.2,2.3,2,3.8,2,3.8s-0.4,1.5-1.1,3.7h3.7
		c-1.2-2-2.3-3.8-3.3-5.5c-0.2-0.2-0.3-0.4-0.4-0.7c-0.1-0.1-0.1-0.2-0.2-0.3c0,0.1,0.1,0.2,0.1,0.3
		C116.7,175.6,116.3,175,115.9,174.3z"/>
	<path id="XMLID_974_" fill="#FFFFFF" d="M115.6,173.9l0.1,0.1c-0.3-0.6-0.7-1.1-1-1.7c0,0,0,0,0,0.1L115.6,173.9z"/>
	<path id="XMLID_994_" fill="#B1D8DB" d="M100.7,61.9c-0.3,0.1-0.6,0.3-0.9,0.5c0.1,0.4,0.1,0.8,0.2,1.2c0.3,1.3,0.9,2.6,1.5,3.7
		c0.9,1.6,2,3.1,3.2,4.5c0.5,0,1.1,0,1.6,0l4.5-0.1c2.1,0,4.1-0.1,5.8-0.1c0,0,0,0,0,0c0,0,0.1,0,0.1,0c0.2,0,0.3,0,0.5,0.1
		c-1-0.8-2.1-1.6-3.2-2.4c-0.5-0.3-1-0.6-1.5-1c-2.7-1.9-5.8-4.4-7.5-7.8c-0.3-0.5-0.6-1.1-0.8-1.7C103.4,60.2,102.3,61,100.7,61.9z
		"/>
	<path id="XMLID_995_" fill="#B1D8DB" d="M118.6,74.5c-0.3,0.7-1,1.3-1.8,1.3c-1.6,0-3.6,0.1-5.8,0.1l-2.7,0.1
		c0.1,0.1,0.3,0.3,0.3,0.4c0.6,0.8,1.2,1.6,1.8,2.5c0,0-0.1,0-0.1,0c0,0,0,0.1,0.1,0.1c0.4,0,0.9,0,1.3,0c3.7,0,7.4,0.2,11.2,0.5
		c0,0,0,0,0,0c0-0.3-0.1-0.7-0.2-1.1c-0.4-1.3-1.4-2.6-2.7-4c-0.4-0.5-0.9-1-1.4-1.4c0.1,0.2,0.2,0.5,0.2,0.8
		C118.8,74,118.7,74.2,118.6,74.5z"/>
	<path id="XMLID_998_" fill="#1B2B54" d="M109.3,59.6C109.3,59.6,109.3,59.5,109.3,59.6c1.4,2.2,3.6,4,5.7,5.5
		C113.2,63.3,111.2,61.4,109.3,59.6C109.3,59.6,109.3,59.6,109.3,59.6z"/>
	<path id="XMLID_999_" fill="#1B2B54" d="M110.5,57.5c-1.1-0.9-2.1-1.7-3.2-2.4c0,0.2,0.1,0.5,0.2,0.8c0.2,0.9,0.8,1.9,1.4,3
		c0.2,0.2,0.2,0.5,0.4,0.7c0,0,0,0,0,0c1.9,1.8,3.8,3.7,5.7,5.5c0,0,0,0,0,0c0.5,0.3,0.9,0.6,1.4,1c0.6,0.5,1.4,1,2,1.5
		c0,0,0,0,0.1,0c-0.5-1-1-1.8-1.6-2.7C115.1,62.1,113,59.6,110.5,57.5z"/>
	<path id="XMLID_1004_" fill="#F4D47B" d="M116.5,123.7c0.8-3.6,1.5-7.3,1.8-10.9c0.4-4.6,0.3-9.3-0.4-13.9c0,0,0,0,0,0
		c-0.1,0-0.2,0-0.3,0c-1.2,0-2.5,0-3.7,0c-4.5,0-9.2,0.1-13.8-0.1c0,0,0-0.1,0-0.1c0,0,0,0,0,0c0,0,0,0.1,0,0.1
		c-0.5,5.4-1.1,10.9-1.5,16.4c0,0,0,0,0,0.1c0,0.2-0.1,0.4-0.2,0.6c-0.1,0.1-0.1,0.2-0.2,0.3c0,0,0,0,0,0c-0.1,0.8-0.8,1.5-1.7,1.6
		c-1.9,0.2-4,0.4-6,0.4c-0.9,0-1.7,0-2.6-0.1c-0.7,0-1.4-0.5-1.7-1.1c0,0,0,0-0.1-0.1c0,0,0,0.1,0.1,0.1c-0.1-0.1-0.1-0.2-0.2-0.3
		c0,0,0,0,0-0.1c0,0-0.1-0.1-0.1-0.1c-0.1-0.2-0.1-0.3-0.2-0.5c0,0,0,0,0-0.1l-3-17.2l0-0.1c0,0-0.1,0-0.1,0l0,0.1
		c-4.5,0.1-9.2,0.1-13.7,0.1c-3.5,0-7.1-0.1-10.7-0.1c0.2,9,1.5,17.8,4.1,26.4c2.6,8.5,6,15,10.4,19.7c0.9,0.9,1.8,1.8,2.7,2.6
		c4.9,4,10.4,6.2,15.9,6.1c0.1,0,0.1,0,0.2,0c0,0.1,0.1,0.1,0.1,0.1c0,0,0,0,0,0c0,0,0,0,0,0c0.1,0,0.1,0,0.2,0h0.1
		c2.1,0,4.3-0.2,6.4-0.9c0.1,0,0.1,0,0.2,0c0-0.1,0.1-0.1,0.2-0.1c0,0,0,0,0,0c0,0,0,0,0,0c1.9-0.6,3.8-1.5,5.7-2.6c0,0,0,0,0,0
		c1.3-0.8,2.5-1.7,3.7-2.7c0,0,0,0,0,0C111.5,139.8,114.7,131.9,116.5,123.7z M98.6,133.4C98.5,133.4,98.5,133.4,98.6,133.4
		C98.5,133.4,98.5,133.4,98.6,133.4l-14-0.1c-0.6,0-1.1-0.2-1.5-0.6c-0.4-0.4-0.6-0.9-0.6-1.5c0-1.1,0.9-2,2-2l14,0.1
		c0.6,0,1.1,0.2,1.5,0.6c0.4,0.4,0.6,0.9,0.6,1.5C100.6,132.5,99.7,133.4,98.6,133.4z"/>
	<path id="XMLID_1006_" fill="#B6E0D8" d="M115.9,174.3c-0.1-0.1-0.1-0.2-0.2-0.3l-0.1-0.1l-0.9-1.5c-0.1,0.5-0.3,0.9-0.4,1.4
		c-0.8,2.8-1.7,5.7-2.7,8.8h5.7c0.7-2.3,1.1-3.7,1.1-3.7s-0.7-1.5-2-3.8C116.1,174.8,116,174.5,115.9,174.3z"/>
	<path id="XMLID_1009_" fill="#FFFFFF" d="M113.8,94.7c1.1,0,2.2,0,3.3,0c-0.3-1.4-0.7-2.8-1.1-4.1H111c-1.1,0-2-0.9-2-2
		c0,0,0,0,0,0c0,0,0,0,0,0c0-1.1,0.9-2,2-2h3.4c-0.5-1.2-1-2.4-1.7-3.5c-0.4,0-0.8,0-1.1,0c-3.7-0.1-7.6,0.1-11.4,0.2
		c-0.1,0.5-0.1,0.9-0.2,1.4c-0.1,1.4-0.2,2.9-0.1,4.3c0.1,2,0.2,3.9,0.6,5.8C105,94.8,109.4,94.7,113.8,94.7z"/>
	<path id="XMLID_1017_" fill="#1B2B54" d="M71.9,150.1c0,0,0-0.1,0-0.1c-0.8-0.8-1.5-1.5-2.2-2.2c-4.8-5.2-8.5-12.1-11.3-21.2
		c-2.8-8.9-4.1-18.1-4.3-27.5c-0.2,0-0.2-0.1-0.4-0.1c-0.5,0-0.9-0.1-1.2-0.4c-0.4-0.2-0.8-0.6-0.9-1.1C51,96,50.9,94.2,50.9,93
		v-0.2c-0.2-3.6,0-5.5,0.2-7.8c0.1-0.9,0.1-1.9,0.2-3c0.1-0.7,0.5-1.4,1.1-1.7l0.3-0.2c0.2-0.2,0.5-0.2,0.7-0.2
		c0.8-0.1,1.5-0.2,2.3-0.2c0.1,0,0.1,0,0.2,0c1.5-6.4,3.8-12.3,7-17.1c0.8-1.3,1.7-2.5,2.7-3.7c2.9-3.5,6.3-6.4,10-8.6
		c1.2-0.7,2.5-1.4,3.8-1.9c0.6-0.3,1.3-0.5,2-0.8c1.3-0.5,2.6-0.9,4-1.1c1.9-0.4,3.8-0.6,5.7-0.6c0.1,0,0.3-0.1,0.5-0.1h0.1h0.1
		c4.9,0,10,1.3,14.6,3.9c0.1,0,0.1,0.1,0.2,0.1c-0.1,0-0.2-0.1-0.2-0.1c0,0-0.1,0-0.2,0c0.2,0.1,0.3,0.2,0.5,0.2c0,0,0.1,0,0.1,0.1
		c0,0-0.1-0.1-0.1-0.1c0.2,0.2,0.6,0.4,0.9,0.6c-0.1,0-0.2-0.1-0.3-0.1c0,0,0.1,0.1,0.1,0.1c0,0,0,0,0.1,0c0,0,0.1,0.1,0.1,0.1
		c0,0,0,0,0,0c0.1,0.1,0.2,0.1,0.2,0.2c0,0,0,0,0,0c0.1,0.1,0.2,0.1,0.3,0.2c-0.1-0.1-0.2-0.3-0.4-0.4c0,0-0.1,0-0.1-0.1
		c-0.1,0-0.1-0.1-0.2-0.1c0,0-0.1,0-0.1-0.1c0.1,0.1,0.2,0.1,0.2,0.2c1.9,1.1,3.8,2.5,5.5,4c0.1,0,0.2,0.1,0.2,0.2
		c0.1,0.1,0.1,0.1,0.2,0.2l0.1-0.1l0.1-0.1l0,0c-0.5-0.5-0.9-1-1.2-1.6c-3.2-5.3-2.8-15.6-2.5-17.7c0.1-0.7,0.2-1.5,0.4-2.4
		c0.4-1.9,1.1-4,1.7-6c0,0-0.1,0-0.1,0c-0.3,0-0.5,0-0.8-0.1c-0.2,0-0.4-0.1-0.6-0.3c-0.2-0.1-0.4-0.1-0.5-0.2c0,0,0,0,0,0
		c0,0-0.1,0-0.1-0.1c-1.7-1-3.4-1.9-5.2-2.8c-12.7-6-27.3-7.4-40.8-3.8c-14.4,3.9-26.2,13-33.4,25.9c-0.2,0.5-0.6,1.1-0.8,1.6
		c-7.3,13.9-6.4,28.6-4.9,42.4c2.4,22.2,7.5,44.1,15.1,65.1c1.3,0,2.6,0,4,0c2.7,0,5.5,0,8.3,0.1c1.4,0,2.8,0,4.2,0
		c5.3,0,10.7,0.1,15.6,0.1C72.1,153.2,72.1,151.7,71.9,150.1z"/>
	<path id="XMLID_1018_" fill="#B1D8DB" d="M109.5,175.1c0.2-0.9,0.6-1.8,0.8-2.6c-0.3-0.2-0.6-0.4-0.7-0.7
		c-2.8-4.6-4.3-9.9-4.4-15.2c0-0.7,0-1.5,0-2.2c-1.7,1-3.5,1.7-5.3,2.3c-0.2-0.1-0.2,0-0.3,0c2.8,8.3,4.4,17.1,4.7,25.9h2.8
		c0.2-0.6,0.4-1.2,0.6-1.8C108.3,178.9,108.9,177,109.5,175.1z"/>
	<path id="XMLID_1019_" fill="#F4D47B" d="M99,79.2c3.8-0.2,7.6-0.4,11.3-0.3c0,0,0.1,0,0.1,0c-0.6-0.9-1.2-1.7-1.8-2.5
		c-0.1-0.1-0.2-0.3-0.3-0.4c0,0,0-0.1-0.1-0.1h-0.1h-1.5c-2.2,0-4.2,0.1-5.8,0.1c0,0,0,0-0.1,0s-0.1,0-0.1,0c-1.1,0-2-0.8-2-1.9
		c-0.1-1.1,0.8-2,1.9-2c1.2,0,2.7-0.1,4.2-0.1c0,0,0.1,0,0.1,0c-1.2-1.5-2.3-2.9-3.2-4.5c-0.6-1.1-1.2-2.4-1.5-3.7
		c-0.1-0.4-0.1-0.8-0.2-1.2c0,0-0.1,0-0.1,0.1c-0.2,0.2-0.4,0.2-0.6,0.4c-0.6,0.3-1.2,0.7-1.9,1.1c-5.3,3.2-11,5.3-16.6,7.4
		c-0.3,0.1-0.6,0.2-0.9,0.3l2.3-0.1c0.7,0,1.3,0.4,1.7,0.9c0.3,0.3,0.4,0.7,0.4,1.2c0,1.1-0.9,2-2,2L69.3,76c0,0-0.1,0-0.1,0
		s0,0,0.1,0c-0.2,0-0.2,0-0.2-0.1c-0.1,0-0.1,0-0.2,0c-0.1,0-0.1,0.1-0.2,0.1c0.1,0,0.1,0,0.2,0.1C67.1,77,65.4,78,63.7,79
		c6.6-0.4,13.3-0.3,19.8,0.1h0.6c1,0,1.8,0.7,1.9,1.7c0.3,1.9,0.6,4,0.6,6l9.3,0.1c0-0.1,0-0.1,0-0.2c0-1.9,0.3-3.8,0.6-5.7
		c0.1-0.6,0.5-1.2,1-1.4c0.3-0.2,0.6-0.3,1-0.3H99z"/>
	<path id="XMLID_1023_" fill="#FFD577" d="M92.4,157.8c-0.2,0-0.6,0-0.8,0c-0.3,0-0.6,0-0.9,0c-4.9,0-9.9-1.5-14.4-4.5
		c0,1.2,0,2.4,0,3.6c-0.1,1.5-0.2,2.8-0.2,4.3c-0.2,2.2-0.6,4.5-1.7,6.7c-1,1.9-2.5,3.5-4.3,4.2c1.1,3.5,2.2,6.9,3.4,10.4h30.8
		c-0.3-8.8-1.9-17.5-4.7-25.9c-0.1,0-0.1,0-0.2,0.1C97,157.4,94.7,157.8,92.4,157.8z"/>
	<path id="XMLID_1024_" fill="#1B2B54" d="M75.7,68.7c1.2-0.5,2.3-0.9,3.5-1.3c5.4-2,11-4,16-7c0.7-0.4,1.3-0.8,1.9-1.1
		c0.6-0.3,1.1-0.6,1.5-0.9c0.7-0.5,1.3-0.8,1.8-1.2c0,0,0-0.1,0.1-0.1c0,0,0,0-0.1,0.1c0.1-0.2,0.2-0.4,0.2-0.6l0.1-1
		c0.4-0.2,0.8-0.3,1.2-0.3c0,0,0,0.1,0,0.1c0,0,0,0,0,0c0.1-0.2,0.2-0.4,0.2-0.6c0,0,0,0,0,0c0.2-0.6,0.6-1.3,0.9-2.2
		c-3.7-1.8-7.6-2.7-11.4-2.7h-0.1h-0.1h-0.1c-9.5,0-19.1,5.7-25.1,14.9c-2.2,3.2-3.9,6.9-5.2,11c2.9-1.8,5.9-3.4,9-4.7
		C72,70.2,73.9,69.4,75.7,68.7z"/>
	<path id="XMLID_1025_" fill="#1B2B54" d="M101.9,55.3C101.9,55.3,101.9,55.2,101.9,55.3c-0.4-0.1-0.8,0.1-1.2,0.2l-0.1,1
		c-0.1,0.2-0.2,0.4-0.2,0.6c0,0,0,0,0.1-0.1C101.1,56.5,101.5,56,101.9,55.3z"/>
	<path id="XMLID_1029_" fill="#F4D47B" d="M86.5,90.9c-0.1,1.3-0.2,2.5-0.5,3.8c0.1,0.1,0.1,0.2,0.1,0.2l3.3,19.1
		c1.7,0.1,3.5,0,5.2-0.2c0.6-6,1.1-12,1.7-18c0-0.3,0.2-0.6,0.3-0.9c-0.2-1.3-0.5-2.6-0.6-4h0c0,0,0-0.1,0-0.1L86.5,90.9z"/>
	<path id="XMLID_1030_" fill="#FFFFFF" d="M66.6,175.2c0.7,2.3,1.4,4.8,2.3,7.3H69c-1.1-3.4-2.2-6.8-3.2-10.2
		C66,173.3,66.3,174.3,66.6,175.2z"/>
	<path id="XMLID_1031_" fill="#466FB6" d="M47.4,182.6h7.2c1.1-1.9,2.2-3.8,3.3-5.7C54.6,178.6,51,180.5,47.4,182.6z"/>
	<path id="XMLID_1052_" fill="#FFFFFF" d="M57.8,83.7c-0.2,0.1-0.4,0.1-0.6,0.1c0,0-0.1,0-0.1,0c-0.1,0.9-0.3,1.7-0.4,2.6
		c-0.4,2.7-0.6,5.5-0.6,8.3c0,0.1,0,0.2,0,0.2c4.3-0.1,8.7-0.1,12.9-0.1c4.3,0,8.7,0,13-0.1c0.4-1.9,0.6-4,0.6-5.9
		c0-1.5-0.1-3.1-0.1-4.6c0-0.3-0.1-0.6-0.1-0.9C74.2,82.8,66,82.9,57.8,83.7z M73.3,89.3c-0.3,0.7-1,1.2-1.9,1.2h-5.6
		c-1.1,0-2-0.9-2-2c0-1.1,0.9-2,2-2h5.6c0.6,0,1.1,0.2,1.4,0.6c0.2,0.2,0.3,0.4,0.4,0.6c0.1,0.2,0.2,0.5,0.2,0.8
		S73.4,89.1,73.3,89.3z"/>
	<path id="XMLID_1056_" fill="#B6E0D8" d="M64.6,174c-0.6,1.1-1.1,2-1.5,2.8c-0.7,1.3-1,2-1,2s0.4,1.5,1.1,3.7h5.7
		c-0.8-2.5-1.6-5-2.3-7.3c-0.3-1-0.6-2-0.8-2.9L64.6,174z"/>
	<path id="XMLID_1063_" fill="#FFFFFF" d="M63.1,176.8c0.4-0.8,0.9-1.7,1.5-2.8l-0.2-0.2l-0.3,0.5c-1.7,2.7-3.3,5.4-4.9,8.2h3.9
		c-0.7-2.3-1.1-3.7-1.1-3.7S62.5,178.1,63.1,176.8z"/>
	<path id="XMLID_1068_" fill="#FFFFFF" d="M64.5,174L64.5,174l1.2-1.6c0-0.1,0-0.2,0-0.2C65.3,172.7,64.9,173.3,64.5,174z"/>
	<path id="XMLID_1074_" fill="#FFFFFF" d="M56,94.7c0-0.1,0-0.2,0-0.2c0.1-2.7,0.3-5.4,0.7-8.2c0.1-0.9,0.3-1.7,0.4-2.6
		c-0.5,0-1.1,0.1-1.7,0.2c0,0.5-0.1,1-0.1,1.5c-0.2,2.2-0.2,3.9-0.2,7.4V93c0,0.4,0,1.1,0.1,1.7H56L56,94.7z"/>
	<path id="XMLID_1075_" fill="#1B2B54" d="M90.1,157.2c-0.1-0.1-0.2-0.2-0.3-0.3c-0.1-0.2-0.2-0.3-0.3-0.5c-0.1-0.2-0.2-0.5-0.2-0.8
		c0-1.1,0.8-1.9,1.9-2c-5.4,0.2-11-2-15.9-6.1c-1-0.8-1.9-1.6-2.7-2.6c-4.4-4.8-7.8-11.2-10.4-19.7c-2.6-8.6-4-17.4-4.1-26.4
		c-0.6,0-1.4,0-2,0L54.5,99c0,0,0,0-0.1,0s-0.2,0-0.2,0c0.2,9.3,1.6,18.6,4.3,27.5c2.8,9.1,6.5,16,11.3,21.2
		c0.7,0.7,1.4,1.4,2.1,2.1c0-0.1,0-0.2,0-0.4c-0.1-0.9,0.4-1.7,1.2-2c0.3-0.1,0.5-0.2,0.8-0.3c1.1-0.1,2.1,0.7,2.2,1.9
		c0.2,1.4,0.2,2.8,0.2,4.2c4.5,2.9,9.6,4.5,14.4,4.5c0.2,0,0.4,0,0.6,0c-0.3,0-0.7-0.1-1-0.2C90.3,157.4,90.2,157.3,90.1,157.2z"/>
	<path id="XMLID_1076_" fill="#1B2B54" d="M55.9,79.8c0,0,0.1,0,0.1,0c0.1-0.2,0.2-0.2,0.2-0.3c1.5-1.4,3.1-2.6,4.8-3.6
		c0,0,0.1,0,0.1-0.1l0,0c1.3-4,3-7.7,5.2-11c6-9.2,15.6-14.9,25.1-14.9h0.1c-1.1-0.1-1.9-1-1.9-2c0-1,0.6-1.7,1.5-2
		c-1.9,0-3.8,0.2-5.7,0.6c-1.3,0.3-2.7,0.7-4,1.1c-0.7,0.2-1.3,0.5-2,0.8c-1.3,0.6-2.6,1.2-3.8,1.9c-3.7,2.2-7.1,5.1-10,8.6
		c-1,1.2-1.9,2.4-2.7,3.7C59.7,67.4,57.3,73.2,55.9,79.8C55.9,79.7,55.9,79.7,55.9,79.8C55.9,79.7,55.9,79.7,55.9,79.8z"/>
	<path id="XMLID_1077_" fill="#1B2B54" d="M105.3,152.9c0-0.4,0.1-0.9,0.2-1.4c0.2-1.1,1.1-1.9,2.3-1.7c0.9,0.1,1.5,0.8,1.7,1.6
		c1.4-1.1,2.6-2.2,3.8-3.5c-0.1,0.1-0.2,0.2-0.2,0.2c-0.1,0.1-0.2,0.2-0.3,0.2c-0.2,0.2-0.6,0.2-0.9,0.2c0,0,0,0,0,0
		c-0.3,0-0.6-0.1-0.9-0.2c-0.4-0.2-0.7-0.5-0.9-0.9c-0.1-0.2-0.1-0.3-0.2-0.5c0-0.1,0-0.1,0-0.2c0-0.2,0-0.4,0-0.6
		c0.1-0.4,0.3-0.8,0.6-1.1c0,0,0,0-0.1,0.1c-0.7,0.8-1.5,1.5-2.3,2.2c-1.2,1-2.4,1.9-3.7,2.7c0,0,0,0,0,0c-1.9,1.1-3.7,1.9-5.7,2.6
		c0,0,0,0,0,0h0c-0.1,0-0.2,0-0.2,0.1c-0.1,0-0.1,0-0.2,0c-2.1,0.6-4.3,0.9-6.4,0.9h-0.1c-0.1,0-0.1,0-0.2,0c0,0,0,0,0,0
		c0,0,0,0,0,0c0,0-0.1,0-0.1,0c-0.1,0-0.1,0-0.2,0c-1.1,0.1-1.9,1-1.9,2c0,0.3,0.1,0.6,0.2,0.8c0.1,0.2,0.2,0.4,0.3,0.5
		c0.1,0.1,0.2,0.2,0.3,0.3c0.1,0.1,0.2,0.1,0.3,0.2c0.3,0.1,0.6,0.2,1,0.2c0,0,0,0,0,0c0.1,0,0.2,0,0.2,0h0.1c0.2,0,0.6,0,0.8,0
		c2.3,0,4.6-0.3,7-1.1c0.1,0,0.1,0,0.2-0.1c0.1,0,0.2-0.1,0.3-0.1c1.8-0.6,3.6-1.4,5.3-2.3c0,0,0,0,0,0c0-0.3,0-0.7,0.1-1.1
		C105.3,153,105.3,153,105.3,152.9z"/>
	
		<line id="XMLID_1078_" fill="none" stroke="#1B2B54" stroke-width="0" stroke-linecap="round" stroke-linejoin="round" x1="110.3" y1="145.1" x2="110.4" y2="145"/>
	<path id="XMLID_1079_" fill="#1B2B54" d="M118.9,138c-0.3,0-0.6-0.1-1-0.2c-0.6-0.3-1-0.9-1-1.6c0-0.2,0-0.4,0.1-0.7v-0.1v-0.1
		c0,0,0,0,0,0c0,0,0,0,0,0c-1.4,2.8-2.9,5.3-4.7,7.5c-0.6,0.7-1.2,1.5-1.8,2.1c0.1-0.1,0.2-0.2,0.4-0.2c0.5-0.3,1.1-0.3,1.6-0.1
		c0.5,0.2,0.9,0.5,1.2,1c0.3,0.7,0.2,1.6-0.3,2.1c2.7-2.9,5-6.3,7-10.4c-0.1,0.1-0.2,0.2-0.4,0.3C119.6,137.9,119.3,138,118.9,138z"
		/>
	<path id="XMLID_1080_" fill="#1B2B54" d="M110.4,145L110.4,145C110.5,145,110.5,145,110.4,145C110.5,145,110.5,145,110.4,145
		C110.4,145,110.4,145,110.4,145z"/>
	<path id="XMLID_1081_" fill="#1B2B54" d="M116.9,135.3c0-0.1,0.1-0.1,0.1-0.2C117,135.2,116.9,135.2,116.9,135.3z"/>
	<path id="XMLID_1082_" fill="#1B2B54" d="M128.9,99c-0.1,0-0.1,0-0.2,0c-0.2,0-0.4,0.1-0.6,0.1H128c-0.3,0-0.7,0-1.1,0
		c-0.6-0.1-1.3-0.1-1.9-0.1c-0.1,6.3-0.8,12.6-2.2,18.8c-0.6,2.5-1.2,5-1.9,7.5c-1.1,3.6-2.3,6.7-3.7,9.6c0.4-0.6,1-1,1.7-1
		c0,0,0,0,0,0c0,0,0,0,0,0c1.1,0,2,0.9,2,2c0,0.2,0,0.3-0.1,0.5c0,0.2-0.1,0.3-0.2,0.4c1.5-3.1,2.8-6.5,4-10.4
		c0.8-2.6,1.5-5.3,2-7.9C128.1,112.2,128.9,105.6,128.9,99C129,99,129,99,128.9,99C129,98.9,129,99,128.9,99z"/>
	<path id="XMLID_1083_" fill="#1B2B54" d="M107,50.1c0.1,0,0.2,0,0.2,0c0.1,0,0.2,0.1,0.3,0.1c-0.3-0.2-0.6-0.4-0.9-0.6
		c0,0.1,0.1,0.1,0.1,0.1C106.8,49.9,106.9,50,107,50.1z"/>
	<path id="XMLID_1084_" fill="#1B2B54" d="M108,53.4c-0.5,0.6-0.7,1.1-0.6,1.6c1.1,0.7,2.2,1.5,3.2,2.4c2.4,2.1,4.5,4.5,6.3,7.3
		c0.6,0.9,1.1,1.8,1.6,2.8c1.6,1.2,3.2,2.5,4.6,4c1.2,1.4,2.2,2.6,2.9,4c0.2,0.5,0.5,1,0.6,1.6c-0.3-1.1-0.6-2.3-1-3.3
		c-1.4-4.1-3.2-7.9-5.4-11.3c-1.9-2.8-4.1-5.5-6.6-7.8c-0.1-0.1-0.1-0.1-0.2-0.2c-0.1-0.1-0.2-0.2-0.2-0.2c-1.7-1.5-3.6-2.9-5.5-4
		c0,0,0.1,0,0.1,0.1c0.1,0.1,0.3,0.3,0.4,0.4C108.7,51.6,108.7,52.7,108,53.4z"/>
	<path id="XMLID_1085_" fill="#1B2B54" d="M126.9,79.7c0,0,0.1,0,0.2,0c0.1,0,0.1,0,0.2,0c-0.2-0.9-0.4-1.8-0.6-2.6
		c0.2,0.6,0.3,1.2,0.3,1.8C126.9,79.2,126.9,79.4,126.9,79.7z"/>
	<path id="XMLID_1086_" fill="#1B2B54" d="M107.5,50.2c0.1,0,0.1,0.1,0.2,0.1C107.5,50.2,107.4,50.2,107.5,50.2
		C107.4,50.2,107.5,50.2,107.5,50.2z"/>
	<path id="XMLID_1087_" fill="#1B2B54" d="M106.3,49.6c0.1,0,0.2,0.1,0.2,0.1C106.4,49.7,106.3,49.6,106.3,49.6z"/>
	<path id="XMLID_1088_" fill="#1B2B54" d="M89.6,47.8c0,1.1,0.9,1.9,1.9,2h0.1h0.1c3.8,0,7.7,0.9,11.4,2.7c0.2-0.5,0.3-1.1,0.5-1.6
		c0.3-1.1,1.5-1.7,2.5-1.4c0,0,0,0,0,0c0.1,0,0.1,0,0.2,0c-4.6-2.5-9.7-3.9-14.6-3.9h-0.1h-0.1c-0.2,0-0.3,0-0.5,0.1
		C90.2,46.1,89.6,46.9,89.6,47.8z"/>
	<path id="XMLID_1091_" fill="#1B2B54" d="M53.9,98.9c0.1,0,0.2,0,0.2,0c0,0,0,0,0.1,0l1.7-0.1c0.6,0,1.4,0,2,0c0.1,0,0.2,0,0.2,0
		c3.6,0,7.2,0.1,10.7,0.1c4.5,0,9.2,0,13.7-0.1l0-0.1L82,95.6c-0.2-1.1,0.6-2.2,1.6-2.3c0.1,0,0.3,0,0.4,0c0.9,0,1.6,0.5,1.9,1.3
		c0.2-1.2,0.4-2.4,0.5-3.7h-1.1h-0.1c-1.1,0-2-0.9-2-2c0-1.1,0.9-2,2-2h0.1h1.2c-0.1-2-0.2-4-0.6-6c-0.2-1-1-1.6-1.9-1.7h-0.6
		c-6.6-0.5-13.3-0.5-19.9-0.1c0,0-0.1,0.1-0.1,0.1c-1.5,1.1-3,2.1-4.4,3.3c-0.4,0.3-0.9,0.5-1.4,0.5c-0.6,0-1.1-0.2-1.5-0.6
		c0,0,0,0,0,0c0,0,0,0-0.1,0c-0.6-0.7-0.6-1.7-0.1-2.5c0,0,0-0.1,0-0.1c0,0,0,0-0.1,0c-0.1,0-0.1,0-0.2,0c-0.8,0.1-1.5,0.2-2.3,0.2
		c-0.2,0-0.5,0.1-0.7,0.2l-0.3,0.2c-0.6,0.3-1,1-1.1,1.7c-0.1,1.1-0.1,2.1-0.2,3c-0.2,2.3-0.3,4.1-0.2,7.8V93c0,1.1,0.1,2.9,0.6,4.4
		c0.2,0.5,0.5,0.9,0.9,1.1c0.3,0.2,0.7,0.3,1.1,0.3C53.7,98.9,53.8,98.9,53.9,98.9z M82.5,84.2c0.1,1.5,0.1,3,0.1,4.6c0,0,0,0,0,0.1
		c-0.1,1.9-0.2,3.9-0.6,5.9c-4.3,0.1-8.7,0.1-13,0.1c-4.2,0-8.6,0-12.9,0.1H56h-0.7c0-0.1,0-0.1,0-0.2c-0.1-0.6-0.1-1.3-0.1-1.7
		v-0.2c-0.1-3.5,0-5.2,0.2-7.4c0-0.5,0.1-1,0.1-1.5c0.5-0.1,1.1-0.1,1.7-0.2c0,0,0.1,0,0.1,0c0.2,0,0.4,0,0.6-0.1
		c8.2-0.8,16.4-0.9,24.6-0.4c0,0,0,0,0.1,0C82.4,83.6,82.5,83.9,82.5,84.2z"/>
	<path id="XMLID_1092_" fill="#1B2B54" d="M72.9,87.1c-0.4-0.4-0.9-0.6-1.4-0.6h-5.6c-1.1,0-2,0.9-2,2c0,1.1,0.9,2,2,2h5.6
		c0.9,0,1.6-0.5,1.9-1.2c0.1-0.2,0.2-0.5,0.2-0.8s-0.1-0.6-0.2-0.8C73.2,87.5,73,87.3,72.9,87.1z"/>
	<path id="XMLID_1095_" fill="#1B2B54" d="M126.9,79.8c0,0.5-0.1,1.1-0.2,1.5c-0.2,1-1,1.6-1.9,1.6c-0.2,0-0.2,0-0.4,0
		c-1.1-0.2-1.9-1.2-1.6-2.3c0.1-0.4,0.1-0.8,0.1-1.1c0,0,0,0,0,0c-3.7-0.3-7.4-0.5-11.2-0.5c-0.4,0-0.9,0-1.3,0
		c-3.7,0-7.6,0.1-11.4,0.3h-0.6c-0.3,0-0.7,0.1-0.9,0.3c-0.5,0.3-0.9,0.8-1,1.4c-0.3,1.9-0.5,3.8-0.6,5.7c0,0.1,0,0.2,0,0.3h1.2
		c1.1,0,2,0.9,2,2c0,0,0,0,0,0c0,0,0,0,0,0c0,1.1-0.9,2-2,2h-1h0c0.1,1.4,0.3,2.7,0.6,4c0,0,0,0,0,0c0,0,0,0,0,0
		c0.3-0.6,1.1-1.1,1.9-1c1.1,0.1,1.9,1.1,1.9,2.2c0,0,0,0,0,0c0,0,0,0,0,0.1c-0.1,0.8-0.2,1.6-0.2,2.3c0,0,0,0.1,0,0.1
		c4.6,0.2,9.2,0.1,13.8,0.1c1.2,0,2.5,0,3.7,0c0.1,0,0.2,0,0.3,0c0,0,0,0,0,0c2.3,0,4.7,0,7,0.1c0,0,0,0,0,0c0,0,0.1,0,0.1,0
		c0.6,0,1.3,0,1.9,0.1c0.3,0,0.7,0,1.1,0h0.1c0.2,0,0.5-0.1,0.6-0.1c0.1,0,0.1,0,0.2,0c0,0,0.1,0,0.1,0c0.8,0,1.5-0.6,1.8-1.4
		c0.5-1.5,0.6-3.2,0.6-4.4V93V93c0-0.9,0-1.7,0-2.4c0-2.2-0.1-3.7-0.2-5.3c0-0.1,0-0.2,0-0.3c-0.1-0.8-0.1-1.7-0.1-2.7
		c0,0,0-0.1,0-0.1c0-0.7-0.4-1.3-1.1-1.7l-0.3-0.2c-0.2-0.2-0.5-0.2-0.7-0.2c-0.6-0.1-1.2-0.2-1.8-0.2c0-0.1,0-0.1-0.1-0.1
		C127.1,79.8,127,79.8,126.9,79.8z M100,88.9c-0.1-1.4,0-2.8,0.1-4.3c0-0.5,0.1-0.9,0.2-1.4c3.9-0.2,7.7-0.3,11.4-0.2
		c0.3,0,0.7,0,1.1,0c0.1,0,0.1,0,0.2,0c4.2,0.1,8.3,0.3,12.4,0.7c0.2,0,0.4,0,0.6,0.1c0,0,0.1,0,0.1,0c0.3,0,0.5,0.1,0.8,0.1
		c0.1,0,0.2,0,0.3,0c0,0.6,0.1,1.1,0.1,1.5c0.1,1.6,0.2,3,0.2,5c0,0.7,0,1.4,0,2.2v0.1V93c0,0.6,0,1.2-0.1,1.9c-0.1,0-0.2,0-0.2,0
		H127c-0.1,0-0.2,0-0.2,0c-1.4,0-2.9-0.1-4.4-0.1c-0.1,0-0.2,0-0.2,0c-1.5,0-3,0-4.5,0c0,0-0.1,0-0.1,0c-0.1,0-0.2,0-0.3,0
		c0,0,0,0-0.1,0c0,0,0,0,0,0c-1.1,0-2.2,0-3.3,0c-4.4,0-8.8,0.1-13.1-0.1c0,0,0,0-0.1,0C100.3,92.9,100,90.9,100,88.9z"/>
	<path id="XMLID_1096_" fill="#1B2B54" d="M111,90.5h4.9h0.1h0.6c1.2,0,2.1-0.9,2.1-2c0-1.1-0.9-2-2-2h-2.2h0H111c-1.1,0-2,0.9-2,2
		c0,0,0,0,0,0C109,89.7,109.9,90.5,111,90.5z"/>
	<path id="XMLID_1097_" fill="#1B2B54" d="M86.5,90.9L96,91h1.1c1.1,0,2-0.9,2-2c0,0,0,0,0,0c0-1.1-0.9-2-2-2h-1.2h0l-9.3-0.1h-0.1
		h-1.2c-1.1,0-2,0.9-2,2c0,1.1,0.9,2,2,2H86.5L86.5,90.9L86.5,90.9z"/>
	<path id="XMLID_1098_" fill="#1B2B54" d="M85.9,116.1C85.9,116.1,85.9,116.1,85.9,116.1C85.9,116,85.9,116,85.9,116.1
		c0-0.1,0-0.1,0-0.2c0-1.1,1-2,2.1-1.9c0.5,0.1,0.9,0.1,1.4,0.1L86.1,95c0-0.1,0-0.2-0.1-0.2c0-0.1,0-0.1-0.1-0.2
		c-0.3-0.8-1-1.3-1.9-1.3c-0.1,0-0.2,0-0.3,0c-1.1,0.2-1.9,1.2-1.6,2.3l0.6,3.1l0,0.1l3,17.2c0,0,0,0,0,0.1c0,0.2,0.1,0.3,0.2,0.5
		c0,0.1,0.1,0.1,0.1,0.1c0,0,0,0,0,0.1c0.1,0.1,0.1,0.2,0.2,0.3c0,0,0-0.1-0.1-0.1c-0.1-0.2-0.1-0.3-0.2-0.5
		C85.9,116.3,85.9,116.2,85.9,116.1z"/>
	<path id="XMLID_1099_" fill="#1B2B54" d="M96.5,116.9C96.5,116.9,96.5,116.9,96.5,116.9L96.5,116.9c-0.1,0-0.2,0-0.2,0h0
		c-1.1-0.1-1.9-1.1-1.9-2.2c0-0.2,0.1-0.6,0.1-0.8c-1.7,0.2-3.5,0.2-5.2,0.2c0,0,0,0,0,0c-0.5,0-0.9,0-1.4-0.1
		c-1.1-0.1-2.1,0.8-2.1,1.9c0,0,0,0,0,0.1c0,0,0,0.1,0,0.1c0,0.1,0,0.2,0,0.2c0,0.2,0.1,0.4,0.2,0.6c0.3,0.6,1,1.1,1.7,1.1
		c0.9,0.1,1.7,0.1,2.6,0.1c2,0,4-0.2,6-0.4c0.9-0.1,1.6-0.8,1.7-1.6C97.8,116.6,97.2,116.9,96.5,116.9z"/>
	<path id="XMLID_1100_" fill="#1B2B54" d="M100.3,96.3c0.1-1.1-0.7-2.1-1.9-2.2c-0.8-0.1-1.5,0.3-1.9,1c0,0,0,0,0,0
		c-0.2,0.2-0.2,0.6-0.3,0.9c-0.6,6-1.1,12-1.7,18c0,0.2-0.1,0.6-0.1,0.8c-0.1,1.1,0.7,2.1,1.9,2.2h0c0,0,0.1,0,0.2,0c0,0,0,0,0,0
		c0.6,0,1.3-0.3,1.6-0.8c0,0,0,0,0,0c0.1-0.1,0.1-0.2,0.2-0.3c0.1-0.2,0.2-0.4,0.2-0.6c0,0,0,0,0-0.1c0.5-5.4,1.1-10.9,1.5-16.4
		c0,0,0-0.1,0-0.1C100.2,97.9,100.3,97.1,100.3,96.3C100.3,96.3,100.3,96.3,100.3,96.3z"/>
	<path id="XMLID_1101_" fill="none" stroke="#1B2B54" stroke-width="0" stroke-linecap="round" stroke-linejoin="round" d="
		M98.5,133.4C98.5,133.4,98.5,133.4,98.5,133.4"/>
	<path id="XMLID_1102_" fill="#1B2B54" d="M99.9,129.9c-0.4-0.3-0.8-0.6-1.4-0.6l-14-0.1c-1.1,0-2,0.9-2,2c0,0.5,0.2,1,0.6,1.4
		c0.4,0.4,0.9,0.6,1.5,0.6l14,0.1c1.1,0,2-0.9,2-2C100.6,130.8,100.3,130.2,99.9,129.9z"/>
	<path id="XMLID_1103_" fill="#1B2B54" d="M69,76.1c-0.1,0-0.1,0-0.2-0.1c-0.9-0.2-1.5-1-1.6-1.9c0-0.7,0.3-1.2,0.8-1.6
		c0.4-0.3,0.8-0.6,1.4-0.6l9.9-0.2l0.3,0c0.1,0,0.2-0.1,0.2-0.1c0.3-0.1,0.6-0.2,0.9-0.3c5.6-2.1,11.3-4.2,16.6-7.4
		c0.6-0.4,1.3-0.8,1.9-1.1c0.2-0.2,0.4-0.2,0.6-0.4c0,0,0.1,0,0.1-0.1c0.3-0.2,0.6-0.4,0.9-0.5c1.5-1,2.6-1.8,3.6-2.9
		c0,0,0-0.1-0.1-0.1c-0.1-0.3-0.2-0.5-0.3-0.8c0-0.1-0.1-0.1-0.1-0.2c-0.1-0.4-0.3-0.7-0.4-1.1c-0.6-2.3-0.2-4.3,1.4-6.2
		c0.5-0.6,1.3-0.8,1.9-0.6c0,0,0.1,0,0.1,0c-0.1-0.1-0.3-0.2-0.4-0.3c-0.1-0.1-0.2-0.1-0.4-0.2c-1.1-0.5-2.3,0.2-2.6,1.2
		c-0.2,0.6-0.3,1.1-0.5,1.6c-0.3,0.9-0.6,1.6-0.9,2.2c0,0,0,0,0,0c-0.1,0.2-0.2,0.4-0.2,0.6c-0.4,0.7-0.9,1.3-1.5,1.9
		c-0.5,0.4-1.1,0.8-1.8,1.2c-0.5,0.2-1,0.6-1.5,0.9c-0.6,0.3-1.2,0.7-1.9,1.1c-4.9,3-10.5,5-16,7c-1.1,0.4-2.3,0.9-3.5,1.3
		c-1.9,0.7-3.7,1.4-5.6,2.3c-3.1,1.3-6.1,2.9-9,4.7c0,0-0.1,0-0.1,0.1c-1.7,1.1-3.2,2.3-4.8,3.6c-0.1,0.1-0.2,0.2-0.2,0.3
		c-0.6,0.7-0.6,1.8,0.1,2.6c0,0,0,0,0,0c0.4,0.4,1,0.6,1.5,0.6c0.5,0,1-0.2,1.4-0.5c1.4-1.2,2.8-2.3,4.4-3.3c0,0,0.1-0.1,0.1-0.1
		c0,0,0.1-0.1,0.1-0.1C65.4,78,67.1,77,69,76.1z"/>
	<path id="XMLID_1104_" fill="#1B2B54" d="M106.9,50.1c-0.6-0.2-1.5,0-1.9,0.6c-1.5,1.9-2,3.9-1.4,6.2c0.1,0.4,0.2,0.7,0.4,1.1
		c0,0.1,0,0.1,0.1,0.2c0.1,0.2,0.2,0.5,0.3,0.8c0,0,0,0.1,0.1,0.1c0.2,0.5,0.5,1.1,0.8,1.7c1.7,3.4,4.8,5.8,7.5,7.8
		c0.5,0.3,1,0.6,1.5,1c1.1,0.8,2.2,1.5,3.2,2.4c0.1,0,0.2,0,0.3,0.1c0.3,0.2,0.6,0.4,0.9,0.7c0,0.1,0.1,0.2,0.1,0.3
		c0.5,0.4,1,0.9,1.4,1.4c1.3,1.5,2.3,2.8,2.7,4c0.1,0.3,0.2,0.7,0.2,1.1v0c0,0.4,0,0.7-0.1,1.1c-0.2,1.1,0.5,2.2,1.6,2.3
		c0.2,0,0.2,0,0.4,0c1,0,1.8-0.6,1.9-1.6c0.1-0.6,0.2-1.1,0.2-1.5c0-0.3,0-0.6,0-0.9c0-0.6-0.1-1.2-0.3-1.7
		c-0.1-0.5-0.3-0.9-0.5-1.4c-0.7-1.5-1.7-2.8-3-4.2c-1.4-1.5-3-2.8-4.6-4c0,0,0,0-0.1,0c-0.6-0.5-1.4-1-2-1.5
		c-0.5-0.3-0.9-0.6-1.4-1c0,0,0,0,0,0c-2.2-1.5-4.4-3.3-5.8-5.6c-0.2-0.2-0.3-0.5-0.4-0.7c-0.6-1.1-1.1-2.1-1.4-3
		c-0.1-0.2-0.2-0.6-0.2-0.8c0-0.5,0.2-1.1,0.6-1.6c0.7-0.9,0.6-2.1-0.2-2.8c0,0,0,0,0,0c-0.1-0.1-0.1-0.1-0.2-0.2c0,0,0,0,0,0
		c0,0-0.1-0.1-0.1-0.1c0,0,0,0-0.1,0C107.2,50.2,107.1,50.1,106.9,50.1C107,50.1,106.9,50.1,106.9,50.1z"/>
	<path id="XMLID_1105_" fill="none" stroke="#1B2B54" stroke-width="0" stroke-linecap="round" stroke-linejoin="round" d="M69.3,76
		C69.3,76,69.3,76,69.3,76"/>
	<path id="XMLID_1106_" fill="#1B2B54" d="M67.4,74c0,1.1,0.8,1.9,1.8,1.9c-0.1,0.1,0,0.1,0.2,0.1l12.9-0.2c1.1,0,2-1,2-2
		c0-0.4-0.2-0.9-0.4-1.2c-0.4-0.5-1-0.8-1.6-0.8l-2.6,0.1l-0.3,0L69.4,72c-0.5,0-1,0.2-1.4,0.6C67.6,72.9,67.4,73.5,67.4,74z"/>
	<path id="XMLID_1107_" fill="#1B2B54" d="M116.7,71.7c-1.6,0-3.6,0.1-5.8,0.1l-4.5,0.1c-0.5,0-1.1,0-1.6,0c0,0-0.1,0-0.1,0
		c-1.5,0-3,0.1-4.2,0.1c-1.1,0-2,1-1.9,2c0,1.1,0.9,1.9,2,1.9c0,0,0,0,0.1,0c1.6,0,3.6-0.1,5.8-0.1h0.1h1.5l2.8-0.1
		c2.1,0,4.1-0.1,5.8-0.1c0.8,0,1.5-0.5,1.8-1.2c0.1-0.3,0.2-0.5,0.2-0.8c0-0.3-0.1-0.5-0.2-0.8c0-0.1-0.1-0.2-0.1-0.3
		c-0.2-0.3-0.6-0.6-0.9-0.7c-0.1,0-0.2-0.1-0.3-0.1C117.1,71.8,116.9,71.7,116.7,71.7C116.8,71.7,116.7,71.7,116.7,71.7z"/>
	<path id="XMLID_1108_" fill="#1B2B54" d="M36.7,157.4c0.3,0.8,1.1,1.3,1.9,1.3c5.5,0,11.7,0.1,18,0.1c5.3,0,10.6,0.1,15.5,0.1
		c0-0.7,0.1-1.4,0.1-2c0-0.6,0-1.3,0-1.9c0,0,0,0,0,0c-4.9,0-10.2-0.1-15.6-0.1c-1.4,0-2.8,0-4.2,0c-2.8,0-5.6,0-8.3-0.1
		c-1.3,0-2.7,0-4,0c-7.6-21-12.7-42.8-15.1-65.1C23.4,75.7,22.5,61,29.6,47c0.2-0.6,0.6-1.1,0.8-1.6c7.1-12.9,19-22,33.4-25.9
		c13.6-3.6,28.2-2.2,41,3.9c1.8,0.8,3.5,1.8,5.2,2.8c0,0,0.1,0,0.1,0.1c0.1,0.1,0.3,0.1,0.4,0.2c-0.2-0.2-0.5-0.4-0.6-0.7
		c-0.4-0.7-0.2-1.6,0.3-2.2c0.2-0.2,0.4-0.4,0.7-0.5c0.2-0.1,0.5-0.2,0.8-0.4C97,13.7,79.2,11.2,62.8,15.6
		C47.3,19.8,34.6,29.7,27,43.6c-0.3,0.6-0.6,1.1-0.9,1.7c-7.6,15-6.7,30.3-5.2,44.7C23.4,113,28.7,135.6,36.7,157.4z"/>
	<path id="XMLID_1109_" fill="#1B2B54" d="M110.2,23.4c-0.5,0.6-0.7,1.5-0.3,2.2c0.2,0.3,0.4,0.6,0.6,0.7c0,0,0.1,0,0.1,0.1
		c0.2,0.1,0.4,0.2,0.6,0.3c0.3,0,0.5,0,0.8,0c0.2,0,0.4-0.1,0.6-0.2c0.2-0.1,0.4-0.2,0.6-0.3c0,0,0.1,0,0.1-0.1
		c0.1-0.1,0.3-0.2,0.5-0.2c2.9-1.3,6-2.1,9.1-2.5c9.1-1,18.3,2.1,25.1,8.8c8.9,8.9,13.3,22.8,13.5,42.5c0.2,25.4-5.3,52.1-15.9,77.1
		c0,0.1,0,0.1-0.1,0.1c0,0,0,0,0,0.1c0,0.1,0,0.1-0.1,0.2c-0.4,0.9-0.8,1.7-1.1,2.7c0.1,0,0.1,0,0.2,0c0.4,0,0.7,0,1.2-0.1l0.2,1.9
		l-0.1-1.8c0,0,0,0,0,0l0-0.2c0.1,0,0.2,0,0.2,0c1,0,1.9,0.7,2,1.7c0.5-1.1,0.9-2,1.4-3.1c10.8-25.6,16.4-52.8,16.2-78.7
		c-0.2-20.7-5-35.6-14.7-45.3c-10.4-10.2-25.5-13-38.8-7.1c-0.2,0.1-0.2,0.2-0.4,0.2c0,0-0.1,0-0.1,0.1c-0.3,0.1-0.6,0.2-0.8,0.4
		C110.6,23,110.4,23.2,110.2,23.4z"/>
	<path id="XMLID_1110_" fill="#1B2B54" d="M145.8,156.8l0,0.2l-0.2-2c-0.4,0-0.8,0-1.2,0.1c-0.1,0-0.1,0-0.2,0
		c-11.8,0.5-23.5,0.6-35.1,0.3c0,0,0,0,0,0c0,1.4,0.1,2.7,0.3,4c0,0,0,0,0,0c3.6,0.1,7.2,0.1,10.8,0.1c8.4,0,16.9-0.2,25.4-0.5
		c0.1,0,0.2,0,0.2,0c1.1,0,2-0.9,2-2c0-0.1,0-0.2,0-0.3c-0.2-1-1-1.7-1.9-1.7c-0.1,0-0.2,0-0.2,0c0,0,0,0,0,0L145.8,156.8z"/>
	<path id="XMLID_1111_" fill="#1B2B54" d="M112.1,167.9c-0.2-0.8,0.1-1.7,0.9-2.2c0.6-0.4,1.3-0.4,1.9-0.1c0.4,0.2,0.7,0.4,0.9,0.8
		c0.1,0.1,0.2,0.2,0.2,0.3c0-0.9-0.6-1.7-1.5-1.9c-1.1-0.3-2.2,0.3-2.5,1.5c-0.1,0.2-0.1,0.4-0.2,0.6c0,0.1-0.1,0.2-0.1,0.3
		c0,0,0,0,0,0.1C111.9,167.5,112,167.7,112.1,167.9z"/>
	<path id="XMLID_1112_" fill="#1B2B54" d="M114.2,173.8c0.1-0.5,0.3-0.9,0.4-1.4c0,0,0,0,0-0.1c0-0.1-0.1-0.1-0.1-0.2
		c-0.4-0.6-0.7-1.2-1.1-1.8c0.1,0.5-0.1,1.1-0.4,1.5c-0.2,0.2-0.4,0.4-0.6,0.6c-0.3,0.2-0.7,0.3-1.1,0.3c-0.3,0-0.6-0.1-0.9-0.2
		c-0.2,0.8-0.5,1.6-0.8,2.4c-0.7,2-1.3,4-2,5.9c-0.2,0.6-0.4,1.2-0.6,1.8h4.3c0.7-2.2,1.4-4.3,2.1-6.5
		C113.7,175.3,114,174.5,114.2,173.8z"/>
	<path id="XMLID_1113_" fill="#1B2B54" d="M113.1,165.8c-0.8,0.5-1.1,1.4-0.9,2.2c0.1,0.1,0.1,0.2,0.2,0.4c0.1,0.2,0.2,0.3,0.2,0.5
		c0.1,0.2,0.2,0.4,0.3,0.6c0.2,0.3,0.4,0.6,0.5,0.9c0.4,0.6,0.8,1.2,1.1,1.8c0,0.1,0.1,0.1,0.1,0.2c0.4,0.6,0.7,1.1,1,1.7
		c0,0,0,0,0,0c0.1,0.1,0.1,0.2,0.2,0.3c0,0,0,0,0,0c0.4,0.7,0.8,1.4,1.2,2c0-0.1-0.1-0.2-0.1-0.3c0-0.1-0.1-0.2-0.1-0.4
		c0-1.1,0.9-2,2-2c0.2,0,0.3,0,0.5,0c0,0,0.1,0-0.1-0.1c0.2,0,0.5,0.1,0.8,0.1c-1.4-2.4-3-4.8-4.3-7c-0.1-0.1-0.2-0.2-0.2-0.3
		c-0.1-0.3-0.4-0.6-0.7-0.7C114.4,165.4,113.7,165.4,113.1,165.8z"/>
	<path id="XMLID_1114_" fill="#1B2B54" d="M117.7,177c1.1,1.7,2.2,3.6,3.3,5.5h4.7c-0.7-1.3-1.5-2.5-2.2-3.7c0,0,0-0.1-0.1-0.1
		c-1.5-0.4-3-0.8-4.5-1.1C118.4,177.6,118,177.4,117.7,177z"/>
	<path id="XMLID_1115_" fill="#1B2B54" d="M67.3,165.6c0.3,0.3,0.6,0.6,0.8,1c0.3,0.6,0.2,1.3-0.2,2c0.3-0.1,0.6-0.2,1-0.4
		c-0.2-0.5-0.2-0.9-0.4-1.4c-0.1-0.2-0.1-0.4-0.2-0.6c-0.3-1.1-1.4-1.7-2.5-1.5c-0.8,0.2-1.3,0.9-1.4,1.6c0-0.1,0.1-0.1,0.1-0.1
		C65.1,165.3,66.3,165,67.3,165.6z"/>
	<path id="XMLID_1116_" fill="#1B2B54" d="M68.1,172.7c-0.1,0-0.2,0-0.3,0c-0.8,0-1.5-0.5-1.8-1.2c-0.1,0.1-0.1,0.2-0.3,0.4
		c0,0.1,0,0.1,0,0.2c0,0.1,0,0.1,0,0.2v0c1,3.4,2.1,6.8,3.2,10.2h4.4c-1.2-3.5-2.3-6.9-3.4-10.4c0,0-0.1,0-0.1,0
		C69.3,172.4,68.7,172.7,68.1,172.7z"/>
	<path id="XMLID_1117_" fill="#1B2B54" d="M66,169.7C66,169.7,66,169.7,66,169.7c0-0.1,0.1-0.2,0.1-0.2c0.3-0.5,0.8-0.8,1.4-1
		c0.1,0,0.2-0.1,0.3-0.1c0.4-0.6,0.4-1.3,0.2-1.9c-0.2-0.4-0.4-0.7-0.8-1c-1-0.6-2.2-0.3-2.8,0.6c0,0-0.1,0.1-0.1,0.1
		c0,0.1-0.1,0.1-0.1,0.2c-0.9,1.4-1.8,2.8-2.6,4c0.7,0.2,1.3,0.6,1.6,1.3c0.5,1,0.1,2.2-0.9,2.8c-1.4,0.7-2.8,1.5-4.3,2.2
		c0,0.1-0.1,0.1-0.1,0.2c-1.1,1.9-2.2,3.8-3.3,5.7h4.6c1.6-2.8,3.2-5.5,4.9-8.3l0.3-0.5c0.4-0.6,0.8-1.3,1.2-1.9
		c0.1-0.1,0.1-0.2,0.2-0.4c-0.1-0.1-0.1-0.3-0.1-0.4C65.7,170.6,65.8,170.1,66,169.7z"/>
	<path id="XMLID_1118_" fill="#1B2B54" d="M109.2,155.4C109.2,155.4,109.2,155.4,109.2,155.4C109.2,155.4,109.2,155.4,109.2,155.4
		c0-0.6,0-1.2,0.1-1.7c0-0.1,0-0.3,0-0.4c0-0.4,0.1-0.7,0.2-1.1c0-0.2,0-0.3,0-0.5c0-0.1,0-0.1,0-0.2c-0.2-0.8-0.8-1.5-1.7-1.6
		c-1.1-0.2-2.1,0.6-2.3,1.7c-0.1,0.5-0.1,0.9-0.2,1.4c0,0,0,0.1,0,0.1c-0.1,0.3-0.1,0.7-0.1,1.1c0,0,0,0.1,0,0.1c0,0,0,0.1,0,0.1
		c0,0.7,0,1.5,0,2.2c0.1,5.3,1.6,10.6,4.4,15.1c0.2,0.3,0.5,0.6,0.7,0.7c0,0,0.1,0,0.1,0c0.3,0.1,0.6,0.2,0.9,0.2
		c0.3,0,0.7-0.1,1.1-0.3c0.3-0.2,0.5-0.4,0.6-0.6c0.4-0.6,0.5-1.5,0-2.2c0-0.1-0.1-0.1-0.1-0.2c-0.1-0.2-0.2-0.4-0.3-0.6
		c-0.1-0.2-0.2-0.3-0.2-0.5c-0.1-0.1-0.1-0.2-0.2-0.4c-0.1-0.2-0.2-0.4-0.3-0.6c0,0,0,0,0-0.1c-1.2-2.5-2-5.1-2.3-7.8c0,0,0,0,0,0
		C109.2,158.1,109.2,156.8,109.2,155.4z"/>
	<path id="XMLID_1119_" fill="#1B2B54" d="M71.8,149.4c0,0.1,0,0.2,0,0.4c0,0.1,0,0.1,0,0.2c0,0,0,0.1,0,0.1
		c0.2,1.6,0.2,3.2,0.2,4.8c0,0,0,0,0,0s0,0,0,0c0,0.6,0,1.3,0,1.9c0,0.6-0.1,1.3-0.1,2c0,0,0,0.1,0,0.1c-0.1,0.6-0.1,1.3-0.2,1.9
		c-0.2,1.8-0.5,3.7-1.2,5.3c-0.5,0.9-1.1,1.7-1.9,2.1c-0.3,0.2-0.6,0.3-1,0.4c-0.1,0-0.2,0-0.3,0.1c-0.6,0.1-1,0.4-1.3,0.8
		c0,0.1-0.1,0.1-0.1,0.2c0,0,0,0,0,0c-0.2,0.4-0.3,0.9-0.2,1.3c0,0.1,0.1,0.3,0.1,0.4c0,0,0,0,0,0c0,0,0,0,0,0
		c0.3,0.7,1,1.2,1.8,1.2c0.1,0,0.2,0,0.3,0c0.6-0.1,1.2-0.3,1.8-0.6c0,0,0.1,0,0.1,0c1.7-0.8,3.2-2.3,4.2-4.2
		c1.1-2.1,1.5-4.5,1.7-6.7c0.2-1.4,0.2-2.8,0.2-4.3c0-1.2,0-2.4,0-3.6c0-1.4-0.1-2.8-0.2-4.2c-0.1-1.1-1.1-1.9-2.2-1.9
		c-0.2,0-0.5,0.1-0.7,0.2C72.2,147.7,71.8,148.5,71.8,149.4z"/>
	<path id="XMLID_1120_" fill="#1B2B54" d="M117.2,134.9c-0.1,0.1-0.1,0.2-0.2,0.3c0,0.1-0.1,0.2-0.1,0.2v0.1v0.1
		c-0.1,0.2-0.1,0.4-0.1,0.7c0,0.7,0.4,1.3,1,1.6c0.3,0.2,0.6,0.2,1,0.2c0.4,0,0.7-0.1,1-0.3c0.1-0.1,0.3-0.2,0.4-0.3
		c0.1-0.1,0.3-0.3,0.4-0.5v-0.1c0.2-0.2,0.2-0.6,0.2-0.9c0-1.1-0.9-2-2-2c0,0,0,0,0,0C118.2,133.9,117.6,134.3,117.2,134.9z"/>
	<path id="XMLID_1121_" fill="#1B2B54" d="M113.2,147.9C113.3,147.8,113.3,147.8,113.2,147.9c0.6-0.6,0.7-1.5,0.4-2.2
		c-0.2-0.5-0.7-0.9-1.2-1c-0.5-0.2-1-0.2-1.5,0.1c-0.2,0.1-0.2,0.2-0.4,0.2c0,0-0.1,0.1-0.1,0.1c0,0-0.1,0-0.1,0.1c0,0,0,0,0,0
		c-0.3,0.3-0.5,0.7-0.6,1.1c0,0.2,0,0.4,0,0.6c0,0.1,0,0.1,0,0.2c0,0.2,0.1,0.3,0.2,0.5c0.2,0.4,0.5,0.7,0.9,0.9
		c0.3,0.1,0.6,0.2,0.9,0.2c0,0,0,0,0,0c0.3,0,0.6-0.1,0.9-0.2c0.1-0.1,0.2-0.2,0.3-0.2S113.1,148,113.2,147.9
		C113.2,147.9,113.2,147.9,113.2,147.9z"/>
	<path id="XMLID_1122_" fill="#1B2B54" d="M58,176.6c1.5-0.7,2.9-1.5,4.3-2.2c1-0.5,1.4-1.7,0.9-2.8c-0.3-0.6-0.9-1-1.5-1.1
		c-0.4-0.1-0.8,0-1.2,0.2c-6.6,3.3-14,7.2-21.6,11.8H47C50.8,180.4,54.5,178.4,58,176.6z"/>
	<path id="XMLID_1123_" fill="#1B2B54" d="M119.5,173.6c-0.2,0-0.3,0-0.5,0c-1.1,0.1-1.9,1-1.9,2c0,0.2,0.1,0.5,0.2,0.6
		c0.1,0.2,0.2,0.5,0.4,0.7c0.3,0.3,0.7,0.6,1.2,0.6c1.5,0.2,3.1,0.6,4.5,1.1c3.2,0.9,6.3,2.2,9.4,3.8h7.8
		c-6.4-4.4-13.3-7.4-20.4-8.8c0,0,0,0-0.1,0C119.9,173.6,119.6,173.6,119.5,173.6C119.5,173.6,119.5,173.6,119.5,173.6z"/>
</g>
</svg>
