<?xml version="1.0" encoding="utf-8"?>
<!-- Generator: Adobe Illustrator 19.0.0, SVG Export Plug-In . SVG Version: 6.00 Build 0)  -->
<svg version="1.2" baseProfile="tiny" id="Layer_1" xmlns="http://www.w3.org/2000/svg" xmlns:xlink="http://www.w3.org/1999/xlink"
	 x="0px" y="0px" viewBox="0 0 182.6 182.6" xml:space="preserve">
<g id="XMLID_288_">
	<path id="XMLID_289_" fill="none" d="M35.5,153.4c-0.1-0.6,0-1.1,0.1-1.5l0,0C35.5,152.3,35.5,152.8,35.5,153.4z"/>
	<path id="XMLID_440_" fill="none" d="M46.5,150.1c-1.4,0.9-2.8,1.9-3.4,3.4C43.7,152.1,45.1,151,46.5,150.1
		c2.6-1.6,6.3-2.1,8.6-4.4c0.7-0.7,1.3-1.7,1.6-2.8c-0.3,1.1-0.9,2.1-1.6,2.8C52.9,148,49.1,148.5,46.5,150.1z"/>
	<path id="XMLID_441_" fill="#FFFFFF" d="M82.6,128.7c-0.4,0-0.8,0.1-1.1,0.4c-0.9,1-0.9,3.7,0,5c0.3,0.5,0.9,0.9,1.6,1.2
		c2.5,1.1,5.1,1.8,7.6,1.9c0.4,0,0.9,0,1.4,0.1l0.8,0h0c2.9,0.1,6.3-0.5,9.3-1.9c1.5-0.7,2.4-2.3,2.3-4.1c-0.1-1.1-0.4-2.1-0.7-2.4
		c-0.3-0.3-1.2-0.3-2.1,0c-0.6,0.2-1.2,0.6-1.8,1.1c-0.8,0.5-1.7,1.1-2.8,1.5c-3.3,1.2-6.9,1.1-9.6-0.3c-0.6-0.3-1.2-0.7-1.8-1.1
		c-0.7-0.5-1.4-0.9-2-1.2C83.6,128.9,83.1,128.7,82.6,128.7z"/>
	<path id="XMLID_442_" fill="#192853" d="M140.9,162c-4.3-0.9-2.4-7.6,2.1-6.9c0.1,0,0.2,0,0.3,0.1c1.2-2.9,2.5-5.8,4.1-8.6
		c-2.6-0.9-5.6-1.9-8.5-2.9c-3.2-1.1-6.4-2.2-9.3-3.2c-0.4,1.7-0.8,3.2-1.2,4.6c-2.1,6.9-5.5,12.4-9.8,16.4c0,0-0.1,0.1-0.1,0.1
		c2.5,6.1,4.8,12.5,6.8,18.8c0.2,0.7,0.4,1.4,0.7,2.2H137c0.6-6,1.5-12,3.2-18C140.4,163.7,140.7,162.8,140.9,162z"/>
	<path id="XMLID_443_" fill="#FDD677" d="M133.9,106.2c0.9-4.5,1.6-9,2-13.5c-0.2,0.3-0.3,0.7-0.4,1c-1.9,4.3-3.2,7.4-8.3,9.9
		c-0.8,0.4-1.7,0.8-2.7,1.1c2.7-0.5,5.6,0.1,7.4,2.4c0.4,0.5,0.7,1.1,1,1.8c0.1,0,0.2-0.1,0.2-0.2
		C133.5,108.2,133.7,107.2,133.9,106.2z"/>
	<path id="XMLID_444_" fill="#FDD677" d="M51.3,93.7c-0.2-0.4-0.4-0.8-0.6-1.3c-0.1-0.3-0.3-0.7-0.4-1c0.4,5,1.2,9.9,2.2,14.8
		c0.2,1,0.4,2,0.9,2.5c0.1,0.1,0.2,0.2,0.3,0.2c0.3-0.8,0.7-1.5,1.2-2.1c1.6-1.9,4.1-2.7,6.6-2.3c-0.7-0.2-1.3-0.5-1.9-0.8
		C54.5,101.1,53.1,98,51.3,93.7z"/>
	<path id="XMLID_445_" fill="#FDD677" d="M105.4,103.5c-2-0.9-3.5-2.1-4.8-3.5l-1,12.6c0,0.3-0.1,0.6-0.3,0.9
		c-0.2,0.9-1.1,1.6-2.1,1.5c-1.4-0.1-2.8,0-4.2,0.1c-1.1,0.1-2.2,0.1-3.4,0.1c-0.4,0-0.9,0-1.3,0c-0.8,0-1.4-0.5-1.7-1.1
		c-0.3-0.4-0.5-0.8-0.5-1.3c0-4.6-0.1-8.5-0.3-12.4c-1.2,1.2-2.6,2.3-4.4,3.1C78,105,74,105.8,70,105.8c-2.1,0-4.2-0.2-6.2-0.7
		c0.2,0.1,0.4,0.2,0.7,0.3c2.8,1.6,4.4,4.4,5.6,6.9l0.3,0.6c1,2,2,4,3.5,5.2c1.7,1.5,4.2,1.7,7.3,0.7c0.8-0.2,1.5-0.7,2.4-1.1
		c1.2-0.7,2.7-1.5,4.3-1.7c1.4-0.2,2.6,0.1,3.7,0.3c0.4,0.1,0.8,0.2,1.2,0.2c0,0,0.1,0,0.1,0c0.1,0,0.1,0,0.2,0
		c0.6,0,1.1-0.1,1.8-0.2c0.5-0.1,1.1-0.2,1.8-0.2c2.3-0.1,4.2,1.1,5.6,2.1c0.7,0.5,1.3,0.9,1.9,1.1c1.4,0.6,4.1,1.3,6.6-0.3
		c2-1.3,3.4-3.7,4.6-5.8c1.4-2.4,3.1-5.5,6-7.3c0.5-0.3,1.1-0.6,1.7-0.8c-2,0.5-4.1,0.7-6.3,0.7C112.8,105.8,108.7,105,105.4,103.5z
		"/>
	<path id="XMLID_446_" fill="#B14F51" d="M134.4,53.8c-0.3-2.3-1-3.7-1.9-4c-0.6-0.2-1.4,0-2.1,0.6c-0.1,0.1-0.2,0.2-0.3,0.3
		c-0.6,0.6-1,1.4-1.5,2.6c-2.3,5.8-1.5,12.7,1.9,18.1c1.4,0.2,2.9,0.4,4.3,0.6C135.3,64.8,135.2,59,134.4,53.8z"/>
	<path id="XMLID_447_" fill="#00AC8F" d="M99.4,83.5c1.1,1.4,1.8,3.2,2.1,5.7c0.1,0.6,0.1,1.3,0.2,1.9l0,0.4
		c0.1,0.9,0.2,1.7,0.3,2.5c0.6,3,3.2,4.9,5.2,5.8c5.2,2.5,13.4,2.6,18.1,0.2c3.7-1.9,4.6-3.9,6.4-7.9c0.2-0.4,0.4-0.8,0.6-1.3
		c1.3-2.9,1.5-6.1,1.7-10.2l0-0.6c0.1-1.3,0.1-2.6,0.2-4c-0.9-0.1-1.9-0.3-2.8-0.4c1.3,0.7,2.1,2.2,1.9,3.7c-0.3,2-2.1,3.5-4.2,3.2
		c-23.9-3.1-48-2.8-71.8,0.9c-0.2,0-0.4,0-0.6,0c-1.8,0-3.4-1.3-3.7-3.1c-0.1-0.6,0-1.1,0.1-1.7c0-0.8,0.5-1.6,1.3-1.9
		c0.5-0.3,1-0.6,1.6-0.7c19.8-3.1,39.9-3.9,59.8-2.4c-8.4-0.8-15.6-1-22.6-0.8l-0.6,0c-10-0.3-21,0.4-34.7,2.2
		c-1.9,0.3-3.8,0.5-5.7,0.8c0.1,1.4,0.2,2.7,0.2,4l0,0.7c0.2,4.1,0.4,7.3,1.7,10.2c0.2,0.4,0.4,0.9,0.6,1.3c1.7,4,2.6,6,6.4,7.9
		c4.8,2.4,12.9,2.3,18.1-0.2c2-1,4.6-2.8,5.2-5.8c0.2-0.9,0.2-1.8,0.3-2.7l0-0.5c0-0.6,0.1-1.1,0.2-1.6c0.2-1.5,0.6-3.8,2.1-5.6
		c1.5-1.9,3.8-2.9,6-2.6C95.5,80.6,97.9,81.6,99.4,83.5z"/>
	<path id="XMLID_450_" fill="#B14F51" d="M115,158.8c0.2-0.1,0.4-0.1,0.6-0.2c0.1-0.1,0.2-0.1,0.2-0.2c3.8-3.4,6.7-8.3,8.7-14.5
		c0.6-1.9,1.1-4,1.6-6.4c0.7-3.6,1.2-7.3,1.6-11l1.4-11.9c0.1-1.2,0.3-2.5,0.1-3.5c-0.1-0.6-0.3-1.1-0.6-1.4c-1-1.3-3.5-1.2-5-0.2
		c-2,1.3-3.4,3.7-4.6,5.9c-1.4,2.5-3.1,5.5-6,7.3c-3,1.8-6.7,2.1-10.3,0.6c-1-0.4-1.8-1-2.6-1.5c-1.1-0.8-2.1-1.4-3-1.4
		c-0.4,0-0.9,0.1-1.3,0.2c-0.8,0.1-1.7,0.3-2.7,0.2c-0.2,0-0.5,0-0.7-0.1c-0.5-0.1-1-0.2-1.4-0.3c-0.8-0.2-1.5-0.4-2.1-0.3
		c-1,0.2-2,0.7-3,1.3c-1,0.5-2,1.1-3.1,1.4c-4.5,1.4-8.4,0.9-11.2-1.5c-2.2-1.8-3.4-4.3-4.6-6.5l-0.3-0.6c-1-2-2.2-4.1-4-5.2
		c-0.6-0.3-1.3-0.6-2.1-0.6c-0.9,0-1.7,0.3-2.3,1c-0.3,0.4-0.6,0.9-0.7,1.6l0,0c-0.3,1.3-0.1,3,0,4.4l0,0.2
		c0.7,7.4,1.4,14.7,2.9,21.7c0.1,0.3,0.1,0.7,0.2,1c1.7,7.9,4,13.2,7.4,17.2c0.2,0.2,0.3,0.3,0.4,0.5c6,6.6,15.1,8.6,21.6,9.2
		c9.6,0.8,18-1.1,24-5.4C114.1,159.4,114.5,159,115,158.8z M78.3,126.5c1.6-1.9,4.3-2.4,7-1.3c1,0.4,1.9,1,2.7,1.5
		c0.5,0.3,1,0.6,1.4,0.9c1.6,0.9,4,0.9,6.2,0.1c0.6-0.2,1.3-0.6,1.9-1.1c0.7-0.5,1.6-1,2.5-1.4c2.1-0.9,5-0.9,6.7,1
		c1.4,1.5,1.7,4,1.8,4.9c0.2,3.6-1.7,6.8-4.8,8.1c-3.2,1.4-6.9,2.2-10.3,2.2c-0.3,0-0.6,0-0.9,0l-0.9,0c-0.5,0-0.9,0-1.3-0.1
		c-3.1-0.1-6.2-0.9-9.2-2.3c-1.4-0.6-2.5-1.5-3.3-2.6C76.4,134,76.1,129.2,78.3,126.5z"/>
	<path id="XMLID_451_" fill="#B14F51" d="M129,37.7c-0.7-2.4-2.6-4.6-5.3-6.1c-2.8-1.5-6-2.3-8.8-2.8c-15.5-3.1-29.4-2.8-41.3,0.9
		c-4.9,1.5-8.4,3.4-10.8,5.8c-3,2.9-4.4,6.8-3.7,10.2c0,0.1,0,0.1,0,0.2c0.1,0.1,0.2,0.3,0.3,0.4c16.2,3.2,32.9,6.5,49.7,6.1
		c4.8-0.1,10.2-0.6,14.5-3.2c0.7-0.4,1.4-1,2-1.6C127.9,45.2,130.1,41.5,129,37.7z"/>
	<path id="XMLID_454_" fill="#FDD677" d="M93,68.8l0.5,0c9.4-0.3,19.5,0.3,32.1,1.8c-2.5-5.4-3-11.7-1.3-17.3
		c-4.8,2.4-10.3,2.9-15.2,3.1c-1.1,0-2.1,0-3.2,0c-15.4,0-30.5-2.8-45.3-5.7c0,0.6,0,1.2,0,1.8L60,70.7C72.8,69.1,83.3,68.5,93,68.8
		z M104.6,60.4c0.2-1.1,1.2-1.9,2.3-1.7l11.4,1.7c1.1,0.2,1.9,1.2,1.7,2.3c-0.2,1-1,1.8-2,1.8c-0.1,0-0.2,0-0.3,0l-11.4-1.7
		C105.2,62.6,104.4,61.5,104.6,60.4z M77.1,62.5c-4.2,0-8.3,0.7-12.2,1.9c-0.2,0.1-0.4,0.1-0.6,0.1c-0.9,0-1.7-0.6-2-1.4
		c-0.3-1.1,0.3-2.2,1.3-2.6c4.3-1.4,8.9-2.1,13.4-2.1h0c1.1,0,2.1,0.9,2.1,2.1C79.2,61.6,78.3,62.5,77.1,62.5z"/>
	<path id="XMLID_456_" fill="#FDD677" d="M115,164.2c-5.6,3.6-12.8,5.5-20.8,5.5c-1.5,0-3.1-0.1-4.7-0.2c-6.1-0.5-14.1-2.3-20.6-7.2
		c0.8,5.7,1.5,11.1,2.2,16.5c0,0,0.1,0.1,0.1,0.1c1,1.2,2,2.4,3,3.6h44.1c1-0.8,1.8-1.5,2.5-2.1C119.2,174.9,117.2,169.5,115,164.2z
		"/>
	<path id="XMLID_457_" fill="#FFD577" d="M89.5,94.2c0.3,5.7,0.6,10.6,0.7,16.9c0.8,0,1.7-0.1,2.6-0.1c0.9-0.1,1.9-0.1,2.9-0.1
		l1.5-19.4c0-0.3,0.1-0.7,0.3-0.9c0-0.3,0-0.6-0.1-0.9c-0.2-1.6-0.6-2.8-1.3-3.6c-0.6-0.7-1.5-1.1-2.2-1.1c-0.2,0-0.4,0.1-0.6,0.1
		c-0.2,0-0.4,0-0.6-0.1c-0.7-0.1-1.6,0.4-2.2,1.1c-0.6,0.8-1,1.9-1.3,3.6c0,0.3-0.1,0.5-0.1,0.8c0,0.1,0,0.2,0.1,0.3L89.5,94.2z"/>
	<path id="XMLID_458_" fill="#192853" d="M64.2,157.6c-4.2-5.2-6.2-11.5-7.4-16.8l-0.1,0c0.1,0.6,0.1,1.3-0.1,2
		c-0.3,1.1-0.9,2.1-1.6,2.8c-2.2,2.3-6,2.8-8.6,4.4c-1.4,0.9-2.8,1.9-3.4,3.4c-0.2,0.5-0.4,1.1-0.4,1.7c-0.1,2.4,1,5,1.6,7.3
		c0.5,1.7,1.1,3.4,1.7,5.1c1.8,5,3.8,9.9,5.9,14.7c0,0.1,0.1,0.2,0.1,0.2h15.5c-0.1-0.7-0.2-1.4-0.2-2.1
		C66.4,173.1,65.3,165.8,64.2,157.6z"/>
	<path id="XMLID_459_" fill="#192853" d="M35.7,151.9l-1,0.5c0.4,0.9,0.9,1.8,1.3,2.7c-0.2-0.6-0.3-1.2-0.4-1.7
		C35.5,152.8,35.5,152.3,35.7,151.9z"/>
	<path id="XMLID_460_" fill="#192853" d="M38.7,160.9c0.1,0.9-0.3,1.8-1.1,2.2c0,0,0,0,0,0c3.1,6.4,6.1,12.9,8.9,19.5h2.8
		c-2.9-7.1-6.1-14.1-10-20.7C39.1,161.6,38.9,161.3,38.7,160.9z"/>
	<path id="XMLID_461_" fill="#192853" d="M37,163.3c0.8,1.8,0.3,4.2-2.2,4.8c0,0-0.1,0-0.1,0l1.7,7c1.9-0.3,4.2,0.9,4.4,3.4
		c0.1,1.3,0.2,2.7,0.2,4.1h5.4c-2.8-6.6-5.8-13-8.9-19.5C37.4,163.2,37.2,163.2,37,163.3C37,163.3,37,163.3,37,163.3z"/>
	<path id="XMLID_462_" fill="#B14F51" d="M56.6,52.3c0-1.2,0.1-2.4-0.3-3.2c-0.1-0.2-0.1-0.3-0.2-0.4c-0.1-0.2-0.3-0.4-0.5-0.5
		c-0.7-0.5-1.7-0.6-2.5-0.4c-1.2,0.3-2.3,1.3-3,2.7c-0.7,1.2-1.1,2.7-1.3,4.9c-0.5,4.4-0.1,9,1,13.3c0.2,0.9,0.5,1.7,1,2.3
		c0.3,0.4,0.7,0.6,1,0.6c0.3,0,0.7,0,1,0.1c1-0.1,2-0.3,3.1-0.4L56.6,52.3z"/>
	<path id="XMLID_463_" fill="#A1D9D4" d="M42.7,155.2c0-0.6,0.2-1.2,0.4-1.7c0.6-1.5,2-2.5,3.4-3.4c2.6-1.6,6.3-2.1,8.6-4.4
		c0.7-0.7,1.3-1.7,1.6-2.8c0.2-0.7,0.2-1.4,0.1-2l-0.1,0c-0.2,0.1-0.4,0.2-0.6,0.3l-0.2,0.1l-20.2,10.5c-0.2,0.4-0.2,0.9-0.1,1.5
		c0.1,0.5,0.2,1.1,0.4,1.7c0.9,1.7,1.7,3.5,2.6,5.2c0.1,0.2,0.1,0.4,0.2,0.6c0.2,0.4,0.4,0.7,0.6,1c3.9,6.6,7.2,13.5,10,20.7H52
		c0-0.1-0.1-0.2-0.1-0.2c-2.1-4.9-4.1-9.7-5.9-14.7c-0.6-1.7-1.2-3.4-1.7-5.1C43.7,160.3,42.6,157.6,42.7,155.2z"/>
	<path id="XMLID_464_" fill="#192853" d="M52,79.8c0.5,1,0,2.3-1,2.7c-0.7,0.3-1.1,1.8-1,4c0.1,1.7,0.2,3.3,0.3,4.9
		c0.1,0.3,0.2,0.7,0.4,1c0.2,0.4,0.4,0.9,0.6,1.3c1.9,4.3,3.2,7.4,8.3,9.9c0.6,0.3,1.3,0.6,1.9,0.8c0.8,0.1,1.6,0.3,2.3,0.7
		c2,0.5,4.1,0.7,6.2,0.7c4,0,8-0.8,11.3-2.4c1.8-0.9,3.2-1.9,4.4-3.1c-0.1-1.9-0.2-3.9-0.3-5.9L85.2,91c-0.1-1.1,0.8-2.1,1.9-2.2
		c1-0.1,1.9,0.6,2.1,1.6c0-0.3,0-0.5,0.1-0.8c0.2-1.6,0.6-2.8,1.3-3.6c0.6-0.7,1.4-1.1,2.2-1.1c-0.7-0.2-1.3-0.7-1.5-1.5
		c-0.3-1.1,0.4-2.2,1.5-2.5c0.1,0,0.2,0,0.3-0.1c0.1,0,0.2,0,0.3,0c-2.2-0.3-4.5,0.7-6,2.6c-1.5,1.9-1.9,4.1-2.1,5.6
		c-0.1,0.5-0.1,1-0.2,1.6l0,0.5c-0.1,1-0.2,1.9-0.3,2.7c-0.6,3.1-3.2,4.9-5.2,5.8c-5.2,2.5-13.4,2.6-18.1,0.2
		c-3.7-1.9-4.6-3.9-6.4-7.9c-0.2-0.4-0.4-0.8-0.6-1.3c-1.3-2.9-1.5-6.1-1.7-10.2l0-0.7c-0.1-1.3-0.1-2.6-0.2-4c0,0-0.1,0-0.1,0
		c-0.5,0.1-1,0.1-1.4,0.2c-0.1,0-0.2,0-0.3,0c-0.9,0-1.8-0.7-2-1.6c-0.1-0.1-0.2-0.2-0.3-0.2c0,0.2-0.1,0.4,0,0.6
		c0.1,1.5,0.2,2.9,0.3,4.3c0.2-0.1,0.4-0.3,0.7-0.4C50.3,78.3,51.5,78.8,52,79.8z"/>
	<path id="XMLID_465_" fill="#192853" d="M94,85c0,0-0.1,0-0.2,0c-0.1,0-0.1,0-0.2,0c-0.1,0-0.2,0-0.3,0C93.6,85,93.8,85,94,85z"/>
	<path id="XMLID_466_" fill="#192853" d="M137.6,75c-0.4,0.8-1.2,1.2-2.1,1.1c-0.4-0.1-0.8-0.1-1.2-0.2c-0.1,1.4-0.2,2.7-0.2,4
		l0,0.6c-0.2,4.1-0.4,7.3-1.7,10.2c-0.2,0.4-0.4,0.9-0.6,1.3c-1.7,4-2.6,6-6.4,7.9c-4.8,2.4-12.9,2.3-18.1-0.2c-2-1-4.6-2.8-5.2-5.8
		c-0.2-0.8-0.2-1.6-0.3-2.5l0-0.4c0-0.6-0.1-1.3-0.2-1.9c-0.3-2.4-1-4.2-2.1-5.7c-1.5-1.9-3.8-2.9-6-2.6c-0.1,0-0.2,0-0.3,0
		c-0.1,0-0.2,0-0.3,0.1c-1.1,0.3-1.8,1.4-1.5,2.5c0.2,0.7,0.8,1.3,1.5,1.5c0.2,0.1,0.4,0.1,0.6,0.1c0.1,0,0.2,0,0.3,0
		c0.1,0,0.1,0,0.2,0c0,0,0.1,0,0.2,0c0.7-0.1,1.6,0.3,2.2,1.1c0.7,0.8,1.1,2,1.3,3.6c0,0.3,0.1,0.6,0.1,0.9c0.4-0.6,1.1-1,1.9-1
		c1.1,0.1,2,1.1,1.9,2.2l-0.6,8.2c1.2,1.4,2.8,2.6,4.8,3.5c3.3,1.6,7.3,2.4,11.3,2.4c2.2,0,4.3-0.2,6.3-0.7c0.5-0.2,0.9-0.3,1.4-0.4
		c1-0.3,1.9-0.7,2.7-1.1c5.1-2.6,6.4-5.7,8.3-9.9c0.1-0.3,0.3-0.7,0.4-1c0.2-2.1,0.4-4.1,0.5-6.2c0.1-2.2-0.2-3.6-1-3.9
		c-1-0.5-1.5-1.7-1-2.7c0.5-1,1.7-1.5,2.7-1c0.4,0.2,0.7,0.4,1.1,0.6c0.1-1.5,0.1-2.9,0.3-4.5c0-0.1,0-0.3,0-0.4
		C138.2,74.7,137.9,74.9,137.6,75z"/>
	<path id="XMLID_467_" fill="#192853" d="M92.9,72.9l0.6,0c6.9-0.2,14.2,0,22.6,0.8c4.7,0.4,9.4,0.8,14.1,1.4
		c0.5,0.1,0.9,0.2,1.3,0.4c0.9,0.1,1.9,0.3,2.8,0.4c0.4,0.1,0.8,0.1,1.2,0.2c0.9,0.1,1.7-0.3,2.1-1.1c-0.2,0.1-0.4,0.1-0.6,0.1
		c0,0-0.1,0-0.1,0c-1.1-0.1-2-1-1.9-2.2c0-0.4,0-0.7,0.1-1.1c-1.4-0.2-2.9-0.4-4.3-0.6c0,0,0.1,0.1,0.1,0.1c0.6,1,0.4,2.2-0.6,2.9
		c-1,0.6-2.2,0.4-2.9-0.6c-0.6-1-1.2-2-1.7-3.1c-12.6-1.6-22.6-2.1-32.1-1.8l-0.5,0c-9.6-0.3-20.2,0.3-33,1.9l-0.1,1.5
		c0,1.1-1,2-2.1,2c-1.1,0-2-1-2-2.1l0-0.7c-1,0.1-2,0.3-3.1,0.4c0.7,0.3,1.2,0.9,1.3,1.7c0.1,1.1-0.7,2.1-1.8,2.3
		c-0.2,0-0.3,0-0.5,0c-1.1,0-2.2-0.4-3.1-1.1c0.2,0.9,1.1,1.6,2,1.6c0.1,0,0.2,0,0.3,0c0.5-0.1,0.9-0.1,1.4-0.2c0,0,0.1,0,0.1,0
		c1.9-0.3,3.8-0.6,5.7-0.8C71.9,73.3,82.9,72.6,92.9,72.9z"/>
	<path id="XMLID_468_" fill="#192853" d="M77.1,58.4L77.1,58.4c-4.6,0-9.1,0.7-13.4,2.1c-1.1,0.3-1.7,1.5-1.3,2.6
		c0.3,0.9,1.1,1.4,2,1.4c0.2,0,0.4,0,0.6-0.1c3.9-1.2,8-1.9,12.2-1.9c1.1,0,2.1-0.9,2.1-2.1C79.2,59.3,78.3,58.4,77.1,58.4z"/>
	<path id="XMLID_469_" fill="#192853" d="M106.3,62.7l11.4,1.7c0.1,0,0.2,0,0.3,0c1,0,1.9-0.7,2-1.8c0.2-1.1-0.6-2.2-1.7-2.3
		l-11.4-1.7c-1.1-0.2-2.2,0.6-2.3,1.7C104.4,61.5,105.2,62.6,106.3,62.7z"/>
	<path id="XMLID_470_" fill="#192853" d="M86,112.7c0,0.5,0.2,1,0.5,1.3c-0.2-0.3-0.3-0.7-0.2-1c0.1-1.1,1-2,2.2-1.9
		c0.6,0,1.1,0,1.7,0c0-6.3-0.3-11.2-0.7-16.9l-0.2-3.4c0-0.1,0-0.2-0.1-0.3c-0.2-1-1.1-1.7-2.1-1.6c-1.1,0.1-2,1-1.9,2.2l0.2,3.4
		c0.1,2,0.2,4,0.3,5.9C85.9,104.2,86,108.1,86,112.7z"/>
	<path id="XMLID_471_" fill="#192853" d="M97.6,114.4c-0.1,0-0.1,0-0.2,0c-1.1-0.1-2-1.1-1.9-2.2l0.1-1.4c-1,0-2,0.1-2.9,0.1
		c-0.9,0.1-1.7,0.1-2.6,0.1c-0.6,0-1.1,0-1.7,0c-1.1-0.1-2.1,0.8-2.2,1.9c0,0.4,0.1,0.7,0.2,1c0.3,0.6,1,1.1,1.7,1.1
		c0.4,0,0.9,0,1.3,0c1.2,0,2.3-0.1,3.4-0.1c1.5-0.1,2.8-0.2,4.2-0.1c1,0.1,1.9-0.6,2.1-1.5C99,114,98.3,114.4,97.6,114.4z"/>
	<path id="XMLID_472_" fill="#192853" d="M95.7,110.8l-0.1,1.4c-0.1,1.1,0.8,2.1,1.9,2.2c0.1,0,0.1,0,0.2,0c0.7,0,1.4-0.4,1.7-1
		c0.2-0.3,0.3-0.6,0.3-0.9l1-12.6l0.6-8.2c0.1-1.1-0.8-2.1-1.9-2.2c-0.8-0.1-1.5,0.3-1.9,1c-0.2,0.3-0.3,0.6-0.3,0.9L95.7,110.8z"/>
	<path id="XMLID_473_" fill="#192853" d="M53.3,110.3c0.1-0.5,0.2-1,0.4-1.4c-0.1-0.1-0.2-0.1-0.3-0.2c-0.5-0.5-0.7-1.4-0.9-2.5
		c-1-4.8-1.7-9.8-2.2-14.8c-0.1-1.6-0.3-3.3-0.3-4.9c-0.1-2.2,0.2-3.6,1-4c1-0.5,1.5-1.7,1-2.7c-0.5-1-1.7-1.5-2.7-1
		c-0.2,0.1-0.5,0.2-0.7,0.4c-2,1.3-2.9,3.8-2.7,7.5c0.4,6.8,1.2,13.7,2.6,20.3c0.2,1.2,0.6,3,1.8,4.4c0.7,0.8,1.7,1.4,2.8,1.6
		C53,112.1,53.1,111.2,53.3,110.3z"/>
	<path id="XMLID_474_" fill="#192853" d="M134.4,79.8c-0.5,1,0,2.3,1,2.7c0.7,0.3,1.1,1.8,1,3.9c-0.1,2.1-0.3,4.1-0.5,6.2
		c-0.4,4.5-1.1,9.1-2,13.5c-0.2,1-0.4,1.9-0.9,2.5c-0.1,0.1-0.1,0.1-0.2,0.2c0.2,0.5,0.3,1,0.4,1.5c0.2,0.9,0.2,1.8,0.1,2.7
		c1.1-0.2,2.1-0.8,2.8-1.6c1.1-1.3,1.5-2.9,1.8-4.4c1.4-6.7,2.2-13.5,2.6-20.3c0.2-3.5-0.6-5.9-2.4-7.3c-0.3-0.2-0.7-0.5-1.1-0.6
		C136.1,78.3,134.9,78.8,134.4,79.8z"/>
	<path id="XMLID_477_" fill="#192853" d="M81.4,139.1c2.9,1.4,6.1,2.1,9.2,2.3c0.4,0,0.9,0,1.3,0.1l0.9,0c0.3,0,0.6,0,0.9,0
		c3.3,0,7-0.8,10.3-2.2c3.1-1.4,5-4.6,4.8-8.1c-0.1-1-0.4-3.4-1.8-4.9c-1.7-1.9-4.6-1.8-6.7-1c-1,0.4-1.8,0.9-2.5,1.4
		c-0.7,0.4-1.3,0.9-1.9,1.1c-2.2,0.8-4.6,0.8-6.2-0.1c-0.5-0.3-0.9-0.6-1.4-0.9c-0.8-0.5-1.7-1.1-2.7-1.5c-2.7-1.1-5.3-0.6-7,1.3
		c-2.3,2.7-2,7.5-0.2,10C78.9,137.6,80,138.4,81.4,139.1z M87.6,131.2c2.7,1.4,6.3,1.6,9.6,0.3c1.1-0.4,2-1,2.8-1.5
		c0.6-0.4,1.2-0.8,1.8-1.1c0.9-0.4,1.8-0.3,2.1,0c0.3,0.3,0.6,1.3,0.7,2.4c0.1,1.8-0.8,3.4-2.3,4.1c-3,1.3-6.4,2-9.3,1.9h0l-0.8,0
		c-0.5,0-0.9,0-1.4-0.1c-2.5-0.1-5.1-0.8-7.6-1.9c-0.8-0.4-1.3-0.8-1.6-1.2c-0.9-1.2-0.9-3.9,0-5c0.3-0.3,0.7-0.4,1.1-0.4
		c0.5,0,1,0.2,1.2,0.2c0.7,0.3,1.3,0.7,2,1.2C86.3,130.5,86.9,130.9,87.6,131.2z"/>
	<path id="XMLID_478_" fill="#192853" d="M59.7,137c0.5,1,0.1,2.3-0.9,2.8l-2,1.1c1.2,5.3,3.2,11.6,7.4,16.8c0-0.1,0-0.2,0-0.2
		c-0.2-1.1,0.6-2.2,1.8-2.3c1.1-0.2,2.2,0.6,2.3,1.8c0.3,1.9,0.5,3.7,0.8,5.5c6.5,4.9,14.5,6.6,20.6,7.2c1.6,0.1,3.1,0.2,4.7,0.2
		c8,0,15.2-1.9,20.8-5.5c-0.3-0.8-0.6-1.6-1-2.4c0,0,0-0.1-0.1-0.1l0-0.1c-0.2-0.5-0.2-1.1,0-1.6c-6,4.3-14.4,6.3-24,5.4
		c-6.6-0.6-15.7-2.6-21.6-9.2c-0.1-0.1-0.3-0.3-0.4-0.5c-3.4-4-5.7-9.3-7.4-17.2c-0.1-0.3-0.1-0.6-0.2-1c-1.5-7-2.2-14.3-2.9-21.7
		l0-0.2c-0.1-1.4-0.3-3.1,0-4.4l0,0c0.1-0.7,0.4-1.2,0.7-1.6c0.6-0.7,1.4-1,2.3-1c0.7,0,1.5,0.2,2.1,0.6c1.8,1.1,3,3.2,4,5.2
		l0.3,0.6c1.1,2.2,2.4,4.7,4.6,6.5c2.8,2.4,6.7,2.9,11.2,1.5c1.1-0.4,2.1-0.9,3.1-1.4c1-0.6,2-1.1,3-1.3c0.6-0.1,1.3,0.1,2.1,0.3
		c0.5,0.1,0.9,0.2,1.4,0.3c0.2,0,0.5,0.1,0.7,0.1c1.1,0.1,2-0.1,2.7-0.2c0.5-0.1,0.9-0.2,1.3-0.2c0.9,0,1.9,0.6,3,1.4
		c0.8,0.6,1.7,1.1,2.6,1.5c3.6,1.5,7.3,1.3,10.3-0.6c3-1.8,4.7-4.9,6-7.3c1.2-2.2,2.6-4.6,4.6-5.9c1.5-1,4-1.1,5,0.2
		c0.3,0.4,0.5,0.8,0.6,1.4c0.2,1.1,0.1,2.4-0.1,3.5l-1.4,11.9c-0.4,3.6-0.9,7.4-1.6,11c-0.5,2.4-1,4.5-1.6,6.4
		c-1.9,6.2-4.8,11.1-8.7,14.5c-0.1,0.1-0.2,0.1-0.2,0.2c0.9-0.1,1.8,0.3,2.1,1.1c0.1,0.1,0.1,0.3,0.2,0.4c0.2,0.5,0.4,0.9,0.6,1.4
		c0,0,0.1-0.1,0.1-0.1c4.4-3.9,7.7-9.4,9.8-16.4c0.4-1.4,0.8-3,1.2-4.6c-0.6-0.2-1.2-0.4-1.8-0.6c-1.1-0.4-1.6-1.6-1.3-2.6
		c0.4-1.1,1.6-1.6,2.6-1.3c0.4,0.1,0.8,0.3,1.2,0.4c0.5-3.1,0.9-6.3,1.3-9.4l1.4-11.9c0.1-0.6,0.1-1.3,0.2-2.1c0-0.9,0-1.8-0.1-2.7
		c-0.1-0.5-0.2-1-0.4-1.5c-0.2-0.6-0.6-1.2-1-1.8c-1.8-2.3-4.7-2.9-7.4-2.4c-0.5,0.1-1,0.2-1.4,0.4c-0.6,0.2-1.2,0.5-1.7,0.8
		c-2.9,1.8-4.6,4.9-6,7.3c-1.2,2.1-2.6,4.6-4.6,5.8c-2.5,1.6-5.2,0.8-6.6,0.3c-0.6-0.2-1.2-0.7-1.9-1.1c-1.4-1-3.3-2.2-5.6-2.1
		c-0.7,0-1.3,0.1-1.8,0.2c-0.7,0.1-1.2,0.2-1.8,0.2c-0.1,0-0.1,0-0.2,0c0,0-0.1,0-0.1,0c-0.4-0.1-0.8-0.2-1.2-0.2
		c-1.1-0.3-2.3-0.5-3.7-0.3c-1.7,0.3-3.1,1-4.3,1.7c-0.8,0.5-1.6,0.9-2.4,1.1c-3.1,1-5.6,0.8-7.3-0.7c-1.5-1.3-2.5-3.2-3.5-5.2
		l-0.3-0.6c-1.3-2.5-2.9-5.2-5.6-6.9c-0.2-0.1-0.4-0.2-0.7-0.3c-0.8-0.4-1.5-0.6-2.3-0.7c-2.5-0.3-5,0.5-6.6,2.3
		c-0.5,0.6-0.9,1.3-1.2,2.1c-0.2,0.4-0.3,0.9-0.4,1.4c-0.2,0.9-0.2,1.8-0.2,2.7c0,1,0.1,2,0.2,2.9l0,0.2c0.7,7,1.4,13.8,2.7,20.5
		l1-0.5C57.9,135.6,59.2,136,59.7,137z"/>
	<path id="XMLID_479_" fill="#192853" d="M59.1,46.1c0.1,0,0.2,0,0.3,0.1c-0.1-0.1-0.2-0.3-0.3-0.4C59.1,45.9,59.1,46,59.1,46.1z"/>
	<path id="XMLID_480_" fill="#192853" d="M51.8,75.7c0.2,0,0.3,0,0.5,0c1.1-0.1,2-1.1,1.8-2.3c-0.1-0.8-0.6-1.4-1.3-1.7
		c-0.3-0.1-0.6-0.2-1-0.1c-0.3,0-0.7-0.2-1-0.6c-0.5-0.6-0.7-1.5-1-2.3c-1.2-4.3-1.5-8.9-1-13.3c0.2-2.1,0.6-3.6,1.3-4.9
		c0.7-1.4,1.8-2.4,3-2.7c0.8-0.2,1.7-0.1,2.5,0.4c0.2,0.1,0.4,0.3,0.5,0.5c0.1,0.1,0.1,0.2,0.2,0.4c0.3,0.8,0.3,2,0.3,3.2l-0.7,19
		l0,0.7c0,1.1,0.8,2.1,2,2.1c1.1,0.1,2.1-0.8,2.1-2l0.1-1.5l0.7-18.3c0-0.6,0-1.2,0-1.8c-0.8-0.2-1.7-0.3-2.5-0.5
		c-1-0.2-1.7-1.1-1.7-2.2c-0.7-0.2-1.3-0.8-1.5-1.6c-0.2-0.9-0.3-1.8-0.2-2.8c-0.9-0.1-1.8-0.1-2.7,0.2c-2.3,0.6-4.3,2.4-5.6,4.8
		c-1.2,2.2-1.5,4.6-1.7,6.4c-0.6,4.9-0.2,10,1.1,14.8c0.3,1.3,0.8,2.6,1.7,3.8c0.2,0.3,0.5,0.6,0.8,0.8c0.1,0.1,0.2,0.2,0.3,0.2
		C49.6,75.3,50.7,75.7,51.8,75.7z"/>
	<path id="XMLID_483_" fill="#192853" d="M55,46.4c0.2,0.8,0.8,1.4,1.5,1.6c-0.1,1,0.6,2,1.7,2.2c0.8,0.2,1.7,0.3,2.5,0.5
		c14.7,2.9,29.9,5.7,45.3,5.7c1.1,0,2.1,0,3.2,0c4.8-0.1,10.4-0.6,15.2-3.1c0.2-0.5,0.4-1.1,0.6-1.6c0.7-1.7,1.5-3,2.4-4
		c0.2-0.2,0.4-0.4,0.6-0.5c1.2-1,2.7-1.6,4.2-1.6c1.4-2.9,1.8-6,1-8.9c-0.9-3.4-3.6-6.6-7.3-8.6c-3.3-1.8-6.9-2.7-10.1-3.3
		c-16.2-3.2-30.8-2.9-43.3,1c-5.6,1.7-9.5,3.9-12.5,6.7c-3.2,3.1-5.1,7.2-5.1,11.2C54.7,44.5,54.8,45.5,55,46.4z M125.6,47.4
		c-0.6,0.6-1.3,1.1-2,1.6c-4.3,2.6-9.7,3.1-14.5,3.2c-16.7,0.4-33.5-2.8-49.7-6.1c-0.1,0-0.2,0-0.3-0.1c0-0.1,0-0.2,0-0.3
		c0-0.1,0-0.1,0-0.2c-0.7-3.4,0.8-7.3,3.7-10.2c2.5-2.4,5.9-4.2,10.8-5.8c11.9-3.7,25.8-4,41.3-0.9c2.8,0.6,6.1,1.3,8.8,2.8
		c2.7,1.5,4.7,3.7,5.3,6.1C130.1,41.5,127.9,45.2,125.6,47.4z"/>
	<path id="XMLID_484_" fill="#192853" d="M127.8,47.2c-0.2,0.2-0.4,0.3-0.6,0.5c-1,1-1.7,2.2-2.4,4c-0.2,0.5-0.4,1.1-0.6,1.6
		c-1.7,5.6-1.2,11.9,1.3,17.3c0.5,1.1,1,2.1,1.7,3.1c0.6,0.9,1.9,1.2,2.9,0.6c0.9-0.6,1.2-1.9,0.6-2.9c0,0-0.1-0.1-0.1-0.1
		c-3.5-5.4-4.2-12.3-1.9-18.1c0.5-1.2,1-2,1.5-2.6c0.1-0.1,0.2-0.2,0.3-0.3c0.6-0.6,1.5-0.8,2.1-0.6c0.9,0.3,1.6,1.7,1.9,4
		c0.7,5.3,0.9,11.1,0.5,18.1c0,0.4,0,0.7-0.1,1.1c-0.1,1.1,0.8,2.1,1.9,2.2c0,0,0.1,0,0.1,0c0.2,0,0.4,0,0.6-0.1
		c0.3-0.1,0.6-0.3,0.9-0.6c0.3-0.3,0.5-0.8,0.6-1.3c0.5-7.8,0.3-14.2-0.5-20c-0.2-1.5-0.8-6-4.6-7.3c-0.6-0.2-1.3-0.3-1.9-0.3
		C130.6,45.6,129.1,46.1,127.8,47.2z"/>
	<path id="XMLID_485_" fill="#192853" d="M71.2,178.8c0,0.4,0.1,0.8,0.2,1.2c0.1,0.8,0.2,1.7,0.3,2.6h2.7c-1-1.2-2-2.4-3-3.6
		C71.3,178.9,71.3,178.8,71.2,178.8z"/>
	<path id="XMLID_486_" fill="#192853" d="M120.9,180.4c-0.6,0.6-1.5,1.3-2.5,2.1h3.2c-0.1-0.3-0.2-0.6-0.3-0.9
		C121.2,181.2,121,180.8,120.9,180.4z"/>
	<path id="XMLID_487_" fill="#192853" d="M19.7,164.4c5-1.4,9.5-2.5,13.1-3.2c0.5-0.1,1-0.1,1.5,0c-0.2-0.4-0.4-0.7-0.5-1.1
		c-4.7,1.4-9.4,2.8-14,4.1C19.8,164.2,19.8,164.3,19.7,164.4z"/>
	<path id="XMLID_488_" fill="#192853" d="M37,163.3C37,163.3,37,163.3,37,163.3C37,163.3,37,163.3,37,163.3
		C37,163.3,37,163.3,37,163.3z"/>
	<path id="XMLID_489_" fill="#192853" d="M118.4,161.6c-0.2-0.5-0.4-0.9-0.6-1.4c-0.1-0.1-0.1-0.3-0.2-0.4c-0.4-0.8-1.3-1.3-2.1-1.1
		c-0.2,0-0.4,0.1-0.6,0.2c-0.5,0.2-0.9,0.7-1.1,1.1c-0.2,0.5-0.2,1.1,0,1.6l0,0.1c0,0,0,0.1,0.1,0.1c0.3,0.8,0.6,1.6,1,2.4
		c2.1,5.3,4.1,10.8,5.9,16.3c0.1,0.4,0.3,0.8,0.4,1.2c0.1,0.3,0.2,0.6,0.3,0.9h4.3c-0.2-0.7-0.4-1.4-0.7-2.2
		C123.2,174,121,167.7,118.4,161.6z"/>
	<path id="XMLID_490_" fill="#192853" d="M34.3,161.1c1.2,0.2,2.2,1.1,2.6,2.1c0,0,0,0,0.1,0c0.2,0,0.4-0.1,0.5-0.2h0c0,0,0,0,0,0
		c0.8-0.4,1.3-1.3,1.1-2.2c0-0.2-0.1-0.4-0.2-0.6c-0.8-1.7-1.7-3.5-2.6-5.2c-0.4-0.9-0.9-1.8-1.3-2.7l1-0.5l0,0l20.2-10.5l0.2-0.1
		c0.2-0.1,0.4-0.2,0.6-0.3l0.1,0l0.1,0l2-1.1c1-0.5,1.4-1.8,0.9-2.8c-0.5-1-1.8-1.4-2.8-0.9l-1,0.5l-1.2,0.6
		c-0.2,0.1-0.4,0.2-0.5,0.3l-23.3,12.1c-1,0.5-1.4,1.7-0.9,2.7c1.3,2.5,2.5,5,3.7,7.6C34,160.4,34.1,160.8,34.3,161.1z"/>
	<path id="XMLID_491_" fill="#192853" d="M71.2,178.8c-0.7-5.4-1.4-10.8-2.2-16.5c-0.3-1.8-0.5-3.6-0.8-5.5
		c-0.2-1.1-1.2-1.9-2.3-1.8c-1.1,0.2-1.9,1.2-1.8,2.3c0,0.1,0,0.2,0,0.2c1.2,8.2,2.2,15.5,3.1,22.9c0.1,0.7,0.2,1.4,0.2,2.1h4.1
		c-0.1-0.9-0.2-1.7-0.3-2.6C71.3,179.6,71.3,179.2,71.2,178.8z"/>
	<path id="XMLID_492_" fill="#192853" d="M141.8,162.2c-0.2,0-0.5-0.1-0.7-0.1c-0.1,0-0.1,0-0.2,0c-0.3,0.8-0.5,1.7-0.7,2.6
		c-1.6,6-2.6,12-3.2,18h3.5L141.8,162.2z"/>
	<path id="XMLID_493_" fill="#192853" d="M126.6,137.2c-0.4,1.1,0.2,2.2,1.3,2.6c0.6,0.2,1.2,0.4,1.8,0.6c2.8,1,6.1,2.1,9.3,3.2
		c2.9,1,5.9,2,8.5,2.9c-1.5,2.8-2.9,5.7-4.1,8.6c1.4,0.2,2.8,0.5,4.1,0.8c1.3-3.3,2.9-6.4,4.7-9.5c0.3-0.5,0.4-1.2,0.2-1.7
		c-0.2-0.6-0.7-1-1.2-1.2c-3.2-1.1-7.1-2.5-10.8-3.7c-3.4-1.2-6.9-2.3-9.8-3.4c-0.4-0.1-0.8-0.3-1.2-0.4
		C128.2,135.6,127,136.2,126.6,137.2z"/>
	<path id="XMLID_494_" fill="#FFFFFF" d="M116.1,73.7c-20-1.5-40-0.7-59.8,2.4c-0.6,0.1-1.2,0.4-1.6,0.7c0.1-0.1,0.3-0.1,0.4-0.1
		c24.8-3.5,50-3.5,74.9,0c1.1,0.2,1.9,1.2,1.8,2.3c-0.1,1-1,1.8-2,1.8c-0.1,0-0.2,0-0.3,0c-24.4-3.4-49.2-3.5-73.7,0
		c-1.1,0.2-2.2-0.6-2.3-1.8c0-0.1,0-0.2,0-0.3c-0.2,0.5-0.2,1.1-0.1,1.7c0.3,1.8,1.9,3.1,3.7,3.1c0.2,0,0.4,0,0.6,0
		c23.8-3.7,47.9-4,71.8-0.9c2,0.3,3.9-1.2,4.2-3.2c0.2-1.6-0.6-3-1.9-3.7c-0.4-0.2-0.8-0.4-1.3-0.4
		C125.5,74.5,120.8,74.1,116.1,73.7z"/>
	<path id="XMLID_495_" fill="#192853" d="M55.6,80.8c24.5-3.4,49.3-3.4,73.7,0c0.1,0,0.2,0,0.3,0c1,0,1.9-0.7,2-1.8
		c0.2-1.1-0.6-2.2-1.8-2.3c-24.8-3.5-50-3.5-74.9,0c-0.2,0-0.3,0.1-0.4,0.1c-0.8,0.3-1.3,1-1.3,1.9c0,0.1,0,0.2,0,0.3
		C53.5,80.2,54.5,80.9,55.6,80.8z"/>
	<path id="XMLID_496_" fill="#192853" d="M36.4,175.1l-1.7-7c-7.8,1.6-22,4.7-34.7,10v4.5h33.9c-0.1-1.4-0.2-2.7-0.3-4.1
		C33.5,176.4,34.9,175.3,36.4,175.1z"/>
	<path id="XMLID_497_" fill="#192853" d="M36.4,175.1c-1.6,0.2-2.9,1.4-2.7,3.4c0.1,1.3,0.2,2.7,0.3,4.1h7.1
		c-0.1-1.4-0.1-2.7-0.2-4.1C40.7,175.9,38.4,174.8,36.4,175.1z"/>
	<path id="XMLID_498_" fill="#192853" d="M34.7,168.1C34.7,168.1,34.7,168.1,34.7,168.1c2.6-0.5,3.1-2.9,2.3-4.8c0,0,0,0,0,0
		c-0.5-1-1.4-1.9-2.6-2.1c-0.4-0.1-0.9-0.1-1.5,0c-3.6,0.7-8.1,1.8-13.1,3.2c-6.2,1.8-13,4.1-19.7,6.9v6.8
		C12.7,172.8,26.8,169.7,34.7,168.1z"/>
	<path id="XMLID_499_" fill="#192853" d="M141.8,162.2l-1.3,20.4h38.4C170.4,171.2,156.6,164.7,141.8,162.2z"/>
	<path id="XMLID_500_" fill="#192853" d="M143.3,155.2c-0.1,0-0.2,0-0.3-0.1c-4.5-0.7-6.4,6-2.1,6.9c0.1,0,0.1,0,0.2,0
		c0.2,0,0.5,0.1,0.7,0.1c14.7,2.5,28.6,9,37.1,20.4h3.6v-6.9c-8.6-10.2-21.1-16.7-35.1-19.7C146.1,155.7,144.7,155.4,143.3,155.2z"
		/>
</g>
</svg>
