<?xml version="1.0" encoding="utf-8"?>
<!-- Generator: Adobe Illustrator 19.0.0, SVG Export Plug-In . SVG Version: 6.00 Build 0)  -->
<svg version="1.2" baseProfile="tiny" id="Layer_1" xmlns="http://www.w3.org/2000/svg" xmlns:xlink="http://www.w3.org/1999/xlink"
	 x="0px" y="0px" viewBox="-206 329.3 182.6 182.6" xml:space="preserve">
<g>
	<path id="XMLID_1725_" fill="none" d="M-138.4,367.9c-0.3,0.3-0.8,0.8-1.1,1.1l0,0C-139.2,368.7-138.7,368.2-138.4,367.9z"/>
	<path id="XMLID_1810_" fill="none" d="M-33.1,496.3c0,0.1,0.1,0.2,0.2,0.2l0,0C-32.9,496.6-33,496.5-33.1,496.3z"/>
	<path id="XMLID_1811_" fill="none" d="M-27.7,496.9c-0.3,0.2-0.6,0.6-0.7,0.9c0,0,0,0,0.1,0.1C-28.1,497.4-27.9,497.2-27.7,496.9z"
		/>
	<path id="XMLID_1812_" fill="none" d="M-115,466.4c0-0.2,0-0.3,0-0.4C-115,466-115,466.1-115,466.4L-115,466.4z"/>
	<path id="XMLID_1813_" fill="none" d="M-119.1,471.5c1-0.3,2.1-0.6,3.1-1.1c1.4-0.6,2-1.3,2-2.2c0,0.9-0.6,1.5-2,2.1
		C-117,470.9-118.1,471.2-119.1,471.5c-3.3,0.8-6.9,0.3-10.3-0.2c-4.2-0.8-11.6-1.9-14.6-5.2c-1.3-1.5-1.4-2.8-1-3.5
		c-0.6,0.8-0.4,2.1,1,3.6c3,3.3,10.4,4.5,14.6,5.2C-126.1,472-122.4,472.4-119.1,471.5z"/>
	<path id="XMLID_1814_" fill="none" d="M-149.2,504L-149.2,504c0.3-0.3,0.6-0.8,0.8-1.1C-148.7,503.3-149,503.6-149.2,504
		L-149.2,504z"/>
	<path id="XMLID_1815_" fill="#9C5054" d="M-83.3,438.7c2-0.6,4-0.6,6.2,0.3c0.7,0.3,1.2,0.7,1.8,1c-0.2,0.2-0.3,0.3-0.3,0.6
		c-0.2,0.4-0.3,0.8-0.3,1.1c0-0.3,0.1-0.7,0.3-1.1c0.2-0.2,0.3-0.3,0.3-0.6c9.3-14.8,16.2-36.3,2.2-50.1l0,0
		c-1.4,4.1-3.6,7.8-6.6,11.1c-1.9,2-4.7-1-3-3c5.4-5.8,7.9-13.6,7.2-21.5c-2.2,0.6-4.5,1-6.9,1.5c-0.3,0.1-0.8,0.2-1.1,0.3
		c-2.2,0.6-3.3-2.3-2-3.5c-1.5,1.1-0.3,4.2,1.9,3.6c0.3-0.1,0.8-0.2,1.1-0.3c-0.3,3.2-1.1,6.3-2.3,9.3c-0.9,2.5-5.1,1.4-4-1.1
		c3.3-8.3,3.3-17.2-0.3-25.4c-1.7,1.5-3.3,3.1-5.1,4.5c-0.3,0.7-0.9,1.1-1.5,1.4c-4.7,4.3-9.5,8.7-14.2,12.9c-2.1,1.8-5.1-1.1-3-3
		c4.9-4.4,9.7-8.8,14.6-13.2c0,0,0,0,0.1-0.1c-0.9-5.5-1.7-11-2.5-16.6c-5.6,4.7-11.1,9.4-16.5,14.1c0,0.1-0.1,0.1-0.2,0.2
		c0.2,2.3,0.4,4.6,0.8,6.9c0.3,2.8-3.9,2.8-4.2,0c-0.3-4.5-0.9-9-1.3-13.6c-3.7,5.7-8.2,11.1-12.9,16l0.1-0.1
		c0.3,0.3,0.7,0.8,0.9,1.1c1.7,2.1-1.3,5.1-3,3c-3.6-4.5-7.2-8.9-10.8-13.5c-3.5,11-8.9,29.2,4.5,32.6c6.3,1.5,12.7-0.9,19-1.7
		c5-0.7,9.9-0.3,14.7,0.9C-90.1,398.4-78.6,418.9-83.3,438.7c-0.3,0.8-0.6,1.7-0.8,2.4c0.1,0,0.1,0,0.2-0.1
		C-83.6,440.2-83.5,439.5-83.3,438.7z"/>
	<path id="XMLID_1816_" fill="#9C5054" d="M-119.1,362.1c-1.7,0-3.2-2.1-1.5-3.5c0.2-0.2,0.4-0.3,0.7-0.6v-0.1
		c-0.2,0.2-0.6,0.4-0.8,0.7C-122.5,360-120.9,362.3-119.1,362.1z"/>
	<path id="XMLID_1817_" fill="#9C5054" d="M-75.9,386.6c0.1-1,1.1-1.9,2.2-2c0-0.1,0-0.1,0-0.2C-74.8,384.7-75.9,385.7-75.9,386.6z"
		/>
	<path id="XMLID_1818_" fill="#FCF9F0" d="M-23.6,499.3c0.4,0.4,0.9,0.9,1.3,1.4v-2.3C-22.6,498.8-23.1,499-23.6,499.3
		C-23.5,499.3-23.6,499.3-23.6,499.3z"/>
	<path id="XMLID_1819_" fill="#F9E5B0" d="M-99,510.1l0.1-0.1c-0.4-0.1-0.8-0.4-1-0.9v0.1C-99.7,509.7-99.4,509.9-99,510.1z"/>
	<path id="XMLID_1820_" fill="#F9E5B0" d="M-139.3,445.4c0.2,0,0.3,0,0.6,0C-138.9,445.4-139.2,445.4-139.3,445.4z"/>
	<path id="XMLID_1821_" fill="#F9E5B0" d="M-100.2,508.4c-2.9-6.4-3.9-13.1-2.5-20.1c-3.4,0.8-6.9,1.1-10.4,1.1
		c-8.7,0-18.6-0.3-27.8-2.5c0.7,6.8-0.8,13.6-4.7,19.3c-0.2,0.3-0.3,0.3-0.6,0.6c-0.4,0.3-0.9,0.4-1.3,0.3c0.4,0,1-0.1,1.4-0.3
		c1.1,1.8,2.2,3.4,3.2,5.2h40.2c0.8-1.1,1.7-2.2,2.4-3.3C-100.2,508.5-100.2,508.5-100.2,508.4z"/>
	<path id="XMLID_1824_" fill="#F9E5B0" d="M-152.3,394.5c-6.3,13.3-10.7,27.5-12.9,42c-0.3,2.3-0.7,4.7-0.9,7.2
		c0,3.6,0.3,7.2,0.9,10.6c1,5.6,2.9,11,5.8,15.9c2,3.2,5.2,5.6,7.7,8.5c9.7,5.3,22,5.7,32.6,6.3c11.7,0.7,27.6-0.8,31.5-13.6
		c0.7,0,1.4-0.1,2.1-0.2l0,0c-0.7,0.1-1.3,0.2-2.1,0.2c-2.4,0-4.6-0.9-6.4-2.8c-1.8-2,1.1-5,3-3c0.1,0.2,0.3,0.3,0.4,0.4
		c0-0.3,0.1-0.6,0.2-0.9c1.5-2.1,3.5-2.6,5.5-4.3c1.9-1.5,3.5-3.9,4.5-6.3c1.2-3.2,1.4-6.9-0.8-9.8c-0.7-0.9-1.3-1.4-2.1-1.9
		c-2.9,1.1-5.1,4.1-6.9,6.4c-1.5,2.1-4.4-0.6-3.2-2.6c-0.2-2.4,0.7-4.6,2.2-6.3c0.8-4.6-0.3-9.9-0.9-14.2c-1-6.3-3.7-12.5-8-17.1
		c-4.2-4.5-9.7-7.9-15.7-9.7c-3.2-1-6.4-1.5-9.7-1.9c-0.9-0.1-1.8-0.2-2.6-0.3c-1,0.1-2.1,0.3-3.2,0.6c-6.9,1.3-16,1.7-21.4-3.4
		c-0.6-0.6-1-1.2-1.4-1.9c0,0.1-0.1,0.1-0.1,0.2C-153.3,393.4-152.8,393.9-152.3,394.5L-152.3,394.5z M-128.8,475.7
		c-6.3-0.9-21.5-3.5-20.5-12.8c0.3-3.2,3-5.5,6.1-6c4.6-0.7,7.9,3.3,12.2,4.4c6.2,0.3,20.5-5.6,21.6,4.6
		C-108.3,476.1-122.3,476.7-128.8,475.7z M-149.2,421.7c0-3.1,3.9-4.9,6.3-3s1.1,5.7-1.5,6.5c-2.1,0.7-4-0.8-4.5-2.6
		C-149.1,422.4-149.2,422.1-149.2,421.7z M-105,434.2c-0.3,0.2-0.8,0.3-1.1,0.3c-0.2,0.1-0.3,0.2-0.6,0.3c-0.4,0.2-1.2,0.1-1.5-0.2
		c-0.4-0.3-0.8-0.7-1-1c-0.8-0.9-1-2.4-0.3-3.4c0.1-0.3,0.3-0.4,0.6-0.7c0.6-0.7,1.3-1,2.2-1C-103.9,428.7-102.6,432.7-105,434.2z
		 M-120,413.7c8.2-4.5,17.9-2,22.6,6.2c1.4,2.3-2.2,4.5-3.6,2.1c-3.5-6.1-10.6-8-16.9-4.6C-120.2,418.5-122.3,414.9-120,413.7z
		 M-130.2,446.7c2.1-6.9,4-13.9,6.1-20.8c0.8-2.6,4.7-1.5,4,1.1c-2.1,6.9-4,14-6.1,20.9c-0.1,0.4-0.3,0.9-0.3,1.3
		c-0.4,1.4-1.8,1.8-2.9,1.3c1.1,0.6,2.6,0.3,3.1-1.2c0.1-0.4,0.3-0.9,0.3-1.3c0.8,1.3-0.3,3.5-2.4,3.3c-3.9-0.7-7.5-1.2-11.4-1.9
		c-1.9-0.3-1.9-2.4-0.9-3.4c0.1-0.2,0.3-0.3,0.6-0.4c-0.2,0.1-0.3,0.2-0.6,0.3c0.9-8.2,1.9-16.1,2.8-24.3c0.3-2.6,4.5-2.8,4.2,0
		c-0.9,8-1.9,16-2.8,24c-0.8-0.1-1.5-0.3-2.3-0.3c0.9,0.1,1.5,0.3,2.4,0.4C-134.3,446.2-132.3,446.5-130.2,446.7
		C-130.2,446.8-130.2,446.8-130.2,446.7z M-132.1,408.8c1.9,2-1.1,5-3,3c-4.7-4.7-11.9-5.4-17.5-1.7c-2.2,1.5-4.4-2.1-2.1-3.6
		C-147.8,401.8-138.2,402.7-132.1,408.8z"/>
	<path id="XMLID_1830_" fill="#F9E5B0" d="M-106,431.2c-0.1-0.1-0.1-0.1-0.2-0.2C-106.2,431.2-106.1,431.2-106,431.2z"/>
	<path id="XMLID_1831_" fill="#F9E5B0" d="M-84.6,442.5h-0.1c-0.7,0.7-1.7,0.7-2.4,0.3l0,0C-86.5,443.3-85.4,443.2-84.6,442.5z"/>
	<path id="XMLID_1832_" fill="#FCF9F0" d="M-87.2,442.9c-0.1-0.1-0.2-0.1-0.3-0.2C-87.4,442.8-87.3,442.8-87.2,442.9L-87.2,442.9z"
		/>
	<path id="XMLID_1833_" fill="#FCF9F0" d="M-88.2,441.7v-0.1c0-0.3,0-0.7,0.1-1c4-12.2,1.2-26-8.2-34.9c-8.9-8.5-19.8-9.9-31.3-8.3
		c0.9,0.1,1.8,0.2,2.6,0.3c3.3,0.3,6.5,0.9,9.7,1.9c6,1.8,11.5,5.1,15.7,9.7c4.3,4.6,6.9,10.9,8,17.1c0.7,4.3,1.7,9.6,0.9,14.2
		c-1.7,1.7-2.4,3.9-2.2,6.3c0.1-0.1,0.1-0.2,0.2-0.3C-91.5,444.9-90,443.1-88.2,441.7z"/>
	<path id="XMLID_1834_" fill="#FCF9F0" d="M-76.2,453.1c1.3-4.3,1.1-11-5.2-10.5c-0.6,0.1-1.1,0.2-1.5,0.3c0.8,0.4,1.5,1,2.1,1.9
		c2.1,2.8,2,6.6,0.8,9.8c-0.9,2.4-2.6,4.6-4.5,6.3c-2,1.7-4,2.2-5.5,4.3c-0.1,0.2-0.2,0.6-0.2,0.9
		C-83.6,472.3-77.5,457.5-76.2,453.1z"/>
	<path id="XMLID_1835_" fill="#FCF9F0" d="M-84,441.7c0.1-0.2,0.1-0.4,0.2-0.6c-0.1,0-0.1,0-0.2,0.1
		C-84.1,441.3-84.1,441.4-84,441.7c-0.2,0.3-0.4,0.7-0.7,0.9h0.1C-84.4,442.3-84.3,442-84,441.7z"/>
	<path id="XMLID_1836_" fill="#FCF9F0" d="M-159.3,470.2c-3-4.9-4.9-10.3-5.8-15.9c-0.6-3.4-0.9-6.9-0.9-10.6c-1,10.7-0.2,22,7.7,30
		c2,2,4.3,3.6,6.7,5C-154.2,475.8-157.3,473.4-159.3,470.2z"/>
	<path id="XMLID_1837_" fill="#0BA983" d="M-164.4,510.9L-164.4,510.9c0.2,0.3,0.4,0.7,0.6,1h16c-2.9-4.5-5.6-8.9-8.5-13.5
		c-0.4-0.7-0.9-1.3-1.2-1.9c0,0,0,0,0,0.1c0.4,0.7,0.8,1.2,1.2,1.9C-159.1,502.5-161.8,506.7-164.4,510.9z"/>
	<path id="XMLID_1838_" fill="#0BA983" d="M-164.3,511.9L-164.3,511.9c-0.1-0.2-0.3-0.3-0.6-0.3
		C-164.6,511.6-164.4,511.7-164.3,511.9z"/>
	<path id="XMLID_1839_" fill="#0BA983" d="M-72.5,507.6c0.2,0,0.3,0,0.6,0.1l0,0C-72,507.6-72.2,507.6-72.5,507.6z"/>
	<path id="XMLID_1840_" fill="#0BA983" d="M-90.5,502.2c-0.3-0.1-0.7-0.3-0.9-0.3c-0.3-0.1-0.7-0.3-0.9-0.6c0.2,0.3,0.6,0.6,1,0.7
		C-91.1,502.1-90.6,502.2-90.5,502.2c-2.2,3.3-4.6,6.4-6.9,9.6h20.2c0.9-1.2,1.8-2.4,2.6-3.5c0.4-0.6,0.8-1.1,1.1-1.7h-0.1
		c-0.3,0.6-0.8,1.1-1.1,1.5C-80,506.3-85.2,504.2-90.5,502.2z"/>
	<path id="XMLID_1841_" fill="#0BA983" d="M-96.3,507c0-0.1-0.1-0.1-0.1-0.2c0.9,1.9-1.1,3.5-2.5,3.1L-99,510
		C-97.5,510.8-95.3,509-96.3,507z"/>
	<path id="XMLID_1842_" fill="#0BA983" d="M-36.3,509.6c0,0,0,0.1,0,0.2c0.2,1,0.9,1.5,1.7,2.1h0.2
		C-35.3,511.2-36.1,510.7-36.3,509.6z"/>
	<path id="XMLID_1843_" fill="#0BA983" d="M-28.2,497.8C-28.4,497.8-28.4,497.8-28.2,497.8c-0.4,1,0,2.2,1,2.8
		C-28.1,500-28.7,498.9-28.2,497.8z"/>
	<path id="XMLID_1844_" fill="#0BA983" d="M-31.2,498c-0.4-0.3-0.9-0.8-1.4-1.1c-0.1-0.1-0.1-0.2-0.2-0.2l0,0
		c0.1,0.1,0.2,0.3,0.4,0.4c0.4,0.3,0.9,0.8,1.4,1.1l-0.1,0.1c-8.3,3.9-16.5,7.7-24.8,11.7c-1.3,0.7-2.8,1.3-4.2,1.9h22.2
		c0.1-0.4,0.3-1,0.6-1.4c0.1,0.1,0.1,0.1,0.2,0.1c0.4,0,0.9,0.1,1.2,0.2c-0.3,0.3-0.6,0.7-0.8,1.1h0.1c0.1-0.4,0.3-0.9,0.7-1.1
		c-0.3-0.1-0.9-0.2-1.2-0.2c0,0-0.1-0.1-0.1,0c-0.1,0-0.1-0.2,0-0.3c0-0.1,0.1-0.1,0.2-0.2c0.2-0.3,0.4-0.4,0.8-0.7
		c0-0.1,0-0.1,0-0.2c-0.3,0.2-0.6,0.4-0.8,0.7c0.2-0.3,0.3-0.9,0.4-1.3c0.2-0.2,0.4-0.3,0.7-0.3c0.1-0.1,0.2-0.2,0.2-0.2
		c2.3-1.8,6.2,1,8,2.8c0.1,0,0.2,0.1,0.3,0.2c0.3,0.3,0.7,0.7,1,1h4.2v-5C-24.9,503.7-27.9,500.6-31.2,498z"/>
	<path id="XMLID_1845_" fill="#E4B563" d="M-35.9,508.3c-0.2,0-0.6,0-0.7,0.3c-0.2,0.4-0.3,0.9-0.4,1.3c0.2-0.2,0.4-0.4,0.8-0.7
		C-36.3,508.8-36.1,508.6-35.9,508.3C-36,508.3-36,508.3-35.9,508.3z"/>
	<path id="XMLID_1846_" fill="#E4B563" d="M-37.2,510.5c-0.1,0-0.1,0-0.2-0.1c-0.2,0.4-0.3,1-0.6,1.4h1.2c0.1-0.4,0.3-0.9,0.8-1.1
		C-36.4,510.6-36.7,510.5-37.2,510.5z"/>
	<path id="XMLID_1847_" fill="#E4B563" d="M-36.3,509.8c0-0.1,0-0.1,0-0.2l0,0c0,0,0-0.1,0-0.2c-0.3,0.2-0.6,0.3-0.8,0.7
		c-0.1,0.1-0.2,0.1-0.2,0.2c-0.1,0.1-0.1,0.3,0,0.3c0-0.1,0.1,0,0.1,0c0.3,0,0.9,0.1,1.2,0.2c-0.3,0.3-0.6,0.8-0.7,1.1h2
		C-35.4,511.2-36.1,510.8-36.3,509.8z"/>
	<path id="XMLID_1848_" fill="#E4B563" d="M-27.4,510.9c-0.1-0.1-0.2-0.2-0.3-0.2c-1.9-1.7-5.7-4.5-8-2.8c-0.1,0.1-0.2,0.2-0.2,0.2
		l0,0c-0.2,0.3-0.3,0.6-0.3,0.9c0,0,0,0.1,0,0.2c0,0.1,0,0.1,0,0.2l0,0c0.2,1.1,1,1.7,1.9,2.3h8C-26.7,511.4-27,511.2-27.4,510.9z"
		/>
	<path id="XMLID_1849_" fill="#1B2B54" d="M-120.6,346.4C-120.5,346.4-120.5,346.4-120.6,346.4v-0.2V346.4L-120.6,346.4
		L-120.6,346.4z"/>
	<path id="XMLID_1850_" fill="#1B2B54" d="M-165,510c0.2,0.2,0.3,0.6,0.6,0.9c2.6-4.2,5.4-8.4,7.9-12.5c-0.4-0.6-0.8-1.2-1.2-1.9
		c-0.2-0.3-0.4-0.7-0.7-1c-0.3-0.6-0.3-1.1-0.3-1.5c-3.3,5.1-6.6,10.4-9.9,15.4c-0.2,0.2-0.2,0.4-0.3,0.7c0.6-0.8,1.5-1.1,2.4-0.9
		C-165.8,509.2-165.3,509.5-165,510z"/>
	<path id="XMLID_1851_" fill="#1B2B54" d="M-154.4,493.6c-0.1-0.1-0.1-0.2-0.2-0.3c0,0,0,0.1,0.1,0.1
		C-154.5,493.5-154.4,493.6-154.4,493.6z"/>
	<path id="XMLID_1852_" fill="#1B2B54" d="M-156.8,492.5c-0.2,0-0.4,0.1-0.8,0.3c0.2-0.1,0.3-0.1,0.4-0.2h0.1
		C-156.8,492.5-156.8,492.5-156.8,492.5z"/>
	<path id="XMLID_1853_" fill="#1B2B54" d="M-166.2,511.6c0.6-0.2,1-0.2,1.3-0.1c0.2,0.1,0.4,0.2,0.7,0.3h0.3
		c-0.2-0.3-0.3-0.6-0.6-0.9c0,0,0,0,0-0.1c-0.2-0.2-0.3-0.6-0.6-0.9c-0.4-0.6-0.9-0.9-1.4-0.9c-0.9-0.1-1.8,0.3-2.2,0.9
		c-0.3,0.6-0.4,1.1-0.1,1.8h1.8C-166.7,511.8-166.4,511.7-166.2,511.6z"/>
	<path id="XMLID_1854_" fill="#1B2B54" d="M-147.9,511.9h5c-1.1-1.8-2.2-3.4-3.2-5.2c-0.4,0.3-0.9,0.4-1.4,0.3
		c-1.4,0-2.9-1.5-1.7-3.1l0,0c0.3-0.3,0.4-0.8,0.8-1.1c-1.9-3-3.7-6-5.7-8.9c0-0.1-0.1-0.2-0.2-0.3c-0.1-0.1-0.1-0.2-0.2-0.2
		l-0.1-0.1c-0.1-0.2-0.2-0.3-0.3-0.4c-0.4-0.3-1-0.4-1.5-0.3c-0.1,0-0.2,0-0.3,0.1h-0.1c-0.1,0-0.2,0.1-0.3,0.2
		c-0.4,0.3-0.9,0.7-1,1.2c-0.3,0.4-0.3,1,0.1,1.5c0.2,0.3,0.4,0.7,0.7,1c0.4,0.7,0.8,1.3,1.2,1.9
		C-153.6,502.8-150.7,507.4-147.9,511.9z"/>
	<path id="XMLID_1855_" fill="#1B2B54" d="M-96.4,506.8C-96.4,506.9-96.4,506.9-96.4,506.8c0,0.1,0.1,0.1,0.1,0.2
		c1,2-1.2,3.7-2.8,3.1c-0.3-0.1-0.7-0.4-0.9-0.9v-0.1c0,0,0,0,0-0.1c-0.1-0.1-0.1-0.3-0.2-0.4c-0.8,1.1-1.7,2.2-2.4,3.3h5.2
		c2.3-3.2,4.7-6.4,7.1-9.5c-0.3-0.1-0.7-0.3-0.9-0.3c-0.4-0.1-0.8-0.4-1-0.7c-0.7-0.8-0.7-1.9-0.2-2.6c-0.3,0.1-0.6,0.3-0.8,0.7
		c-1.3,1.8-2.5,3.5-4,5.3C-97,505.3-96.7,506-96.4,506.8z"/>
	<path id="XMLID_1856_" fill="#1B2B54" d="M-92.3,501.3c0.2,0.2,0.6,0.4,0.9,0.6c0.3,0.1,0.7,0.3,0.9,0.3c5.2,2,10.5,4,15.8,6
		c0.4-0.6,0.8-1.1,1.1-1.5c0.1-0.2,0.3-0.4,0.4-0.7c0.3-0.6,1-0.9,1.5-0.9c-0.2-0.2-0.3-0.3-0.7-0.3c-6.1-2.3-12.1-4.5-18.2-6.9
		c-0.9-0.3-1.7,0-2.1,0.6c0,0.1-0.1,0.2-0.1,0.2C-93,499.4-93,500.5-92.3,501.3z"/>
	<path id="XMLID_1857_" fill="#1B2B54" d="M-77.3,511.9h4.1c-0.1-0.1-0.2-0.1-0.3-0.2c-1.8-1.3-0.7-4,1-4c0.2,0,0.4,0,0.6,0.1
		c0.2,0.1,0.4,0.1,0.7,0.3c0.4,0.3,0.9,0.6,1.4,0.8c0.2-0.2,0.3-0.4,0.4-0.7c1.1-1.5-0.4-3.2-2.1-3c-0.8,0-1.3,0.3-1.7,0.9
		c-0.1,0.2-0.3,0.4-0.4,0.6c-0.3,0.6-0.8,1.1-1.1,1.7C-75.5,509.5-76.4,510.7-77.3,511.9z"/>
	<path id="XMLID_1858_" fill="#1B2B54" d="M-149.2,504c-1.1,1.5,0.2,3,1.7,3.1c0.4,0,0.9-0.1,1.3-0.3c0.2-0.2,0.3-0.3,0.6-0.6
		c4-5.7,5.5-12.5,4.7-19.3h-0.1c-1.3-0.3-2.6-0.7-4.1-1.1c0,0.2-0.1,0.3,0,0.6c0.9,5.8-0.3,11.6-3.3,16.5
		C-148.6,503.3-149,503.6-149.2,504L-149.2,504z"/>
	<path id="XMLID_1859_" fill="#1B2B54" d="M-102.8,488.2C-102.8,488.2-102.8,488.3-102.8,488.2c-1.3,6.9-0.3,13.7,2.5,20.2
		c0,0.1,0.1,0.1,0.1,0.2c0.1,0.1,0.1,0.3,0.2,0.4c0,0,0,0,0,0.1c0.2,0.4,0.7,0.8,1,0.9c1.4,0.4,3.4-1.2,2.5-3.1l0,0
		c-0.3-0.8-0.7-1.5-1-2.3v-0.1c-2.1-5.5-2.4-11.2-1-17.1c0.1-0.1,0.1-0.3,0.1-0.4C-99.7,487.5-101.3,487.9-102.8,488.2z"/>
	<path id="XMLID_1860_" fill="#1B2B54" d="M-141,486.9C-140.9,486.9-140.9,486.9-141,486.9c9.2,2.1,19.2,2.5,27.9,2.5
		c3.3,0,6.8-0.3,10.4-1.1l0,0c1.5-0.3,3.1-0.8,4.5-1.3l0,0c7.5-2.8,13.8-7.8,15.4-16.5c-0.8,0.3-1.7,0.7-2.4,0.8
		c-0.8,0.1-1.4,0.2-2.1,0.2c-4,12.8-20,14.1-31.5,13.6c-10.7-0.6-23-1.1-32.6-6.3c-2.4-1.3-4.7-3-6.7-5c-7.9-7.9-8.7-19.3-7.7-30
		c0.2-2.4,0.6-4.9,0.9-7.2c2.2-14.6,6.6-28.7,12.9-42v-0.1c-0.6-0.6-1-1.1-1.4-1.8c-0.3-0.4-0.6-0.9-0.8-1.3c-0.6,0.1-1,0.3-1.4,1
		c-7.4,15.3-12.2,31.6-14.1,48.6c-1.5,13.7-0.3,28.7,11.1,37.8c4,3.2,8.6,5.3,13.6,6.9c0.1,0,0.2,0,0.2,0.1
		C-143.7,486.1-142.4,486.5-141,486.9z"/>
	<path id="XMLID_1861_" fill="#1B2B54" d="M-76,441.7c0-0.3,0.1-0.8,0.3-1.1c0.1-0.2,0.2-0.3,0.3-0.6c-0.6-0.3-1.1-0.8-1.8-1
		c-2.1-0.9-4.2-0.9-6.2-0.3c-0.2,0.8-0.4,1.5-0.7,2.4c-0.1,0.2-0.1,0.4-0.2,0.6c-0.1,0.3-0.3,0.7-0.6,0.9c-0.7,0.7-1.8,0.8-2.5,0.3
		c-0.1-0.1-0.2-0.1-0.3-0.2c-0.3-0.2-0.6-0.6-0.7-1c-1.8,1.4-3.3,3.2-4.6,4.9c-0.1,0.1-0.1,0.2-0.2,0.3c-1.2,2.1,1.5,4.7,3.2,2.6
		c1.9-2.3,4-5.3,6.9-6.4c0.6-0.2,1-0.3,1.5-0.3c6.3-0.6,6.5,6.2,5.2,10.5c-1.3,4.4-7.5,19.2-14.1,12.9c-0.1-0.1-0.3-0.3-0.4-0.4
		c-1.9-2-4.7,1-3,3c1.8,1.9,4,2.8,6.4,2.8c0.7,0,1.4-0.1,2.1-0.2c0.9-0.1,1.7-0.4,2.5-0.9c0.8-0.3,1.5-0.8,2.2-1.3
		c5-3.7,8.3-12.1,9.2-18c0.3-2.6,0.1-5.5-1.1-7.8l-0.1,0.1C-74,444.3-76.1,443.2-76,441.7z"/>
	<path id="XMLID_1862_" fill="#1B2B54" d="M-130.9,397.8c1.1-0.2,2.1-0.3,3.2-0.6c11.5-1.7,22.4-0.3,31.3,8.3
		c9.4,8.9,12.2,22.7,8.2,34.9c-0.1,0.3-0.1,0.7-0.1,1v0.1c0.1,0.4,0.3,0.8,0.7,1c0.1,0.1,0.2,0.1,0.3,0.2c0.8,0.3,1.8,0.3,2.4-0.3
		c0.2-0.2,0.4-0.6,0.6-1c0-0.1,0.1-0.3,0.1-0.4c0.2-0.9,0.4-1.7,0.8-2.5c4.7-19.6-6.8-40.1-26.8-45.4c-4.7-1.2-9.7-1.5-14.7-0.9
		c-6.1,1.1-12.6,3.4-18.7,1.9c-13.5-3.3-8-21.6-4.5-32.6c3.6,4.5,7.2,8.9,10.8,13.5c1.7,2.1,4.6-0.9,3-3c-0.3-0.3-0.7-0.8-0.9-1.1
		l-0.1,0.1c-0.3,0.3-0.8,0.9-1.2,1.2c-2,1.9-5-1.1-3-3l0,0l0,0c0.4-0.4,0.8-0.8,1.1-1.1c0.1-0.1,0.2-0.2,0.2-0.3l0.1-0.1
		c-3.2-3.9-6.3-7.8-9.5-11.8c-1-1.3-3.1-0.4-3.5,0.9c-3,9.7-8.2,23.5-3.9,33.5c0.2,0.3,0.3,0.9,0.6,1.2c0.2,0.4,0.4,0.8,0.7,1.2
		c0.4,0.7,0.9,1.3,1.4,1.9C-146.9,399.4-137.8,399.1-130.9,397.8z"/>
	<path id="XMLID_1863_" fill="#1B2B54" d="M-138.4,367.9c-0.3,0.4-0.8,0.8-1.2,1.2l0,0c-2,1.9,1,4.9,3,3c0.4-0.3,0.9-0.9,1.2-1.2
		c4.9-5,9.3-10.3,12.9-16c0.4,4.5,0.9,9.2,1.3,13.6c0.3,2.8,4.5,2.8,4.2,0c-0.2-2.3-0.4-4.6-0.8-6.9l0,0c-0.4,0.3-0.9,0.6-1.4,0.6
		c-1.8,0.2-3.4-2.1-1.8-3.5c0.3-0.2,0.6-0.4,0.8-0.7c0.7-0.6,1.2-1.1,1.9-1.7c-0.3-2.6-0.6-5.2-0.8-7.8c-0.1-1-0.9-1.8-1.7-2.1l0,0
		h-0.1c0,0,0,0-0.1,0c-0.8-0.2-1.5,0.1-2.1,1c-4,7.4-9,14-14.9,20.1l-0.1,0.1C-138.2,367.7-138.3,367.8-138.4,367.9z"/>
	<path id="XMLID_1864_" fill="#1B2B54" d="M-94.3,365.7c-0.4,0.4-1,0.9-1.5,1.4C-95.2,366.8-94.6,366.4-94.3,365.7z"/>
	<path id="XMLID_1865_" fill="#1B2B54" d="M-119.1,362.1c0.4,0,1-0.1,1.4-0.6l0,0c0.1-0.1,0.2-0.1,0.2-0.2c5.5-4.7,11-9.4,16.5-14.1
		c0.9,5.5,1.7,11,2.5,16.6c1.2-1.1,2.4-2.2,3.5-3.3l0.1-0.1c-0.9-6-1.8-11.8-2.6-17.8c-0.3-1.7-2.4-1.9-3.5-0.9
		c-5.7,4.9-11.4,9.8-17.1,14.7c-0.7,0.6-1.4,1.1-2.1,1.7c-0.2,0.2-0.4,0.3-0.7,0.6C-122.3,360-120.9,362.1-119.1,362.1z"/>
	<path id="XMLID_1866_" fill="#1B2B54" d="M-98.5,363.8L-98.5,363.8c-5,4.4-9.8,8.9-14.7,13.3c-2.1,1.9,0.9,4.7,3,3
		c4.7-4.3,9.5-8.7,14.2-12.9c0.4-0.4,1-0.9,1.5-1.4c1.7-1.5,3.3-3.1,5.1-4.5c3.6,8.2,3.7,17.1,0.3,25.4c-1,2.5,3.1,3.6,4,1.1
		c1.2-3,2.1-6.2,2.3-9.3c-0.3,0.1-0.8,0.2-1.1,0.3c-2.3,0.4-3.4-2.5-1.9-3.6c0.2-0.2,0.6-0.3,0.9-0.4c0.8-0.2,1.7-0.3,2.3-0.7
		c0-5.8-1.7-11.8-4.5-17.1c-0.7-1.2-2.3-1.3-3.3-0.4c-1.5,1.3-3.1,2.6-4.5,4.1l-0.1,0.1C-95.9,361.6-97.3,362.7-98.5,363.8z"/>
	<path id="XMLID_1867_" fill="#1B2B54" d="M-84.7,374.5c-0.3,0.1-0.7,0.2-0.9,0.4c-1.3,1.2-0.2,4.1,2,3.5c0.3-0.1,0.8-0.2,1.1-0.3
		c2.3-0.6,4.6-1,6.9-1.5c0.8,7.9-1.8,15.7-7.2,21.5c-1.8,2,1.1,5,3,3c3.1-3.3,5.3-7.1,6.6-11.1c-0.7-0.7-1.3-1.3-2-1.8
		c-0.6-0.4-0.8-1-0.7-1.5c0-1.1,1-2.1,2.2-2.2c0.4,0,1,0.1,1.4,0.4c0.1,0.1,0.2,0.2,0.3,0.3c0.8-3.9,0.8-7.7,0.1-11.8
		c-0.2-1.1-1.5-1.7-2.6-1.5c-2.6,0.6-5.2,1.2-7.9,1.8h-0.1C-83.2,374.1-83.9,374.3-84.7,374.5z"/>
	<path id="XMLID_1868_" fill="#1B2B54" d="M-75.9,386.6c0,0.6,0.1,1,0.7,1.5c0.8,0.6,1.3,1.2,2,1.8l0,0c14,13.8,7.1,35.2-2.2,50.1
		c-0.1,0.2-0.2,0.3-0.3,0.6c-0.2,0.3-0.3,0.8-0.3,1.1c0,1.5,2,2.6,3.4,1.7l0.1-0.1c0.2-0.1,0.3-0.3,0.4-0.6
		c10.9-16.9,18.2-42.2,0.2-57.2c-0.1-0.1-0.2-0.2-0.3-0.3c-0.4-0.4-1-0.6-1.5-0.4C-74.8,384.8-75.8,385.7-75.9,386.6z"/>
	<path id="XMLID_1869_" fill="#1B2B54" d="M-152.6,410.1c5.6-3.7,12.8-3.1,17.5,1.7c1.9,2,4.9-1,3-3c-6.1-6.1-15.5-7.1-22.6-2.3
		C-157,407.9-154.9,411.6-152.6,410.1z"/>
	<path id="XMLID_1870_" fill="#1B2B54" d="M-117.8,417.3c6.3-3.3,13.3-1.4,16.9,4.6c1.4,2.3,5.1,0.2,3.6-2.1
		c-4.7-8.2-14.4-10.6-22.6-6.2C-122.3,414.9-120.2,418.5-117.8,417.3z"/>
	<path id="XMLID_1873_" fill="#1B2B54" d="M-106.7,428.5c-0.9,0-1.7,0.3-2.2,1c-0.2,0.2-0.4,0.3-0.6,0.7c-0.8,1-0.4,2.5,0.3,3.4
		c0.3,0.3,0.6,0.8,1,1c0.3,0.3,1.1,0.3,1.5,0.2c0.2-0.1,0.3-0.2,0.6-0.3c0.3,0,0.8-0.2,1.1-0.3
		C-102.6,432.7-103.9,428.7-106.7,428.5z M-106,431.2c-0.1,0-0.2-0.1-0.2-0.2C-106.1,431.2-106.1,431.2-106,431.2z"/>
	<path id="XMLID_1874_" fill="#1B2B54" d="M-144.4,425.2c2.8-0.9,4-4.6,1.5-6.5s-6.3-0.1-6.3,3c0,0.3,0.1,0.7,0.3,0.9
		C-148.4,424.6-146.5,425.9-144.4,425.2z"/>
	<path id="XMLID_1875_" fill="#1B2B54" d="M-139.3,445.4c0.2,0,0.3,0,0.6,0c0.8,0.1,1.5,0.3,2.3,0.3c0.9-8,1.9-16,2.8-24
		c0.3-2.8-3.9-2.6-4.2,0c-0.9,8.2-1.9,16.1-2.8,24.3c0.1-0.1,0.3-0.2,0.6-0.3C-139.9,445.5-139.6,445.4-139.3,445.4z"/>
	<path id="XMLID_1876_" fill="#1B2B54" d="M-138.7,445.4c-0.2,0-0.3,0-0.6,0c-0.3,0-0.6,0.1-0.8,0.2c-0.2,0.1-0.4,0.2-0.6,0.4
		c-1,1-1,3.2,0.9,3.4c3.9,0.7,7.5,1.2,11.4,1.9c2.1,0.3,3.2-2,2.4-3.3c-0.1,0.4-0.3,0.9-0.3,1.3c-0.4,1.5-2,1.8-3.1,1.2
		c-0.9-0.3-1.4-1.2-1.1-2.4c0.2-0.4,0.2-0.9,0.3-1.3c-2.1-0.3-4.1-0.7-6.2-1C-137.2,445.6-137.9,445.5-138.7,445.4z"/>
	<path id="XMLID_1877_" fill="#1B2B54" d="M-129.5,450.6c1.1,0.4,2.4,0.1,2.9-1.3c0.1-0.4,0.3-0.9,0.3-1.3c2.1-6.9,4-14,6.1-20.9
		c0.8-2.6-3.3-3.7-4-1.1c-2.1,6.9-4,13.9-6.1,20.8c0,0,0,0,0,0.1c-0.1,0.4-0.2,0.9-0.3,1.3C-130.9,449.4-130.2,450.3-129.5,450.6z"
		/>
	<path id="XMLID_1878_" fill="#FFFFFF" d="M-143.9,466.1c3,3.3,10.4,4.5,14.6,5.2c3.3,0.6,6.9,0.9,10.3,0.1c1-0.3,2.1-0.6,3.1-1.1
		c1.3-0.6,2-1.3,2-2.1c-0.1-0.6-0.3-1.1-0.9-1.8v-0.1l0,0c0-0.2,0-0.3,0-0.4c-0.1-1.2-0.7-1.9-1.8-1.8c-2-0.9-6.2,1-8.4,1.4
		c-2.1,0.3-4.2,0.3-6.3,0h-0.1c-0.1,0-0.3-0.1-0.4-0.1c-1.9-0.3-3.6-1.1-5.3-2.1c-1.2-0.7-2.2-1.5-3.6-1.9c-1.4-0.3-3.2,0.1-3.9,1.1
		C-145.3,463.4-145.2,464.6-143.9,466.1z"/>
	<path id="XMLID_1881_" fill="#1B2B54" d="M-131,461.4c-4.3-1-7.5-5.1-12.2-4.4c-3.1,0.4-5.7,2.8-6.1,6c-1,9.3,14.2,11.8,20.5,12.8
		c6.5,0.9,20.5,0.3,19.4-9.7C-110.5,455.8-124.9,461.8-131,461.4z M-144.9,462.6c0.7-1,2.3-1.4,3.9-1.1c1.4,0.3,2.4,1.2,3.6,1.9
		c1.7,0.9,3.4,1.7,5.3,2.1c0.2,0,0.3,0.1,0.4,0.1h0.1c2.1,0.3,4.2,0.3,6.3,0c2.2-0.3,6.4-2.2,8.4-1.4c1.1-0.1,1.7,0.4,1.8,1.8
		c0,0.1,0,0.3,0,0.4v0.1c0.6,0.7,0.9,1.2,0.9,1.8c0.1,0.9-0.6,1.7-2,2.2c-0.9,0.6-2.1,0.9-3.1,1.1c-3.3,0.9-6.9,0.4-10.3-0.1
		c-4.2-0.8-11.6-1.9-14.6-5.2C-145.3,464.7-145.4,463.4-144.9,462.6z"/>
	<path id="XMLID_1882_" fill="#1B2B54" d="M-73.4,511.7c0.1,0.1,0.2,0.1,0.3,0.2H-60c1.4-0.6,2.9-1.3,4.2-1.9
		c8.3-3.9,16.5-7.8,24.8-11.7l0.1-0.1c-0.4-0.3-0.9-0.8-1.4-1.1c-0.1-0.1-0.3-0.2-0.4-0.4c-0.1-0.1-0.1-0.2-0.2-0.2
		c-0.3-0.6-0.4-1.1-0.3-1.8c-6.2,2.9-12.2,5.7-18.3,8.6c-4.9,2.3-12.8,7.9-18.3,5.5c-0.4-0.3-0.9-0.4-1.3-0.9
		c-0.2-0.1-0.3-0.2-0.6-0.3s-0.4-0.1-0.6-0.1C-74.1,507.6-75.2,510.3-73.4,511.7z"/>
	<path id="XMLID_1883_" fill="#1B2B54" d="M-33.1,496.3c0.1,0.1,0.1,0.1,0.2,0.2c0.1,0.1,0.1,0.2,0.2,0.2c0.4,0.3,0.9,0.8,1.4,1.1
		c3.3,2.6,6.3,5.6,8.9,8.9v-6.2c-0.4-0.4-0.9-1-1.3-1.4c-0.6,0.3-1.2,0.8-1.8,1.1c-0.8,0.4-1.4,0.4-2,0.1c-0.9-0.6-1.4-1.8-1-2.8
		c0.1-0.3,0.3-0.6,0.7-0.9c0.1-0.1,0.1-0.1,0.2-0.2c0.2-0.1,0.4-0.2,0.7-0.4c-1.2-1-2.4-2-3.6-3c-1.3-0.9-2.5-0.1-2.9,1.1
		c0,0.1,0,0.1,0,0.2C-33.5,495.2-33.4,495.9-33.1,496.3z"/>
	<path id="XMLID_1884_" fill="#1B2B54" d="M-164.8,511.4c-0.3-0.1-0.8-0.1-1.3,0.1c-0.3,0.1-0.6,0.2-0.8,0.3h2.8
		C-164.4,511.7-164.6,511.6-164.8,511.4z"/>
	<path id="XMLID_1885_" fill="#1B2B54" d="M-27.7,496.9c-0.3,0.2-0.4,0.6-0.6,0.9c-0.3,1,0.1,2.2,1,2.8c0.6,0.3,1.3,0.4,2-0.1
		c0.6-0.3,1.2-0.8,1.8-1.1c0,0,0,0,0.1,0c0.4-0.3,0.9-0.6,1.3-0.9v-5.2c-1.4,1-3,2-4.5,3c0,0-0.1,0-0.1,0.1
		c-0.2,0.1-0.4,0.2-0.7,0.4C-27.6,496.8-27.6,496.9-27.7,496.9z"/>
</g>
</svg>
