<?xml version="1.0" encoding="utf-8"?>
<!-- Generator: Adobe Illustrator 19.0.0, SVG Export Plug-In . SVG Version: 6.00 Build 0)  -->
<svg version="1.2" baseProfile="tiny" id="Layer_1" xmlns="http://www.w3.org/2000/svg" xmlns:xlink="http://www.w3.org/1999/xlink"
	 x="0px" y="0px" viewBox="0 0 182.6 182.6" xml:space="preserve">
<g id="XMLID_1232_">
	<path id="XMLID_1233_" fill="none" d="M118.7,148.1c-0.1,0.3-0.3,0.6-0.6,0.7c-0.1,0.1-0.1,0.2-0.2,0.3c0,0,0,0,0.1,0
		c0.6-0.2,0.9-0.7,0.9-1.3C118.8,147.9,118.8,148,118.7,148.1C118.7,148.1,118.7,148.1,118.7,148.1z"/>
	<path id="XMLID_1278_" fill="none" d="M113.6,154.7c1,0.1,2.1-0.9,1.4-2c0,0-0.1-0.1-0.1-0.1c-0.1,0.1-0.1,0.1-0.2,0.2
		C115.3,153.7,114.5,154.6,113.6,154.7z"/>
	<path id="XMLID_1279_" fill="none" d="M51.7,143.2C51.7,143.2,51.7,143.1,51.7,143.2C51.6,143.1,51.6,143.1,51.7,143.2
		C51.6,143.2,51.7,143.2,51.7,143.2C51.7,143.2,51.7,143.2,51.7,143.2z"/>
	<path id="XMLID_1280_" fill="none" d="M109.7,174.9c-0.2,0-0.3,0-0.4,0c0.2,0.1,0.4,0.1,0.6,0.1c0.1,0,0.3,0,0.4,0
		c0,0,0.1-0.1,0.1-0.1C110.1,174.8,109.9,174.8,109.7,174.9z"/>
	<path id="XMLID_1281_" fill="none" d="M78.3,158.6c0.1,0,0.1,0,0.2,0.1c0.1,0,0.1-0.1,0.2-0.2c-0.1,0-0.1,0-0.2-0.1
		C78.4,158.5,78.4,158.6,78.3,158.6z"/>
	<path id="XMLID_1282_" fill="none" d="M68.8,155.3c0.1,0,0.1,0.1,0.2,0.1c0,0,0.1-0.1,0.1-0.1c-0.1,0-0.1-0.1-0.2-0.1
		C68.9,155.2,68.8,155.2,68.8,155.3z"/>
	<path id="XMLID_1283_" fill="none" d="M72.2,46.1C72.1,46.1,72.1,46.1,72.2,46.1c-0.1,0-0.1,0-0.1,0C72.1,46.2,72.1,46.2,72.2,46.1
		C72.1,46.2,72.1,46.2,72.2,46.1z"/>
	<path id="XMLID_1284_" fill="none" d="M97.4,19.4c0.9,0,1.8,0.1,2.7,0.2c0,0-0.1,0-0.1,0C99.1,19.5,98.3,19.4,97.4,19.4z"/>
	<path id="XMLID_1285_" fill="none" d="M87,160.6c0.2,0.1,0.4,0.2,0.6,0.2c0,0,0.1,0,0.1,0c0.1,0,0.1,0,0.2,0c0,0,0-0.1-0.1-0.1
		C87.5,160.7,87.2,160.7,87,160.6z"/>
	<path id="XMLID_1286_" fill="#466FB6" d="M144.1,71.7c-0.5,1.8-1.3,3.6-2.2,5.3c-1.4,2.5-3.3,4.4-5.6,5.7c-0.4,0.3-0.8,0.5-1.2,0.7
		c0,0,0.1,0.1,0.1,0.1c0.5-0.2,0.9-0.5,1.3-0.7c5,5.5,5.4,13.2,4.1,20.8C147.1,94.3,148.4,82.2,144.1,71.7z"/>
	<path id="XMLID_1289_" fill="#466FB6" d="M61,92c-0.6,1.1-1.2,2.1-1.5,3.3c2.7,2.4,3.9,2.4,3.6,0c0.5-1.3-0.1-3-0.1-4.4
		c0.1-2.2,0.5-4.5,1.1-6.7c1.3-4.1,3.6-7.9,6.8-10.8c1.7-1.5,3.6-2.8,5.6-3.8c2.1-1.1,4.2-2,5.2-3.8c-0.2-0.5,0.1-1.1,0.5-1.3
		c0.1-0.1,0.1-0.1,0.2-0.1c0.1-0.7,0.1-1.5-0.2-2.3c-1.5-6-6.6-11.5-11.3-15.3c-0.1,0-0.1,0-0.1-0.1c0,0-0.1,0-0.1,0
		c0.1,0,0.1,0.1,0.2,0.1c-15.1,3.7-24.8,17.4-23.4,33.1c3.3-0.8,6.7,0,9.3,1.9c1.2-4.5,2.8-8.8,5-12.9c0.8-1.5,3.2-0.2,2.4,1.4
		c-2.3,4.4-4,8.9-5.1,13.8c1.3,1.7,2.1,3.9,2,6.5C61.2,90.8,61.4,91.4,61,92z M56.3,69.9c-0.6,1.6-3.3,0.9-2.6-0.7
		c2.4-6.5,6.5-11.7,12.2-15.4c1.5-1,2.8,1.4,1.4,2.4C62.1,59.4,58.4,64.1,56.3,69.9z"/>
	<path id="XMLID_1290_" fill="#466FB6" d="M83.8,64.3c-0.1-0.1-0.2-0.1-0.4-0.1C83.6,64.2,83.7,64.3,83.8,64.3
		C83.8,64.4,83.8,64.3,83.8,64.3z"/>
	<path id="XMLID_1291_" fill="#466FB6" d="M72.1,46.2C72.1,46.2,72.1,46.2,72.1,46.2c-0.3,0.3-0.8,0.5-1.2,0.5
		C71.3,46.7,71.8,46.5,72.1,46.2z"/>
	<path id="XMLID_1292_" fill="#466FB6" d="M126.4,38c-0.1-0.1-0.1-0.2-0.2-0.3C126.2,37.8,126.3,37.9,126.4,38z"/>
	<path id="XMLID_1293_" fill="#466FB6" d="M130.1,81.9c5.3-0.4,8.6-4,10.4-8.5C138.4,77.5,134.5,80.9,130.1,81.9z"/>
	<path id="XMLID_1294_" fill="#466FB6" d="M115.2,73.1C115.2,73.1,115.2,73.1,115.2,73.1C115.2,73.1,115.2,73.1,115.2,73.1
		C115.2,73.1,115.2,73.1,115.2,73.1z"/>
	<path id="XMLID_1295_" fill="#466FB6" d="M143,69.5c-0.1-0.2-0.1-0.3-0.1-0.5C142.9,69.2,143,69.3,143,69.5z"/>
	<path id="XMLID_1296_" fill="#466FB6" d="M62,38.6c-0.1,0.1-0.2,0.1-0.3,0.2c0.1,0,0.2,0,0.2,0c0.1-0.1,0.2-0.1,0.3-0.2
		C62.1,38.6,62,38.6,62,38.6z"/>
	<path id="XMLID_1297_" fill="#466FB6" d="M126.2,37.6c0-0.1-0.1-0.2-0.1-0.4l-0.2-2.2c0,0,0,0,0,0l0.2,2.3
		C126.1,37.4,126.1,37.5,126.2,37.6z"/>
	<path id="XMLID_1298_" fill="#466FB6" d="M72.4,45c0-0.2-0.1-0.3-0.1-0.5c5.5,4.2,12,11.2,12.9,18.4c0.1,0,0.2,0,0.3,0.1
		c3.2,1,10.2,3.6,12.3-0.4c1.3-2.4,1.2-5.5,1.1-8c0-1.9,1.5-2.8,3-2.6c-0.5-6.7-2.3-13.5-8.7-17c-1.5-0.8-0.2-3.2,1.4-2.4
		c4.8,2.6,7.7,7.1,9.1,12.4c1.5,5.6,2.1,13.3,0.6,19c-0.6,2.6-2.4,4.5-4.7,5.8c0,0,0,0,0,0c3.6,4.9,10,6.3,15.6,3.4h0
		c-0.1-0.4-0.1-0.7-0.1-1.1c0,0,0,0,0,0c0-0.1,0-0.2,0-0.3c-0.1-0.7-0.1-1.4-0.1-2.1c0-0.2,0.1-0.4,0.1-0.6c0.2-2.1,0.9-4.2,2-6.1
		c0.9-1.5,3.3-0.2,2.4,1.4c-0.5,0.9-0.9,1.9-1.2,2.8c1.2,0.1,2.3,1,2.2,2.6c-0.5,6.5,7,8.8,11.8,5.5c4-2.9,5.4-7.7,5.3-12.5
		c-1.2,3.9-4,7.3-8.1,9.3c-1.5,0.7-3-1.6-1.4-2.4c6.6-3.3,9-10.2,6.2-17c-0.3-0.9,0.3-1.5,1-1.6c-1.6-4.9-3.9-9.6-6.4-14.2l0,0.5
		c0.1,0.5-0.1,0.8-0.4,1c-0.6,0.5-1.6,0.4-2.1-0.2c0.5,0.7,1.5,0.7,2.1,0.3c2.8,7,3.4,15,0.9,23.1c0,0.1-0.1,0.3-0.2,0.4
		c0,0.2-0.1,0.4-0.1,0.6c-0.6,3.5-5.9,2-5.3-1.5c1.2-6.8,0.3-13.5-2.4-19.4c0.5,3.6,0.1,7.2-1.1,10.7c-0.5,1.7-3.2,1-2.6-0.7
		c1.5-3.8,1.6-7.8,0.6-11.8c-0.3-1,0.5-1.6,1.3-1.7c-2.9-4.8-7-8.8-12.1-11.7c0.3,0.8,0.6,1.7,0.7,2.5c0.1,0.5-0.1,0.8-0.3,1.1l0,0
		c4.8,4.5,7.5,10.9,6.1,18c-0.4,1.7-3,1-2.6-0.7c1.7-8.3-3.1-14.8-9.7-18.2c-0.8,1.2-2.3,2-4.3,1.8c-8.6-1.1-17,0.7-23.9,5.4
		c9.3-0.1,18.4,2.6,21,13c0.5,1.7-2.2,2.5-2.6,0.7c-1.9-7.7-8-10.5-14.9-11c0.4-0.4,0.4-1.1,0.1-1.6c0.2,0.5,0.2,1.1-0.1,1.5
		c-0.1,0.2-0.4,0.3-0.6,0.4c-2.6,0.5-4.5,2.9-4.1,5.6C72.2,44.7,72.3,44.8,72.4,45c0,0.4-0.1,0.8-0.3,1.1c0,0,0,0,0.1,0
		C72.4,45.8,72.5,45.4,72.4,45z"/>
	<path id="XMLID_1299_" fill="#466FB6" d="M105.5,29.3C105.5,29.3,105.5,29.3,105.5,29.3c0,0.1,0,0.1,0,0.2
		C105.6,29.4,105.6,29.3,105.5,29.3z"/>
	<path id="XMLID_1300_" fill="#466FB6" d="M100,19.6C100,19.6,100.1,19.6,100,19.6c0.8,0.1,1.4,0.2,2.1,0.3c0,0,0,0,0,0
		C101.4,19.8,100.7,19.6,100,19.6z"/>
	<path id="XMLID_1301_" fill="#466FB6" d="M105.6,29.5c0.1,0.6,0.5,0.9,1,1C106.2,30.4,105.7,30.1,105.6,29.5z"/>
	<path id="XMLID_1302_" fill="#B6E0D8" d="M97.4,30.7c2,0.3,3.5-0.5,4.3-1.8c-3.6-1.8-7.6-2.7-11.6-2.6c-9.5,0.3-17.9,5.1-25.5,10.5
		c-0.9,0.6-1.8,1.2-2.6,1.8c0.1,0,0.2,0,0.2,0c0.8-0.5,1.5-1.1,2.3-1.7c2.9-0.5,5.9-0.8,9-0.8C80.4,31.3,88.8,29.6,97.4,30.7z"/>
	<path id="XMLID_1303_" fill="#B6E0D8" d="M119.6,37.9c0.6-0.1,1.2,0.2,1.4,1c0.2,0.9,0.4,1.7,0.5,2.6c2.6,5.9,3.6,12.6,2.4,19.4
		c-0.6,3.5,4.6,4.9,5.3,1.5c0-0.2,0.1-0.4,0.1-0.6c-0.8,1.1-3,0.4-2.5-1.1c5.7-18.3-5.7-36.7-23.6-40.6c2,1.6,3.5,3.7,4.4,6.1
		C112.6,29.1,116.7,33.1,119.6,37.9z"/>
	<path id="XMLID_1304_" fill="#B6E0D8" d="M102.1,19.9c0.3,0.1,0.7,0.1,1,0.2C102.8,20,102.5,20,102.1,19.9
		C102.1,19.9,102.1,19.9,102.1,19.9z"/>
	<path id="XMLID_1305_" fill="#B6E0D8" d="M115,72.1C115,72.1,115,72.1,115,72.1C115,72.1,115,72.1,115,72.1z"/>
	<path id="XMLID_1306_" fill="#B6E0D8" d="M136.8,51.8c1.5,3.6,1.6,7.4,0.6,10.7c0.1,4.8-1.3,9.6-5.3,12.5c-4.7,3.4-12.2,1-11.8-5.5
		c0.1-1.6-1-2.4-2.2-2.6c-2.1,7.3,2.9,15.3,11.4,15c0.2,0,0.3,0,0.5,0c4.5-1.1,8.3-4.5,10.4-8.5c1.1-2.7,1.7-5.8,1.8-8.6
		c0.7-13.5-4.8-26.6-14.2-36.1l0.7,8c2.5,4.6,4.8,9.3,6.4,14.2C135.8,50.8,136.6,51.1,136.8,51.8z"/>
	<path id="XMLID_1307_" fill="#B6E0D8" d="M115.9,72.8c-0.2,0.1-0.4,0.2-0.7,0.3c0,0,0,0,0,0C115.5,73,115.6,73,115.9,72.8z"/>
	<path id="XMLID_1308_" fill="#B6E0D8" d="M117.3,75.2c1.3-0.7,0.6-2.5-0.6-2.6C117.8,72.7,118.5,74.4,117.3,75.2z"/>
	<path id="XMLID_1309_" fill="#B6E0D8" d="M115,71.7c-0.1-0.9-0.1-1.8,0-2.8c-0.1,0.2-0.1,0.4-0.1,0.6C114.8,70.3,114.9,71,115,71.7
		z"/>
	<path id="XMLID_1310_" fill="#B6E0D8" d="M84.2,64.8c0.2,0.3,0.5,0.6,0.7,0.9c2.6,2.8,7.5,3.1,10.9,2.5c6.2-1.1,6.1-6.9,6.1-11.9
		c0-1.4,0-2.8-0.1-4.2c-1.5-0.2-3,0.7-3,2.6c0.1,2.6,0.2,5.7-1.1,8c-2.1,4-9.1,1.4-12.3,0.4c-0.1,0-0.2,0-0.3-0.1
		c0,0.2,0.1,0.5,0.1,0.7c0,0.7,0,1.5-0.2,2.1c-0.3-0.3-0.5-0.5-0.7-0.9c-0.1-0.2-0.3-0.4-0.5-0.5c0,0,0,0.1,0,0.1
		C84,64.5,84.1,64.6,84.2,64.8z"/>
	<path id="XMLID_1311_" fill="#B6E0D8" d="M97.6,67.8c-0.9,0-1.7,0.8-1.4,1.7c0,0,0.1,0,0.1,0C96,68.6,96.8,67.9,97.6,67.8z"/>
	<path id="XMLID_1314_" fill="#F4D57B" d="M103.4,181.2c-2.7-6.1-3.2-12.6-1.3-18.8c-0.4,0.1-0.8,0.2-1.3,0.3
		c-6.1,1.2-12.5-0.1-18.5-1.5c-11.4-2.7-23.1-7.4-31-16.2c0.1-0.5,0.2-1,0.3-1.6c0,0,0-0.1-0.1-0.1c-0.1,0.5-0.2,1.1-0.4,1.6
		c-2.3,10.1-5.4,20.1-9.3,29.7c-0.3,0.7-0.9,1-1.5,0.9c0,0,0,0,0,0c1,2.2,1.7,4.7,2.3,7.1h62.3c0.1-0.2,0.2-0.5,0.3-0.8
		c0.1-0.2,0.3-0.5,0.4-0.8l-0.3-0.1c-0.1,0.2-0.2,0.5-0.3,0.7C104.6,182,103.8,182,103.4,181.2z M84.8,176.8c-1.6,2.1-3.6,4.3-6.3,5
		c-2.3,0.6-4.6,0.1-6.1-1.7c-1.2-1.3,0.7-3.3,1.9-1.9c2.9,3.4,6.7-1,8.6-3.3C84,173.5,85.9,175.4,84.8,176.8z"/>
	<path id="XMLID_1315_" fill="#F4D57B" d="M87.6,160.8C87.6,160.8,87.5,160.8,87.6,160.8C87.5,160.8,87.6,160.8,87.6,160.8z"/>
	<path id="XMLID_1316_" fill="#F4D57B" d="M77,158.7c0.5,0.3,1.1,0.3,1.5,0c-0.1,0-0.1,0-0.2-0.1C77.9,158.9,77.4,158.9,77,158.7z"
		/>
	<path id="XMLID_1317_" fill="#F4D57B" d="M67.7,155.7c0.5,0.2,1,0,1.3-0.4c-0.1,0-0.1-0.1-0.2-0.1
		C68.5,155.5,68.1,155.7,67.7,155.7z"/>
	<path id="XMLID_1318_" fill="#F4D57B" d="M86.9,120.8c0.4,0.3,0.8,0.5,1.3,0.8C87.8,121.4,87.4,121.1,86.9,120.8z"/>
	<path id="XMLID_1321_" fill="#F4D57B" d="M86.2,156c0-1.7,2.7-1.7,2.7,0v2.6c1.7-0.1,3.3-0.3,4.9-0.6c0-0.7-0.1-1.5-0.1-2.2
		c-0.1-1.7,2.6-1.7,2.7,0c0,0.1,0,0.2,0,0.2c2.7-3.5,6.3-6.5,9.1-9.4c0-0.7,0.5-1.1,1.1-1.1c4.9-4.9,10-9.7,15.2-14.3
		c0.1-0.5,0.3-0.9,0.4-1.5c0-0.3,0-0.5,0-0.7c0.5-3.7,1-7.4,1.5-11.1c0.2-1.5,2.6-1.1,2.6,0.4c0,0.2,0,0.3,0,0.5
		c1-2.7,2.1-5.3,3.2-8c-0.3,0.6-1,0.9-1.8,0.4c-3.8-2.6-7.6-5.4-11.4-8c-1.5-1-0.1-3.4,1.4-2.4c3.8,2.6,7.6,5.4,11.4,8
		c0.6,0.4,0.7,1,0.6,1.5c0.5-1.2,1-2.3,1.4-3.5c0.1-0.3,0.2-0.5,0.4-0.5c0.1-0.1,0.2-0.1,0.3-0.2c0,0,0,0,0-0.1c0,0,0,0,0,0
		c-0.1,0.1-0.2,0.1-0.3,0.2c0.4-4.2,0.6-8.3,0.6-12.5c0-0.1-0.1-0.2-0.1-0.3c-0.5-1.4-0.9-2.9-0.5-2.4c-0.8-1.4-1.6-2.7-2.6-4
		c-0.6-0.7-1-1.5-1.4-2.3c-1.8-0.2-3.6-0.7-5.4-1.6c-3.1-1.6-5.2-4.3-6.3-7.3c-6.7,3.2-14.6,1.2-18.9-5.1c-0.3-0.3-0.5-0.5-0.6-0.9
		c-0.1-0.1-0.1-0.2-0.1-0.4c0,0-0.1,0-0.1,0c0,0.1,0.1,0.2,0.1,0.3c0.3,0.4,0.5,0.6,0.5,0.9c-4.5,1.4-9.9,0.5-13.2-2.5c0,0,0,0,0,0
		c-0.5,0.7-1.2,1.3-2,1.8c-3.8,2.6-7.7,3.9-10.8,7.7c-3.4,4.2-4.9,9.3-4.8,14.6c0.1,3.2,0.5,7.3-3,8.8c-2.1,1-4.4-0.1-5.5-2
		c-1.1-2.1-0.5-4.3,0.2-6.6c0.1-0.1,0.2-0.3,0.2-0.4c0.3-1.3,0.2-2.6,0-3.8c-0.7,0.6-2.3,0.3-2.4-1c-0.8-7.1-8.5-2.5-10.4,0.3
		c-1,1.6-1.6,3.5-2.2,5.3c-1.1,3.6-5.1,14.2,0.6,16.1c1.6,0.5,0.9,3.2-0.7,2.6c-0.3-0.1-0.6-0.2-0.9-0.4c1.3,1.1,3.2,1.4,5.8,0.6
		c1.7-0.5,2.4,2.2,0.7,2.6c-0.7,0.2-1.4,0.3-2,0.4c0,0,0,0,0,0.1c-1.4,4.6-1.4,9.1-0.4,13.4c0,0,0-0.1,0-0.1c0.5-1.7,3.1-1,2.6,0.7
		c-0.3,1-0.5,1.9-0.8,2.9c-0.2,0.4-0.4,0.7-0.6,0.8c0.1,0,0.1,0,0.2,0c0.4,0.9,0.7,1.8,1.1,2.6c0.3-0.3,0.8-0.5,1.3-0.4
		c0.6,0.1,1.1,1,0.9,1.6c-0.2,0.5-0.3,0.8-0.4,1.3c-0.1,0.2-0.2,0.4-0.4,0.5c-0.1,0.1-0.3,0.2-0.5,0.3c0.3-0.1,0.5-0.2,0.7-0.4
		c0.7,1.1,1.4,2.1,2.2,3c1-1.7,2.2-3.2,3.6-4.6c1.3-1.3,3.2,0.7,1.9,1.9c-1.4,1.3-2.5,2.6-3.4,4.3c-0.1,0.2-0.2,0.3-0.4,0.5
		c0,0,0,0,0,0c0.5,0.5,1.1,1.1,1.6,1.6c0,0,0,0,0,0c0.9-0.6,1.9-1.3,2.8-1.9c0.6-0.5,1.5-0.2,1.9,0.5c0.5,0.6,0.2,1.5-0.5,1.9
		c-0.7,0.5-1.5,1-2.2,1.5c1.1,0.9,2.2,1.7,3.2,2.4c0.9-0.8,1.6-1.5,2.4-2.2c0.5-0.5,1.4-0.5,1.9,0c0.5,0.5,0.5,1.5,0,2
		c-0.7,0.6-1.4,1.2-2.1,1.8c-0.2,0.1-0.3,0.3-0.5,0.4c-0.1,0.1-0.1,0.1-0.2,0.1c0.1-0.1,0.3-0.1,0.4-0.2c0.2-0.1,0.3-0.3,0.5-0.4
		c1.1,0.7,2.3,1.3,3.5,1.9c0.4-0.7,1-1.4,1.4-2.1c0.5-0.5,1.3-0.8,1.9-0.5c0.6,0.4,0.9,1.3,0.5,2c-0.5,0.6-0.8,1.3-1.3,1.9
		c-0.2,0.3-0.5,0.6-0.6,0.9c0,0,0,0,0,0c0.1,0,0.1,0.1,0.2,0.1c0,0,0.1-0.1,0.1-0.1c0.2-0.3,0.5-0.6,0.6-0.9c2,0.9,4.2,1.7,6.4,2.4
		c0,0,0,0,0,0c0.3-1,0.5-2.1,0.7-3.1c0.4-1.7,3-1,2.6,0.7c-0.3,1.1-0.5,2.1-0.7,3.2c0,0.2-0.1,0.3-0.1,0.5c-0.1,0.3-0.2,0.5-0.3,0.6
		c0.1,0,0.1,0,0.2,0.1c0.1-0.1,0.2-0.3,0.3-0.6c0-0.2,0.1-0.3,0.1-0.5c0.4,0.1,0.8,0.3,1.3,0.4c1.9,0.4,3.9,1,5.8,1.4v0V156z
		 M90,152.4l-0.3-3.9c-0.1-1.7,2.6-1.7,2.7,0l0.3,3.9C92.8,154.1,90.1,154.1,90,152.4z M93.7,131.4c-0.5-1.7,2.1-2.4,2.6-0.7
		c0.4,1,0.9,1.7,1.6,2.5c1.4,1.2-0.6,3.1-2,2C94.9,134.1,94.2,132.9,93.7,131.4z M97.6,151.5l-1.9-5.4c-0.5-1.6,2.1-2.4,2.6-0.7
		c0.6,1.7,1.3,3.6,1.9,5.4C100.8,152.4,98.1,153.1,97.6,151.5z M100.4,145c-0.9-1.8-1.9-3.6-2.8-5.4c-0.8-1.5,1.5-2.9,2.4-1.4
		l2.8,5.4C103.6,145.2,101.2,146.5,100.4,145z M108,142.2c-0.5,0.5-1.5,0.5-1.9,0c-0.5-0.6-1-1.3-1.5-1.9c-0.5-0.5-0.5-1.4,0-1.9
		c0.5-0.5,1.5-0.5,1.9,0c0.5,0.6,1,1.3,1.5,1.9C108.4,140.8,108.5,141.6,108,142.2z M119.8,108.8c1,0.5,1.6,1.5,1.5,2.7
		c0,0.1,0,0.3,0,0.4c-0.1,1.2-0.9,2.3-2.1,2.5c-1.3,0.3-2.6-0.4-3.2-1.5C114.8,110.3,117.3,107.5,119.8,108.8z M108,103
		c0.9-1.5,3.3-0.1,2.4,1.3c-4.5,7.2-9,14.4-13.5,21.6c-0.1,0.3-0.4,0.5-0.5,0.5c-0.8,0.4-1.8-0.2-2-1c0.1,0.9,1.1,1.5,2,1.1
		c-0.1,0.7-0.7,1.4-1.6,1.1c-3.3-0.9-6.4-2.4-9.2-4.4c-1-0.6-0.6-2,0.2-2.5c0.3-0.2,0.7-0.2,1.2,0.1c-0.5-0.4-0.9-0.4-1.3-0.1
		c1.7-4.4,3.4-8.7,5.1-13c0.6-1.6,3.3-0.9,2.6,0.7c-1.7,4.4-3.5,8.8-5.2,13.2c2,1.3,4.1,2.3,6.3,3c0,0,0-0.1,0-0.1
		C99,117.4,103.6,110.2,108,103z M90.8,129.3v2.8c0,1.8-2.7,1.8-2.7,0v-2.8C88.1,127.6,90.8,127.6,90.8,129.3z M82.2,100.3
		c0.1-0.5,0.3-0.8,0.5-1.1c0.4-0.7,0.9-1.3,1.6-1.5c1.6-0.6,3.6,0.5,3.9,2.3c0.4,1.8-1.2,3.7-3,3.9
		C83.4,103.9,81.7,102.2,82.2,100.3z M83.6,126.9c-1.6,0.5-3.4,1-5,1.5c-1.7,0.5-2.5-2.2-0.7-2.6c1.6-0.5,3.4-1,5-1.5
		C84.6,123.8,85.3,126.4,83.6,126.9z M78.6,89.5c-0.3-1,0.4-2.2,1.5-1.7c4.6,2,9.4,3.6,14.3,4.7c1.3,0.4,1.2,2,0.3,2.5
		c0.9,0.9,0.1,2.8-1.3,2.3c-5.1-1.7-10.2-3.5-15.3-5.2C76.6,91.6,77.1,89.2,78.6,89.5z M69.7,124.2c2.5-1.2,5-2.1,7.7-2.6
		c1.7-0.3,2.5,2.4,0.7,2.6c-2.5,0.4-4.8,1.2-7,2.3C69.5,127.3,68.1,124.9,69.7,124.2z M64.6,122.1c1.5-0.8,2.9,1.5,1.4,2.4
		c-1.5,0.9-3,1.7-4.5,2.6c-1.5,0.9-2.9-1.5-1.4-2.4C61.6,123.7,63.1,122.9,64.6,122.1z M56.2,103c0.6,0.2,1.2,0.9,0.9,1.6
		c-0.8,1.8-1.5,3.6-2.3,5.4c-0.3,0.6-0.8,1.1-1.6,0.9c-0.6-0.2-1.3-1-0.9-1.6c0.8-1.8,1.5-3.6,2.3-5.4
		C54.8,103.3,55.4,102.9,56.2,103z M43.9,99.4c2.2-3.6,0.4-9.3,4.9-11.5c2.9-1.5,6.4,1,5.6,4.3c-0.5,1.7-3.1,1-2.6-0.7
		c-0.3-1.5-1.1-1.7-2.3-0.7c-0.5,0.5-0.9,1-1.1,1.6c-0.5,1.1-0.5,2.3-0.6,3.4c-0.3,1.7-0.5,3.4-1.5,4.9
		C45.2,102.1,42.8,100.8,43.9,99.4z M47.5,105c-0.7,0.2-1.5-0.2-1.6-0.9c-0.2-0.6,0.2-1.5,0.9-1.6c0.6-0.1,1.2-0.2,1.8-0.3
		c0.7-0.2,1.5,0.2,1.6,0.9c0.2,0.7-0.2,1.5-0.9,1.6C48.7,104.8,48.2,104.9,47.5,105z M49.9,122.6c-0.3,0.6-0.8,1.1-1.6,0.9
		c-0.6-0.2-1.2-0.9-0.9-1.6c0.6-1.5,1.5-2.8,2.7-3.9c0.5-0.5,1.4-0.5,1.9,0c0.5,0.5,0.5,1.5,0,1.9C51.2,120.7,50.4,121.6,49.9,122.6
		z M51.1,126.7l2.6-3.6c0.5-0.5,1.2-0.8,1.9-0.5c0.5,0.4,0.9,1.3,0.5,1.9c-0.9,1.2-1.7,2.4-2.6,3.6c-0.5,0.5-1.2,0.8-1.9,0.5
		C51,128.3,50.6,127.4,51.1,126.7z M56.2,131.6c-0.7,1-1.5,2.1-2.3,3.1c-0.5,0.5-1.2,0.8-1.9,0.5c-0.5-0.4-0.9-1.3-0.5-1.9
		c0.7-1,1.5-2.1,2.3-3.1c0.5-0.5,1.2-0.8,1.9-0.5C56.3,130,56.6,130.9,56.2,131.6z M56.9,116.1c-0.8,1.5-3.2,0.2-2.4-1.4l1.8-3.6
		c0.8-1.5,3.2-0.2,2.4,1.4C58.2,113.7,57.5,114.9,56.9,116.1z M57.5,121.6c-0.5-0.5-0.5-1.4,0-1.9c0.6-0.7,1.3-1.5,1.9-2.3
		c0.5-0.5,1.5-0.5,1.9,0c0.5,0.5,0.5,1.4,0,1.9c-0.6,0.8-1.3,1.5-1.9,2.3C59,122.1,58,122,57.5,121.6z M60.7,132.8
		c-0.6,0.5-1.5,0.1-1.9-0.5c-0.5-0.7-0.1-1.5,0.5-1.9c1.7-1.3,3.6-1.9,5.7-2.2c0.7-0.1,1.4,0.7,1.4,1.4c0,0.8-0.6,1.3-1.3,1.4
		C63.5,131.1,62,131.8,60.7,132.8z M62.8,139.7c-1.5,0.9-2.8-1.5-1.4-2.4c1.6-1,3.2-2,4.8-3c1.5-0.9,2.9,1.5,1.4,2.4
		C66,137.7,64.5,138.7,62.8,139.7z M70.8,141.2c-1.2,1.1-2.3,2.2-3.5,3.3c-1.3,1.3-3.2-0.7-1.9-1.9c1.2-1.1,2.3-2.2,3.5-3.3
		C70.1,138.1,72,140.1,70.8,141.2z M78.4,145.2c-0.5,1.4-1.1,2.8-1.6,4.2c-0.3,0.6-0.8,1.1-1.6,0.9c-0.6-0.2-1.2-0.9-0.9-1.6
		c0.5-1.4,1.1-2.8,1.6-4.2c0.3-0.6,0.8-1.1,1.6-0.9C78.1,143.7,78.7,144.4,78.4,145.2z M75.7,133.6c-1.3-1.2,0.6-3.1,1.9-1.9
		c3.6,3.3,7.9,5,12.8,5.1c1.7,0,1.7,2.7,0,2.6C84.8,139.4,79.8,137.3,75.7,133.6z M85.9,147.6c-0.2,0.9-0.4,1.9-0.5,2.8
		c-0.1,0.6-1,1.1-1.6,0.9c-0.7-0.2-1.1-0.9-0.9-1.6c0.2-0.9,0.4-1.9,0.5-2.8c0.1-0.6,1-1.1,1.6-0.9C85.7,146.2,86.1,147,85.9,147.6z
		"/>
	<path id="XMLID_1348_" fill="#F4D57B" d="M126,126.8c0-0.1,0-0.1,0.1-0.2c0.3-0.9,0.6-1.8,1-2.7c-0.5,1.1-0.9,2.2-1.4,3.4
		C125.8,127.2,125.9,127,126,126.8z"/>
	<path id="XMLID_1349_" fill="#F4D57B" d="M44.2,84.6c0.8-0.8,1.7-1.4,2.6-1.9C45.8,83.1,45,83.8,44.2,84.6z"/>
	<path id="XMLID_1350_" fill="#F4D57B" d="M51.9,142.3c0.2-0.7-0.3-1.3-0.8-1.5C51.6,141.1,52,141.6,51.9,142.3
		c-0.1,0.3-0.2,0.5-0.3,0.8c0,0,0,0.1,0.1,0.1C51.8,142.9,51.8,142.6,51.9,142.3z"/>
	<path id="XMLID_1351_" fill="#F4D57B" d="M57.4,147.2c0,0,0.1,0,0.1-0.1c0.1-0.1,0.3-0.2,0.4-0.3c-0.1,0.1-0.2,0.1-0.3,0.2
		C57.6,147.1,57.5,147.2,57.4,147.2z"/>
	<path id="XMLID_1352_" fill="#F4D57B" d="M93.9,159.5c-0.1,0.3-0.3,0.5-0.4,0.8c0,0,0.1,0,0.1,0c0.1-0.2,0.2-0.4,0.3-0.5
		C93.9,159.7,93.9,159.6,93.9,159.5z"/>
	<path id="XMLID_1353_" fill="#F4D57B" d="M45,112.9c-0.5-0.1-1,0.1-1.3,0.5c0.1,0,0.2,0,0.3,0.1C44.3,113.1,44.6,112.9,45,112.9z"
		/>
	<path id="XMLID_1354_" fill="#F4D57B" d="M135.1,83.4c0,0,0.1,0.1,0.1,0.1c0,0,0,0,0,0C135.2,83.5,135.2,83.4,135.1,83.4
		C135.1,83.4,135.1,83.4,135.1,83.4z"/>
	<path id="XMLID_1355_" fill="#F4D57B" d="M93.8,157.9c-1.6,0.3-3.2,0.6-4.9,0.6v0.8c0,0.2,0,0.3,0,0.4c-0.2,0.6-0.7,0.9-1.2,0.9
		c0,0,0,0.1,0.1,0.1c0.6,0,1.1-0.3,1.3-1c1.4,0.2,2.9,0.4,4.4,0.5c0.1-0.3,0.3-0.5,0.4-0.8C93.8,159,93.8,158.5,93.8,157.9z"/>
	<path id="XMLID_1356_" fill="#F4D57B" d="M131.8,106c0.2-1.1,0.4-2.2,0.5-3.3c-0.2,1.1,0.3-4.1,0.3-4.6c0-1.1,0-2.2-0.1-3.2
		c0-0.2-0.2-0.6-0.4-1.2c0,4.2-0.2,8.3-0.6,12.5C131.6,106.2,131.7,106.1,131.8,106z"/>
	<path id="XMLID_1357_" fill="#F4D57B" d="M131.2,106.9c-0.5,1.2-1,2.3-1.4,3.5c0,0.1-0.1,0.3-0.2,0.4c-1.1,2.6-2.2,5.3-3.2,8
		c0-0.2,0-0.3,0-0.5c0-1.5-2.5-1.9-2.6-0.4c-0.5,3.7-1,7.4-1.5,11.1c0,0.3,0,0.5,0,0.7c-0.1,0.5-0.3,1-0.4,1.5
		c-5.2,4.6-10.3,9.4-15.2,14.3c0.7-0.1,1.5,0.4,1.6,1.3c0.2,1.3,0.4,2.7,0.5,4.1c0.6-0.3,1.1-0.7,1.6-1c0.2-0.1,0.3-0.2,0.4-0.3
		c0.1-0.1,0.2-0.1,0.2-0.2c0-0.2,0-0.4,0-0.6c0.1-0.7,0.5-1.4,1.4-1.4c0.2,0,0.5,0.1,0.7,0.2c1.2-1.1,2.3-2.3,3.4-3.5
		c0.4-0.5,0.8-1,1.2-1.5c0.1-0.2,0.3-0.5,0.5-0.8c1.1-1.7,2.2-3.4,3.2-5.1c1.1-1.8,2-3.7,2.9-5.7c0.2-0.5,0.4-0.8,0.5-1.1
		c0.3-0.8,0.6-1.5,0.9-2.4c0.1-0.2,0.2-0.5,0.3-0.7c-0.1,0.2-0.3,0.3-0.4,0.5c0.5-1.1,0.9-2.3,1.4-3.4c0.1-0.4,0.3-0.8,0.4-1.2
		c1.8-5.4,3.4-11,4.4-16.6c-0.1,0.1-0.2,0.1-0.3,0.2C131.4,106.4,131.3,106.6,131.2,106.9z"/>
	<path id="XMLID_1358_" fill="#F4D57B" d="M93.9,160.2c0-0.1,0-0.3,0-0.4c-0.1,0.2-0.2,0.4-0.3,0.5c0.1,0,0.2,0,0.3,0
		C93.9,160.3,93.9,160.3,93.9,160.2L93.9,160.2z"/>
	<path id="XMLID_1359_" fill="#F4D57B" d="M105.5,146.6c-2.8,2.8-6.4,5.9-9.1,9.4c0,0.6,0.1,1.2,0.1,1.8c1.2-1.1,2.5-2,3.9-2.7
		c0-0.4,0.1-0.9,0.2-1.3c0.4-1.5,2.4-1.2,2.7,0.1c0.4-0.2,0.9-0.3,1.2-0.5c0.2-0.1,0.5-0.3,1.1-0.5c0.2-0.1,0.4-0.3,0.7-0.4
		c-0.2-1.9-0.5-3.7-0.7-5.6C105.5,146.7,105.5,146.7,105.5,146.6z"/>
	<path id="XMLID_1360_" fill="#B6E0D8" d="M111,149.4c-0.1,0.1-0.2,0.1-0.2,0.2c-0.1,0.1-0.2,0.2-0.4,0.3c-0.5,0.3-1.1,0.7-1.6,1
		c0.1,0.7,0.2,1.4,0.3,2.1c0.2,1.7-2.6,1.7-2.7,0c0-0.2-0.1-0.4-0.1-0.6c-0.2,0.1-0.4,0.3-0.7,0.4c-0.5,0.3-0.9,0.5-1.1,0.5
		c-0.4,0.2-0.8,0.3-1.2,0.5c0,0.2,0,0.4,0,0.6c-0.2,0.7-0.1,1.5,0.4,2.1c0.5,0.5,0.5,1.4,0,1.9c-0.5,0.5-1.5,0.5-1.9,0
		c-0.8-1-1.3-2.2-1.3-3.4c-1.4,0.8-2.7,1.7-3.9,2.7c0,0.8,0.1,1.6,0.1,2.4v0.1c0,1-0.9,1.4-1.7,1.2c0.8,0.4,1.9,0,1.9-1.1
		c2.2-0.1,4.3-0.5,6.4-1.2c3.2-1.1,6.2-2.9,8.9-5.3c0-0.1,0-0.1-0.1-0.2C111.4,152.4,111,151,111,149.4z"/>
	<path id="XMLID_1361_" fill="#B6E0D8" d="M133.7,84c-1.9,0.7-4,1-6.1,0.8c0.4,0.8,0.8,1.6,1.4,2.3c1,1.3,1.8,2.6,2.6,4
		c-0.4-0.5,0.1,1,0.5,2.4c0,0.1,0.1,0.2,0.1,0.3c0.2,0.5,0.4,1,0.4,1.2c0.1,1,0.1,2.1,0.1,3.2c0,0.5-0.5,5.7-0.3,4.6
		c-0.2,1.1-0.4,2.2-0.5,3.3c0,0,0,0,0,0c0,0,0,0,0,0.1c-1,5.6-2.5,11.2-4.4,16.6c-0.1,0.4-0.3,0.8-0.4,1.2c-0.3,0.9-0.6,1.8-1,2.7
		c0,0.1,0,0.1-0.1,0.2c-0.1,0.2-0.2,0.5-0.3,0.7c-0.3,0.8-0.6,1.5-0.9,2.4c-0.1,0.3-0.3,0.6-0.5,1.1c-0.9,1.9-1.8,3.8-2.9,5.7
		c-1,1.7-2.1,3.4-3.2,5.1c-0.3,0.4-0.5,0.6-0.5,0.8c-0.4,0.5-0.8,1-1.2,1.5c-1.1,1.2-2.3,2.4-3.4,3.5c0.4,0.2,0.8,0.7,0.7,1.2
		c-0.1,1,0,2,0.4,3c0.2,0.3,0.4,0.6,0.5,0.9c0,0,0,0,0,0c0.1-0.1,0.1-0.1,0.2-0.2c-0.2-0.3-0.3-0.6-0.5-0.8c0.9-0.9,1.8-1.8,2.6-2.8
		c0.3,0.1,0.6,0.2,0.8,0.1c0.1-0.1,0.1-0.2,0.2-0.3c-0.1,0.1-0.2,0.1-0.3,0.2c-0.3,0.1-0.6,0-0.9-0.1c-0.5-0.2-0.7-0.5-0.8-0.9
		c-0.1-0.6-0.3-1.3-0.4-1.9c-0.2-0.7,0.2-1.5,0.9-1.6c0.6-0.2,1.5,0.2,1.7,1c0.1,0.5,0.2,0.9,0.3,1.4c0,0.2,0.1,0.4,0.1,0.5
		c0.1,0.3,0,0.5,0,0.8c0,0,0,0,0,0c0.1-0.1,0.1-0.2,0.2-0.3c0-0.1,0-0.2,0-0.4c0-0.2-0.1-0.4-0.1-0.5c4.6-6.1,8.3-13.1,11-19.1
		c3.1-6.6,5.5-13.6,7.1-20.7c1.7-7.7,3.3-17-3-23.1c0.4-0.2,0.9-0.4,1.3-0.6c0,0-0.1-0.1-0.1-0.1C134.6,83.6,134.1,83.8,133.7,84z"
		/>
	<path id="XMLID_1362_" fill="#B6E0D8" d="M103.8,160c0.3,0,0.6,0,0.8,0.1c0,0,0,0,0,0C104.4,160,104.1,160,103.8,160z"/>
	<path id="XMLID_1363_" fill="#B6E0D8" d="M78.1,92.2c5.1,1.7,10.2,3.5,15.3,5.2c1.4,0.5,2.1-1.4,1.3-2.3c-0.3,0.2-0.6,0.2-1,0.1
		c-4.8-1.2-9.7-2.8-14.3-4.7c-0.4-0.2-0.7-0.6-0.8-1C77.1,89.2,76.6,91.6,78.1,92.2z"/>
	<path id="XMLID_1364_" fill="#B6E0D8" d="M43.4,109.1c-5.7-1.9-1.7-12.6-0.6-16.1c0.5-1.8,1.2-3.6,2.2-5.3
		c1.9-2.7,9.6-7.4,10.4-0.3c0.1,1.3,1.7,1.6,2.4,1c-0.8-3.5-3.5-6.3-7.5-6.4c-1.3,0-2.4,0.2-3.4,0.7c-0.9,0.5-1.8,1.2-2.6,1.9
		c-1.5,1.6-2.5,3.9-3.1,6.2c-1.3,4.5-3.9,16.9,0.6,20.6c0.3,0.1,0.6,0.3,0.9,0.4C44.3,112.3,45.1,109.6,43.4,109.1z"/>
	<path id="XMLID_1365_" fill="#B6E0D8" d="M108,182.6h0.4c0.8-1.9,1.7-3.9,2.6-5.8C109.9,178.7,108.9,180.6,108,182.6z"/>
	<path id="XMLID_1366_" fill="#B6E0D8" d="M111.9,174.7c-0.5,0-1,0-1.5,0.1c0,0-0.1,0.1-0.1,0.1c0.6,0,1.2-0.1,1.8-0.1
		c0.1-0.1,0.2-0.1,0.3-0.2C112.2,174.7,112,174.7,111.9,174.7z"/>
	<path id="XMLID_1367_" fill="#B6E0D8" d="M127.1,177.6c-4.4-1.9-9.1-2.8-13.9-2.9c0.6,0.2,1.1,0.9,0.9,1.6c-0.5,2.1-1,4.1-1.4,6.2
		h22.6c-0.4-0.3-0.8-0.6-1.1-0.8C132.1,180.1,129.6,178.7,127.1,177.6z"/>
	<path id="XMLID_1368_" fill="#FFFFFF" d="M113.2,174.7c-0.3,0-0.6,0-0.9,0c-0.1,0-0.2,0.1-0.3,0.2c0,0,0,0,0,0
		c-0.1,0.1-0.1,0.3-0.2,0.4c-0.3,0.5-0.6,1-0.9,1.6c-0.9,1.9-1.8,3.8-2.6,5.8h4.4c0.4-2.1,0.9-4.2,1.4-6.2
		C114.3,175.6,113.8,174.9,113.2,174.7z"/>
	<path id="XMLID_1369_" fill="#B6E0D8" d="M32.8,169.8C32.7,169.8,32.7,169.8,32.8,169.8C32.7,169.8,32.7,169.8,32.8,169.8
		c-8.4,2.7-15.9,6.9-22.4,12.4c0.1,0.1,0.2,0.3,0.3,0.4h29.4C38.9,177.6,37,172.8,32.8,169.8z"/>
	<path id="XMLID_1370_" fill="#FFFFFF" d="M9.9,182.6h0.8c-0.1-0.1-0.2-0.3-0.3-0.4C10.2,182.3,10,182.4,9.9,182.6z"/>
	<path id="XMLID_1371_" fill="#1B2B54" d="M45,112.9c0.9-0.1,1.9,0.6,1.5,1.6c-0.1,0.2-0.1,0.3-0.2,0.5c0.6-0.1,1.3-0.2,2-0.4
		c1.6-0.5,1-3.1-0.7-2.6c-2.7,0.8-4.5,0.4-5.8-0.6c-4.5-3.7-1.9-16.1-0.6-20.6c0.7-2.3,1.6-4.5,3.1-6.2c0.7-0.8,1.6-1.5,2.6-1.9
		c1-0.4,2.1-0.7,3.4-0.7c4,0.1,6.7,2.9,7.5,6.4c0.3,1.2,0.3,2.5,0,3.8c0.3-0.5,0.6-1,0.9-1.5c0.5-0.8,1.4-0.8,2-0.4
		c0.1,0.1,0.1,0.1,0.2,0.2c0.1-2.5-0.7-4.7-2-6.5c-0.4,1.7-3,1-2.6-0.7c0.1-0.5,0.3-1,0.4-1.5c-2.6-1.9-6-2.7-9.3-1.9
		c0,0,0,0.1,0,0.1c0.1,1.5-1.5,1.7-2.4,0.9c0,0,0,0-0.1-0.1c0,0,0,0,0,0c-1.9,1-3.6,2.6-4.7,5.1c-3.4,6.8-6.8,27.3,3.1,29.2
		c0.2-0.4,0.3-0.7,0.4-1.2c0.1-0.2,0.1-0.3,0.2-0.4C44,113,44.5,112.8,45,112.9z"/>
	<path id="XMLID_1372_" fill="#1B2B54" d="M51.1,140.8c0.5,0.2,1,0.8,0.8,1.5c-0.1,0.3-0.1,0.6-0.2,0.9c0,0,0,0,0,0
		c-0.1,0.5-0.2,1-0.3,1.6c7.9,8.8,19.6,13.5,31,16.2c6,1.5,12.4,2.7,18.5,1.5c0.4-0.1,0.8-0.2,1.3-0.3c0,0,0,0,0,0
		c0.2-0.5,0.3-0.9,0.5-1.4c0.2-0.6,0.7-0.8,1.2-0.9c0.3,0,0.6,0,0.9,0.1c0.4,0.2,0.8,0.6,0.8,1c3.8-1.6,7.2-4.3,10.2-7.3
		c8.9-9.2,15.5-21.1,19.9-32.9c1.4-3.7,3-8.2,4.2-12.9c-0.2-0.1-0.3-0.2-0.4-0.3c-0.6-0.4-0.8-1.3-0.2-2c0.5-0.5,0.9-1.1,1.4-1.7
		c0.1-0.1,0.2-0.3,0.3-0.4c1.3-7.6,0.9-15.3-4.1-20.8c-0.4,0.2-0.9,0.5-1.3,0.7c0,0,0,0,0,0c-0.4,0.2-0.9,0.4-1.3,0.6
		c6.3,6.1,4.7,15.3,3,23.1c-1.6,7.1-4,14.1-7.1,20.7c-2.7,5.9-6.4,12.9-11,19.1c0,0.2,0.1,0.4,0.1,0.5c0,0.1,0,0.2,0,0.4
		c0,0.6-0.3,1.1-0.9,1.3c0,0,0,0-0.1,0c-0.3,0.1-0.6,0-0.8-0.1c-0.8,1-1.7,1.9-2.6,2.8c0.2,0.2,0.3,0.5,0.5,0.8c0,0,0.1,0.1,0.1,0.1
		c0.7,1.1-0.3,2.1-1.4,2c-0.5,0-1-0.1-1.3-0.6c0-0.1-0.1-0.1-0.1-0.2c-2.7,2.4-5.7,4.2-8.9,5.3c-2.1,0.7-4.2,1.1-6.4,1.2
		c0,1.1-1.1,1.5-1.9,1.1c-0.5-0.1-1-0.5-1.1-1.1c-0.1,0-0.2,0-0.3,0c0,0-0.1,0-0.1,0c-1.5-0.1-3-0.3-4.4-0.5c-0.2,0.6-0.7,1-1.3,1
		c-0.1,0-0.1,0-0.2,0c0,0-0.1,0-0.1,0c-0.2,0-0.4-0.1-0.6-0.2c-0.4-0.2-0.8-0.6-0.8-1.2v-0.1c-2-0.4-4-1-5.8-1.4
		c-0.5-0.1-0.9-0.3-1.3-0.4c0,0.2-0.1,0.3-0.1,0.5c-0.1,0.2-0.1,0.4-0.3,0.6c-0.1,0.1-0.1,0.1-0.2,0.2c-0.4,0.3-1,0.3-1.5,0
		c-0.6-0.2-1-0.8-0.9-1.6c0-0.2,0.1-0.3,0.1-0.5c-2.1-0.7-4.3-1.5-6.4-2.4c-0.2,0.3-0.5,0.6-0.6,0.9c0,0-0.1,0.1-0.1,0.1
		c0,0.1-0.1,0.1-0.1,0.1c-0.4,0.4-0.8,0.5-1.3,0.4c-0.2,0-0.4,0-0.6-0.2c-0.5-0.4-0.9-1.3-0.5-1.9c0.2-0.3,0.3-0.5,0.5-0.7
		c0,0,0-0.1,0.1-0.1c-1.2-0.6-2.4-1.2-3.5-1.9c-0.2,0.1-0.3,0.3-0.5,0.4c-0.1,0.1-0.3,0.2-0.4,0.2c-0.5,0.3-1.2,0.3-1.7-0.1
		c-0.5-0.5-0.5-1.5,0-1.9c0,0,0.1-0.1,0.1-0.1c-1.1-0.7-2.2-1.5-3.2-2.4c0,0,0,0,0,0c-0.1,0.1-0.3,0.2-0.4,0.3c0,0-0.1,0-0.1,0.1
		c-0.1,0-0.1,0.1-0.2,0.1c-0.6,0.5-1.5,0.2-1.9-0.5c-0.4-0.5-0.2-1.2,0.2-1.6c0.1-0.1,0.2-0.2,0.2-0.2c-0.5-0.5-1.1-1.1-1.6-1.6
		c0,0,0,0,0,0c-0.1,0.1-0.1,0.1-0.2,0.2c-1.1,0.5-2.6-0.6-1.8-1.9c0.1,0,0.1-0.1,0.1-0.1c0-0.1,0.1-0.2,0.1-0.2c-0.8-1-1.5-2-2.2-3
		c-0.2,0.2-0.4,0.3-0.7,0.4c-0.3,0.1-0.5,0.1-0.9,0.1c-0.6-0.1-1.1-1-0.9-1.6c0.2-0.5,0.3-0.8,0.5-1.3c0-0.1,0.1-0.3,0.2-0.4
		c0-0.1,0.1-0.1,0.1-0.2c-0.4-0.8-0.8-1.7-1.1-2.6c-0.1,0-0.1,0-0.2,0c0,0-0.1,0-0.1,0c-0.9,0.5-2.3-0.3-1.9-1.5
		c0.2-0.7,0.5-1.5,0.6-2.2c0.1-0.2,0.1-0.4,0.2-0.6c-1.1-4.3-1-8.9,0.4-13.4c0,0,0,0,0-0.1c0.1-0.2,0.1-0.3,0.2-0.5
		c0.4-1.1-0.6-1.7-1.5-1.6c-0.4,0-0.7,0.2-0.9,0.5c-0.1,0.1-0.1,0.2-0.2,0.4c-0.1,0.4-0.3,0.8-0.4,1.2c-2.5,9.3,0,19,5.6,26.7
		c0,0,0,0,0-0.1C49.4,140.6,50.4,140.4,51.1,140.8z"/>
	<path id="XMLID_1373_" fill="#1B2B54" d="M47.2,79.9c0,0,0-0.1,0-0.1c-1.4-15.6,8.3-29.3,23.4-33.1c-0.1,0-0.1-0.1-0.2-0.1
		c-0.3-0.1-0.5-0.3-0.6-0.5c-0.4-0.3-0.5-0.9-0.4-1.3c0-0.1,0-0.2-0.1-0.3c0-0.1,0-0.2,0-0.2C53.4,48.5,43,63.3,44.5,80
		c0,0.3,0.1,0.6,0.3,0.8c0,0,0,0,0.1,0.1C45.7,81.6,47.3,81.4,47.2,79.9z"/>
	<path id="XMLID_1374_" fill="#1B2B54" d="M57.4,99.1c1.1,1.9,3.4,3,5.5,2c3.5-1.5,3.1-5.7,3-8.8c-0.1-5.3,1.5-10.4,4.8-14.6
		c3.1-3.7,7-5,10.8-7.7c0.8-0.5,1.4-1.1,2-1.8c-0.6-0.5-1.2-1.3-1.7-2.1c-0.1-0.2-0.2-0.3-0.2-0.4c0,0,0,0,0,0
		c-1,1.7-3.1,2.7-5.2,3.8c-2,1-3.8,2.3-5.6,3.8c-3.2,2.9-5.6,6.7-6.8,10.8c-0.6,2.2-1,4.5-1.1,6.7c0,1.4,0.5,3.1,0.1,4.4
		c0.4,2.4-0.8,2.4-3.6,0c0.4-1.2,0.9-2.2,1.5-3.3c0.4-0.6,0.2-1.2-0.2-1.6c-0.1-0.1-0.1-0.1-0.2-0.2c-0.6-0.5-1.5-0.5-2,0.4
		c-0.3,0.5-0.6,1-0.9,1.5c-0.1,0.1-0.2,0.3-0.2,0.4C56.8,94.8,56.3,97,57.4,99.1z"/>
	<path id="XMLID_1375_" fill="#1B2B54" d="M82.1,62c0.3,0.9,0.3,1.6,0.2,2.3c0.4-0.2,0.8-0.3,1.2-0.2c0.1,0,0.2,0.1,0.4,0.1
		c0.2,0.1,0.4,0.2,0.5,0.5c0.2,0.4,0.5,0.6,0.7,0.9c0.2-0.6,0.2-1.4,0.2-2.1c0-0.2-0.1-0.5-0.1-0.7c-0.8-7.1-7.4-14.1-12.9-18.4
		c0,0.2,0.1,0.3,0.1,0.5c0.1,0.5,0,0.8-0.2,1.1c0,0-0.1,0.1-0.1,0.1c-0.3,0.3-0.7,0.5-1.2,0.5c-0.1,0-0.2,0-0.3,0
		c0,0,0.1,0.1,0.1,0.1C75.5,50.5,80.5,56,82.1,62z"/>
	<path id="XMLID_1376_" fill="#1B2B54" d="M69.7,45.7c-0.1-0.3-0.1-0.6-0.2-0.9c-0.1,0.4,0,1,0.4,1.3C69.8,46,69.7,45.9,69.7,45.7z"
		/>
	<path id="XMLID_1377_" fill="#1B2B54" d="M75.6,36.3c0.7-0.1,1.2,0.3,1.5,0.8c0.3,0.5,0.3,1.2-0.1,1.6c6.8,0.5,12.9,3.3,14.9,11
		c0.5,1.7,3.1,1,2.6-0.7c-2.6-10.4-11.7-13.1-21-13c-3,0-6.1,0.4-9,0.8c-0.8,0.6-1.5,1.1-2.3,1.7c-0.1,0.1-0.2,0.1-0.3,0.2
		c-0.6,0.4-1.2,0.9-1.8,1.3c-0.1,0.1-0.2,0.1-0.3,0.2c0.3,0.2,0.5,0.2,0.9,0.1c3.2-0.6,6.9-1.4,10.6-1.5c0.1-0.1,0.1-0.1,0.2-0.2
		C72.6,37.4,74,36.6,75.6,36.3z"/>
	<path id="XMLID_1378_" fill="#1B2B54" d="M69.5,44.8c0.1,0.3,0.1,0.6,0.2,0.9c0,0.2,0.1,0.3,0.2,0.4c0.2,0.3,0.4,0.5,0.6,0.5
		c0,0,0.1,0,0.1,0c0.1,0,0.2,0,0.3,0c0.4,0,0.9-0.2,1.1-0.5c0,0,0.1-0.1,0.1-0.1c0.2-0.3,0.3-0.7,0.2-1.1c0-0.2-0.1-0.3-0.1-0.5
		c-0.4-2.6,1.5-5.1,4.1-5.6c0.3-0.1,0.5-0.2,0.6-0.4c0.4-0.4,0.4-1,0.1-1.5c-0.3-0.5-0.8-0.9-1.5-0.8c-1.6,0.3-3,1.1-4.1,2.3
		c-0.1,0.1-0.1,0.1-0.2,0.2c-1.3,1.4-2,3.4-1.9,5.4c0,0,0,0.1,0,0.1c0,0.1,0,0.2,0,0.2C69.4,44.6,69.4,44.7,69.5,44.8z"/>
	<path id="XMLID_1379_" fill="#1B2B54" d="M64.6,36.8c7.7-5.4,16-10.2,25.5-10.5c4-0.1,8.1,0.8,11.6,2.6c6.6,3.4,11.4,9.8,9.7,18.2
		c-0.4,1.7,2.3,2.5,2.6,0.7c1.4-7-1.3-13.5-6.1-18c-0.3,0.4-0.8,0.6-1.3,0.6c-0.5,0-0.9-0.3-1-1c0-0.1,0-0.1,0-0.2
		c-0.1-0.6-0.3-1.1-0.5-1.7c-2.6-1.7-5.6-2.9-8.8-3.6c-14.1-2.6-26.8,5.6-37.6,13.6c-1.3,1-0.2,3.2,1.2,2.5c0.1,0,0.2-0.1,0.3-0.2
		c0.5-0.4,1-0.7,1.5-1.1c0.1-0.1,0.2-0.1,0.3-0.2C62.8,38,63.7,37.4,64.6,36.8z"/>
	<path id="XMLID_1380_" fill="#1B2B54" d="M106.6,30.5c0.5,0,1-0.2,1.3-0.6l0,0c0.2-0.3,0.4-0.6,0.3-1.1c-0.2-0.9-0.4-1.7-0.7-2.5
		c-0.9-2.4-2.4-4.5-4.4-6.1c-0.3-0.1-0.7-0.1-1-0.2c-0.7-0.1-1.3-0.2-2-0.3c-0.9-0.1-1.8-0.2-2.7-0.2c-1.1,0-1.5-1-1.3-1.8
		c-0.5,0.7-0.5,1.9,0.6,2.2c4,1,7.1,3.9,8.4,7.7c0.2,0.6,0.3,1.1,0.4,1.8c0,0.1,0,0.1,0,0.2C105.7,30.1,106.2,30.4,106.6,30.5z"/>
	<path id="XMLID_1381_" fill="#1B2B54" d="M97.4,19.4c0.9,0,1.8,0.1,2.6,0.2c0.7,0.1,1.4,0.2,2.1,0.3c0.3,0.1,0.7,0.1,1,0.2
		c17.9,3.8,29.3,22.2,23.6,40.6c-0.5,1.5,1.7,2.2,2.5,1.1c0.1-0.1,0.1-0.2,0.2-0.4c2.5-8,1.9-16-0.9-23.1c-0.6,0.4-1.6,0.3-2.1-0.3
		c0,0,0,0,0,0c-0.1-0.1-0.1-0.2-0.2-0.3c0,0,0-0.1,0-0.1c0-0.1-0.1-0.2-0.1-0.3l-0.2-2.3l-0.2-2c-5.8-9.5-16.1-16-28.3-16.4
		c-0.7,0-1.1,0.4-1.3,0.9C95.8,18.4,96.3,19.4,97.4,19.4z"/>
	<path id="XMLID_1382_" fill="#1B2B54" d="M126.2,37.6C126.2,37.6,126.2,37.7,126.2,37.6c0.1,0.2,0.1,0.3,0.2,0.4c0,0,0,0,0,0
		c0.5,0.6,1.5,0.7,2.1,0.2c0.3-0.2,0.5-0.5,0.4-1l0-0.5l-0.7-8c-0.7-0.7-1.5-1.5-2.2-2.1c-0.5-0.4-0.5-0.9-0.4-1.3
		c-0.2,0.2-0.3,0.5-0.3,1l0.5,6.7l0.2,2.1l0.2,2.2C126.1,37.4,126.1,37.5,126.2,37.6z"/>
	<path id="XMLID_1383_" fill="#1B2B54" d="M125.9,26.7c0.7,0.6,1.5,1.4,2.2,2.1c9.4,9.5,14.9,22.6,14.2,36.1
		c-0.1,2.8-0.7,5.9-1.8,8.6c-1.8,4.5-5.1,8.1-10.4,8.5c-0.2,0-0.3,0-0.5,0c-8.5,0.3-13.5-7.6-11.4-15c0.3-1,0.7-1.9,1.2-2.8
		c0.9-1.5-1.5-2.9-2.4-1.4c-1.1,1.9-1.8,4-2,6.1c-0.1,0.9-0.1,1.8,0,2.8c0,0.1,0,0.2,0,0.3c0,0,0,0,0,0c0,0.4,0.1,0.7,0.1,1.1
		c0,0,0,0,0,0c0,0,0,0,0.1,0c0.2-0.1,0.4-0.2,0.7-0.3c0.3-0.2,0.5-0.2,0.8-0.2c1.1,0.1,1.8,1.8,0.6,2.6c-0.5,0.3-0.9,0.5-1.4,0.7
		c1.1,3,3.2,5.7,6.3,7.3c1.7,0.9,3.6,1.4,5.4,1.6c2.1,0.2,4.2-0.1,6.1-0.8c0.5-0.2,1-0.4,1.4-0.6c0,0,0,0,0,0
		c0.4-0.2,0.8-0.4,1.2-0.7c2.3-1.4,4.2-3.3,5.6-5.7c0.9-1.6,1.6-3.5,2.2-5.3c-0.3-0.7-0.6-1.5-1-2.2c-0.1-0.2-0.1-0.3-0.1-0.5
		c-0.1-1.1,1.1-1.9,2-1.5c0,0,0,0,0,0c0.8-5.9,0-12.1-1.5-17.5c-2.6-9.8-8.1-18.6-15.6-25.2c-0.8-0.7-1.9-0.3-2.3,0.5
		c0,0,0,0.1,0,0.1C125.4,25.8,125.4,26.2,125.9,26.7z"/>
	<path id="XMLID_1384_" fill="#1B2B54" d="M97.6,67.8c0.4,0,0.9,0.2,1.2,0.7c0.3,0.4,0.5,0.9,0.8,1.2c2.2-1.3,4-3.2,4.7-5.8
		c1.5-5.7,0.8-13.4-0.6-19c-1.4-5.3-4.3-9.8-9.1-12.4c-1.5-0.8-2.9,1.5-1.4,2.4c6.4,3.5,8.3,10.2,8.7,17c0.1,1.4,0.1,2.8,0.1,4.2
		c0,5,0.1,10.8-6.1,11.9c-3.5,0.6-8.4,0.4-10.9-2.5c-0.3-0.3-0.5-0.6-0.7-0.9c-0.1-0.2-0.2-0.3-0.3-0.4c-0.1-0.1-0.2-0.2-0.3-0.2
		c-0.4-0.1-0.8-0.1-1.2,0.2c-0.1,0-0.1,0.1-0.2,0.1c-0.4,0.3-0.6,0.8-0.5,1.3c0,0,0,0,0,0c0,0.1,0.1,0.2,0.2,0.4
		c0.4,0.8,1.1,1.5,1.7,2.1c0,0,0,0,0,0c3.3,3,8.8,3.8,13.2,2.5c0-0.3-0.2-0.5-0.5-0.9c-0.1-0.1-0.1-0.2-0.1-0.3
		C95.9,68.6,96.7,67.8,97.6,67.8z"/>
	<path id="XMLID_1385_" fill="#1B2B54" d="M99.6,69.8C99.6,69.8,99.6,69.8,99.6,69.8c-0.3-0.4-0.6-0.8-0.8-1.3
		c-0.3-0.5-0.7-0.7-1.2-0.7c-0.8,0-1.6,0.8-1.3,1.7c0,0.1,0.1,0.2,0.1,0.4c0.2,0.4,0.4,0.6,0.6,0.9c4.3,6.3,12.1,8.3,18.9,5.1
		c0.5-0.2,0.9-0.5,1.4-0.7c1.3-0.7,0.5-2.4-0.6-2.6c-0.3,0-0.5,0-0.8,0.2c-0.2,0.2-0.4,0.3-0.7,0.3c0,0,0,0-0.1,0c0,0,0,0,0,0h0
		C109.6,76.1,103.2,74.7,99.6,69.8z"/>
	<path id="XMLID_1386_" fill="#1B2B54" d="M119.6,37.9c-0.8,0.1-1.5,0.7-1.3,1.7c1,4,0.8,8-0.6,11.8c-0.5,1.7,2.1,2.5,2.6,0.7
		c1.3-3.5,1.6-7.1,1.1-10.7c-0.1-0.9-0.3-1.7-0.5-2.6C120.8,38.1,120.2,37.8,119.6,37.9z"/>
	<path id="XMLID_1387_" fill="#1B2B54" d="M136.8,51.8c-0.3-0.8-1-1-1.6-0.9c-0.7,0.1-1.3,0.7-1,1.6c2.8,6.7,0.4,13.7-6.2,17
		c-1.6,0.7-0.2,3.1,1.4,2.4c4.1-2,6.8-5.4,8.1-9.3C138.5,59.2,138.4,55.4,136.8,51.8z"/>
	<path id="XMLID_1388_" fill="#1B2B54" d="M142.9,69c0,0.2,0.1,0.3,0.1,0.5c0.4,0.7,0.7,1.5,1,2.2c4.3,10.5,3,22.6-3.4,31.9
		c-0.1,0.1-0.2,0.3-0.3,0.4c-0.5,0.6-0.8,1.2-1.4,1.7c-0.6,0.7-0.3,1.6,0.2,2c0.1,0.1,0.1,0.1,0.2,0.1c0.5,0.3,1,0.3,1.5-0.3
		c9.1-11.2,10.8-26.7,4.5-39.7c-0.1-0.3-0.3-0.4-0.5-0.5c0,0,0,0,0,0C144,67.1,142.8,68,142.9,69z"/>
	<path id="XMLID_1389_" fill="#1B2B54" d="M88.3,100c-0.4-1.7-2.3-2.9-3.9-2.3c-0.7,0.3-1.3,0.8-1.6,1.5c-0.3,0.3-0.5,0.6-0.5,1.1
		c-0.5,1.9,1.3,3.6,3.1,3.6C87.1,103.7,88.6,101.8,88.3,100z"/>
	<path id="XMLID_1390_" fill="#1B2B54" d="M79.4,90.5c4.6,1.9,9.5,3.6,14.3,4.7c0.4,0.1,0.7,0,1-0.1c0.9-0.5,1.1-2.2-0.3-2.5
		c-4.9-1.2-9.7-2.7-14.3-4.7c-1.2-0.5-1.8,0.7-1.5,1.7C78.7,89.9,79,90.3,79.4,90.5z"/>
	<path id="XMLID_1391_" fill="#1B2B54" d="M129.2,108.8c-3.8-2.6-7.6-5.4-11.4-8c-1.5-1-2.8,1.4-1.4,2.4c3.8,2.6,7.6,5.4,11.4,8
		c0.7,0.5,1.4,0.2,1.8-0.4c0.1-0.1,0.1-0.3,0.2-0.4C129.9,109.8,129.8,109.2,129.2,108.8z"/>
	<path id="XMLID_1392_" fill="#1B2B54" d="M119.2,114.4c1.2-0.2,2-1.3,2.1-2.5c0-0.1,0-0.3,0-0.4c0.2-1.2-0.5-2.3-1.5-2.7
		c-2.5-1.3-5,1.5-3.8,4C116.5,114,117.9,114.6,119.2,114.4z"/>
	<path id="XMLID_1393_" fill="#1B2B54" d="M90.4,136.8c-4.8-0.1-9.2-1.8-12.8-5.1c-1.3-1.2-3.2,0.7-1.9,1.9
		c4.1,3.7,9.1,5.8,14.7,5.8C92.1,139.5,92.1,136.8,90.4,136.8z"/>
	<path id="XMLID_1394_" fill="#1B2B54" d="M93.4,108.4c0.6-1.6-2-2.4-2.6-0.7c-1.7,4.4-3.4,8.7-5.1,13c0.4-0.3,0.8-0.3,1.3,0.1
		c0.5,0.3,0.9,0.5,1.3,0.8C89.9,117.3,91.6,112.8,93.4,108.4z"/>
	<path id="XMLID_1395_" fill="#1B2B54" d="M94.5,124.6c-2.3-0.7-4.4-1.7-6.3-3c-0.5-0.3-0.9-0.5-1.3-0.8c-0.5-0.3-0.9-0.3-1.2-0.1
		c-0.8,0.5-1.2,1.8-0.2,2.5c2.8,2,5.9,3.5,9.2,4.4c0.9,0.3,1.5-0.4,1.6-1.1c-0.8,0.4-1.9-0.2-2-1.1
		C94.3,125.2,94.4,124.9,94.5,124.6z"/>
	<path id="XMLID_1396_" fill="#1B2B54" d="M94.5,124.6c-0.1,0.3-0.2,0.5-0.1,0.8c0.2,0.8,1.2,1.4,2,1c0.2-0.1,0.5-0.3,0.5-0.5
		c4.5-7.2,9-14.4,13.5-21.6c0.9-1.4-1.5-2.7-2.4-1.3C103.6,110.2,99,117.4,94.5,124.6C94.5,124.6,94.5,124.6,94.5,124.6z"/>
	<path id="XMLID_1397_" fill="#1B2B54" d="M82.9,124.3c-1.6,0.5-3.4,1-5,1.5c-1.7,0.5-1,3.1,0.7,2.6c1.6-0.5,3.4-1,5-1.5
		C85.3,126.4,84.6,123.8,82.9,124.3z"/>
	<path id="XMLID_1398_" fill="#1B2B54" d="M71,126.6c2.2-1.1,4.6-1.9,7-2.3c1.7-0.3,1-2.9-0.7-2.6c-2.6,0.5-5.2,1.4-7.7,2.6
		C68.1,124.9,69.5,127.3,71,126.6z"/>
	<path id="XMLID_1399_" fill="#1B2B54" d="M61.5,127c1.5-0.8,3-1.6,4.5-2.6c1.5-0.8,0.2-3.2-1.4-2.4c-1.5,0.8-3,1.6-4.5,2.6
		C58.6,125.6,59.9,127.9,61.5,127z"/>
	<path id="XMLID_1400_" fill="#1B2B54" d="M66.4,129.6c0-0.6-0.6-1.5-1.4-1.4c-2.1,0.3-4,0.9-5.7,2.2c-0.5,0.5-0.9,1.2-0.5,1.9
		c0.4,0.5,1.3,0.9,1.9,0.5c1.3-1,2.7-1.6,4.4-1.8C65.8,130.9,66.4,130.4,66.4,129.6z"/>
	<path id="XMLID_1401_" fill="#1B2B54" d="M66.3,134.3c-1.6,1-3.2,2-4.8,3c-1.5,0.9-0.1,3.3,1.4,2.4c1.6-1,3.2-2,4.8-3
		C69.2,135.8,67.8,133.4,66.3,134.3z"/>
	<path id="XMLID_1402_" fill="#1B2B54" d="M68.9,139.3c-1.2,1.1-2.3,2.2-3.5,3.3c-1.3,1.2,0.6,3.2,1.9,1.9c1.2-1.1,2.3-2.2,3.5-3.3
		C72,140.1,70.1,138.1,68.9,139.3z"/>
	<path id="XMLID_1403_" fill="#1B2B54" d="M77.5,143.5c-0.8-0.2-1.4,0.3-1.6,0.9c-0.5,1.4-1.1,2.8-1.6,4.2c-0.3,0.7,0.3,1.5,0.9,1.6
		c0.8,0.2,1.4-0.3,1.6-0.9c0.5-1.4,1.1-2.8,1.6-4.2C78.7,144.4,78.1,143.7,77.5,143.5z"/>
	<path id="XMLID_1404_" fill="#1B2B54" d="M85,146c-0.6-0.2-1.5,0.3-1.6,0.9c-0.2,0.9-0.4,1.9-0.5,2.8c-0.2,0.7,0.2,1.5,0.9,1.6
		c0.6,0.2,1.5-0.3,1.6-0.9c0.2-0.9,0.4-1.9,0.5-2.8C86.1,147,85.7,146.2,85,146z"/>
	<path id="XMLID_1405_" fill="#1B2B54" d="M89.7,148.4l0.3,3.9c0.1,1.7,2.8,1.7,2.7,0l-0.3-3.9C92.4,146.7,89.6,146.7,89.7,148.4z"
		/>
	<path id="XMLID_1406_" fill="#1B2B54" d="M98.3,145.3c-0.5-1.6-3.2-0.9-2.6,0.7l1.9,5.4c0.5,1.6,3.2,0.9,2.6-0.7
		C99.6,148.9,98.9,147.1,98.3,145.3z"/>
	<path id="XMLID_1407_" fill="#1B2B54" d="M98,133.1c-0.7-0.7-1.3-1.5-1.6-2.5c-0.5-1.6-3.2-1-2.6,0.7c0.5,1.5,1.2,2.7,2.3,3.7
		C97.4,136.2,99.4,134.3,98,133.1z"/>
	<path id="XMLID_1408_" fill="#1B2B54" d="M99.9,138.2c-0.8-1.5-3.2-0.2-2.4,1.4c0.9,1.8,1.9,3.6,2.8,5.4c0.8,1.5,3.2,0.2,2.4-1.4
		L99.9,138.2z"/>
	<path id="XMLID_1409_" fill="#1B2B54" d="M88.1,129.3v2.8c0,1.8,2.7,1.8,2.7,0v-2.8C90.8,127.6,88.1,127.6,88.1,129.3z"/>
	<path id="XMLID_1410_" fill="#1B2B54" d="M106.6,145.5c-0.6,0-1.1,0.4-1.1,1.1c0,0.1,0,0.1,0,0.2c0.2,1.9,0.5,3.7,0.7,5.6
		c0,0.2,0.1,0.4,0.1,0.6c0.2,1.7,2.9,1.7,2.7,0c-0.1-0.7-0.2-1.4-0.3-2.1c-0.2-1.4-0.4-2.8-0.5-4.1
		C108.1,145.9,107.3,145.5,106.6,145.5z"/>
	<path id="XMLID_1411_" fill="#1B2B54" d="M100.6,153.7c-0.1,0.4-0.2,0.9-0.2,1.3c0,1.2,0.5,2.4,1.3,3.4c0.5,0.5,1.5,0.5,1.9,0
		c0.5-0.5,0.5-1.4,0-1.9c-0.5-0.6-0.5-1.4-0.4-2.1c0.1-0.2,0.1-0.4,0-0.6C103,152.6,101,152.2,100.6,153.7z"/>
	<path id="XMLID_1412_" fill="#1B2B54" d="M96.7,160.3L96.7,160.3c0-0.9-0.1-1.7-0.1-2.5c0-0.6-0.1-1.2-0.1-1.8c0-0.1,0-0.2,0-0.2
		c-0.1-1.7-2.8-1.7-2.7,0c0,0.7,0.1,1.4,0.1,2.2c0,0.5,0.1,1.1,0.1,1.6c0,0.1,0,0.2,0,0.3c0,0.1,0,0.3,0,0.4v0.1c0,0,0,0,0,0.1
		c0.1,0.6,0.5,1,1.1,1.1C95.8,161.7,96.7,161.3,96.7,160.3z"/>
	<path id="XMLID_1413_" fill="#1B2B54" d="M87.7,160.7c0.5-0.1,1-0.4,1.2-0.9c0-0.1,0-0.2,0-0.4v-0.8V156c0-1.7-2.7-1.7-2.7,0v3.2v0
		v0.1c0,0.6,0.3,1,0.8,1.2C87.2,160.7,87.5,160.7,87.7,160.7z"/>
	<path id="XMLID_1414_" fill="#1B2B54" d="M78.3,158.6c0.1,0,0.1-0.1,0.2-0.2c0.1-0.2,0.2-0.3,0.3-0.6c0-0.2,0.1-0.3,0.1-0.5
		c0.3-1.1,0.5-2.1,0.7-3.2c0.4-1.7-2.3-2.5-2.6-0.7c-0.3,1-0.5,2.1-0.7,3.1c0,0,0,0,0,0c0,0.2-0.1,0.3-0.1,0.5
		c-0.2,0.8,0.3,1.4,0.9,1.6C77.4,158.9,77.9,158.9,78.3,158.6z"/>
	<path id="XMLID_1415_" fill="#1B2B54" d="M68.8,155.3c0,0,0.1-0.1,0.1-0.1c0,0,0,0,0,0c0.2-0.3,0.5-0.6,0.6-0.9
		c0.5-0.6,0.8-1.3,1.3-1.9c0.5-0.7,0.2-1.6-0.5-2c-0.6-0.4-1.5-0.1-1.9,0.5c-0.4,0.7-0.9,1.4-1.4,2.1c0,0,0,0.1-0.1,0.1
		c-0.2,0.3-0.3,0.5-0.5,0.7c-0.5,0.6-0.1,1.5,0.5,1.9c0.2,0.1,0.4,0.2,0.6,0.2C68.1,155.7,68.5,155.5,68.8,155.3z"/>
	<path id="XMLID_1416_" fill="#1B2B54" d="M63.4,151c0.7-0.6,1.4-1.2,2.1-1.8c0.5-0.5,0.5-1.5,0-2c-0.5-0.5-1.4-0.5-1.9,0
		c-0.8,0.7-1.6,1.4-2.4,2.2c0,0-0.1,0.1-0.1,0.1c-0.5,0.5-0.5,1.4,0,1.9c0.5,0.5,1.2,0.5,1.7,0.1c0.1,0,0.1-0.1,0.2-0.1
		C63.1,151.3,63.2,151.1,63.4,151z"/>
	<path id="XMLID_1417_" fill="#1B2B54" d="M60.6,143.5c-0.4-0.6-1.3-0.9-1.9-0.5c-0.9,0.6-1.9,1.3-2.8,1.9c0,0,0,0,0,0
		c-0.1,0.1-0.2,0.2-0.2,0.2c-0.4,0.5-0.5,1.1-0.2,1.6c0.4,0.6,1.3,0.9,1.9,0.5c0,0,0.1-0.1,0.2-0.1c0.1,0,0.1-0.1,0.2-0.1
		c0.1-0.1,0.2-0.1,0.3-0.2c0,0,0,0,0,0c0.7-0.5,1.5-1,2.2-1.5C60.7,145,61,144.2,60.6,143.5z"/>
	<path id="XMLID_1418_" fill="#1B2B54" d="M53.2,111c0.8,0.2,1.4-0.3,1.6-0.9c0.7-1.8,1.5-3.6,2.3-5.4c0.3-0.7-0.3-1.5-0.9-1.6
		c-0.8-0.2-1.4,0.3-1.6,0.9c-0.7,1.8-1.5,3.6-2.3,5.4C51.9,110,52.5,110.8,53.2,111z"/>
	<path id="XMLID_1419_" fill="#1B2B54" d="M40.5,175.4c0.6,0.1,1.2-0.2,1.5-0.9c3.9-9.7,7-19.6,9.3-29.7c0.1-0.5,0.2-1.1,0.4-1.6
		c0,0,0,0,0,0c0.1-0.3,0.1-0.5,0.2-0.8c0.2-0.7-0.2-1.3-0.7-1.5c-0.7-0.4-1.7-0.2-1.9,0.8c0,0,0,0,0,0.1c0,0.2-0.1,0.3-0.1,0.5
		c-2.4,10.6-5.5,21.1-9.6,31.2c0,0,0,0.1,0.1,0.1C39.9,174.1,40.2,174.8,40.5,175.4z"/>
	<path id="XMLID_1420_" fill="#1B2B54" d="M103.8,160c-0.5,0-1,0.3-1.2,0.9c-0.2,0.5-0.3,0.9-0.5,1.4c0,0,0,0,0,0
		c-1.9,6.3-1.5,12.7,1.3,18.8c0.4,0.8,1.2,0.8,1.7,0.5c0.1-0.2,0.2-0.5,0.3-0.7c0.1-0.3,0.3-0.5,0.4-0.8c0-0.1-0.1-0.3-0.1-0.4
		c-2.6-5.8-2.6-12.1-0.5-18.1c0.1-0.2,0.1-0.3,0.1-0.5c0-0.5-0.3-0.8-0.7-1C104.3,160.1,104.1,160,103.8,160z"/>
	<path id="XMLID_1421_" fill="#1B2B54" d="M82.9,174.9c-1.8,2.3-5.7,6.7-8.6,3.3c-1.2-1.4-3.1,0.6-1.9,1.9c1.5,1.8,3.8,2.4,6.1,1.7
		c2.7-0.7,4.6-2.9,6.3-5C85.9,175.4,84,173.5,82.9,174.9z"/>
	<path id="XMLID_1422_" fill="#1B2B54" d="M34.6,169.2c-0.6,0.2-1.2,0.4-1.8,0.5c0,0,0,0,0,0c4.3,3,6.2,7.8,7.3,12.8h2.7
		c-0.6-2.5-1.3-4.9-2.3-7.1c0,0,0,0,0,0c-0.3-0.6-0.6-1.4-1-2c0,0,0-0.1-0.1-0.1c-1.1-1.8-2.3-3.5-4-4.9c0,0,0,0.1,0,0.1
		C35.3,168.9,35,169.1,34.6,169.2z"/>
	<path id="XMLID_1423_" fill="#1B2B54" d="M105.1,182.6h2.9c0.9-1.9,1.9-3.9,3-5.8c0.3-0.5,0.6-1,0.9-1.6c0.1-0.1,0.1-0.3,0.2-0.4
		c0,0,0,0,0,0c-0.6,0-1.2,0-1.8,0.1c-0.1,0-0.3,0-0.4,0c-0.3,0-0.5-0.1-0.6-0.1c-0.1,0-0.1,0-0.2-0.1c-1.1,1.8-2,3.7-2.9,5.5
		c-0.1,0.2-0.2,0.5-0.4,0.7c-0.1,0.3-0.2,0.5-0.4,0.8C105.3,182.1,105.2,182.3,105.1,182.6z"/>
	<path id="XMLID_1424_" fill="#1B2B54" d="M109.7,174.9c0.2,0,0.5-0.1,0.7-0.1c0.5-0.1,1-0.1,1.5-0.1c0.2,0,0.3,0,0.5,0
		c0.3,0,0.6,0,0.9,0c4.7,0.1,9.5,1,13.9,2.9c2.6,1.1,5,2.5,7.2,4.1c0.3,0.2,0.7,0.5,1.1,0.8h4.4c-3-3.3-8.2-5.9-11.5-7.3
		c-5.9-2.6-12.3-3.6-18.7-3.1c-1.5,0.1-1.7,1.9-0.8,2.6c0,0,0.1,0.1,0.2,0.1c0.1,0,0.1,0,0.2,0.1
		C109.4,174.9,109.5,174.9,109.7,174.9z"/>
	<path id="XMLID_1425_" fill="#1B2B54" d="M9.9,182.6c0.2-0.1,0.3-0.3,0.5-0.4c6.6-5.5,14.1-9.7,22.3-12.4c0,0,0,0,0.1,0
		c0.6-0.2,1.2-0.4,1.8-0.5c0.5-0.1,0.7-0.4,0.8-0.7c0,0,0,0,0-0.1c0.3-0.9-0.3-2.2-1.6-1.8c-10.5,3.1-20,8.5-28,16H9.9z"/>
	<path id="XMLID_1426_" fill="#1B2B54" d="M106.4,138.3c-0.5-0.5-1.5-0.5-1.9,0c-0.5,0.5-0.5,1.4,0,1.9c0.5,0.6,1,1.3,1.5,1.9
		c0.5,0.5,1.5,0.5,1.9,0c0.5-0.5,0.5-1.4,0-1.9C107.4,139.6,107,139,106.4,138.3z"/>
	<path id="XMLID_1427_" fill="#1B2B54" d="M114.7,152.8C114.7,152.8,114.7,152.7,114.7,152.8c-0.2-0.3-0.4-0.7-0.6-1
		c-0.4-1-0.5-2-0.4-3c0.1-0.5-0.3-1-0.7-1.2c-0.2-0.1-0.4-0.2-0.7-0.2c-0.8,0-1.3,0.6-1.4,1.4c0,0.2,0,0.4,0,0.6
		c0,1.5,0.4,3,1.1,4.3c0,0,0.1,0.1,0.1,0.2c0,0.1,0.1,0.2,0.1,0.2c0.3,0.5,0.8,0.7,1.3,0.6C114.5,154.6,115.3,153.7,114.7,152.8z"/>
	<path id="XMLID_1428_" fill="#1B2B54" d="M118.7,148.1c0.1-0.2,0.1-0.5,0-0.8c0-0.2-0.1-0.4-0.1-0.5c-0.1-0.5-0.2-0.9-0.3-1.4
		c-0.2-0.8-1.1-1.2-1.7-1c-0.7,0.2-1.1,0.9-0.9,1.6c0.1,0.6,0.3,1.3,0.4,1.9c0.1,0.5,0.4,0.7,0.8,0.9c0.3,0.1,0.6,0.2,0.9,0.1
		c0.1,0,0.2-0.1,0.3-0.2C118.4,148.7,118.6,148.4,118.7,148.1z"/>
	<path id="XMLID_1429_" fill="#1B2B54" d="M56.4,111.2l-1.8,3.6c-0.8,1.5,1.5,2.9,2.4,1.4c0.6-1.2,1.3-2.4,1.8-3.6
		C59.6,111,57.2,109.6,56.4,111.2z"/>
	<path id="XMLID_1430_" fill="#1B2B54" d="M61.4,119.3c0.5-0.5,0.5-1.4,0-1.9c-0.5-0.5-1.5-0.5-1.9,0c-0.6,0.7-1.3,1.5-1.9,2.3
		c-0.5,0.5-0.5,1.4,0,1.9c0.5,0.5,1.5,0.5,1.9,0C60.1,120.8,60.7,120.1,61.4,119.3z"/>
	<path id="XMLID_1431_" fill="#1B2B54" d="M52,118c-0.5-0.5-1.4-0.5-1.9,0c-1.2,1.1-2.1,2.4-2.7,3.9c-0.3,0.7,0.3,1.5,0.9,1.6
		c0.8,0.2,1.4-0.3,1.6-0.9c0.5-1.1,1.3-1.9,2.1-2.7C52.5,119.5,52.4,118.5,52,118z"/>
	<path id="XMLID_1432_" fill="#1B2B54" d="M51.5,128.7c0.7,0.4,1.5,0.1,1.9-0.5c0.8-1.2,1.6-2.4,2.6-3.6c0.5-0.6,0.1-1.5-0.5-1.9
		c-0.7-0.4-1.5-0.1-1.9,0.5l-2.6,3.6C50.6,127.4,51,128.3,51.5,128.7z"/>
	<path id="XMLID_1433_" fill="#1B2B54" d="M55.7,129.7c-0.7-0.4-1.5-0.1-1.9,0.5c-0.7,1-1.5,2.1-2.3,3.1c-0.5,0.6-0.1,1.5,0.5,1.9
		c0.7,0.4,1.5,0.1,1.9-0.5c0.7-1,1.5-2.1,2.3-3.1C56.6,130.9,56.3,130,55.7,129.7z"/>
	<path id="XMLID_1434_" fill="#1B2B54" d="M57.9,138.7c1.3-1.2-0.6-3.2-1.9-1.9c-1.4,1.4-2.6,2.9-3.6,4.6c0,0.1-0.1,0.2-0.1,0.2
		c0,0,0,0.1-0.1,0.1c-0.7,1.3,0.7,2.5,1.8,1.9c0.1-0.1,0.1-0.1,0.2-0.2c0.1-0.1,0.2-0.3,0.4-0.5C55.5,141.3,56.5,140,57.9,138.7z"/>
	<path id="XMLID_1435_" fill="#1B2B54" d="M47.8,132c0.3-1,0.5-1.9,0.8-2.9c0.5-1.7-2.2-2.5-2.6-0.7c0,0,0,0.1,0,0.1
		c-0.1,0.2-0.1,0.4-0.2,0.6c-0.2,0.7-0.5,1.5-0.6,2.2c-0.4,1.3,1,2,1.9,1.5c0,0,0.1,0,0.1,0C47.4,132.7,47.6,132.4,47.8,132z"/>
	<path id="XMLID_1436_" fill="#1B2B54" d="M50.3,137.9c0.1-0.5,0.2-0.8,0.4-1.3c0.2-0.6-0.3-1.5-0.9-1.6c-0.5-0.2-1,0-1.3,0.4
		c0,0.1-0.1,0.1-0.1,0.2c-0.1,0.1-0.2,0.3-0.2,0.4c-0.2,0.5-0.3,0.8-0.5,1.3c-0.2,0.6,0.3,1.5,0.9,1.6c0.3,0.1,0.6,0,0.9-0.1
		c0.2-0.1,0.3-0.2,0.5-0.3C50.2,138.2,50.3,138.1,50.3,137.9z"/>
	<path id="XMLID_1437_" fill="#1B2B54" d="M46.2,100.7c1-1.5,1.3-3.2,1.5-4.9c0.2-1.1,0.2-2.3,0.6-3.4c0.2-0.6,0.5-1.2,1.1-1.6
		c1.2-1,2-0.7,2.3,0.7c-0.5,1.7,2.2,2.5,2.6,0.7c0.8-3.3-2.6-5.7-5.6-4.3c-4.6,2.2-2.7,7.8-4.9,11.5
		C42.8,100.8,45.2,102.1,46.2,100.7z"/>
	<path id="XMLID_1438_" fill="#1B2B54" d="M50.3,103c-0.2-0.7-0.9-1.1-1.6-0.9c-0.6,0.1-1.2,0.2-1.8,0.3c-0.7,0.1-1.1,1-0.9,1.6
		c0.2,0.7,0.9,1.1,1.6,0.9c0.6-0.1,1.2-0.2,1.8-0.3C50.1,104.6,50.4,103.8,50.3,103z"/>
	<path id="XMLID_1439_" fill="#1B2B54" d="M65.8,53.7c-5.7,3.7-9.8,8.9-12.2,15.4c-0.6,1.6,2,2.4,2.6,0.7
		c2.1-5.7,5.8-10.5,10.9-13.8C68.7,55.1,67.3,52.7,65.8,53.7z"/>
	<path id="XMLID_1440_" fill="#1B2B54" d="M61.6,68.9c-2.2,4.1-3.8,8.4-5,12.9c-0.1,0.5-0.3,1-0.4,1.5c-0.4,1.7,2.3,2.5,2.6,0.7
		c1.1-4.8,2.8-9.4,5.1-13.8C64.7,68.7,62.4,67.3,61.6,68.9z"/>
</g>
</svg>
