<?xml version="1.0" encoding="utf-8"?>
<!-- Generator: Adobe Illustrator 19.0.0, SVG Export Plug-In . SVG Version: 6.00 Build 0)  -->
<svg version="1.1" id="Layer_1" xmlns="http://www.w3.org/2000/svg" xmlns:xlink="http://www.w3.org/1999/xlink" x="0px" y="0px"
	 viewBox="-394.7 728.1 71.9 67.6" style="enable-background:new -394.7 728.1 71.9 67.6;" xml:space="preserve">
<style type="text/css">
	.st0{fill:#FFFFFF;}
	.st1{fill:#1F2642;}
	.st2{fill:#FA4011;}
	.st3{fill:#202642;}
</style>
<g>
	<path class="st0" d="M-370.7,758.9c-10.3,0-18.7,7.2-18.7,16s8.4,16,18.7,16s18.7-7.2,18.7-16S-360.3,758.9-370.7,758.9z"/>
	<g>
		<path class="st1" d="M-370.7,795.7c-13.3,0-24-9.3-24-20.8s10.8-20.8,24-20.8s24,9.3,24,20.8S-357.4,795.7-370.7,795.7z
			 M-370.7,758.9c-10.3,0-18.7,7.2-18.7,16s8.4,16,18.7,16s18.7-7.2,18.7-16S-360.3,758.9-370.7,758.9z"/>
	</g>
	<g>
		<path class="st2" d="M-341.6,737c-11.6,9.1-19.9,21.7-23,35.5c-0.1,0.4-0.4,0.7-0.8,0.8c-0.5,0.2-1.2,0.2-1.5-0.5
			c-4.4-8.2-7.9-16.7-10.7-25.5c-3.1,1.4-5.9,3.2-8.5,5.3c5.5,10.5,11,20.9,16.5,31.4c0,0.1,0.1,0.1,0.1,0.1
			c0.7,0.7,1.3,1.3,1.9,1.9c2.5-2.5,5.1-5,7.7-7.4c10.5-9.6,21.9-18.5,33.9-26.4c0,0,0.1,0,0.1-0.1c-3.7-6.7-5.9-14.1-6.4-21.5
			C-335.4,732.6-338.6,734.7-341.6,737z"/>
		<path class="st3" d="M-323,752.7c-4.3-7.2-6.7-15.3-6.9-23.5c0-1-1.3-1.4-1.9-0.9c-0.1,0-0.1,0.1-0.2,0.1
			c-13.8,7.1-24.8,18.6-30.9,32.1c-1.3,2.9-2.4,5.9-3.2,9c-3.9-7.6-7.1-15.6-9.6-23.7c-0.2-0.7-0.9-1.1-1.6-0.8
			c-3.6,1.5-6.9,3.5-9.9,5.9c-0.8-0.4-2.1,0.4-1.6,1.4c5.6,10.8,11.3,21.6,17,32.4c0,0.2,0.1,0.5,0.3,0.7c1,1,2.1,2.1,3.1,3.1
			c0.6,0.6,1.3,0.5,1.8-0.1c9.9-9.9,20.7-19.1,32.3-27.5c3.2-2.4,6.6-4.6,9.9-6.8C-323.5,754.4-322.4,753.6-323,752.7z
			 M-359.8,778.8c-2.7,2.4-5.2,4.9-7.7,7.4c-0.7-0.7-1.3-1.3-1.9-1.9c0-0.1-0.1-0.1-0.1-0.1c-5.5-10.5-11-20.9-16.5-31.4
			c2.6-2.2,5.4-3.9,8.5-5.3c2.7,8.8,6.3,17.3,10.7,25.5c0.3,0.6,1,0.7,1.5,0.5c0.4-0.1,0.7-0.4,0.8-0.8
			c3.1-13.8,11.3-26.5,22.9-35.5c3-2.3,6.2-4.4,9.5-6.2c0.5,7.5,2.6,14.9,6.4,21.5c0,0-0.1,0-0.1,0.1
			C-337.9,760.3-349.2,769.1-359.8,778.8z"/>
	</g>
</g>
</svg>
