<?xml version="1.0" encoding="utf-8"?>
<!-- Generator: Adobe Illustrator 19.0.0, SVG Export Plug-In . SVG Version: 6.00 Build 0)  -->
<svg version="1.2" baseProfile="tiny" id="Layer_1" xmlns="http://www.w3.org/2000/svg" xmlns:xlink="http://www.w3.org/1999/xlink"
	 x="0px" y="0px" viewBox="129 376.6 870 41.4" xml:space="preserve">
<g>
	<g>
		<path fill="#0E71B8" d="M877.7,413.4c0,1.4-0.2,2.7-0.6,4h4.4c0.4-1.2,0.6-2.6,0.6-3.9c0-7.6-6.6-13.8-14.7-13.8
			c-0.2,0-0.3,0-0.5,0c0.4,0,0.7,0,1.1,0.1C873.6,401.8,877.7,407.2,877.7,413.4z"/>
		<path fill="#11213F" d="M852.6,413.5c0,1.4,0.2,2.7,0.6,3.9h23.9c1.1-2.3,1.6-5.5,1.6-7.1c0-2.2-0.6-10.9-11.9-10.6
			C859,400,852.6,406,852.6,413.5z M863.5,406.3c1.9,0,1.4-1.3,1.4,1.1C864.9,409.2,861.5,406.3,863.5,406.3z"/>
		<path fill="#80D0E6" d="M862.8,411.4c1.7,0,4-2.1,4-3.7c0-2.1-1.4-2.8-3.1-2.8s-3.5,2.2-3.5,3.8
			C860.2,410.3,861,411.4,862.8,411.4z"/>
	</g>
	<g>
		<path fill="#0E71B8" d="M855.4,414.5c0,1.2-0.2,2.4-0.5,3.5h3.8c0.3-1.1,0.5-2.3,0.5-3.5c0-6.8-5.7-12.3-12.7-12.3
			c-0.1,0-0.3,0-0.4,0c0.3,0,0.6,0,0.9,0.1C851.9,404.1,855.4,408.9,855.4,414.5z"/>
		<path fill="#11213F" d="M833.8,414.5c0,1.2,0.2,2.4,0.5,3.5h20.5c1-2,1.4-4.9,1.4-6.3c0-1.9-0.5-9.8-10.2-9.4
			C839.3,402.5,833.8,407.9,833.8,414.5z M843.2,408.1c1.7,0,1.2-1.2,1.2,1C844.4,410.7,841.5,408.1,843.2,408.1z"/>
		<path fill="#80D0E6" d="M842.5,412.6c1.5,0,3.5-1.8,3.5-3.3c0-1.9-1.2-2.5-2.7-2.5c-1.5,0-3,1.9-3,3.3
			C840.3,411.6,841.1,412.6,842.5,412.6z"/>
	</g>
</g>
<g id="XMLID_534_">
	<rect id="XMLID_535_" x="261.6" y="399.1" fill="#172141" width="1.6" height="16.2"/>
	<polygon id="XMLID_536_" fill="#276FB7" points="248.5,400.7 276.2,400.7 262.4,376.6 	"/>
	<polygon id="XMLID_537_" fill="#172141" points="249.7,398.5 271.5,398.5 260.6,379.6 	"/>
	<path id="XMLID_34_" fill="#82CDE3" d="M256.9,395.9c2.3-4.1,4.6-8.1,6.9-12.2c0.7-1.2-1.2-2.3-1.9-1.1c-2.3,4.1-4.6,8.1-6.9,12.2
		C254.3,396,256.2,397.1,256.9,395.9z"/>
</g>
<g id="XMLID_562_">
	<rect id="XMLID_563_" x="913.6" y="399.1" fill="#172141" width="1.6" height="16.2"/>
	<polygon id="XMLID_564_" fill="#276FB7" points="900.5,400.7 928.2,400.7 914.4,376.6 	"/>
	<polygon id="XMLID_565_" fill="#172141" points="901.7,398.5 923.5,398.5 912.6,379.6 	"/>
	<path id="XMLID_33_" fill="#82CDE3" d="M908.9,395.9c2.3-4.1,4.6-8.1,6.9-12.2c0.7-1.2-1.2-2.3-1.9-1.1c-2.3,4.1-4.6,8.1-6.9,12.2
		C906.3,396,908.2,397.1,908.9,395.9z"/>
</g>
<path id="XMLID_578_" fill="#202642" d="M992.3,418h-23c-0.8,0-1.5-0.7-1.5-1.5l0,0c0-0.8,0.7-1.5,1.5-1.5h23c0.8,0,1.5,0.7,1.5,1.5
	l0,0C993.8,417.4,993.1,418,992.3,418z"/>
<path id="XMLID_580_" fill="#202642" d="M816.6,418h-4.8c-0.8,0-1.5-0.7-1.5-1.5l0,0c0-0.8,0.7-1.5,1.5-1.5h4.8
	c0.8,0,1.5,0.7,1.5,1.5l0,0C818.1,417.4,817.4,418,816.6,418z"/>
<path id="XMLID_581_" fill="#202642" d="M792.1,418h-75c-0.8,0-1.5-0.7-1.5-1.5l0,0c0-0.8,0.7-1.5,1.5-1.5h75c0.8,0,1.5,0.7,1.5,1.5
	l0,0C793.6,417.4,792.9,418,792.1,418z"/>
<path id="XMLID_582_" fill="#202642" d="M704.4,418H283.6c-0.8,0-1.5-0.7-1.5-1.5l0,0c0-0.8,0.7-1.5,1.5-1.5h420.8
	c0.8,0,1.5,0.7,1.5,1.5l0,0C705.9,417.4,705.2,418,704.4,418z"/>
<path id="XMLID_583_" fill="#202642" d="M274.7,418H246c-0.8,0-1.5-0.7-1.5-1.5l0,0c0-0.8,0.7-1.5,1.5-1.5h28.8
	c0.8,0,1.5,0.7,1.5,1.5l0,0C276.2,417.4,275.6,418,274.7,418z"/>
<g>
	<g>
		<circle fill="#0E71B8" cx="473" cy="391.6" r="11"/>
		<path fill="#11213F" d="M480.7,391.5c0-5-3-9.3-7.3-10.9c-0.4-0.1-0.9-0.1-1.3-0.1c-6.1,0-11,4.9-11,11c0,6.1,4.9,11,11,11
			c0.3,0,0.7,0,1-0.1C477.5,401,480.7,396.7,480.7,391.5z"/>
	</g>
	<rect id="XMLID_1_" x="471.7" y="400.8" fill="#172141" width="1.6" height="15.5"/>
	<path fill="#80D0E6" d="M472.5,387.3c0,1.4-1.9,3.3-3.4,3.3c-1.4,0-2.2-1-2.2-2.4s1.5-3.4,2.9-3.4S472.5,385.3,472.5,387.3z"/>
</g>
<g>
	<g>
		<circle fill="#0E71B8" cx="740.9" cy="392.6" r="11"/>
		<path fill="#11213F" d="M748.6,392.5c0-5-3-9.3-7.3-10.9c-0.4-0.1-0.9-0.1-1.3-0.1c-6.1,0-11,4.9-11,11c0,6.1,4.9,11,11,11
			c0.3,0,0.7,0,1-0.1C745.4,402,748.6,397.7,748.6,392.5z"/>
	</g>
	<rect id="XMLID_2_" x="739.7" y="401.8" fill="#172141" width="1.6" height="15.5"/>
	<path fill="#80D0E6" d="M740.4,388.3c0,1.4-1.9,3.3-3.4,3.3c-1.4,0-2.2-1-2.2-2.4s1.5-3.4,2.9-3.4
		C739.3,385.7,740.4,386.3,740.4,388.3z"/>
</g>
<path id="XMLID_579_" fill="#202642" d="M959,418H828.2c-0.8,0-1.5-0.7-1.5-1.5l0,0c0-0.8,0.7-1.5,1.5-1.5H959
	c0.8,0,1.5,0.7,1.5,1.5l0,0C960.5,417.4,959.8,418,959,418z"/>
<g>
	<g>
		<path fill="#0E71B8" d="M201,413.4c0,1.4-0.2,2.7-0.6,4h4.4c0.4-1.2,0.6-2.6,0.6-3.9c0-7.6-6.6-13.8-14.7-13.8c-0.2,0-0.3,0-0.5,0
			c0.4,0,0.7,0,1.1,0.1C196.9,401.8,201,407.2,201,413.4z"/>
		<path fill="#11213F" d="M175.9,413.5c0,1.4,0.2,2.7,0.6,3.9h23.9c1.1-2.3,1.6-5.5,1.6-7.1c0-2.2-0.6-10.9-11.9-10.6
			C182.3,400,175.9,406,175.9,413.5z M186.8,406.3c1.9,0,1.4-1.3,1.4,1.1C188.2,409.2,184.8,406.3,186.8,406.3z"/>
		<path fill="#80D0E6" d="M186.1,411.4c1.7,0,4-2.1,4-3.7c0-2.1-1.4-2.8-3.1-2.8c-1.7,0-3.5,2.2-3.5,3.8
			C183.5,410.3,184.3,411.4,186.1,411.4z"/>
	</g>
	<g>
		<path fill="#0E71B8" d="M178.7,414.5c0,1.2-0.2,2.4-0.5,3.5h3.8c0.3-1.1,0.5-2.3,0.5-3.5c0-6.8-5.7-12.3-12.7-12.3
			c-0.1,0-0.3,0-0.4,0c0.3,0,0.6,0,0.9,0.1C175.2,404.1,178.7,408.9,178.7,414.5z"/>
		<path fill="#11213F" d="M157.1,414.5c0,1.2,0.2,2.4,0.5,3.5h20.5c1-2,1.4-4.9,1.4-6.3c0-1.9-0.5-9.8-10.2-9.4
			C162.6,402.5,157.1,407.9,157.1,414.5z M166.4,408.1c1.7,0,1.2-1.2,1.2,1C167.7,410.7,164.8,408.1,166.4,408.1z"/>
		<path fill="#80D0E6" d="M165.8,412.6c1.5,0,3.5-1.8,3.5-3.3c0-1.9-1.2-2.5-2.7-2.5s-3,1.9-3,3.3
			C163.6,411.6,164.4,412.6,165.8,412.6z"/>
	</g>
</g>
<path id="XMLID_584_" fill="#202642" d="M228.5,418h-92.8c-0.8,0-1.5-0.7-1.5-1.5l0,0c0-0.8,0.7-1.5,1.5-1.5h92.8
	c0.8,0,1.5,0.7,1.5,1.5l0,0C230,417.4,229.3,418,228.5,418z"/>
</svg>
