<?xml version="1.0" encoding="utf-8"?>
<!-- Generator: Adobe Illustrator 19.0.0, SVG Export Plug-In . SVG Version: 6.00 Build 0)  -->
<svg version="1.2" baseProfile="tiny" id="Layer_1" xmlns="http://www.w3.org/2000/svg" xmlns:xlink="http://www.w3.org/1999/xlink"
	 x="0px" y="0px" viewBox="0 0 10.3 18.4" xml:space="preserve">
<path fill="#FFFFFF" d="M10.3,17.4c0-0.3-0.1-0.5-0.3-0.7L2.4,9.2l7.5-7.5c0.4-0.4,0.4-1,0-1.4s-1-0.4-1.4,0L0.3,8.5
	C0.1,8.7,0,8.9,0,9.2v0c0,0.3,0.1,0.5,0.3,0.7l8.3,8.3c0.2,0.2,0.4,0.3,0.7,0.3h0c0.3,0,0.5-0.1,0.7-0.3
	C10.2,18,10.3,17.7,10.3,17.4L10.3,17.4z"/>
</svg>
