<?xml version="1.0" encoding="utf-8"?>
<!-- Generator: Adobe Illustrator 19.0.0, SVG Export Plug-In . SVG Version: 6.00 Build 0)  -->
<svg version="1.2" baseProfile="tiny" id="Layer_1" xmlns="http://www.w3.org/2000/svg" xmlns:xlink="http://www.w3.org/1999/xlink"
	 x="0px" y="0px" viewBox="0 0 1556.8 961.4" xml:space="preserve">
<g>
	<path fill="none" d="M1212,881.8c0.3,0.3,0.6,0.5,1,0.8C1215.2,884.5,1213.5,883,1212,881.8z"/>
	<path fill="none" d="M911.3,716.5c-0.2-0.2,1.6,2,2.4,3C912.9,718.5,912.2,717.4,911.3,716.5z"/>
	<path fill="#FFFFFF" d="M788.5,8.8c-5.2,5.7-9.1,13.2-8.8,21.2c0.4,8.4,3.4,14.8,8.8,21.2c36.9,44.3,89.1,76.2,144.7,91
		c27.7,7.4,57.1,10.9,85.8,9.5c33.5-1.7,67.4-9,96.6-26c31.2-18.1,56.8-48.3,65.2-83.9c3.6-15.2-4.8-33.2-21-36.9
		c-15.4-3.5-33,4.6-36.9,21c-0.9,3.7-2,7.4-3.3,11c-2.4,5.1-5.3,10.1-8.6,14.7c-0.8,0.9-1.5,1.9-2.3,2.8c-2.4,2.7-4.9,5.3-7.5,7.8
		c-1.1,1.1-2.3,2.1-3.4,3.1c-0.4,0.3-1.9,1.5-2.8,2.3c-0.4,0.3-0.7,0.5-0.9,0.7c-1.3,0.9-2.5,1.7-3.8,2.6
		c-5.5,3.5-11.2,6.6-17.1,9.3c-12.6,4.9-25.8,8.2-39.2,10.3c-18.8,2.1-37.8,2-56.6-0.2c-20.1-3.1-39.7-8.5-58.5-16
		c-17.4-7.7-34-17.1-49.4-28.3c-0.8-0.6-1.7-1.2-2.5-1.8c-0.6-0.5-1-0.8-1.3-1c-1-0.8-2-1.7-3-2.6c-3.8-3.2-7.5-6.4-11.1-9.8
		c-7.4-6.9-14.3-14.3-20.8-22.1C826.3,3.2,816.7,0,809.7,0h0C802.3,0,793.6,3.3,788.5,8.8z"/>
	<path fill="#FFFFFF" d="M8.6,705.5C65.4,759,144.8,782,221.8,779.7c86.2-2.7,167.8-35.2,244.2-72.8c39.7-19.5,78.5-40.8,119.2-58.2
		c30.6-12.6,62.3-22.8,95.2-27.7c21.1-2.4,42.3-2.5,63.5,0c22.3,3.4,44.1,9.4,65,17.8c12,5.3,23.6,11.3,34.8,18.1
		c6.2,3.7,12.2,7.7,18,11.9c1.5,1.1,3,2.2,4.5,3.3c0.6,0.5,1.3,1,1.9,1.4c2.6,1.9-3.3-2.4-2.9-2.3c3.1,1.6,6,4.8,8.7,7.1
		c11,9.3,21.4,19.6,30.8,30.5c2.3,2.7,4.5,5.3,6.7,8.1c0.7,0.8,1.3,1.7,2,2.5c0.1,0.1,0.2,0.2,0.2,0.3c0.3,0.5,0.6,0.9,0.9,1.4
		c4.3,5.9,8.4,11.9,12.3,18.1c8.1,13,15.2,26.5,21.3,40.5c9.5,23.5,16.2,48,20,73c1.9,15.7,2.6,31.5,2.2,47.3
		c-0.4,15.7,14.1,30.7,30,30c16.6-0.7,29.5-13.2,30-30c1.6-56.8-11.5-113.4-36.7-164.2c-24.8-50-62.8-92.7-109.1-123.8
		c-46.5-31.2-101.5-49.3-157.3-52.5c-60-3.5-117.7,14-172.2,37.3c-59.1,25.3-114.6,58.1-173.6,83.4c-41.2,17-83.8,30.7-128,37.1
		c-26.9,3.2-54,3.5-80.9,0.3c-21.8-3.3-43.2-8.9-63.6-17.1C98,695.6,87.5,690,77.4,683.7c-2.8-1.8-5.6-3.7-8.4-5.6
		c-1.6-1.1-7-5.4-5.8-4.3c-4.2-3.4-8.3-7-12.3-10.7c-11.4-10.8-31.2-12.2-42.4,0C-2.1,674.7-3.6,694,8.6,705.5z M911.3,716.5
		c0.9,0.8,1.6,2,2.4,3C912.8,718.5,911.1,716.3,911.3,716.5z"/>
	<path fill="#FFFFFF" d="M1542.3,336.1c-13.9-7.4-33.1-4-41,10.8c-2.2,4.1-4.5,8-7.1,11.8c-0.5,0.7-1,1.4-1.5,2.2
		c-1,1.3-2.1,2.5-3.2,3.7c-3,3.4-6.2,6.7-9.6,9.8c-1.9,1.7-3.8,3.4-5.7,5.1c-0.8,0.7-1.6,1.3-2.3,1.9c-0.3,0.2-0.5,0.4-0.7,0.5
		c-1,0.8-2.1,1.5-3.1,2.3c-1.9,1.3-3.8,2.6-5.8,3.9c-3.9,2.5-7.9,4.9-12,7.2c-7.4,4.1-15,7.8-22.7,11.2
		c-25.7,10.4-52.4,17.7-78.6,26.5c-25.9,8.6-51.4,18.9-75,32.8c-42.9,25.3-79.2,60.1-108,100.6c-27.3,38.5-47.2,83.6-56.3,129.9
		c-11,55.7-8.9,113.9,14,166.4c24.7,56.5,82.7,101.1,146.1,98.9c15.7-0.6,30.7-13.4,30-30c-0.7-15.8-13.2-30.6-30-30
		c-4.7,0.2-9.4,0-14.1-0.4c-7.2-1.3-14.3-3.3-21.2-5.9c-6.6-3.1-13-6.7-19-10.8c-0.4-0.3-3.3-2.6-4.5-3.3c-0.3-0.3-0.6-0.5-0.9-0.8
		c-3.3-2.8-6.5-5.8-9.5-8.9c-2.8-2.9-5.5-5.9-8.1-9.1c-0.2-0.2-0.3-0.4-0.4-0.6c-1.2-1.6-2.3-3.3-3.4-5c-4.7-7.1-8.7-14.7-12.3-22.4
		c-5.6-14.2-9.3-28.9-11.7-43.9c-2.4-21.3-2.2-42.8,0.4-64c3.7-24.4,10.3-48.3,19.6-71.2c5.7-13,12.1-25.6,19.5-37.7
		c4-6.7,8.3-13.3,12.8-19.7c2.1-2.9,4.2-5.8,6.3-8.7c1.3-1.7,2.7-3.4,4.1-5.1c9.9-12.1,20.8-23.4,32.3-33.9
		c5.6-5.1,12.1-9.4,17.5-14.7c1.4-1.1,2.9-2.1,4.3-3.2c3.4-2.4,6.8-4.8,10.3-7c13.9-9.1,28.6-17,43.8-23.7
		c31.1-12.6,63.8-20.8,95.3-32.3c32-11.7,62.2-26.6,88-49.2c13.7-12,25.6-26.7,34.2-42.7C1560.5,363.4,1557,343.9,1542.3,336.1z
		 M1213,882.6c-0.3-0.3-0.6-0.5-1-0.8C1213.5,883,1215.2,884.5,1213,882.6z"/>
</g>
</svg>
