<?xml version="1.0" encoding="utf-8"?>
<!-- Generator: Adobe Illustrator 19.0.0, SVG Export Plug-In . SVG Version: 6.00 Build 0)  -->
<svg version="1.2" baseProfile="tiny" id="Layer_1" xmlns="http://www.w3.org/2000/svg" xmlns:xlink="http://www.w3.org/1999/xlink"
	 x="0px" y="0px" viewBox="0 0 251.1 127.9" xml:space="preserve">
<polygon fill="#FFFFFF" points="125.6,59.5 109.5,43.5 93.5,59.5 109.5,75.5 125.6,91.5 141.6,75.5 157.6,59.5 141.6,43.5 "/>
<g>
	<circle fill="none" cx="125.7" cy="63.9" r="46"/>
	<path fill="#FFFFFF" d="M119,0.3c-13.3,0.4-26.4,3.1-39.4,7.9c-16.2,6-30.9,14.7-44.8,25C22.8,42.2,11.5,52.1,0,63.7v0
		c21.1,20.8,42.8,38.7,68.8,50.9c18.7,8.8,37.7,13.8,56.8,13.4c19.1,0.4,38-4.6,56.8-13.4c25.9-12.1,47.6-30.1,68.8-50.9
		c-11.5-11.6-22.8-21.5-34.8-30.4c-13.8-10.3-28.6-19-44.8-25c-12.8-4.7-25.8-7.4-39-7.8C130.3,0.1,128,0,125.7,0h0
		C123.4,0,121.2,0.1,119,0.3z M171.7,63.9c0,25.4-20.6,46-46,46s-46-20.6-46-46c0-25.4,20.6-46,46-46S171.7,38.5,171.7,63.9z"/>
</g>
</svg>
