<?xml version="1.0" encoding="utf-8"?>
<!-- Generator: Adobe Illustrator 19.0.0, SVG Export Plug-In . SVG Version: 6.00 Build 0)  -->
<svg version="1.2" baseProfile="tiny" id="Слой_2__x28_копия_x29_"
	 xmlns="http://www.w3.org/2000/svg" xmlns:xlink="http://www.w3.org/1999/xlink" x="0px" y="0px" viewBox="124 -242.7 860 1276.7"
	 xml:space="preserve">
<g>
	<path fill="#FFFFFF" d="M183.7,915.4c0,29.6,12.1,56.6,31.5,76.3c0,0.1,0,0.2,0.1,0.2c0,0,0.1,0,0.1,0.1c0.1,0,0.1,0,0.1,0
		c0,0,0,0.1,0.1,0.1c15.2,8.1,32.5,12.8,51.1,12.8h523.8c59.8,0,108.4-48.6,108.4-108.4V-143.8c0-20.5-5.7-39.5-15.5-55.8
		c-4.5-7.4-9.8-14.2-15.9-20.2c0.1,0.1,0.3,0.1,0.4,0.2c0,0,0,0-0.1-0.1c-15.3-8.4-32.9-13.2-51.8-13.2H291.9
		c-29.8,0-56.9,12.1-76.5,31.7c-19.6,19.6-31.7,46.7-31.7,76.5V915.4z M598.3,914.9c0,27.9-22.6,50.5-50.5,50.5
		c-27.7,0-50.5-22.6-50.5-50.5c0-0.1,0-0.1,0-0.2c0-0.1,0-0.1,0-0.1c0-27.9,22.8-50.5,50.5-50.5c27.9,0,50.5,22.6,50.5,50.5
		c0,0.1,0,0.1,0,0.1C598.2,914.8,598.3,914.8,598.3,914.9z M549.3-178.8c8.9,0,16.2,7.3,16.2,16.2c0,8.9-7.3,16.2-16.2,16.2
		c-8.9,0-16.2-7.3-16.2-16.2C533-171.6,540.4-178.8,549.3-178.8z M243.3-64.4c0-17.5,14.3-31.8,31.8-31.8h559.4
		c17.5,0,31.8,14.3,31.8,31.8v858.2c0,17.5-14.3,31.8-31.8,31.8H275c-17.5,0-31.8-14.3-31.8-31.8V-64.4z"/>
	<g>
		<path fill="none" d="M865.3,793.8c0,17.5-14.3,31.8-31.8,31.8H274c-17.5,0-31.8-14.3-31.8-31.8V-64.4c0-17.5,14.3-31.8,31.8-31.8
			h559.4c17.5,0,31.8,14.3,31.8,31.8V793.8z"/>
		<path fill="none" stroke="#202642" stroke-width="3" stroke-miterlimit="10" d="M865.3,793.8c0,17.5-14.3,31.8-31.8,31.8H274
			c-17.5,0-31.8-14.3-31.8-31.8V-64.4c0-17.5,14.3-31.8,31.8-31.8h559.4c17.5,0,31.8,14.3,31.8,31.8V793.8z"/>
	</g>
	<path fill="none" d="M541-162.6c0-0.3,0-0.6,0-0.8C541-163.2,541-162.9,541-162.6z"/>
	<path fill="none" d="M543,957.3c-0.3,0-0.5-0.1-0.8-0.2C542.5,957.3,542.8,957.3,543,957.3z"/>
	<path fill="none" d="M541.2-164.6c0-0.2,0.1-0.3,0.1-0.5C541.3-165,541.2-164.8,541.2-164.6z"/>
	<path fill="none" d="M541-163.8c0-0.2,0-0.3,0.1-0.5C541.1-164.2,541.1-164,541-163.8z"/>
	<path fill="none" d="M254.1,1018.1c-0.5-0.3-1.1-0.5-1.6-0.7C253,1017.8,253.6,1018,254.1,1018.1z"/>
	<path fill="none" d="M541.4-165.3c0.1-0.2,0.1-0.4,0.2-0.6C541.5-165.7,541.5-165.5,541.4-165.3z"/>
	<path fill="none" d="M224,1000.2c-0.2-0.1-0.4-0.3-0.6-0.5c0.2,0.3,0.5,0.5,0.8,0.7C224.1,1000.3,224,1000.2,224,1000.2z"/>
	<path fill="none" d="M224.7,1001c0.5,0.6,1.1,1.1,1.9,1.6C226,1001.9,225.4,1001.4,224.7,1001z"/>
	<path fill="none" d="M547.8,965.1c-27.7,0-50.4-22.5-50.5-50.4c0,0.1,0,0.1,0,0.2c0,27.9,22.8,50.5,50.5,50.5
		c27.9,0,50.5-22.6,50.5-50.5c0-0.1,0-0.1,0-0.2C598.2,942.5,575.4,965.1,547.8,965.1z"/>
	<path fill="none" d="M557.5-162.6c0-4.5-3.5-8.3-8.3-8.3C553.8-170.9,557.5-167.2,557.5-162.6z"/>
	<path fill="none" d="M549.3-170.9c-3.5,0-6.4,2.1-7.6,5C542.9-168.9,545.8-170.9,549.3-170.9z"/>
	<path fill="none" d="M549.3-154.3c4.5,0,8.3-3.5,8.3-8.3C557.5-158.1,553.8-154.3,549.3-154.3z"/>
	<path fill="none" d="M216.3,992.9c-0.1,0-0.2-0.1-0.2-0.1c0.1,0.1,0.3,0.2,0.4,0.3C216.4,993,216.4,992.9,216.3,992.9z"/>
	<path fill="none" d="M541.4,957c-0.5-0.1-1.1-0.2-1.7-0.3C540.3,956.9,540.8,957,541.4,957z"/>
	<path fill="none" d="M219.5,996.2c0.2,0.3,0.5,0.5,0.8,0.7C220.1,996.5,219.7,996.3,219.5,996.2z"/>
	<path fill="none" d="M514.7,940.7c0.2,0.3,0.4,0.5,0.6,0.8c6.9,5.4,15.9,8.7,25.5,8.7c10.9,0,20.9-4.2,28.3-11.1
		c-7.5,6.7-17.5,10.8-28.3,10.8C530.9,949.9,522,946.4,514.7,940.7z"/>
	<path fill="none" d="M924.4-132.3c-0.6-7.3-1.9-14.6-3.8-21.6v-0.3c-1.3-4.8-2.9-9.3-4.8-13.7c-1-2.3-2.2-4.5-3.2-6.4
		c-0.3,0-0.3-0.3-0.3-0.3c-2.2-4.2-4.8-8.3-7.3-12.1l-0.3-0.3c-1.2-1.9-2.8-3.5-4.1-5.4c-2.3-2.6-4.6-5.3-7-7.8
		c2.4,2.5,4.6,5.1,6.9,7.7c-3.1-3.5-6.3-7-9.5-10.2c-0.2-0.2-0.2-0.2-0.5-0.5c-3.2-3.2-6.7-6-10.5-8.9c-0.3,0-0.3-0.3-0.6-0.3
		c-0.1-0.1-0.2-0.1-0.3-0.2c-1.5-0.9-3.2-2-4.7-3.2c-0.1,0-0.1-0.1-0.2-0.1c0,0,0,0,0,0c0,0-0.1,0-0.1-0.1c0,0,0.1,0,0.1,0.1
		c0-0.2-0.3-0.3-0.6-0.6C856.9-227,837.2-233,816.2-233H292.1c-29.9,0-57.1,12.2-76.7,31.9c19.6-19.6,46.7-31.7,76.5-31.7H816
		c18.9,0,36.6,4.7,51.8,13.2c-0.1-0.2-0.3-0.3-0.4-0.5c2.2,1.3,4.1,2.2,6,3.5c0,0.3,0.3,0.3,0.6,0.6c1.6,1.3,3.5,2.2,5.1,3.5
		c0.3,0,0.3,0.3,0.6,0.3c1,0.8,2.1,1.7,3.1,2.5c0.7,0.5,1.3,1.1,2,1.6c1.9,1.5,3.7,3.1,5.4,4.7c0.3,0.3,0.3,0.3,0.6,0.6
		c3.5,3.2,6.6,6.7,9.5,10.2c1.6,1.6,2.8,3.5,4.1,5.4l0.3,0.3c1,1.5,2,3,2.9,4.6c0.1,0.2,0.3,0.4,0.4,0.6c0.2,0.3,0.4,0.6,0.5,0.9
		c0.1,0.1,0.1,0.2,0.2,0.3c1.1,1.9,2.3,3.8,3.3,5.7c0.3,0,0.3,0.3,0.3,0.3c0.9,1.6,1.6,3,2.3,4.4c0.3,0.6,0.6,1.3,0.9,2c0,0,0,0,0,0
		c1.9,4.5,3.5,8.9,4.8,13.7v0.3c0.2,0.9,0.5,1.8,0.7,2.6s0.4,1.8,0.6,2.7c0.4,1.8,0.8,3.6,1.1,5.4c0.3,1.8,0.6,3.6,0.8,5.4
		c0.2,1.8,0.4,3.6,0.6,5.5v0.3c0.3,2.5,0.3,5.1,0.3,7.6V915.9c0,0.9,0,1.9,0,2.8c-0.1,2.8-0.2,5.5-0.5,8.3c-0.2,1.8-0.4,3.6-0.7,5.4
		s-0.6,3.6-1,5.3c-0.2,0.9-0.4,1.8-0.6,2.6c-0.4,1.7-0.9,3.5-1.3,5.2c-1.5,5.1-3.3,10.1-5.5,14.9c-1.1,2.4-2.3,4.8-3.5,7.1
		c-0.8,1.5-1.7,3-2.6,4.5c-0.9,1.5-1.8,3-2.8,4.4c-0.5,0.7-1,1.4-1.5,2.1c-1.5,2.1-3.1,4.2-4.8,6.2c-2.8,3.3-5.7,6.5-8.9,9.5
		c-1.3,1.2-2.5,2.4-3.9,3.5c-1.3,1.1-2.7,2.2-4,3.3c-2,1.6-4.2,3.1-6.3,4.6c28.9-19.5,47.9-52.4,48.1-89.6V-124.4
		c0-2.5,0-5.1-0.3-7.6V-132.3z"/>
	<path fill="none" d="M883.3-199.6c-4.4-7.2-9.6-14-15.5-20c-0.1-0.1-0.3-0.2-0.4-0.2C873.5-213.8,878.8-207,883.3-199.6z"/>
	<path fill="none" d="M583.4,891.7C583.3,891.6,583.3,891.6,583.4,891.7c-2.2-3.3-4.9-6.3-8-8.9c0.4,0.5,0.7,1,1,1.5
		c2.4,2.3,4.6,4.8,6.3,7.5l0.3,0.3c0.6,1.3,1.3,2.2,1.9,3.5c0.3,0.4,0.3,0.7,0.6,1c0.3,1.3,1,2.2,1.3,3.2c0.3,0.3,0.6,1,0.6,1.3
		c0.4,1,0.7,1.9,1,2.9c0,0.6,0.3,1,0.3,1.6c0.3,1,0.6,2.2,0.6,3.2c0.3,0.6,0.3,1,0.3,1.6c0.3,1.6,0.3,3.2,0.3,4.8
		c0,23.6-19,42.6-42.3,42.5c0.1,0,0.2,0,0.3,0c23.5,0,42.6-19.1,42.6-42.6c0-1.6,0-3.2-0.3-4.8c0-0.6-0.3-1-0.3-1.6
		c-0.3-1-0.3-2.2-0.6-3.2c0-0.6-0.3-1-0.3-1.6c-0.4-1-0.7-1.9-1-2.9c-0.3-0.3-0.3-1-0.6-1.3c0,0,0,0,0,0c-0.2-0.7-0.7-1.7-1-2.5
		c-0.1-0.2-0.2-0.5-0.3-0.7c-0.3-0.4-0.3-0.7-0.6-1c0,0,0,0,0,0c-0.7-1.2-1.3-2.2-1.9-3.5c0,0,0,0,0,0L583.4,891.7z M590.3,914.9
		c0-1.9-0.3-3.5-0.3-4.8C590.3,911.7,590.3,913.3,590.3,914.9z M589.7,908.6c-0.3-1-0.3-2.2-0.6-3.2
		C589.4,906.3,589.7,907.6,589.7,908.6z M588.8,903.8c-0.4-1-0.7-1.9-1-2.9C588,901.9,588.4,902.8,588.8,903.8z"/>
	<path fill="none" d="M223.3,999.7C223.3,999.7,223.3,999.7,223.3,999.7c0.2,0.2,0.5,0.4,0.7,0.5
		C223.7,1000,223.5,999.8,223.3,999.7z"/>
	<path fill="#FFFFFF" d="M882.8-209.7c0.7,0.5,1.3,1.1,2,1.6C884.1-208.7,883.4-209.2,882.8-209.7z"/>
	<path fill="#FFFFFF" d="M879.1-212.7c-1.5-1.2-3.2-2.3-4.7-3.2C875.9-214.7,877.6-213.6,879.1-212.7z"/>
	<path fill="#FFFFFF" d="M874.2-216C874.2-216,874.2-216,874.2-216C874.2-216,874.2-216,874.2-216C874.2-216,874.2-216,874.2-216z"
		/>
	<path fill="#FFFFFF" d="M914.5-170.1c0.3,0.6,0.6,1.3,0.9,2C915.1-168.8,914.8-169.4,914.5-170.1z"/>
	<path fill="#FFFFFF" d="M908.5-180.7c0.1,0.1,0.1,0.2,0.2,0.3C908.6-180.6,908.6-180.7,908.5-180.7z"/>
	<path fill="#FFFFFF" d="M907.6-182.2c0.1,0.2,0.3,0.4,0.4,0.6C907.8-181.8,907.7-182,907.6-182.2z"/>
	<path fill="#FFFFFF" d="M893.5-200.3c-0.8-0.8-1.6-1.6-2.5-2.4c0,0-0.1-0.1-0.1-0.1c3.2,3.2,6.4,6.7,9.5,10.2
		C898.1-195.2,895.9-197.8,893.5-200.3z"/>
	<path fill="#FFFFFF" d="M215.7,992.4c0.1,0.2,0.3,0.3,0.4,0.4c0.1,0,0.2,0.1,0.2,0.1C216.1,992.7,215.9,992.5,215.7,992.4z"/>
	<path fill="#162040" d="M816-240.8H292c-64.2,0-116.3,52.1-116.3,116.3V915.9c0,64.2,52.1,116.3,116.3,116.3h524
		c64.2,0,116.4-52.1,116.4-116.3V-124.6C932.4-188.8,880.3-240.8,816-240.8z M214.9,992.1c0.7,0.7,1,1,1.3,1.3
		C215.9,993.1,215.2,992.8,214.9,992.1z M219.1,995.9c0.3,0.4,0.6,0.7,1.3,1.3C220.1,996.9,219.4,996.6,219.1,995.9z M231.2,1005.8
		c0.4,0.2,0.6,0.4,1,0.6c0.2,0.1,0.4,0.2,0.6,0.4c-0.3-0.1-0.4-0.2-0.6-0.4C231.8,1006.2,231.5,1006,231.2,1005.8z M924.7,916.2
		c-0.2,37.1-19.2,70.1-48.1,89.6c0,0,0,0,0,0c-1.4,1-2.9,1.9-4.4,2.8c-2.2,1.4-4.5,2.6-6.9,3.8c-1.6,0.8-3.1,1.6-4.7,2.3
		c-4.8,2.2-9.8,4-14.9,5.5c-1.7,0.5-3.4,0.9-5.2,1.3c-7.9,1.8-16.1,2.8-24.5,2.8l-524.1,0.2c-5.7,0-11.1-0.3-16.5-1.3
		c-0.4-0.3-0.7-0.3-1-0.3c-1.5,0-3.1-0.3-4.4-0.6c-0.6,0-1.3-0.3-1.9-0.3c-1,0-2.2-0.3-3.2-0.6c-0.9,0-1.5-0.3-2.5-0.6
		c-0.6,0-1.5-0.3-2.5-0.6c-1-0.4-1.9-0.7-2.9-1c-0.6,0-1.6-0.3-2.2-0.6c-0.2-0.2-0.4-0.3-0.7-0.4c-0.5-0.2-1.1-0.4-1.6-0.7
		c-0.2-0.1-0.4-0.1-0.7-0.2c-0.6-0.4-1.3-0.7-1.9-1c-1-0.3-1.9-1-2.9-1.3c-0.6-0.4-1.3-0.7-1.9-1c-1-0.6-1.9-1-2.9-1.6
		c-0.2-0.1-0.5-0.3-0.7-0.4c-0.3-0.1-0.6-0.3-0.8-0.4c-0.1-0.1-0.3-0.1-0.4-0.2c-1-0.3-1.9-1-2.9-1.6c-0.3-0.4-1-0.7-1.6-1
		c-1-0.6-1.9-1.3-2.9-1.9c-0.6-0.4-1-0.7-1.6-1c-1-0.6-1.9-1.3-2.9-1.9c-0.6-0.4-1-0.7-1.6-1c-0.1-0.1-0.2-0.3-0.3-0.4
		c-0.7-0.5-1.4-1-1.9-1.6c-0.1-0.1-0.2-0.1-0.3-0.2c-0.1-0.2-0.2-0.3-0.3-0.4c-0.2-0.2-0.5-0.4-0.8-0.7c0,0-0.1-0.1-0.1-0.1
		c-0.1-0.1-0.1-0.1-0.2-0.1c-0.9-0.6-1.5-1.6-2.5-2.2c-0.1-0.2-0.2-0.3-0.3-0.4c-0.2-0.2-0.5-0.4-0.8-0.7c-0.1-0.1-0.2-0.1-0.3-0.2
		c-0.9-0.9-1.5-1.5-2.5-2.5c-0.1-0.2-0.2-0.3-0.3-0.4c-0.1-0.1-0.3-0.2-0.4-0.3c-0.4-0.2-0.8-0.4-1.2-0.6
		c-19.4-19.4-31.5-46.4-31.5-76.3V-124.4c0-30,12.2-57.1,31.9-76.7c19.6-19.7,46.8-31.9,76.7-31.9h524.1c21,0,40.7,6,57.5,16.5
		c0.3,0.3,0.6,0.3,0.6,0.6c1.6,1,3.4,2.2,5,3.4c-0.1,0-0.1-0.1-0.2-0.1c0.1,0.1,0.2,0.1,0.3,0.2c0.3,0,0.3,0.3,0.6,0.3
		c3.8,2.9,7.3,5.7,10.5,8.9c0.3,0.3,0.3,0.3,0.5,0.5c0,0,0,0,0,0c0.9,0.8,1.7,1.6,2.6,2.5c2.5,2.5,4.7,5.2,7,7.8
		c1.3,1.9,2.9,3.5,4.1,5.4l0.3,0.3c2.5,3.8,5.1,7.9,7.3,12.1c0,0,0,0.3,0.3,0.3c1,1.9,2.2,4.1,3.2,6.4c1.9,4.4,3.5,8.9,4.8,13.7v0.3
		c1.9,7,3.2,14.3,3.8,21.6v0.3c0.3,2.5,0.3,5.1,0.3,7.6V916.2z"/>
	<path fill="#162040" d="M240.9,1011.6c0.2,0.1,0.3,0.2,0.5,0.3C241.3,1011.8,241.1,1011.7,240.9,1011.6z"/>
	<path fill="#162040" d="M874.3-215.9c0.1,0,0.1,0.1,0.2,0.1C874.4-215.9,874.3-215.9,874.3-215.9C874.2-216,874.3-216,874.3-215.9z
		"/>
	<path fill="#162040" d="M223.2,999.6C223.3,999.6,223.3,999.7,223.2,999.6C223.3,999.7,223.3,999.7,223.2,999.6
		C223.3,999.6,223.3,999.6,223.2,999.6z"/>
	<path fill="#162040" d="M216.2,993.4c-0.3-0.3-0.6-0.6-1.3-1.3C215.2,992.8,215.9,993.1,216.2,993.4z"/>
	<path fill="#162040" d="M874.4-215.8c1.5,0.9,3.2,2,4.7,3.2c0.1,0,0.1,0.1,0.2,0.1c-1.6-1.3-3.4-2.5-5-3.4c0,0,0,0,0,0
		C874.3-215.9,874.4-215.9,874.4-215.8z"/>
	<path fill="#162040" d="M893.5-200.3c-0.8-0.8-1.7-1.7-2.6-2.5c0,0,0,0,0,0c0,0,0.1,0.1,0.1,0.1
		C891.9-201.9,892.7-201.1,893.5-200.3z"/>
	<path fill="#162040" d="M240.9,1011.6c-0.1,0-0.1-0.1-0.2-0.1c0.3,0.1,0.6,0.3,0.8,0.4c0,0-0.1,0-0.1-0.1
		C241.3,1011.8,241.1,1011.7,240.9,1011.6z"/>
	<path fill="#162040" d="M232.1,1006.4c0.2,0.1,0.4,0.2,0.6,0.4C232.5,1006.6,232.3,1006.5,232.1,1006.4z"/>
	<path fill="#162040" d="M232.1,1006.4c-0.3-0.2-0.6-0.5-1-0.6C231.5,1006,231.8,1006.2,232.1,1006.4z"/>
	<path fill="#162040" d="M219.1,995.9c0.3,0.7,1,1,1.3,1.3C219.7,996.6,219.4,996.3,219.1,995.9z"/>
	<path fill="#162040" d="M215.5,992c0,0,0,0-0.1,0C215.4,991.9,215.4,992,215.5,992C215.4,992,215.5,992,215.5,992
		C215.5,992,215.5,992,215.5,992z"/>
	<path fill="#162040" d="M215.7,992.4c-0.1-0.1-0.2-0.1-0.3-0.2c0-0.1,0-0.1,0-0.2c-0.1,0-0.2-0.1-0.3-0.1c0,0,0,0,0.1,0
		c-0.1,0-0.1-0.1-0.1-0.2c-19.4-19.7-31.5-46.7-31.5-76.3v-1040c0-29.9,12.1-56.9,31.7-76.5c-19.7,19.6-31.9,46.8-31.9,76.7V915.9
		c0,29.9,12.1,56.9,31.5,76.3c0.4,0.2,0.8,0.4,1.2,0.6C216,992.6,215.8,992.5,215.7,992.4z"/>
	<path fill="#98E8DC" d="M921.6-148.7c0.4,1.8,0.8,3.6,1.1,5.4C922.3-145.2,922-147,921.6-148.7z"/>
	<path fill="#98E8DC" d="M882.8,1001.1c1.4-1.1,2.7-2.2,4-3.3c1.3-1.1,2.6-2.3,3.9-3.5c3.1-3,6.1-6.2,8.9-9.5c1.7-2,3.2-4.1,4.8-6.2
		c0.5-0.7,1-1.4,1.5-2.1c1-1.4,1.9-2.9,2.8-4.4c0.9-1.5,1.8-3,2.6-4.5c1.3-2.3,2.4-4.7,3.5-7.1c2.2-4.8,4-9.8,5.5-14.9
		c0.5-1.7,0.9-3.4,1.3-5.2c0.2-0.9,0.4-1.8,0.6-2.6c0.4-1.8,0.7-3.5,1-5.3s0.5-3.6,0.7-5.4c0.3-2.7,0.5-5.5,0.5-8.3
		c0-0.9,0-1.9,0-2.8V-124.6c0-2.5-0.3-5.1-0.3-7.6v-0.3c-0.2-1.8-0.3-3.7-0.6-5.5c0.2,1.8,0.4,3.6,0.6,5.5c-0.1-1.8-0.3-3.7-0.6-5.5
		c-0.2-1.8-0.5-3.6-0.8-5.4c-0.3-1.8-0.7-3.6-1.1-5.4c-0.2-0.9-0.4-1.8-0.6-2.7s-0.4-1.8-0.7-2.6c0.2,0.9,0.5,1.8,0.7,2.6
		c-0.2-0.9-0.4-1.8-0.7-2.6v-0.3c-1.3-4.8-2.9-9.2-4.8-13.7c0,0,0,0,0,0c0,0,0,0,0,0c-1.3-1.9-2.2-4.1-3.2-6.4
		c0.7,1.3,1.5,2.8,2.3,4.4c-0.7-1.4-1.4-2.8-2.3-4.4c0,0,0-0.3-0.3-0.3c-1-1.9-2.1-3.8-3.3-5.7c1.1,1.9,2.2,4,3.3,6.1
		c-2.2-4.2-4.8-8.3-7.3-12.1c1.1,1.4,2,2.8,2.9,4.2c-1-1.6-2-3.1-2.9-4.6l-0.3-0.3c-1.3-1.9-2.5-3.8-4.1-5.4c-2.9-3.5-6-7-9.5-10.2
		c-0.3-0.3-0.3-0.3-0.6-0.6c-1.7-1.7-3.5-3.2-5.4-4.7c1.9,1.5,3.7,3.2,5.6,5c-3.2-3.2-6.7-6-10.5-8.9c1,0.7,1.9,1.5,2.9,2.2
		c-1.1-0.8-2.1-1.7-3.1-2.5c-0.3,0-0.3-0.3-0.6-0.3c-1.6-1.3-3.5-2.2-5.1-3.5c-0.3-0.3-0.6-0.3-0.6-0.6c-1.9-1.3-3.8-2.2-6-3.5
		c0.1,0.2,0.3,0.3,0.4,0.5c1.9,1.1,3.8,2.2,5.7,3.3c-2-1.2-3.8-2.3-5.6-3.3c5.9,6.1,11.1,12.8,15.5,20c9.9,16.3,15.6,35.5,15.6,56.1
		V896.8c0,59.8-48.6,108.4-108.4,108.4H266.5c-18.2,0-35.1-4.4-50.1-12.3c0.1,0.1,0.1,0.1,0.2,0.2c0.1,0.1,0.2,0.1,0.3,0.2
		c0.9,0.9,1.5,1.9,2.5,2.5c0.1,0.2,0.2,0.3,0.3,0.4c0.2,0.2,0.5,0.4,0.8,0.7c0.1,0.1,0.2,0.1,0.3,0.2c0.9,0.6,1.4,1.5,2.4,2.1
		c0,0,0-0.1-0.1-0.1c0,0,0,0.1,0.1,0.1c0,0,0.1,0.1,0.1,0.1c0.1,0.2,0.2,0.3,0.3,0.4c0.2,0.1,0.4,0.3,0.7,0.5
		c0.1,0.1,0.1,0.1,0.2,0.1c0,0-0.1-0.1-0.2-0.1c0,0,0.1,0.1,0.1,0.1c0.1,0.1,0.2,0.1,0.3,0.2c0.1,0.1,0.2,0.3,0.3,0.4
		c0.7,0.5,1.4,1,1.9,1.6c0.1,0.1,0.2,0.1,0.3,0.2c0.6,0.4,1,0.7,1.6,1c1,0.6,1.9,1.3,2.9,1.9c0.6,0.4,1,0.7,1.6,1
		c1,0.6,1.9,1.3,2.9,1.9c0.3,0.4,1,0.7,1.6,1c1,0.6,1.9,1,2.9,1.6c0.6,0.4,1.3,0.7,1.9,1c1,0.6,1.9,1.3,2.9,1.6
		c0.6,0.4,1.3,0.7,1.9,1c1,0.3,1.9,1,2.9,1.3c0.6,0.4,1.3,0.7,1.9,1c0.2,0.2,0.4,0.3,0.7,0.4c0.5,0.2,1.1,0.4,1.6,0.7
		c0.2,0.1,0.4,0.1,0.7,0.2c0.6,0,1.6,0.3,2.2,0.6c1,0.4,1.9,0.7,2.9,1c0.6,0,1.6,0.3,2.5,0.6c0.9,0.3,1.5,0.3,2.5,0.6
		s2.2,0.3,3.2,0.6c0.6,0,1.3,0.3,1.9,0.3c0,0,0,0,0,0c0,0,0,0,0,0c1.5,0,2.8,0.3,4.4,0.6c0,0,0,0,0,0c0,0,0,0,0,0
		c0.4,0.3,0.7,0.3,1,0.3c5.4,1,10.8,1.3,16.5,1.3H816c22.4,0,43.3-6.8,60.6-18.5C878.7,1004.3,880.8,1002.7,882.8,1001.1z
		 M920-154.3c-1.3-4.8-2.9-9.3-4.8-13.7C917.1-163.6,918.7-159.1,920-154.3z M901.8-190.6c0.9,1.1,1.8,2.2,2.6,3.4
		C903.5-188.2,902.7-189.4,901.8-190.6c-0.5-0.6-1-1.3-1.5-2C900.8-191.9,901.3-191.2,901.8-190.6z M226.7,1002.6
		c0.7,0.4,1.3,0.7,1.6,1C227.7,1003.3,227.3,1003,226.7,1002.6z M235.6,1008.3c0.7,0.4,1,0.7,1.6,1
		C236.6,1009,235.9,1008.7,235.6,1008.3z M244.8,1013.4c0.7,0.4,1.3,0.7,1.9,1C246.1,1014.1,245.4,1013.8,244.8,1013.4z
		 M249.9,1015.6c0.6,0.4,1.3,0.7,1.9,1C250.9,1016.3,250.2,1016,249.9,1015.6z M254.7,1017.9c0.6,0,1.6,0.3,2.2,0.6
		C256,1018.2,255.3,1017.9,254.7,1017.9z M259.8,1019.5c0.6,0,1.6,0.3,2.5,0.6C261.3,1019.8,260.4,1019.5,259.8,1019.5z
		 M264.8,1021.1c1,0,2,0.3,3.2,0.6C267,1021.4,265.8,1021.4,264.8,1021.1z"/>
	<path fill="#98E8DC" d="M908-181.6c0.2,0.3,0.4,0.6,0.5,0.9C908.3-181,908.2-181.3,908-181.6z"/>
	<path fill="#98E8DC" d="M890.4-203.1c-1.9-1.9-3.7-3.5-5.6-5c-0.7-0.5-1.3-1.1-2-1.6c-1-0.8-1.9-1.5-2.9-2.2
		C883.7-209.1,887.2-206.3,890.4-203.1z"/>
	<path fill="#98E8DC" d="M915.5-168.1C915.4-168.1,915.4-168.1,915.5-168.1c-0.3-0.7-0.6-1.4-0.9-2c-0.8-1.6-1.6-3.1-2.3-4.4
		C913.3-172.1,914.2-169.9,915.5-168.1z"/>
	<path fill="#98E8DC" d="M912-174.3c-1.1-2.2-2.1-4.2-3.3-6.1c-0.1-0.1-0.1-0.2-0.2-0.3c-0.2-0.3-0.4-0.6-0.5-0.9
		c-0.1-0.2-0.3-0.4-0.4-0.6c-0.9-1.4-1.9-2.8-2.9-4.2C907.2-182.6,909.8-178.6,912-174.3z"/>
	<path fill="#98E8DC" d="M900.3-192.6c0.5,0.7,1,1.3,1.5,2C901.3-191.2,900.8-191.9,900.3-192.6z"/>
	<path fill="#98E8DC" d="M901.8-190.6c0.9,1.2,1.7,2.4,2.6,3.4C903.6-188.4,902.7-189.4,901.8-190.6z"/>
	<path fill="#98E8DC" d="M228.3,1003.6c-0.3-0.3-0.9-0.6-1.6-1C227.3,1003,227.7,1003.3,228.3,1003.6z"/>
	<path fill="#98E8DC" d="M268,1021.7c-1.2-0.3-2.2-0.6-3.2-0.6C265.8,1021.4,267,1021.4,268,1021.7z"/>
	<path fill="#98E8DC" d="M262.3,1020.1c-0.9-0.3-1.9-0.6-2.5-0.6C260.4,1019.5,261.3,1019.8,262.3,1020.1z"/>
	<path fill="#98E8DC" d="M256.9,1018.5c-0.6-0.3-1.6-0.6-2.2-0.6C255.3,1017.9,256,1018.2,256.9,1018.5z"/>
	<path fill="#98E8DC" d="M274.4,1022.7c-1.6-0.3-2.9-0.6-4.4-0.6c0,0,0,0,0,0C271.5,1022.1,272.8,1022.4,274.4,1022.7
		C274.3,1022.7,274.3,1022.7,274.4,1022.7z"/>
	<path fill="#98E8DC" d="M251.8,1016.6c-0.6-0.3-1.3-0.6-1.9-1C250.2,1016,250.9,1016.3,251.8,1016.6z"/>
	<path fill="#98E8DC" d="M237.2,1009.3c-0.6-0.3-0.9-0.6-1.6-1C235.9,1008.7,236.6,1009,237.2,1009.3z"/>
	<path fill="#98E8DC" d="M246.7,1014.4c-0.6-0.3-1.2-0.6-1.9-1C245.4,1013.8,246.1,1014.1,246.7,1014.4z"/>
	<path fill="#98E8DC" d="M873.5-216.3c-1.8-1.2-3.7-2.3-5.7-3.3c0,0,0,0,0.1,0.1C869.6-218.7,871.4-217.6,873.5-216.3z"/>
	<path fill="#98E8DC" d="M215.3,991.9C215.3,991.9,215.3,991.9,215.3,991.9C215.3,991.9,215.3,991.9,215.3,991.9z"/>
	<path fill="#98E8DC" d="M898.9,896.5c0,59.8-48.6,108.4-108.4,108.4H266.7c-18.7,0-35.9-4.7-51.1-12.8c0.1,0.1,0.1,0.2,0.2,0.3
		c0.2,0.1,0.4,0.3,0.6,0.5c15,7.8,31.9,12.3,50.1,12.3h524.1c59.8,0,108.4-48.6,108.4-108.4V-143.6c0-20.6-5.7-39.8-15.6-56.1
		c9.8,16.3,15.5,35.3,15.5,55.8V896.5z"/>
	<path fill="#98E8DC" d="M921.6-148.7c0.4,1.8,0.8,3.6,1.1,5.4C922.3-145.2,922-147,921.6-148.7z"/>
	<path fill="#98E8DC" d="M876.5,1005.7L876.5,1005.7c2.2-1.5,4.3-3,6.3-4.6C880.8,1002.7,878.7,1004.3,876.5,1005.7z"/>
	<path fill="#98E8DC" d="M923.1,932.3c-0.3,1.8-0.6,3.6-1,5.3C922.5,935.9,922.8,934.1,923.1,932.3z"/>
	<path fill="#98E8DC" d="M924.3,918.6c-0.1,2.8-0.2,5.5-0.5,8.3C924.1,924.2,924.2,921.4,924.3,918.6z"/>
	<path fill="#98E8DC" d="M924.1-132.1c0,2.5,0.3,5.1,0.3,7.6C924.4-127.1,924.4-129.6,924.1-132.1z"/>
	<path fill="#98E8DC" d="M904.3,978.6c-1.5,2.1-3.1,4.2-4.8,6.2C901.2,982.8,902.8,980.7,904.3,978.6z"/>
	<path fill="#98E8DC" d="M911.3,967.5c-0.8,1.5-1.7,3-2.6,4.5C909.5,970.5,910.4,969,911.3,967.5z"/>
	<path fill="#98E8DC" d="M921.6,940.3c-0.4,1.7-0.9,3.5-1.3,5.2C920.7,943.8,921.2,942.1,921.6,940.3z"/>
	<path fill="#98E8DC" d="M890.7,994.3c-1.3,1.2-2.5,2.4-3.9,3.5C888.2,996.7,889.5,995.5,890.7,994.3z"/>
	<path fill="#98E8DC" d="M914.8,960.4c-1.1,2.4-2.3,4.8-3.5,7.1C912.5,965.2,913.7,962.8,914.8,960.4z"/>
	<path fill="#98E8DC" d="M908.6,972c-0.9,1.5-1.8,3-2.8,4.4C906.8,975,907.7,973.5,908.6,972z"/>
	<path fill="#98E8DC" d="M222.9,999.1c-0.9-0.6-1.5-1.5-2.4-2.1c-0.1-0.1-0.2-0.1-0.3-0.2c0.1,0.1,0.2,0.2,0.3,0.4
		c1,0.6,1.6,1.6,2.5,2.2c0,0,0.1,0.1,0.2,0.1C223.1,999.5,223,999.3,222.9,999.1z"/>
	<path fill="#98E8DC" d="M224.1,1000.3c0.1,0.1,0.2,0.2,0.3,0.4c0.1,0.1,0.2,0.1,0.3,0.2c-0.1-0.1-0.2-0.3-0.3-0.4
		C224.3,1000.5,224.2,1000.4,224.1,1000.3z"/>
	<path fill="#98E8DC" d="M216.8,993.3c-0.1-0.1-0.2-0.1-0.3-0.2c0.1,0.1,0.2,0.2,0.3,0.4c1,1,1.6,1.6,2.5,2.5
		c0.1,0.1,0.2,0.1,0.3,0.2c-0.1-0.1-0.2-0.2-0.3-0.4C218.3,995.2,217.7,994.2,216.8,993.3z"/>
	<path fill="#98E8DC" d="M223.1,999.3c-0.1,0-0.1-0.1-0.1-0.1c0.1,0.2,0.2,0.3,0.3,0.5c0,0,0,0,0.1,0.1
		C223.2,999.5,223.1,999.4,223.1,999.3z"/>
	<path fill="#98E8DC" d="M250,1016.1c-1-0.3-1.9-1-2.9-1.3c-0.6-0.3-1.3-0.6-1.9-1c-1-0.3-1.9-1-2.9-1.6c-0.6-0.3-1.3-0.6-1.9-1
		c-1-0.6-1.9-1-2.9-1.6c-0.6-0.3-1.3-0.6-1.6-1c-1-0.6-1.9-1.3-2.9-1.9c-0.6-0.3-1-0.6-1.6-1c-1-0.6-1.9-1.3-2.9-1.9
		c-0.6-0.3-1-0.6-1.6-1c-0.1-0.1-0.2-0.1-0.3-0.2c0.1,0.1,0.2,0.3,0.3,0.4c0.6,0.3,1,0.6,1.6,1c1,0.6,1.9,1.3,2.9,1.9
		c0.6,0.3,1,0.6,1.6,1c1,0.6,1.9,1.3,2.9,1.9c0.6,0.3,1.3,0.6,1.6,1c1,0.6,1.9,1.3,2.9,1.6c0.1,0.1,0.3,0.1,0.4,0.2
		c-0.2-0.1-0.5-0.2-0.7-0.4c0.3,0.1,0.6,0.3,0.9,0.5c0.2,0.1,0.3,0.2,0.5,0.3c0.2,0.1,0.3,0.2,0.5,0.3c-0.1-0.1-0.3-0.1-0.4-0.2
		c0.2,0.1,0.5,0.2,0.7,0.4c1,0.6,1.9,1,2.9,1.6c0.6,0.3,1.3,0.6,1.9,1c1,0.3,1.9,1,2.9,1.3c0.6,0.3,1.3,0.6,1.9,1
		c0.2,0.1,0.4,0.1,0.7,0.2c-0.2-0.1-0.4-0.2-0.7-0.4C251.3,1016.8,250.6,1016.5,250,1016.1z"/>
	<path fill="#98E8DC" d="M275.4,1023c-0.3,0-0.6,0-1-0.3c0,0,0,0,0,0c-1.6,0-2.9-0.4-4.4-0.6c0,0,0,0,0,0c-0.6,0-1.3-0.3-1.9-0.3
		c-1-0.3-2.2-0.3-3.2-0.6s-1.6-0.3-2.5-0.6c-0.9-0.3-1.9-0.6-2.5-0.6c-1-0.3-1.9-0.6-2.9-1c-0.6-0.3-1.6-0.6-2.2-0.6
		c-0.2-0.1-0.4-0.1-0.7-0.2c0.2,0.1,0.4,0.2,0.7,0.4c0.6,0.3,1.6,0.6,2.2,0.6c1,0.3,1.9,0.6,2.9,1c1,0.3,1.9,0.6,2.5,0.6
		c1,0.3,1.6,0.6,2.5,0.6c1,0.3,2.2,0.6,3.2,0.6c0.6,0,1.3,0.3,1.9,0.3c1.3,0.3,2.9,0.6,4.4,0.6c0.3,0,0.6,0,1,0.3
		c5.4,1,10.8,1.3,16.5,1.3l524.1-0.2H291.9C286.2,1024.3,280.8,1024,275.4,1023z"/>
	<path fill="#98E8DC" d="M816,1024.3c8.4,0,16.6-1,24.5-2.8c1.7-0.4,3.5-0.9,5.2-1.3c5.1-1.5,10.1-3.3,14.9-5.5
		c1.6-0.7,3.2-1.5,4.7-2.3c2.3-1.2,4.6-2.5,6.9-3.8c1.5-0.9,3-1.8,4.4-2.8c0,0,0,0,0,0C859.2,1017.4,838.4,1024.3,816,1024.3z"/>
	<path fill="#98E8DC" d="M270,1022.1c1.5,0.2,2.8,0.6,4.4,0.6C272.8,1022.4,271.5,1022.1,270,1022.1z"/>
	<path fill="#98E8DC" d="M240.1,1011.2c0.2,0.1,0.5,0.3,0.7,0.4c0.1,0,0.1,0.1,0.2,0.1C240.6,1011.5,240.3,1011.3,240.1,1011.2z"/>
	<path fill="#98E8DC" d="M241.4,1011.9c0,0,0.1,0,0.1,0.1c0.1,0.1,0.3,0.1,0.4,0.2C241.8,1012.1,241.6,1012,241.4,1011.9z"/>
	<path fill="#98E8DC" d="M215.4,992c0,0,0,0.1,0,0.2c0.1,0.1,0.2,0.1,0.3,0.2C215.6,992.3,215.6,992.1,215.4,992
		C215.5,992,215.4,992,215.4,992z"/>
	<path fill="#98E8DC" d="M215.3,991.9C215.3,991.9,215.3,991.9,215.3,991.9c-0.1-0.1-0.2-0.1-0.2-0.1
		C215.2,991.9,215.3,991.9,215.3,991.9C215.4,992,215.4,991.9,215.3,991.9z"/>
	<path fill="#98E8DC" d="M845.6,1020.1c-1.7,0.5-3.4,0.9-5.2,1.3C842.2,1021.1,843.9,1020.6,845.6,1020.1z"/>
	<path fill="#98E8DC" d="M876.5,1005.7c-1.4,1-2.9,1.9-4.4,2.8C873.6,1007.6,875.1,1006.7,876.5,1005.7z"/>
	<polygon fill="#98E8DC" points="876.5,1005.7 876.5,1005.7 876.5,1005.7 	"/>
	<path fill="#98E8DC" d="M865.3,1012.4c-1.6,0.8-3.1,1.6-4.7,2.3C862.1,1013.9,863.7,1013.2,865.3,1012.4z"/>
	<path fill="#FFFFFF" d="M590,910.1c0,1.3,0.3,2.9,0.3,4.8C590.3,913.3,590.3,911.7,590,910.1z"/>
	<path fill="#FFFFFF" d="M589,905.4c0.3,1,0.3,2.2,0.6,3.2C589.7,907.6,589.4,906.3,589,905.4z"/>
	<path fill="#FFFFFF" d="M583.7,892c0.6,1.3,1.2,2.3,1.9,3.5C584.9,894.1,584.3,893,583.7,892z"/>
	<path fill="#FFFFFF" d="M575.2,882.6c0,0.1,0.1,0.1,0.1,0.2c3,2.6,5.7,5.6,8,8.9C581.2,888.3,578.4,885.2,575.2,882.6z"/>
	<path fill="#FFFFFF" d="M573.9,881.5c-7-5.7-16.2-9.2-26.1-9.2c-23.6,0-42.3,19.1-41.9,42.6c0,10,3.4,19.2,9.3,26.5
		c0.1,0,0.1,0.1,0.2,0.1c-0.2-0.3-0.4-0.5-0.6-0.8c7.3,5.7,16.2,9.2,26.1,9.2c10.9,0,20.8-4.1,28.3-10.8c8.4-7.8,13.6-19,13.4-31.4
		c0-9.9-3.5-18.8-9.2-26.1c1.1,0.8,2.2,1.8,3.2,2.7c-0.3-0.5-0.7-1-1-1.5C574.9,882.3,574.4,881.9,573.9,881.5
		C573.9,881.5,573.9,881.5,573.9,881.5z"/>
	<path fill="#FFFFFF" d="M573.9,881.5c0.5,0.4,1,0.9,1.5,1.3c0-0.1-0.1-0.1-0.1-0.2C574.8,882.2,574.3,881.8,573.9,881.5z"/>
	<path fill="#FFFFFF" d="M586.4,897.2c0.3,0.8,0.8,1.7,1,2.5C587.2,898.7,586.8,897.9,586.4,897.2z"/>
	<path fill="#162040" d="M547.8,864.4c-27.7,0-50.4,22.5-50.5,50.3c0.1,27.8,22.8,50.4,50.5,50.4s50.4-22.5,50.5-50.4
		C598.2,886.9,575.4,864.4,547.8,864.4z M583.7,892c0.6,1,1.3,2.2,1.9,3.5c0,0,0,0,0,0c0,0,0,0,0,0c0.3,0.3,0.3,0.6,0.6,1
		c0.1,0.3,0.2,0.5,0.3,0.7c0,0,0,0,0,0c-0.1-0.2-0.2-0.5-0.3-0.7c0.1,0.3,0.2,0.5,0.3,0.7c0.3,0.7,0.8,1.5,1,2.5c0,0,0,0,0,0
		c0,0,0,0,0,0c0.3,0.3,0.3,1,0.6,1.3c0.3,1,0.6,1.9,1,2.9c0,0.6,0.3,1,0.3,1.6c0.3,1,0.3,2.2,0.6,3.2c0,0.6,0.3,1,0.3,1.6
		c0.3,1.6,0.3,3.2,0.3,4.8c0,23.5-19.1,42.6-42.6,42.6c-0.1,0-0.2,0-0.3,0c0,0,0,0-0.1,0c-1.2,0-2.8,0-4.4-0.3c0,0-0.1,0-0.1,0
		c-0.3,0-0.5-0.1-0.8-0.2c-0.2-0.1-0.4-0.1-0.7-0.1c-0.1,0-0.1,0-0.2,0c-0.5,0-1.1-0.2-1.7-0.3c-0.5-0.1-0.9-0.1-1.4-0.3
		c-0.6,0-1-0.3-1.6-0.3c-1-0.4-1.9-0.7-2.9-1c-0.3-0.3-1-0.3-1.3-0.6c-1-0.3-1.9-1-2.9-1.3c-0.4-0.3-0.7-0.3-1-0.6
		c-0.4-0.3-0.9-0.5-1.4-0.8c-0.2-0.1-0.4-0.2-0.6-0.3c-0.4-0.3-0.9-0.5-1.3-0.7c-0.3,0-0.3-0.3-0.6-0.3c-2.8-1.8-5.4-4.1-7.8-6.6
		c-7.3-7.6-11.6-18-11.6-29.3c0-23.5,19.1-42.6,42.6-42.6c9.9,0,18.8,3.5,26.1,9.2c0.4,0.5,0.7,0.9,1.1,1.4c3.2,2.7,5.9,5.8,8.1,9.1
		c0,0,0,0,0,0c0,0,0,0,0,0L583.7,892C583.7,892,583.7,892,583.7,892C583.7,892,583.7,892,583.7,892z"/>
	<path fill="#162040" d="M547.8,864.1c-27.7,0-50.5,22.6-50.5,50.5c0,0.1,0,0.1,0,0.1c0.1-27.8,22.8-50.3,50.5-50.3
		s50.4,22.5,50.5,50.3c0-0.1,0-0.1,0-0.1C598.3,886.7,575.7,864.1,547.8,864.1z"/>
	<path fill="#162040" d="M585.5,895.5c-0.6-1.3-1.3-2.5-1.9-3.5c0,0,0,0,0,0C584.3,893,584.9,894.1,585.5,895.5
		C585.5,895.4,585.5,895.4,585.5,895.5z"/>
	<path fill="#162040" d="M583.3,891.6C583.3,891.6,583.3,891.6,583.3,891.6c-2.2-3.3-4.9-6.4-8.1-9.1c0,0,0,0,0,0
		C578.4,885.2,581.2,888.3,583.3,891.6z"/>
	<path fill="#162040" d="M515.1,941.3c-5.8-7.3-9.3-16.5-9.3-26.5c-0.4-23.5,18.3-42.6,41.9-42.6c9.9,0,19.1,3.5,26.1,9.2
		c0,0,0,0,0,0c0,0,0,0,0,0c0.5,0.4,0.9,0.7,1.4,1.1c-0.4-0.5-0.7-1-1.1-1.4c-7.3-5.7-16.2-9.2-26.1-9.2c-23.5,0-42.6,19.1-42.6,42.6
		c0,11.3,4.4,21.7,11.6,29.3c-0.8-0.9-1.7-1.9-2.4-2.9C514.8,941.1,515,941.2,515.1,941.3z"/>
	<path fill="#162040" d="M573.9,881.5c0.5,0.4,0.9,0.7,1.4,1.1c0,0,0,0,0,0C574.8,882.2,574.3,881.8,573.9,881.5
		C573.9,881.5,573.9,881.5,573.9,881.5z"/>
	<path fill="#162040" d="M587.5,899.7c-0.2-1-0.7-1.7-1-2.5c0,0,0,0,0,0C586.8,897.9,587.2,898.7,587.5,899.7
		C587.4,899.6,587.4,899.6,587.5,899.7z"/>
	<path fill="#162040" d="M527.3,951.8c-0.2-0.1-0.4-0.2-0.6-0.3C526.9,951.6,527.1,951.7,527.3,951.8z"/>
	<path fill="#98E8DC" d="M590,915.2c0-1.6,0-3.2-0.3-4.8c0-0.6,0-1-0.3-1.6c0-1-0.3-2.2-0.6-3.2c0-0.6-0.3-1-0.3-1.6
		c-0.3-1-0.6-1.9-1-2.9c0-0.3-0.3-1-0.6-1.3c-0.3-1-1-1.9-1.3-3.2c-0.3-0.3-0.3-0.6-0.6-1c-0.6-1.3-1.3-2.2-1.9-3.5l-0.3-0.3
		c-1.8-2.7-3.9-5.2-6.3-7.5c4.3,6.5,6.9,14.5,6.9,23c0,12.6-5.5,24-14.3,31.8c-7.5,6.9-17.4,11.1-28.3,11.1
		c-9.6,0-18.5-3.3-25.5-8.7c2.8,3.5,6,6.4,9.6,8.7c-0.4-0.2-0.7-0.5-1.1-0.7c0.5,0.3,1,0.7,1.5,1c0.3,0,0.3,0.2,0.5,0.3
		c-0.1-0.1-0.2-0.2-0.3-0.3c1,0.6,1.9,1.3,3.2,1.9c-0.2,0-0.3-0.1-0.5-0.1c0.3,0.2,0.6,0.3,0.9,0.4c0.2,0.2,0.5,0.3,0.7,0.4
		c0.9,0.3,1.8,1,2.7,1.2c-0.9-0.3-1.7-0.8-2.6-1.2c0.1,0,0.1,0.1,0.2,0.2c1,0.3,1.9,1,2.9,1.3c0.3,0.3,1,0.3,1.3,0.6
		c1,0.4,1.9,0.7,2.9,1c0.6,0,1,0.3,1.6,0.3c0.3,0.1,0.6,0.2,1,0.3c0.6,0.1,1.1,0.2,1.7,0.3c0.2,0,0.4,0,0.6,0
		c0.1,0.1,0.2,0.1,0.3,0.1c0.3,0.1,0.5,0.1,0.8,0.2c0.2,0,0.3,0,0.5,0c1.1,0.3,2.6,0.3,4.1,0.3C571,957.7,590,938.7,590,915.2z
		 M534,954.6c1,0.4,1.9,0.7,2.9,1C536,955.6,535,955.3,534,954.6z M538.5,956c1,0.2,2.3,0.6,3.2,0.6
		C540.7,956.6,539.5,956.3,538.5,956z M543.4,956.9c1.2,0.3,2.8,0.3,4.4,0.3C546.2,957.2,544.5,957.2,543.4,956.9z"/>
	<path fill="#98E8DC" d="M541.7,956.6c-0.9,0-2.2-0.4-3.2-0.6C539.5,956.3,540.7,956.6,541.7,956.6z"/>
	<path fill="#98E8DC" d="M582.5,907.7c0.3,12.4-5,23.6-13.4,31.4c8.7-7.8,14.3-19.2,14.3-31.8c0-8.5-2.6-16.5-6.9-23
		c-1-0.9-2.1-1.9-3.2-2.7C579,888.9,582.5,897.8,582.5,907.7z"/>
	<path fill="#98E8DC" d="M523.8,949.4c0.4,0.2,0.7,0.5,1.1,0.7c-3.5-2.3-6.8-5.3-9.6-8.7c-0.1,0-0.1-0.1-0.2-0.1
		C517.6,944.4,520.5,947.1,523.8,949.4z"/>
	<path fill="#98E8DC" d="M532.5,954.3c-0.9-0.3-1.8-0.9-2.7-1.2c0,0,0.1,0,0.1,0.1C530.7,953.5,531.5,954,532.5,954.3z"/>
	<path fill="#98E8DC" d="M536.9,955.6c-1-0.3-1.9-0.6-2.9-1C535,955.3,536,955.6,536.9,955.6z"/>
	<path fill="#98E8DC" d="M528.2,952.2c0.2,0,0.3,0.1,0.5,0.1c-1.3-0.6-2.2-1.3-3.2-1.9c0.1,0.1,0.2,0.2,0.3,0.3c0,0,0.1,0,0.1,0
		C526.6,951.2,527.3,951.7,528.2,952.2z"/>
	<path fill="#98E8DC" d="M543,957.3c0,0,0.1,0,0.1,0c1.6,0.3,3.2,0.3,4.4,0.3c0,0,0,0,0.1,0c-1.5,0-2.9,0-4.1-0.3
		C543.4,957.4,543.2,957.3,543,957.3z"/>
	<path fill="#98E8DC" d="M541.4,957c0.1,0,0.1,0,0.2,0c0.3,0,0.5,0.1,0.7,0.1c-0.1,0-0.2-0.1-0.3-0.1
		C541.8,957.1,541.6,957,541.4,957z"/>
	<path fill="#98E8DC" d="M525.3,950.5c-0.5-0.3-1-0.7-1.5-1c-2.4-1.6-4.7-3.5-6.7-5.6c2.3,2.6,5,4.8,7.8,6.6c0.3,0,0.3,0.3,0.6,0.3
		c0.4,0.2,0.8,0.5,1.3,0.7c-0.3-0.2-0.6-0.5-1-0.8C525.6,950.7,525.5,950.5,525.3,950.5z"/>
	<path fill="#98E8DC" d="M537.2,956.2c-1-0.3-1.9-0.6-2.9-1c-0.3-0.3-1-0.3-1.3-0.6c-1-0.3-1.9-1-2.9-1.3c-0.1-0.1-0.1-0.1-0.2-0.2
		c-0.1,0-0.2-0.1-0.3-0.1c0.1,0,0.1,0,0.2,0.1c-0.2-0.1-0.4-0.2-0.7-0.4c-0.3-0.1-0.6-0.3-0.9-0.4c-0.3-0.1-0.6-0.2-0.9-0.4
		c0.5,0.3,1,0.6,1.4,0.8c0.3,0.3,0.6,0.3,1,0.6c1,0.3,1.9,1,2.9,1.3c0.3,0.3,1,0.3,1.3,0.6c1,0.3,1.9,0.6,2.9,1c0.6,0,1,0.3,1.6,0.3
		c0.4,0.1,0.9,0.2,1.4,0.3c-0.3-0.1-0.7-0.2-1-0.3C538.2,956.5,537.8,956.2,537.2,956.2z"/>
	<path fill="#98E8DC" d="M515.1,941.3c-0.2-0.1-0.3-0.2-0.5-0.4c0.8,1,1.6,2,2.4,2.9c2,2.1,4.3,4,6.7,5.6
		C520.5,947.1,517.6,944.4,515.1,941.3z"/>
	<path fill="#98E8DC" d="M529.8,953.1c0,0-0.1,0-0.1-0.1c-0.1,0-0.1,0-0.2-0.1C529.6,953,529.7,953,529.8,953.1z"/>
	<path fill="#98E8DC" d="M525.9,950.8c0,0-0.1,0-0.1,0c0.3,0.3,0.6,0.6,1,0.8c0.2,0.1,0.4,0.2,0.6,0.3c0.3,0.1,0.6,0.3,0.9,0.4
		C527.3,951.7,526.6,951.2,525.9,950.8z"/>
	<path fill="#FFFFFF" d="M541.4-165.3c0,0.1-0.1,0.1-0.1,0.2c0,0.2-0.1,0.3-0.1,0.5c0,0.1-0.1,0.2-0.1,0.3c0,0.2,0,0.3-0.1,0.5
		c0,0.1,0,0.2-0.1,0.3c0,0.3,0,0.6,0,0.8c0,4.5,3.8,8.3,8.3,8.3c4.6,0,8.3-3.7,8.3-8.3s-3.7-8.3-8.3-8.3c-3.4,0-6.4,2.1-7.6,5
		c0,0,0,0,0,0.1C541.5-165.7,541.5-165.5,541.4-165.3z"/>
	<path fill="#162040" d="M549.3-146.4c8.9,0,16.2-7.3,16.2-16.2c0-8.9-7.3-16.2-16.2-16.2c-8.9,0-16.2,7.3-16.2,16.2
		C533-153.8,540.4-146.4,549.3-146.4z M549.3-170.9c4.8,0,8.3,3.8,8.3,8.3c0,4.8-3.8,8.3-8.3,8.3c-4.6,0-8.3-3.7-8.3-8.3
		c0-0.3,0-0.6,0-0.8c0-0.1,0-0.2,0.1-0.3c0-0.2,0-0.3,0.1-0.5c0-0.1,0.1-0.2,0.1-0.3c0-0.2,0.1-0.3,0.1-0.5c0-0.1,0.1-0.1,0.1-0.2
		c0.1-0.2,0.1-0.4,0.2-0.6c0,0,0,0,0-0.1C542.9-168.9,545.8-170.9,549.3-170.9z"/>
	<path fill="#162040" d="M541-162.6c0,4.6,3.7,8.3,8.3,8.3C544.8-154.3,541-158.1,541-162.6z"/>
	<path fill="#162040" d="M541.6-165.9C541.6-165.9,541.6-165.9,541.6-165.9C541.6-165.9,541.6-165.9,541.6-165.9z"/>
	<path fill="#162040" d="M541-163.5c0-0.1,0-0.2,0.1-0.3C541-163.7,541-163.6,541-163.5z"/>
	<path fill="#162040" d="M541.3-165.1c0-0.1,0.1-0.1,0.1-0.2C541.4-165.2,541.3-165.2,541.3-165.1z"/>
	<path fill="#162040" d="M541.1-164.3c0-0.1,0.1-0.2,0.1-0.3C541.2-164.5,541.1-164.4,541.1-164.3z"/>
</g>
</svg>
