<?xml version="1.0" encoding="utf-8"?>
<!-- Generator: Adobe Illustrator 19.0.0, SVG Export Plug-In . SVG Version: 6.00 Build 0)  -->
<svg version="1.2" baseProfile="tiny" id="Слой_2__x28_копия_x29_"
	 xmlns="http://www.w3.org/2000/svg" xmlns:xlink="http://www.w3.org/1999/xlink" x="0px" y="0px"
	 viewBox="-441.9 -266.4 860 1276.7" xml:space="preserve">
<g>
	<g>
		<path fill="#FFFFFF" d="M-349.8,972c-0.3-0.3-1-0.6-1.3-1.3C-350.4,971.4-350.1,971.7-349.8,972z"/>
		<path fill="#FFFFFF" d="M349.2-189.4c1.9,4.4,3.5,8.9,4.8,13.7C352.7-180.5,351.1-185,349.2-189.4z"/>
		<path fill="#FFFFFF" d="M313.9-233.3c3.8,2.9,7.3,5.7,10.5,8.9C320.9-227.9,317.4-230.7,313.9-233.3z"/>
		<path fill="#FFFFFF" d="M-341.8,979c-0.3-0.3-1-0.6-1.3-1.3C-342.8,978.4-342.1,978.7-341.8,979z"/>
		<path fill="#FFFFFF" d="M308.2-237.4c1.6,1,3.5,2.2,5.1,3.5C311.7-234.9,309.8-236.1,308.2-237.4z"/>
		<path fill="#FFFFFF" d="M346.3-195.8c1,1.9,2.2,4.1,3.2,6.4C348.2-191.3,347.3-193.5,346.3-195.8z"/>
		<path fill="#FFFFFF" d="M338.7-207.8c2.5,3.8,5.1,7.9,7.3,12.1C343.8-200.2,341.6-204,338.7-207.8z"/>
		<path fill="#FFFFFF" d="M325-224.1c3.5,3.2,6.4,6.7,9.5,10.2C331.4-217.4,328.2-220.9,325-224.1z"/>
		<path fill="#FFFFFF" d="M334.3-213.9c1.3,1.9,2.9,3.5,4.1,5.4C337.1-210.1,335.8-212,334.3-213.9z"/>
		<path fill="#FFFFFF" d="M-337.7,982.2c-0.6-0.3-1-0.6-1.6-1C-338.6,981.6-338,981.9-337.7,982.2z"/>
		<path fill="#FFFFFF" d="M-298,1000.3c-1-0.3-2.2-0.3-3.2-0.6C-300.2,999.7-299.2,1000-298,1000.3z"/>
		<path fill="#FFFFFF" d="M-303.7,998.7c-1-0.3-1.9-0.6-2.5-0.6C-305.6,998.1-304.6,998.4-303.7,998.7z"/>
		<path fill="#FFFFFF" d="M-309.1,997.1c-0.6-0.3-1.6-0.6-2.2-0.6C-310.7,996.5-310,996.8-309.1,997.1z"/>
		<path fill="#FFFFFF" d="M-291.6,1001.3c-1.6-0.3-2.9-0.6-4.4-0.6C-294.5,1000.9-293.2,1001.3-291.6,1001.3z"/>
		<path fill="#FFFFFF" d="M-324,990.8c-0.6-0.3-1.3-0.6-1.9-1C-325.3,990.1-324.7,990.5-324,990.8z"/>
		<path fill="#FFFFFF" d="M-333.2,985.4c-0.6-0.3-1-0.6-1.6-1C-334.2,984.7-333.9,985.1-333.2,985.4z"/>
		<path fill="#FFFFFF" d="M-314.2,995.2c-0.6-0.3-1.3-0.6-1.9-1C-315.8,994.6-315.1,994.9-314.2,995.2z"/>
		<path fill="#FFFFFF" d="M-328.8,987.9c-0.6-0.3-1.3-0.6-1.6-1C-329.7,987.3-329.4,987.6-328.8,987.9z"/>
		<path fill="#FFFFFF" d="M-319.3,993c-0.6-0.3-1.3-0.6-1.9-1C-320.5,992.4-319.9,992.7-319.3,993z"/>
		<path fill="#FFFFFF" d="M-345.6,975.8c-0.3-0.3-1-0.6-1.3-1.3C-346.6,974.9-346.3,975.2-345.6,975.8z"/>
		<path fill="#FFFFFF" d="M224.6,983.8c59.8,0,108.4-48.6,108.4-108.4V-164.9c0-29.9-12.1-56.9-31.5-76.3c1.9,1,3.8,2.2,6,3.5
			c-16.5-10.5-36.2-16.5-57.5-16.5h-524.1c-59.8,0-108.4,48.6-108.4,108.4V894.5c0,29.9,12.1,56.9,31.5,76.3
			c15.3,8.3,32.7,13,51.5,13H224.6z M-16.7-200.2c8.9,0,16.2,7.3,16.2,16.2c0,8.9-7.3,16.2-16.2,16.2c-8.9,0-16.2-7.3-16.2-16.2
			C-32.9-192.9-25.6-200.2-16.7-200.2z M-18.2,843c27.7,0,50.5,22.6,50.5,50.5s-22.6,50.5-50.5,50.5c-27.7,0-50.5-22.6-50.5-50.5
			S-45.9,843-18.2,843z"/>
		<path fill="#FFFFFF" d="M354.3-175.4c1.9,7,3.2,14.3,3.8,21.6C357.5-161.1,356.2-168.4,354.3-175.4z"/>
		<path fill="#FFFFFF" d="M358.4-145.9c0-2.5,0-5.1-0.3-7.6C358.1-151,358.4-148.4,358.4-145.9V894.5c0,59.8-48.6,108.4-108.4,108.4
			h-524.1c-5.7,0-11.1-0.3-16.5-1.3c5.4,1,10.8,1.3,16.5,1.3H250c59.8,0,108.4-48.6,108.4-108.4V-145.9z"/>
		<path fill="#162040" d="M366.4,894.5V-145.9c0-64.2-52.1-116.3-116.3-116.3h-524.1c-64.2,0-116.3,52.1-116.3,116.3V894.5
			c0,64.2,52.1,116.3,116.3,116.3H250C314.2,1010.8,366.4,958.7,366.4,894.5z M250,1002.9h-524.1c-5.7,0-11.1-0.3-16.5-1.3
			c-0.3,0-0.6,0-1-0.3c-1.6-0.3-2.9-0.6-4.4-0.6c-0.6,0-1.3-0.3-1.9-0.3c-1-0.3-2.2-0.3-3.2-0.6s-1.6-0.3-2.5-0.6s-1.9-0.6-2.5-0.6
			c-1-0.3-1.9-0.6-2.9-1c-0.6-0.3-1.6-0.6-2.2-0.6c-1-0.3-1.9-0.6-2.9-1.3c-0.6-0.3-1.3-0.6-1.9-1c-1-0.3-1.9-1-2.9-1.3
			c-0.6-0.3-1.3-0.6-1.9-1c-1-0.3-1.9-1-2.9-1.6c-0.6-0.3-1.3-0.6-1.9-1c-1-0.6-1.9-1-2.9-1.6c-0.6-0.3-1.3-0.6-1.6-1
			c-1-0.6-1.9-1.3-2.9-1.9c-0.6-0.3-1-0.6-1.6-1c-1-0.6-1.9-1.3-2.9-1.9c-0.6-0.3-1-0.6-1.6-1c-1-0.6-1.9-1.3-2.5-2.2
			c-0.3-0.3-1-0.6-1.3-1.3c-1-0.6-1.6-1.6-2.5-2.2c-0.3-0.3-1-0.6-1.3-1.3c-1-0.6-1.6-1.6-2.5-2.5c-0.3-0.3-1-0.6-1.3-1.3
			c0,0-0.3,0-0.3-0.3l0,0c-19.4-19.7-31.5-46.7-31.5-76.3v-1040c0-59.8,48.6-108.4,108.4-108.4h524.1c21,0,40.7,6,57.5,16.5
			c0.3,0.3,0.6,0.3,0.6,0.6c1.6,1,3.5,2.2,5.1,3.5c0.3,0,0.3,0.3,0.6,0.3c3.8,2.9,7.3,5.7,10.5,8.9c0.3,0.3,0.3,0.3,0.6,0.6
			c3.5,3.2,6.4,6.7,9.5,10.2l0,0c1.3,1.9,2.9,3.5,4.1,5.4l0.3,0.3c2.5,3.8,5.1,7.9,7.3,12.1c0,0,0,0.3,0.3,0.3
			c1,1.9,2.2,4.1,3.2,6.4l0,0c1.9,4.4,3.5,8.9,4.8,13.7v0.3c1.9,7,3.2,14.3,3.8,21.6v0.3c0.3,2.5,0.3,5.1,0.3,7.6V894.8
			C358.4,954.2,309.8,1002.9,250,1002.9z"/>
		<path fill="#98E8DC" d="M250,1002.9c59.8,0,108.4-48.6,108.4-108.4V-145.9c0-2.5,0-5.1-0.3-7.6v-0.3c-0.6-7.3-1.9-14.6-3.8-21.6
			v-0.3c-1.3-4.8-2.9-9.2-4.8-13.7l0,0c-1-2.2-1.9-4.1-3.2-6.4c0,0,0-0.3-0.3-0.3c-2.2-4.1-4.8-8.3-7.3-12.1l-0.3-0.3
			c-1.3-1.9-2.5-3.8-4.1-5.4l0,0c-2.9-3.5-6-7-9.5-10.2c-0.3-0.3-0.3-0.3-0.6-0.6c-3.2-3.2-7-6-10.5-8.9c-0.3,0-0.3-0.3-0.6-0.3
			c-1.6-1.3-3.5-2.2-5.1-3.5c-0.3-0.3-0.6-0.3-0.6-0.6c-1.9-1.3-3.8-2.2-6-3.5c19.4,19.7,31.5,46.4,31.5,76.3V875.1
			c0,59.8-48.6,108.4-108.4,108.4h-523.8c-18.8,0-36.2-4.8-51.5-13l0,0c0,0,0.3,0,0.3,0.3c0.3,0.3,1,0.6,1.3,1.3
			c1,1,1.6,1.6,2.5,2.5c0.3,0.3,1,0.6,1.3,1.3c1,0.6,1.6,1.6,2.5,2.2c0.3,0.3,1,0.6,1.3,1.3c1,0.6,1.9,1.3,2.5,2.2
			c0.6,0.3,1,0.6,1.6,1c1,0.6,1.9,1.3,2.9,1.9c0.6,0.3,1,0.6,1.6,1c1,0.6,1.9,1.3,2.9,1.9c0.6,0.3,1.3,0.6,1.6,1
			c1,0.6,1.9,1.3,2.9,1.6c0.6,0.3,1.3,0.6,1.9,1c1,0.6,1.9,1,2.9,1.6c0.6,0.3,1.3,0.6,1.9,1c1,0.3,1.9,1,2.9,1.3
			c0.6,0.3,1.3,0.6,1.9,1c1,0.3,1.9,0.6,2.9,1.3c0.6,0.3,1.6,0.6,2.2,0.6c1,0.3,1.9,0.6,2.9,1c1,0.3,1.9,0.6,2.5,0.6
			c1,0.3,1.6,0.6,2.5,0.6c1,0.3,2.2,0.6,3.2,0.6c0.6,0,1.3,0.3,1.9,0.3c1.3,0.3,2.9,0.6,4.4,0.6c0.3,0,0.6,0,1,0.3
			c5.4,1,10.8,1.3,16.5,1.3L250,1002.9L250,1002.9z"/>
		<path fill="#FFFFFF" d="M-18.2,935.8c-1.6,0-3.2,0-4.4-0.3C-21.4,935.8-19.8,935.8-18.2,935.8z"/>
		<path fill="#FFFFFF" d="M21.8,879.5c0.3,1,0.6,1.9,1,2.9C22.4,881.4,22.1,880.5,21.8,879.5z"/>
		<path fill="#FFFFFF" d="M-24.3,935.2c-1,0-2.2-0.3-3.2-0.6C-26.5,934.8-25.2,935.2-24.3,935.2z"/>
		<path fill="#FFFFFF" d="M24,888.7c0.3,1.6,0.3,3.2,0.3,4.8C24.3,891.6,24,890,24,888.7z"/>
		<path fill="#FFFFFF" d="M23.1,884c0.3,1,0.3,2.2,0.6,3.2C23.7,886.2,23.4,884.9,23.1,884z"/>
		<path fill="#FFFFFF" d="M17.7,870.6c0.6,1,1.3,2.2,1.9,3.5C18.9,872.9,18.3,871.9,17.7,870.6z"/>
		<path fill="#FFFFFF" d="M17.4,870.3c-2.5-3.8-5.7-7.3-9.5-10.2C11.6,863,14.8,866.5,17.4,870.3z"/>
		<path fill="#FFFFFF" d="M-41.1,928.8c-3.8-2.5-7.3-5.7-10.2-9.5c7.3,5.7,16.2,9.2,26.1,9.2c23.5,0,42.6-19.1,42.6-42.6
			c0-9.9-3.5-19.1-9.2-26.1c-7.3-5.7-16.2-9.2-26.1-9.2c-23.5,0-42.6,19.1-42.6,42.6C-60.5,908.1-52.9,921.5-41.1,928.8z"/>
		<path fill="#FFFFFF" d="M20.2,875.1c0.3,1,1,1.9,1.3,3.2C21.2,877.3,20.5,876,20.2,875.1z"/>
		<path fill="#FFFFFF" d="M-33.5,932.9c-1-0.3-1.9-1-2.9-1.3C-35.4,932-34.5,932.6-33.5,932.9z"/>
		<path fill="#FFFFFF" d="M-29.1,934.2c-1-0.3-1.9-0.6-2.9-1C-31,933.9-30,934.2-29.1,934.2z"/>
		<path fill="#FFFFFF" d="M-37.3,931c-1.3-0.6-2.2-1.3-3.2-1.9C-39.5,930.1-38.6,930.7-37.3,931z"/>
		<path fill="#162040" d="M-18.2,943.7c27.7,0,50.5-22.6,50.5-50.5s-22.6-50.5-50.5-50.5c-27.7,0-50.5,22.6-50.5,50.5
			S-45.9,943.7-18.2,943.7z M-18.2,850.9c9.9,0,19.1,3.5,26.1,9.2l0,0l0,0c3.8,2.9,7,6.4,9.5,10.2l0.3,0.3c0.6,1,1.3,2.2,1.9,3.5
			c0.3,0.3,0.3,0.6,0.6,1c0.3,1,1,1.9,1.3,3.2c0.3,0.3,0.3,1,0.6,1.3c0.3,1,0.6,1.9,1,2.9c0,0.6,0.3,1,0.3,1.6
			c0.3,1,0.3,2.2,0.6,3.2c0,0.6,0.3,1,0.3,1.6c0.3,1.6,0.3,3.2,0.3,4.8l0,0c0,23.5-19.1,42.6-42.6,42.6l0,0c-1.6,0-3.2,0-4.4-0.3
			c-0.6,0-1,0-1.6-0.3c-1,0-2.2-0.3-3.2-0.6c-0.6,0-1-0.3-1.6-0.3c-1-0.3-1.9-0.6-2.9-1c-0.3-0.3-1-0.3-1.3-0.6
			c-1-0.3-1.9-1-2.9-1.3c-0.3-0.3-0.6-0.3-1-0.6c-1.3-0.6-2.2-1.3-3.2-1.9c-0.3,0-0.3-0.3-0.6-0.3c-11.8-7.6-19.4-20.7-19.4-35.6
			C-60.5,870-41.8,850.9-18.2,850.9z"/>
		<path fill="#98E8DC" d="M-25.2,928.8c-9.9,0-19.1-3.5-26.1-9.2c2.9,3.8,6.4,7,10.2,9.5c0.3,0,0.3,0.3,0.6,0.3
			c1,0.6,2.2,1.3,3.2,1.9c0.3,0.3,0.6,0.3,1,0.6c1,0.3,1.9,1,2.9,1.3c0.3,0.3,1,0.3,1.3,0.6c1,0.3,1.9,0.6,2.9,1
			c0.6,0,1,0.3,1.6,0.3c1,0.3,2.2,0.3,3.2,0.6c0.6,0,1,0.3,1.6,0.3c1.6,0.3,3.2,0.3,4.4,0.3l0,0C5,936.4,24,917.4,24,893.8l0,0
			c0-1.6,0-3.2-0.3-4.8c0-0.6,0-1-0.3-1.6c0-1-0.3-2.2-0.6-3.2c0-0.6-0.3-1-0.3-1.6c-0.3-1-0.6-1.9-1-2.9c0-0.3-0.3-1-0.6-1.3
			c-0.3-1-1-1.9-1.3-3.2c-0.3-0.3-0.3-0.6-0.6-1c-0.6-1.3-1.3-2.2-1.9-3.5l-0.3-0.3c-2.5-3.8-5.7-7.3-9.5-10.2l0,0l0,0
			c5.7,7.3,9.2,16.2,9.2,26.1C17,909.7-2,928.8-25.2,928.8z"/>
		<circle fill="#FFFFFF" cx="-16.7" cy="-184" r="8.3"/>
		<path fill="#162040" d="M-16.7-167.8c8.9,0,16.2-7.3,16.2-16.2c0-8.9-7.3-16.2-16.2-16.2c-8.9,0-16.2,7.3-16.2,16.2
			C-32.9-175.1-25.6-167.8-16.7-167.8z M-16.7-192.3c4.8,0,8.3,3.8,8.3,8.3c0,4.8-3.8,8.3-8.3,8.3s-8.3-3.8-8.3-8.3
			S-21.4-192.3-16.7-192.3z"/>
	</g>
	<g>
		<path fill="#FFFFFF" d="M299.3,772.4c0,17.5-14.3,31.8-31.8,31.8h-559.4c-17.5,0-31.8-14.3-31.8-31.8V-85.8
			c0-17.5,14.3-31.8,31.8-31.8h559.4c17.5,0,31.8,14.3,31.8,31.8V772.4z"/>
		<path fill="none" stroke="#202642" stroke-width="3" stroke-miterlimit="10" d="M299.3,772.4c0,17.5-14.3,31.8-31.8,31.8h-559.4
			c-17.5,0-31.8-14.3-31.8-31.8V-85.8c0-17.5,14.3-31.8,31.8-31.8h559.4c17.5,0,31.8,14.3,31.8,31.8V772.4z"/>
	</g>
</g>
</svg>
