<?xml version="1.0" encoding="utf-8"?>
<!-- Generator: Adobe Illustrator 19.0.0, SVG Export Plug-In . SVG Version: 6.00 Build 0)  -->
<svg version="1.2" baseProfile="tiny" id="Layer_1" xmlns="http://www.w3.org/2000/svg" xmlns:xlink="http://www.w3.org/1999/xlink"
	 x="0px" y="0px" viewBox="0 0 238.1 400.5" xml:space="preserve">
<g>
	<g>
		<path fill="#FFFFFF" d="M12.8,388.3c-0.1-0.1-0.3-0.2-0.4-0.4C12.6,388.1,12.7,388.2,12.8,388.3z"/>
		<path fill="#FFFFFF" d="M232.7,22.9c0.6,1.4,1.1,2.8,1.5,4.3C233.8,25.7,233.3,24.3,232.7,22.9z"/>
		<path fill="#FFFFFF" d="M221.6,9.1c1.2,0.9,2.3,1.8,3.3,2.8C223.8,10.8,222.7,9.9,221.6,9.1z"/>
		<path fill="#FFFFFF" d="M15.3,390.5c-0.1-0.1-0.3-0.2-0.4-0.4C15,390.3,15.2,390.4,15.3,390.5z"/>
		<path fill="#FFFFFF" d="M219.8,7.8c0.5,0.3,1.1,0.7,1.6,1.1C220.9,8.6,220.3,8.2,219.8,7.8z"/>
		<path fill="#FFFFFF" d="M231.8,20.9c0.3,0.6,0.7,1.3,1,2C232.4,22.3,232.1,21.6,231.8,20.9z"/>
		<path fill="#FFFFFF" d="M229.4,17.1c0.8,1.2,1.6,2.5,2.3,3.8C231,19.5,230.3,18.3,229.4,17.1z"/>
		<path fill="#FFFFFF" d="M225.1,12c1.1,1,2,2.1,3,3.2C227.1,14.1,226.1,13,225.1,12z"/>
		<path fill="#FFFFFF" d="M228,15.2c0.4,0.6,0.9,1.1,1.3,1.7C228.9,16.4,228.5,15.8,228,15.2z"/>
		<path fill="#FFFFFF" d="M16.6,391.5c-0.2-0.1-0.3-0.2-0.5-0.3C16.3,391.3,16.5,391.4,16.6,391.5z"/>
		<path fill="#FFFFFF" d="M29.1,397.2c-0.3-0.1-0.7-0.1-1-0.2C28.4,397,28.7,397.1,29.1,397.2z"/>
		<path fill="#FFFFFF" d="M27.3,396.7c-0.3-0.1-0.6-0.2-0.8-0.2C26.7,396.5,27,396.6,27.3,396.7z"/>
		<path fill="#FFFFFF" d="M25.6,396.2c-0.2-0.1-0.5-0.2-0.7-0.2C25.1,396,25.3,396.1,25.6,396.2z"/>
		<path fill="#FFFFFF" d="M31.1,397.5c-0.5-0.1-0.9-0.2-1.4-0.2C30.2,397.4,30.6,397.5,31.1,397.5z"/>
		<path fill="#FFFFFF" d="M20.9,394.2c-0.2-0.1-0.4-0.2-0.6-0.3C20.5,394,20.7,394.1,20.9,394.2z"/>
		<path fill="#FFFFFF" d="M18,392.5c-0.2-0.1-0.3-0.2-0.5-0.3C17.7,392.3,17.8,392.4,18,392.5z"/>
		<path fill="#FFFFFF" d="M24,395.6c-0.2-0.1-0.4-0.2-0.6-0.3C23.5,395.4,23.7,395.5,24,395.6z"/>
		<path fill="#FFFFFF" d="M19.4,393.3c-0.2-0.1-0.4-0.2-0.5-0.3C19.1,393.1,19.2,393.2,19.4,393.3z"/>
		<path fill="#FFFFFF" d="M22.4,394.9c-0.2-0.1-0.4-0.2-0.6-0.3C22,394.7,22.2,394.8,22.4,394.9z"/>
		<path fill="#FFFFFF" d="M14.1,389.5c-0.1-0.1-0.3-0.2-0.4-0.4C13.8,389.2,13.9,389.3,14.1,389.5z"/>
		<path fill="#FFFFFF" d="M193.5,392c18.8,0,34.1-15.3,34.1-34.1V30.6c0-9.4-3.8-17.9-9.9-24c0.6,0.3,1.2,0.7,1.9,1.1
			c-5.2-3.3-11.4-5.2-18.1-5.2H36.6C17.8,2.5,2.5,17.8,2.5,36.6v327.3c0,9.4,3.8,17.9,9.9,24c4.8,2.6,10.3,4.1,16.2,4.1H193.5z
			 M117.6,19.5c2.8,0,5.1,2.3,5.1,5.1s-2.3,5.1-5.1,5.1c-2.8,0-5.1-2.3-5.1-5.1S114.8,19.5,117.6,19.5z M117.1,347.7
			c8.7,0,15.9,7.1,15.9,15.9s-7.1,15.9-15.9,15.9c-8.7,0-15.9-7.1-15.9-15.9S108.4,347.7,117.1,347.7z"/>
		<path fill="#FFFFFF" d="M234.3,27.3c0.6,2.2,1,4.5,1.2,6.8C235.3,31.8,234.9,29.5,234.3,27.3z"/>
		<path fill="#FFFFFF" d="M235.6,36.6c0-0.8,0-1.6-0.1-2.4C235.5,35,235.6,35.8,235.6,36.6l0,327.3c0,18.8-15.3,34.1-34.1,34.1H36.6
			c-1.8,0-3.5-0.1-5.2-0.4c1.7,0.3,3.4,0.4,5.2,0.4h164.9c18.8,0,34.1-15.3,34.1-34.1V36.6z"/>
		<path fill="#162040" d="M238.1,363.9V36.6c0-20.2-16.4-36.6-36.6-36.6H36.6C16.4,0,0,16.4,0,36.6v327.3
			c0,20.2,16.4,36.6,36.6,36.6h164.9C221.7,400.5,238.1,384.1,238.1,363.9z M201.5,398H36.6c-1.8,0-3.5-0.1-5.2-0.4
			c-0.1,0-0.2,0-0.3-0.1c-0.5-0.1-0.9-0.2-1.4-0.2c-0.2,0-0.4-0.1-0.6-0.1c-0.3-0.1-0.7-0.1-1-0.2c-0.3-0.1-0.5-0.1-0.8-0.2
			c-0.3-0.1-0.6-0.2-0.8-0.2c-0.3-0.1-0.6-0.2-0.9-0.3c-0.2-0.1-0.5-0.2-0.7-0.2c-0.3-0.1-0.6-0.2-0.9-0.4c-0.2-0.1-0.4-0.2-0.6-0.3
			c-0.3-0.1-0.6-0.3-0.9-0.4c-0.2-0.1-0.4-0.2-0.6-0.3c-0.3-0.1-0.6-0.3-0.9-0.5c-0.2-0.1-0.4-0.2-0.6-0.3c-0.3-0.2-0.6-0.3-0.9-0.5
			c-0.2-0.1-0.4-0.2-0.5-0.3c-0.3-0.2-0.6-0.4-0.9-0.6c-0.2-0.1-0.3-0.2-0.5-0.3c-0.3-0.2-0.6-0.4-0.9-0.6c-0.2-0.1-0.3-0.2-0.5-0.3
			c-0.3-0.2-0.6-0.4-0.8-0.7c-0.1-0.1-0.3-0.2-0.4-0.4c-0.3-0.2-0.5-0.5-0.8-0.7c-0.1-0.1-0.3-0.2-0.4-0.4c-0.3-0.2-0.5-0.5-0.8-0.8
			c-0.1-0.1-0.3-0.2-0.4-0.4c0,0-0.1,0-0.1-0.1c0,0,0,0,0,0c-6.1-6.2-9.9-14.7-9.9-24V36.6c0-18.8,15.3-34.1,34.1-34.1h164.9
			c6.6,0,12.8,1.9,18.1,5.2c0.1,0.1,0.2,0.1,0.2,0.2c0.5,0.3,1.1,0.7,1.6,1.1c0.1,0,0.1,0.1,0.2,0.1c1.2,0.9,2.3,1.8,3.3,2.8
			c0.1,0.1,0.1,0.1,0.2,0.2c1.1,1,2,2.1,3,3.2c0,0,0,0,0,0c0.4,0.6,0.9,1.1,1.3,1.7c0,0,0.1,0.1,0.1,0.1c0.8,1.2,1.6,2.5,2.3,3.8
			c0,0,0,0.1,0.1,0.1c0.3,0.6,0.7,1.3,1,2c0,0,0,0,0,0c0.6,1.4,1.1,2.8,1.5,4.3c0,0,0,0.1,0,0.1c0.6,2.2,1,4.5,1.2,6.8
			c0,0,0,0.1,0,0.1c0.1,0.8,0.1,1.6,0.1,2.4v327.3C235.6,382.7,220.3,398,201.5,398z"/>
		<path fill="#98E8DC" d="M201.5,398c18.8,0,34.1-15.3,34.1-34.1V36.6c0-0.8,0-1.6-0.1-2.4c0,0,0-0.1,0-0.1
			c-0.2-2.3-0.6-4.6-1.2-6.8c0,0,0-0.1,0-0.1c-0.4-1.5-0.9-2.9-1.5-4.3c0,0,0,0,0,0c-0.3-0.7-0.6-1.3-1-2c0,0,0-0.1-0.1-0.1
			c-0.7-1.3-1.5-2.6-2.3-3.8c0,0-0.1-0.1-0.1-0.1c-0.4-0.6-0.8-1.2-1.3-1.7c0,0,0,0,0,0c-0.9-1.1-1.9-2.2-3-3.2
			c-0.1-0.1-0.1-0.1-0.2-0.2c-1-1-2.2-1.9-3.3-2.8c-0.1,0-0.1-0.1-0.2-0.1c-0.5-0.4-1.1-0.7-1.6-1.1c-0.1-0.1-0.2-0.1-0.2-0.2
			c-0.6-0.4-1.2-0.7-1.9-1.1c6.1,6.2,9.9,14.6,9.9,24v327.3c0,18.8-15.3,34.1-34.1,34.1H28.6c-5.9,0-11.4-1.5-16.2-4.1c0,0,0,0,0,0
			c0,0,0.1,0,0.1,0.1c0.1,0.1,0.3,0.2,0.4,0.4c0.3,0.3,0.5,0.5,0.8,0.8c0.1,0.1,0.3,0.2,0.4,0.4c0.3,0.2,0.5,0.5,0.8,0.7
			c0.1,0.1,0.3,0.2,0.4,0.4c0.3,0.2,0.6,0.4,0.8,0.7c0.2,0.1,0.3,0.2,0.5,0.3c0.3,0.2,0.6,0.4,0.9,0.6c0.2,0.1,0.3,0.2,0.5,0.3
			c0.3,0.2,0.6,0.4,0.9,0.6c0.2,0.1,0.4,0.2,0.5,0.3c0.3,0.2,0.6,0.4,0.9,0.5c0.2,0.1,0.4,0.2,0.6,0.3c0.3,0.2,0.6,0.3,0.9,0.5
			c0.2,0.1,0.4,0.2,0.6,0.3c0.3,0.1,0.6,0.3,0.9,0.4c0.2,0.1,0.4,0.2,0.6,0.3c0.3,0.1,0.6,0.2,0.9,0.4c0.2,0.1,0.5,0.2,0.7,0.2
			c0.3,0.1,0.6,0.2,0.9,0.3c0.3,0.1,0.6,0.2,0.8,0.2c0.3,0.1,0.5,0.2,0.8,0.2c0.3,0.1,0.7,0.2,1,0.2c0.2,0,0.4,0.1,0.6,0.1
			c0.4,0.1,0.9,0.2,1.4,0.2c0.1,0,0.2,0,0.3,0.1c1.7,0.3,3.4,0.4,5.2,0.4H201.5z"/>
		<path fill="#FFFFFF" d="M117.1,376.9c-0.5,0-1,0-1.4-0.1C116.1,376.9,116.6,376.9,117.1,376.9z"/>
		<path fill="#FFFFFF" d="M129.7,359.2c0.1,0.3,0.2,0.6,0.3,0.9C129.9,359.8,129.8,359.5,129.7,359.2z"/>
		<path fill="#FFFFFF" d="M115.2,376.7c-0.3,0-0.7-0.1-1-0.2C114.5,376.6,114.9,376.7,115.2,376.7z"/>
		<path fill="#FFFFFF" d="M130.4,362.1c0.1,0.5,0.1,1,0.1,1.5C130.5,363,130.4,362.5,130.4,362.1z"/>
		<path fill="#FFFFFF" d="M130.1,360.6c0.1,0.3,0.1,0.7,0.2,1C130.3,361.3,130.2,360.9,130.1,360.6z"/>
		<path fill="#FFFFFF" d="M128.4,356.4c0.2,0.3,0.4,0.7,0.6,1.1C128.8,357.1,128.6,356.8,128.4,356.4z"/>
		<path fill="#FFFFFF" d="M128.3,356.3c-0.8-1.2-1.8-2.3-3-3.2C126.5,354,127.5,355.1,128.3,356.3z"/>
		<path fill="#FFFFFF" d="M109.9,374.7c-1.2-0.8-2.3-1.8-3.2-3c2.3,1.8,5.1,2.9,8.2,2.9c7.4,0,13.4-6,13.4-13.4c0-3.1-1.1-6-2.9-8.2
			c-2.3-1.8-5.1-2.9-8.2-2.9c-7.4,0-13.4,6-13.4,13.4C103.8,368.2,106.2,372.4,109.9,374.7z"/>
		<path fill="#FFFFFF" d="M129.2,357.8c0.1,0.3,0.3,0.6,0.4,1C129.5,358.5,129.3,358.1,129.2,357.8z"/>
		<path fill="#FFFFFF" d="M112.3,376c-0.3-0.1-0.6-0.3-0.9-0.4C111.7,375.7,112,375.9,112.3,376z"/>
		<path fill="#FFFFFF" d="M113.7,376.4c-0.3-0.1-0.6-0.2-0.9-0.3C113.1,376.3,113.4,376.4,113.7,376.4z"/>
		<path fill="#FFFFFF" d="M111.1,375.4c-0.4-0.2-0.7-0.4-1-0.6C110.4,375.1,110.7,375.3,111.1,375.4z"/>
		<path fill="#162040" d="M117.1,379.4c8.7,0,15.9-7.1,15.9-15.9s-7.1-15.9-15.9-15.9c-8.7,0-15.9,7.1-15.9,15.9
			S108.4,379.4,117.1,379.4z M117.1,350.2c3.1,0,6,1.1,8.2,2.9c0,0,0,0,0,0c0,0,0,0,0,0c1.2,0.9,2.2,2,3,3.2c0,0,0.1,0.1,0.1,0.1
			c0.2,0.3,0.4,0.7,0.6,1.1c0.1,0.1,0.1,0.2,0.2,0.3c0.1,0.3,0.3,0.6,0.4,1c0.1,0.1,0.1,0.3,0.2,0.4c0.1,0.3,0.2,0.6,0.3,0.9
			c0,0.2,0.1,0.3,0.1,0.5c0.1,0.3,0.1,0.7,0.2,1c0,0.2,0.1,0.3,0.1,0.5c0.1,0.5,0.1,1,0.1,1.5c0,0,0,0,0,0c0,7.4-6,13.4-13.4,13.4
			c0,0,0,0,0,0c-0.5,0-1,0-1.4-0.1c-0.2,0-0.3,0-0.5-0.1c-0.3,0-0.7-0.1-1-0.2c-0.2,0-0.3-0.1-0.5-0.1c-0.3-0.1-0.6-0.2-0.9-0.3
			c-0.1-0.1-0.3-0.1-0.4-0.2c-0.3-0.1-0.6-0.3-0.9-0.4c-0.1-0.1-0.2-0.1-0.3-0.2c-0.4-0.2-0.7-0.4-1-0.6c-0.1,0-0.1-0.1-0.2-0.1
			c-3.7-2.4-6.1-6.5-6.1-11.2C103.8,356.2,109.7,350.2,117.1,350.2z"/>
		<path fill="#98E8DC" d="M114.9,374.7c-3.1,0-6-1.1-8.2-2.9c0.9,1.2,2,2.2,3.2,3c0.1,0,0.1,0.1,0.2,0.1c0.3,0.2,0.7,0.4,1,0.6
			c0.1,0.1,0.2,0.1,0.3,0.2c0.3,0.1,0.6,0.3,0.9,0.4c0.1,0.1,0.3,0.1,0.4,0.2c0.3,0.1,0.6,0.2,0.9,0.3c0.2,0,0.3,0.1,0.5,0.1
			c0.3,0.1,0.7,0.1,1,0.2c0.2,0,0.3,0.1,0.5,0.1c0.5,0.1,1,0.1,1.4,0.1c0,0,0,0,0,0c7.4,0,13.4-6,13.4-13.4c0,0,0,0,0,0
			c0-0.5,0-1-0.1-1.5c0-0.2,0-0.3-0.1-0.5c0-0.3-0.1-0.7-0.2-1c0-0.2-0.1-0.3-0.1-0.5c-0.1-0.3-0.2-0.6-0.3-0.9
			c0-0.1-0.1-0.3-0.2-0.4c-0.1-0.3-0.3-0.6-0.4-1c-0.1-0.1-0.1-0.2-0.2-0.3c-0.2-0.4-0.4-0.7-0.6-1.1c0,0-0.1-0.1-0.1-0.1
			c-0.8-1.2-1.8-2.3-3-3.2c0,0,0,0,0,0c0,0,0,0,0,0c1.8,2.3,2.9,5.1,2.9,8.2C128.2,368.7,122.2,374.7,114.9,374.7z"/>
		<circle fill="#FFFFFF" cx="117.6" cy="24.6" r="2.6"/>
		<path fill="#162040" d="M117.6,29.7c2.8,0,5.1-2.3,5.1-5.1s-2.3-5.1-5.1-5.1c-2.8,0-5.1,2.3-5.1,5.1S114.8,29.7,117.6,29.7z
			 M117.6,22c1.5,0,2.6,1.2,2.6,2.6c0,1.5-1.2,2.6-2.6,2.6s-2.6-1.2-2.6-2.6C115,23.2,116.1,22,117.6,22z"/>
	</g>
	<g>
		<path fill="#FFFFFF" d="M217,325.5c0,5.5-4.5,10-10,10H31c-5.5,0-10-4.5-10-10v-270c0-5.5,4.5-10,10-10h176c5.5,0,10,4.5,10,10
			V325.5z"/>
		<path fill="none" stroke="#202642" stroke-width="3" stroke-miterlimit="10" d="M217,325.5c0,5.5-4.5,10-10,10H31
			c-5.5,0-10-4.5-10-10v-270c0-5.5,4.5-10,10-10h176c5.5,0,10,4.5,10,10V325.5z"/>
	</g>
</g>
</svg>
