<?xml version="1.0" encoding="utf-8"?>
<!-- Generator: Adobe Illustrator 19.0.0, SVG Export Plug-In . SVG Version: 6.00 Build 0)  -->
<svg version="1.2" baseProfile="tiny" id="Layer_1" xmlns="http://www.w3.org/2000/svg" xmlns:xlink="http://www.w3.org/1999/xlink"
	 x="0px" y="0px" viewBox="0 0 274.5 810.1" xml:space="preserve">
<g>
	<path fill="none" d="M83.4,790.7c0,0.3,0,0.6,0.1,1C83.4,791.3,83.4,791,83.4,790.7l0.2-0.2c0,0,0,0-0.1-0.1c0,0,0,0,0.1,0.1
		L83.4,790.7z"/>
	<path fill="none" d="M81.9,789.1l-0.1,0c0,0.2,0,0.4,0,0.6c0-0.2-0.1-0.4,0-0.6L81.9,789.1z"/>
	<path fill="none" d="M155.7,50.3c0.2,0.6,0.3,1.3,0.3,1.9C156,51.6,155.9,51,155.7,50.3z"/>
	<path fill="none" d="M127.2,800.9c-3.7,0.7-7.5,1.1-11.3,1C119.7,802,123.5,801.7,127.2,800.9z"/>
	<path fill="none" d="M77.5,788.6C77.5,788.6,77.5,788.6,77.5,788.6C77.5,788.6,77.5,788.6,77.5,788.6z"/>
	<path fill="none" d="M76,787.6c0.2,0.2,0.5,0.3,0.7,0.5C76.5,787.9,76.3,787.8,76,787.6z"/>
	<path fill="none" d="M81.9,790.5c0.1,0.2,0.1,0.4,0.2,0.6c0,0,0,0,0,0C82,790.9,82,790.7,81.9,790.5z"/>
	<path fill="none" d="M192.5,781l0,0.1L192.5,781c16.1,5.3,33.2,7.3,50.1,5.9C225.8,788.3,208.6,786.3,192.5,781z"/>
	<path fill="#1B2A54" d="M83.5,791.6c0-0.3-0.1-0.6-0.1-1l0.2-0.2c0,0,0,0-0.1-0.1c-0.5-0.4-1-0.9-1.5-1.3l-0.1,0l-0.1,0
		c0,0.2,0,0.4,0,0.6c0,0.2,0.1,0.5,0.1,0.7c0.1,0.2,0.1,0.4,0.2,0.6c0,0,0,0,0,0c0,0,0,0,0,0c-1.6-0.7-3.1-1.5-4.5-2.4
		c0,0-0.1,0-0.1-0.1c-0.3-0.2-0.5-0.4-0.8-0.5c-0.2-0.2-0.5-0.3-0.7-0.5c-1.9-1.4-3.6-3-5.1-4.8c0,0.4,0,0.7,0,1.1
		c0,1.9,0.1,3.8,0.9,5.5c1,2.3,3.1,3.9,5.3,4.9c2.3,1,4.7,1.3,7.2,1.7l0.4-0.2c0,0,0,0,0,0C84,794.5,83.6,793.1,83.5,791.6z"/>
	<path fill="#1B2A54" d="M256,785C256,785,256,785,256,785l-1.5,0.5c-4,0.7-7.9,1.2-11.9,1.5c-16.9,1.3-34-0.7-50.1-5.9l0,0.1
		l-0.1,0.4c0,0.1,0,0.2,0,0.3c0,0,0,0,0,0c0,0,0,0,0,0c0,0.1,0,0.1,0,0.1c5,6.6,14,9,22.4,10c13.9,1.8,28,1.6,41.8-0.6l2.4-0.5
		C258.3,788.8,257.3,786.8,256,785L256,785z"/>
	<path fill="#1B2A54" d="M188.7,781.5c-7.9-0.7-15.9-1.3-23.8-2l-0.7,0.1c0.3,2.7,0.8,5.3,1.6,8l0.3,0.6c8.7,2.1,17.8,2.7,26.8,2
		c-0.5-2.7-0.6-5.5-0.5-8.2c0-0.1-0.1-0.1-0.1-0.2c0,0,0,0,0,0C191,781.7,189.9,781.6,188.7,781.5z"/>
	<polygon fill="#1B2A54" points="137.7,798 137.7,798 137.7,798 	"/>
	<path fill="#1B2A54" d="M127.2,800.9c-3.7,0.7-7.5,1.1-11.3,1c-11.7-0.2-23.3-4.2-32.4-11.5c0,0,0,0,0,0l-0.2,0.2
		c0,0.3,0,0.6,0.1,1c0.1,1.5,0.6,2.9,1.3,4.2c0,0,0,0,0,0c1,1.8,2.4,3.5,4.1,4.7c3.1,2.4,6.8,3.7,10.6,4.8
		c6.5,1.9,13.2,3.4,19.9,3.3c6.8,0,13.6-1.7,19.3-5.4l0.4-0.3c-0.2-1.7-0.7-3.4-1.3-5l-1.3,0.2C133.5,799.4,130.4,800.3,127.2,800.9
		z"/>
	<path fill="#FFB864" d="M192.3,781.5l0.1-0.4l0-0.1c16.1,5.3,33.2,7.3,50.1,5.9c4-0.3,8-0.8,11.9-1.5l1.5-0.5c0,0,0,0,0,0
		c-2.7-4-6.7-7.3-11-9.5c-3-1.5-6.2-2.7-9.5-3.5c-2.6-0.6-5.2-1.1-7.8-1.4c-1.1-0.1-2.2-0.3-3.3-0.4c-2.7-0.3-5.4-0.5-8.1-0.6
		c-2.6-0.2-5.2-0.4-7.9-0.6c-1.8-0.2-3.5-0.4-5.3-0.6c-2.7-0.4-5.3-1-7.6-2.3c-2.3-1.4-4.2-3.7-4.3-6.4l0-0.4c-0.2,0-0.4,0-0.7-0.1
		c-9.1-0.9-15.6-1.5-24.7-0.8l0,0.5c-2,6.8-2.5,13.9-1.7,20.9l0.7-0.1c7.9,0.6,15.9,1.3,23.8,2c1.2,0.1,2.3,0.2,3.5,0.3c0,0,0,0,0,0
		c0,0,0.1,0,0.1,0c0,0,0,0,0,0C192.3,781.7,192.3,781.6,192.3,781.5z"/>
	<path fill="#FFB864" d="M72.8,763.1l-0.5-0.1c-1,6.6-1.4,13.2-1.4,19.8c0,0,0,0,0,0c1.5,1.8,3.2,3.4,5.1,4.8
		c0.2,0.2,0.5,0.3,0.7,0.5c0.3,0.2,0.5,0.4,0.8,0.5c0,0,0.1,0,0.1,0.1c1.4,0.9,3,1.7,4.5,2.4c0,0,0,0,0,0c-0.1-0.2-0.1-0.4-0.2-0.6
		c-0.1-0.2-0.1-0.5-0.1-0.7c0-0.2-0.1-0.4,0-0.6l0.1,0l0.1,0c0.5,0.4,1,0.9,1.5,1.3c0,0,0,0,0.1,0.1c0,0,0,0,0,0
		c9.1,7.3,20.7,11.3,32.4,11.5c3.8,0.1,7.6-0.3,11.3-1c3.1-0.6,6.2-1.5,9.2-2.8l1.3-0.2l0,0c0,0,0,0,0,0v0c-1.8-4.8-5.3-9-9.3-12.3
		c-1.1-0.9-2.3-1.8-3.4-2.6c-2.9-2-6-3.7-9.2-5.4c-1.7-0.9-3.4-1.8-5.1-2.7c-0.8-0.4-1.7-0.9-2.5-1.4c-2.5-1.4-5-2.9-7.4-4.5
		c-2.5-1.8-4.9-3.7-6.9-6V763C86.9,763,79.9,763.1,72.8,763.1z"/>
	<path fill="#446EB7" d="M107.5,355.5c2.7-1.8,3.5-5.9,1.7-8.6c-1.8-2.7-6-3.5-8.6-1.6l-0.4-0.2c-2.6,2-3.3,6-1.4,8.7
		C100.7,356.5,104.8,357.3,107.5,355.5z"/>
	<path fill="#446EB7" d="M213.2,71.1c-0.3,0.2-0.6,0.4-0.9,0.5c-0.6,0.3-1.2,0.6-1.8,0.8l0.9,0.1c3.2,2.6,4.9,6.6,5.5,10.7
		c0.6,4.1,0,8.2-0.7,12.2c-0.2,1.1-0.4,2.2-0.7,3.3l2,0.3c9.6-11.3,11.5-28.6,4.6-41.7l-1-0.2c0,0,0,0,0,0
		C220.2,62.7,217.9,68.1,213.2,71.1z"/>
	<path fill="#446EB7" d="M141.7,31.4c-8.4,1.7-16.1,6.7-21.1,13.7c-5,7-7.3,15.8-6.3,24.4l0.9,1.5c3-1.2,6.6-1,9.3,0.7
		c3.9,2.4,5.8,7.6,4.4,12l0.1,0c-0.7,1.2-1.2,2.4-1.2,3.8c-0.1,1.9,1.2,4.1,3.2,4.2c1.8,0.1,3.3-1.5,3.7-3.2
		c0.5-1.7,0.2-3.6,0.1-5.4c-0.5-9.4,5-18.9,13.4-23.2c2.8-1.4,6.3-2.7,7.5-5.5c0-0.1,0.1-0.2,0.1-0.2c0-0.1,0.1-0.2,0.1-0.4
		c0.1-0.5,0.2-1,0.2-1.5c0-0.6-0.1-1.3-0.3-1.9c-0.2-0.8-0.5-1.6-0.8-2.4C152.2,41.4,147.6,35.6,141.7,31.4
		C141.8,31.5,141.8,31.4,141.7,31.4C141.8,31.4,141.8,31.4,141.7,31.4L141.7,31.4z"/>
	<path fill="#446EB7" d="M154.9,48c0.3,0.8,0.6,1.6,0.8,2.4c0.2,0.6,0.3,1.3,0.3,1.9c0,0.5-0.1,1-0.2,1.5c0,0.1-0.1,0.3-0.1,0.4
		c0,0.1-0.1,0.2-0.1,0.2c1.6,2.5,5.1,3.4,8.2,3.8c2.4,0.3,5,0.3,7.3-0.4c1.9,3.5,5.4,6.2,9.2,7.1c3.9,1,8.2,0.2,11.6-2l0.1,0
		c0.6,2.4,1.8,4.6,3.6,6.4c3.8,3.8,10,5,15.1,3.2c0.6-0.2,1.2-0.5,1.8-0.8c0.3-0.2,0.6-0.3,0.9-0.5c4.7-3,7-8.4,8-14c0,0,0,0,0,0
		c0.3-1.6,0.4-3.3,0.5-4.9c0.5-15.9-6.4-31.8-18.4-42.2l-0.5,0.6c0.4,4,0.7,8,1.1,12l-0.6,0.3c-1-2.2-2.2-4.4-3.6-6.4
		c-6.5-9.1-17.6-14.9-28.8-15l-0.2,0.6c5.4,1.3,9.8,6.1,10.7,11.6l-1.5,0.3c-0.9-0.7-1.9-1.3-2.9-1.9c-7.7-4.1-17.1-3.7-25.3-0.9
		c-8,2.7-15,7.6-21.7,12.6l0.5,0.6c5.6-1.2,11.3-2.4,17-2.1l0,0.8c-3.7,0.5-6.5,4.7-5.5,8.4c0,0,0,0,0,0
		C147.6,35.6,152.2,41.4,154.9,48z"/>
</g>
<g>
	<path fill="#B2E7DC" d="M130.4,24.4c4.2-0.9,8.5-1.8,12.7-2.1c7.9-5.9,17.7-8.2,27.7-6.9c3.1,0.4,5-1.4,5.5-3.7
		c-7.5-3.7-16.7-3.4-24.7-0.6c-8,2.7-15,7.6-21.7,12.6L130.4,24.4z"/>
	<path fill="#B2E7DC" d="M199.8,48.5c-0.7,3.8,5.1,5.4,5.8,1.6c3.7-20.4-7-39.7-26.2-47.4c-0.5-0.1-1-0.2-1.4-0.3
		c-1.2,0-2.1,0.9-2.4,2.1c1.8,1.3,3.2,3,4.2,4.9C194.5,16.4,202.7,32.3,199.8,48.5z"/>
	<path fill="#B2E7DC" d="M203.2,10l-0.5,0.6c0.2,2.7,0.5,5.4,0.7,8.1c5,8.9,9.8,18.3,11.1,28.3c0.8,6.2-0.2,13.2-5.6,17.1
		c-5.2,3.7-13.4,1.1-12.9-6c0.3-3.8-5.7-3.8-6,0c-0.1,1.9,0.2,3.6,0.8,5.3c0.3-0.2,0.6-0.4,0.9-0.6l0.1,0c0.6,2.4,1.8,4.6,3.6,6.4
		c0.1,0.1,0.2,0.1,0.2,0.2c1.6,1.1,3.5,2,5.4,2.4c7.2,1.4,14-3.5,17.2-9.6c7.6-14.6-1.9-32.9-9.9-46.8
		C206.9,13.4,205.1,11.7,203.2,10z"/>
	<path fill="#B2E7DC" d="M175.2,55.3c3.1-3.6,3.4-9.1,3.2-13.7c-0.1-3.8-6.1-3.9-6,0c0.1,2.8,0.2,6.2-1.2,8.8
		c-2.3,4.4-10,1.5-13.5,0.4c-0.7-0.2-1.3-0.2-1.9,0c0.2,1,0.2,2-0.1,2.9c-0.1,0.2-0.1,0.4-0.2,0.6c1.6,2.5,5.1,3.4,8.2,3.8
		c2.4,0.3,5,0.3,7.3-0.4c0,0.1,0.1,0.2,0.2,0.3C172.7,57.5,174,56.6,175.2,55.3z"/>
</g>
<g>
	<path fill="#446EB7" d="M75,482.1l0.8,0.1c1.4-0.7,2.7-1.5,4-2.3c9.1-5.9,15.8-15.4,18.3-25.9c-7,1.2-14.1,1.8-21.2,1.9l0,2.6
		C76.3,466.3,75.7,474.2,75,482.1z"/>
	<path fill="#446EB7" d="M201.5,452.8l0.2-1.5c1.3-7.6,2.5-15.2,3.4-22.9l-2-0.2c-31.3,2.5-62.7,2.8-94,0.7l-1-0.2
		c-1.5,8.2-3.3,16.3-5.1,24.4l-1.1,0.2c-1.2,0.2-2.4,0.4-3.6,0.6c-2.5,10.6-9.2,20-18.3,25.9c-1.3,0.8-2.6,1.6-4,2.3l-0.8-0.1
		c0.7-7.9,1.3-15.8,2-23.7l0-2.6c-5.5,0.1-11-0.1-16.5-0.7l-0.1,0.5c-7.9,102.4-4,205.7,11.6,307.2l0.3,0c0,0,0,0.1,0,0.1l0.5,0.1
		c7,0,14.1-0.1,21.1-0.1h0.9v-0.9c-0.3-3.5,0-7.1,0.7-10.5l-0.2,0c6.7-31.6,10.5-74.2,13.8-106c5.2-49,5.4-87.8,19.6-135l-0.1-0.5
		c8.1-1.3,16.3-2.6,24.4-3.8l0.2,1.5c7.4,63.8,14.9,127.9,13.5,192.2c-0.4,19.2-1.6,38.5-2.8,57.7l0.4,0.8c0.5,0,0.9-0.1,1.4-0.1
		c9.1-0.8,15.6-0.1,24.7,0.8l2-1.5c16.6-98.7,28.2-199.6,27.5-299.7l0.3-3C214.1,454.2,207.8,453.5,201.5,452.8z"/>
</g>
<g>
	<path fill="none" d="M70,584.4c-0.2-0.6-0.5-1.1-0.7-1.7c0.1,0.6,0.3,1.2,0.4,1.8C69.8,584.4,69.9,584.4,70,584.4z"/>
	<path fill="#1B2A54" d="M168.8,575.3c-0.1-1.8-0.2-3.6-0.3-5.4c-0.6,17.1-0.4,34.2,0.7,51.3c0.2,2.4-0.9,4-2.4,4.9
		c0.1,0.3,0.3,0.6,0.4,0.9l-1.5,0.3c-0.2,0-0.4,0.1-0.6,0.2c1.5,24.1,2.2,48.3,1.7,72.4c-0.4,19.2-1.6,38.5-2.8,57.7l0.4,0.8
		c0.5,0,0.9-0.1,1.4-0.1c0.1,0,0.3,0,0.4,0c-0.6-37.2,3.6-74.2,12.6-110.3c0.8-3-1-6.7-4.2-7.4c-0.2-0.1-0.5-0.1-0.7-0.2
		c-0.1-0.9-0.1-1.7-0.2-2.6l4.1-0.9c3.8-0.8,5.4-5.6,3.6-8.8C172,612.1,169.8,593.5,168.8,575.3z"/>
	<path fill="#1B2A54" d="M155,522c1,8.5,2,17,2.9,25.5c0.8-9.6,1.8-19.3,3.1-28.9L155,522z"/>
	<path fill="#1B2A54" d="M169.3,621.1c-1.1-17.1-1.3-34.2-0.7-51.3c0.7-19.4,2.5-38.8,5.5-58c0.7-4.8-2.6-8.1-7.4-7.4
		c-4.5,0.7-9,1.4-13.4,2.1l0.2,1.1c0.6,4.8,1.1,9.5,1.7,14.3l6-3.4c-1.3,9.6-2.3,19.2-3.1,28.9c2.9,26.4,5.5,52.8,7.2,79.3
		c0.6-0.1,1.2-0.4,1.8-0.7C168.4,625.1,169.4,623.5,169.3,621.1z"/>
	<path fill="#1B2A54" d="M75.7,616.1c2.8-2.1,3.7-5,2.2-8.2c-1.1-2.3-2.6-4.2-4.3-5.8c0.3-0.2,0.7-0.4,1-0.6
		c2.4-1.4,3.5-4.6,2.7-7.2c0.8-0.3,1.5-0.6,2.3-1c3.8-1.6,5.4-5,3.6-8.8c-18.2-38.7-13-82.2-13.1-123.7c0-2.5-1.3-4.2-3-5.1
		c-1.7-0.1-3.4-0.2-5.1-0.4c-0.5,0.2-1.1,0.4-1.5,0.8c-1.2,16.2-2.2,32.3-2.9,48.5c0,8.9,0.1,17.7,0.7,26.6c0.2,3.8,0.6,7.5,1,11.2
		c2.2,0.2,4.3,1.5,5.2,4.1c3.6,10.8,5,22,4.3,33.1c0.2,1,0.4,2,0.7,3c0.2,0.6,0.5,1.1,0.7,1.7c-0.1,0-0.2,0.1-0.3,0.1
		c0.7,3.2,1.4,6.4,2.1,9.6c0.8,3.6-1.4,6.2-4.1,7.1c0.4,8.5,0.4,16.9,0,25.4c0.1,0.4,0.1,0.9,0,1.3c-0.2,1.7-0.3,3.4-0.5,5.1
		c-0.1,1.4-0.2,2.9-0.4,4.3c-0.3,3.3-2.7,5.1-5.3,5.6c-0.7,0.7-1.6,1.3-2.5,1.6c2.2,34.4,5.7,68.7,10.6,102.8
		c-0.1-21.1-0.3-42.1-0.4-63.2c-0.1-13.5-0.2-27-0.3-40.6C69,635.1,67.9,622,75.7,616.1z"/>
	<path fill="#1B2A54" d="M61.6,643c2.6-0.5,4.9-2.4,5.3-5.6c0.1-1.4,0.3-2.9,0.4-4.3c0.2-1.7,0.3-3.4,0.5-5.1c0-0.5,0-0.9,0-1.3
		c0.5-8.5,0.5-17,0-25.4c2.7-0.9,4.8-3.5,4.1-7.1c-0.7-3.2-1.4-6.4-2.1-9.6c-0.1-0.6-0.3-1.2-0.4-1.8c-0.2-1-0.4-2-0.7-3
		c0.7-11.2-0.7-22.4-4.3-33.1c-0.9-2.6-3-3.9-5.2-4.1c-0.4,0-0.8,0-1.2,0c-0.5-1.8-0.9-3.5-1.4-5.3c-0.6,35.9,0.3,71.7,2.6,107.5
		C60.1,644.3,60.9,643.8,61.6,643z"/>
</g>
<g>
	<path fill="none" d="M157.2,94c1.1,0.1,2.2-0.9,2.1-2c0-1.1-1.2-2.1-2.3-1.8c-0.5,0.1-0.9,0.6-1.1,1.1c-0.3,0.3-0.5,0.7-0.5,1.1
		C155.5,93.3,156.4,94,157.2,94z"/>
	<path fill="none" d="M149.8,155.7c-9.7-2.8-19.1-7-26.3-13.9c-1-0.9-1.9-2-2.8-3c0.9,1.1,1.8,2.1,2.8,3
		C130.7,148.7,140,152.9,149.8,155.7z"/>
	<path fill="none" d="M193.4,102.3c-0.9,0.3-1.3,1.5-0.9,2.4c0.4,0.8,1.5,1.3,2.3,0.9c0.6-0.3,0.8-1,0.7-1.6
		c0.1-0.1,0.1-0.3,0.1-0.4C195.5,102.6,194.3,101.9,193.4,102.3z"/>
	<path fill="#F3D57B" d="M195.7,349.6c0.9,2,1.3,4.1,1.2,6.2l1.3,0c2.5-1.7,4.9-3.4,7.4-5c0.6-0.4,1.3-0.9,2-1.3l0.7-2.2
		c-4.6-3.7-8.7-8-12.1-12.8l-0.4,0.3c-3.4,1.4-6.5,3.6-9,6.3l-2.5,0.4c0.2,0,0.5,0,0.7,0.1C189.6,342.1,193.8,345.3,195.7,349.6z"/>
	<path fill="#F3D57B" d="M167.9,357c-6.7,2.9-13.5,5.9-20.2,8.8c-4.2,1.8-8.8,4.1-10.2,8.5l-0.6,1.1c-2.6,1.4-4.8,3.7-6.1,6.4
		c-0.7,1.5-1.1,3.5,0.1,4.7c1,1,2.6,0.9,4.1,0.5l0.1,0.4c-1.6,1.1-1.6,3.7-0.3,5.2c1.3,1.5,3.5,1.9,5.4,1.6c1.5-0.2,2.8-0.9,4.1-1.5
		l0.7,0.3c-0.8,2.5,1.5,5.2,4.1,5.7c2.6,0.5,5.2-0.7,7.5-2c10.1-5.7,17.8-15.3,21.3-26.3l0.3-0.9c-0.7-0.2-1.4-0.5-2.1-0.8
		c-4.3-2.1-7.3-6.7-7.5-11.5V357H167.9z"/>
	<path fill="#F3D57B" d="M22.7,492.1c-0.1,0.7,0.3,1.4,1,1.7c1,0.4,2.3-0.2,2.9-1.1c0.6-0.9,0.8-2.1,0.9-3.2
		c1.4-12.2-0.1-24.6-4.2-36.1l-0.1-0.6c0,0,0,0-0.1,0v0c-5.5,1.1-11.3,0.9-16.7-0.7c-8.7,18.5-5.7,41.9,7.3,57.6l0.4-0.1
		c0.1,0.2,0.3,0.4,0.6,0.5c1-0.8,1.3-2.3,1-3.6l0.2-0.1c0.6,0.6,1.7,0.1,2.1-0.6c0.4-0.8,0.4-1.7,0.3-2.5c-0.8-9.7-1.6-19.4-2.5-29
		c0.3-0.7,1.3-1.1,2.1-0.8c1.1,0.4,1.7,1.6,2,2.7c1.9,5.1,2.7,10.6,2.4,16L22.7,492.1z"/>
	<path fill="#F3D57B" d="M157.7,157.7c-2.7-0.6-5.3-1.2-8-2c-9.7-2.8-19.1-7-26.3-13.9c-1-0.9-1.9-2-2.8-3c-0.4-0.4-0.7-0.8-1.1-1.3
		c0,0,0,0,0,0l-0.1,0.1c-2.6,12-6.2,23.9-10.9,35.3l-2.4,0.1c2.3,4.1,3.3,9.1,4.1,13.8c1.2,7.3,2.4,14.5,3.3,21.8l0.4-0.1
		c8.3,6.7,17.3,9.5,27.9,9.9c10.7,0.4,21.4-2.7,30.2-8.7l1,0.1c0.9-10.1,3.6-20,7.9-29.1l-2.4-0.9c-3.1-6.5-3.3-14.3-0.7-21.1
		l-0.3-1c-0.6,0.2-1.1,0.4-1.7,0.5c-1.3,0.3-2.5,0.6-3.8,0.7C167.4,159.5,162.4,158.7,157.7,157.7z"/>
	<path fill="#F3D57B" d="M211.4,72.5l-0.9-0.1c-5.1,1.8-11.2,0.6-15.1-3.2c-1.8-1.8-3-4-3.6-6.4l-0.1,0c-3.4,2.3-7.7,3-11.6,2
		c-3.9-1-7.3-3.6-9.2-7.1c-2.3,0.7-4.9,0.6-7.3,0.4c-3.1-0.4-6.5-1.3-8.2-3.8c-1.2,2.8-4.6,4.1-7.5,5.5
		c-8.4,4.3-13.9,13.8-13.4,23.2c0.1,1.8,0.4,3.6-0.1,5.4c-0.5,1.7-2,3.4-3.7,3.2c-1.9-0.1-3.2-2.3-3.2-4.2c0-1.3,0.6-2.6,1.2-3.8
		l-0.1,0c1.4-4.4-0.5-9.6-4.4-12c-2.7-1.7-6.3-1.9-9.3-0.7c-1.3,0.5-2.4,1.2-3.4,2.1c-2.5,2.4-3.6,5.9-4.3,9.2
		c-0.9,4-1.5,8.1-1.8,12.2c-0.2,2.6-0.2,5.4,1,7.7c1.3,2.4,3.9,4,6.6,4.2l0,0.5c-3.6,10.2-0.4,21.8,6.3,30.4c0,0,0,0,0,0
		c0.3,0.4,0.7,0.9,1.1,1.3c0.9,1.1,1.8,2.1,2.8,3c7.3,6.9,16.6,11.1,26.3,13.9c2.6,0.8,5.3,1.4,8,2c4.7,1,9.6,1.8,14.4,1.3
		c1.3-0.1,2.6-0.4,3.8-0.7c0.6-0.2,1.1-0.3,1.7-0.5c6.8-2.4,12.1-7.9,16.6-13.7c10.4-13.3,17.7-28.9,21.3-45.4
		c0.2-1.1,0.5-2.2,0.7-3.3c0.7-4,1.3-8.1,0.7-12.2C216.3,79.1,214.6,75.1,211.4,72.5z M155.9,91.3c0.2-0.5,0.6-1,1.1-1.1
		c1.1-0.3,2.3,0.6,2.3,1.8c0,1.1-1,2.1-2.1,2c-0.8,0-1.7-0.7-1.8-1.5C155.4,92.1,155.6,91.6,155.9,91.3z M194.8,105.6
		c-0.8,0.4-1.9-0.1-2.3-0.9c-0.4-0.9,0-2,0.9-2.4c0.9-0.3,2,0.3,2.1,1.3c0,0.1,0,0.3-0.1,0.4C195.6,104.6,195.3,105.3,194.8,105.6z"
		/>
</g>
<g>
	<path fill="none" d="M202.4,120.7c0.5-1.4,1-2.9,1.5-4.3c-0.7,1.7-1.4,3.3-2.1,5C202,121.2,202.2,120.9,202.4,120.7z"/>
	<path fill="none" d="M176.5,150c-0.2,0.2-0.3,0.3-0.5,0.5c-0.2,0.3-0.5,0.5-0.7,0.8c0.4-0.2,0.8-0.3,1.2-0.5
		C176.4,150.6,176.4,150.3,176.5,150z"/>
	<path fill="#F3D57B" d="M161.5,155.7c-1.4,0.1-1.8,1.7-1.2,2.5c0.8,0.1,1.6,0.3,2.4,0.4c1.2-0.1,2.4-0.3,3.6-0.5
		c0.5-1.2,1.2-2.3,1.9-3.4C166,155.2,163.8,155.6,161.5,155.7z"/>
	<path fill="#F3D57B" d="M209.3,94.4c-0.2,1.2,0.3-4.5,0.3-5.1c0-1.2,0-2.3-0.1-3.5c-0.1-0.2-0.3-0.9-0.5-1.6
		c0,4.7-0.2,9.4-0.7,14.1c0.1-0.1,0.3-0.2,0.4-0.3C208.9,96.9,209.1,95.7,209.3,94.4z"/>
	<path fill="#F3D57B" d="M175.3,151.3c0.2-0.3,0.5-0.5,0.7-0.8c0.2-0.2,0.3-0.3,0.5-0.5c-0.1,0.3-0.1,0.5,0,0.8
		c0.2-0.1,0.4-0.1,0.6-0.2c0.5-0.2,1.1-0.4,1.6-0.6c0.2-0.1,0.6-0.3,1.2-0.6c1.7-1.1,3.5-2.1,5.3-3.2c0.1-0.1,0.3-0.2,0.4-0.3
		c0.7-0.6,1.3-1.1,2-1.7c1.5-1.4,3-2.9,4.3-4.4c0.5-0.5,0.9-1.1,1.3-1.6c0.1-0.2,0.4-0.5,0.6-0.9c1.2-1.9,2.4-3.7,3.5-5.6
		c1.2-2,2.2-4.1,3.2-6.2c0.2-0.5,0.4-0.9,0.5-1.2c0.3-0.9,0.7-1.7,1-2.6c0.1-0.3,0.2-0.7,0.4-1c-0.2,0.2-0.4,0.5-0.6,0.7
		c0.7-1.7,1.4-3.3,2.1-5c2-6,3.7-12.1,4.8-18.3c-0.2,0.1-0.3,0.2-0.4,0.3c-0.2,0.1-0.3,0.3-0.4,0.6c-1.8,4.3-3.6,8.6-5.3,13
		c0-0.2,0-0.3,0-0.5c0-1.6-2.7-2.1-2.9-0.4c-0.6,4.1-1.1,8.1-1.7,12.2c0,0.3,0,0.5,0,0.8c-0.1,0.6-0.3,1.1-0.4,1.6
		c-5.9,5.2-11.7,10.6-17.2,16.2c-3.7,3.8-8.8,8-12.1,12.9c-0.7,1.1-1.4,2.3-1.9,3.4c-0.1,0.3-0.3,0.6-0.4,0.9c0.1,0,0.3,0,0.4,0
		C168.4,155.7,171.6,152.9,175.3,151.3z"/>
	<path fill="#B2E7DC" d="M216.2,95.4c0.7-4,1.3-8.1,0.7-12.2c-0.6-4.1-2.3-8.1-5.5-10.7l-0.9-0.1c-2.3,0.8-4.8,1-7.2,0.7
		c0.4,1.5,1.1,2.9,2.1,4.2c1.1,1.4,2,2.9,2.9,4.4c-0.4-0.6,0.1,1.1,0.6,2.6c0.2,0.7,0.5,1.4,0.5,1.6c0.1,1.1,0.1,2.3,0.1,3.5
		c0,0.6-0.5,6.3-0.3,5.1c-0.2,1.2-0.4,2.4-0.6,3.6c-1.1,6.2-2.8,12.3-4.8,18.3c-0.5,1.5-1,2.9-1.5,4.3c-0.1,0.3-0.2,0.7-0.4,1
		c-0.3,0.9-0.7,1.7-1,2.6c-0.1,0.3-0.3,0.7-0.5,1.2c-1,2.1-2,4.2-3.2,6.2c-1.1,1.9-2.3,3.7-3.5,5.6c-0.3,0.4-0.5,0.7-0.6,0.9
		c-0.4,0.5-0.9,1.1-1.3,1.6c-1.4,1.5-2.8,3-4.3,4.4c-0.6,0.6-1.3,1.2-2,1.7c-0.1,0.1-0.2,0.2-0.4,0.3c-1.7,1.1-3.5,2.1-5.3,3.2
		c-0.6,0.3-1,0.5-1.2,0.6c-0.5,0.2-1.1,0.4-1.6,0.6c-0.2,0.1-0.4,0.1-0.6,0.2c-0.4,0.2-0.8,0.3-1.2,0.5c-3.7,1.7-6.8,4.4-8.9,7.8
		c3.2,0.2,6.5,0.1,9.6-0.7c0.6-0.2,1.1-0.3,1.7-0.5c6.8-2.4,12.1-7.9,16.6-13.7c10.4-13.3,17.7-28.9,21.3-45.4
		C215.8,97.6,216,96.5,216.2,95.4z"/>
	<path fill="#B2E7DC" d="M149.7,82.9c5.6,1.9,11.2,3.8,16.8,5.7c1.8,0.6,2.6-2.3,0.8-2.9c-5.6-1.9-11.2-3.8-16.8-5.7
		C148.6,79.3,147.9,82.2,149.7,82.9z"/>
	<path fill="#B2E7DC" d="M124.7,77.6c0.2,1.9,3.2,1.9,3,0c-1.2-10.4-13.4-7.3-17.3-0.4c-1.2,2.1-2.6,5.4-3.7,9
		c-0.5,2.8-0.8,5.5-1,8.3c-0.1,1.4-0.1,2.9,0,4.3c0.7,2.6,2.3,4.6,5.1,5.5c1.8,0.6,2.6-2.3,0.8-2.9c-6.3-2.1-1.9-13.8-0.7-17.7
		c0.6-2,1.3-4,2.4-5.8C115.4,74.9,123.8,69.8,124.7,77.6z"/>
</g>
<g>
	<path fill="none" d="M224.1,272l0.1,0.6c-3,1.6-3.9,5.5-4.3,8.9c-0.9,7.4-1.1,14.9-0.6,22.3l0.2,0.2c2.8-2.9,5.4-6,7.9-9.2
		c3-4,5.9-8.5,5.9-13.5C233.2,276.3,228.9,271.2,224.1,272z"/>
	<path fill="#B2E7DC" d="M81.9,392.9c1.8,0.1,3.4-1,4.8-2.1c5.7-4.3,11-9.1,15.9-14.3l-2.1-0.3c-11,2.4-22.5,2.1-33.3-0.9
		c2.1,5.9,5.7,11.2,10.4,15.4C78.9,391.8,80.3,392.9,81.9,392.9z"/>
	<path fill="#B2E7DC" d="M216.4,193.8l-0.8-0.2c1.9-2.1,3.5-4.5,2.7-7.1c-0.4-1.5-1.5-2.6-2.6-3.7c-8.1-7.5-19.5-11.5-30.5-10.8
		l0.1,1.1c-1.5,2.5-2.9,5-4.1,7.6c-4.3,9.1-7,19-7.9,29.1c-0.5,5.8-0.4,11.6,0.3,17.3c3.9,31.5,25.2,59,28.1,90.6l0.7,1
		c-3.6,2.6-7.4,4.9-11.4,7.1l0,0.1c1.5,3,3.2,5.9,5.2,8.7c3.4,4.8,7.5,9.1,12.1,12.8l-0.7,2.2c-0.6,0.4-1.3,0.9-2,1.3l1.2,1.8
		c1.8,25.2,1.1,50.7-1.8,75.8c-0.9,7.7-2,15.3-3.4,22.9l-0.2,1.5c6.3,0.7,12.6,1.4,18.9,2.1c0.8,0.1,1.6,0.2,2.5,0.3
		c5.6,0.6,11.1,1.2,16.7,1.8v0c-4.6-21.9-8.4-44-11.3-66.2l-1.5-0.9c2.9-4.5,5.7-8.9,8.5-13.4c-2.9,0.6-5.7,1.2-8.6,1.8l-0.1-0.6
		c-1.3-11.3-2.4-22.7-3.3-34.1l-0.1-0.1c7.3-6.1,14-12.7,21-19.1c9.1-8.3,18.7-16.5,24.3-27.7c10.3-20.7,0.5-44.2-10.3-62.2
		C248.2,218,234.9,201.1,216.4,193.8z M227.4,294.7c-2.5,3.2-5.1,6.3-7.9,9.2l-0.2-0.2c-0.5-7.4-0.3-14.9,0.6-22.3
		c0.4-3.4,1.3-7.2,4.3-8.9l-0.1-0.6c4.8-0.8,9.1,4.3,9.2,9.2C233.4,286.2,230.5,290.7,227.4,294.7z"/>
</g>
<g>
	<path fill="#FFFFFF" d="M201.7,306c-0.8-10.7-4.8-21.1-7.2-31.5c-2.6-11.2-5.1-22.5-7-33.9c-3.6-21.5-3.7-44.2,1.7-65.4
		c0.4-1.6-1.9-2.7-2.7-1.1c-10.5,20.1-12.7,42.9-9.9,65.2c0.2,1.9,0.5,3.9,0.8,5.8c6.5,21.2,18.2,41.1,22.6,62.7
		C201,307.8,201.8,307.1,201.7,306z"/>
	<path fill="#FFFFFF" d="M266.8,252.6c-6.5-14.4-17.9-24.8-28.4-36.2c-0.5-0.6-1.6,0.2-1.1,0.9c16.1,20.9,36.4,52.6,21.3,79.1
		c-5.7,10-14.4,17.4-22,25.7c-7.6,8.3-13.9,17.2-16.8,28.1c-0.5,1.9,2.3,3.2,3.3,1.4c0.2-0.5,0.5-0.9,0.8-1.4
		c-0.2-2.1-0.4-4.3-0.5-6.4l-0.1-0.1c7.3-6.1,14-12.7,21-19.1c8.1-7.4,16.7-14.8,22.4-24.3c0.9-1.7,1.7-3.4,2.4-5.2
		C274.6,281.2,272.7,265.9,266.8,252.6z"/>
	<path fill="#FFFFFF" d="M198.6,328.2c10.3-7,21.2-16,26.4-27.6c0.4-0.8-0.1-1.7-0.7-2c-1.5,1.8-3.1,3.6-4.8,5.3l-0.2-0.2
		c0-0.4,0-0.8-0.1-1.2c-7.5,7.8-14,16.5-22,23.9C196.3,327.3,197.5,328.9,198.6,328.2z"/>
	<path fill="#FFFFFF" d="M207.1,443.2c2.5-5.5,2.9-12.2,3.7-18.2c0.9-6.7,1.5-13.3,1.7-20.1c0.5-13.4-0.6-26.4-2.6-39.6
		c-0.2-1.1-2.1-0.9-2,0.3c0.6,12.7,0.3,25.6-0.6,38.3c-0.4,6.1-1,12.1-1.7,18.2c0,0,0,0,0,0.1c-0.2,2.1-0.4,4.1-0.7,6.2
		c-0.6,4.7-1.2,9.5-1.9,14.2C203.6,444.3,206.2,445.1,207.1,443.2z"/>
</g>
<g>
	<path fill="none" d="M67.2,375.3c2.1,5.9,5.7,11.2,10.4,15.4c1.2,1.1,2.6,2.1,4.3,2.2c1.8,0.1,3.4-1,4.8-2.1
		c5.7-4.3,11-9.1,15.9-14.3l-2.1-0.3C89.6,378.6,78,378.3,67.2,375.3z"/>
	<path fill="none" d="M100.6,345.3l-0.4-0.2c-2.6,2-3.3,6-1.4,8.7s5.9,3.5,8.6,1.7c2.7-1.8,3.5-5.9,1.7-8.6
		C107.4,344.2,103.3,343.5,100.6,345.3z"/>
	<path fill="#B2E7DC" d="M113.6,208.5c-1-7.3-2.1-14.6-3.3-21.8c-0.8-4.7-1.9-9.7-4.1-13.8c-1.3-2.5-3.1-4.6-5.5-6.1l-0.2-0.6
		c-11.5,3.5-22.2,9.8-30.6,18.4l-0.5,0.2c0.4,0.8,0.8,1.5,1.3,2.3l-0.6,0.3c-18.5,20.1-31.4,45-39.9,71c-8.6,26-13,53.1-16.1,80.3
		C9.8,374.9,3.7,414.8,3.9,451.2h0c0.8,0.3,1.6,0.6,2.4,0.8c5.4,1.6,11.2,1.8,16.7,0.7v0l0-0.1c14.4-48.1,25.2-92.8,34.5-142.2
		l0.6,0c1.4,47.7-3.3,95.7-13.8,142.2v0c5.3,1.2,10.7,2,16.1,2.5c5.5,0.5,11,0.8,16.5,0.7c7.1-0.1,14.2-0.7,21.2-1.9
		c1.2-0.2,2.4-0.4,3.6-0.6l1.1-0.2c1.8-8.1,3.6-16.3,5.1-24.4c5.9-31,9.6-62.4,11.1-93.8c1.8-36.4,0.7-72.9-3.4-109.1
		C115.1,220,114.4,214.3,113.6,208.5z M86.7,390.8c-1.4,1.1-3,2.2-4.8,2.1c-1.6-0.1-3-1.1-4.3-2.2c-4.7-4.1-8.3-9.5-10.4-15.4
		c10.8,3,22.3,3.3,33.3,0.9l2.1,0.3C97.8,381.7,92.4,386.5,86.7,390.8z M107.5,355.5c-2.7,1.8-6.8,1-8.6-1.7s-1.2-6.8,1.4-8.7
		l0.4,0.2c2.6-1.9,6.8-1.1,8.6,1.6C111,349.6,110.2,353.7,107.5,355.5z"/>
</g>
<g>
	<path fill="#FFFFFF" d="M82.7,205.3c2.7,4,5.4,8.1,8.2,12.1c2.6,3.8,5.2,8.4,8.8,11.3c1.6,1.3,5,0.2,4-2.3
		c-1.7-4.1-4.8-7.5-7.4-11.1c-3-4.2-5.8-8.5-8.5-12.9c-4.3-7.1-7.8-15.7-13.5-22c-1.4,1.2-2.7,2.4-4,3.7
		C72.8,191.7,78.4,198.9,82.7,205.3z"/>
	<path fill="#FFFFFF" d="M119.9,307c-2.4-7.3-5-14.5-7.8-21.7c-6.4-16.6-14.5-32.1-23.1-47.7c-0.7-1.2-2.8-0.4-2.2,0.9
		c6.8,16.2,12.4,33.1,18.2,49.7c2.9,8.2,5.6,16.5,8.1,24.8c1.9,6.2,3.5,12.9,6.1,18.9C119.6,323.6,119.8,315.3,119.9,307z"/>
	<path fill="#FFFFFF" d="M96.7,382.3c0.3-0.2,0.6-0.3,0.9-0.5c0.4-0.2,0.6-0.6,0.7-1C97.8,381.4,97.3,381.8,96.7,382.3z"/>
	<path fill="#FFFFFF" d="M67.2,375.3c10.8,3,22.3,3.3,33.3,0.9l0.9,0.1c0.1-1.1-0.3-2.2-1.5-2.7c-4.9-2.1-10.8-0.8-16.1-1
		c-5.2-0.3-11.5-2-16.5-0.4c-1.1,0.4-1.4,1.7-0.7,2.5c0.2,0.2,0.4,0.5,0.7,0.7C67.3,375.4,67.3,375.4,67.2,375.3z"/>
	<path fill="#FFFFFF" d="M98.8,353.8c-1.8-2.7-1.2-6.8,1.4-8.7l0.4,0.2c2.3-1.7,5.8-1.3,7.9,0.7c0.1-0.6-0.1-1.3-0.4-1.9
		c-0.4-0.7-0.9-1.4-1.4-2c-1.7-2.1-4.8-2.6-7.5-2.1c-2.8,0.5-5.2,2.5-6.4,5.1c-1.1,2.6-0.8,5.7,0.5,8.1c1.1,2,4.7,4.7,7.1,3
		c0.3-0.2,0.4-0.4,0.6-0.6C100.2,355.3,99.4,354.7,98.8,353.8z"/>
</g>
<g>
	<path fill="none" d="M107.9,347.7c-1.5-2.1-4.5-2.4-6.5-1c-0.3,0.2-0.5,0.2-0.7,0.2c-1.4,1.6-1.9,4-0.6,6c1.3,2.1,4.4,2.8,6.5,1.5
		C108.7,353.1,109.4,349.8,107.9,347.7z"/>
	<path fill="none" d="M69.7,377.5c2.8,6.4,8.5,15.6,15.7,12.5c2.9-1.3,6.1-4.8,8.5-7c1.8-1.6,3.5-3.3,5.1-4.9
		C89.3,379.8,79.4,379.6,69.7,377.5z"/>
	<path fill="none" d="M84.3,211.7c-5.1-7.1-9.8-14.6-14.1-22.2c-12.6,14-22.5,30.1-30.2,47.3c-15.1,33.9-20.8,70.7-25.1,107.3
		c-4.2,35.2-9.5,70.5-9.5,106c0.2,0.1,0.5,0.1,0.7,0.2c0.3,0,0.7,0.1,1,0.3c4.8,1.3,9.7,1.6,14.7,0.8
		c13.8-46.5,25.3-93.7,34.3-141.4c0.1-0.4,0.2-0.6,0.5-0.8c-0.4-12.5-1.1-24.9-2.3-37.3c-0.2-1.9,2.8-1.9,3,0
		c5.7,60,2,120.7-11.1,179.6c8.4,1.7,16.8,2.6,25.2,2.8c0.6-0.2,1.2-0.3,1.9-0.3c0.6,0,1.2,0.1,1.8,0.3c7.3,0,14.7-0.6,22-1.7
		c0.4-0.8,1.5-0.9,2.2-0.4c0.7-0.1,1.4-0.2,2.1-0.4c0.1,0,0.2,0,0.3,0c4.7-21.1,8.6-42.4,11.3-63.8c2.2-17.5,3.8-35,4.7-52.6
		c-0.1-0.2-0.2-0.4-0.2-0.7C114.6,292,70.7,256.4,84.3,211.7z M103.7,377.5c-4.1,4.3-8.5,8.4-13.1,12.1c-2.5,2-5.4,4.9-8.9,4.7
		c-3.9-0.2-7.2-4.4-9.5-7.2c-2.7-3.4-4.7-7.1-6.3-11.1c0-0.1-0.1-0.1-0.1-0.2c0-0.1-0.1-0.2-0.1-0.3c-0.5-1.4,1-2.2,2.1-1.7
		c11.4,2.9,22.9,3.1,34.4,0.3c1.3-0.3,2,0.9,1.8,1.8C104.2,376.6,104.1,377.1,103.7,377.5z M108.5,356.7c-3.3,2.3-8.1,1.5-10.6-1.6
		c-2.6-3.3-1.8-8.3,1.3-11c0.4-0.3,0.8-0.4,1.2-0.3c3.4-1.8,7.9-0.8,10.1,2.5C112.7,349.5,111.7,354.4,108.5,356.7z"/>
	<path fill="none" d="M13.7,507.3c-0.3-3.7-4.5-10.1-5.2-12.7c-1.2-4.1-1.6-8.4-1.4-12.6c0.1-1.9,3.1-1.9,3,0
		c-0.4,6.7,1,13.2,4.4,19c0.7,1.2,1.4,2.4,1.9,3.5c0.3-2.4-0.7-14-0.8-15.2l-1.2-13.7c-0.1-0.2-0.1-0.3-0.1-0.5c0-0.3,0-0.5,0-0.8
		l-0.1-0.9c-0.1-1.2,1-1.6,1.9-1.3c1.4-0.4,3.3,0.2,4.3,1.6c2.9,4.1,3.5,10.8,3.4,16.1c0.7,0.3,1.2,1.2,0.7,2
		c3.1-4.7,2.1-13.3,1.5-18.9c-0.6-6.4-2.1-12.6-4.1-18.6c-5,0.7-9.9,0.5-14.8-0.6C-0.3,471.3,2.3,492.1,13.7,507.3z"/>
	<path fill="none" d="M68.1,457.1c-2.1-0.1-4.2-0.2-6.3-0.4c-1.7,22.2-2.9,44.4-3.4,66.6c0,0.3,0,0.6,0,0.9c1-1.1,2.3-1.8,3.6-2.2
		c0.8-20.8,2.6-41.5,5.3-62.1C67.4,459,67.7,458,68.1,457.1z"/>
	<path fill="none" d="M79.2,460c-0.9,6.6-1.6,13.2-2.3,19.8c9.2-5.4,16-13.9,19.1-24.1c-5.8,0.8-11.6,1.3-17.4,1.5
		C79.1,458.1,79.4,459,79.2,460z"/>
	<path fill="none" d="M80.3,788.5c-0.2-0.2-0.3-0.5-0.3-0.8c-0.1-1.4-0.6-2.9-1.2-4.2c-0.9-1.7,1.7-3.2,2.6-1.5
		c0.9,1.8,1.4,3.7,1.6,5.7c0,0.1,0,0.2,0,0.3c0,0.1,0.1,0.1,0.1,0.2c14.5,12.3,34.7,15.5,52.4,8.8c-2.3-5-6.1-8.8-10.6-12.1
		c-3.6,1.4-7.1,3-10.5,4.8c-1.7,0.9-3.2-1.7-1.5-2.6c2.9-1.6,5.9-3,9-4.3c-1.9-1.2-3.9-2.4-5.9-3.5c-3.8,1.7-7.6,3.5-11.3,5.6
		c-1.7,0.9-3.2-1.7-1.5-2.6c3.1-1.7,6.3-3.3,9.6-4.8c-1.4-0.8-2.8-1.5-4.2-2.3c-4.2,1.3-8.2,3.1-12,5.5c-1.7,1-3.2-1.6-1.5-2.6
		c3.2-1.9,6.5-3.6,10-4.9c-1.4-0.8-2.7-1.6-4-2.5c-4,1.8-8,3.6-12,5.4c-1.7,0.8-3.3-1.8-1.5-2.6c3.5-1.6,7.1-3.2,10.6-4.8
		c-1.8-1.3-3.5-2.7-5-4.3l-18,0.1c0.3,1.2,0.8,2.3,1.6,3.3c0.5,0.7,0.1,1.7-0.5,2.1c-0.7,0.4-1.6,0.1-2.1-0.5
		c-0.3-0.5-0.6-1-0.9-1.5c-0.5,4.4-0.8,8.8-0.8,13.3c0,0.3,0,0.7,0,1C74.7,784.8,77.3,786.9,80.3,788.5z M79.7,774.3
		c0.2,0.9,0.5,1.7,0.7,2.6c0.5,1.9-2.4,2.7-2.9,0.8c-0.2-0.9-0.5-1.7-0.7-2.6C76.3,773.3,79.2,772.5,79.7,774.3z"/>
	<path fill="none" d="M196,783.6c6.7,5.8,16.8,6.9,25.3,7.6c11.6,1,23.3,0.5,34.8-1.3c0.3-0.1,0.6,0,0.9,0.1c-0.5-1.2-1-2.3-1.6-3.3
		c-0.1,0.1-0.2,0.1-0.4,0.1C235.2,790.2,215.2,789.1,196,783.6z"/>
	<path fill="none" d="M82.1,793.6c-0.4-0.4-0.8-0.9-1-1.5c-3.1-1.4-5.9-3.2-8.3-5.4c0.3,1.8,1.1,3.5,2.9,4.9c2,1.6,4.5,2.2,7,2.7
		c0-0.1-0.1-0.2-0.1-0.3C82.3,793.9,82.2,793.8,82.1,793.6z"/>
	<path fill="none" d="M85.5,793.7c2.9,8.5,15.4,11,23.2,12.5c9.8,1.9,19.9,1.4,28.6-3.9c-0.2-0.9-0.4-1.7-0.7-2.6
		C119.6,806.3,100.3,803.9,85.5,793.7z"/>
	<path fill="none" d="M86.9,210.2c0.3,0.2,0.5,0.5,0.6,0.8c3.5,4.9,7.2,9.7,11.1,14.3c1.2,1.5-0.9,3.6-2.1,2.1
		c-3.4-4.1-6.7-8.3-9.8-12.6c-5.5,21.7,3.5,43.3,13.2,62.5c7.1,14.1,14.6,28.1,18.4,43.4c0.4-14.8,0.4-29.7-0.2-44.5
		c-0.7-18.8-2.1-37.6-4.4-56.3c-1.2-9.7-2.5-19.4-4.1-29c-1.3-8.1-2.4-17.7-9.6-22.8c0,0-0.1,0-0.1-0.1
		c-10.7,3.5-20.3,9.3-28.5,17.2C76,193.9,81.2,202.2,86.9,210.2z"/>
	<path fill="none" d="M222,60.4c-0.6,2-1.3,4-2.4,5.8c-1.5,2.7-3.6,4.8-6.1,6.3c5.6,6.1,6,14.9,4.4,23.5
		C225.3,85.7,226.8,72.1,222,60.4z"/>
	<path fill="none" d="M171.4,208.4c0.2-0.1,0.4-0.2,0.6-0.2c0.9-9.3,3.3-18.4,7.3-27.1c-0.7,0.4-1.5,0.4-1.9-0.5
		c-2.9-6.7-3.4-13.8-1.4-20.7c-0.5,0.1-1,0.2-1.5,0.3c-6.7,1.3-13.8-0.1-20.3-1.7c-12.4-3-25.2-8.1-34-17.8
		c-2.6,11.1-6,22-10.2,32.6c-0.3,0.7-1,1-1.6,1c1.5,3.3,2.4,7,3.1,10.7c1.4,7.5,2.5,15,3.5,22.5c0,0,0,0,0.1,0
		C131.4,220.2,154.4,219.6,171.4,208.4z M145.5,177.3c3.2,3.6,7.4-1.1,9.4-3.6c1.2-1.5,3.3,0.6,2.1,2.1c-1.8,2.3-3.9,4.7-6.9,5.5
		c-2.4,0.6-5.1,0.1-6.7-1.9C142.1,177.9,144.2,175.8,145.5,177.3z"/>
	<path fill="none" d="M205.1,314.7c-3.5-16.6-4.1-33.6-1.5-50.4c2.2-14.5,13.2-37.6-1-48.9c-1.1,2.5-2,5.2-2.7,7.8
		c-0.5,1.9-3.4,1.1-2.9-0.8c3.2-11.5,9.3-20.5,17.1-29.3c1.8-2,3.8-4.4,2.4-7.3c-0.8-1.5-3.8-3.8-5.1-4.7c-2.5-1.8-5.1-3.3-7.9-4.5
		c-5.3-2.3-11-3.3-16.7-3.2c0,0.1-0.1,0.3-0.2,0.4c-14.1,23.6-14.8,50.3-6,75.9c7.7,22.2,19.6,43,22.4,66.6
		C203.7,315.8,204.4,315.3,205.1,314.7C205.1,314.7,205.1,314.7,205.1,314.7z"/>
	<path fill="none" d="M224.9,273.9c-4.3,3-3.9,10.4-4.2,15c-0.2,3.9-0.2,7.7-0.1,11.6c2.7-2.9,5.2-6,7.4-9.3c1.9-2.9,3.8-6.4,3.7-10
		c-0.1-3.7-2.8-7.2-6.5-7.7C225.2,273.7,225.1,273.8,224.9,273.9z"/>
	<path fill="none" d="M177.2,345.6c0,0.4-0.2,0.8-0.7,1.1c-6.3,3.6-8.2,11.6-3.5,17.4c4.7,5.7,13.5,5.8,18.6,0.6
		c5-5.1,5.1-13.7-0.2-18.6c-2.6-2.4-5.9-3.3-9-3c0,0,0,0,0,0C180.7,344,179,344.8,177.2,345.6z M184.5,350.3c0.6,0.6,0.6,1.5,0,2.1
		l-2.2,2.2c1.8,2.2,3.6,4.3,5.4,6.5c1.2,1.5-0.9,3.6-2.1,2.1c-2-2.4-4-4.8-6-7.2c-0.5-0.6-0.4-1.3-0.2-1.8c-0.1-0.5,0-1.1,0.4-1.4
		l2.6-2.6C182.9,349.7,183.9,349.7,184.5,350.3z"/>
	<path fill="none" d="M195.7,336.5c-2.5,1.2-4.8,2.7-6.9,4.6c1.4,0.6,2.8,1.4,4.1,2.5c3.2,2.7,5,6.5,5.3,10.4
		c2.8-1.9,5.7-3.9,8.5-5.8c0.1,0,0.1-0.1,0.2-0.1C202.7,344.7,199,340.8,195.7,336.5z"/>
	<path fill="none" d="M139.5,373.7c2-0.7,4.1-1.4,6.1-2.1c1.8-0.6,2.6,2.3,0.8,2.9l-9.8,3.4c-0.2,0.1-0.4,0.1-0.6,0.1
		c-1.9,1.4-4.3,3.6-4,5.2c0.3,1.5,2.4,2.2,3.5,2.1c0.8-0.1,1.9-0.7,2.7-1c4.4-1.7,8.7-3.7,12.8-6c1.7-0.9,3.2,1.6,1.5,2.6
		c-4.1,2.3-8.4,4.4-12.8,6.1c-1,0.4-2.2,0.9-3.4,1.3c-0.1,0.1-0.1,0.2-0.2,0.2c0.6,3.8,2.3,5.1,5.1,3.9c0.8-0.3,1.6-0.7,2.3-1
		c1.5-0.7,3-1.6,4.5-2.5c3.2-1.8,6.3-3.5,9.5-5.3c1.7-0.9,3.2,1.7,1.5,2.6c-4.2,2.3-8.3,4.7-12.5,6.9c-1,8.7,11.4,1.1,13.3-0.2
		c2.6-1.8,4.9-3.9,7-6.2c4.4-4.7,7.6-10.3,9.6-16.4c-2.3-0.9-4.4-2.4-6-4.5c-1.7-2.2-2.7-4.6-3-7c-4.9,2.2-9.9,4.3-14.8,6.5
		C148.2,367.3,142,369.1,139.5,373.7z"/>
	<path fill="none" d="M203.8,212.6c12.6,9.5,8.4,26.6,5.2,39.8c-4.8,19.8-5.2,40.3-1.2,60.3c3.3-2.6,6.4-5.4,9.3-8.4
		c0.3-0.3,0.5-0.5,0.8-0.8c-0.4-7.3-0.3-14.8,0.6-22c0.5-3.7,1.3-7,4.1-9.4c0.1-0.7,0.5-1.4,1.4-1.5c5.4-0.5,9.8,3.7,10.7,8.9
		c1.2,6.3-3,12.2-6.7,16.9c-9.6,12.2-21.6,22.3-35.1,30c5,9.2,11.9,17,20.6,22.8c2.9-2.1,5.8-4.3,8.6-6.6c0.1-0.1,0.2-0.2,0.3-0.2
		c10.2-8.3,19.7-17.7,29.1-26.6c12.5-11.9,21.6-25.7,19.6-43.7c-1.8-16.2-10.2-31.3-19.2-44.6c-9.1-13.5-20.5-25.9-35.8-32.2
		c-1.5,1.7-3.1,3.2-4.3,4.6C208.6,203.8,205.9,208,203.8,212.6z"/>
	<path fill="none" d="M157.4,51.6c0.1,0.8,0,1.6-0.2,2.3c2.8,3.1,8.2,3.4,12,2.7c6.8-1.3,6.8-7.6,6.7-13.1
		c-0.1-8.8-1.2-18.6-9.7-23.3c-1.7-0.9-0.2-3.5,1.5-2.6c5.3,2.9,8.5,7.9,10,13.6c1.6,6.1,2.3,14.6,0.7,20.8c-0.7,2.9-2.7,5-5.2,6.4
		c4.1,5.4,11,6.9,17.1,3.7c-0.6-3.8,0-7.8,2-11.3c1-1.7,3.6-0.2,2.6,1.5c-5,8.7,0.7,19.9,11.2,19.5c9.8-0.4,13.6-10.5,14-18.8
		c0.8-14.8-5.3-29.2-15.6-39.6l0.8,9.3c0,0.5-0.1,0.9-0.4,1.1c3.1,7.7,3.7,16.5,1,25.3c-0.6,1.8-3.5,1.1-2.9-0.8
		c6.1-20.1-6.3-40.3-25.9-44.5c2.9,2.4,4.9,5.7,5.6,9.5c0.1,0.5,0,0.9-0.3,1.2c5.3,4.9,8.2,12,6.7,19.7c-0.4,1.9-3.3,1.1-2.9-0.8
		c2.8-13.9-10.9-23.2-23.4-22.8c-10.5,0.3-19.7,5.6-28,11.5c12.9-2.1,29.2-1.8,32.9,13.3c0.5,1.9-2.4,2.7-2.9,0.8
		c-2.1-8.5-8.8-11.5-16.3-12.1c-0.2,0.2-0.4,0.3-0.7,0.4c-2.9,0.5-5,3.2-4.5,6.1C149.4,35.5,156.9,43.5,157.4,51.6z M204.4,58
		c7.2-3.6,9.9-11.3,6.8-18.6c-0.7-1.8,2.2-2.6,2.9-0.8c3.6,8.6,0,17.9-8.2,22C204.2,61.4,202.6,58.8,204.4,58z M193.1,38.3
		c1.5-4.3,1.8-8.6,0.7-13c-0.5-1.9,2.4-2.7,2.9-0.8c1.2,4.9,1,9.9-0.7,14.6C195.4,40.9,192.5,40.1,193.1,38.3z"/>
	<path fill="none" d="M165.6,778.1c8.4,0.7,16.7,1.4,25.1,2.1c0.2-0.2,0.5-0.3,0.8-0.4c0.3-0.3,0.8-0.5,1.4-0.3
		c19.6,6.3,40.3,7.9,60.6,4.5c-4.2-5.3-10.4-8.3-17.2-10.2c-0.2,0.7-0.4,1.5-0.4,2.3c0,1.9-3,1.9-3,0c0-1,0.2-2,0.5-3
		c-1.6-0.3-3.2-0.6-4.7-0.9c-0.5,1.4-0.8,2.8-1.1,4.2c-0.3,1.9-3.2,1.1-2.9-0.8c0.2-1.3,0.6-2.6,1-3.9c-2.4-0.3-4.8-0.5-7.1-0.7
		c-0.4,0-0.8-0.1-1.2-0.1c-0.3,1-0.5,2-0.5,3.2c0,1.9-3,1.9-3,0c0-1.1,0.2-2.2,0.4-3.3c-1.5-0.1-3-0.1-4.6-0.2
		c-0.2,1.3-0.5,2.6-0.7,3.9c-0.3,1.9-3.2,1.1-2.9-0.8c0.2-1.1,0.4-2.2,0.6-3.3c-7.6-0.8-15.2-2.9-16.7-10c-5.8-0.6-11.5-1-17.2-1
		c2.5,1.2,4.8,2.7,7,4.4c1.5,1.2-0.6,3.3-2.1,2.1c-2.6-2.1-5.4-3.7-8.5-4.9c-0.8-0.3-1.1-0.9-1-1.6c-0.3,0-0.6,0-0.8,0.1
		C165.6,765.9,165.1,772,165.6,778.1z M186.1,772.8c0.5-0.5,1.6-0.6,2.1,0l1.6,2.1c0.5,0.6,0.6,1.5,0,2.1c-0.5,0.5-1.6,0.6-2.1,0
		c-0.5-0.7-1.1-1.4-1.6-2.1C185.6,774.2,185.5,773.4,186.1,772.8z M180.7,767.4c0.6-0.6,1.5-0.6,2.1,0c0.6,0.6,1.3,1.3,1.9,1.9
		c0.6,0.6,0.6,1.5,0,2.1c-0.6,0.6-1.5,0.6-2.1,0c-0.6-0.6-1.2-1.3-1.9-1.9C180.1,768.9,180.1,767.9,180.7,767.4z"/>
	<path fill="none" d="M131.1,82.9c-0.7,1.1-1.3,2.3-1.7,3.6c3,2.6,4.3,2.6,3.9,0c0.5-1.4-0.1-3.3-0.1-4.8c0-2.5,0.4-5,1.2-7.3
		c1.4-4.5,4-8.7,7.5-11.9c1.8-1.7,3.9-3,6.1-4.2c2.3-1.2,4.7-2.4,5.8-4.3c-0.2-0.6,0.1-1.1,0.5-1.5c0.1-0.8,0.1-1.7-0.2-2.7
		c-1.7-6.6-7.2-12.6-12.6-16.7c-16.6,4.1-27.3,19.2-25.7,36.3c3.5-0.9,7.4-0.1,10.3,2.1c1.3-4.9,3.1-9.6,5.5-14.1
		c0.9-1.7,3.5-0.2,2.6,1.5c-2.5,4.8-4.4,9.8-5.6,15.1c1.4,1.9,2.2,4.3,2.2,7.1C131.3,81.4,131.6,82.2,131.1,82.9z M125.7,58.4
		c-0.7,1.8-3.5,1-2.9-0.8c2.5-7,7.1-12.8,13.4-16.9c1.6-1.1,3.1,1.5,1.5,2.6C132.1,46.9,128,52.1,125.7,58.4z"/>
	<path fill="none" d="M198,72.9c-3.4-1.8-5.7-4.7-6.9-8c-7.5,3.6-16,1.3-20.7-5.6c-4.9,1.4-10.9,0.5-14.5-2.7
		c-0.6,0.8-1.4,1.5-2.3,2.1c-4.2,2.9-8.6,4.3-11.9,8.4c-3.7,4.5-5.5,10.2-5.3,16c0.1,3.5,0.5,7.9-3.3,9.7c-2.3,1.1-4.8-0.1-6-2.2
		c-1.3-2.3-0.6-4.8,0.4-7c0-0.1,0-0.2,0-0.3c1.4-5.6-2.1-11.4-8.2-11.5c-5.9-0.1-8.6,4.6-10,9.6c-1.8,6.4-6,27.1,7.1,23.3
		c1.9-0.5,2.6,2.4,0.8,2.9c-0.9,0.3-1.8,0.4-2.6,0.5c-1.6,5.2-1.5,10.4-0.3,15.3c0.1-0.3,0.1-0.5,0.2-0.8c0.5-1.9,3.4-1.1,2.9,0.8
		c-0.3,1.1-0.6,2.1-0.9,3.2c-0.1,0.5-0.4,0.8-0.8,0.9c0.4,1,0.8,1.9,1.3,2.9c0.4-0.5,1-0.8,1.6-0.6c0.8,0.2,1.3,1.1,1,1.8
		c-0.2,0.5-0.3,0.9-0.5,1.4c-0.1,0.2-0.2,0.4-0.4,0.6c0.8,1.2,1.6,2.3,2.5,3.4c1.1-1.9,2.5-3.7,4.1-5.3c1.4-1.3,3.5,0.8,2.1,2.1
		c-1.4,1.4-2.7,3-3.7,4.7c-0.2,0.3-0.4,0.5-0.6,0.6c0.6,0.6,1.2,1.2,1.8,1.8c0.1-0.1,0.2-0.2,0.3-0.3c1-0.7,2.1-1.4,3.1-2.1
		c0.7-0.5,1.7-0.1,2.1,0.5c0.4,0.7,0.1,1.6-0.5,2.1c-0.9,0.6-1.8,1.2-2.7,1.8c1.2,1,2.4,1.8,3.6,2.7c0,0,0,0,0,0
		c0.9-0.8,1.8-1.6,2.8-2.5c0.6-0.5,1.5-0.6,2.1,0c0.5,0.5,0.6,1.6,0,2.1c-0.8,0.7-1.5,1.3-2.3,2c1.3,0.8,2.7,1.5,4.1,2.2
		c0.5-0.8,1.1-1.6,1.6-2.4c0.5-0.7,1.3-1,2.1-0.5c0.7,0.4,1,1.4,0.5,2.1c-0.5,0.7-0.9,1.4-1.4,2.1c2.4,1,4.8,1.9,7.2,2.7
		c0.3-1.1,0.5-2.3,0.8-3.4c0.4-1.9,3.3-1.1,2.9,0.8c-0.3,1.2-0.5,2.3-0.8,3.5c0.5,0.1,1,0.3,1.4,0.4c2.1,0.6,4.3,1.2,6.6,1.6v-3.5
		c0-1.9,3-1.9,3,0v3.7c0,0.1,0,0.3,0,0.4c1.9,0.3,3.7,0.6,5.6,0.6c0,0,0-0.1,0-0.1c-0.1-1.6-0.2-3.3-0.3-4.9c-0.1-1.9,2.9-1.9,3,0
		c0.1,1.6,0.2,3.3,0.3,4.9c0,0,0,0.1,0,0.1c2.4-0.1,4.7-0.5,7-1.3c3.6-1.3,6.9-3.4,10-6c-1-1.6-1.4-3.5-1.2-5.4
		c0.1-0.8,0.6-1.5,1.5-1.5c0.8,0,1.6,0.7,1.5,1.5c-0.1,1.2,0,2.2,0.5,3.3c1-1,1.9-2,2.9-3.1c-0.4-0.2-0.8-0.5-0.9-1
		c-0.1-0.7-0.3-1.4-0.4-2.1c-0.2-0.8,0.2-1.6,1-1.8c0.7-0.2,1.7,0.3,1.8,1c0.1,0.5,0.2,1,0.3,1.5c5.1-6.6,9.1-14.4,12.1-20.9
		c3.4-7.3,6-14.9,7.8-22.7c1.9-8.5,3.6-18.6-3.3-25.3C206.6,75.3,202.1,75.1,198,72.9z M151.9,78.1c5.1,2.1,10.4,3.9,15.7,5.2
		c1.9,0.5,1.1,3.4-0.8,2.9c-5.4-1.3-10.6-3-15.7-5.2C149.4,80.2,150.1,77.3,151.9,78.1z M154,91.7c0.1-0.5,0.3-0.8,0.6-1.2
		c0.4-0.8,1-1.4,1.8-1.7c1.8-0.6,3.9,0.7,4.3,2.5c0.4,2-1.3,4.1-3.4,4.2C155.4,95.6,153.5,93.7,154,91.7z M155.7,121
		c-1.8,0.5-3.7,1.1-5.5,1.6c-1.9,0.5-2.6-2.4-0.8-2.9c1.8-0.5,3.7-1.1,5.5-1.6C156.8,117.6,157.6,120.4,155.7,121z M140.4,118
		c2.7-1.3,5.5-2.3,8.4-2.8c1.9-0.3,2.7,2.6,0.8,2.9c-2.7,0.5-5.3,1.3-7.7,2.5C140.2,121.4,138.7,118.8,140.4,118z M134.8,115.8
		c1.7-0.9,3.2,1.6,1.5,2.6c-1.6,0.9-3.3,1.8-4.9,2.8c-1.7,0.9-3.2-1.7-1.5-2.6C131.5,117.6,133.2,116.7,134.8,115.8z M125.6,94.8
		c0.7,0.2,1.4,1.1,1,1.8c-0.8,2-1.6,3.9-2.5,5.9c-0.3,0.7-1,1.3-1.8,1c-0.7-0.2-1.4-1.1-1-1.8c0.8-2,1.6-3.9,2.5-5.9
		C124,95.1,124.7,94.5,125.6,94.8z M112,90.7c2.5-3.9,0.4-10.1,5.4-12.6c3.2-1.6,7,1.2,6.1,4.7c-0.5,1.9-3.4,1.1-2.9-0.8
		c-0.4-1.6-1.2-1.9-2.5-0.8c-0.6,0.5-0.9,1.1-1.2,1.8c-0.4,1.2-0.5,2.4-0.7,3.7c-0.3,2-0.6,3.7-1.7,5.4
		C113.5,93.8,110.9,92.3,112,90.7z M118.1,96.7c-0.7,0.1-1.3,0.2-2,0.3c-0.8,0.1-1.6-0.2-1.8-1c-0.2-0.7,0.2-1.7,1-1.8
		c0.7-0.1,1.3-0.2,2-0.3c0.8-0.1,1.6,0.2,1.8,1C119.3,95.6,118.9,96.5,118.1,96.7z M118.9,116.3c-0.3,0.8-1,1.3-1.8,1
		c-0.7-0.2-1.4-1.1-1-1.8c0.7-1.6,1.6-3.1,3-4.3c0.6-0.5,1.5-0.6,2.1,0c0.5,0.5,0.6,1.6,0,2.1C120.1,114.2,119.3,115.1,118.9,116.3z
		 M120,120.8l2.8-3.9c0.5-0.7,1.3-1,2.1-0.5c0.7,0.4,1,1.4,0.5,2.1c-0.9,1.3-1.8,2.6-2.8,3.9c-0.5,0.7-1.3,1-2.1,0.5
		C119.9,122.5,119.5,121.5,120,120.8z M125.6,126.1c-0.8,1.1-1.7,2.3-2.5,3.4c-0.5,0.7-1.3,1-2.1,0.5c-0.6-0.4-1-1.4-0.5-2.1
		c0.8-1.1,1.7-2.3,2.5-3.4c0.5-0.7,1.3-1,2.1-0.5C125.7,124.4,126.1,125.4,125.6,126.1z M126.3,109.1c-0.9,1.7-3.5,0.2-2.6-1.5
		l2-3.9c0.9-1.7,3.5-0.2,2.6,1.5C127.7,106.5,127,107.8,126.3,109.1z M127.1,115.1c-0.6-0.6-0.5-1.5,0-2.1c0.7-0.8,1.4-1.7,2.1-2.5
		c0.5-0.6,1.6-0.5,2.1,0c0.6,0.6,0.5,1.5,0,2.1c-0.7,0.8-1.4,1.7-2.1,2.5C128.7,115.8,127.7,115.7,127.1,115.1z M130.5,127.4
		c-0.6,0.5-1.7,0.1-2.1-0.5c-0.4-0.8-0.1-1.6,0.5-2.1c1.8-1.4,4-2.2,6.3-2.4c0.8-0.1,1.5,0.8,1.5,1.5c0,0.9-0.7,1.4-1.5,1.5
		C133.5,125.6,132,126.3,130.5,127.4z M132.9,135c-1.6,1-3.1-1.6-1.5-2.6c1.8-1.1,3.5-2.2,5.3-3.3c1.6-1,3.1,1.6,1.5,2.6
		C136.5,132.8,134.7,133.9,132.9,135z M141.6,136.7c-1.3,1.2-2.5,2.4-3.8,3.6c-1.4,1.3-3.5-0.8-2.1-2.1c1.3-1.2,2.5-2.4,3.8-3.6
		C140.9,133.2,143,135.4,141.6,136.7z M150,141c-0.6,1.5-1.2,3.1-1.8,4.6c-0.3,0.8-1,1.3-1.8,1c-0.7-0.2-1.3-1.1-1-1.8
		c0.6-1.5,1.2-3.1,1.8-4.6c0.3-0.8,1-1.3,1.8-1C149.7,139.4,150.3,140.2,150,141z M158.3,143.8c-0.2,1-0.4,2.1-0.6,3.1
		c-0.2,0.8-1.1,1.3-1.8,1c-0.8-0.2-1.2-1.1-1-1.8c0.2-1,0.4-2.1,0.6-3.1c0.2-0.8,1.1-1.3,1.8-1C158,142.1,158.4,143,158.3,143.8z
		 M146.9,128.4c-1.4-1.3,0.7-3.4,2.1-2.1c3.9,3.6,8.7,5.5,14,5.6c1.9,0,1.9,3,0,3C157,134.7,151.4,132.5,146.9,128.4z M160.6,126.7
		v-3.1c0-1.9,3-1.9,3,0v3.1C163.6,128.7,160.6,128.7,160.6,126.7z M162.7,148.9l-0.3-4.3c-0.1-1.9,2.9-1.9,3,0l0.3,4.3
		C165.8,150.9,162.8,150.8,162.7,148.9z M166.8,125.9c-0.6-1.9,2.3-2.6,2.9-0.8c0.3,1.1,0.9,2,1.8,2.7c1.4,1.3-0.7,3.4-2.1,2.1
		C168.2,128.9,167.3,127.5,166.8,125.9z M173.6,133.4l3.1,5.9c0.9,1.7-1.7,3.2-2.6,1.5c-1-2-2.1-3.9-3.1-5.9
		C170.1,133.2,172.7,131.7,173.6,133.4z M171,147.8l-2.1-5.9c-0.6-1.8,2.3-2.6,2.9-0.8c0.7,2,1.4,3.9,2.1,5.9
		C174.5,148.9,171.6,149.6,171,147.8z M177.6,155.6c-0.5,0.5-1.6,0.6-2.1,0c-1.3-1.4-1.7-3.3-1.2-5.2c0.5-1.9,3.4-1.1,2.9,0.8
		c-0.2,0.8-0.1,1.6,0.4,2.3C178.2,154.1,178.2,155,177.6,155.6z M178.7,133.5c0.5-0.5,1.6-0.6,2.1,0c0.6,0.7,1.1,1.4,1.7,2.1
		c0.5,0.6,0.6,1.5,0,2.1c-0.5,0.5-1.6,0.6-2.1,0c-0.6-0.7-1.1-1.4-1.7-2.1C178.1,135,178,134.1,178.7,133.5z M180.6,149.5
		c-0.3-2.3-0.6-4.5-0.9-6.8c-0.2-1.9,2.8-1.9,3,0c0.3,2.3,0.6,4.5,0.9,6.8C183.8,151.5,180.8,151.4,180.6,149.5z M185,96.2
		c-4.9,7.9-9.9,15.8-14.8,23.7c-0.2,0.3-0.4,0.5-0.6,0.6c-0.2,0.8-0.8,1.4-1.8,1.2c-3.6-1-7-2.6-10.1-4.8c-1.1-0.8-0.7-2.3,0.2-2.7
		c1.9-4.8,3.7-9.5,5.6-14.3c0.7-1.8,3.6-1,2.9,0.8c-1.9,4.8-3.8,9.7-5.7,14.5c2.2,1.4,4.5,2.5,7,3.3c0,0,0,0,0,0
		c4.9-7.9,9.8-15.8,14.8-23.7C183.5,93.1,186.1,94.6,185,96.2z M197,104.5c-0.1,1.3-1,2.4-2.3,2.7c-1.4,0.3-2.9-0.5-3.5-1.7
		c-1.3-2.7,1.5-5.8,4.2-4.4c1.1,0.6,1.8,1.8,1.6,3C197,104.2,197,104.3,197,104.5z M204.2,103.7c-4.2-2.9-8.3-5.9-12.5-8.8
		c-1.6-1.1-0.1-3.7,1.5-2.6c4.2,2.9,8.3,5.9,12.5,8.8C207.3,102.2,205.8,104.8,204.2,103.7z"/>
	<path fill="none" d="M214.3,352.3C214.3,352.3,214.3,352.3,214.3,352.3C214.2,352.4,214.2,352.4,214.3,352.3
		c-0.2,0.1-0.2,0.2-0.3,0.2c0,0-0.1,0-0.1,0c0,0,0,0-0.1,0c-0.5,0.2-0.9,0-1.2-0.3c-1.2-0.8-2.5-1.7-3.6-2.6c0,0.4-0.2,0.8-0.7,1.1
		c-0.3,0.2-0.6,0.4-0.8,0.6c0.5,0.2,0.8,0.6,0.9,1.3c2.2,33.1,0.5,66.2-5.2,98.9c11.5,1.3,23,2.5,34.5,3.8
		c-4.3-20.8-7.9-41.8-10.7-62.9c-0.6,0.9-1.1,1.8-1.7,2.7c-0.8,1.3-2.6,0.6-2.8-0.6c-4.8-3-8.9-6.8-12.2-11.4
		c-0.6-0.9-0.1-1.8,0.7-2.1c0.1-0.5,0.4-1,1.1-1.1c4.3-0.9,8.7-1.8,13-2.8c-1.2-10.2-2.2-20.5-3-30.7
		C219.5,348.5,217,350.4,214.3,352.3C214.3,352.3,214.3,352.3,214.3,352.3z"/>
	<path fill="none" d="M223.7,391.8c2.8-4.4,5.6-8.8,8.4-13.1c-6.2,1.3-12.4,2.6-18.5,3.9C216.4,386.3,219.8,389.4,223.7,391.8z"/>
	<path fill="none" d="M167.1,786.9c8,1.7,15.9,2.3,24,1.9c-0.2-1.9-0.3-3.7-0.3-5.6c-8.3-0.7-16.6-1.4-24.8-2
		C166.2,783.1,166.6,785,167.1,786.9z"/>
	<path fill="#446EB7" d="M172,226c-0.5-4.8-0.6-9.6-0.3-14.3c-17.2,10.7-39.5,11.1-56.3-0.3c0.2,1.6,0.4,3.1,0.6,4.7
		c0.3,2.7,0.7,5.4,1,8c0.2,0,0.4,0.1,0.6,0.2C134.3,233.9,154.5,232.4,172,226z"/>
	<path fill="#1B2A54" d="M151.2,303c2.3-0.3,4.6-1.2,6.9-1.8c2.6-0.7,5.1-1.4,7.7-2.1c0.9-0.2,1.7-0.5,2.6-0.7
		c-0.3-0.4-0.5-0.8-0.8-1.2c-0.3-0.9-1.6-2-2.2-2.8c-1.7-2.1-3.3-4.1-5-6.2c-0.9-1.1-1.8-2.5-2.8-3.4c-0.6-0.5-1.9-1.5-3.1-2
		c-1.4,5.2-2.8,10.5-4.3,15.7c-0.2,0.9-1,2.4-0.9,3.4C149.4,303.7,148.7,303.4,151.2,303z"/>
	<path fill="#1B2A54" d="M146,313.7c10,5,22.5,1.9,28.1-7.9c4-7,4.1-16.4-0.1-23.3c-6.6-10.7-21-11-30.9-5
		C129.7,286.9,131.5,306.4,146,313.7z M147.8,296c1.2-4.6,2.5-9.1,3.7-13.7c-0.6-0.7-0.5-2.1,0.7-2.5c2.7-1,4.8,0,6.7,2
		c3.3,3.4,6.1,7.6,9.1,11.3c1.1,1.4,4.2,3.9,3.7,6.1c-0.5,2.4-4.2,2.6-6,3.1c-4.9,1.3-9.7,2.8-14.6,3.9c-1.8,0.4-4,0.9-4.9-1.2
		C145,302.5,147.1,298.3,147.8,296z"/>
	<path fill="#1B2A54" d="M198.2,357.4c-0.4,3.5-1.9,6.8-4.5,9.4c-3.8,3.9-9.3,5.4-14.3,4.4c-3.3,9.6-9.2,17.9-17.4,23.9
		c-3.5,2.6-8.5,6-13.1,5c-2.8-0.6-4.9-2.8-5.2-5.4c-1.9,0.8-3.8,1.4-5.9,1c-3.6-0.6-5.8-3.8-5-6.9c-0.7-0.1-1.4-0.3-2.1-0.7
		c-5.7-3.7,1.8-11.5,5.4-13.8c0-0.1,0-0.3,0.1-0.4c1.9-4.7,5.8-7.1,10.3-9.1c6.9-3.1,13.9-6.1,20.8-9.1c0.1,0,0.2-0.1,0.3-0.1
		c0.3-3.1,1.6-6.1,3.8-8.5c0-0.2,0.1-0.5,0.3-0.8c3.4-4.6,8.8-6.9,14-6.2c0-0.1,0.1-0.1,0.1-0.2c2.4-2.5,5.2-4.6,8.3-6.1
		c-1.6-2.3-3-4.8-4.4-7.3c-0.1-0.3-0.2-0.5-0.2-0.8c-0.1-0.5,0.1-1,0.7-1.4c3.5-1.9,6.8-4,10.1-6.2c-0.1-0.2-0.1-0.3-0.2-0.5
		c-2.7-26.1-17.1-48.7-24.5-73.5c-1.5-5-2.6-10.1-3.2-15.2c-17.7,6.3-38,7.6-55-1.5c7.2,66.5,4.5,134-7.8,199.8
		c31.1,2,62.3,1.7,93.3-0.8c0.3,0,0.5,0,0.7,0.1c2.8-24.5,3.3-49.3,1.7-74c-2.1,1.4-4.3,2.9-6.4,4.3
		C198.7,357.3,198.4,357.4,198.2,357.4z M141.3,275.2c0.1-0.1,0.2-0.1,0.3-0.2c10.1-6.2,24.8-6.4,32.9,3.2
		c11.2,13.1,4.9,35.2-11.7,40.1c-11,3.2-23.8-2.2-29.1-12.4C127.8,294.7,131.3,282.4,141.3,275.2z"/>
	<path fill="#1B2A54" d="M209.6,765.5l-0.2,0.3c0.1,0,0.1,0.1,0.2,0.1L209.6,765.5z"/>
	<path fill="#1B2A54" d="M76.4,483.5c-2.3,26.9-4.5,53.8-6.8,80.7c-0.1,1.3-1.6,1.7-2.4,1.2c0,0.1,0,0.3,0,0.4
		c0.1,3.7-2.6,5.6-5.4,5.8c0,0.8,0,1.7,0.1,2.5c0.2,4.1,3.7,6.1,6.9,5.8c0-0.8,0-1.5,0-2.3c0-1.9,3-1.9,3,0c0,0.4,0,0.8,0,1.2
		c1.3-1,2.2-2.5,2.1-4.7c-1.1-30.3-0.2-60.6,2.7-90.7c0,0,0,0,0,0C76.5,483.5,76.5,483.5,76.4,483.5z"/>
	<path fill="#1B2A54" d="M78.7,457.2c-0.2,0-0.5,0-0.7,0c0.4,0.2,0.6,0.6,0.6,1.2c-0.6,7.2-1.2,14.3-1.8,21.5c0.1,0,0.2-0.1,0.2-0.1
		c0.7-6.6,1.4-13.2,2.3-19.8C79.4,459,79.1,458.1,78.7,457.2z"/>
	<path fill="#1B2A54" d="M71.3,454.3c1.2,0,2.5,0,3.7,0c-0.6-0.2-1.2-0.3-1.8-0.3C72.5,454,71.9,454.1,71.3,454.3z"/>
	<path fill="#1B2A54" d="M76.2,457.3c-2.7,0-5.4,0-8.1-0.1c-0.4,0.9-0.7,1.8-0.9,2.8c-2.7,20.6-4.4,41.3-5.3,62.1
		c3.5-0.8,7.5,1,6.9,5.5c-1.2,10.2-1.8,20.5-1.8,30.7c2.8-33.3,5.6-66.6,8.4-99.9C75.5,457.9,75.8,457.5,76.2,457.3z"/>
	<path fill="#1B2A54" d="M67.3,565.9c0-0.1,0-0.3,0-0.4c-0.4-0.2-0.7-0.6-0.6-1.2c0.2-2,0.3-3.9,0.5-5.9c0-10.3,0.6-20.5,1.8-30.7
		c0.5-4.5-3.4-6.3-6.9-5.5c-1.4,0.3-2.7,1-3.6,2.2c-0.4,15.5-0.5,31-0.4,46.5c1.1,0.7,2.5,1,3.9,1C64.7,571.5,67.4,569.6,67.3,565.9
		z"/>
	<path fill="#1B2A54" d="M111.7,106.6c0.6-1.8,3.5-1,2.9,0.8c-0.1,0.2-0.1,0.4-0.2,0.6c0.8-0.1,1.7-0.3,2.6-0.5
		c1.8-0.5,1.1-3.4-0.8-2.9c-13.1,3.8-8.9-16.9-7.1-23.3c1.4-4.9,4.1-9.7,10-9.6c6.1,0.1,9.5,6,8.2,11.5c0,0.1,0,0.2,0,0.3
		c0.4-0.7,0.8-1.5,1.2-2.1c0.5-0.9,1.5-0.9,2.2-0.4c0.1-2.8-0.8-5.2-2.2-7.1c0,0,0,0,0,0c-0.4,1.9-3.3,1.1-2.9-0.8
		c0.1-0.6,0.3-1.1,0.4-1.7c-2.9-2.1-6.7-3-10.3-2.1c0,0,0,0,0,0.1c0.1,1.5-1.7,1.8-2.6,0.9c-2.1,1.1-3.9,2.9-5.2,5.6
		c-3.7,7.5-7.5,29.9,3.4,32C111.5,107.5,111.6,107.1,111.7,106.6z"/>
	<path fill="#1B2A54" d="M120.9,137.9c-0.2,0.9-0.4,1.8-0.6,2.7c8.7,9.7,21.5,14.8,34,17.8c6.6,1.6,13.6,3,20.3,1.7
		c0.5-0.1,1-0.2,1.5-0.3c0.2-0.5,0.3-1,0.5-1.5c0.6-1.6,3-1.1,3,0.3c4.2-1.8,7.9-4.7,11.2-8c9.8-10.1,17-23.1,21.8-36.1
		c1.5-4.1,3.3-9,4.6-14.1c-0.8-0.4-1.2-1.6-0.5-2.4c0.5-0.6,1-1.3,1.5-1.9c1.6-8.6,1.2-17.3-4.4-23.5c-0.9,0.5-1.9,1-2.9,1.4
		c6.9,6.7,5.2,16.8,3.3,25.3c-1.8,7.8-4.4,15.5-7.8,22.7c-3,6.5-7,14.2-12.1,20.9c0,0.2,0.1,0.4,0.1,0.6c0.2,0.8-0.2,1.6-1,1.8
		c-0.3,0.1-0.7,0-1-0.1c-0.9,1.1-1.9,2.1-2.9,3.1c0.2,0.3,0.3,0.7,0.6,1c1.1,1.6-1.5,3.1-2.6,1.5c-0.1-0.1-0.2-0.3-0.2-0.4
		c-3,2.7-6.4,4.8-10,6c-2.3,0.8-4.6,1.2-7,1.3c0,1.8-2.8,1.8-3,0c-1.9-0.1-3.8-0.3-5.6-0.6c-0.4,1.6-3,1.4-3-0.4v-0.2
		c-2.2-0.5-4.5-1.1-6.6-1.6c-0.5-0.1-1-0.3-1.4-0.4c0,0.2-0.1,0.3-0.1,0.5c-0.4,1.9-3.3,1.1-2.9-0.8c0-0.2,0.1-0.4,0.1-0.6
		c-2.4-0.8-4.9-1.7-7.2-2.7c-0.2,0.3-0.5,0.7-0.7,1c-0.5,0.7-1.3,1-2.1,0.5c-0.7-0.4-1-1.4-0.5-2.1c0.2-0.3,0.3-0.5,0.5-0.8
		c-1.4-0.7-2.8-1.4-4.1-2.2c-0.2,0.1-0.3,0.3-0.5,0.4c-0.6,0.5-1.5,0.6-2.1,0c-0.5-0.5-0.6-1.5,0-2.1c-1.2-0.8-2.4-1.7-3.6-2.7
		c-0.1,0.1-0.3,0.2-0.4,0.3c-0.7,0.5-1.7,0.1-2.1-0.5c-0.4-0.6-0.2-1.3,0.2-1.8c-0.6-0.6-1.2-1.2-1.8-1.8c-1.1,0.5-2.8-0.7-2-2.1
		c0,0,0-0.1,0.1-0.1c-0.9-1.1-1.7-2.2-2.5-3.4c-0.4,0.4-0.9,0.6-1.5,0.4c-0.8-0.2-1.3-1.1-1-1.8c0.2-0.5,0.3-0.9,0.5-1.4
		c0.1-0.2,0.1-0.3,0.2-0.4c-0.5-0.9-0.9-1.9-1.3-2.9c-1,0.4-2.5-0.4-2.1-1.7c0.2-0.8,0.5-1.6,0.7-2.4c-1.3-4.9-1.3-10.1,0.3-15.3
		c0.1-0.2,0.1-0.4,0.2-0.6c0.6-1.8-2.3-2.6-2.9-0.8c-0.1,0.4-0.3,0.9-0.4,1.3c-2.8,10.4,0.1,21.2,6.5,29.7c0-0.2,0.1-0.4,0.1-0.6
		C118.4,135.3,121.3,136.1,120.9,137.9z"/>
	<path fill="#1B2A54" d="M115.8,69.4C115.8,69.4,115.8,69.4,115.8,69.4c-1.6-17.2,9.1-32.3,25.7-36.4c-0.1,0-0.1-0.1-0.2-0.1
		c-0.3-0.1-0.5-0.3-0.7-0.6c-0.5-0.5-0.5-1.1-0.4-1.6c0-0.1,0-0.3,0-0.4c-17.6,4.6-29.1,20.9-27.4,39.2c0,0.4,0.2,0.7,0.4,0.9
		C114.1,71.3,115.9,71,115.8,69.4z"/>
	<path fill="#1B2A54" d="M126.9,90.5c1.2,2.1,3.7,3.3,6,2.2c3.8-1.7,3.4-6.2,3.3-9.7c-0.1-5.8,1.6-11.4,5.3-16
		c3.4-4.1,7.7-5.5,11.9-8.4c0.9-0.6,1.7-1.3,2.3-2.1c-0.8-0.7-1.4-1.5-1.9-2.3c-0.1-0.1-0.1-0.3-0.2-0.4c-1.1,2-3.4,3.1-5.8,4.3
		c-2.2,1.1-4.2,2.5-6.1,4.2c-3.5,3.2-6.1,7.4-7.5,11.9c-0.7,2.4-1.1,4.9-1.2,7.3c0,1.5,0.6,3.4,0.1,4.8c0.4,2.6-0.9,2.6-3.9,0
		c0.4-1.3,1-2.4,1.7-3.6c0.5-0.8,0.1-1.5-0.4-1.9c-0.7-0.5-1.6-0.5-2.2,0.4c-0.4,0.7-0.8,1.4-1.2,2.1
		C126.3,85.8,125.7,88.2,126.9,90.5z"/>
	<path fill="#1B2A54" d="M154,49.8c0.3,1,0.3,1.9,0.2,2.7c0.6-0.5,1.7-0.6,2.3,0.3c0.2,0.4,0.5,0.7,0.8,1c0.2-0.7,0.2-1.5,0.2-2.3
		c-0.5-8.1-8-16.1-14.2-20.9c0,0.2,0.1,0.3,0.1,0.5c0.3,1.3-1,2.1-2,1.8c0.1,0,0.1,0.1,0.2,0.1C146.8,37.2,152.3,43.2,154,49.8z"/>
	<path fill="#1B2A54" d="M140.4,31.9c-0.1-0.4-0.2-0.8-0.2-1.2c-0.2,0.5-0.1,1.2,0.4,1.6C140.5,32.2,140.4,32.1,140.4,31.9z"/>
	<path fill="#1B2A54" d="M146.9,21.7c1.6-0.3,2.4,1.7,1.5,2.5c7.5,0.6,14.2,3.6,16.3,12.1c0.5,1.9,3.4,1.1,2.9-0.8
		c-3.8-15.1-20.1-15.4-32.9-13.3c-1.6,1.2-3.2,2.3-4.8,3.5c-0.1,0.1-0.2,0.1-0.3,0.2c0.3,0.2,0.6,0.2,1,0.1
		c3.5-0.7,7.6-1.5,11.7-1.7C143.6,22.9,145.1,22,146.9,21.7z"/>
	<path fill="#1B2A54" d="M140.4,31.9c0,0.2,0.1,0.3,0.2,0.4c0.2,0.3,0.4,0.5,0.7,0.6c1,0.3,2.3-0.5,2-1.8c0-0.2-0.1-0.3-0.1-0.5
		c-0.4-2.9,1.7-5.6,4.5-6.1c0.3-0.1,0.6-0.2,0.7-0.4c0.8-0.9,0-2.8-1.5-2.5c-1.8,0.3-3.3,1.2-4.5,2.5c-1.5,1.6-2.4,3.9-2.3,6.1
		c0,0.1,0,0.3,0,0.4C140.2,31.1,140.3,31.5,140.4,31.9z"/>
	<path fill="#1B2A54" d="M134.8,22.1c8.4-5.9,17.6-11.2,28-11.5c12.5-0.4,26.2,8.8,23.4,22.8c-0.4,1.9,2.5,2.7,2.9,0.8
		c1.5-7.7-1.4-14.8-6.7-19.7c-0.7,0.9-2.4,1-2.6-0.4c-0.1-0.7-0.3-1.4-0.6-2.1c-2.8-1.9-6.1-3.2-9.6-3.9
		c-15.5-2.8-29.4,6.1-41.2,14.9c-1.4,1.1-0.2,3.5,1.3,2.7c0.1,0,0.2-0.1,0.3-0.2C131.5,24.4,133.1,23.2,134.8,22.1z"/>
	<path fill="#1B2A54" d="M179.8,14.1c0.3,1.4,1.9,1.3,2.6,0.4c0.2-0.3,0.4-0.7,0.3-1.2c-0.7-3.8-2.7-7.1-5.6-9.5
		c-2-0.4-4.2-0.7-6.3-0.8c-1.2,0-1.6-1.1-1.4-2c-0.6,0.8-0.6,2.1,0.7,2.4c4.4,1.1,7.8,4.3,9.2,8.5C179.5,12.6,179.7,13.3,179.8,14.1
		z"/>
	<path fill="#1B2A54" d="M170.8,3c2.2,0.1,4.3,0.3,6.3,0.8c19.6,4.2,32.1,24.4,25.9,44.5c-0.6,1.8,2.3,2.6,2.9,0.8
		c2.7-8.8,2.1-17.6-1-25.3c-0.8,0.6-2.4,0.3-2.6-1.1l-0.4-4.7C195.5,7.6,184.2,0.4,170.8,0c-0.8,0-1.2,0.4-1.4,1
		C169.1,1.9,169.6,3,170.8,3z"/>
	<path fill="#1B2A54" d="M202.3,22.6c0.1,1.4,1.7,1.8,2.6,1.1c0.3-0.2,0.5-0.6,0.4-1.1l-0.8-9.3c-0.8-0.8-1.6-1.6-2.4-2.3
		c-0.5-0.5-0.6-1.1-0.3-1.6c-0.3,0.2-0.5,0.6-0.5,1.2l0.6,7.3L202.3,22.6z"/>
	<path fill="#1B2A54" d="M202.1,11c0.8,0.7,1.6,1.5,2.4,2.3c10.3,10.4,16.4,24.8,15.6,39.6c-0.4,8.4-4.2,18.5-14,18.8
		c-10.5,0.4-16.2-10.8-11.2-19.5c1-1.7-1.6-3.2-2.6-1.5c-2,3.5-2.7,7.5-2,11.3c0.3-0.1,0.5-0.3,0.8-0.4c1.7-1,3.2,1.6,1.5,2.6
		c-0.5,0.3-1,0.6-1.5,0.8c1.2,3.3,3.5,6.2,6.9,8c4.1,2.2,8.6,2.3,12.6,0.9c1-0.4,2-0.8,2.9-1.4c2.5-1.5,4.6-3.6,6.1-6.3
		c1-1.8,1.8-3.8,2.4-5.8c-0.3-0.8-0.7-1.6-1.1-2.4c-0.7-1.4,0.9-2.7,2-2.1c0.9-6.5,0-13.3-1.6-19.3c-2.8-10.7-8.9-20.4-17.1-27.7
		c-0.9-0.8-2.1-0.3-2.5,0.5C201.5,9.9,201.5,10.5,202.1,11z"/>
	<path fill="#1B2A54" d="M169.6,58.4c-1-1.7,1.6-3.2,2.6-1.5c0.3,0.5,0.6,0.9,0.9,1.4c2.5-1.4,4.5-3.5,5.2-6.4
		c1.6-6.2,0.9-14.7-0.7-20.8c-1.5-5.8-4.7-10.7-10-13.6c-1.7-0.9-3.2,1.7-1.5,2.6c8.5,4.7,9.7,14.5,9.7,23.3
		c0,5.5,0.1,11.9-6.7,13.1c-3.8,0.7-9.2,0.4-12-2.7c-0.3-0.3-0.6-0.7-0.8-1c-0.5-0.9-1.6-0.9-2.3-0.3c-0.4,0.3-0.7,0.9-0.5,1.5
		c0,0.1,0.1,0.2,0.2,0.4c0.5,0.9,1.2,1.7,1.9,2.3c3.6,3.3,9.6,4.2,14.5,2.7C170.1,59.1,169.9,58.8,169.6,58.4z"/>
	<path fill="#1B2A54" d="M173.2,58.3c-0.3-0.4-0.6-0.9-0.9-1.4c-1-1.7-3.6-0.2-2.6,1.5c0.2,0.4,0.4,0.7,0.7,1
		c4.7,6.9,13.3,9.1,20.7,5.6c0.5-0.2,1-0.5,1.5-0.8c1.7-1,0.1-3.6-1.5-2.6c-0.3,0.2-0.5,0.3-0.8,0.4
		C184.2,65.2,177.2,63.7,173.2,58.3z"/>
	<path fill="#1B2A54" d="M196,39c1.7-4.8,1.9-9.7,0.7-14.6c-0.5-1.9-3.4-1.1-2.9,0.8c1.1,4.4,0.9,8.8-0.7,13
		C192.5,40.1,195.4,40.9,196,39z"/>
	<path fill="#1B2A54" d="M205.9,60.6c8.3-4.1,11.8-13.5,8.2-22c-0.7-1.8-3.6-1-2.9,0.8c3.1,7.4,0.4,15-6.8,18.6
		C202.6,58.8,204.2,61.4,205.9,60.6z"/>
	<path fill="#1B2A54" d="M220.9,58c0.4,0.8,0.8,1.6,1.1,2.4c4.8,11.7,3.3,25.2-4,35.5c-0.5,0.7-0.9,1.3-1.5,1.9
		c-0.7,0.9-0.3,2,0.5,2.4c0.5,0.3,1.1,0.3,1.6-0.3c10-12.3,11.9-29.3,4.9-43.5c-0.1-0.3-0.3-0.5-0.6-0.6
		C221.8,55.3,220.2,56.6,220.9,58z"/>
	<path fill="#1B2A54" d="M160.8,91.4c-0.4-1.9-2.5-3.2-4.3-2.5c-0.8,0.3-1.4,0.9-1.8,1.7c-0.3,0.3-0.5,0.7-0.6,1.2
		c-0.5,2.1,1.4,3.9,3.4,3.9C159.5,95.5,161.2,93.4,160.8,91.4z"/>
	<path fill="#1B2A54" d="M151.1,81c5.1,2.1,10.4,3.9,15.7,5.2c1.9,0.5,2.7-2.4,0.8-2.9c-5.4-1.3-10.6-3-15.7-5.2
		C150.1,77.3,149.4,80.2,151.1,81z"/>
	<path fill="#1B2A54" d="M191.7,94.9c4.2,2.9,8.3,5.9,12.5,8.8c1.6,1.1,3.1-1.5,1.5-2.6c-4.2-2.9-8.3-5.9-12.5-8.8
		C191.6,91.2,190.1,93.8,191.7,94.9z"/>
	<path fill="#1B2A54" d="M195.4,101.1c-2.7-1.4-5.5,1.7-4.2,4.4c0.6,1.3,2.1,2,3.5,1.7c1.3-0.2,2.2-1.4,2.3-2.7c0-0.1,0-0.3,0-0.4
		C197.2,102.8,196.5,101.6,195.4,101.1z"/>
	<path fill="#1B2A54" d="M163.1,131.8c-5.3-0.1-10.1-2-14-5.6c-1.4-1.3-3.5,0.8-2.1,2.1c4.5,4.1,10,6.4,16.1,6.4
		C165,134.8,165,131.8,163.1,131.8z"/>
	<path fill="#1B2A54" d="M159.3,114.3c0.5,0.3,1,0.6,1.4,0.9c1.9-4.8,3.8-9.7,5.7-14.5c0.7-1.8-2.2-2.6-2.9-0.8
		c-1.9,4.8-3.7,9.5-5.6,14.3C158.3,113.9,158.8,113.9,159.3,114.3z"/>
	<path fill="#1B2A54" d="M167.7,118.5c-2.5-0.8-4.8-1.9-7-3.3c-0.5-0.3-1-0.6-1.4-0.9c-0.5-0.3-1-0.3-1.3-0.1
		c-0.9,0.5-1.3,2-0.2,2.7c3.1,2.2,6.5,3.8,10.1,4.8c1,0.3,1.7-0.4,1.8-1.2C168.5,121.1,166.9,119.8,167.7,118.5z"/>
	<path fill="#1B2A54" d="M182.5,94.7c-4.9,7.9-9.9,15.8-14.8,23.7c0,0,0,0,0,0c-0.8,1.3,0.8,2.6,2,2c0.2-0.1,0.5-0.3,0.6-0.6
		c4.9-7.9,9.9-15.8,14.8-23.7C186.1,94.6,183.5,93.1,182.5,94.7z"/>
	<path fill="#1B2A54" d="M154.9,118.1c-1.8,0.5-3.7,1.1-5.5,1.6c-1.9,0.5-1.1,3.4,0.8,2.9c1.8-0.5,3.7-1.1,5.5-1.6
		C157.6,120.4,156.8,117.6,154.9,118.1z"/>
	<path fill="#1B2A54" d="M141.9,120.6c2.4-1.2,5-2.1,7.7-2.5c1.9-0.3,1.1-3.2-0.8-2.9c-2.9,0.5-5.7,1.5-8.4,2.8
		C138.7,118.8,140.2,121.4,141.9,120.6z"/>
	<path fill="#1B2A54" d="M131.4,121.1c1.6-0.9,3.3-1.8,4.9-2.8c1.7-0.9,0.2-3.5-1.5-2.6c-1.6,0.9-3.3,1.8-4.9,2.8
		C128.2,119.5,129.7,122.1,131.4,121.1z"/>
	<path fill="#1B2A54" d="M136.8,123.9c0-0.7-0.7-1.6-1.5-1.5c-2.3,0.3-4.4,1-6.3,2.4c-0.6,0.5-1,1.3-0.5,2.1c0.4,0.6,1.4,1,2.1,0.5
		c1.4-1.1,3-1.8,4.8-2C136.1,125.3,136.8,124.8,136.8,123.9z"/>
	<path fill="#1B2A54" d="M136.7,129.1c-1.8,1.1-3.5,2.2-5.3,3.3c-1.6,1-0.1,3.6,1.5,2.6c1.8-1.1,3.5-2.2,5.3-3.3
		C139.9,130.7,138.4,128.1,136.7,129.1z"/>
	<path fill="#1B2A54" d="M139.5,134.6c-1.3,1.2-2.5,2.4-3.8,3.6c-1.4,1.3,0.7,3.5,2.1,2.1c1.3-1.2,2.5-2.4,3.8-3.6
		C143,135.4,140.9,133.2,139.5,134.6z"/>
	<path fill="#1B2A54" d="M149,139.2c-0.9-0.2-1.5,0.3-1.8,1c-0.6,1.5-1.2,3.1-1.8,4.6c-0.3,0.8,0.3,1.6,1,1.8c0.9,0.2,1.5-0.3,1.8-1
		c0.6-1.5,1.2-3.1,1.8-4.6C150.3,140.2,149.7,139.4,149,139.2z"/>
	<path fill="#1B2A54" d="M157.2,141.9c-0.7-0.2-1.7,0.3-1.8,1c-0.2,1-0.4,2.1-0.6,3.1c-0.2,0.8,0.2,1.6,1,1.8c0.7,0.2,1.7-0.3,1.8-1
		c0.2-1,0.4-2.1,0.6-3.1C158.4,143,158,142.1,157.2,141.9z"/>
	<path fill="#1B2A54" d="M162.4,144.6l0.3,4.3c0.1,1.9,3.1,1.9,3,0l-0.3-4.3C165.3,142.7,162.3,142.7,162.4,144.6z"/>
	<path fill="#1B2A54" d="M171.8,141.2c-0.6-1.8-3.5-1-2.9,0.8l2.1,5.9c0.6,1.8,3.5,1,2.9-0.8C173.2,145.1,172.5,143.1,171.8,141.2z"
		/>
	<path fill="#1B2A54" d="M171.5,127.8c-0.8-0.8-1.4-1.6-1.8-2.7c-0.6-1.8-3.5-1.1-2.9,0.8c0.5,1.6,1.3,3,2.5,4.1
		C170.8,131.2,173,129.1,171.5,127.8z"/>
	<path fill="#1B2A54" d="M171,134.9c1,2,2.1,3.9,3.1,5.9c0.9,1.7,3.5,0.2,2.6-1.5l-3.1-5.9C172.7,131.7,170.1,133.2,171,134.9z"/>
	<path fill="#1B2A54" d="M163.6,126.7v-3.1c0-1.9-3-1.9-3,0v3.1C160.6,128.7,163.6,128.7,163.6,126.7z"/>
	<path fill="#1B2A54" d="M182.7,142.8c-0.2-1.9-3.2-1.9-3,0c0.3,2.3,0.6,4.5,0.9,6.8c0.2,1.9,3.2,1.9,3,0
		C183.3,147.3,183,145,182.7,142.8z"/>
	<path fill="#1B2A54" d="M177.2,151.2c0.5-1.9-2.4-2.7-2.9-0.8c-0.5,1.9,0,3.7,1.2,5.2c0.5,0.6,1.6,0.5,2.1,0c0.6-0.6,0.5-1.5,0-2.1
		C177.1,152.8,177,152,177.2,151.2z"/>
	<path fill="#1B2A54" d="M169.7,152.6c-0.1-1.9-3.1-1.9-3,0c0.1,1.6,0.2,3.3,0.3,4.9c0,0,0,0.1,0,0.1c0.2,1.8,3,1.8,3,0
		c0,0,0-0.1,0-0.1C169.9,155.9,169.8,154.3,169.7,152.6z"/>
	<path fill="#1B2A54" d="M161.5,152.9c0-1.9-3-1.9-3,0v3.5v0.2c0,1.8,2.6,1.9,3,0.4c0-0.1,0-0.2,0-0.4V152.9z"/>
	<path fill="#1B2A54" d="M148.4,150.1c-0.3,1.1-0.5,2.3-0.8,3.4c0,0.2-0.1,0.4-0.1,0.6c-0.4,1.9,2.5,2.7,2.9,0.8
		c0-0.2,0.1-0.3,0.1-0.5c0.3-1.2,0.5-2.3,0.8-3.5C151.7,149,148.8,148.2,148.4,150.1z"/>
	<path fill="#1B2A54" d="M141.2,146.6c-0.7-0.4-1.6-0.1-2.1,0.5c-0.5,0.8-1.1,1.6-1.6,2.4c-0.2,0.3-0.3,0.5-0.5,0.8
		c-0.5,0.7-0.1,1.7,0.5,2.1c0.7,0.4,1.6,0.1,2.1-0.5c0.2-0.3,0.5-0.7,0.7-1c0.5-0.7,0.9-1.4,1.4-2.1
		C142.2,148,141.9,147,141.2,146.6z"/>
	<path fill="#1B2A54" d="M135.8,143.2c-0.6-0.6-1.5-0.5-2.1,0c-0.9,0.8-1.8,1.6-2.8,2.5c0,0,0,0,0,0c-0.6,0.5-0.5,1.5,0,2.1
		c0.6,0.6,1.5,0.5,2.1,0c0.2-0.1,0.3-0.3,0.5-0.4c0.8-0.7,1.5-1.3,2.3-2C136.4,144.8,136.3,143.8,135.8,143.2z"/>
	<path fill="#1B2A54" d="M130.4,139.2c-0.4-0.7-1.4-1-2.1-0.5c-1,0.7-2.1,1.4-3.1,2.1c-0.1,0.1-0.2,0.2-0.3,0.3
		c-0.4,0.5-0.6,1.2-0.2,1.8c0.4,0.7,1.4,1,2.1,0.5c0.1-0.1,0.3-0.2,0.4-0.3c0.9-0.6,1.8-1.2,2.7-1.8
		C130.6,140.8,130.9,139.9,130.4,139.2z"/>
	<path fill="#1B2A54" d="M122.3,103.5c0.9,0.2,1.5-0.3,1.8-1c0.8-2,1.6-3.9,2.5-5.9c0.3-0.8-0.3-1.6-1-1.8c-0.9-0.2-1.5,0.3-1.8,1
		c-0.8,2-1.6,3.9-2.5,5.9C120.9,102.4,121.6,103.3,122.3,103.5z"/>
	<path fill="#1B2A54" d="M110,173.2c4.3-10.6,7.7-21.5,10.2-32.6c0.2-0.9,0.4-1.8,0.6-2.7c0.4-1.9-2.5-2.7-2.9-0.8
		c0,0.2-0.1,0.4-0.1,0.6c-2.6,11.7-6.1,23.2-10.6,34.3c0.4,0.7,0.8,1.4,1.1,2.2C109,174.3,109.7,174,110,173.2z"/>
	<path fill="#1B2A54" d="M176.5,158.3c-0.2,0.5-0.3,1-0.5,1.5c-2.1,6.9-1.6,14,1.4,20.7c0.4,0.9,1.3,0.9,1.9,0.5
		c0.2-0.5,0.5-1.1,0.8-1.6c0-0.1-0.1-0.3-0.1-0.4c-2.8-6.4-2.9-13.3-0.6-19.9c0.1-0.2,0.1-0.3,0.1-0.5
		C179.5,157.2,177.1,156.7,176.5,158.3z"/>
	<path fill="#1B2A54" d="M150.1,181.2c3-0.8,5.1-3.2,6.9-5.5c1.2-1.5-0.9-3.6-2.1-2.1c-2,2.5-6.2,7.3-9.4,3.6
		c-1.3-1.5-3.4,0.7-2.1,2.1C145,181.3,147.6,181.9,150.1,181.2z"/>
	<path fill="#1B2A54" d="M171.8,211.7c0.1-1.2,0.2-2.4,0.3-3.6c-0.2,0-0.4,0.1-0.6,0.2c-17,11.2-40.1,11.8-56.4-1c0,0,0,0-0.1,0
		c0.2,1.3,0.4,2.7,0.5,4C132.3,222.8,154.6,222.4,171.8,211.7z"/>
	<path fill="#1B2A54" d="M172.4,229.1c-0.1-1-0.3-2-0.4-3.1c-17.6,6.3-37.7,7.9-54.4-1.7c-0.2-0.1-0.4-0.2-0.6-0.2
		c0.1,1.2,0.3,2.3,0.4,3.5C134.4,236.7,154.7,235.4,172.4,229.1z"/>
	<path fill="#1B2A54" d="M109,427.4c0.2,0,0.5,0,0.7,0c12.3-65.8,15-133.3,7.8-199.8c-0.1-1.2-0.2-2.3-0.4-3.5c-0.3-2.7-0.6-5.4-1-8
		c-0.2-1.6-0.4-3.1-0.6-4.7c-0.2-1.3-0.3-2.7-0.5-4c-1-7.5-2.1-15-3.5-22.5c-0.7-3.7-1.6-7.4-3.1-10.7c-0.3-0.7-0.7-1.5-1.1-2.2
		c-1.2-2-2.6-3.9-4.5-5.5c-0.2,0.4-0.5,0.6-0.9,0.8c-0.7,0.2-1.4,0.4-2.1,0.6c0,0,0,0,0.1,0.1c7.2,5.1,8.3,14.7,9.6,22.8
		c1.6,9.6,3,19.3,4.1,29c2.2,18.7,3.7,37.5,4.4,56.3c0.5,14.8,0.6,29.7,0.2,44.5c1.1,4.6,1.9,9.3,2.2,14.1c0.1,1.7-2.1,1.9-2.8,0.7
		c-0.9,17.6-2.4,35.1-4.7,52.6c-2.7,21.4-6.5,42.7-11.3,63.8c1.5,0,2.2,2,1,2.7c0.7,0.1,1.4-0.1,1.6-1c1.7-7.7,3.3-15.4,4.8-23.1
		c0,0-0.1,0-0.1,0C107.1,430.3,107.1,427.3,109,427.4z"/>
	<path fill="#1B2A54" d="M172.1,208.2c-0.1,1.2-0.2,2.4-0.3,3.6c-0.3,4.8-0.2,9.5,0.3,14.3c0.1,1,0.2,2,0.4,3.1
		c0.7,5.1,1.7,10.2,3.2,15.2c7.4,24.8,21.8,47.4,24.5,73.5c0,0.2,0.1,0.4,0.2,0.5c0.9-0.6,1.8-1.3,2.7-1.9
		c-2.8-23.6-14.7-44.4-22.4-66.6c-8.8-25.6-8.2-52.3,6-75.9c0.1-0.1,0.1-0.3,0.2-0.4c-0.8,0-1.6,0-2.4,0.1c-0.4,0-0.7-0.1-0.9-0.2
		c-1.2,2-2.2,4.1-3.2,6.1c-0.3,0.5-0.5,1.1-0.8,1.6C175.4,189.7,173,198.9,172.1,208.2z"/>
	<path fill="#1B2A54" d="M203.1,451.5c5.7-32.6,7.4-65.8,5.2-98.9c0-0.6-0.4-1.1-0.9-1.3c-0.7,0.5-1.4,1-2.1,1.4
		c1.6,24.7,1.1,49.4-1.7,74c1.1,0.5,1,2.4-0.3,2.8c-0.9,7.1-1.9,14.2-3.1,21.3c0,0.1,0,0.2,0,0.2c0.1,0,0.1,0,0.2,0
		C201.3,451.3,202.2,451.4,203.1,451.5z"/>
	<path fill="#1B2A54" d="M238.1,457.4c-0.1-0.7-0.3-1.4-0.4-2.1c-11.5-1.3-23-2.5-34.5-3.8c-0.9-0.1-1.9-0.2-2.8-0.3
		c-0.1,0-0.1,0-0.2,0c-1.7,0-1.7,2.8,0.2,3c13.5,1.5,27,3,40.4,4.5c1.9,0.2,1.9-2.8,0-3c0.1,0.3,0.1,0.6,0.2,0.9
		C241.4,458.5,238.5,459.3,238.1,457.4z"/>
	<path fill="#1B2A54" d="M186.7,173.4c5.7-0.1,11.4,0.9,16.7,3.2c2.8,1.2,5.5,2.7,7.9,4.5c1.3,1,4.3,3.2,5.1,4.7
		c1.4,2.9-0.6,5.3-2.4,7.3c-7.8,8.8-13.8,17.8-17.1,29.3c-0.5,1.9,2.4,2.7,2.9,0.8c0.8-2.7,1.7-5.3,2.7-7.8
		c-0.4-0.3-0.8-0.6-1.2-0.9c-1.6-1.1-0.1-3.7,1.5-2.6c0.3,0.2,0.6,0.5,1,0.7c2.2-4.5,4.8-8.8,8.1-12.7c1.2-1.4,2.8-2.9,4.3-4.6
		c-0.1,0-0.1,0-0.2-0.1c-1.8-0.7-1-3.6,0.8-2.9c0.4,0.2,0.9,0.4,1.3,0.6c1.5-2.1,2.4-4.5,1.6-7c-1.7-5.6-10.1-9.8-14.9-11.9
		c-6.5-2.8-13.5-3.9-20.5-3.4c-1.6,0.1-1.9,2.1-0.9,2.8c0.2,0.2,0.5,0.2,0.9,0.2C185,173.5,185.9,173.4,186.7,173.4z"/>
	<path fill="#1B2A54" d="M203.5,264.3c-2.5,16.8-1.9,33.8,1.5,50.4c0,0,0,0.1,0,0.1c0.9-0.7,1.8-1.4,2.6-2.1
		c-4-20-3.6-40.5,1.2-60.3c3.2-13.2,7.4-30.3-5.2-39.8c-0.3-0.2-0.6-0.5-1-0.7c-1.6-1.1-3.1,1.5-1.5,2.6c0.4,0.3,0.8,0.6,1.2,0.9
		C216.7,226.7,205.7,249.8,203.5,264.3z"/>
	<path fill="#1B2A54" d="M189.5,325.9c0.1-1.3,2-2.2,2.8-0.8c0.2,0.4,0.5,0.8,0.7,1.3c13.5-7.6,25.5-17.7,35.1-30
		c3.7-4.7,7.8-10.6,6.7-16.9c-0.9-5.2-5.3-9.4-10.7-8.9c-0.9,0.1-1.4,0.8-1.4,1.5c0.3-0.2,0.6-0.5,0.9-0.7c1.4-1,2.8,1.1,1.9,2.3
		c3.7,0.4,6.4,3.9,6.5,7.7c0.1,3.6-1.8,7.1-3.7,10c-2.2,3.3-4.7,6.3-7.4,9.3c0,1.1,0.1,2.2,0.1,3.2c0.1,1.9-2.9,1.9-3,0
		c0-0.1,0-0.1,0-0.2c-0.3,0.3-0.5,0.5-0.8,0.8c-3,3-6.1,5.8-9.3,8.4c-0.9,0.7-1.8,1.4-2.6,2.1c-0.7,0.5-1.4,1.1-2.2,1.6
		c-0.9,0.6-1.8,1.3-2.7,1.9c-3.3,2.2-6.6,4.3-10.1,6.2C189.6,324.8,189.4,325.4,189.5,325.9z"/>
	<path fill="#1B2A54" d="M220.8,303.7c-0.1-1.1-0.1-2.2-0.1-3.2c-0.1-3.9-0.1-7.7,0.1-11.6c0.3-4.6-0.1-12,4.2-15
		c0.1-0.1,0.3-0.2,0.3-0.3c0.9-1.2-0.4-3.3-1.9-2.3c-0.3,0.2-0.6,0.5-0.9,0.7c-2.8,2.4-3.6,5.7-4.1,9.4c-1,7.3-1,14.7-0.6,22
		c0,0.1,0,0.1,0,0.2C217.9,305.6,220.9,305.7,220.8,303.7z"/>
	<path fill="#1B2A54" d="M214,352.5c0.1,0,0.2-0.1,0.2-0.1C214.1,352.4,214.1,352.5,214,352.5z"/>
	<path fill="#1B2A54" d="M214.3,352.3C214.3,352.3,214.3,352.3,214.3,352.3C214.3,352.3,214.3,352.3,214.3,352.3z"/>
	<path fill="#1B2A54" d="M213.8,352.6C213.9,352.6,213.9,352.6,213.8,352.6C213.9,352.6,213.9,352.6,213.8,352.6z"/>
	<path fill="#1B2A54" d="M192.2,325.1c-0.7-1.5-2.7-0.6-2.8,0.8c0,0.2,0,0.5,0.2,0.8c1.3,2.6,2.8,5,4.4,7.3c0.3-0.2,0.7-0.3,1-0.5
		c1.8-0.7,3.3,1.8,1.5,2.6c-0.3,0.1-0.5,0.2-0.8,0.3c3.2,4.3,7,8.2,11.2,11.7c1.1-0.6,2.1,0.5,2,1.6c1.2,0.9,2.4,1.8,3.6,2.6
		c-0.7-0.6-0.9-1.8,0.1-2.5c0.3-0.2,0.5-0.4,0.7-0.5c-8.7-5.9-15.6-13.6-20.6-22.8C192.7,326,192.4,325.6,192.2,325.1z"/>
	<path fill="#1B2A54" d="M218.1,192.9c-0.4-0.2-0.9-0.4-1.3-0.6c-1.8-0.7-2.6,2.2-0.8,2.9c0.1,0,0.1,0,0.2,0.1
		c15.3,6.3,26.7,18.7,35.8,32.2c9,13.3,17.4,28.5,19.2,44.6c2,18-7.1,31.8-19.6,43.7c-9.4,9-18.9,18.3-29.1,26.6
		c0.9-0.5,2.3-0.1,2.4,1.2c0,0.2,0,0.3,0,0.5c7.7-6.5,14.9-13.5,22.3-20.2c9.8-8.8,19.9-18.1,24.6-30.8c9.5-25.5-7.1-54.5-22.3-74.2
		C241,207.9,230.8,198.5,218.1,192.9z"/>
	<path fill="#1B2A54" d="M212.7,349.8c-1,0.7-0.8,1.9-0.1,2.5c0.3,0.3,0.8,0.4,1.2,0.3c0,0,0,0,0.1,0c0,0,0.1,0,0.1,0
		c0.1,0,0.1-0.1,0.2-0.1c0,0,0,0,0,0c0,0,0.1,0,0.1-0.1c0,0,0,0,0,0c2.6-1.9,5.2-3.8,7.7-5.8c-0.1-0.9-0.2-1.9-0.2-2.8
		c0-0.4,0.1-0.8,0.3-1c-2.8,2.3-5.7,4.5-8.6,6.6C213.2,349.4,213,349.6,212.7,349.8z"/>
	<path fill="#1B2A54" d="M70.4,183.6c0.3,0.5,0.6,1.1,0.9,1.6c8.1-7.9,17.7-13.7,28.5-17.2c0.7-0.2,1.4-0.4,2.1-0.6
		c0.5-0.1,0.8-0.4,0.9-0.8c0.4-1-0.3-2.5-1.7-2.1c-11.9,3.5-22.7,9.8-31.6,18.4C69.8,182.9,70.1,183.2,70.4,183.6z"/>
	<path fill="#1B2A54" d="M87.4,211.8c-0.3,1-0.6,2-0.9,3.1c3.1,4.3,6.4,8.5,9.8,12.6c1.2,1.5,3.3-0.6,2.1-2.1
		c-3.9-4.6-7.5-9.4-11.1-14.3C87.5,211.2,87.5,211.5,87.4,211.8z"/>
	<path fill="#1B2A54" d="M71.1,188.5c-0.3,0.3-0.6,0.7-0.9,1c4.3,7.6,9,15.1,14.1,22.2c0.1-0.3,0.1-0.5,0.2-0.8
		c0.4-1.1,1.6-1.3,2.3-0.8c-5.7-8-10.9-16.3-15.6-24.9c-0.3-0.5-0.6-1.1-0.9-1.6c-0.2-0.4-0.6-0.7-1-0.7c-1.1-0.2-2.3,1-1.6,2.2
		c0.3,0.5,0.6,1.1,0.9,1.6c0.1-0.1,0.2-0.2,0.3-0.3C70.3,185,72.4,187.1,71.1,188.5z"/>
	<path fill="#1B2A54" d="M86.6,214.8c0.3-1,0.5-2,0.9-3.1c0.1-0.3,0.1-0.5,0-0.8c-0.1-0.4-0.3-0.6-0.6-0.8c-0.8-0.5-2-0.4-2.3,0.8
		c-0.1,0.3-0.1,0.5-0.2,0.8c-13.6,44.7,30.3,80.3,33.1,123.1c0,0.3,0.1,0.5,0.2,0.7c0.7,1.2,2.9,1,2.8-0.7
		c-0.3-4.8-1.1-9.5-2.2-14.1c-3.7-15.2-11.3-29.3-18.4-43.4C90,258.1,81.1,236.5,86.6,214.8z"/>
	<path fill="#1B2A54" d="M68.6,374.8c0.3,0.8,0.7,1.7,1.1,2.7c9.7,2.1,19.6,2.3,29.3,0.5c0.8-0.8,1.7-1.7,2.5-2.6
		c0.9-0.9,2.2-0.3,2.5,0.7c0.2-1-0.6-2.1-1.8-1.8c-11.4,2.7-23,2.6-34.4-0.3C68.2,374.1,68.5,374.4,68.6,374.8z"/>
	<path fill="#1B2A54" d="M65.9,376.1c0-0.1-0.1-0.1-0.1-0.2C65.9,375.9,65.9,376,65.9,376.1z"/>
	<path fill="#1B2A54" d="M101.6,375.4c-0.8,0.9-1.7,1.7-2.5,2.6c-1.7,1.7-3.4,3.3-5.1,4.9c-2.4,2.2-5.6,5.7-8.5,7
		c-7.2,3.2-12.9-6-15.7-12.5c-0.4-1-0.8-1.9-1.1-2.7c-0.2-0.4-0.4-0.7-0.8-0.9c-1.1-0.5-2.6,0.3-2.1,1.7c0,0.1,0.1,0.2,0.1,0.3
		c0,0.1,0.1,0.1,0.1,0.2c1.6,4,3.6,7.8,6.3,11.1c2.2,2.8,5.6,6.9,9.5,7.2c3.5,0.2,6.4-2.7,8.9-4.7c4.6-3.7,9-7.8,13.1-12.1
		c0.4-0.5,0.5-1,0.3-1.4C103.7,375.1,102.5,374.5,101.6,375.4z"/>
	<path fill="#1B2A54" d="M100.5,343.7c-0.4-0.1-0.8,0-1.2,0.3c-3.2,2.6-3.9,7.6-1.3,11c2.4,3.1,7.3,3.9,10.6,1.6
		c3.2-2.3,4.2-7.1,2.1-10.5C108.4,342.9,103.8,342,100.5,343.7z M100,352.8c-1.2-1.9-0.8-4.3,0.6-6c0.2,0,0.5-0.1,0.7-0.2
		c2.1-1.3,5.1-1.1,6.5,1c1.5,2.1,0.7,5.4-1.4,6.7C104.4,355.6,101.3,354.9,100,352.8z"/>
	<path fill="#1B2A54" d="M44.7,451.2c0.5,0.1,0.9,0.2,1.4,0.3c13.1-58.9,16.8-119.6,11.1-179.6c-0.2-1.9-3.2-1.9-3,0
		c1.2,12.4,1.9,24.9,2.3,37.3c0.9-0.7,2.7,0.1,2.4,1.6c-0.7,3.8-1.4,7.6-2.2,11.3c0.3,43.7-4.3,87.4-13.9,130.1c0,0.1,0,0.3,0,0.4
		C42.9,451.8,43.6,451,44.7,451.2z"/>
	<path fill="#1B2A54" d="M61.9,455.7c0,0.3,0,0.7-0.1,1c2.1,0.2,4.2,0.3,6.3,0.4c2.7,0.1,5.4,0.2,8.1,0.1c0.5-0.3,1.2-0.3,1.7,0
		c0.2,0,0.5,0,0.7,0c5.8-0.2,11.6-0.6,17.4-1.5c0.3-0.9,0.5-1.8,0.8-2.8c0-0.1,0.1-0.3,0.1-0.4c-7.3,1.1-14.6,1.7-22,1.7
		c-1.2,0-2.5,0-3.7,0c-8.4-0.2-16.9-1.1-25.2-2.8c-0.5-0.1-0.9-0.2-1.4-0.3c-1.1-0.2-1.8,0.6-1.9,1.4c-0.1,0.7,0.2,1.3,1.1,1.5
		c5,1,9.9,1.8,14.9,2.4c0-0.2,0-0.5,0.1-0.7C59,453.8,62,453.8,61.9,455.7z"/>
	<path fill="#1B2A54" d="M101.6,451.9c-0.1,0-0.2,0-0.3,0c-0.7,0.1-1.4,0.2-2.1,0.4c0.4,0.3,0.7,0.9,0.6,1.5c-0.1,0.5-0.3,1-0.4,1.5
		c0.9-0.2,1.9-0.3,2.8-0.5c0.2,0,0.4-0.1,0.5-0.2C103.8,453.9,103.1,451.8,101.6,451.9z"/>
	<path fill="#1B2A54" d="M226.9,392.4c2.8,21.1,6.4,42,10.7,62.9c0.1,0.7,0.3,1.4,0.4,2.1c0.4,1.9,3.3,1.1,2.9-0.8
		c-0.1-0.3-0.1-0.6-0.2-0.9c-4.5-21.5-8.2-43.1-11.1-64.8c-0.1-0.6-0.5-1.1-1-1.3C228.1,390.5,227.5,391.5,226.9,392.4z"/>
	<path fill="#1B2A54" d="M222.4,342.4c-0.1,0.1-0.2,0.1-0.3,0.2c-0.2,0.2-0.3,0.6-0.3,1c0.1,0.9,0.2,1.9,0.2,2.8
		c0.8,10.3,1.8,20.5,3,30.7c1-0.2,2-0.4,2.9-0.6c-1.2-10.8-2.3-21.6-3.1-32.4c0-0.2,0-0.3,0-0.5
		C224.7,342.3,223.2,341.9,222.4,342.4z"/>
	<path fill="#1B2A54" d="M225,377.2c-4.3,0.9-8.7,1.8-13,2.8c-0.7,0.1-1,0.6-1.1,1.1c0.6-0.2,1.4-0.1,1.9,0.5c0.3,0.4,0.5,0.7,0.8,1
		c6.2-1.3,12.4-2.6,18.5-3.9c-2.8,4.4-5.6,8.8-8.4,13.1c0.4,0.3,0.8,0.5,1.2,0.8c1.7,1,0.2,3.5-1.5,2.6c-0.4-0.2-0.7-0.4-1.1-0.6
		c0.2,1.2,2,1.9,2.8,0.6c0.6-0.9,1.1-1.8,1.7-2.7c0.6-1,1.2-1.9,1.8-2.9c2.6-4.1,5.2-8.2,7.8-12.3c0.7-1.2-0.5-2.5-1.7-2.2
		c-2.3,0.5-4.6,1-7,1.5C227,376.7,226,377,225,377.2z"/>
	<path fill="#1B2A54" d="M210.2,383.1c3.3,4.6,7.4,8.5,12.2,11.4c0.4,0.2,0.7,0.4,1.1,0.6c1.7,1,3.2-1.6,1.5-2.6
		c-0.4-0.2-0.8-0.5-1.2-0.8c-3.9-2.4-7.3-5.5-10.2-9.2c-0.3-0.3-0.5-0.7-0.8-1c-0.5-0.7-1.3-0.8-1.9-0.5
		C210.1,381.4,209.6,382.2,210.2,383.1z"/>
	<path fill="#1B2A54" d="M193,343.6c-1.3-1.1-2.7-1.9-4.1-2.5c-0.4,0.3-0.7,0.7-1.1,1.1c-1.3,1.4-3.3-0.5-2.3-1.9
		c-5.2-0.7-10.6,1.5-14,6.2c-0.2,0.3-0.3,0.5-0.3,0.8c-2.2,2.4-3.5,5.4-3.8,8.5c1.6-0.4,2.9,2,1.2,2.7c-0.4,0.2-0.8,0.3-1.2,0.5
		c0.3,2.4,1.3,4.9,3,7c1.6,2.1,3.7,3.6,6,4.5c0-0.1,0.1-0.2,0.1-0.3c0.6-1.8,3.5-1,2.9,0.8c0,0.1-0.1,0.3-0.1,0.4
		c5,1,10.5-0.5,14.3-4.4c2.6-2.6,4.1-6,4.5-9.4c-1.3,0-2.1-1.9-0.8-2.8c0.3-0.2,0.6-0.4,0.8-0.6C197.9,350.1,196.2,346.3,193,343.6z
		 M174,343.9c2.3-1.1,4.6-2.2,6.8-3.3c1.7-0.8,3.2,1.7,1.5,2.6c3.1-0.3,6.4,0.6,9,3c5.3,4.9,5.2,13.5,0.2,18.6
		c-5.1,5.2-13.9,5.1-18.6-0.6c-4.7-5.8-2.8-13.8,3.5-17.4c0.5-0.3,0.7-0.7,0.7-1.1c-0.6,0.3-1.1,0.5-1.7,0.8
		C173.8,347.3,172.3,344.7,174,343.9z"/>
	<path fill="#1B2A54" d="M179.8,354.9c-0.2-0.2-0.3-0.4-0.4-0.7c-0.3,0.5-0.3,1.2,0.2,1.8c2,2.4,4,4.8,6,7.2
		c1.2,1.5,3.3-0.6,2.1-2.1c-1.8-2.2-3.6-4.3-5.4-6.5l-0.4,0.4C181.3,355.5,180.4,355.5,179.8,354.9z"/>
	<path fill="#1B2A54" d="M179.8,352.8c-0.4,0.4-0.5,0.9-0.4,1.4c0.1,0.3,0.2,0.5,0.4,0.7c0.6,0.6,1.5,0.6,2.1,0l0.4-0.4l2.2-2.2
		c0.6-0.6,0.6-1.5,0-2.1c-0.6-0.6-1.5-0.6-2.1,0L179.8,352.8z"/>
	<path fill="#1B2A54" d="M175.5,346.4c0.6-0.3,1.1-0.5,1.7-0.8c1.7-0.8,3.4-1.7,5.1-2.5c0,0,0,0,0,0c1.7-0.8,0.2-3.4-1.5-2.6
		c-2.3,1.1-4.6,2.2-6.8,3.3C172.3,344.7,173.8,347.3,175.5,346.4z"/>
	<path fill="#1B2A54" d="M187.8,342.2c0.3-0.4,0.7-0.7,1.1-1.1c2-1.9,4.3-3.5,6.9-4.6c0.3-0.1,0.5-0.2,0.8-0.3
		c1.8-0.8,0.2-3.3-1.5-2.6c-0.3,0.1-0.7,0.3-1,0.5c-3.1,1.5-5.9,3.5-8.3,6.1c-0.1,0.1-0.1,0.1-0.1,0.2
		C184.6,341.6,186.6,343.5,187.8,342.2z"/>
	<path fill="#1B2A54" d="M209,349.7c0.1-1.1-0.9-2.2-2-1.6c-0.1,0-0.1,0.1-0.2,0.1c-2.8,1.9-5.7,3.9-8.5,5.8
		c-0.3,0.2-0.6,0.4-0.8,0.6c-1.3,0.9-0.5,2.9,0.8,2.8c0.2,0,0.5-0.1,0.7-0.3c2.1-1.4,4.3-2.9,6.4-4.3c0.7-0.5,1.4-1,2.1-1.4
		c0.3-0.2,0.6-0.4,0.8-0.6C208.7,350.5,208.9,350.1,209,349.7z"/>
	<path fill="#1B2A54" d="M137.9,374.3c0.5-0.2,1.1-0.4,1.6-0.6c2.6-4.6,8.7-6.4,13.2-8.4c4.9-2.2,9.9-4.3,14.8-6.5
		c0.4-0.2,0.8-0.3,1.2-0.5c1.7-0.7,0.4-3.1-1.2-2.7c-0.1,0-0.2,0.1-0.3,0.1c-6.9,3-13.9,6-20.8,9.1c-4.5,2-8.3,4.4-10.3,9.1
		c-0.1,0.1-0.1,0.3-0.1,0.4c0.1,0,0.2-0.1,0.2-0.1C136.8,373.8,137.4,373.9,137.9,374.3z"/>
	<path fill="#1B2A54" d="M146.4,374.5c1.8-0.6,1-3.5-0.8-2.9c-2,0.7-4.1,1.4-6.1,2.1c-0.5,0.2-1.1,0.4-1.6,0.6
		c0.7,0.6,0.9,1.9-0.1,2.5c-0.4,0.3-1.1,0.7-1.8,1.2c0.2,0,0.4,0,0.6-0.1L146.4,374.5z"/>
	<path fill="#1B2A54" d="M134.1,386.4c1.3-1.3,3.2,0.5,2.3,1.9c1.2-0.4,2.4-0.9,3.4-1.3c4.4-1.7,8.7-3.8,12.8-6.1
		c1.7-0.9,0.2-3.5-1.5-2.6c-4.1,2.3-8.4,4.3-12.8,6c-0.8,0.3-1.9,0.9-2.7,1c-1.1,0.1-3.2-0.6-3.5-2.1c-0.3-1.6,2.1-3.8,4-5.2
		c0.7-0.5,1.4-1,1.8-1.2c1-0.6,0.8-1.9,0.1-2.5c-0.4-0.4-1-0.5-1.6-0.1c-0.1,0-0.1,0.1-0.2,0.1c-3.6,2.3-11.1,10.1-5.4,13.8
		c0.6,0.4,1.3,0.6,2.1,0.7C132.9,388,133.4,387.1,134.1,386.4z"/>
	<path fill="#1B2A54" d="M143.6,393c0.2-1.9,3.2-1.9,3,0c0,0.1,0,0.1,0,0.2c4.2-2.2,8.3-4.6,12.5-6.9c1.7-0.9,0.2-3.5-1.5-2.6
		c-3.2,1.8-6.3,3.5-9.5,5.3c-1.5,0.8-2.9,1.7-4.5,2.5c-0.8,0.3-1.6,0.7-2.3,1c-2.8,1.2-4.4-0.1-5.1-3.9c0.1-0.1,0.1-0.2,0.2-0.2
		c0.9-1.4-1-3.2-2.3-1.9c-0.7,0.8-1.2,1.6-1.4,2.4c-0.8,3.1,1.3,6.3,5,6.9c2.1,0.3,4.1-0.2,5.9-1C143.5,394.1,143.5,393.6,143.6,393
		z"/>
	<path fill="#1B2A54" d="M176.6,370c0,0.1-0.1,0.2-0.1,0.3c-2.1,6.1-5.3,11.7-9.6,16.4c-2.1,2.3-4.5,4.4-7,6.2
		c-1.9,1.3-14.2,8.9-13.3,0.2c0-0.1,0-0.1,0-0.2c0.2-1.9-2.8-1.9-3,0c-0.1,0.6-0.1,1.1,0,1.7c0.4,2.7,2.4,4.8,5.2,5.4
		c4.6,1,9.6-2.4,13.1-5c8.2-6,14.1-14.3,17.4-23.9c0-0.1,0.1-0.3,0.1-0.4C180.1,369,177.2,368.2,176.6,370z"/>
	<path fill="#1B2A54" d="M4.3,449.8c0.4,0.1,0.7,0.2,1.1,0.3c0-35.5,5.3-70.8,9.5-106c4.4-36.6,10-73.4,25.1-107.3
		c7.7-17.2,17.6-33.3,30.2-47.3c0.3-0.3,0.6-0.7,0.9-1c1.3-1.4-0.8-3.6-2.1-2.1c-0.1,0.1-0.2,0.2-0.3,0.3
		c-49.4,54.5-54.3,132-62.1,201.7c-2.4,20.9-4.2,41.9-4.1,62.9c0,0.9,0.7,1.4,1.5,1.4c-0.1,0-0.2-0.1-0.3-0.1
		C1.7,452,2.5,449.1,4.3,449.8z"/>
	<path fill="#1B2A54" d="M59,310.8c0.3-1.5-1.5-2.3-2.4-1.6c-0.2,0.2-0.4,0.4-0.5,0.8c-9,47.7-20.4,94.8-34.3,141.4
		c0.4-0.1,0.9-0.1,1.3-0.2c0.8-0.2,1.4,0.2,1.7,0.8c12.7-42.8,23.4-86,32-129.8C57.5,318.4,58.2,314.6,59,310.8z"/>
	<path fill="#1B2A54" d="M5.1,451.1c0.2-0.5,0.6-0.7,1-0.8c-0.2-0.1-0.5-0.1-0.7-0.2c-0.4-0.1-0.7-0.2-1.1-0.3
		c-1.8-0.6-2.6,2.3-0.8,2.9c0.1,0,0.2,0.1,0.3,0.1c0.1,0.1,0.3,0.1,0.4,0.1C4.6,452.3,4.8,451.7,5.1,451.1z"/>
	<path fill="#1B2A54" d="M23.1,451.2c-0.4,0.1-0.9,0.1-1.3,0.2c-5,0.8-9.9,0.5-14.7-0.8c0.6,0.4,1,1.2,0.6,2
		c-0.2,0.4-0.3,0.7-0.5,1.1c4.9,1.2,9.8,1.4,14.8,0.6c-0.1-0.2-0.1-0.4-0.2-0.6c-0.6-1.8,2.3-2.6,2.9-0.8c0.1,0.2,0.1,0.3,0.2,0.5
		c0.2-0.4,0.2-1-0.1-1.5C24.5,451.4,23.9,451,23.1,451.2z"/>
	<path fill="#1B2A54" d="M12.5,509.1c-0.1-0.9,0.5-1.3,1.2-1.4c0-0.1,0-0.2,0-0.3c-11.5-15.2-14-36-6.5-53.6
		c0.2-0.4,0.3-0.7,0.5-1.1c0.4-0.8,0-1.6-0.6-2c-0.3-0.2-0.7-0.3-1-0.3c-0.4,0-0.8,0.3-1,0.8c-0.3,0.6-0.5,1.2-0.8,1.8
		c-7.9,19.2-4.8,41.5,8.2,57.8c0.3,0.4,0.7,0.5,1.1,0.5C12.8,510.6,12.6,510.2,12.5,509.1z"/>
	<path fill="#1B2A54" d="M15.5,507.9c-1.9-0.3-1.1-3.2,0.8-2.9c0.1,0,0.1-0.2,0.2-0.4c-0.5-1.2-1.2-2.4-1.9-3.5
		c-3.4-5.8-4.8-12.3-4.4-19c0.1-1.9-2.9-1.9-3,0c-0.2,4.3,0.1,8.5,1.4,12.6c0.8,2.6,5,9,5.2,12.7c0,0.1,0,0.2,0,0.3
		c-0.7,0.1-1.2,0.5-1.2,1.4c0.1,1.1,0.3,1.5,1.2,2.2c0,0,0.1,0.1,0.1,0.1c0.7,0.5,1.6,0.1,2.1-0.5c0.8-1,1.1-2,1.2-2.9
		C16.6,507.9,16.1,508,15.5,507.9z"/>
	<path fill="#1B2A54" d="M14.5,475.7l1.2,13.7c0.1,1.2,1.1,12.8,0.8,15.2c0,0.3-0.1,0.5-0.2,0.4c-1.9-0.3-2.7,2.6-0.8,2.9
		c0.6,0.1,1.1,0.1,1.6,0c3.5-0.6,2.7-5.3,2.4-8.6c-0.7-8-1.4-16-2-24.1c0,0-0.1-0.1-0.1-0.1C17.5,476.9,15.1,477,14.5,475.7z"/>
	<path fill="#1B2A54" d="M14.3,473.5l0.1,0.9c0.2-1.2,0.9-2,1.9-2.2C15.3,471.8,14.2,472.3,14.3,473.5z"/>
	<path fill="#1B2A54" d="M22,490.4c0.5-0.7,1.3-0.8,1.9-0.5c0-5.3-0.5-12-3.4-16.1c-1-1.5-2.9-2-4.3-1.6c-1,0.3-1.7,1-1.9,2.2
		c0,0.2,0,0.5,0,0.8c0,0.2,0.1,0.4,0.1,0.5c0.6,1.4,3,1.2,2.9-0.5c0,0,0.1,0.1,0.1,0.1c0.7,0.5,1.1,1.1,1.3,1.9
		c0.2,0.6,0.4,1.3,0.6,1.9c0.4,1.3,0.7,2.6,0.9,4c0.6,3,0.7,6,0.6,9.1c0,0.6,0.2,1,0.6,1.2C21.2,492.4,21.4,491.3,22,490.4z"/>
	<path fill="#1B2A54" d="M21.8,453.7c0.1,0.2,0.1,0.4,0.2,0.6c2,6,3.5,12.2,4.1,18.6c0.5,5.6,1.5,14.2-1.5,18.9
		c0.6-0.9,0.1-1.7-0.7-2c-0.6-0.3-1.4-0.2-1.9,0.5c-0.6,0.9-0.8,2-0.5,2.9c0.3,0.9,1,1.7,2.2,2c3.5,0.9,4.8-3,5.3-5.6
		c1.9-11.9-0.2-24.9-4.1-36.2c-0.1-0.2-0.1-0.3-0.2-0.5C24,451.1,21.1,451.9,21.8,453.7z"/>
	<path fill="#1B2A54" d="M203.7,426.8c-0.2-0.1-0.4-0.1-0.7-0.1c-31.1,2.5-62.2,2.7-93.3,0.8c-0.2,0-0.5,0-0.7,0
		c-1.9-0.1-1.9,2.9,0,3c0,0,0.1,0,0.1,0c10.1,0.6,20.1,1,30.2,1.2v-0.5c0-1.9,3-1.9,3,0v0.5c4.3,0.1,8.6,0.1,12.9,0.1
		c0-0.4,0-0.8,0-1.2c0-1.9,3-1.9,3,0c0,0.4,0,0.8,0,1.1c14.9-0.2,29.8-0.8,44.7-2c0.1,0,0.2,0,0.3-0.1
		C204.7,429.2,204.8,427.3,203.7,426.8z"/>
	<path fill="#1B2A54" d="M58.3,524.2c0-0.3,0-0.6,0-0.9c0.6-22.2,1.8-44.4,3.4-66.6c0-0.3,0-0.7,0.1-1c0.1-1.9-2.9-1.9-3,0
		c0,0.2,0,0.5-0.1,0.7c-6.1,80-5.1,160.5,3.2,240.3c2.3,22.3,5.2,44.4,8.6,66.6c0,0.2,0.1,0.3,0.1,0.4c0.1-0.6,0.2-1.3,0.3-1.9
		c0.2-1.2,1.5-1.3,2.3-0.7c-9.6-63-14.7-126.7-15.3-190.4C57.8,555.2,57.9,539.7,58.3,524.2z"/>
	<path fill="#1B2A54" d="M127.4,510.1c0.6-1.8,3.4-1.1,2.9,0.8c0,0.1-0.1,0.3-0.1,0.4c7.2-1.1,14.5-2.3,21.7-3.4c0-0.1,0-0.1,0-0.2
		c-0.2-1.8,2.5-1.9,2.9-0.3c5.9-0.9,11.8-1.9,17.6-2.8c1.9-0.3,1.1-3.2-0.8-2.9c-16.9,2.7-33.8,5.3-50.7,8c-1.9,0.3-1.1,3.2,0.8,2.9
		c1.7-0.3,3.4-0.5,5.1-0.8C127,511.3,127.2,510.7,127.4,510.1z"/>
	<path fill="#1B2A54" d="M96.9,751.1c12.7-60.7,13.2-123.3,21.5-184.6c2.5-18.7,6.3-37.2,11.7-55.2c0-0.1,0.1-0.3,0.1-0.4
		c0.6-1.9-2.3-2.6-2.9-0.8c-0.2,0.6-0.3,1.1-0.5,1.7c-8.9,30.3-12.7,61.5-15.5,92.9c-2.8,31.9-5.8,63.8-9.6,95.5
		c-2.1,17.5-4.5,35-8.2,52.2c-0.1,0.4,0,0.7,0.1,1c0.1-0.8,0.2-1.5,0.4-2.3C94.4,749.6,96.5,749.9,96.9,751.1z"/>
	<path fill="#1B2A54" d="M151.9,507.7c0,0.1,0,0.1,0,0.2c4.8,41.3,9.6,82.7,12,124.2c2.4,41.9,1.2,83.6-1.4,125.5
		c0,0.5,0.2,0.9,0.5,1.1c-0.1-0.8,0.4-1.7,1.4-1.8c0.4,0,0.8,0,1.1-0.1c2.6-41.6,3.8-83,1.3-124.7c-2.4-41.6-7.2-83-12.1-124.4
		c0-0.1,0-0.2-0.1-0.3C154.3,505.8,151.7,505.9,151.9,507.7z"/>
	<path fill="#1B2A54" d="M193.2,758.9c0.4-0.1,0.7-0.5,0.8-1c13-77.3,22.9-155.3,26.3-233.7c1-22.1,1.4-44.2,1.3-66.4
		c0-1.9-3-1.9-3,0c0.5,78.2-6.3,156.2-17.2,233.6c-3.1,21.9-6.5,43.8-10.2,65.7c0,0.2,0,0.3,0,0.5c0.3,0,0.5,0,0.8,0.1
		C192.6,757.8,193.1,758.3,193.2,758.9z"/>
	<path fill="#1B2A54" d="M158.2,430.6c0-1.9-3-1.9-3,0c0,0.4,0,0.8,0,1.2c0.4,17.4,0.8,34.9,1.2,52.3c0,1.9,3,1.9,3,0
		c-0.4-17.5-0.8-34.9-1.2-52.4C158.2,431.3,158.2,430.9,158.2,430.6z"/>
	<path fill="#1B2A54" d="M139.9,487.7c4.7,0.8,9.3,0.1,13.4-2.3c1.7-0.9,0.2-3.5-1.5-2.6c-3.4,1.9-7.2,2.6-11.1,2
		C138.8,484.5,138,487.4,139.9,487.7z"/>
	<path fill="#1B2A54" d="M139.3,431.1v0.5v8.4c0,1.9,3,1.9,3,0v-8.4v-0.5C142.3,429.2,139.3,429.2,139.3,431.1z"/>
	<path fill="#1B2A54" d="M139.8,452.9c-0.2,1.9-0.4,3.7-0.6,5.6c-0.2,1.9,2.8,1.9,3,0c0.2-1.9,0.4-3.7,0.6-5.6
		C143,450.9,140,451,139.8,452.9z"/>
	<path fill="#1B2A54" d="M140,466.8c-0.2,3-0.3,5.9-0.5,8.9c-0.1,1.9,2.9,1.9,3,0c0.2-3,0.3-5.9,0.5-8.9
		C143.1,464.9,140.1,464.9,140,466.8z"/>
	<path fill="#1B2A54" d="M99.7,453.8c0.2-0.7-0.1-1.2-0.6-1.5c-0.7-0.5-1.8-0.5-2.2,0.4c-0.1,0.1-0.1,0.2-0.1,0.4
		c-0.2,0.9-0.5,1.9-0.8,2.8c-3.2,10.2-9.9,18.7-19.1,24.1c-0.1,0-0.2,0.1-0.2,0.1c-0.1,1.2-0.2,2.4-0.3,3.6c0,0,0.1,0,0.1-0.1
		c0,0,0,0,0,0c11.2-5.9,19.4-16,22.7-28.2C99.5,454.8,99.6,454.3,99.7,453.8z"/>
	<path fill="#1B2A54" d="M78,457.3c-0.5-0.3-1.2-0.3-1.7,0c-0.4,0.2-0.7,0.6-0.7,1.2c-2.8,33.3-5.6,66.6-8.4,99.9
		c-0.2,2-0.3,3.9-0.5,5.9c-0.1,0.6,0.2,1,0.6,1.2c0.8,0.5,2.3,0.1,2.4-1.2c2.3-26.9,4.5-53.8,6.8-80.7c0.1-1.2,0.2-2.4,0.3-3.6
		c0.6-7.2,1.2-14.3,1.8-21.5C78.6,457.9,78.3,457.5,78,457.3z"/>
	<path fill="#1B2A54" d="M68.8,577.7c0,0.8,0,1.5,0,2.3c-0.4,24,0.4,48,2.3,71.9c0.2,1.9,3.2,1.9,3,0c-2-24.3-2.7-48.6-2.3-73
		c0-0.4,0-0.8,0-1.2C71.9,575.8,68.9,575.8,68.8,577.7z"/>
	<path fill="#1B2A54" d="M70.2,667.4c1.6,29.3,3.1,58.7,4.7,88c0.1,1.9,3.1,1.9,3,0c-1.6-29.3-3.1-58.7-4.7-88
		C73.1,665.5,70.1,665.5,70.2,667.4z"/>
	<path fill="#1B2A54" d="M73.9,762.6c0,0.1,0,0.2,0,0.4c0.5,0.1,1,0.4,1.1,1.1c0,0.2,0.1,0.4,0.1,0.5l18-0.1
		c-0.1-0.1-0.2-0.2-0.3-0.3c-0.8-0.9-0.3-2,0.5-2.4c0-0.1,0-0.2,0-0.3l-19.6,0.1C73.9,761.9,74,762.2,73.9,762.6z"/>
	<path fill="#1B2A54" d="M96.5,763.6c0.2-0.5,0.1-1-0.1-1.4c0,0.4-0.1,0.7-0.4,0.9C96.2,763.3,96.3,763.4,96.5,763.6z"/>
	<path fill="#1B2A54" d="M95,762.1c0.3,0.3,0.7,0.7,1,1c0.2-0.2,0.4-0.5,0.4-0.9c0,0,0-0.1,0-0.1c-0.2-3.4,0-6.8,0.6-10.1
		c0.1-0.3,0-0.6-0.1-0.8c-0.5-1.2-2.5-1.5-2.8,0c-0.2,0.8-0.3,1.5-0.4,2.3c-0.4,2.7-0.5,5.4-0.4,8.1c0,0.1,0,0.2,0,0.3
		C93.9,761.6,94.5,761.6,95,762.1z"/>
	<path fill="#1B2A54" d="M164.4,756.9c-1,0.1-1.5,1-1.4,1.8c0.1,0.6,0.4,1.1,1,1.2c0.1-0.5,0.2-1,0.4-1.5c0.5-1.9,3.4-1.1,2.9,0.8
		c-0.1,0.2-0.1,0.4-0.1,0.6c0.3,0,0.6,0,0.8-0.1c0.1-0.9,0.8-1.7,1.8-1.3c1,0.4,1.9,0.8,2.8,1.2c5.8,0,11.5,0.4,17.2,1
		c0-0.2-0.1-0.4-0.1-0.6c-0.3-1.9,2.6-2.7,2.9-0.8c0.1,0.4,0.2,0.8,0.3,1.2c0.3-0.3,0.4-0.9,0.3-1.3c-0.1-0.6-0.6-1.2-1.4-1.3
		c-0.3,0-0.5,0-0.8-0.1c-8.5-0.9-16.9-1.4-25.5-0.8C165.2,756.9,164.8,756.9,164.4,756.9z"/>
	<path fill="#1B2A54" d="M71,761.8c-0.1,0.6-0.2,1.3-0.3,1.9c-1.1,7.5-2.3,15.8-1.1,23.2c1.1,7.4,7.8,9.5,14.3,10.5
		c0.1,0,0.1,0,0.1,0c-0.6-1-1.1-2.1-1.5-3.3c-2.5-0.4-5-1.1-7-2.7c-1.7-1.3-2.5-3-2.9-4.9c-1-0.9-1.9-1.9-2.8-2.9
		c-1.3-1.5,0.9-3.6,2.1-2.1c0.2,0.2,0.3,0.3,0.5,0.5c0-0.3,0-0.7,0-1c0-4.4,0.3-8.9,0.8-13.3c-0.5-1-0.9-2-1.1-3.1
		c-0.3-1.2,0.8-2,1.8-1.9c0-0.1,0-0.2,0-0.4c0.1-0.4,0-0.7-0.2-1c-0.1-0.2-0.3-0.4-0.4-0.5C72.5,760.5,71.2,760.6,71,761.8z"/>
	<path fill="#1B2A54" d="M137.5,803.4c-0.1-0.4-0.2-0.7-0.2-1.1c-8.7,5.3-18.8,5.7-28.6,3.9c-7.9-1.5-20.3-4-23.2-12.5
		c-0.3-0.2-0.7-0.5-1-0.7c-0.3,0.8-1.2,1.4-2.1,0.9c0,0.1,0.1,0.2,0.1,0.3c0.4,1.2,0.9,2.3,1.5,3.3c4,6.4,12.9,9,20.2,10.7
		c11.8,2.8,24.4,3,35-3.7c0.2-0.1,0.3-0.3,0.5-0.4C139,804.7,137.7,804.6,137.5,803.4z"/>
	<path fill="#1B2A54" d="M108.5,775.2c1.4,0.8,2.8,1.5,4.2,2.3c1-0.5,2.1-1,3.2-1.4c-1.2-0.7-2.5-1.4-3.7-2
		c-0.1,0.1-0.3,0.2-0.5,0.3C110.6,774.6,109.6,774.9,108.5,775.2z"/>
	<path fill="#1B2A54" d="M125.7,784.5c-0.3,0.1-0.5,0.2-0.8,0.3c4.5,3.3,8.3,7.1,10.6,12.1c0.2-0.1,0.3-0.1,0.5-0.2
		c1.8-0.7,2.6,2.2,0.8,2.9c-0.1,0-0.1,0.1-0.2,0.1c0.3,0.8,0.5,1.7,0.7,2.6c0.1,0.4,0.2,0.7,0.2,1.1c0.2,1.2,1.4,1.3,2.2,0.8
		c0.5-0.3,0.8-0.9,0.6-1.5c-1.5-9.2-7-15.2-13.8-20C126.8,783.3,126.6,784.2,125.7,784.5z"/>
	<path fill="#1B2A54" d="M101,770.8c1.3,0.9,2.7,1.7,4,2.5c1.2-0.4,2.4-0.8,3.6-1.2c-1.5-0.9-3-1.8-4.5-2.7
		C103.1,769.9,102,770.3,101,770.8z"/>
	<path fill="#1B2A54" d="M116,779.3c2,1.1,4,2.3,5.9,3.5c1-0.4,2-0.8,3-1.2c0.1,0,0.2,0,0.3-0.1c-1.9-1.3-3.9-2.4-5.9-3.6
		C118.2,778.4,117.1,778.9,116,779.3z"/>
	<path fill="#1B2A54" d="M95,762.1c-0.5-0.5-1.2-0.6-1.7-0.3c-0.8,0.4-1.3,1.5-0.5,2.4c0.1,0.1,0.2,0.2,0.3,0.3c1.5,1.6,3.2,3,5,4.3
		c1-0.5,2.1-0.9,3.1-1.4c-1.7-1.2-3.3-2.5-4.7-3.8c-0.2-0.1-0.3-0.3-0.5-0.5C95.7,762.8,95.3,762.5,95,762.1z"/>
	<path fill="#1B2A54" d="M98.1,768.8c-3.5,1.6-7.1,3.2-10.6,4.8c-1.8,0.8-0.2,3.4,1.5,2.6c4-1.8,8-3.6,12-5.4c1-0.5,2.1-0.9,3.1-1.4
		c0.5-0.2,1-0.5,1.5-0.7c1.8-0.8,0.2-3.4-1.5-2.6c-1,0.4-2,0.9-2.9,1.3C100.2,767.9,99.1,768.4,98.1,768.8z"/>
	<path fill="#1B2A54" d="M105,773.3c-3.5,1.3-6.8,2.9-10,4.9c-1.6,1-0.1,3.6,1.5,2.6c3.8-2.3,7.8-4.1,12-5.5c1-0.3,2.1-0.6,3.1-0.9
		c0.2-0.1,0.4-0.1,0.5-0.3c1.1-0.8,0.3-3.1-1.3-2.6c-0.8,0.2-1.5,0.4-2.3,0.6C107.4,772.4,106.2,772.8,105,773.3z"/>
	<path fill="#1B2A54" d="M112.8,777.5c-3.2,1.5-6.4,3.1-9.6,4.8c-1.7,0.9-0.2,3.5,1.5,2.6c3.7-2,7.5-3.9,11.3-5.6
		c1.1-0.5,2.1-0.9,3.2-1.4c0.6-0.2,1.2-0.5,1.7-0.7c1.8-0.7,1-3.6-0.8-2.9c-1.4,0.6-2.9,1.2-4.3,1.8
		C114.9,776.6,113.8,777.1,112.8,777.5z"/>
	<path fill="#1B2A54" d="M121.9,782.8c-3.1,1.3-6.1,2.7-9,4.3c-1.7,0.9-0.2,3.5,1.5,2.6c3.4-1.9,6.9-3.5,10.5-4.8
		c0.3-0.1,0.5-0.2,0.8-0.3c0.9-0.3,1.1-1.2,1-1.9c-0.2-0.7-0.7-1.2-1.5-1c-0.1,0-0.2,0-0.3,0.1C123.9,782,122.9,782.4,121.9,782.8z"
		/>
	<path fill="#1B2A54" d="M80.3,788.8c0-0.1,0-0.2,0-0.3c0,0,0,0,0,0c-3-1.6-5.6-3.7-7.9-6.2c-0.2-0.2-0.3-0.3-0.5-0.5
		c-1.3-1.5-3.4,0.7-2.1,2.1c0.9,1,1.8,2,2.8,2.9c2.5,2.2,5.3,4.1,8.3,5.4C80.5,791.2,80.2,790,80.3,788.8z"/>
	<path fill="#1B2A54" d="M166.5,786.8c0.2,0,0.4,0.1,0.7,0.1c-0.5-1.9-0.9-3.8-1.1-5.8c-0.4,0-0.7-0.1-1.1-0.1c-1.9-0.2-1.9-3.2,0-3
		c0.2,0,0.5,0,0.7,0.1c-0.5-6.1,0-12.3,1.6-18.4c0-0.2,0.1-0.4,0.1-0.6c0.5-1.9-2.4-2.7-2.9-0.8c-0.1,0.5-0.3,1-0.4,1.5
		c-2.3,9.3-2.2,18.8,0.2,28.1c0.1,0.3,0.2,0.5,0.3,0.6C164.4,787.7,165.2,786.5,166.5,786.8z"/>
	<path fill="#1B2A54" d="M191.4,790.6c-0.1-0.6-0.2-1.2-0.3-1.9c-8.1,0.5-16.1-0.1-24-1.9c-0.2,0-0.4-0.1-0.7-0.1
		c-1.2-0.3-2,0.9-1.8,1.8c0.1,0.5,0.4,0.9,1,1c8.8,2,17.7,2.7,26.7,2C191.9,791.6,191.5,791.3,191.4,790.6z"/>
	<path fill="#1B2A54" d="M193.2,791.6c0.2,0,0.4,0,0.6,0c1.8-0.2,1.9-2.8,0.3-3c0.1,0.4,0.1,0.8,0.2,1.2
		C194.4,790.8,193.8,791.4,193.2,791.6z"/>
	<path fill="#1B2A54" d="M191.5,783.2c-0.2,0-0.5,0-0.7-0.1c0,1.9,0.1,3.7,0.3,5.6c0.1,0.6,0.2,1.2,0.3,1.9c0.1,0.6,0.5,0.9,0.9,1
		c0.3,0.1,0.6,0,0.8-0.1c0.7-0.2,1.3-0.9,1.1-1.8c-0.1-0.4-0.1-0.8-0.2-1.2c-0.1-1-0.2-2-0.3-3C193,784.9,192.2,784.1,191.5,783.2z"
		/>
	<path fill="#1B2A54" d="M191.5,779.8c-0.3,0-0.6,0.2-0.8,0.4c0.2,0,0.4,0,0.5,0C191.3,780.1,191.4,779.9,191.5,779.8z"/>
	<path fill="#1B2A54" d="M257.5,791.3c-0.1-0.4-0.3-0.8-0.5-1.3c-0.3-0.1-0.6-0.2-0.9-0.1c-11.5,1.8-23.2,2.2-34.8,1.3
		c-8.5-0.7-18.6-1.8-25.3-7.6c-0.8-0.2-1.6-0.5-2.3-0.7c-0.2,0.3-0.6,0.5-1.1,0.4c-0.4,0-0.7-0.1-1.1-0.1c0.7,0.8,1.5,1.6,2.3,2.3
		c5.9,5.2,13.9,7,21.8,8c13.7,1.7,27.6,1.3,41.3-0.8c0.6-0.1,0.9-0.4,1-0.8C257.8,791.8,257.6,791.6,257.5,791.3z"/>
	<path fill="#1B2A54" d="M217.4,771.1c0.4,0,0.9,0,1.2,0.1c2.3,0.2,4.7,0.4,7.1,0.7c0.3-1,0.7-2,1.1-2.9c-2.7-0.3-5.4-0.5-8-0.7
		C218.2,769.1,217.7,770.1,217.4,771.1z"/>
	<path fill="#1B2A54" d="M236.3,773.9c6.7,1.8,12.9,4.9,17.2,10.2c0.2,0,0.5-0.1,0.7-0.1c1.7-0.3,2.6,2.2,1.2,2.8
		c0.6,1,1.2,2.1,1.6,3.3c0.2,0.4,0.3,0.8,0.5,1.3c0.1,0.3,0.3,0.5,0.5,0.7c1,0.8,3,0,2.4-1.5c-3.6-10.2-12.4-16.4-22.4-19.4
		C237.2,771.9,236.7,772.9,236.3,773.9z"/>
	<path fill="#1B2A54" d="M209.6,770.8c1.6,0.1,3.2,0.2,4.6,0.2c0.3-1,0.6-2.1,1.1-3c-0.2,0-0.4,0-0.7,0c-1.3-0.1-2.9-0.1-4.5-0.2
		C210,768.7,209.8,769.8,209.6,770.8z"/>
	<path fill="#1B2A54" d="M228.7,772.3c1.6,0.2,3.2,0.5,4.7,0.9c0.3-1,0.8-2,1.4-2.9c-1.6-0.4-3.3-0.7-4.9-0.9
		C229.5,770.3,229,771.3,228.7,772.3z"/>
	<path fill="#1B2A54" d="M189.8,759.9c0,0.2,0.1,0.4,0.1,0.6c1.5,7.1,9.1,9.3,16.7,10c0.1-0.7,0.3-1.4,0.4-2.1
		c-0.2-0.3-0.3-0.6-0.2-1c-5.9-0.5-12.2-2-13.8-7.2c-0.1-0.4-0.2-0.8-0.3-1.2C192.4,757.2,189.5,758,189.8,759.9z"/>
	<path fill="#1B2A54" d="M207,768.5c-0.1,0.7-0.3,1.4-0.4,2.1c-0.2,1.1-0.4,2.2-0.6,3.3c-0.3,1.9,2.5,2.7,2.9,0.8
		c0.2-1.3,0.5-2.6,0.7-3.9c0.2-1,0.4-2.1,0.6-3.1c0-0.1,0-0.1,0-0.2c0.1-0.7-0.2-1.3-0.7-1.7c-0.1,0-0.1-0.1-0.2-0.1
		c-0.5-0.3-1.1-0.2-1.6,0.3l-0.5,0.6c-0.2,0.3-0.3,0.5-0.4,0.8C206.8,767.8,206.9,768.2,207,768.5z"/>
	<path fill="#1B2A54" d="M214.3,771c-0.3,1.1-0.4,2.2-0.4,3.3c0,1.9,3,1.9,3,0c0-1.1,0.2-2.2,0.5-3.2c0.3-1,0.8-2,1.4-2.9
		c0.1-0.2,0.3-0.4,0.4-0.6c1.1-1.6-1.5-3.1-2.6-1.5c-0.5,0.6-0.8,1.3-1.2,1.9C214.9,768.9,214.6,770,214.3,771z"/>
	<path fill="#1B2A54" d="M225.7,771.9c-0.4,1.3-0.7,2.5-1,3.9c-0.3,1.9,2.6,2.7,2.9,0.8c0.2-1.5,0.6-2.9,1.1-4.2
		c0.3-1,0.8-2,1.2-2.9c0.1-0.3,0.3-0.6,0.4-0.9c0.9-1.7-1.7-3.2-2.6-1.5c-0.4,0.7-0.7,1.3-1,2C226.4,769.9,226,770.9,225.7,771.9z"
		/>
	<path fill="#1B2A54" d="M233.4,773.2c-0.3,0.9-0.5,1.9-0.5,3c0,1.9,3,1.9,3,0c0-0.8,0.1-1.5,0.4-2.3c0.3-1,0.9-2,1.7-2.8
		c0.2-0.2,0.5-0.5,0.8-0.7c1.5-1.1,0-3.7-1.5-2.6c-1,0.7-1.8,1.5-2.4,2.4C234.2,771.2,233.8,772.1,233.4,773.2z"/>
	<path fill="#1B2A54" d="M192.1,782.4c-1.1-0.3-1.2-1.4-0.9-2.2c-0.2,0-0.4,0-0.5,0c-8.4-0.7-16.7-1.4-25.1-2.1
		c-0.2,0-0.5,0-0.7-0.1c-1.9-0.2-1.9,2.8,0,3c0.4,0,0.7,0.1,1.1,0.1c8.3,0.7,16.6,1.4,24.8,2c0.2,0,0.5,0,0.7,0.1
		c0.4,0,0.7,0.1,1.1,0.1c0.5,0,0.9-0.1,1.1-0.4C193.2,782.7,192.6,782.6,192.1,782.4z"/>
	<path fill="#1B2A54" d="M169,761.2c3.1,1.1,6,2.8,8.5,4.9c1.5,1.2,3.6-0.9,2.1-2.1c-2.2-1.8-4.5-3.3-7-4.4
		c-0.9-0.4-1.9-0.8-2.8-1.2c-1.1-0.4-1.8,0.4-1.8,1.3C168,760.3,168.3,761,169,761.2z"/>
	<path fill="#1B2A54" d="M182.6,771.4c0.6,0.6,1.5,0.6,2.1,0c0.6-0.6,0.6-1.5,0-2.1c-0.6-0.6-1.2-1.3-1.9-1.9
		c-0.6-0.6-1.5-0.6-2.1,0c-0.6,0.6-0.6,1.5,0,2.1C181.3,770.1,182,770.7,182.6,771.4z"/>
	<path fill="#1B2A54" d="M187.7,777c0.5,0.6,1.6,0.5,2.1,0c0.6-0.6,0.5-1.5,0-2.1l-1.6-2.1c-0.5-0.6-1.6-0.5-2.1,0
		c-0.6,0.6-0.5,1.5,0,2.1C186.7,775.6,187.2,776.3,187.7,777z"/>
	<path fill="#1B2A54" d="M76.2,770c0.7-0.4,1-1.4,0.5-2.1c-0.7-1-1.2-2.1-1.6-3.3c0-0.2-0.1-0.4-0.1-0.5c-0.1-0.7-0.6-1-1.1-1.1
		c-0.9-0.1-2,0.6-1.8,1.9c0.2,1.1,0.6,2.1,1.1,3.1c0.3,0.5,0.6,1,0.9,1.5C74.6,770.1,75.4,770.4,76.2,770z"/>
	<path fill="#1B2A54" d="M77.5,777.7c0.5,1.9,3.4,1.1,2.9-0.8c-0.2-0.9-0.5-1.7-0.7-2.6c-0.5-1.9-3.4-1.1-2.9,0.8
		C77,776,77.2,776.9,77.5,777.7z"/>
	<path fill="#1B2A54" d="M81.8,787.3c0.5,0,0.9,0.3,1.2,0.6c0-0.1,0-0.2,0-0.3c-0.2-2-0.7-3.9-1.6-5.7c-0.9-1.7-3.4-0.2-2.6,1.5
		c0.6,1.3,1.1,2.7,1.2,4.2c0,0.3,0.1,0.6,0.3,0.8c0,0,0,0,0,0C80.5,787.8,81,787.3,81.8,787.3z"/>
	<path fill="#1B2A54" d="M80.9,790.2c-1.5-1.3,0.7-3.4,2.1-2.1c0,0,0.1,0.1,0.1,0.1c0-0.1-0.1-0.1-0.1-0.2c-0.3-0.4-0.8-0.6-1.2-0.6
		c-0.7,0-1.3,0.5-1.5,1.2c0,0.1,0,0.2,0,0.3c-0.1,1.2,0.2,2.3,0.7,3.4c0.3,0.5,0.6,1,1,1.5c0.1,0.1,0.3,0.2,0.4,0.3
		c0.8,0.4,1.8-0.1,2.1-0.9C83.3,792.1,82.1,791.2,80.9,790.2z"/>
	<path fill="#1B2A54" d="M83.1,788.1c0,0-0.1-0.1-0.1-0.1c-1.5-1.2-3.6,0.9-2.1,2.1c1.2,1,2.4,1.9,3.6,2.8c0.3,0.2,0.6,0.5,1,0.7
		c14.9,10.2,34.1,12.6,51.1,6c0.1,0,0.1-0.1,0.2-0.1c1.8-0.7,1-3.6-0.8-2.9c-0.2,0.1-0.3,0.1-0.5,0.2
		C117.9,803.7,97.6,800.4,83.1,788.1z"/>
	<path fill="#1B2A54" d="M192.9,779.5c-0.6-0.2-1.1,0-1.4,0.3c-0.1,0.1-0.2,0.2-0.3,0.4c-0.4,0.8-0.2,1.9,0.9,2.2
		c0.5,0.2,1.1,0.3,1.6,0.5c0.8,0.2,1.6,0.5,2.3,0.7c19.2,5.5,39.2,6.6,58.9,3.3c0.1,0,0.3-0.1,0.4-0.1c1.4-0.6,0.6-3.1-1.2-2.8
		c-0.2,0-0.5,0.1-0.7,0.1C233.2,787.4,212.5,785.8,192.9,779.5z"/>
	<path fill="#1B2A54" d="M182.4,137.7c0.6-0.6,0.5-1.5,0-2.1c-0.6-0.7-1.1-1.4-1.7-2.1c-0.5-0.6-1.6-0.5-2.1,0
		c-0.6,0.6-0.5,1.5,0,2.1c0.6,0.7,1.1,1.4,1.7,2.1C180.8,138.3,181.9,138.2,182.4,137.7z"/>
	<path fill="#1B2A54" d="M188.8,145c0.1-0.8-0.7-1.5-1.5-1.5c-0.9,0-1.4,0.7-1.5,1.5c-0.2,1.9,0.3,3.8,1.2,5.4
		c0.1,0.1,0.1,0.3,0.2,0.4c1.1,1.6,3.7,0.1,2.6-1.5c-0.2-0.3-0.4-0.7-0.6-1C188.8,147.2,188.7,146.1,188.8,145z"/>
	<path fill="#1B2A54" d="M191.9,140.2c-0.8,0.2-1.2,1-1,1.8c0.1,0.7,0.3,1.4,0.4,2.1c0.1,0.5,0.4,0.8,0.9,1c0.3,0.1,0.7,0.2,1,0.1
		c0.8-0.2,1.2-1,1-1.8c0-0.2-0.1-0.4-0.1-0.6c-0.1-0.5-0.2-1-0.3-1.5C193.6,140.4,192.6,140,191.9,140.2z"/>
	<path fill="#1B2A54" d="M125.8,103.7l-2,3.9c-0.9,1.7,1.7,3.2,2.6,1.5c0.7-1.3,1.4-2.6,2-3.9C129.3,103.5,126.7,102,125.8,103.7z"
		/>
	<path fill="#1B2A54" d="M131.3,112.6c0.5-0.6,0.6-1.5,0-2.1c-0.5-0.5-1.6-0.6-2.1,0c-0.7,0.8-1.4,1.7-2.1,2.5
		c-0.5,0.6-0.6,1.5,0,2.1c0.5,0.5,1.6,0.6,2.1,0C129.9,114.3,130.6,113.5,131.3,112.6z"/>
	<path fill="#1B2A54" d="M121,113.3c0.6-0.5,0.5-1.6,0-2.1c-0.6-0.6-1.5-0.5-2.1,0c-1.3,1.2-2.3,2.6-3,4.3c-0.3,0.8,0.3,1.6,1,1.8
		c0.9,0.2,1.5-0.3,1.8-1C119.3,115.1,120.1,114.2,121,113.3z"/>
	<path fill="#1B2A54" d="M122.6,122.4c0.9-1.3,1.8-2.6,2.8-3.9c0.5-0.7,0.1-1.7-0.5-2.1c-0.8-0.4-1.6-0.1-2.1,0.5l-2.8,3.9
		c-0.5,0.7-0.1,1.7,0.5,2.1C121.3,123.3,122.1,123,122.6,122.4z"/>
	<path fill="#1B2A54" d="M125.1,124c-0.8-0.4-1.6-0.1-2.1,0.5c-0.8,1.1-1.7,2.3-2.5,3.4c-0.5,0.7-0.1,1.7,0.5,2.1
		c0.8,0.4,1.6,0.1,2.1-0.5c0.8-1.1,1.7-2.3,2.5-3.4C126.1,125.4,125.7,124.4,125.1,124z"/>
	<path fill="#1B2A54" d="M123.8,138.6c1-1.8,2.2-3.3,3.7-4.7c1.4-1.3-0.7-3.5-2.1-2.1c-1.6,1.6-3,3.3-4.1,5.3c0,0,0,0.1-0.1,0.1
		c-0.8,1.4,0.8,2.7,2,2.1C123.4,139.1,123.6,138.9,123.8,138.6z"/>
	<path fill="#1B2A54" d="M116.4,126.6c0.3-1.1,0.6-2.1,0.9-3.2c0.5-1.9-2.4-2.7-2.9-0.8c-0.1,0.3-0.1,0.5-0.2,0.8
		c-0.2,0.8-0.5,1.6-0.7,2.4c-0.4,1.4,1.1,2.2,2.1,1.7C115.9,127.4,116.2,127.1,116.4,126.6z"/>
	<path fill="#1B2A54" d="M119.6,131.6c0.2-0.7-0.3-1.7-1-1.8c-0.7-0.2-1.3,0.1-1.6,0.6c-0.1,0.1-0.2,0.3-0.2,0.4
		c-0.2,0.5-0.3,0.9-0.5,1.4c-0.2,0.7,0.3,1.7,1,1.8c0.6,0.1,1.1,0,1.5-0.4c0.2-0.2,0.3-0.4,0.4-0.6
		C119.3,132.5,119.4,132.1,119.6,131.6z"/>
	<path fill="#1B2A54" d="M114.6,92.2c1.1-1.7,1.4-3.5,1.7-5.4c0.2-1.2,0.2-2.5,0.7-3.7c0.2-0.7,0.6-1.3,1.2-1.8
		c1.3-1.1,2.2-0.8,2.5,0.8c-0.5,1.9,2.4,2.7,2.9,0.8c0.9-3.6-2.9-6.3-6.1-4.7c-5,2.4-3,8.6-5.4,12.6
		C110.9,92.3,113.5,93.8,114.6,92.2z"/>
	<path fill="#1B2A54" d="M119.1,94.8c-0.2-0.8-1-1.2-1.8-1c-0.7,0.1-1.3,0.2-2,0.3c-0.8,0.1-1.2,1.1-1,1.8c0.2,0.8,1,1.2,1.8,1
		c0.7-0.1,1.3-0.2,2-0.3C118.9,96.5,119.3,95.6,119.1,94.8z"/>
	<path fill="#1B2A54" d="M136.2,40.7c-6.3,4.1-10.8,9.8-13.4,16.9c-0.7,1.8,2.2,2.6,2.9,0.8c2.3-6.3,6.4-11.5,12-15.1
		C139.3,42.2,137.8,39.6,136.2,40.7z"/>
	<path fill="#1B2A54" d="M131.5,57.3c-2.4,4.5-4.2,9.2-5.5,14.1c-0.1,0.6-0.3,1.1-0.4,1.7c-0.4,1.9,2.5,2.7,2.9,0.8c0,0,0,0,0,0
		c1.2-5.3,3.1-10.3,5.6-15.1C135,57.1,132.4,55.6,131.5,57.3z"/>
	<path fill="#FFFFFF" d="M162.8,318.2c16.6-4.8,22.9-26.9,11.7-40.1c-8.2-9.6-22.8-9.4-32.9-3.2c-0.1,0.1-0.2,0.1-0.3,0.2
		c-10,7.2-13.5,19.5-7.6,30.7C139,316,151.8,321.4,162.8,318.2z M143.1,277.6c9.9-6.1,24.3-5.7,30.9,5c4.3,6.9,4.1,16.3,0.1,23.3
		c-5.6,9.8-18.1,13-28.1,7.9C131.5,306.4,129.7,286.9,143.1,277.6z"/>
	<path fill="#FFFFFF" d="M151.1,306.2c4.9-1.1,9.7-2.6,14.6-3.9c1.8-0.5,5.4-0.7,6-3.1c0.5-2.2-2.6-4.7-3.7-6.1
		c-3-3.7-5.8-7.8-9.1-11.3c-1.9-2-4.1-3-6.7-2c-1.2,0.4-1.2,1.8-0.7,2.5c-1.2,4.6-2.5,9.1-3.7,13.7c-0.6,2.3-2.7,6.5-1.6,8.9
		C147.2,307,149.3,306.6,151.1,306.2z M150.2,298.5c1.4-5.2,2.8-10.5,4.3-15.7c1.2,0.5,2.5,1.5,3.1,2c1,0.9,1.9,2.4,2.8,3.4
		c1.7,2.1,3.3,4.1,5,6.2c0.6,0.8,1.9,1.9,2.2,2.8c0.3,0.4,0.5,0.8,0.8,1.2c-0.9,0.2-1.7,0.5-2.6,0.7c-2.6,0.7-5.1,1.4-7.7,2.1
		c-2.2,0.6-4.6,1.5-6.9,1.8c-2.5,0.4-1.8,0.7-1.9-1.2C149.2,300.9,150,299.4,150.2,298.5z"/>
</g>
</svg>
