<?xml version="1.0" encoding="utf-8"?>
<!-- Generator: Adobe Illustrator 19.0.0, SVG Export Plug-In . SVG Version: 6.00 Build 0)  -->
<svg version="1.2" baseProfile="tiny" id="Слой_2__x28_копия_x29_"
	 xmlns="http://www.w3.org/2000/svg" xmlns:xlink="http://www.w3.org/1999/xlink" x="0px" y="0px"
	 viewBox="-281.9 -8.7 811.2 809.7" xml:space="preserve">
<g>
	<g>
		<path fill="none" d="M13.2,781.8c0,0.3,0,0.6,0.1,1C13.2,782.4,13.2,782.1,13.2,781.8l0.2-0.2c0,0,0,0-0.1-0.1c0,0,0,0,0.1,0.1
			L13.2,781.8z"/>
		<path fill="none" d="M11.7,780.2L11.7,780.2c-0.1,0.2-0.1,0.4-0.1,0.6C11.6,780.6,11.5,780.4,11.7,780.2L11.7,780.2z"/>
		<path fill="none" d="M85.1,45.3c0.2,0.6,0.3,1.3,0.3,1.9C85.4,46.6,85.3,46,85.1,45.3z"/>
		<path fill="none" d="M56.8,791.9c-3.7,0.7-7.5,1.1-11.2,1C49.3,793,53.1,792.7,56.8,791.9z"/>
		<path fill="none" d="M7.3,779.7L7.3,779.7L7.3,779.7z"/>
		<path fill="none" d="M5.9,778.7c0.2,0.2,0.5,0.3,0.7,0.5C6.4,779,6.2,778.9,5.9,778.7z"/>
		<path fill="none" d="M11.7,781.6c0.1,0.2,0.1,0.4,0.2,0.6l0,0C11.8,782,11.8,781.8,11.7,781.6z"/>
		<path fill="none" d="M121.7,772.1L121.7,772.1L121.7,772.1c16,5.3,33,7.3,49.8,5.9C154.9,779.4,137.7,777.4,121.7,772.1z"/>
		<path fill="#1B2A54" d="M13.3,782.7c0-0.3-0.1-0.6-0.1-1l0.2-0.2c0,0,0,0-0.1-0.1c-0.5-0.4-1-0.9-1.5-1.3h-0.1h-0.1
			c0,0.2,0,0.4,0,0.6c0,0.2,0.1,0.5,0.1,0.7c0.1,0.2,0.1,0.4,0.2,0.6l0,0l0,0c-1.6-0.7-3.1-1.5-4.5-2.4c0,0-0.1,0-0.1-0.1
			c-0.3-0.2-0.5-0.4-0.8-0.5c-0.2-0.2-0.5-0.3-0.7-0.5c-1.9-1.4-3.6-3-5.1-4.8c0,0.4,0,0.7,0,1.1c0,1.9,0.1,3.8,0.9,5.5
			c1,2.3,3.1,3.9,5.3,4.9c2.3,1,4.7,1.3,7.2,1.7l0.4-0.2l0,0C13.8,785.5,13.4,784.2,13.3,782.7z"/>
		<path fill="#1B2A54" d="M184.9,776.1L184.9,776.1l-1.5,0.5c-4,0.7-7.9,1.2-11.8,1.5c-16.8,1.3-33.8-0.7-49.8-5.9v0.1l-0.1,0.4
			c0,0.1,0,0.2,0,0.3l0,0l0,0c0,0.1,0,0.1,0,0.1c5,6.6,13.9,9,22.3,9.9c13.8,1.8,27.8,1.6,41.6-0.6l2.4-0.5
			C187.2,779.9,186.2,777.9,184.9,776.1L184.9,776.1z"/>
		<path fill="#1B2A54" d="M118,772.6c-7.9-0.7-15.8-1.3-23.7-2l-0.7,0.1c0.3,2.7,0.8,5.3,1.6,8l0.3,0.6c8.7,2.1,17.7,2.7,26.7,2
			c-0.5-2.7-0.6-5.5-0.5-8.2c0-0.1-0.1-0.1-0.1-0.2l0,0C120.2,772.8,119.1,772.7,118,772.6z"/>
		<path fill="#1B2A54" d="M67.2,789L67.2,789L67.2,789z"/>
		<path fill="#1B2A54" d="M56.8,791.9c-3.7,0.7-7.5,1.1-11.2,1c-11.6-0.2-23.2-4.2-32.2-11.4l0,0l-0.2,0.2c0,0.3,0,0.6,0.1,1
			c0.1,1.5,0.6,2.9,1.3,4.2l0,0c1,1.8,2.4,3.5,4.1,4.7c3.1,2.4,6.8,3.7,10.5,4.8c6.5,1.9,13.1,3.4,19.8,3.3c6.8,0,13.5-1.7,19.2-5.4
			l0.4-0.3c-0.2-1.7-0.7-3.4-1.3-5l-1.3,0.2C63,790.4,60,791.3,56.8,791.9z"/>
		<path fill="#FFB864" d="M121.5,772.6l0.1-0.4v-0.1c16,5.3,33,7.3,49.8,5.9c4-0.3,8-0.8,11.8-1.5l1.5-0.5l0,0
			c-2.7-4-6.7-7.3-10.9-9.4c-3-1.5-6.2-2.7-9.4-3.5c-2.6-0.6-5.2-1.1-7.8-1.4c-1.1-0.1-2.2-0.3-3.3-0.4c-2.7-0.3-5.4-0.5-8.1-0.6
			c-2.6-0.2-5.2-0.4-7.9-0.6c-1.8-0.2-3.5-0.4-5.3-0.6c-2.7-0.4-5.3-1-7.6-2.3c-2.3-1.4-4.2-3.7-4.3-6.4v-0.4c-0.2,0-0.4,0-0.7-0.1
			c-9.1-0.9-15.5-1.5-24.6-0.8v0.5c-2,6.8-2.5,13.8-1.7,20.8l0.7-0.1c7.9,0.6,15.8,1.3,23.7,2c1.2,0.1,2.3,0.2,3.5,0.3l0,0h0.1l0,0
			C121.5,772.8,121.5,772.7,121.5,772.6z"/>
		<path fill="#FFB864" d="M2.7,754.3l-0.5-0.1c-1,6.6-1.4,13.1-1.4,19.7l0,0c1.5,1.8,3.2,3.4,5.1,4.8c0.2,0.2,0.5,0.3,0.7,0.5
			c0.3,0.2,0.5,0.4,0.8,0.5c0,0,0.1,0,0.1,0.1c1.4,0.9,3,1.7,4.5,2.4l0,0c-0.1-0.2-0.1-0.4-0.2-0.6c-0.1-0.2-0.1-0.5-0.1-0.7
			c0-0.2-0.1-0.4,0-0.6h0.1h0.1c0.5,0.4,1,0.9,1.5,1.3c0,0,0,0,0.1,0.1l0,0c9.1,7.3,20.6,11.2,32.2,11.4c3.8,0.1,7.6-0.3,11.2-1
			c3.1-0.6,6.2-1.5,9.2-2.8l1.3-0.2l0,0l0,0l0,0c-1.8-4.8-5.3-9-9.3-12.2c-1.1-0.9-2.3-1.8-3.4-2.6c-2.9-2-6-3.7-9.2-5.4
			c-1.7-0.9-3.4-1.8-5.1-2.7c-0.8-0.4-1.7-0.9-2.5-1.4c-2.5-1.4-5-2.9-7.4-4.5c-2.5-1.8-4.9-3.7-6.9-6v-0.2
			C16.7,754.2,9.7,754.3,2.7,754.3z"/>
		<path fill="#446EB7" d="M37.2,348.9c2.7-1.8,3.5-5.9,1.7-8.6c-1.8-2.7-6-3.5-8.6-1.6l-0.4-0.2c-2.6,2-3.3,6-1.4,8.7
			C30.4,349.9,34.5,350.7,37.2,348.9z"/>
		<path fill="#446EB7" d="M142.3,66c-0.3,0.2-0.6,0.4-0.9,0.5c-0.6,0.3-1.2,0.6-1.8,0.8l0.9,0.1c3.2,2.6,4.9,6.6,5.5,10.6
			c0.6,4.1,0,8.2-0.7,12.1c-0.2,1.1-0.4,2.2-0.7,3.3l2,0.3c9.5-11.2,11.4-28.4,4.6-41.5l-1-0.2l0,0C149.3,57.7,147,63,142.3,66z"/>
		<path fill="#446EB7" d="M71.2,26.5c-8.4,1.7-16,6.7-21,13.6S43,55.9,44,64.4l0.9,1.5c3-1.2,6.6-1,9.3,0.7
			c3.9,2.4,5.8,7.6,4.4,11.9h0.1c-0.7,1.2-1.2,2.4-1.2,3.8c-0.1,1.9,1.2,4.1,3.2,4.2c1.8,0.1,3.3-1.5,3.7-3.2
			c0.5-1.7,0.2-3.6,0.1-5.4c-0.5-9.3,5-18.8,13.3-23.1c2.8-1.4,6.3-2.7,7.5-5.5c0-0.1,0.1-0.2,0.1-0.2c0-0.1,0.1-0.2,0.1-0.4
			c0.1-0.5,0.2-1,0.2-1.5c0-0.6-0.1-1.3-0.3-1.9c-0.2-0.8-0.5-1.6-0.8-2.4C81.6,36.5,77.1,30.7,71.2,26.5
			C71.3,26.6,71.3,26.5,71.2,26.5C71.3,26.5,71.3,26.5,71.2,26.5L71.2,26.5z"/>
		<path fill="#446EB7" d="M84.3,43.1c0.3,0.8,0.6,1.6,0.8,2.4c0.2,0.6,0.3,1.3,0.3,1.9c0,0.5-0.1,1-0.2,1.5c0,0.1-0.1,0.3-0.1,0.4
			c0,0.1-0.1,0.2-0.1,0.2c1.6,2.5,5.1,3.4,8.2,3.8c2.4,0.3,5,0.3,7.3-0.4c1.9,3.5,5.4,6.2,9.2,7.1c3.9,1,8.2,0.2,11.5-2h0.1
			c0.6,2.4,1.8,4.6,3.6,6.4c3.8,3.8,9.9,5,15,3.2c0.6-0.2,1.2-0.5,1.8-0.8c0.3-0.2,0.6-0.3,0.9-0.5c4.7-3,7-8.4,8-13.9l0,0
			c0.3-1.6,0.4-3.3,0.5-4.9c0.5-15.8-6.4-31.6-18.3-42L132.2,6c0.4,4,0.7,8,1.1,11.9l-0.6,0.3c-1-2.2-2.2-4.4-3.6-6.4
			C122.6,2.8,111.6-3,100.4-3.1l-0.2,0.6c5.4,1.3,9.7,6.1,10.6,11.5l-1.5,0.3c-0.9-0.7-1.9-1.3-2.9-1.9c-7.7-4.1-17-3.7-25.2-0.9
			c-8,2.7-14.9,7.6-21.6,12.5l0.5,0.6c5.6-1.2,11.2-2.4,16.9-2.1v0.8c-3.7,0.5-6.5,4.7-5.5,8.4l0,0C77.1,30.7,81.6,36.5,84.3,43.1z"
			/>
	</g>
	<g>
		<path fill="#B2E7DC" d="M60,19.6c4.2-0.9,8.5-1.8,12.6-2.1c7.9-5.9,17.6-8.2,27.6-6.9c3.1,0.4,5-1.4,5.5-3.7
			C98.2,3.3,89,3.6,81.1,6.3c-8,2.7-14.9,7.6-21.6,12.5L60,19.6z"/>
		<path fill="#B2E7DC" d="M129,43.5c-0.7,3.8,5.1,5.4,5.8,1.6c3.7-20.3-7-39.5-26.1-47.1c-0.5-0.1-1-0.2-1.4-0.3
			c-1.2,0-2.1,0.9-2.4,2.1c1.8,1.3,3.2,3,4.2,4.9C123.7,11.6,131.9,27.4,129,43.5z"/>
		<path fill="#B2E7DC" d="M132.4,5.3l-0.5,0.6c0.2,2.7,0.5,5.4,0.7,8.1c5,8.9,9.7,18.2,11,28.1c0.8,6.2-0.2,13.1-5.6,17
			c-5.2,3.7-13.3,1.1-12.8-6c0.3-3.8-5.7-3.8-6,0c-0.1,1.9,0.2,3.6,0.8,5.3c0.3-0.2,0.6-0.4,0.9-0.6h0.1c0.6,2.4,1.8,4.6,3.6,6.4
			c0.1,0.1,0.2,0.1,0.2,0.2c1.6,1.1,3.5,2,5.4,2.4c7.2,1.4,13.9-3.5,17.1-9.5c7.6-14.5-1.9-32.7-9.8-46.5
			C136.1,8.6,134.3,6.9,132.4,5.3z"/>
		<path fill="#B2E7DC" d="M104.5,50.3c3.1-3.6,3.4-9.1,3.2-13.6c-0.1-3.8-6.1-3.9-6,0c0.1,2.8,0.2,6.2-1.2,8.8
			c-2.3,4.4-9.9,1.5-13.4,0.4c-0.7-0.2-1.3-0.2-1.9,0c0.2,1,0.2,2-0.1,2.9c-0.1,0.2-0.1,0.4-0.2,0.6c1.6,2.5,5.1,3.4,8.2,3.8
			c2.4,0.3,5,0.3,7.3-0.4c0,0.1,0.1,0.2,0.2,0.3C102,52.5,103.3,51.6,104.5,50.3z"/>
	</g>
	<g>
		<path fill="#446EB7" d="M4.9,474.8l0.8,0.1c1.4-0.7,2.7-1.5,4-2.3c9.1-5.9,15.7-15.3,18.2-25.8c-7,1.2-14,1.8-21.1,1.9v2.6
			C6.2,459.1,5.6,467,4.9,474.8z"/>
		<path fill="#446EB7" d="M130.7,445.7l0.2-1.5c1.3-7.6,2.5-15.1,3.4-22.8l-2-0.2c-31.1,2.5-62.4,2.8-93.5,0.7l-1-0.2
			c-1.5,8.2-3.3,16.2-5.1,24.3l-1.1,0.2c-1.2,0.2-2.4,0.4-3.6,0.6c-2.5,10.5-9.2,19.9-18.2,25.8c-1.3,0.8-2.6,1.6-4,2.3l-0.8-0.1
			c0.7-7.9,1.3-15.7,2-23.6v-2.6c-5.5,0.1-10.9-0.1-16.4-0.7l-0.1,0.5c-7.9,101.9-4,204.6,11.5,305.6h0.3v0.1l0.5,0.1
			c7,0,14-0.1,21-0.1h0.9v-0.9c-0.3-3.5,0-7.1,0.7-10.4h-0.2c6.7-31.4,10.4-73.8,13.7-105.4c5.2-48.7,5.4-87.3,19.5-134.3l-0.1-0.5
			c8.1-1.3,16.2-2.6,24.3-3.8l0.2,1.5c7.4,63.5,14.8,127.2,13.4,191.2c-0.4,19.1-1.6,38.3-2.8,57.4l0.4,0.8c0.5,0,0.9-0.1,1.4-0.1
			c9.1-0.8,15.5-0.1,24.6,0.8l2-1.5c16.5-98.2,28-198.5,27.4-298.1l0.3-3C143.2,447.1,136.9,446.4,130.7,445.7z"/>
	</g>
	<g>
		<path fill="none" d="M-0.1,576.6c-0.2-0.6-0.5-1.1-0.7-1.7c0.1,0.6,0.3,1.2,0.4,1.8C-0.3,576.6-0.2,576.6-0.1,576.6z"/>
		<path fill="#1B2A54" d="M98.2,567.5c-0.1-1.8-0.2-3.6-0.3-5.4c-0.6,17-0.4,34,0.7,51c0.2,2.4-0.9,4-2.4,4.9
			c0.1,0.3,0.3,0.6,0.4,0.9l-1.5,0.3c-0.2,0-0.4,0.1-0.6,0.2c1.5,24,2.2,48,1.7,72c-0.4,19.1-1.6,38.3-2.8,57.4l0.4,0.8
			c0.5,0,0.9-0.1,1.4-0.1c0.1,0,0.3,0,0.4,0c-0.6-37,3.6-73.8,12.5-109.7c0.8-3-1-6.7-4.2-7.4c-0.2-0.1-0.5-0.1-0.7-0.2
			c-0.1-0.9-0.1-1.7-0.2-2.6l4.1-0.9c3.8-0.8,5.4-5.6,3.6-8.8C101.3,604.1,99.2,585.6,98.2,567.5z"/>
		<path fill="#1B2A54" d="M84.4,514.5c1,8.5,2,16.9,2.9,25.4c0.8-9.5,1.8-19.2,3.1-28.7L84.4,514.5z"/>
		<path fill="#1B2A54" d="M98.7,613.1c-1.1-17-1.3-34-0.7-51c0.7-19.3,2.5-38.6,5.5-57.7c0.7-4.8-2.6-8.1-7.4-7.4
			c-4.5,0.7-9,1.4-13.3,2.1l0.2,1.1c0.6,4.8,1.1,9.4,1.7,14.2l6-3.4c-1.3,9.5-2.3,19.1-3.1,28.7c2.9,26.3,5.5,52.5,7.2,78.9
			c0.6-0.1,1.2-0.4,1.8-0.7C97.8,617.1,98.8,615.5,98.7,613.1z"/>
		<path fill="#1B2A54" d="M5.6,608.1c2.8-2.1,3.7-5,2.2-8.2c-1.1-2.3-2.6-4.2-4.3-5.8c0.3-0.2,0.7-0.4,1-0.6
			c2.4-1.4,3.5-4.6,2.7-7.2c0.8-0.3,1.5-0.6,2.3-1c3.8-1.6,5.4-5,3.6-8.8c-18.1-38.5-12.9-81.8-13-123c0-2.5-1.3-4.2-3-5.1
			c-1.7-0.1-3.4-0.2-5.1-0.4c-0.5,0.2-1.1,0.4-1.5,0.8c-1.2,16.1-2.2,32.1-2.9,48.2c0,8.9,0.1,17.6,0.7,26.5c0.2,3.8,0.6,7.5,1,11.1
			c2.2,0.2,4.3,1.5,5.2,4.1c3.6,10.7,5,21.9,4.3,32.9c0.2,1,0.4,2,0.7,3c0.2,0.6,0.5,1.1,0.7,1.7c-0.1,0-0.2,0.1-0.3,0.1
			c0.7,3.2,1.4,6.4,2.1,9.5c0.8,3.6-1.4,6.2-4.1,7.1c0.4,8.5,0.4,16.8,0,25.3c0.1,0.4,0.1,0.9,0,1.3c-0.2,1.7-0.3,3.4-0.5,5.1
			c-0.1,1.4-0.2,2.9-0.4,4.3c-0.3,3.3-2.7,5.1-5.3,5.6c-0.7,0.7-1.6,1.3-2.5,1.6c2.2,34.2,5.7,68.3,10.5,102.2
			c-0.1-21-0.3-41.9-0.4-62.9c-0.1-13.4-0.2-26.9-0.3-40.4C-1.1,627-2.2,614,5.6,608.1z"/>
		<path fill="#1B2A54" d="M-8.5,634.9c2.6-0.5,4.9-2.4,5.3-5.6c0.1-1.4,0.3-2.9,0.4-4.3c0.2-1.7,0.3-3.4,0.5-5.1c0-0.5,0-0.9,0-1.3
			c0.5-8.5,0.5-16.9,0-25.3c2.7-0.9,4.8-3.5,4.1-7.1c-0.7-3.2-1.4-6.4-2.1-9.5c-0.1-0.6-0.3-1.2-0.4-1.8c-0.2-1-0.4-2-0.7-3
			c0.7-11.1-0.7-22.3-4.3-32.9c-0.9-2.6-3-3.9-5.2-4.1c-0.4,0-0.8,0-1.2,0c-0.5-1.8-0.9-3.5-1.4-5.3c-0.6,35.7,0.3,71.3,2.6,106.9
			C-10,636.2-9.2,635.7-8.5,634.9z"/>
	</g>
	<g>
		<path fill="none" d="M86.6,88.8c1.1,0.1,2.2-0.9,2.1-2c0-1.1-1.2-2.1-2.3-1.8c-0.5,0.1-0.9,0.6-1.1,1.1c-0.3,0.3-0.5,0.7-0.5,1.1
			C84.9,88.1,85.8,88.8,86.6,88.8z"/>
		<path fill="none" d="M79.3,150.2c-9.6-2.8-19-7-26.2-13.8c-1-0.9-1.9-2-2.8-3c0.9,1.1,1.8,2.1,2.8,3
			C60.3,143.2,69.5,147.4,79.3,150.2z"/>
		<path fill="none" d="M122.6,97.1c-0.9,0.3-1.3,1.5-0.9,2.4c0.4,0.8,1.5,1.3,2.3,0.9c0.6-0.3,0.8-1,0.7-1.6
			c0.1-0.1,0.1-0.3,0.1-0.4C124.7,97.4,123.5,96.7,122.6,97.1z"/>
		<path fill="#F3D57B" d="M124.9,343c0.9,2,1.3,4.1,1.2,6.2h1.3c2.5-1.7,4.9-3.4,7.4-5c0.6-0.4,1.3-0.9,2-1.3l0.7-2.2
			c-4.6-3.7-8.7-8-12-12.7l-0.4,0.3c-3.4,1.4-6.5,3.6-9,6.3l-2.5,0.4c0.2,0,0.5,0,0.7,0.1C118.8,335.6,123,338.8,124.9,343z"/>
		<path fill="#F3D57B" d="M97.3,350.4c-6.7,2.9-13.4,5.9-20.1,8.8c-4.2,1.8-8.8,4.1-10.1,8.5l-0.6,1.1c-2.6,1.4-4.8,3.7-6.1,6.4
			c-0.7,1.5-1.1,3.5,0.1,4.7c1,1,2.6,0.9,4.1,0.5l0.1,0.4c-1.6,1.1-1.6,3.7-0.3,5.2s3.5,1.9,5.4,1.6c1.5-0.2,2.8-0.9,4.1-1.5
			l0.7,0.3c-0.8,2.5,1.5,5.2,4.1,5.7c2.6,0.5,5.2-0.7,7.5-2c10-5.7,17.7-15.2,21.2-26.2l0.3-0.9c-0.7-0.2-1.4-0.5-2.1-0.8
			c-4.3-2.1-7.3-6.7-7.5-11.4v-0.2H97.3z"/>
		<path fill="#F3D57B" d="M-47.2,484.8c-0.1,0.7,0.3,1.4,1,1.7c1,0.4,2.3-0.2,2.9-1.1s0.8-2.1,0.9-3.2c1.4-12.1-0.1-24.5-4.2-35.9
			l-0.1-0.6c0,0,0,0-0.1,0l0,0c-5.5,1.1-11.2,0.9-16.6-0.7c-8.7,18.4-5.7,41.7,7.3,57.3l0.4-0.1c0.1,0.2,0.3,0.4,0.6,0.5
			c1-0.8,1.3-2.3,1-3.6l0.2-0.1c0.6,0.6,1.7,0.1,2.1-0.6c0.4-0.8,0.4-1.7,0.3-2.5c-0.8-9.6-1.6-19.3-2.5-28.8
			c0.3-0.7,1.3-1.1,2.1-0.8c1.1,0.4,1.7,1.6,2,2.7c1.9,5.1,2.7,10.5,2.4,15.9L-47.2,484.8z"/>
		<path fill="#F3D57B" d="M87.1,152.2c-2.7-0.6-5.3-1.2-8-2c-9.6-2.8-19-7-26.2-13.8c-1-0.9-1.9-2-2.8-3c-0.4-0.4-0.7-0.8-1.1-1.3
			l0,0l-0.1,0.1c-2.6,11.9-6.2,23.8-10.8,35.1l-2.4,0.1c2.3,4.1,3.3,9.1,4.1,13.7c1.2,7.3,2.4,14.4,3.3,21.7l0.4-0.1
			c8.3,6.7,17.2,9.4,27.8,9.8c10.6,0.4,21.3-2.7,30-8.7l1,0.1c0.9-10,3.6-19.9,7.9-28.9l-2.4-0.9c-3.1-6.5-3.3-14.2-0.7-21l-0.3-1
			c-0.6,0.2-1.1,0.4-1.7,0.5c-1.3,0.3-2.5,0.6-3.8,0.7C96.8,154,91.8,153.2,87.1,152.2z"/>
		<path fill="#F3D57B" d="M140.5,67.4l-0.9-0.1c-5.1,1.8-11.1,0.6-15-3.2c-1.8-1.8-3-4-3.6-6.4h-0.1c-3.4,2.3-7.7,3-11.5,2
			c-3.9-1-7.3-3.6-9.2-7.1c-2.3,0.7-4.9,0.6-7.3,0.4c-3.1-0.4-6.5-1.3-8.2-3.8c-1.2,2.8-4.6,4.1-7.5,5.5C69,59.1,63.5,68.5,64,77.9
			c0.1,1.8,0.4,3.6-0.1,5.4c-0.5,1.7-2,3.4-3.7,3.2c-1.9-0.1-3.2-2.3-3.2-4.2c0-1.3,0.6-2.6,1.2-3.8h-0.1c1.4-4.4-0.5-9.5-4.4-11.9
			c-2.7-1.7-6.3-1.9-9.3-0.7c-1.3,0.5-2.4,1.2-3.4,2.1c-2.5,2.4-3.6,5.9-4.3,9.2c-0.9,4-1.5,8.1-1.8,12.1c-0.2,2.6-0.2,5.4,1,7.7
			c1.3,2.4,3.9,4,6.6,4.2v0.5c-3.6,10.1-0.4,21.7,6.3,30.2l0,0c0.3,0.4,0.7,0.9,1.1,1.3c0.9,1.1,1.8,2.1,2.8,3
			c7.3,6.9,16.5,11,26.2,13.8c2.6,0.8,5.3,1.4,8,2c4.7,1,9.5,1.8,14.3,1.3c1.3-0.1,2.6-0.4,3.8-0.7c0.6-0.2,1.1-0.3,1.7-0.5
			c6.8-2.4,12-7.9,16.5-13.6c10.3-13.2,17.6-28.7,21.2-45.2c0.2-1.1,0.5-2.2,0.7-3.3c0.7-4,1.3-8.1,0.7-12.1
			C145.4,74,143.7,70,140.5,67.4z M85.3,86.1c0.2-0.5,0.6-1,1.1-1.1c1.1-0.3,2.3,0.6,2.3,1.8c0,1.1-1,2.1-2.1,2
			c-0.8,0-1.7-0.7-1.8-1.5C84.8,86.9,85,86.4,85.3,86.1z M124,100.3c-0.8,0.4-1.9-0.1-2.3-0.9c-0.4-0.9,0-2,0.9-2.4
			c0.9-0.3,2,0.3,2.1,1.3c0,0.1,0,0.3-0.1,0.4C124.8,99.3,124.5,100,124,100.3z"/>
	</g>
	<g>
		<path fill="none" d="M131.6,115.4c0.5-1.4,1-2.9,1.5-4.3c-0.7,1.7-1.4,3.3-2.1,5C131.2,115.9,131.4,115.6,131.6,115.4z"/>
		<path fill="none" d="M105.8,144.5c-0.2,0.2-0.3,0.3-0.5,0.5c-0.2,0.3-0.5,0.5-0.7,0.8c0.4-0.2,0.8-0.3,1.2-0.5
			C105.7,145.1,105.7,144.8,105.8,144.5z"/>
		<path fill="#F3D57B" d="M90.9,150.2c-1.4,0.1-1.8,1.7-1.2,2.5c0.8,0.1,1.6,0.3,2.4,0.4c1.2-0.1,2.4-0.3,3.6-0.5
			c0.5-1.2,1.2-2.3,1.9-3.4C95.4,149.7,93.2,150.1,90.9,150.2z"/>
		<path fill="#F3D57B" d="M138.4,89.2c-0.2,1.2,0.3-4.5,0.3-5.1c0-1.2,0-2.3-0.1-3.5c-0.1-0.2-0.3-0.9-0.5-1.6c0,4.7-0.2,9.3-0.7,14
			c0.1-0.1,0.3-0.2,0.4-0.3C138,91.7,138.2,90.5,138.4,89.2z"/>
		<path fill="#F3D57B" d="M104.6,145.8c0.2-0.3,0.5-0.5,0.7-0.8c0.2-0.2,0.3-0.3,0.5-0.5c-0.1,0.3-0.1,0.5,0,0.8
			c0.2-0.1,0.4-0.1,0.6-0.2c0.5-0.2,1.1-0.4,1.6-0.6c0.2-0.1,0.6-0.3,1.2-0.6c1.7-1.1,3.5-2.1,5.3-3.2c0.1-0.1,0.3-0.2,0.4-0.3
			c0.7-0.6,1.3-1.1,2-1.7c1.5-1.4,3-2.9,4.3-4.4c0.5-0.5,0.9-1.1,1.3-1.6c0.1-0.2,0.4-0.5,0.6-0.9c1.2-1.9,2.4-3.7,3.5-5.6
			c1.2-2,2.2-4.1,3.2-6.2c0.2-0.5,0.4-0.9,0.5-1.2c0.3-0.9,0.7-1.7,1-2.6c0.1-0.3,0.2-0.7,0.4-1c-0.2,0.2-0.4,0.5-0.6,0.7
			c0.7-1.7,1.4-3.3,2.1-5c2-6,3.7-12,4.8-18.2c-0.2,0.1-0.3,0.2-0.4,0.3c-0.2,0.1-0.3,0.3-0.4,0.6c-1.8,4.3-3.6,8.6-5.3,12.9
			c0-0.2,0-0.3,0-0.5c0-1.6-2.7-2.1-2.9-0.4c-0.6,4.1-1.1,8.1-1.7,12.1c0,0.3,0,0.5,0,0.8c-0.1,0.6-0.3,1.1-0.4,1.6
			c-5.9,5.2-11.6,10.5-17.1,16.1c-3.7,3.8-8.8,8-12,12.8c-0.7,1.1-1.4,2.3-1.9,3.4c-0.1,0.3-0.3,0.6-0.4,0.9c0.1,0,0.3,0,0.4,0
			C97.8,150.2,100.9,147.4,104.6,145.8z"/>
		<path fill="#B2E7DC" d="M145.3,90.2c0.7-4,1.3-8.1,0.7-12.1c-0.6-4.1-2.3-8.1-5.5-10.6l-0.9-0.1c-2.3,0.8-4.8,1-7.2,0.7
			c0.4,1.5,1.1,2.9,2.1,4.2c1.1,1.4,2,2.9,2.9,4.4c-0.4-0.6,0.1,1.1,0.6,2.6c0.2,0.7,0.5,1.4,0.5,1.6c0.1,1.1,0.1,2.3,0.1,3.5
			c0,0.6-0.5,6.3-0.3,5.1c-0.2,1.2-0.4,2.4-0.6,3.6c-1.1,6.2-2.8,12.2-4.8,18.2c-0.5,1.5-1,2.9-1.5,4.3c-0.1,0.3-0.2,0.7-0.4,1
			c-0.3,0.9-0.7,1.7-1,2.6c-0.1,0.3-0.3,0.7-0.5,1.2c-1,2.1-2,4.2-3.2,6.2c-1.1,1.9-2.3,3.7-3.5,5.6c-0.3,0.4-0.5,0.7-0.6,0.9
			c-0.4,0.5-0.9,1.1-1.3,1.6c-1.4,1.5-2.8,3-4.3,4.4c-0.6,0.6-1.3,1.2-2,1.7c-0.1,0.1-0.2,0.2-0.4,0.3c-1.7,1.1-3.5,2.1-5.3,3.2
			c-0.6,0.3-1,0.5-1.2,0.6c-0.5,0.2-1.1,0.4-1.6,0.6c-0.2,0.1-0.4,0.1-0.6,0.2c-0.4,0.2-0.8,0.3-1.2,0.5c-3.7,1.7-6.8,4.4-8.9,7.8
			c3.2,0.2,6.5,0.1,9.5-0.7c0.6-0.2,1.1-0.3,1.7-0.5c6.8-2.4,12-7.9,16.5-13.6c10.3-13.2,17.6-28.7,21.2-45.2
			C144.9,92.4,145.1,91.3,145.3,90.2z"/>
		<path fill="#B2E7DC" d="M79.2,77.8c5.6,1.9,11.1,3.8,16.7,5.7c1.8,0.6,2.6-2.3,0.8-2.9c-5.6-1.9-11.1-3.8-16.7-5.7
			C78.1,74.2,77.4,77.1,79.2,77.8z"/>
		<path fill="#B2E7DC" d="M54.3,72.5c0.2,1.9,3.2,1.9,3,0c-1.2-10.3-13.3-7.3-17.2-0.4c-1.2,2.1-2.6,5.4-3.7,9
			c-0.5,2.8-0.8,5.5-1,8.3c-0.1,1.4-0.1,2.9,0,4.3c0.7,2.6,2.3,4.6,5.1,5.5c1.8,0.6,2.6-2.3,0.8-2.9c-6.3-2.1-1.9-13.7-0.7-17.6
			c0.6-2,1.3-4,2.4-5.8C45,69.8,53.4,64.7,54.3,72.5z"/>
	</g>
	<g>
		<path fill="none" d="M153.2,265.8l0.1,0.6c-3,1.6-3.9,5.5-4.3,8.9c-0.9,7.4-1.1,14.8-0.6,22.2l0.2,0.2c2.8-2.9,5.4-6,7.9-9.2
			c3-4,5.9-8.5,5.9-13.4C162.2,270.1,157.9,265.1,153.2,265.8z"/>
		<path fill="#B2E7DC" d="M11.7,386.1c1.8,0.1,3.4-1,4.8-2.1c5.7-4.3,10.9-9.1,15.8-14.2l-2.1-0.3c-10.9,2.4-22.4,2.1-33.1-0.9
			c2.1,5.9,5.7,11.1,10.3,15.3C8.7,385,10.1,386.1,11.7,386.1z"/>
		<path fill="#B2E7DC" d="M145.5,188.1l-0.8-0.2c1.9-2.1,3.5-4.5,2.7-7.1c-0.4-1.5-1.5-2.6-2.6-3.7c-8.1-7.5-19.4-11.4-30.3-10.7
			l0.1,1.1c-1.5,2.5-2.9,5-4.1,7.6c-4.3,9.1-7,18.9-7.9,28.9c-0.5,5.8-0.4,11.5,0.3,17.2c3.9,31.3,25.1,58.7,27.9,90.1l0.7,1
			c-3.6,2.6-7.4,4.9-11.3,7.1v0.1c1.5,3,3.2,5.9,5.2,8.7c3.4,4.8,7.5,9.1,12,12.7l-0.7,2.2c-0.6,0.4-1.3,0.9-2,1.3l1.2,1.8
			c1.8,25.1,1.1,50.4-1.8,75.4c-0.9,7.7-2,15.2-3.4,22.8l-0.2,1.5c6.3,0.7,12.5,1.4,18.8,2.1c0.8,0.1,1.6,0.2,2.5,0.3
			c5.6,0.6,11,1.2,16.6,1.8l0,0c-4.6-21.8-8.4-43.8-11.2-65.8l-1.5-0.9c2.9-4.5,5.7-8.9,8.5-13.3c-2.9,0.6-5.7,1.2-8.6,1.8l-0.1-0.6
			c-1.3-11.2-2.4-22.6-3.3-33.9l-0.1-0.1c7.3-6.1,13.9-12.6,20.9-19c9.1-8.3,18.6-16.4,24.2-27.6c10.2-20.6,0.5-44-10.2-61.9
			C177.1,212.1,163.9,195.3,145.5,188.1z M156.4,288.4c-2.5,3.2-5.1,6.3-7.9,9.2l-0.2-0.2c-0.5-7.4-0.3-14.8,0.6-22.2
			c0.4-3.4,1.3-7.2,4.3-8.9l-0.1-0.6c4.8-0.8,9.1,4.3,9.2,9.2C162.4,280,159.5,284.4,156.4,288.4z"/>
	</g>
	<g>
		<path fill="#FFFFFF" d="M130.9,299.7c-0.8-10.6-4.8-21-7.2-31.3c-2.6-11.1-5.1-22.4-7-33.7c-3.6-21.4-3.7-44,1.7-65
			c0.4-1.6-1.9-2.7-2.7-1.1c-10.4,20-12.6,42.7-9.8,64.9c0.2,1.9,0.5,3.9,0.8,5.8c6.5,21.1,18.1,40.9,22.5,62.4
			C130.2,301.5,131,300.8,130.9,299.7z"/>
		<path fill="#FFFFFF" d="M195.6,246.6c-6.5-14.3-17.8-24.7-28.2-36c-0.5-0.6-1.6,0.2-1.1,0.9c16,20.8,36.2,52.3,21.2,78.7
			c-5.7,9.9-14.3,17.3-21.9,25.6c-7.6,8.3-13.8,17.1-16.7,27.9c-0.5,1.9,2.3,3.2,3.3,1.4c0.2-0.5,0.5-0.9,0.8-1.4
			c-0.2-2.1-0.4-4.3-0.5-6.4l-0.1-0.1c7.3-6.1,13.9-12.6,20.9-19c8.1-7.4,16.6-14.7,22.3-24.2c0.9-1.7,1.7-3.4,2.4-5.2
			C203.4,275,201.5,259.8,195.6,246.6z"/>
		<path fill="#FFFFFF" d="M127.8,321.7c10.2-7,21.1-15.9,26.3-27.5c0.4-0.8-0.1-1.7-0.7-2c-1.5,1.8-3.1,3.6-4.8,5.3l-0.2-0.2
			c0-0.4,0-0.8-0.1-1.2c-7.5,7.8-13.9,16.4-21.9,23.8C125.5,320.9,126.7,322.4,127.8,321.7z"/>
		<path fill="#FFFFFF" d="M136.3,436.1c2.5-5.5,2.9-12.1,3.7-18.1c0.9-6.7,1.5-13.2,1.7-20c0.5-13.3-0.6-26.3-2.6-39.4
			c-0.2-1.1-2.1-0.9-2,0.3c0.6,12.6,0.3,25.5-0.6,38.1c-0.4,6.1-1,12-1.7,18.1c0,0,0,0,0,0.1c-0.2,2.1-0.4,4.1-0.7,6.2
			c-0.6,4.7-1.2,9.4-1.9,14.1C132.8,437.2,135.4,438,136.3,436.1z"/>
	</g>
	<g>
		<path fill="none" d="M-2.9,368.6c2.1,5.9,5.7,11.1,10.3,15.3c1.2,1.1,2.6,2.1,4.3,2.2c1.8,0.1,3.4-1,4.8-2.1
			c5.7-4.3,10.9-9.1,15.8-14.2l-2.1-0.3C19.4,371.9,7.8,371.6-2.9,368.6z"/>
		<path fill="none" d="M30.3,338.8l-0.4-0.2c-2.6,2-3.3,6-1.4,8.7c1.9,2.7,5.9,3.5,8.6,1.7c2.7-1.8,3.5-5.9,1.7-8.6
			C37.1,337.7,33,337,30.3,338.8z"/>
		<path fill="#B2E7DC" d="M43.3,202.7c-1-7.3-2.1-14.5-3.3-21.7c-0.8-4.7-1.9-9.6-4.1-13.7c-1.3-2.5-3.1-4.6-5.5-6.1l-0.2-0.6
			c-11.4,3.5-22.1,9.7-30.4,18.3l-0.5,0.2c0.4,0.8,0.8,1.5,1.3,2.3L0,181.7c-18.4,20-31.2,44.8-39.7,70.6
			c-8.6,25.9-12.9,52.8-16,79.9c-4.3,36-10.3,75.7-10.1,111.9l0,0c0.8,0.3,1.6,0.6,2.4,0.8c5.4,1.6,11.1,1.8,16.6,0.7l0,0v-0.1
			c14.3-47.8,25.1-92.3,34.3-141.4h0.6c1.4,47.4-3.3,95.2-13.7,141.4l0,0c5.3,1.2,10.6,2,16,2.5c5.5,0.5,10.9,0.8,16.4,0.7
			c7.1-0.1,14.1-0.7,21.1-1.9c1.2-0.2,2.4-0.4,3.6-0.6l1.1-0.2c1.8-8.1,3.6-16.2,5.1-24.3c5.9-30.8,9.5-62.1,11-93.3
			c1.8-36.2,0.7-72.5-3.4-108.5C44.7,214.1,44.1,208.5,43.3,202.7z M16.5,384c-1.4,1.1-3,2.2-4.8,2.1c-1.6-0.1-3-1.1-4.3-2.2
			c-4.7-4.1-8.3-9.4-10.3-15.3c10.7,3,22.2,3.3,33.1,0.9l2.1,0.3C27.5,375,22.2,379.7,16.5,384z M37.2,348.9c-2.7,1.8-6.8,1-8.6-1.7
			c-1.8-2.7-1.2-6.8,1.4-8.7l0.4,0.2c2.6-1.9,6.8-1.1,8.6,1.6C40.7,343,39.9,347.1,37.2,348.9z"/>
	</g>
	<g>
		<path fill="#FFFFFF" d="M12.5,199.5c2.7,4,5.4,8.1,8.2,12c2.6,3.8,5.2,8.4,8.8,11.2c1.6,1.3,5,0.2,4-2.3c-1.7-4.1-4.8-7.5-7.4-11
			c-3-4.2-5.8-8.5-8.5-12.8c-4.3-7.1-7.8-15.6-13.4-21.9c-1.4,1.2-2.7,2.4-4,3.7C2.7,186,8.2,193.1,12.5,199.5z"/>
		<path fill="#FFFFFF" d="M49.5,300.7c-2.4-7.3-5-14.4-7.8-21.6c-6.4-16.5-14.4-31.9-23-47.4c-0.7-1.2-2.8-0.4-2.2,0.9
			c6.8,16.1,12.3,32.9,18.1,49.4c2.9,8.2,5.6,16.4,8.1,24.7c1.9,6.2,3.5,12.8,6.1,18.8C49.2,317.2,49.4,308.9,49.5,300.7z"/>
		<path fill="#FFFFFF" d="M26.4,375.6c0.3-0.2,0.6-0.3,0.9-0.5c0.4-0.2,0.6-0.6,0.7-1C27.5,374.7,27,375.1,26.4,375.6z"/>
		<path fill="#FFFFFF" d="M-2.9,368.6c10.7,3,22.2,3.3,33.1,0.9l0.9,0.1c0.1-1.1-0.3-2.2-1.5-2.7c-4.9-2.1-10.7-0.8-16-1
			c-5.2-0.3-11.4-2-16.4-0.4c-1.1,0.4-1.4,1.7-0.7,2.5C-3.3,368.2-3.1,368.5-2.9,368.6C-2.8,368.7-2.8,368.7-2.9,368.6z"/>
		<path fill="#FFFFFF" d="M28.5,347.2c-1.8-2.7-1.2-6.8,1.4-8.7l0.4,0.2c2.3-1.7,5.8-1.3,7.9,0.7c0.1-0.6-0.1-1.3-0.4-1.9
			c-0.4-0.7-0.9-1.4-1.4-2c-1.7-2.1-4.8-2.6-7.5-2.1c-2.8,0.5-5.2,2.5-6.4,5.1c-1.1,2.6-0.8,5.7,0.5,8.1c1.1,2,4.7,4.7,7.1,3
			c0.3-0.2,0.4-0.4,0.6-0.6C29.9,348.7,29.1,348.1,28.5,347.2z"/>
	</g>
	<g>
		<path fill="none" d="M37.6,341.1c-1.5-2.1-4.5-2.4-6.5-1c-0.3,0.2-0.5,0.2-0.7,0.2c-1.4,1.6-1.9,4-0.6,6c1.3,2.1,4.4,2.8,6.5,1.5
			C38.4,346.5,39.1,343.2,37.6,341.1z"/>
		<path fill="none" d="M-0.4,370.8c2.8,6.4,8.5,15.5,15.6,12.4c2.9-1.3,6.1-4.8,8.5-7c1.8-1.6,3.5-3.3,5.1-4.9
			C19.1,373.1,9.2,372.9-0.4,370.8z"/>
		<path fill="none" d="M14.1,205.9c-5.1-7.1-9.7-14.5-14-22.1c-12.5,13.9-22.4,29.9-30,47c-15,33.7-20.7,70.3-25,106.7
			c-4.2,35-9.4,70.1-9.4,105.4c0.2,0.1,0.5,0.1,0.7,0.2c0.3,0,0.7,0.1,1,0.3c4.8,1.3,9.6,1.6,14.6,0.8
			c13.7-46.3,25.2-93.2,34.1-140.6c0.1-0.4,0.2-0.6,0.5-0.8c-0.4-12.4-1.1-24.8-2.3-37.1c-0.2-1.9,2.8-1.9,3,0
			c5.7,59.7,2,120.1-11,178.6c8.4,1.7,16.7,2.6,25.1,2.8c0.6-0.2,1.2-0.3,1.9-0.3c0.6,0,1.2,0.1,1.8,0.3c7.3,0,14.6-0.6,21.9-1.7
			c0.4-0.8,1.5-0.9,2.2-0.4c0.7-0.1,1.4-0.2,2.1-0.4c0.1,0,0.2,0,0.3,0c4.7-21,8.6-42.2,11.2-63.5c2.2-17.4,3.8-34.8,4.7-52.3
			c-0.1-0.2-0.2-0.4-0.2-0.7C44.2,285.7,0.6,250.3,14.1,205.9z M33.4,370.8c-4.1,4.3-8.5,8.4-13,12c-2.5,2-5.4,4.9-8.9,4.7
			c-3.9-0.2-7.2-4.4-9.4-7.2c-2.7-3.4-4.7-7.1-6.3-11c0-0.1-0.1-0.1-0.1-0.2c0-0.1-0.1-0.2-0.1-0.3c-0.5-1.4,1-2.2,2.1-1.7
			c11.3,2.9,22.8,3.1,34.2,0.3c1.3-0.3,2,0.9,1.8,1.8C33.9,369.9,33.8,370.4,33.4,370.8z M38.2,350.1c-3.3,2.3-8.1,1.5-10.5-1.6
			c-2.6-3.3-1.8-8.3,1.3-10.9c0.4-0.3,0.8-0.4,1.2-0.3c3.4-1.8,7.9-0.8,10,2.5C42.4,342.9,41.4,347.8,38.2,350.1z"/>
		<path fill="none" d="M-56.1,499.9c-0.3-3.7-4.5-10-5.2-12.6c-1.2-4.1-1.6-8.4-1.4-12.5c0.1-1.9,3.1-1.9,3,0
			c-0.4,6.7,1,13.1,4.4,18.9c0.7,1.2,1.4,2.4,1.9,3.5c0.3-2.4-0.7-13.9-0.8-15.1l-1.2-13.6c-0.1-0.2-0.1-0.3-0.1-0.5
			c0-0.3,0-0.5,0-0.8l-0.1-0.9c-0.1-1.2,1-1.6,1.9-1.3c1.4-0.4,3.3,0.2,4.3,1.6c2.9,4.1,3.5,10.7,3.4,16c0.7,0.3,1.2,1.2,0.7,2
			c3.1-4.7,2.1-13.2,1.5-18.8c-0.6-6.4-2.1-12.5-4.1-18.5c-5,0.7-9.8,0.5-14.7-0.6C-70,464.1-67.4,484.8-56.1,499.9z"/>
		<path fill="none" d="M-2,450c-2.1-0.1-4.2-0.2-6.3-0.4c-1.7,22.1-2.9,44.2-3.4,66.2c0,0.3,0,0.6,0,0.9c1-1.1,2.3-1.8,3.6-2.2
			c0.8-20.7,2.6-41.3,5.3-61.8C-2.7,451.8-2.4,450.9-2,450z"/>
		<path fill="none" d="M9,452.8c-0.9,6.6-1.6,13.1-2.3,19.7c9.2-5.4,15.9-13.8,19-24c-5.8,0.8-11.5,1.3-17.3,1.5
			C8.9,451,9.2,451.8,9,452.8z"/>
		<path fill="none" d="M10.1,779.6c-0.2-0.2-0.3-0.5-0.3-0.8c-0.1-1.4-0.6-2.9-1.2-4.2c-0.9-1.7,1.7-3.2,2.6-1.5
			c0.9,1.8,1.4,3.7,1.6,5.7c0,0.1,0,0.2,0,0.3s0.1,0.1,0.1,0.2c14.4,12.2,34.5,15.4,52.1,8.8c-2.3-5-6.1-8.8-10.5-12
			c-3.6,1.4-7.1,3-10.4,4.8c-1.7,0.9-3.2-1.7-1.5-2.6c2.9-1.6,5.9-3,9-4.3c-1.9-1.2-3.9-2.4-5.9-3.5c-3.8,1.7-7.6,3.5-11.2,5.6
			c-1.7,0.9-3.2-1.7-1.5-2.6c3.1-1.7,6.3-3.3,9.5-4.8c-1.4-0.8-2.8-1.5-4.2-2.3c-4.2,1.3-8.2,3.1-11.9,5.5c-1.7,1-3.2-1.6-1.5-2.6
			c3.2-1.9,6.5-3.6,9.9-4.9c-1.4-0.8-2.7-1.6-4-2.5c-4,1.8-8,3.6-11.9,5.4c-1.7,0.8-3.3-1.8-1.5-2.6c3.5-1.6,7.1-3.2,10.5-4.8
			c-1.8-1.3-3.5-2.7-5-4.3l-17.9,0.1c0.3,1.2,0.8,2.3,1.6,3.3c0.5,0.7,0.1,1.7-0.5,2.1c-0.7,0.4-1.6,0.1-2.1-0.5
			c-0.3-0.5-0.6-1-0.9-1.5c-0.5,4.4-0.8,8.8-0.8,13.2c0,0.3,0,0.7,0,1C4.6,775.9,7.1,778,10.1,779.6z M9.5,765.5
			c0.2,0.9,0.5,1.7,0.7,2.6c0.5,1.9-2.4,2.7-2.9,0.8c-0.2-0.9-0.5-1.7-0.7-2.6C6.2,764.5,9,763.7,9.5,765.5z"/>
		<path fill="none" d="M125.2,774.7c6.7,5.8,16.7,6.9,25.2,7.6c11.5,1,23.2,0.5,34.6-1.3c0.3-0.1,0.6,0,0.9,0.1
			c-0.5-1.2-1-2.3-1.6-3.3c-0.1,0.1-0.2,0.1-0.4,0.1C164.2,781.3,144.3,780.2,125.2,774.7z"/>
		<path fill="none" d="M11.9,784.7c-0.4-0.4-0.8-0.9-1-1.5c-3.1-1.4-5.9-3.2-8.3-5.4c0.3,1.8,1.1,3.5,2.9,4.9c2,1.6,4.5,2.2,7,2.7
			c0-0.1-0.1-0.2-0.1-0.3C12.1,784.9,12,784.9,11.9,784.7z"/>
		<path fill="none" d="M15.3,784.8c2.9,8.5,15.3,10.9,23.1,12.4c9.7,1.9,19.8,1.4,28.4-3.9c-0.2-0.9-0.4-1.7-0.7-2.6
			C49.2,797.3,30,794.9,15.3,784.8z"/>
		<path fill="none" d="M16.7,204.4c0.3,0.2,0.5,0.5,0.6,0.8c3.5,4.9,7.2,9.6,11,14.2c1.2,1.5-0.9,3.6-2.1,2.1
			c-3.4-4.1-6.7-8.3-9.7-12.5C11,230.5,20,252,29.6,271.1c7.1,14,14.5,27.9,18.3,43.2c0.4-14.7,0.4-29.5-0.2-44.3
			c-0.7-18.7-2.1-37.4-4.4-56c-1.2-9.6-2.5-19.3-4.1-28.8c-1.3-8.1-2.4-17.6-9.5-22.7c0,0-0.1,0-0.1-0.1
			c-10.6,3.5-20.2,9.3-28.3,17.1C5.9,188.2,11,196.4,16.7,204.4z"/>
		<path fill="none" d="M151.1,55.4c-0.6,2-1.3,4-2.4,5.8c-1.5,2.7-3.6,4.8-6.1,6.3c5.6,6.1,6,14.8,4.4,23.4
			C154.4,80.5,155.8,67,151.1,55.4z"/>
		<path fill="none" d="M100.7,202.6c0.2-0.1,0.4-0.2,0.6-0.2c0.9-9.3,3.3-18.3,7.3-27c-0.7,0.4-1.5,0.4-1.9-0.5
			c-2.9-6.7-3.4-13.7-1.4-20.6c-0.5,0.1-1,0.2-1.5,0.3c-6.7,1.3-13.7-0.1-20.2-1.7c-12.3-3-25.1-8.1-33.8-17.7
			c-2.6,11-6,21.9-10.1,32.4c-0.3,0.7-1,1-1.6,1c1.5,3.3,2.4,7,3.1,10.6c1.4,7.5,2.5,14.9,3.5,22.4c0,0,0,0,0.1,0
			C61,214.3,83.8,213.7,100.7,202.6z M75,171.7c3.2,3.6,7.4-1.1,9.3-3.6c1.2-1.5,3.3,0.6,2.1,2.1c-1.8,2.3-3.9,4.7-6.9,5.5
			c-2.4,0.6-5.1,0.1-6.7-1.9C71.6,172.3,73.7,170.2,75,171.7z"/>
		<path fill="none" d="M134.3,308.3c-3.5-16.5-4.1-33.4-1.5-50.1c2.2-14.4,13.1-37.4-1-48.6c-1.1,2.5-2,5.2-2.7,7.8
			c-0.5,1.9-3.4,1.1-2.9-0.8c3.2-11.4,9.3-20.4,17-29.1c1.8-2,3.8-4.4,2.4-7.3c-0.8-1.5-3.8-3.8-5.1-4.7c-2.5-1.8-5.1-3.3-7.9-4.5
			c-5.3-2.3-10.9-3.3-16.6-3.2c0,0.1-0.1,0.3-0.2,0.4c-14,23.5-14.7,50-6,75.5c7.7,22.1,19.5,42.8,22.3,66.2
			C132.9,309.4,133.6,308.9,134.3,308.3L134.3,308.3z"/>
		<path fill="none" d="M154,267.7c-4.3,3-3.9,10.3-4.2,14.9c-0.2,3.9-0.2,7.7-0.1,11.5c2.7-2.9,5.2-6,7.4-9.3
			c1.9-2.9,3.8-6.4,3.7-9.9c-0.1-3.7-2.8-7.2-6.5-7.7C154.3,267.5,154.2,267.6,154,267.7z"/>
		<path fill="none" d="M106.5,339.1c0,0.4-0.2,0.8-0.7,1.1c-6.3,3.6-8.2,11.5-3.5,17.3c4.7,5.7,13.4,5.8,18.5,0.6
			c5-5.1,5.1-13.6-0.2-18.5c-2.6-2.4-5.9-3.3-9-3l0,0C110,337.5,108.3,338.3,106.5,339.1z M113.8,343.7c0.6,0.6,0.6,1.5,0,2.1
			l-2.2,2.2c1.8,2.2,3.6,4.3,5.4,6.5c1.2,1.5-0.9,3.6-2.1,2.1c-2-2.4-4-4.8-6-7.2c-0.5-0.6-0.4-1.3-0.2-1.8c-0.1-0.5,0-1.1,0.4-1.4
			l2.6-2.6C112.2,343.1,113.2,343.1,113.8,343.7z"/>
		<path fill="none" d="M124.9,330c-2.5,1.2-4.8,2.7-6.9,4.6c1.4,0.6,2.8,1.4,4.1,2.5c3.2,2.7,5,6.5,5.3,10.3
			c2.8-1.9,5.7-3.9,8.5-5.8c0.1,0,0.1-0.1,0.2-0.1C131.9,338.2,128.2,334.3,124.9,330z"/>
		<path fill="none" d="M69,367c2-0.7,4.1-1.4,6.1-2.1c1.8-0.6,2.6,2.3,0.8,2.9l-9.7,3.4c-0.2,0.1-0.4,0.1-0.6,0.1
			c-1.9,1.4-4.3,3.6-4,5.2c0.3,1.5,2.4,2.2,3.5,2.1c0.8-0.1,1.9-0.7,2.7-1c4.4-1.7,8.7-3.7,12.7-6c1.7-0.9,3.2,1.6,1.5,2.6
			c-4.1,2.3-8.4,4.4-12.7,6.1c-1,0.4-2.2,0.9-3.4,1.3c-0.1,0.1-0.1,0.2-0.2,0.2c0.6,3.8,2.3,5.1,5.1,3.9c0.8-0.3,1.6-0.7,2.3-1
			c1.5-0.7,3-1.6,4.5-2.5c3.2-1.8,6.3-3.5,9.4-5.3c1.7-0.9,3.2,1.7,1.5,2.6c-4.2,2.3-8.3,4.7-12.4,6.9c-1,8.7,11.3,1.1,13.2-0.2
			c2.6-1.8,4.9-3.9,7-6.2c4.4-4.7,7.6-10.2,9.5-16.3c-2.3-0.9-4.4-2.4-6-4.5c-1.7-2.2-2.7-4.6-3-7c-4.9,2.2-9.8,4.3-14.7,6.5
			C77.7,360.6,71.5,362.4,69,367z"/>
		<path fill="none" d="M133,206.8c12.5,9.4,8.4,26.5,5.2,39.6c-4.8,19.7-5.2,40.1-1.2,60c3.3-2.6,6.4-5.4,9.3-8.4
			c0.3-0.3,0.5-0.5,0.8-0.8c-0.4-7.3-0.3-14.7,0.6-21.9c0.5-3.7,1.3-7,4.1-9.3c0.1-0.7,0.5-1.4,1.4-1.5c5.4-0.5,9.7,3.7,10.6,8.9
			c1.2,6.3-3,12.1-6.7,16.8c-9.5,12.1-21.5,22.2-34.9,29.8c5,9.2,11.8,16.9,20.5,22.7c2.9-2.1,5.8-4.3,8.6-6.6
			c0.1-0.1,0.2-0.2,0.3-0.2c10.1-8.3,19.6-17.6,28.9-26.5c12.4-11.8,21.5-25.6,19.5-43.5c-1.8-16.1-10.1-31.1-19.1-44.4
			c-9.1-13.4-20.4-25.8-35.6-32c-1.5,1.7-3.1,3.2-4.3,4.6C137.7,198,135.1,202.2,133,206.8z"/>
		<path fill="none" d="M86.8,46.6c0.1,0.8,0,1.6-0.2,2.3c2.8,3.1,8.2,3.4,11.9,2.7c6.8-1.3,6.8-7.6,6.7-13
			c-0.1-8.8-1.2-18.5-9.6-23.2c-1.7-0.9-0.2-3.5,1.5-2.6c5.3,2.9,8.5,7.9,9.9,13.5c1.6,6.1,2.3,14.5,0.7,20.7
			c-0.7,2.9-2.7,5-5.2,6.4c4.1,5.4,10.9,6.9,17,3.7c-0.6-3.8,0-7.8,2-11.2c1-1.7,3.6-0.2,2.6,1.5c-5,8.7,0.7,19.8,11.1,19.4
			c9.7-0.4,13.5-10.4,13.9-18.7c0.8-14.7-5.3-29-15.5-39.4l0.8,9.3c0,0.5-0.1,0.9-0.4,1.1c3.1,7.7,3.7,16.4,1,25.2
			c-0.6,1.8-3.5,1.1-2.9-0.8c6.1-20-6.3-40.1-25.8-44.3c2.9,2.4,4.9,5.7,5.6,9.4c0.1,0.5,0,0.9-0.3,1.2c5.3,4.9,8.2,11.9,6.7,19.6
			c-0.4,1.9-3.3,1.1-2.9-0.8c2.8-13.8-10.8-23.1-23.3-22.7c-10.4,0.3-19.6,5.6-27.8,11.4c12.8-2.1,29-1.8,32.7,13.2
			c0.5,1.9-2.4,2.7-2.9,0.8c-2.1-8.5-8.8-11.4-16.2-12c-0.2,0.2-0.4,0.3-0.7,0.4c-2.9,0.5-5,3.2-4.5,6.1
			C78.9,30.6,86.3,38.6,86.8,46.6z M133.6,53c7.2-3.6,9.8-11.2,6.8-18.5c-0.7-1.8,2.2-2.6,2.9-0.8c3.6,8.6,0,17.8-8.2,21.9
			C133.4,56.4,131.8,53.8,133.6,53z M122.3,33.4c1.5-4.3,1.8-8.6,0.7-12.9c-0.5-1.9,2.4-2.7,2.9-0.8c1.2,4.9,1,9.8-0.7,14.5
			C124.6,36,121.7,35.2,122.3,33.4z"/>
		<path fill="none" d="M95,769.2c8.4,0.7,16.6,1.4,25,2.1c0.2-0.2,0.5-0.3,0.8-0.4c0.3-0.3,0.8-0.5,1.4-0.3
			c19.5,6.3,40.1,7.9,60.3,4.5c-4.2-5.3-10.3-8.3-17.1-10.1c-0.2,0.7-0.4,1.5-0.4,2.3c0,1.9-3,1.9-3,0c0-1,0.2-2,0.5-3
			c-1.6-0.3-3.2-0.6-4.7-0.9c-0.5,1.4-0.8,2.8-1.1,4.2c-0.3,1.9-3.2,1.1-2.9-0.8c0.2-1.3,0.6-2.6,1-3.9c-2.4-0.3-4.8-0.5-7.1-0.7
			c-0.4,0-0.8-0.1-1.2-0.1c-0.3,1-0.5,2-0.5,3.2c0,1.9-3,1.9-3,0c0-1.1,0.2-2.2,0.4-3.3c-1.5-0.1-3-0.1-4.6-0.2
			c-0.2,1.3-0.5,2.6-0.7,3.9c-0.3,1.9-3.2,1.1-2.9-0.8c0.2-1.1,0.4-2.2,0.6-3.3c-7.6-0.8-15.1-2.9-16.6-9.9c-5.8-0.6-11.4-1-17.1-1
			c2.5,1.2,4.8,2.7,7,4.4c1.5,1.2-0.6,3.3-2.1,2.1c-2.6-2.1-5.4-3.7-8.5-4.9c-0.8-0.3-1.1-0.9-1-1.6c-0.3,0-0.6,0-0.8,0.1
			C95,757.1,94.5,763.2,95,769.2z M115.4,764c0.5-0.5,1.6-0.6,2.1,0l1.6,2.1c0.5,0.6,0.6,1.5,0,2.1c-0.5,0.5-1.6,0.6-2.1,0
			c-0.5-0.7-1.1-1.4-1.6-2.1C114.9,765.4,114.8,764.6,115.4,764z M110,758.6c0.6-0.6,1.5-0.6,2.1,0c0.6,0.6,1.3,1.3,1.9,1.9
			c0.6,0.6,0.6,1.5,0,2.1s-1.5,0.6-2.1,0c-0.6-0.6-1.2-1.3-1.9-1.9C109.4,760.1,109.4,759.1,110,758.6z"/>
		<path fill="none" d="M60.7,77.8c-0.7,1.1-1.3,2.3-1.7,3.6c3,2.6,4.3,2.6,3.9,0c0.5-1.4-0.1-3.3-0.1-4.8c0-2.5,0.4-5,1.2-7.3
			c1.4-4.5,4-8.7,7.5-11.8c1.8-1.7,3.9-3,6.1-4.2c2.3-1.2,4.7-2.4,5.8-4.3c-0.2-0.6,0.1-1.1,0.5-1.5c0.1-0.8,0.1-1.7-0.2-2.7
			c-1.7-6.6-7.2-12.5-12.5-16.6c-16.5,4.1-27.2,19.1-25.6,36.1c3.5-0.9,7.4-0.1,10.2,2.1c1.3-4.9,3.1-9.5,5.5-14
			c0.9-1.7,3.5-0.2,2.6,1.5c-2.5,4.8-4.4,9.7-5.6,15c1.4,1.9,2.2,4.3,2.2,7.1C60.9,76.3,61.2,77.1,60.7,77.8z M55.3,53.4
			c-0.7,1.8-3.5,1-2.9-0.8c2.5-7,7.1-12.7,13.3-16.8c1.6-1.1,3.1,1.5,1.5,2.6C61.7,42,57.6,47.1,55.3,53.4z"/>
		<path fill="none" d="M127.2,67.8c-3.4-1.8-5.7-4.7-6.9-8c-7.5,3.6-15.9,1.3-20.6-5.6c-4.9,1.4-10.8,0.5-14.4-2.7
			c-0.6,0.8-1.4,1.5-2.3,2.1c-4.2,2.9-8.6,4.3-11.8,8.4c-3.7,4.5-5.5,10.1-5.3,15.9c0.1,3.5,0.5,7.9-3.3,9.6c-2.3,1.1-4.8-0.1-6-2.2
			c-1.3-2.3-0.6-4.8,0.4-7c0-0.1,0-0.2,0-0.3c1.4-5.6-2.1-11.3-8.2-11.4c-5.9-0.1-8.6,4.6-9.9,9.5c-1.8,6.4-6,27,7.1,23.2
			c1.9-0.5,2.6,2.4,0.8,2.9c-0.9,0.3-1.8,0.4-2.6,0.5c-1.6,5.2-1.5,10.3-0.3,15.2c0.1-0.3,0.1-0.5,0.2-0.8c0.5-1.9,3.4-1.1,2.9,0.8
			c-0.3,1.1-0.6,2.1-0.9,3.2c-0.1,0.5-0.4,0.8-0.8,0.9c0.4,1,0.8,1.9,1.3,2.9c0.4-0.5,1-0.8,1.6-0.6c0.8,0.2,1.3,1.1,1,1.8
			c-0.2,0.5-0.3,0.9-0.5,1.4c-0.1,0.2-0.2,0.4-0.4,0.6c0.8,1.2,1.6,2.3,2.5,3.4c1.1-1.9,2.5-3.7,4.1-5.3c1.4-1.3,3.5,0.8,2.1,2.1
			c-1.4,1.4-2.7,3-3.7,4.7c-0.2,0.3-0.4,0.5-0.6,0.6c0.6,0.6,1.2,1.2,1.8,1.8c0.1-0.1,0.2-0.2,0.3-0.3c1-0.7,2.1-1.4,3.1-2.1
			c0.7-0.5,1.7-0.1,2.1,0.5c0.4,0.7,0.1,1.6-0.5,2.1c-0.9,0.6-1.8,1.2-2.7,1.8c1.2,1,2.4,1.8,3.6,2.7l0,0c0.9-0.8,1.8-1.6,2.8-2.5
			c0.6-0.5,1.5-0.6,2.1,0c0.5,0.5,0.6,1.6,0,2.1c-0.8,0.7-1.5,1.3-2.3,2c1.3,0.8,2.7,1.5,4.1,2.2c0.5-0.8,1.1-1.6,1.6-2.4
			c0.5-0.7,1.3-1,2.1-0.5c0.7,0.4,1,1.4,0.5,2.1c-0.5,0.7-0.9,1.4-1.4,2.1c2.4,1,4.8,1.9,7.2,2.7c0.3-1.1,0.5-2.3,0.8-3.4
			c0.4-1.9,3.3-1.1,2.9,0.8c-0.3,1.2-0.5,2.3-0.8,3.5c0.5,0.1,1,0.3,1.4,0.4c2.1,0.6,4.3,1.2,6.6,1.6v-3.5c0-1.9,3-1.9,3,0v3.7
			c0,0.1,0,0.3,0,0.4c1.9,0.3,3.7,0.6,5.6,0.6v-0.1c-0.1-1.6-0.2-3.3-0.3-4.9c-0.1-1.9,2.9-1.9,3,0c0.1,1.6,0.2,3.3,0.3,4.9v0.1
			c2.4-0.1,4.7-0.5,7-1.3c3.6-1.3,6.9-3.4,9.9-6c-1-1.6-1.4-3.5-1.2-5.4c0.1-0.8,0.6-1.5,1.5-1.5c0.8,0,1.6,0.7,1.5,1.5
			c-0.1,1.2,0,2.2,0.5,3.3c1-1,1.9-2,2.9-3.1c-0.4-0.2-0.8-0.5-0.9-1c-0.1-0.7-0.3-1.4-0.4-2.1c-0.2-0.8,0.2-1.6,1-1.8
			c0.7-0.2,1.7,0.3,1.8,1c0.1,0.5,0.2,1,0.3,1.5c5.1-6.6,9.1-14.3,12-20.8c3.4-7.3,6-14.8,7.8-22.6c1.9-8.5,3.6-18.5-3.3-25.2
			C135.8,70.2,131.3,70,127.2,67.8z M81.3,73c5.1,2.1,10.3,3.9,15.6,5.2c1.9,0.5,1.1,3.4-0.8,2.9c-5.4-1.3-10.5-3-15.6-5.2
			C78.9,75.1,79.6,72.2,81.3,73z M83.4,86.5c0.1-0.5,0.3-0.8,0.6-1.2c0.4-0.8,1-1.4,1.8-1.7c1.8-0.6,3.9,0.7,4.3,2.5
			c0.4,2-1.3,4.1-3.4,4.2C84.8,90.4,82.9,88.5,83.4,86.5z M85.1,115.7c-1.8,0.5-3.7,1.1-5.5,1.6c-1.9,0.5-2.6-2.4-0.8-2.9
			c1.8-0.5,3.7-1.1,5.5-1.6C86.2,112.3,87,115.1,85.1,115.7z M69.9,112.7c2.7-1.3,5.5-2.3,8.4-2.8c1.9-0.3,2.7,2.6,0.8,2.9
			c-2.7,0.5-5.3,1.3-7.7,2.5C69.7,116.1,68.2,113.5,69.9,112.7z M64.3,110.5c1.7-0.9,3.2,1.6,1.5,2.6c-1.6,0.9-3.3,1.8-4.9,2.8
			c-1.7,0.9-3.2-1.7-1.5-2.6C61.1,112.3,62.7,111.4,64.3,110.5z M55.2,89.6c0.7,0.2,1.4,1.1,1,1.8c-0.8,2-1.6,3.9-2.5,5.9
			c-0.3,0.7-1,1.3-1.8,1c-0.7-0.2-1.4-1.1-1-1.8c0.8-2,1.6-3.9,2.5-5.9C53.6,89.9,54.3,89.3,55.2,89.6z M41.7,85.5
			c2.5-3.9,0.4-10,5.4-12.5c3.2-1.6,7,1.2,6.1,4.7c-0.5,1.9-3.4,1.1-2.9-0.8c-0.4-1.6-1.2-1.9-2.5-0.8c-0.6,0.5-0.9,1.1-1.2,1.8
			c-0.4,1.2-0.5,2.4-0.7,3.7c-0.3,2-0.6,3.7-1.7,5.4C43.2,88.6,40.6,87.1,41.7,85.5z M47.7,91.5c-0.7,0.1-1.3,0.2-2,0.3
			c-0.8,0.1-1.6-0.2-1.8-1c-0.2-0.7,0.2-1.7,1-1.8c0.7-0.1,1.3-0.2,2-0.3c0.8-0.1,1.6,0.2,1.8,1C48.9,90.4,48.5,91.3,47.7,91.5z
			 M48.5,111c-0.3,0.8-1,1.3-1.8,1c-0.7-0.2-1.4-1.1-1-1.8c0.7-1.6,1.6-3.1,3-4.3c0.6-0.5,1.5-0.6,2.1,0c0.5,0.5,0.6,1.6,0,2.1
			C49.7,108.9,48.9,109.8,48.5,111z M49.6,115.5l2.8-3.9c0.5-0.7,1.3-1,2.1-0.5c0.7,0.4,1,1.4,0.5,2.1c-0.9,1.3-1.8,2.6-2.8,3.9
			c-0.5,0.7-1.3,1-2.1,0.5C49.5,117.2,49.1,116.2,49.6,115.5z M55.2,120.7c-0.8,1.1-1.7,2.3-2.5,3.4c-0.5,0.7-1.3,1-2.1,0.5
			c-0.6-0.4-1-1.4-0.5-2.1c0.8-1.1,1.7-2.3,2.5-3.4c0.5-0.7,1.3-1,2.1-0.5C55.3,119,55.7,120,55.2,120.7z M55.9,103.8
			c-0.9,1.7-3.5,0.2-2.6-1.5l2-3.9c0.9-1.7,3.5-0.2,2.6,1.5C57.3,101.2,56.6,102.5,55.9,103.8z M56.7,109.8c-0.6-0.6-0.5-1.5,0-2.1
			c0.7-0.8,1.4-1.7,2.1-2.5c0.5-0.6,1.6-0.5,2.1,0c0.6,0.6,0.5,1.5,0,2.1c-0.7,0.8-1.4,1.7-2.1,2.5
			C58.3,110.5,57.3,110.4,56.7,109.8z M60.1,122c-0.6,0.5-1.7,0.1-2.1-0.5c-0.4-0.8-0.1-1.6,0.5-2.1c1.8-1.4,4-2.2,6.3-2.4
			c0.8-0.1,1.5,0.8,1.5,1.5c0,0.9-0.7,1.4-1.5,1.5C63,120.2,61.6,120.9,60.1,122z M62.5,129.6c-1.6,1-3.1-1.6-1.5-2.6
			c1.8-1.1,3.5-2.2,5.3-3.3c1.6-1,3.1,1.6,1.5,2.6C66,127.4,64.2,128.5,62.5,129.6z M71.1,131.3c-1.3,1.2-2.5,2.4-3.8,3.6
			c-1.4,1.3-3.5-0.8-2.1-2.1c1.3-1.2,2.5-2.4,3.8-3.6C70.4,127.8,72.5,130,71.1,131.3z M79.5,135.6c-0.6,1.5-1.2,3.1-1.8,4.6
			c-0.3,0.8-1,1.3-1.8,1c-0.7-0.2-1.3-1.1-1-1.8c0.6-1.5,1.2-3.1,1.8-4.6c0.3-0.8,1-1.3,1.8-1C79.2,134,79.8,134.8,79.5,135.6z
			 M87.7,138.3c-0.2,1-0.4,2.1-0.6,3.1c-0.2,0.8-1.1,1.3-1.8,1c-0.8-0.2-1.2-1.1-1-1.8c0.2-1,0.4-2.1,0.6-3.1c0.2-0.8,1.1-1.3,1.8-1
			C87.4,136.6,87.8,137.5,87.7,138.3z M76.4,123c-1.4-1.3,0.7-3.4,2.1-2.1c3.9,3.6,8.7,5.5,13.9,5.6c1.9,0,1.9,3,0,3
			C86.4,129.3,80.9,127.1,76.4,123z M90,121.3v-3.1c0-1.9,3-1.9,3,0v3.1C93,123.3,90,123.3,90,121.3z M92.1,143.4l-0.3-4.3
			c-0.1-1.9,2.9-1.9,3,0l0.3,4.3C95.2,145.4,92.2,145.3,92.1,143.4z M96.2,120.5c-0.6-1.9,2.3-2.6,2.9-0.8c0.3,1.1,0.9,2,1.8,2.7
			c1.4,1.3-0.7,3.4-2.1,2.1C97.6,123.5,96.7,122.1,96.2,120.5z M102.9,128l3.1,5.9c0.9,1.7-1.7,3.2-2.6,1.5c-1-2-2.1-3.9-3.1-5.9
			C99.5,127.8,102,126.3,102.9,128z M100.3,142.3l-2.1-5.9c-0.6-1.8,2.3-2.6,2.9-0.8c0.7,2,1.4,3.9,2.1,5.9
			C103.8,143.4,100.9,144.1,100.3,142.3z M106.9,150.1c-0.5,0.5-1.6,0.6-2.1,0c-1.3-1.4-1.7-3.3-1.2-5.2c0.5-1.9,3.4-1.1,2.9,0.8
			c-0.2,0.8-0.1,1.6,0.4,2.3C107.5,148.6,107.5,149.5,106.9,150.1z M108,128.1c0.5-0.5,1.6-0.6,2.1,0c0.6,0.7,1.1,1.4,1.7,2.1
			c0.5,0.6,0.6,1.5,0,2.1c-0.5,0.5-1.6,0.6-2.1,0c-0.6-0.7-1.1-1.4-1.7-2.1C107.4,129.6,107.3,128.7,108,128.1z M109.9,144
			c-0.3-2.3-0.6-4.5-0.9-6.8c-0.2-1.9,2.8-1.9,3,0c0.3,2.3,0.6,4.5,0.9,6.8C113.1,146,110.1,145.9,109.9,144z M114.3,91
			c-4.9,7.9-9.8,15.7-14.7,23.6c-0.2,0.3-0.4,0.5-0.6,0.6c-0.2,0.8-0.8,1.4-1.8,1.2c-3.6-1-7-2.6-10-4.8c-1.1-0.8-0.7-2.3,0.2-2.7
			c1.9-4.8,3.7-9.4,5.6-14.2c0.7-1.8,3.6-1,2.9,0.8c-1.9,4.8-3.8,9.6-5.7,14.4c2.2,1.4,4.5,2.5,7,3.3l0,0
			c4.9-7.9,9.7-15.7,14.7-23.6C112.8,87.9,115.4,89.4,114.3,91z M126.2,99.2c-0.1,1.3-1,2.4-2.3,2.7c-1.4,0.3-2.9-0.5-3.5-1.7
			c-1.3-2.7,1.5-5.8,4.2-4.4c1.1,0.6,1.8,1.8,1.6,3C126.2,98.9,126.2,99,126.2,99.2z M133.4,98.5c-4.2-2.9-8.3-5.9-12.4-8.8
			c-1.6-1.1-0.1-3.7,1.5-2.6c4.2,2.9,8.3,5.9,12.4,8.8C136.5,97,135,99.5,133.4,98.5z"/>
		<path fill="none" d="M143.4,345.7L143.4,345.7C143.3,345.8,143.3,345.8,143.4,345.7c-0.2,0.1-0.2,0.2-0.3,0.2H143c0,0,0,0-0.1,0
			c-0.5,0.2-0.9,0-1.2-0.3c-1.2-0.8-2.5-1.7-3.6-2.6c0,0.4-0.2,0.8-0.7,1.1c-0.3,0.2-0.6,0.4-0.8,0.6c0.5,0.2,0.8,0.6,0.9,1.3
			c2.2,32.9,0.5,65.8-5.2,98.4c11.4,1.3,22.9,2.5,34.3,3.8c-4.3-20.7-7.9-41.6-10.6-62.6c-0.6,0.9-1.1,1.8-1.7,2.7
			c-0.8,1.3-2.6,0.6-2.8-0.6c-4.8-3-8.9-6.8-12.1-11.3c-0.6-0.9-0.1-1.8,0.7-2.1c0.1-0.5,0.4-1,1.1-1.1c4.3-0.9,8.7-1.8,12.9-2.8
			c-1.2-10.1-2.2-20.4-3-30.5C148.6,341.9,146.1,343.8,143.4,345.7L143.4,345.7z"/>
		<path fill="none" d="M152.8,385c2.8-4.4,5.6-8.8,8.4-13c-6.2,1.3-12.3,2.6-18.4,3.9C145.5,379.5,148.9,382.6,152.8,385z"/>
		<path fill="none" d="M96.5,778c8,1.7,15.8,2.3,23.9,1.9c-0.2-1.9-0.3-3.7-0.3-5.6c-8.3-0.7-16.5-1.4-24.7-2
			C95.6,774.2,96,776.1,96.5,778z"/>
		<path fill="#446EB7" d="M101.3,220.1c-0.5-4.8-0.6-9.5-0.3-14.2c-17.1,10.6-39.3,11-56-0.3c0.2,1.6,0.4,3.1,0.6,4.7
			c0.3,2.7,0.7,5.4,1,8c0.2,0,0.4,0.1,0.6,0.2C63.8,228,83.9,226.5,101.3,220.1z"/>
		<path fill="#1B2A54" d="M80.7,296.7c2.3-0.3,4.6-1.2,6.9-1.8c2.6-0.7,5.1-1.4,7.7-2.1c0.9-0.2,1.7-0.5,2.6-0.7
			c-0.3-0.4-0.5-0.8-0.8-1.2c-0.3-0.9-1.6-2-2.2-2.8c-1.7-2.1-3.3-4.1-5-6.2c-0.9-1.1-1.8-2.5-2.8-3.4c-0.6-0.5-1.9-1.5-3.1-2
			c-1.4,5.2-2.8,10.4-4.3,15.6c-0.2,0.9-1,2.4-0.9,3.4C78.9,297.4,78.2,297.1,80.7,296.7z"/>
		<path fill="#1B2A54" d="M75.5,307.3c9.9,5,22.4,1.9,27.9-7.9c4-7,4.1-16.3-0.1-23.2c-6.6-10.6-20.9-10.9-30.7-5
			C59.3,280.7,61.1,300.1,75.5,307.3z M77.3,289.7c1.2-4.6,2.5-9.1,3.7-13.6c-0.6-0.7-0.5-2.1,0.7-2.5c2.7-1,4.8,0,6.7,2
			c3.3,3.4,6.1,7.6,9.1,11.2c1.1,1.4,4.2,3.9,3.7,6.1c-0.5,2.4-4.2,2.6-6,3.1c-4.9,1.3-9.6,2.8-14.5,3.9c-1.8,0.4-4,0.9-4.9-1.2
			C74.5,296.2,76.6,292,77.3,289.7z"/>
		<path fill="#1B2A54" d="M127.4,350.8c-0.4,3.5-1.9,6.8-4.5,9.3c-3.8,3.9-9.3,5.4-14.2,4.4c-3.3,9.5-9.2,17.8-17.3,23.8
			c-3.5,2.6-8.5,6-13,5c-2.8-0.6-4.9-2.8-5.2-5.4c-1.9,0.8-3.8,1.4-5.9,1c-3.6-0.6-5.8-3.8-5-6.9c-0.7-0.1-1.4-0.3-2.1-0.7
			c-5.7-3.7,1.8-11.4,5.4-13.7c0-0.1,0-0.3,0.1-0.4c1.9-4.7,5.8-7.1,10.2-9.1c6.9-3.1,13.8-6.1,20.7-9.1c0.1,0,0.2-0.1,0.3-0.1
			c0.3-3.1,1.6-6.1,3.8-8.5c0-0.2,0.1-0.5,0.3-0.8c3.4-4.6,8.8-6.9,13.9-6.2c0-0.1,0.1-0.1,0.1-0.2c2.4-2.5,5.2-4.6,8.3-6.1
			c-1.6-2.3-3-4.8-4.4-7.3c-0.1-0.3-0.2-0.5-0.2-0.8c-0.1-0.5,0.1-1,0.7-1.4c3.5-1.9,6.8-4,10-6.2c-0.1-0.2-0.1-0.3-0.2-0.5
			c-2.7-26-17-48.4-24.4-73.1c-1.5-5-2.6-10-3.2-15.1c-17.6,6.3-37.8,7.6-54.7-1.5c7.2,66.1,4.5,133.3-7.8,198.7
			c30.9,2,62,1.7,92.8-0.8c0.3,0,0.5,0,0.7,0.1c2.8-24.4,3.3-49,1.7-73.6c-2.1,1.4-4.3,2.9-6.4,4.3
			C127.9,350.7,127.6,350.8,127.4,350.8z M70.8,269c0.1-0.1,0.2-0.1,0.3-0.2c10-6.2,24.7-6.4,32.7,3.2c11.1,13,4.9,35-11.6,39.9
			c-10.9,3.2-23.7-2.2-28.9-12.3C57.4,288.4,60.9,276.2,70.8,269z"/>
		<path fill="#1B2A54" d="M138.7,756.7l-0.2,0.3c0.1,0,0.1,0.1,0.2,0.1V756.7z"/>
		<path fill="#1B2A54" d="M6.3,476.2C4,503,1.8,529.7-0.5,556.5c-0.1,1.3-1.6,1.7-2.4,1.2c0,0.1,0,0.3,0,0.4
			c0.1,3.7-2.6,5.6-5.4,5.8c0,0.8,0,1.7,0.1,2.5c0.2,4.1,3.7,6.1,6.9,5.8c0-0.8,0-1.5,0-2.3c0-1.9,3-1.9,3,0c0,0.4,0,0.8,0,1.2
			c1.3-1,2.2-2.5,2.1-4.7c-1.1-30.1-0.2-60.3,2.7-90.2l0,0C6.4,476.2,6.4,476.2,6.3,476.2z"/>
		<path fill="#1B2A54" d="M8.5,450.1c-0.2,0-0.5,0-0.7,0c0.4,0.2,0.6,0.6,0.6,1.2c-0.6,7.2-1.2,14.2-1.8,21.4c0.1,0,0.2-0.1,0.2-0.1
			c0.7-6.6,1.4-13.1,2.3-19.7C9.2,451.8,8.9,451,8.5,450.1z"/>
		<path fill="#1B2A54" d="M1.2,447.2c1.2,0,2.5,0,3.7,0c-0.6-0.2-1.2-0.3-1.8-0.3C2.4,446.9,1.8,447,1.2,447.2z"/>
		<path fill="#1B2A54" d="M6.1,450.2c-2.7,0-5.4,0-8.1-0.1c-0.4,0.9-0.7,1.8-0.9,2.8c-2.7,20.5-4.4,41.1-5.3,61.8
			c3.5-0.8,7.5,1,6.9,5.5c-1.2,10.1-1.8,20.4-1.8,30.5c2.8-33.1,5.6-66.2,8.4-99.4C5.4,450.8,5.7,450.4,6.1,450.2z"/>
		<path fill="#1B2A54" d="M-2.8,558.2c0-0.1,0-0.3,0-0.4c-0.4-0.2-0.7-0.6-0.6-1.2c0.2-2,0.3-3.9,0.5-5.9c0-10.2,0.6-20.4,1.8-30.5
			c0.5-4.5-3.4-6.3-6.9-5.5c-1.4,0.3-2.7,1-3.6,2.2c-0.4,15.4-0.5,30.8-0.4,46.3c1.1,0.7,2.5,1,3.9,1
			C-5.4,563.7-2.7,561.9-2.8,558.2z"/>
		<path fill="#1B2A54" d="M41.4,101.3c0.6-1.8,3.5-1,2.9,0.8c-0.1,0.2-0.1,0.4-0.2,0.6c0.8-0.1,1.7-0.3,2.6-0.5
			c1.8-0.5,1.1-3.4-0.8-2.9c-13,3.8-8.9-16.8-7.1-23.2c1.4-4.9,4.1-9.6,9.9-9.5c6.1,0.1,9.4,6,8.2,11.4c0,0.1,0,0.2,0,0.3
			c0.4-0.7,0.8-1.5,1.2-2.1c0.5-0.9,1.5-0.9,2.2-0.4c0.1-2.8-0.8-5.2-2.2-7.1l0,0c-0.4,1.9-3.3,1.1-2.9-0.8c0.1-0.6,0.3-1.1,0.4-1.7
			c-2.9-2.1-6.7-3-10.2-2.1c0,0,0,0,0,0.1c0.1,1.5-1.7,1.8-2.6,0.9c-2.1,1.1-3.9,2.9-5.2,5.6c-3.7,7.5-7.5,29.7,3.4,31.8
			C41.2,102.2,41.3,101.8,41.4,101.3z"/>
		<path fill="#1B2A54" d="M50.5,132.5c-0.2,0.9-0.4,1.8-0.6,2.7c8.7,9.6,21.4,14.7,33.8,17.7c6.6,1.6,13.5,3,20.2,1.7
			c0.5-0.1,1-0.2,1.5-0.3c0.2-0.5,0.3-1,0.5-1.5c0.6-1.6,3-1.1,3,0.3c4.2-1.8,7.9-4.7,11.1-8c9.7-10,16.9-23,21.7-35.9
			c1.5-4.1,3.3-9,4.6-14c-0.8-0.4-1.2-1.6-0.5-2.4c0.5-0.6,1-1.3,1.5-1.9c1.6-8.6,1.2-17.2-4.4-23.4c-0.9,0.5-1.9,1-2.9,1.4
			c6.9,6.7,5.2,16.7,3.3,25.2c-1.8,7.8-4.4,15.4-7.8,22.6c-3,6.5-7,14.1-12,20.8c0,0.2,0.1,0.4,0.1,0.6c0.2,0.8-0.2,1.6-1,1.8
			c-0.3,0.1-0.7,0-1-0.1c-0.9,1.1-1.9,2.1-2.9,3.1c0.2,0.3,0.3,0.7,0.6,1c1.1,1.6-1.5,3.1-2.6,1.5c-0.1-0.1-0.2-0.3-0.2-0.4
			c-3,2.7-6.4,4.8-9.9,6c-2.3,0.8-4.6,1.2-7,1.3c0,1.8-2.8,1.8-3,0c-1.9-0.1-3.8-0.3-5.6-0.6c-0.4,1.6-3,1.4-3-0.4V151
			c-2.2-0.5-4.5-1.1-6.6-1.6c-0.5-0.1-1-0.3-1.4-0.4c0,0.2-0.1,0.3-0.1,0.5c-0.4,1.9-3.3,1.1-2.9-0.8c0-0.2,0.1-0.4,0.1-0.6
			c-2.4-0.8-4.9-1.7-7.2-2.7c-0.2,0.3-0.5,0.7-0.7,1c-0.5,0.7-1.3,1-2.1,0.5c-0.7-0.4-1-1.4-0.5-2.1c0.2-0.3,0.3-0.5,0.5-0.8
			c-1.4-0.7-2.8-1.4-4.1-2.2c-0.2,0.1-0.3,0.3-0.5,0.4c-0.6,0.5-1.5,0.6-2.1,0c-0.5-0.5-0.6-1.5,0-2.1c-1.2-0.8-2.4-1.7-3.6-2.7
			c-0.1,0.1-0.3,0.2-0.4,0.3c-0.7,0.5-1.7,0.1-2.1-0.5c-0.4-0.6-0.2-1.3,0.2-1.8c-0.6-0.6-1.2-1.2-1.8-1.8c-1.1,0.5-2.8-0.7-2-2.1
			c0,0,0-0.1,0.1-0.1c-0.9-1.1-1.7-2.2-2.5-3.4c-0.4,0.4-0.9,0.6-1.5,0.4c-0.8-0.2-1.3-1.1-1-1.8c0.2-0.5,0.3-0.9,0.5-1.4
			c0.1-0.2,0.1-0.3,0.2-0.4c-0.5-0.9-0.9-1.9-1.3-2.9c-1,0.4-2.5-0.4-2.1-1.7c0.2-0.8,0.5-1.6,0.7-2.4c-1.3-4.9-1.3-10,0.3-15.2
			c0.1-0.2,0.1-0.4,0.2-0.6c0.6-1.8-2.3-2.6-2.9-0.8c-0.1,0.4-0.3,0.9-0.4,1.3c-2.8,10.3,0.1,21.1,6.5,29.5c0-0.2,0.1-0.4,0.1-0.6
			C48,129.9,50.9,130.7,50.5,132.5z"/>
		<path fill="#1B2A54" d="M45.4,64.3L45.4,64.3C43.9,47.2,54.5,32.2,71,28.1c-0.1,0-0.1-0.1-0.2-0.1c-0.3-0.1-0.5-0.3-0.7-0.6
			c-0.5-0.5-0.5-1.1-0.4-1.6c0-0.1,0-0.3,0-0.4c-17.5,4.6-28.9,20.8-27.3,39c0,0.4,0.2,0.7,0.4,0.9C43.8,66.2,45.5,65.9,45.4,64.3z"
			/>
		<path fill="#1B2A54" d="M56.5,85.3c1.2,2.1,3.7,3.3,6,2.2c3.8-1.7,3.4-6.2,3.3-9.6c-0.1-5.8,1.6-11.3,5.3-15.9
			c3.4-4.1,7.7-5.5,11.8-8.4c0.9-0.6,1.7-1.3,2.3-2.1c-0.8-0.7-1.4-1.5-1.9-2.3c-0.1-0.1-0.1-0.3-0.2-0.4c-1.1,2-3.4,3.1-5.8,4.3
			c-2.2,1.1-4.2,2.5-6.1,4.2c-3.5,3.2-6.1,7.4-7.5,11.8c-0.7,2.4-1.1,4.9-1.2,7.3c0,1.5,0.6,3.4,0.1,4.8c0.4,2.6-0.9,2.6-3.9,0
			c0.4-1.3,1-2.4,1.7-3.6c0.5-0.8,0.1-1.5-0.4-1.9c-0.7-0.5-1.6-0.5-2.2,0.4c-0.4,0.7-0.8,1.4-1.2,2.1C55.9,80.6,55.3,83,56.5,85.3z
			"/>
		<path fill="#1B2A54" d="M83.4,44.8c0.3,1,0.3,1.9,0.2,2.7c0.6-0.5,1.7-0.6,2.3,0.3c0.2,0.4,0.5,0.7,0.8,1c0.2-0.7,0.2-1.5,0.2-2.3
			c-0.5-8.1-8-16-14.1-20.8c0,0.2,0.1,0.3,0.1,0.5c0.3,1.3-1,2.1-2,1.8c0.1,0,0.1,0.1,0.2,0.1C76.3,32.3,81.7,38.3,83.4,44.8z"/>
		<path fill="#1B2A54" d="M69.9,27c-0.1-0.4-0.2-0.8-0.2-1.2c-0.2,0.5-0.1,1.2,0.4,1.6C70,27.3,69.9,27.2,69.9,27z"/>
		<path fill="#1B2A54" d="M76.4,16.9c1.6-0.3,2.4,1.7,1.5,2.5C85.3,20,92,23,94.1,31.4c0.5,1.9,3.4,1.1,2.9-0.8
			c-3.8-15-20-15.3-32.7-13.2c-1.6,1.2-3.2,2.3-4.8,3.5c-0.1,0.1-0.2,0.1-0.3,0.2c0.3,0.2,0.6,0.2,1,0.1c3.5-0.7,7.6-1.5,11.6-1.7
			C73.1,18.1,74.6,17.2,76.4,16.9z"/>
		<path fill="#1B2A54" d="M69.9,27c0,0.2,0.1,0.3,0.2,0.4c0.2,0.3,0.4,0.5,0.7,0.6c1,0.3,2.3-0.5,2-1.8c0-0.2-0.1-0.3-0.1-0.5
			c-0.4-2.9,1.7-5.6,4.5-6.1c0.3-0.1,0.6-0.2,0.7-0.4c0.8-0.9,0-2.8-1.5-2.5c-1.8,0.3-3.3,1.2-4.5,2.5c-1.5,1.6-2.4,3.9-2.3,6.1
			c0,0.1,0,0.3,0,0.4C69.7,26.2,69.8,26.6,69.9,27z"/>
		<path fill="#1B2A54" d="M64.3,17.3c8.4-5.9,17.5-11.1,27.8-11.4c12.4-0.4,26.1,8.8,23.3,22.7c-0.4,1.9,2.5,2.7,2.9,0.8
			c1.5-7.7-1.4-14.7-6.7-19.6c-0.7,0.9-2.4,1-2.6-0.4c-0.1-0.7-0.3-1.4-0.6-2.1c-2.8-1.9-6.1-3.2-9.5-3.9C83.5,0.6,69.7,9.4,58,18.2
			c-1.4,1.1-0.2,3.5,1.3,2.7c0.1,0,0.2-0.1,0.3-0.2C61.1,19.6,62.7,18.4,64.3,17.3z"/>
		<path fill="#1B2A54" d="M109.1,9.3c0.3,1.4,1.9,1.3,2.6,0.4c0.2-0.3,0.4-0.7,0.3-1.2c-0.7-3.8-2.7-7.1-5.6-9.4
			c-2-0.4-4.2-0.7-6.3-0.8c-1.2,0-1.6-1.1-1.4-2c-0.6,0.8-0.6,2.1,0.7,2.4c4.4,1.1,7.8,4.3,9.2,8.5C108.8,7.8,109,8.5,109.1,9.3z"/>
		<path fill="#1B2A54" d="M100.1-1.7c2.2,0.1,4.3,0.3,6.3,0.8c19.5,4.2,31.9,24.3,25.8,44.3c-0.6,1.8,2.3,2.6,2.9,0.8
			c2.7-8.8,2.1-17.5-1-25.2c-0.8,0.6-2.4,0.3-2.6-1.1l-0.4-4.7c-6.4-10.3-17.6-17.5-30.9-17.9c-0.8,0-1.2,0.4-1.4,1
			C98.5-2.8,99-1.7,100.1-1.7z"/>
		<path fill="#1B2A54" d="M131.5,17.8c0.1,1.4,1.7,1.8,2.6,1.1c0.3-0.2,0.5-0.6,0.4-1.1l-0.8-9.3c-0.8-0.8-1.6-1.6-2.4-2.3
			c-0.5-0.5-0.6-1.1-0.3-1.6c-0.3,0.2-0.5,0.6-0.5,1.2l0.6,7.3L131.5,17.8z"/>
		<path fill="#1B2A54" d="M131.3,6.2c0.8,0.7,1.6,1.5,2.4,2.3c10.2,10.3,16.3,24.7,15.5,39.4c-0.4,8.4-4.2,18.4-13.9,18.7
			c-10.4,0.4-16.1-10.7-11.1-19.4c1-1.7-1.6-3.2-2.6-1.5c-2,3.5-2.7,7.5-2,11.2c0.3-0.1,0.5-0.3,0.8-0.4c1.7-1,3.2,1.6,1.5,2.6
			c-0.5,0.3-1,0.6-1.5,0.8c1.2,3.3,3.5,6.2,6.9,8c4.1,2.2,8.6,2.3,12.5,0.9c1-0.4,2-0.8,2.9-1.4c2.5-1.5,4.6-3.6,6.1-6.3
			c1-1.8,1.8-3.8,2.4-5.8c-0.3-0.8-0.7-1.6-1.1-2.4c-0.7-1.4,0.9-2.7,2-2.1c0.9-6.5,0-13.2-1.6-19.2c-2.8-10.6-8.9-20.3-17-27.6
			c-0.9-0.8-2.1-0.3-2.5,0.5C130.7,5.2,130.7,5.8,131.3,6.2z"/>
		<path fill="#1B2A54" d="M99,53.4c-1-1.7,1.6-3.2,2.6-1.5c0.3,0.5,0.6,0.9,0.9,1.4c2.5-1.4,4.5-3.5,5.2-6.4
			c1.6-6.2,0.9-14.6-0.7-20.7c-1.5-5.8-4.7-10.6-9.9-13.5c-1.7-0.9-3.2,1.7-1.5,2.6c8.5,4.7,9.6,14.4,9.6,23.2
			c0,5.5,0.1,11.8-6.7,13c-3.8,0.7-9.2,0.4-11.9-2.7c-0.3-0.3-0.6-0.7-0.8-1c-0.5-0.9-1.6-0.9-2.3-0.3c-0.4,0.3-0.7,0.9-0.5,1.5
			c0,0.1,0.1,0.2,0.2,0.4c0.5,0.9,1.2,1.7,1.9,2.3c3.6,3.3,9.5,4.2,14.4,2.7C99.5,54.1,99.3,53.8,99,53.4z"/>
		<path fill="#1B2A54" d="M102.5,53.3c-0.3-0.4-0.6-0.9-0.9-1.4c-1-1.7-3.6-0.2-2.6,1.5c0.2,0.4,0.4,0.7,0.7,1
			c4.7,6.9,13.2,9.1,20.6,5.6c0.5-0.2,1-0.5,1.5-0.8c1.7-1,0.1-3.6-1.5-2.6c-0.3,0.2-0.5,0.3-0.8,0.4
			C113.5,60.2,106.5,58.7,102.5,53.3z"/>
		<path fill="#1B2A54" d="M125.2,34.1c1.7-4.8,1.9-9.6,0.7-14.5c-0.5-1.9-3.4-1.1-2.9,0.8c1.1,4.4,0.9,8.8-0.7,12.9
			C121.7,35.2,124.6,36,125.2,34.1z"/>
		<path fill="#1B2A54" d="M135.1,55.6c8.3-4.1,11.7-13.4,8.2-21.9c-0.7-1.8-3.6-1-2.9,0.8c3.1,7.4,0.4,14.9-6.8,18.5
			C131.8,53.8,133.4,56.4,135.1,55.6z"/>
		<path fill="#1B2A54" d="M150,53c0.4,0.8,0.8,1.6,1.1,2.4c4.8,11.6,3.3,25.1-4,35.3c-0.5,0.7-0.9,1.3-1.5,1.9
			c-0.7,0.9-0.3,2,0.5,2.4c0.5,0.3,1.1,0.3,1.6-0.3c9.9-12.2,11.8-29.1,4.9-43.3c-0.1-0.3-0.3-0.5-0.6-0.6
			C150.9,50.3,149.3,51.6,150,53z"/>
		<path fill="#1B2A54" d="M90.2,86.2c-0.4-1.9-2.5-3.2-4.3-2.5c-0.8,0.3-1.4,0.9-1.8,1.7c-0.3,0.3-0.5,0.7-0.6,1.2
			c-0.5,2.1,1.4,3.9,3.4,3.9C88.9,90.3,90.6,88.2,90.2,86.2z"/>
		<path fill="#1B2A54" d="M80.6,75.9c5.1,2.1,10.3,3.9,15.6,5.2c1.9,0.5,2.7-2.4,0.8-2.9c-5.4-1.3-10.5-3-15.6-5.2
			C79.6,72.2,78.9,75.1,80.6,75.9z"/>
		<path fill="#1B2A54" d="M120.9,89.7c4.2,2.9,8.3,5.9,12.4,8.8c1.6,1.1,3.1-1.5,1.5-2.6c-4.2-2.9-8.3-5.9-12.4-8.8
			C120.8,86,119.3,88.6,120.9,89.7z"/>
		<path fill="#1B2A54" d="M124.6,95.9c-2.7-1.4-5.5,1.7-4.2,4.4c0.6,1.3,2.1,2,3.5,1.7c1.3-0.2,2.2-1.4,2.3-2.7c0-0.1,0-0.3,0-0.4
			C126.4,97.6,125.7,96.4,124.6,95.9z"/>
		<path fill="#1B2A54" d="M92.5,126.4c-5.3-0.1-10-2-13.9-5.6c-1.4-1.3-3.5,0.8-2.1,2.1c4.5,4.1,9.9,6.4,16,6.4
			C94.4,129.4,94.4,126.4,92.5,126.4z"/>
		<path fill="#1B2A54" d="M88.7,109c0.5,0.3,1,0.6,1.4,0.9c1.9-4.8,3.8-9.6,5.7-14.4c0.7-1.8-2.2-2.6-2.9-0.8
			c-1.9,4.8-3.7,9.4-5.6,14.2C87.7,108.6,88.2,108.6,88.7,109z"/>
		<path fill="#1B2A54" d="M97.1,113.2c-2.5-0.8-4.8-1.9-7-3.3c-0.5-0.3-1-0.6-1.4-0.9c-0.5-0.3-1-0.3-1.3-0.1
			c-0.9,0.5-1.3,2-0.2,2.7c3.1,2.2,6.5,3.8,10,4.8c1,0.3,1.7-0.4,1.8-1.2C97.9,115.8,96.3,114.5,97.1,113.2z"/>
		<path fill="#1B2A54" d="M111.8,89.5c-4.9,7.9-9.8,15.7-14.7,23.6l0,0c-0.8,1.3,0.8,2.6,2,2c0.2-0.1,0.5-0.3,0.6-0.6
			c4.9-7.9,9.8-15.7,14.7-23.6C115.4,89.4,112.8,87.9,111.8,89.5z"/>
		<path fill="#1B2A54" d="M84.3,112.8c-1.8,0.5-3.7,1.1-5.5,1.6c-1.9,0.5-1.1,3.4,0.8,2.9c1.8-0.5,3.7-1.1,5.5-1.6
			C87,115.1,86.2,112.3,84.3,112.8z"/>
		<path fill="#1B2A54" d="M71.4,115.3c2.4-1.2,5-2.1,7.7-2.5c1.9-0.3,1.1-3.2-0.8-2.9c-2.9,0.5-5.7,1.5-8.4,2.8
			C68.2,113.5,69.7,116.1,71.4,115.3z"/>
		<path fill="#1B2A54" d="M61,115.8c1.6-0.9,3.3-1.8,4.9-2.8c1.7-0.9,0.2-3.5-1.5-2.6c-1.6,0.9-3.3,1.8-4.9,2.8
			C57.8,114.2,59.3,116.8,61,115.8z"/>
		<path fill="#1B2A54" d="M66.3,118.5c0-0.7-0.7-1.6-1.5-1.5c-2.3,0.3-4.4,1-6.3,2.4c-0.6,0.5-1,1.3-0.5,2.1c0.4,0.6,1.4,1,2.1,0.5
			c1.4-1.1,3-1.8,4.8-2C65.6,119.9,66.3,119.4,66.3,118.5z"/>
		<path fill="#1B2A54" d="M66.2,123.7c-1.8,1.1-3.5,2.2-5.3,3.3c-1.6,1-0.1,3.6,1.5,2.6c1.8-1.1,3.5-2.2,5.3-3.3
			C69.4,125.3,67.9,122.7,66.2,123.7z"/>
		<path fill="#1B2A54" d="M69,129.2c-1.3,1.2-2.5,2.4-3.8,3.6c-1.4,1.3,0.7,3.5,2.1,2.1c1.3-1.2,2.5-2.4,3.8-3.6
			C72.5,130,70.4,127.8,69,129.2z"/>
		<path fill="#1B2A54" d="M78.5,133.8c-0.9-0.2-1.5,0.3-1.8,1c-0.6,1.5-1.2,3.1-1.8,4.6c-0.3,0.8,0.3,1.6,1,1.8
			c0.9,0.2,1.5-0.3,1.8-1c0.6-1.5,1.2-3.1,1.8-4.6C79.8,134.8,79.2,134,78.5,133.8z"/>
		<path fill="#1B2A54" d="M86.6,136.4c-0.7-0.2-1.7,0.3-1.8,1c-0.2,1-0.4,2.1-0.6,3.1c-0.2,0.8,0.2,1.6,1,1.8c0.7,0.2,1.7-0.3,1.8-1
			c0.2-1,0.4-2.1,0.6-3.1C87.8,137.5,87.4,136.6,86.6,136.4z"/>
		<path fill="#1B2A54" d="M91.8,139.1l0.3,4.3c0.1,1.9,3.1,1.9,3,0l-0.3-4.3C94.7,137.2,91.7,137.2,91.8,139.1z"/>
		<path fill="#1B2A54" d="M101.1,135.8c-0.6-1.8-3.5-1-2.9,0.8l2.1,5.9c0.6,1.8,3.5,1,2.9-0.8C102.5,139.6,101.8,137.6,101.1,135.8z
			"/>
		<path fill="#1B2A54" d="M100.8,122.4c-0.8-0.8-1.4-1.6-1.8-2.7c-0.6-1.8-3.5-1.1-2.9,0.8c0.5,1.6,1.3,3,2.5,4.1
			C100.1,125.8,102.3,123.7,100.8,122.4z"/>
		<path fill="#1B2A54" d="M100.3,129.5c1,2,2.1,3.9,3.1,5.9c0.9,1.7,3.5,0.2,2.6-1.5l-3.1-5.9C102,126.3,99.5,127.8,100.3,129.5z"/>
		<path fill="#1B2A54" d="M93,121.3v-3.1c0-1.9-3-1.9-3,0v3.1C90,123.3,93,123.3,93,121.3z"/>
		<path fill="#1B2A54" d="M112,137.3c-0.2-1.9-3.2-1.9-3,0c0.3,2.3,0.6,4.5,0.9,6.8c0.2,1.9,3.2,1.9,3,0
			C112.6,141.8,112.3,139.5,112,137.3z"/>
		<path fill="#1B2A54" d="M106.5,145.7c0.5-1.9-2.4-2.7-2.9-0.8c-0.5,1.9,0,3.7,1.2,5.2c0.5,0.6,1.6,0.5,2.1,0
			c0.6-0.6,0.5-1.5,0-2.1C106.4,147.3,106.3,146.5,106.5,145.7z"/>
		<path fill="#1B2A54" d="M99.1,147.1c-0.1-1.9-3.1-1.9-3,0c0.1,1.6,0.2,3.3,0.3,4.9v0.1c0.2,1.8,3,1.8,3,0V152
			C99.3,150.4,99.2,148.8,99.1,147.1z"/>
		<path fill="#1B2A54" d="M90.9,147.4c0-1.9-3-1.9-3,0v3.5v0.2c0,1.8,2.6,1.9,3,0.4c0-0.1,0-0.2,0-0.4V147.4z"/>
		<path fill="#1B2A54" d="M77.9,144.6c-0.3,1.1-0.5,2.3-0.8,3.4c0,0.2-0.1,0.4-0.1,0.6c-0.4,1.9,2.5,2.7,2.9,0.8
			c0-0.2,0.1-0.3,0.1-0.5c0.3-1.2,0.5-2.3,0.8-3.5C81.2,143.5,78.3,142.7,77.9,144.6z"/>
		<path fill="#1B2A54" d="M70.7,141.1c-0.7-0.4-1.6-0.1-2.1,0.5c-0.5,0.8-1.1,1.6-1.6,2.4c-0.2,0.3-0.3,0.5-0.5,0.8
			c-0.5,0.7-0.1,1.7,0.5,2.1c0.7,0.4,1.6,0.1,2.1-0.5c0.2-0.3,0.5-0.7,0.7-1c0.5-0.7,0.9-1.4,1.4-2.1
			C71.7,142.5,71.4,141.5,70.7,141.1z"/>
		<path fill="#1B2A54" d="M65.3,137.7c-0.6-0.6-1.5-0.5-2.1,0c-0.9,0.8-1.8,1.6-2.8,2.5l0,0c-0.6,0.5-0.5,1.5,0,2.1
			c0.6,0.6,1.5,0.5,2.1,0c0.2-0.1,0.3-0.3,0.5-0.4c0.8-0.7,1.5-1.3,2.3-2C65.9,139.3,65.8,138.3,65.3,137.7z"/>
		<path fill="#1B2A54" d="M60,133.8c-0.4-0.7-1.4-1-2.1-0.5c-1,0.7-2.1,1.4-3.1,2.1c-0.1,0.1-0.2,0.2-0.3,0.3
			c-0.4,0.5-0.6,1.2-0.2,1.8c0.4,0.7,1.4,1,2.1,0.5c0.1-0.1,0.3-0.2,0.4-0.3c0.9-0.6,1.8-1.2,2.7-1.8
			C60.2,135.4,60.5,134.5,60,133.8z"/>
		<path fill="#1B2A54" d="M51.9,98.3c0.9,0.2,1.5-0.3,1.8-1c0.8-2,1.6-3.9,2.5-5.9c0.3-0.8-0.3-1.6-1-1.8c-0.9-0.2-1.5,0.3-1.8,1
			c-0.8,2-1.6,3.9-2.5,5.9C50.5,97.2,51.2,98.1,51.9,98.3z"/>
		<path fill="#1B2A54" d="M39.7,167.6c4.3-10.5,7.7-21.4,10.1-32.4c0.2-0.9,0.4-1.8,0.6-2.7c0.4-1.9-2.5-2.7-2.9-0.8
			c0,0.2-0.1,0.4-0.1,0.6c-2.6,11.6-6.1,23.1-10.5,34.1c0.4,0.7,0.8,1.4,1.1,2.2C38.7,168.7,39.4,168.4,39.7,167.6z"/>
		<path fill="#1B2A54" d="M105.8,152.8c-0.2,0.5-0.3,1-0.5,1.5c-2.1,6.9-1.6,13.9,1.4,20.6c0.4,0.9,1.3,0.9,1.9,0.5
			c0.2-0.5,0.5-1.1,0.8-1.6c0-0.1-0.1-0.3-0.1-0.4c-2.8-6.4-2.9-13.2-0.6-19.8c0.1-0.2,0.1-0.3,0.1-0.5
			C108.8,151.7,106.4,151.2,105.8,152.8z"/>
		<path fill="#1B2A54" d="M79.6,175.5c3-0.8,5.1-3.2,6.9-5.5c1.2-1.5-0.9-3.6-2.1-2.1c-2,2.5-6.2,7.3-9.3,3.6
			c-1.3-1.5-3.4,0.7-2.1,2.1C74.5,175.6,77.1,176.2,79.6,175.5z"/>
		<path fill="#1B2A54" d="M101.1,205.9c0.1-1.2,0.2-2.4,0.3-3.6c-0.2,0-0.4,0.1-0.6,0.2c-16.9,11.1-39.9,11.7-56.1-1c0,0,0,0-0.1,0
			c0.2,1.3,0.4,2.7,0.5,4C61.9,216.9,84,216.5,101.1,205.9z"/>
		<path fill="#1B2A54" d="M101.7,223.2c-0.1-1-0.3-2-0.4-3.1c-17.5,6.3-37.5,7.9-54.1-1.7c-0.2-0.1-0.4-0.2-0.6-0.2
			c0.1,1.2,0.3,2.3,0.4,3.5C63.9,230.7,84.1,229.4,101.7,223.2z"/>
		<path fill="#1B2A54" d="M38.7,420.4c0.2,0,0.5,0,0.7,0c12.2-65.4,14.9-132.6,7.8-198.7c-0.1-1.2-0.2-2.3-0.4-3.5
			c-0.3-2.7-0.6-5.4-1-8c-0.2-1.6-0.4-3.1-0.6-4.7c-0.2-1.3-0.3-2.7-0.5-4c-1-7.5-2.1-14.9-3.5-22.4c-0.7-3.7-1.6-7.4-3.1-10.6
			c-0.3-0.7-0.7-1.5-1.1-2.2c-1.2-2-2.6-3.9-4.5-5.5c-0.2,0.4-0.5,0.6-0.9,0.8c-0.7,0.2-1.4,0.4-2.1,0.6c0,0,0,0,0.1,0.1
			c7.2,5.1,8.3,14.6,9.5,22.7c1.6,9.5,3,19.2,4.1,28.8c2.2,18.6,3.7,37.3,4.4,56c0.5,14.7,0.6,29.5,0.2,44.3c1.1,4.6,1.9,9.3,2.2,14
			c0.1,1.7-2.1,1.9-2.8,0.7c-0.9,17.5-2.4,34.9-4.7,52.3c-2.7,21.3-6.5,42.5-11.2,63.5c1.5,0,2.2,2,1,2.7c0.7,0.1,1.4-0.1,1.6-1
			c1.7-7.7,3.3-15.3,4.8-23h-0.1C36.8,423.3,36.8,420.3,38.7,420.4z"/>
		<path fill="#1B2A54" d="M101.4,202.4c-0.1,1.2-0.2,2.4-0.3,3.6c-0.3,4.8-0.2,9.4,0.3,14.2c0.1,1,0.2,2,0.4,3.1
			c0.7,5.1,1.7,10.1,3.2,15.1c7.4,24.7,21.7,47.1,24.4,73.1c0,0.2,0.1,0.4,0.2,0.5c0.9-0.6,1.8-1.3,2.7-1.9
			c-2.8-23.5-14.6-44.2-22.3-66.2c-8.8-25.5-8.2-52,6-75.5c0.1-0.1,0.1-0.3,0.2-0.4c-0.8,0-1.6,0-2.4,0.1c-0.4,0-0.7-0.1-0.9-0.2
			c-1.2,2-2.2,4.1-3.2,6.1c-0.3,0.5-0.5,1.1-0.8,1.6C104.7,184,102.3,193.1,101.4,202.4z"/>
		<path fill="#1B2A54" d="M132.3,444.4c5.7-32.4,7.4-65.4,5.2-98.4c0-0.6-0.4-1.1-0.9-1.3c-0.7,0.5-1.4,1-2.1,1.4
			c1.6,24.6,1.1,49.1-1.7,73.6c1.1,0.5,1,2.4-0.3,2.8c-0.9,7.1-1.9,14.1-3.1,21.2c0,0.1,0,0.2,0,0.2c0.1,0,0.1,0,0.2,0
			C130.5,444.2,131.4,444.3,132.3,444.4z"/>
		<path fill="#1B2A54" d="M167.1,450.3c-0.1-0.7-0.3-1.4-0.4-2.1c-11.4-1.3-22.9-2.5-34.3-3.8c-0.9-0.1-1.9-0.2-2.8-0.3
			c-0.1,0-0.1,0-0.2,0c-1.7,0-1.7,2.8,0.2,3c13.4,1.5,26.9,3,40.2,4.5c1.9,0.2,1.9-2.8,0-3c0.1,0.3,0.1,0.6,0.2,0.9
			C170.4,451.3,167.5,452.1,167.1,450.3z"/>
		<path fill="#1B2A54" d="M116,167.8c5.7-0.1,11.3,0.9,16.6,3.2c2.8,1.2,5.5,2.7,7.9,4.5c1.3,1,4.3,3.2,5.1,4.7
			c1.4,2.9-0.6,5.3-2.4,7.3c-7.8,8.8-13.7,17.7-17,29.1c-0.5,1.9,2.4,2.7,2.9,0.8c0.8-2.7,1.7-5.3,2.7-7.8c-0.4-0.3-0.8-0.6-1.2-0.9
			c-1.6-1.1-0.1-3.7,1.5-2.6c0.3,0.2,0.6,0.5,1,0.7c2.2-4.5,4.8-8.8,8.1-12.6c1.2-1.4,2.8-2.9,4.3-4.6c-0.1,0-0.1,0-0.2-0.1
			c-1.8-0.7-1-3.6,0.8-2.9c0.4,0.2,0.9,0.4,1.3,0.6c1.5-2.1,2.4-4.5,1.6-7c-1.7-5.6-10-9.7-14.8-11.8c-6.5-2.8-13.4-3.9-20.4-3.4
			c-1.6,0.1-1.9,2.1-0.9,2.8c0.2,0.2,0.5,0.2,0.9,0.2C114.3,167.9,115.2,167.8,116,167.8z"/>
		<path fill="#1B2A54" d="M132.7,258.2c-2.5,16.7-1.9,33.6,1.5,50.1v0.1c0.9-0.7,1.8-1.4,2.6-2.1c-4-19.9-3.6-40.3,1.2-60
			c3.2-13.1,7.4-30.1-5.2-39.6c-0.3-0.2-0.6-0.5-1-0.7c-1.6-1.1-3.1,1.5-1.5,2.6c0.4,0.3,0.8,0.6,1.2,0.9
			C145.8,220.8,134.9,243.8,132.7,258.2z"/>
		<path fill="#1B2A54" d="M118.7,319.5c0.1-1.3,2-2.2,2.8-0.8c0.2,0.4,0.5,0.8,0.7,1.3c13.4-7.6,25.4-17.6,34.9-29.8
			c3.7-4.7,7.8-10.5,6.7-16.8c-0.9-5.2-5.3-9.3-10.6-8.9c-0.9,0.1-1.4,0.8-1.4,1.5c0.3-0.2,0.6-0.5,0.9-0.7c1.4-1,2.8,1.1,1.9,2.3
			c3.7,0.4,6.4,3.9,6.5,7.7c0.1,3.6-1.8,7.1-3.7,9.9c-2.2,3.3-4.7,6.3-7.4,9.3c0,1.1,0.1,2.2,0.1,3.2c0.1,1.9-2.9,1.9-3,0
			c0-0.1,0-0.1,0-0.2c-0.3,0.3-0.5,0.5-0.8,0.8c-3,3-6.1,5.8-9.3,8.4c-0.9,0.7-1.8,1.4-2.6,2.1c-0.7,0.5-1.4,1.1-2.2,1.6
			c-0.9,0.6-1.8,1.3-2.7,1.9c-3.3,2.2-6.6,4.3-10,6.2C118.8,318.4,118.6,319,118.7,319.5z"/>
		<path fill="#1B2A54" d="M149.9,297.4c-0.1-1.1-0.1-2.2-0.1-3.2c-0.1-3.9-0.1-7.7,0.1-11.5c0.3-4.6-0.1-11.9,4.2-14.9
			c0.1-0.1,0.3-0.2,0.3-0.3c0.9-1.2-0.4-3.3-1.9-2.3c-0.3,0.2-0.6,0.5-0.9,0.7c-2.8,2.4-3.6,5.7-4.1,9.3c-1,7.3-1,14.6-0.6,21.9
			c0,0.1,0,0.1,0,0.2C147,299.3,150,299.4,149.9,297.4z"/>
		<path fill="#1B2A54" d="M143.1,345.9c0.1,0,0.2-0.1,0.2-0.1C143.2,345.8,143.2,345.9,143.1,345.9z"/>
		<path fill="#1B2A54" d="M143.4,345.7L143.4,345.7L143.4,345.7z"/>
		<path fill="#1B2A54" d="M142.9,346C143,346,143,346,142.9,346C143,346,143,346,142.9,346z"/>
		<path fill="#1B2A54" d="M121.4,318.7c-0.7-1.5-2.7-0.6-2.8,0.8c0,0.2,0,0.5,0.2,0.8c1.3,2.6,2.8,5,4.4,7.3c0.3-0.2,0.7-0.3,1-0.5
			c1.8-0.7,3.3,1.8,1.5,2.6c-0.3,0.1-0.5,0.2-0.8,0.3c3.2,4.3,7,8.2,11.1,11.6c1.1-0.6,2.1,0.5,2,1.6c1.2,0.9,2.4,1.8,3.6,2.6
			c-0.7-0.6-0.9-1.8,0.1-2.5c0.3-0.2,0.5-0.4,0.7-0.5c-8.7-5.9-15.5-13.5-20.5-22.7C121.9,319.6,121.6,319.2,121.4,318.7z"/>
		<path fill="#1B2A54" d="M147.2,187.2c-0.4-0.2-0.9-0.4-1.3-0.6c-1.8-0.7-2.6,2.2-0.8,2.9c0.1,0,0.1,0,0.2,0.1
			c15.2,6.3,26.6,18.6,35.6,32c9,13.2,17.3,28.3,19.1,44.4c2,17.9-7.1,31.6-19.5,43.5c-9.3,9-18.8,18.2-28.9,26.5
			c0.9-0.5,2.3-0.1,2.4,1.2c0,0.2,0,0.3,0,0.5c7.7-6.5,14.8-13.4,22.2-20.1c9.7-8.8,19.8-18,24.5-30.6c9.4-25.4-7.1-54.2-22.2-73.8
			C170,202.1,159.8,192.7,147.2,187.2z"/>
		<path fill="#1B2A54" d="M141.8,343.2c-1,0.7-0.8,1.9-0.1,2.5c0.3,0.3,0.8,0.4,1.2,0.3c0,0,0,0,0.1,0h0.1c0.1,0,0.1-0.1,0.2-0.1
			l0,0c0,0,0.1,0,0.1-0.1l0,0c2.6-1.9,5.2-3.8,7.7-5.8c-0.1-0.9-0.2-1.9-0.2-2.8c0-0.4,0.1-0.8,0.3-1c-2.8,2.3-5.7,4.5-8.6,6.6
			C142.3,342.8,142.1,343,141.8,343.2z"/>
		<path fill="#1B2A54" d="M0.3,177.9c0.3,0.5,0.6,1.1,0.9,1.6c8.1-7.9,17.6-13.6,28.3-17.1c0.7-0.2,1.4-0.4,2.1-0.6
			c0.5-0.1,0.8-0.4,0.9-0.8c0.4-1-0.3-2.5-1.7-2.1c-11.8,3.5-22.6,9.7-31.4,18.3C-0.3,177.2,0,177.5,0.3,177.9z"/>
		<path fill="#1B2A54" d="M17.2,206c-0.3,1-0.6,2-0.9,3.1c3.1,4.3,6.4,8.5,9.7,12.5c1.2,1.5,3.3-0.6,2.1-2.1
			c-3.9-4.6-7.5-9.3-11-14.2C17.3,205.4,17.3,205.7,17.2,206z"/>
		<path fill="#1B2A54" d="M1,182.8c-0.3,0.3-0.6,0.7-0.9,1c4.3,7.6,9,15,14,22.1c0.1-0.3,0.1-0.5,0.2-0.8c0.4-1.1,1.6-1.3,2.3-0.8
			c-5.7-8-10.8-16.2-15.5-24.8c-0.3-0.5-0.6-1.1-0.9-1.6c-0.2-0.4-0.6-0.7-1-0.7c-1.1-0.2-2.3,1-1.6,2.2c0.3,0.5,0.6,1.1,0.9,1.6
			c0.1-0.1,0.2-0.2,0.3-0.3C0.2,179.3,2.3,181.4,1,182.8z"/>
		<path fill="#1B2A54" d="M16.4,209c0.3-1,0.5-2,0.9-3.1c0.1-0.3,0.1-0.5,0-0.8c-0.1-0.4-0.3-0.6-0.6-0.8c-0.8-0.5-2-0.4-2.3,0.8
			c-0.1,0.3-0.1,0.5-0.2,0.8c-13.5,44.5,30.1,79.9,32.9,122.4c0,0.3,0.1,0.5,0.2,0.7c0.7,1.2,2.9,1,2.8-0.7c-0.3-4.8-1.1-9.4-2.2-14
			c-3.7-15.1-11.2-29.1-18.3-43.2C19.8,252,10.9,230.5,16.4,209z"/>
		<path fill="#1B2A54" d="M-1.5,368.1c0.3,0.8,0.7,1.7,1.1,2.7c9.6,2.1,19.5,2.3,29.1,0.5c0.8-0.8,1.7-1.7,2.5-2.6
			c0.9-0.9,2.2-0.3,2.5,0.7c0.2-1-0.6-2.1-1.8-1.8c-11.3,2.7-22.9,2.6-34.2-0.3C-1.9,367.4-1.6,367.7-1.5,368.1z"/>
		<path fill="#1B2A54" d="M-4.2,369.4c0-0.1-0.1-0.1-0.1-0.2C-4.2,369.2-4.2,369.3-4.2,369.4z"/>
		<path fill="#1B2A54" d="M31.3,368.7c-0.8,0.9-1.7,1.7-2.5,2.6c-1.7,1.7-3.4,3.3-5.1,4.9c-2.4,2.2-5.6,5.7-8.5,7
			c-7.2,3.2-12.8-6-15.6-12.4c-0.4-1-0.8-1.9-1.1-2.7c-0.2-0.4-0.4-0.7-0.8-0.9c-1.1-0.5-2.6,0.3-2.1,1.7c0,0.1,0.1,0.2,0.1,0.3
			c0,0.1,0.1,0.1,0.1,0.2c1.6,4,3.6,7.8,6.3,11c2.2,2.8,5.6,6.9,9.4,7.2c3.5,0.2,6.4-2.7,8.9-4.7c4.6-3.7,9-7.8,13-12
			c0.4-0.5,0.5-1,0.3-1.4C33.4,368.4,32.2,367.8,31.3,368.7z"/>
		<path fill="#1B2A54" d="M30.2,337.2c-0.4-0.1-0.8,0-1.2,0.3c-3.2,2.6-3.9,7.6-1.3,10.9c2.4,3.1,7.3,3.9,10.5,1.6
			c3.2-2.3,4.2-7.1,2.1-10.4C38.1,336.4,33.5,335.5,30.2,337.2z M29.7,346.2c-1.2-1.9-0.8-4.3,0.6-6c0.2,0,0.5-0.1,0.7-0.2
			c2.1-1.3,5.1-1.1,6.5,1c1.5,2.1,0.7,5.4-1.4,6.7C34.1,349,31,348.3,29.7,346.2z"/>
		<path fill="#1B2A54" d="M-25.3,444.1c0.5,0.1,0.9,0.2,1.4,0.3c13-58.6,16.7-119,11-178.6c-0.2-1.9-3.2-1.9-3,0
			c1.2,12.3,1.9,24.8,2.3,37.1c0.9-0.7,2.7,0.1,2.4,1.6c-0.7,3.8-1.4,7.6-2.2,11.2c0.3,43.5-4.3,86.9-13.8,129.4c0,0.1,0,0.3,0,0.4
			C-27.1,444.7-26.4,443.9-25.3,444.1z"/>
		<path fill="#1B2A54" d="M-8.2,448.6c0,0.3,0,0.7-0.1,1c2.1,0.2,4.2,0.3,6.3,0.4c2.7,0.1,5.4,0.2,8.1,0.1c0.5-0.3,1.2-0.3,1.7,0
			c0.2,0,0.5,0,0.7,0c5.8-0.2,11.5-0.6,17.3-1.5c0.3-0.9,0.5-1.8,0.8-2.8c0-0.1,0.1-0.3,0.1-0.4c-7.3,1.1-14.5,1.7-21.9,1.7
			c-1.2,0-2.5,0-3.7,0c-8.4-0.2-16.8-1.1-25.1-2.8c-0.5-0.1-0.9-0.2-1.4-0.3c-1.1-0.2-1.8,0.6-1.9,1.4c-0.1,0.7,0.2,1.3,1.1,1.5
			c5,1,9.8,1.8,14.8,2.4c0-0.2,0-0.5,0.1-0.7C-11.1,446.7-8.1,446.7-8.2,448.6z"/>
		<path fill="#1B2A54" d="M31.3,444.8c-0.1,0-0.2,0-0.3,0c-0.7,0.1-1.4,0.2-2.1,0.4c0.4,0.3,0.7,0.9,0.6,1.5c-0.1,0.5-0.3,1-0.4,1.5
			c0.9-0.2,1.9-0.3,2.8-0.5c0.2,0,0.4-0.1,0.5-0.2C33.5,446.8,32.8,444.7,31.3,444.8z"/>
		<path fill="#1B2A54" d="M155.9,385.6c2.8,21,6.4,41.8,10.6,62.6c0.1,0.7,0.3,1.4,0.4,2.1c0.4,1.9,3.3,1.1,2.9-0.8
			c-0.1-0.3-0.1-0.6-0.2-0.9c-4.5-21.4-8.2-42.9-11-64.5c-0.1-0.6-0.5-1.1-1-1.3C157.1,383.7,156.5,384.7,155.9,385.6z"/>
		<path fill="#1B2A54" d="M151.5,335.9c-0.1,0.1-0.2,0.1-0.3,0.2c-0.2,0.2-0.3,0.6-0.3,1c0.1,0.9,0.2,1.9,0.2,2.8
			c0.8,10.2,1.8,20.4,3,30.5c1-0.2,2-0.4,2.9-0.6c-1.2-10.7-2.3-21.5-3.1-32.2c0-0.2,0-0.3,0-0.5
			C153.8,335.8,152.3,335.4,151.5,335.9z"/>
		<path fill="#1B2A54" d="M154.1,370.5c-4.3,0.9-8.7,1.8-12.9,2.8c-0.7,0.1-1,0.6-1.1,1.1c0.6-0.2,1.4-0.1,1.9,0.5
			c0.3,0.4,0.5,0.7,0.8,1c6.2-1.3,12.3-2.6,18.4-3.9c-2.8,4.4-5.6,8.8-8.4,13c0.4,0.3,0.8,0.5,1.2,0.8c1.7,1,0.2,3.5-1.5,2.6
			c-0.4-0.2-0.7-0.4-1.1-0.6c0.2,1.2,2,1.9,2.8,0.6c0.6-0.9,1.1-1.8,1.7-2.7c0.6-1,1.2-1.9,1.8-2.9c2.6-4.1,5.2-8.2,7.8-12.2
			c0.7-1.2-0.5-2.5-1.7-2.2c-2.3,0.5-4.6,1-7,1.5C156,370,155.1,370.3,154.1,370.5z"/>
		<path fill="#1B2A54" d="M139.3,376.4c3.3,4.6,7.4,8.5,12.1,11.3c0.4,0.2,0.7,0.4,1.1,0.6c1.7,1,3.2-1.6,1.5-2.6
			c-0.4-0.2-0.8-0.5-1.2-0.8c-3.9-2.4-7.3-5.5-10.1-9.2c-0.3-0.3-0.5-0.7-0.8-1c-0.5-0.7-1.3-0.8-1.9-0.5
			C139.2,374.7,138.7,375.5,139.3,376.4z"/>
		<path fill="#1B2A54" d="M122.2,337.1c-1.3-1.1-2.7-1.9-4.1-2.5c-0.4,0.3-0.7,0.7-1.1,1.1c-1.3,1.4-3.3-0.5-2.3-1.9
			c-5.2-0.7-10.5,1.5-13.9,6.2c-0.2,0.3-0.3,0.5-0.3,0.8c-2.2,2.4-3.5,5.4-3.8,8.5c1.6-0.4,2.9,2,1.2,2.7c-0.4,0.2-0.8,0.3-1.2,0.5
			c0.3,2.4,1.3,4.9,3,7c1.6,2.1,3.7,3.6,6,4.5c0-0.1,0.1-0.2,0.1-0.3c0.6-1.8,3.5-1,2.9,0.8c0,0.1-0.1,0.3-0.1,0.4
			c5,1,10.4-0.5,14.2-4.4c2.6-2.6,4.1-6,4.5-9.3c-1.3,0-2.1-1.9-0.8-2.8c0.3-0.2,0.6-0.4,0.8-0.6
			C127.1,343.5,125.4,339.8,122.2,337.1z M103.3,337.4c2.3-1.1,4.6-2.2,6.8-3.3c1.7-0.8,3.2,1.7,1.5,2.6c3.1-0.3,6.4,0.6,9,3
			c5.3,4.9,5.2,13.4,0.2,18.5c-5.1,5.2-13.8,5.1-18.5-0.6c-4.7-5.8-2.8-13.7,3.5-17.3c0.5-0.3,0.7-0.7,0.7-1.1
			c-0.6,0.3-1.1,0.5-1.7,0.8C103.1,340.7,101.6,338.2,103.3,337.4z"/>
		<path fill="#1B2A54" d="M109.1,348.3c-0.2-0.2-0.3-0.4-0.4-0.7c-0.3,0.5-0.3,1.2,0.2,1.8c2,2.4,4,4.8,6,7.2
			c1.2,1.5,3.3-0.6,2.1-2.1c-1.8-2.2-3.6-4.3-5.4-6.5l-0.4,0.4C110.6,348.9,109.7,348.9,109.1,348.3z"/>
		<path fill="#1B2A54" d="M109.1,346.2c-0.4,0.4-0.5,0.9-0.4,1.4c0.1,0.3,0.2,0.5,0.4,0.7c0.6,0.6,1.5,0.6,2.1,0l0.4-0.4l2.2-2.2
			c0.6-0.6,0.6-1.5,0-2.1c-0.6-0.6-1.5-0.6-2.1,0L109.1,346.2z"/>
		<path fill="#1B2A54" d="M104.8,339.9c0.6-0.3,1.1-0.5,1.7-0.8c1.7-0.8,3.4-1.7,5.1-2.5l0,0c1.7-0.8,0.2-3.4-1.5-2.6
			c-2.3,1.1-4.6,2.2-6.8,3.3C101.6,338.2,103.1,340.7,104.8,339.9z"/>
		<path fill="#1B2A54" d="M117.1,335.7c0.3-0.4,0.7-0.7,1.1-1.1c2-1.9,4.3-3.5,6.9-4.6c0.3-0.1,0.5-0.2,0.8-0.3
			c1.8-0.8,0.2-3.3-1.5-2.6c-0.3,0.1-0.7,0.3-1,0.5c-3.1,1.5-5.9,3.5-8.3,6.1c-0.1,0.1-0.1,0.1-0.1,0.2
			C113.9,335.1,115.9,337,117.1,335.7z"/>
		<path fill="#1B2A54" d="M138.1,343.1c0.1-1.1-0.9-2.2-2-1.6c-0.1,0-0.1,0.1-0.2,0.1c-2.8,1.9-5.7,3.9-8.5,5.8
			c-0.3,0.2-0.6,0.4-0.8,0.6c-1.3,0.9-0.5,2.9,0.8,2.8c0.2,0,0.5-0.1,0.7-0.3c2.1-1.4,4.3-2.9,6.4-4.3c0.7-0.5,1.4-1,2.1-1.4
			c0.3-0.2,0.6-0.4,0.8-0.6C137.8,343.9,138,343.5,138.1,343.1z"/>
		<path fill="#1B2A54" d="M67.4,367.6c0.5-0.2,1.1-0.4,1.6-0.6c2.6-4.6,8.7-6.4,13.1-8.4c4.9-2.2,9.8-4.3,14.7-6.5
			c0.4-0.2,0.8-0.3,1.2-0.5c1.7-0.7,0.4-3.1-1.2-2.7c-0.1,0-0.2,0.1-0.3,0.1c-6.9,3-13.8,6-20.7,9.1c-4.5,2-8.3,4.4-10.2,9.1
			c-0.1,0.1-0.1,0.3-0.1,0.4c0.1,0,0.2-0.1,0.2-0.1C66.3,367.1,66.9,367.2,67.4,367.6z"/>
		<path fill="#1B2A54" d="M75.9,367.8c1.8-0.6,1-3.5-0.8-2.9c-2,0.7-4.1,1.4-6.1,2.1c-0.5,0.2-1.1,0.4-1.6,0.6
			c0.7,0.6,0.9,1.9-0.1,2.5c-0.4,0.3-1.1,0.7-1.8,1.2c0.2,0,0.4,0,0.6-0.1L75.9,367.8z"/>
		<path fill="#1B2A54" d="M63.6,379.6c1.3-1.3,3.2,0.5,2.3,1.9c1.2-0.4,2.4-0.9,3.4-1.3c4.4-1.7,8.7-3.8,12.7-6.1
			c1.7-0.9,0.2-3.5-1.5-2.6c-4.1,2.3-8.4,4.3-12.7,6c-0.8,0.3-1.9,0.9-2.7,1c-1.1,0.1-3.2-0.6-3.5-2.1c-0.3-1.6,2.1-3.8,4-5.2
			c0.7-0.5,1.4-1,1.8-1.2c1-0.6,0.8-1.9,0.1-2.5c-0.4-0.4-1-0.5-1.6-0.1c-0.1,0-0.1,0.1-0.2,0.1c-3.6,2.3-11,10-5.4,13.7
			c0.6,0.4,1.3,0.6,2.1,0.7C62.5,381.2,62.9,380.3,63.6,379.6z"/>
		<path fill="#1B2A54" d="M73.1,386.2c0.2-1.9,3.2-1.9,3,0c0,0.1,0,0.1,0,0.2c4.2-2.2,8.3-4.6,12.4-6.9c1.7-0.9,0.2-3.5-1.5-2.6
			c-3.2,1.8-6.3,3.5-9.4,5.3c-1.5,0.8-2.9,1.7-4.5,2.5c-0.8,0.3-1.6,0.7-2.3,1c-2.8,1.2-4.4-0.1-5.1-3.9c0.1-0.1,0.1-0.2,0.2-0.2
			c0.9-1.4-1-3.2-2.3-1.9c-0.7,0.8-1.2,1.6-1.4,2.4c-0.8,3.1,1.3,6.3,5,6.9c2.1,0.3,4.1-0.2,5.9-1C73,387.3,73,386.8,73.1,386.2z"/>
		<path fill="#1B2A54" d="M105.9,363.3c0,0.1-0.1,0.2-0.1,0.3c-2.1,6.1-5.3,11.6-9.5,16.3c-2.1,2.3-4.5,4.4-7,6.2
			c-1.9,1.3-14.1,8.9-13.2,0.2c0-0.1,0-0.1,0-0.2c0.2-1.9-2.8-1.9-3,0c-0.1,0.6-0.1,1.1,0,1.7c0.4,2.7,2.4,4.8,5.2,5.4
			c4.6,1,9.5-2.4,13-5c8.2-6,14-14.2,17.3-23.8c0-0.1,0.1-0.3,0.1-0.4C109.4,362.3,106.5,361.5,105.9,363.3z"/>
		<path fill="#1B2A54" d="M-65.5,442.7c0.4,0.1,0.7,0.2,1.1,0.3c0-35.3,5.3-70.4,9.4-105.4c4.4-36.4,9.9-73,25-106.7
			c7.7-17.1,17.5-33.1,30-47c0.3-0.3,0.6-0.7,0.9-1c1.3-1.4-0.8-3.6-2.1-2.1c-0.1,0.1-0.2,0.2-0.3,0.3
			c-49.1,54.2-54,131.3-61.8,200.6c-2.4,20.8-4.2,41.7-4.1,62.6c0,0.9,0.7,1.4,1.5,1.4c-0.1,0-0.2-0.1-0.3-0.1
			C-68,444.9-67.2,442-65.5,442.7z"/>
		<path fill="#1B2A54" d="M-11.1,304.4c0.3-1.5-1.5-2.3-2.4-1.6c-0.2,0.2-0.4,0.4-0.5,0.8c-9,47.4-20.3,94.3-34.1,140.6
			c0.4-0.1,0.9-0.1,1.3-0.2c0.8-0.2,1.4,0.2,1.7,0.8c12.6-42.6,23.3-85.5,31.8-129.1C-12.5,312-11.8,308.2-11.1,304.4z"/>
		<path fill="#1B2A54" d="M-64.7,444c0.2-0.5,0.6-0.7,1-0.8c-0.2-0.1-0.5-0.1-0.7-0.2c-0.4-0.1-0.7-0.2-1.1-0.3
			c-1.8-0.6-2.6,2.3-0.8,2.9c0.1,0,0.2,0.1,0.3,0.1c0.1,0.1,0.3,0.1,0.4,0.1C-65.2,445.2-65,444.6-64.7,444z"/>
		<path fill="#1B2A54" d="M-46.8,444.1c-0.4,0.1-0.9,0.1-1.3,0.2c-5,0.8-9.8,0.5-14.6-0.8c0.6,0.4,1,1.2,0.6,2
			c-0.2,0.4-0.3,0.7-0.5,1.1c4.9,1.2,9.7,1.4,14.7,0.6c-0.1-0.2-0.1-0.4-0.2-0.6c-0.6-1.8,2.3-2.6,2.9-0.8c0.1,0.2,0.1,0.3,0.2,0.5
			c0.2-0.4,0.2-1-0.1-1.5C-45.4,444.3-46,443.9-46.8,444.1z"/>
		<path fill="#1B2A54" d="M-57.3,501.7c-0.1-0.9,0.5-1.3,1.2-1.4c0-0.1,0-0.2,0-0.3c-11.4-15.1-13.9-35.8-6.5-53.3
			c0.2-0.4,0.3-0.7,0.5-1.1c0.4-0.8,0-1.6-0.6-2c-0.3-0.2-0.7-0.3-1-0.3c-0.4,0-0.8,0.3-1,0.8c-0.3,0.6-0.5,1.2-0.8,1.8
			c-7.9,19.1-4.8,41.3,8.2,57.5c0.3,0.4,0.7,0.5,1.1,0.5C-57,503.2-57.2,502.8-57.3,501.7z"/>
		<path fill="#1B2A54" d="M-54.3,500.5c-1.9-0.3-1.1-3.2,0.8-2.9c0.1,0,0.1-0.2,0.2-0.4c-0.5-1.2-1.2-2.4-1.9-3.5
			c-3.4-5.8-4.8-12.2-4.4-18.9c0.1-1.9-2.9-1.9-3,0c-0.2,4.3,0.1,8.5,1.4,12.5c0.8,2.6,5,9,5.2,12.6c0,0.1,0,0.2,0,0.3
			c-0.7,0.1-1.2,0.5-1.2,1.4c0.1,1.1,0.3,1.5,1.2,2.2l0.1,0.1c0.7,0.5,1.6,0.1,2.1-0.5c0.8-1,1.1-2,1.2-2.9
			C-53.2,500.5-53.7,500.6-54.3,500.5z"/>
		<path fill="#1B2A54" d="M-55.3,468.5l1.2,13.6c0.1,1.2,1.1,12.7,0.8,15.1c0,0.3-0.1,0.5-0.2,0.4c-1.9-0.3-2.7,2.6-0.8,2.9
			c0.6,0.1,1.1,0.1,1.6,0c3.5-0.6,2.7-5.3,2.4-8.6c-0.7-8-1.4-15.9-2-24l-0.1-0.1C-52.3,469.7-54.7,469.7-55.3,468.5z"/>
		<path fill="#1B2A54" d="M-55.5,466.3l0.1,0.9c0.2-1.2,0.9-2,1.9-2.2C-54.5,464.6-55.6,465.1-55.5,466.3z"/>
		<path fill="#1B2A54" d="M-47.9,483.1c0.5-0.7,1.3-0.8,1.9-0.5c0-5.3-0.5-11.9-3.4-16c-1-1.5-2.9-2-4.3-1.6c-1,0.3-1.7,1-1.9,2.2
			c0,0.2,0,0.5,0,0.8c0,0.2,0.1,0.4,0.1,0.5c0.6,1.4,3,1.2,2.9-0.5l0.1,0.1c0.7,0.5,1.1,1.1,1.3,1.9c0.2,0.6,0.4,1.3,0.6,1.9
			c0.4,1.3,0.7,2.6,0.9,4c0.6,3,0.7,6,0.6,9.1c0,0.6,0.2,1,0.6,1.2C-48.6,485.1-48.5,484-47.9,483.1z"/>
		<path fill="#1B2A54" d="M-48.1,446.6c0.1,0.2,0.1,0.4,0.2,0.6c2,6,3.5,12.1,4.1,18.5c0.5,5.6,1.5,14.1-1.5,18.8
			c0.6-0.9,0.1-1.7-0.7-2c-0.6-0.3-1.4-0.2-1.9,0.5c-0.6,0.9-0.8,2-0.5,2.9c0.3,0.9,1,1.7,2.2,2c3.5,0.9,4.8-3,5.3-5.6
			c1.9-11.8-0.2-24.8-4.1-36c-0.1-0.2-0.1-0.3-0.2-0.5C-45.9,444-48.7,444.8-48.1,446.6z"/>
		<path fill="#1B2A54" d="M132.9,419.8c-0.2-0.1-0.4-0.1-0.7-0.1c-30.9,2.5-61.9,2.7-92.8,0.8c-0.2,0-0.5,0-0.7,0
			c-1.9-0.1-1.9,2.9,0,3h0.1c10,0.6,20,1,30,1.2v-0.5c0-1.9,3-1.9,3,0v0.5c4.3,0.1,8.6,0.1,12.8,0.1c0-0.4,0-0.8,0-1.2
			c0-1.9,3-1.9,3,0c0,0.4,0,0.8,0,1.1c14.8-0.2,29.6-0.8,44.5-2c0.1,0,0.2,0,0.3-0.1C133.9,422.2,134,420.3,132.9,419.8z"/>
		<path fill="#1B2A54" d="M-11.7,516.7c0-0.3,0-0.6,0-0.9c0.6-22.1,1.8-44.2,3.4-66.2c0-0.3,0-0.7,0.1-1c0.1-1.9-2.9-1.9-3,0
			c0,0.2,0,0.5-0.1,0.7c-6.1,79.6-5.1,159.6,3.2,239c2.3,22.2,5.2,44.2,8.6,66.2c0,0.2,0.1,0.3,0.1,0.4c0.1-0.6,0.2-1.3,0.3-1.9
			c0.2-1.2,1.5-1.3,2.3-0.7c-9.5-62.7-14.6-126-15.2-189.4C-12.2,547.5-12.1,532.1-11.7,516.7z"/>
		<path fill="#1B2A54" d="M57,502.7c0.6-1.8,3.4-1.1,2.9,0.8c0,0.1-0.1,0.3-0.1,0.4c7.2-1.1,14.4-2.3,21.6-3.4c0-0.1,0-0.1,0-0.2
			c-0.2-1.8,2.5-1.9,2.9-0.3c5.9-0.9,11.7-1.9,17.5-2.8c1.9-0.3,1.1-3.2-0.8-2.9c-16.8,2.7-33.6,5.3-50.4,8
			c-1.9,0.3-1.1,3.2,0.8,2.9c1.7-0.3,3.4-0.5,5.1-0.8C56.6,503.9,56.8,503.3,57,502.7z"/>
		<path fill="#1B2A54" d="M26.6,742.4C39.3,682,39.8,619.7,48,558.8c2.5-18.6,6.3-37,11.6-54.9c0-0.1,0.1-0.3,0.1-0.4
			c0.6-1.9-2.3-2.6-2.9-0.8c-0.2,0.6-0.3,1.1-0.5,1.7c-8.9,30.1-12.6,61.2-15.4,92.4c-2.8,31.7-5.8,63.5-9.5,95
			c-2.1,17.4-4.5,34.8-8.2,51.9c-0.1,0.4,0,0.7,0.1,1c0.1-0.8,0.2-1.5,0.4-2.3C24.2,740.9,26.2,741.2,26.6,742.4z"/>
		<path fill="#1B2A54" d="M81.3,500.3c0,0.1,0,0.1,0,0.2c4.8,41.1,9.5,82.3,11.9,123.5c2.4,41.7,1.2,83.2-1.4,124.8
			c0,0.5,0.2,0.9,0.5,1.1c-0.1-0.8,0.4-1.7,1.4-1.8c0.4,0,0.8,0,1.1-0.1c2.6-41.4,3.8-82.6,1.3-124c-2.4-41.4-7.2-82.6-12-123.7
			c0-0.1,0-0.2-0.1-0.3C83.7,498.4,81.2,498.5,81.3,500.3z"/>
		<path fill="#1B2A54" d="M122.4,750.1c0.4-0.1,0.7-0.5,0.8-1c12.9-76.9,22.8-154.5,26.2-232.4c1-22,1.4-44,1.3-66c0-1.9-3-1.9-3,0
			c0.5,77.8-6.3,155.4-17.1,232.3c-3.1,21.8-6.5,43.6-10.1,65.3c0,0.2,0,0.3,0,0.5c0.3,0,0.5,0,0.8,0.1
			C121.8,749,122.3,749.5,122.4,750.1z"/>
		<path fill="#1B2A54" d="M87.6,423.6c0-1.9-3-1.9-3,0c0,0.4,0,0.8,0,1.2c0.4,17.3,0.8,34.7,1.2,52c0,1.9,3,1.9,3,0
			c-0.4-17.4-0.8-34.7-1.2-52.1C87.6,424.3,87.6,423.9,87.6,423.6z"/>
		<path fill="#1B2A54" d="M69.4,480.4c4.7,0.8,9.3,0.1,13.3-2.3c1.7-0.9,0.2-3.5-1.5-2.6c-3.4,1.9-7.2,2.6-11,2
			C68.3,477.2,67.5,480.1,69.4,480.4z"/>
		<path fill="#1B2A54" d="M68.8,424.1v0.5v8.4c0,1.9,3,1.9,3,0v-8.4v-0.5C71.8,422.2,68.8,422.2,68.8,424.1z"/>
		<path fill="#1B2A54" d="M69.3,445.8c-0.2,1.9-0.4,3.7-0.6,5.6c-0.2,1.9,2.8,1.9,3,0c0.2-1.9,0.4-3.7,0.6-5.6
			C72.5,443.8,69.5,443.9,69.3,445.8z"/>
		<path fill="#1B2A54" d="M69.5,459.6c-0.2,3-0.3,5.9-0.5,8.9c-0.1,1.9,2.9,1.9,3,0c0.2-3,0.3-5.9,0.5-8.9
			C72.6,457.7,69.6,457.7,69.5,459.6z"/>
		<path fill="#1B2A54" d="M29.4,446.7c0.2-0.7-0.1-1.2-0.6-1.5c-0.7-0.5-1.8-0.5-2.2,0.4c-0.1,0.1-0.1,0.2-0.1,0.4
			c-0.2,0.9-0.5,1.9-0.8,2.8c-3.2,10.1-9.8,18.6-19,24c-0.1,0-0.2,0.1-0.2,0.1c-0.1,1.2-0.2,2.4-0.3,3.6c0,0,0.1,0,0.1-0.1l0,0
			c11.1-5.9,19.3-15.9,22.6-28C29.2,447.7,29.3,447.2,29.4,446.7z"/>
		<path fill="#1B2A54" d="M7.8,450.2c-0.5-0.3-1.2-0.3-1.7,0c-0.4,0.2-0.7,0.6-0.7,1.2c-2.8,33.1-5.6,66.2-8.4,99.4
			c-0.2,2-0.3,3.9-0.5,5.9c-0.1,0.6,0.2,1,0.6,1.2c0.8,0.5,2.3,0.1,2.4-1.2c2.3-26.8,4.5-53.5,6.8-80.3c0.1-1.2,0.2-2.4,0.3-3.6
			c0.6-7.2,1.2-14.2,1.8-21.4C8.4,450.8,8.1,450.4,7.8,450.2z"/>
		<path fill="#1B2A54" d="M-1.3,569.9c0,0.8,0,1.5,0,2.3c-0.4,23.9,0.4,47.7,2.3,71.5c0.2,1.9,3.2,1.9,3,0
			c-2-24.2-2.7-48.3-2.3-72.6c0-0.4,0-0.8,0-1.2C1.8,568-1.2,568-1.3,569.9z"/>
		<path fill="#1B2A54" d="M0.1,659.1c1.6,29.1,3.1,58.4,4.7,87.5c0.1,1.9,3.1,1.9,3,0c-1.6-29.1-3.1-58.4-4.7-87.5
			C3,657.2,0,657.2,0.1,659.1z"/>
		<path fill="#1B2A54" d="M3.8,753.8c0,0.1,0,0.2,0,0.4c0.5,0.1,1,0.4,1.1,1.1c0,0.2,0.1,0.4,0.1,0.5l17.9-0.1
			c-0.1-0.1-0.2-0.2-0.3-0.3c-0.8-0.9-0.3-2,0.5-2.4c0-0.1,0-0.2,0-0.3l-19.5,0.1C3.8,753.1,3.9,753.4,3.8,753.8z"/>
		<path fill="#1B2A54" d="M26.2,754.8c0.2-0.5,0.1-1-0.1-1.4c0,0.4-0.1,0.7-0.4,0.9C25.9,754.5,26,754.6,26.2,754.8z"/>
		<path fill="#1B2A54" d="M24.8,753.3c0.3,0.3,0.7,0.7,1,1c0.2-0.2,0.4-0.5,0.4-0.9v-0.1c-0.2-3.4,0-6.8,0.6-10
			c0.1-0.3,0-0.6-0.1-0.8c-0.5-1.2-2.5-1.5-2.8,0c-0.2,0.8-0.3,1.5-0.4,2.3c-0.4,2.7-0.5,5.4-0.4,8.1c0,0.1,0,0.2,0,0.3
			C23.7,752.8,24.3,752.8,24.8,753.3z"/>
		<path fill="#1B2A54" d="M93.8,748.1c-1,0.1-1.5,1-1.4,1.8c0.1,0.6,0.4,1.1,1,1.2c0.1-0.5,0.2-1,0.4-1.5c0.5-1.9,3.4-1.1,2.9,0.8
			c-0.1,0.2-0.1,0.4-0.1,0.6c0.3,0,0.6,0,0.8-0.1c0.1-0.9,0.8-1.7,1.8-1.3s1.9,0.8,2.8,1.2c5.8,0,11.4,0.4,17.1,1
			c0-0.2-0.1-0.4-0.1-0.6c-0.3-1.9,2.6-2.7,2.9-0.8c0.1,0.4,0.2,0.8,0.3,1.2c0.3-0.3,0.4-0.9,0.3-1.3c-0.1-0.6-0.6-1.2-1.4-1.3
			c-0.3,0-0.5,0-0.8-0.1c-8.5-0.9-16.8-1.4-25.4-0.8C94.6,748.1,94.2,748.1,93.8,748.1z"/>
		<path fill="#1B2A54" d="M0.9,753c-0.1,0.6-0.2,1.3-0.3,1.9c-1.1,7.5-2.3,15.7-1.1,23.1c1.1,7.4,7.8,9.4,14.2,10.4
			c0.1,0,0.1,0,0.1,0c-0.6-1-1.1-2.1-1.5-3.3c-2.5-0.4-5-1.1-7-2.7c-1.7-1.3-2.5-3-2.9-4.9c-1-0.9-1.9-1.9-2.8-2.9
			c-1.3-1.5,0.9-3.6,2.1-2.1c0.2,0.2,0.3,0.3,0.5,0.5c0-0.3,0-0.7,0-1c0-4.4,0.3-8.9,0.8-13.2c-0.5-1-0.9-2-1.1-3.1
			c-0.3-1.2,0.8-2,1.8-1.9c0-0.1,0-0.2,0-0.4c0.1-0.4,0-0.7-0.2-1c-0.1-0.2-0.3-0.4-0.4-0.5C2.4,751.7,1.1,751.8,0.9,753z"/>
		<path fill="#1B2A54" d="M67,794.4c-0.1-0.4-0.2-0.7-0.2-1.1c-8.7,5.3-18.7,5.7-28.4,3.9c-7.9-1.5-20.2-4-23.1-12.4
			c-0.3-0.2-0.7-0.5-1-0.7c-0.3,0.8-1.2,1.4-2.1,0.9c0,0.1,0.1,0.2,0.1,0.3c0.4,1.2,0.9,2.3,1.5,3.3c4,6.4,12.8,9,20.1,10.6
			c11.7,2.8,24.3,3,34.8-3.7c0.2-0.1,0.3-0.3,0.5-0.4C68.5,795.7,67.2,795.6,67,794.4z"/>
		<path fill="#1B2A54" d="M38.2,766.3c1.4,0.8,2.8,1.5,4.2,2.3c1-0.5,2.1-1,3.2-1.4c-1.2-0.7-2.5-1.4-3.7-2
			c-0.1,0.1-0.3,0.2-0.5,0.3C40.3,765.8,39.3,766.1,38.2,766.3z"/>
		<path fill="#1B2A54" d="M55.3,775.6c-0.3,0.1-0.5,0.2-0.8,0.3c4.5,3.3,8.3,7.1,10.5,12c0.2-0.1,0.3-0.1,0.5-0.2
			c1.8-0.7,2.6,2.2,0.8,2.9c-0.1,0-0.1,0.1-0.2,0.1c0.3,0.8,0.5,1.7,0.7,2.6c0.1,0.4,0.2,0.7,0.2,1.1c0.2,1.2,1.4,1.3,2.2,0.8
			c0.5-0.3,0.8-0.9,0.6-1.5c-1.5-9.2-7-15.1-13.7-19.9C56.4,774.4,56.2,775.3,55.3,775.6z"/>
		<path fill="#1B2A54" d="M30.7,762c1.3,0.9,2.7,1.7,4,2.5c1.2-0.4,2.4-0.8,3.6-1.2c-1.5-0.9-3-1.8-4.5-2.7
			C32.8,761.1,31.7,761.5,30.7,762z"/>
		<path fill="#1B2A54" d="M45.6,770.4c2,1.1,4,2.3,5.9,3.5c1-0.4,2-0.8,3-1.2c0.1,0,0.2,0,0.3-0.1c-1.9-1.3-3.9-2.4-5.9-3.6
			C47.8,769.5,46.7,770,45.6,770.4z"/>
		<path fill="#1B2A54" d="M24.8,753.3c-0.5-0.5-1.2-0.6-1.7-0.3c-0.8,0.4-1.3,1.5-0.5,2.4c0.1,0.1,0.2,0.2,0.3,0.3
			c1.5,1.6,3.2,3,5,4.3c1-0.5,2.1-0.9,3.1-1.4c-1.7-1.2-3.3-2.5-4.7-3.8c-0.2-0.1-0.3-0.3-0.5-0.5C25.5,754,25.1,753.7,24.8,753.3z"
			/>
		<path fill="#1B2A54" d="M27.8,760c-3.5,1.6-7.1,3.2-10.5,4.8c-1.8,0.8-0.2,3.4,1.5,2.6c4-1.8,8-3.6,11.9-5.4
			c1-0.5,2.1-0.9,3.1-1.4c0.5-0.2,1-0.5,1.5-0.7c1.8-0.8,0.2-3.4-1.5-2.6c-1,0.4-2,0.9-2.9,1.3C29.9,759.1,28.8,759.6,27.8,760z"/>
		<path fill="#1B2A54" d="M34.7,764.5c-3.5,1.3-6.8,2.9-9.9,4.9c-1.6,1-0.1,3.6,1.5,2.6c3.8-2.3,7.8-4.1,11.9-5.5
			c1-0.3,2.1-0.6,3.1-0.9c0.2-0.1,0.4-0.1,0.5-0.3c1.1-0.8,0.3-3.1-1.3-2.6c-0.8,0.2-1.5,0.4-2.3,0.6
			C37.1,763.6,35.9,764,34.7,764.5z"/>
		<path fill="#1B2A54" d="M42.5,768.6c-3.2,1.5-6.4,3.1-9.5,4.8c-1.7,0.9-0.2,3.5,1.5,2.6c3.7-2,7.5-3.9,11.2-5.6
			c1.1-0.5,2.1-0.9,3.2-1.4c0.6-0.2,1.2-0.5,1.7-0.7c1.8-0.7,1-3.6-0.8-2.9c-1.4,0.6-2.9,1.2-4.3,1.8
			C44.5,767.7,43.5,768.2,42.5,768.6z"/>
		<path fill="#1B2A54" d="M51.5,773.9c-3.1,1.3-6.1,2.7-9,4.3c-1.7,0.9-0.2,3.5,1.5,2.6c3.4-1.9,6.9-3.5,10.4-4.8
			c0.3-0.1,0.5-0.2,0.8-0.3c0.9-0.3,1.1-1.2,1-1.9c-0.2-0.7-0.7-1.2-1.5-1c-0.1,0-0.2,0-0.3,0.1C53.5,773.1,52.5,773.5,51.5,773.9z"
			/>
		<path fill="#1B2A54" d="M10.1,779.9c0-0.1,0-0.2,0-0.3l0,0c-3-1.6-5.6-3.7-7.9-6.2c-0.2-0.2-0.3-0.3-0.5-0.5
			c-1.3-1.5-3.4,0.7-2.1,2.1c0.9,1,1.8,2,2.8,2.9c2.5,2.2,5.3,4.1,8.3,5.4C10.3,782.3,10,781.1,10.1,779.9z"/>
		<path fill="#1B2A54" d="M95.9,777.9c0.2,0,0.4,0.1,0.7,0.1c-0.5-1.9-0.9-3.8-1.1-5.8c-0.4,0-0.7-0.1-1.1-0.1c-1.9-0.2-1.9-3.2,0-3
			c0.2,0,0.5,0,0.7,0.1c-0.5-6.1,0-12.2,1.6-18.3c0-0.2,0.1-0.4,0.1-0.6c0.5-1.9-2.4-2.7-2.9-0.8c-0.1,0.5-0.3,1-0.4,1.5
			c-2.3,9.3-2.2,18.7,0.2,27.9c0.1,0.3,0.2,0.5,0.3,0.6C93.8,778.8,94.6,777.6,95.9,777.9z"/>
		<path fill="#1B2A54" d="M120.6,781.7c-0.1-0.6-0.2-1.2-0.3-1.9c-8.1,0.5-16-0.1-23.9-1.9c-0.2,0-0.4-0.1-0.7-0.1
			c-1.2-0.3-2,0.9-1.8,1.8c0.1,0.5,0.4,0.9,1,1c8.8,2,17.6,2.7,26.6,2C121.1,782.7,120.7,782.4,120.6,781.7z"/>
		<path fill="#1B2A54" d="M122.4,782.7c0.2,0,0.4,0,0.6,0c1.8-0.2,1.9-2.8,0.3-3c0.1,0.4,0.1,0.8,0.2,1.2
			C123.6,781.9,123,782.5,122.4,782.7z"/>
		<path fill="#1B2A54" d="M120.7,774.3c-0.2,0-0.5,0-0.7-0.1c0,1.9,0.1,3.7,0.3,5.6c0.1,0.6,0.2,1.2,0.3,1.9c0.1,0.6,0.5,0.9,0.9,1
			c0.3,0.1,0.6,0,0.8-0.1c0.7-0.2,1.3-0.9,1.1-1.8c-0.1-0.4-0.1-0.8-0.2-1.2c-0.1-1-0.2-2-0.3-3C122.2,776,121.4,775.2,120.7,774.3z
			"/>
		<path fill="#1B2A54" d="M120.7,770.9c-0.3,0-0.6,0.2-0.8,0.4c0.2,0,0.4,0,0.5,0C120.5,771.2,120.6,771,120.7,770.9z"/>
		<path fill="#1B2A54" d="M186.4,782.4c-0.1-0.4-0.3-0.8-0.5-1.3c-0.3-0.1-0.6-0.2-0.9-0.1c-11.4,1.8-23.1,2.2-34.6,1.3
			c-8.5-0.7-18.5-1.8-25.2-7.6c-0.8-0.2-1.6-0.5-2.3-0.7c-0.2,0.3-0.6,0.5-1.1,0.4c-0.4,0-0.7-0.1-1.1-0.1c0.7,0.8,1.5,1.6,2.3,2.3
			c5.9,5.2,13.8,7,21.7,8c13.6,1.7,27.5,1.3,41.1-0.8c0.6-0.1,0.9-0.4,1-0.8C186.7,782.9,186.5,782.7,186.4,782.4z"/>
		<path fill="#1B2A54" d="M146.5,762.3c0.4,0,0.9,0,1.2,0.1c2.3,0.2,4.7,0.4,7.1,0.7c0.3-1,0.7-2,1.1-2.9c-2.7-0.3-5.4-0.5-8-0.7
			C147.3,760.3,146.8,761.3,146.5,762.3z"/>
		<path fill="#1B2A54" d="M165.3,765.1c6.7,1.8,12.8,4.9,17.1,10.1c0.2,0,0.5-0.1,0.7-0.1c1.7-0.3,2.6,2.2,1.2,2.8
			c0.6,1,1.2,2.1,1.6,3.3c0.2,0.4,0.3,0.8,0.5,1.3c0.1,0.3,0.3,0.5,0.5,0.7c1,0.8,3,0,2.4-1.5c-3.6-10.1-12.3-16.3-22.3-19.3
			C166.2,763.1,165.7,764.1,165.3,765.1z"/>
		<path fill="#1B2A54" d="M138.7,762c1.6,0.1,3.2,0.2,4.6,0.2c0.3-1,0.6-2.1,1.1-3c-0.2,0-0.4,0-0.7,0c-1.3-0.1-2.9-0.1-4.5-0.2
			C139.1,759.9,138.9,761,138.7,762z"/>
		<path fill="#1B2A54" d="M157.7,763.5c1.6,0.2,3.2,0.5,4.7,0.9c0.3-1,0.8-2,1.4-2.9c-1.6-0.4-3.3-0.7-4.9-0.9
			C158.5,761.5,158,762.5,157.7,763.5z"/>
		<path fill="#1B2A54" d="M119,751.1c0,0.2,0.1,0.4,0.1,0.6c1.5,7.1,9.1,9.3,16.6,9.9c0.1-0.7,0.3-1.4,0.4-2.1
			c-0.2-0.3-0.3-0.6-0.2-1c-5.9-0.5-12.1-2-13.7-7.2c-0.1-0.4-0.2-0.8-0.3-1.2C121.6,748.4,118.7,749.2,119,751.1z"/>
		<path fill="#1B2A54" d="M136.2,759.7c-0.1,0.7-0.3,1.4-0.4,2.1c-0.2,1.1-0.4,2.2-0.6,3.3c-0.3,1.9,2.5,2.7,2.9,0.8
			c0.2-1.3,0.5-2.6,0.7-3.9c0.2-1,0.4-2.1,0.6-3.1c0-0.1,0-0.1,0-0.2c0.1-0.7-0.2-1.3-0.7-1.7c-0.1,0-0.1-0.1-0.2-0.1
			c-0.5-0.3-1.1-0.2-1.6,0.3l-0.5,0.6c-0.2,0.3-0.3,0.5-0.4,0.8C136,759,136.1,759.4,136.2,759.7z"/>
		<path fill="#1B2A54" d="M143.4,762.2c-0.3,1.1-0.4,2.2-0.4,3.3c0,1.9,3,1.9,3,0c0-1.1,0.2-2.2,0.5-3.2c0.3-1,0.8-2,1.4-2.9
			c0.1-0.2,0.3-0.4,0.4-0.6c1.1-1.6-1.5-3.1-2.6-1.5c-0.5,0.6-0.8,1.3-1.2,1.9C144,760.1,143.7,761.2,143.4,762.2z"/>
		<path fill="#1B2A54" d="M154.8,763.1c-0.4,1.3-0.7,2.5-1,3.9c-0.3,1.9,2.6,2.7,2.9,0.8c0.2-1.5,0.6-2.9,1.1-4.2
			c0.3-1,0.8-2,1.2-2.9c0.1-0.3,0.3-0.6,0.4-0.9c0.9-1.7-1.7-3.2-2.6-1.5c-0.4,0.7-0.7,1.3-1,2C155.4,761.1,155.1,762.1,154.8,763.1
			z"/>
		<path fill="#1B2A54" d="M162.4,764.4c-0.3,0.9-0.5,1.9-0.5,3c0,1.9,3,1.9,3,0c0-0.8,0.1-1.5,0.4-2.3c0.3-1,0.9-2,1.7-2.8
			c0.2-0.2,0.5-0.5,0.8-0.7c1.5-1.1,0-3.7-1.5-2.6c-1,0.7-1.8,1.5-2.4,2.4C163.2,762.4,162.8,763.3,162.4,764.4z"/>
		<path fill="#1B2A54" d="M121.3,773.5c-1.1-0.3-1.2-1.4-0.9-2.2c-0.2,0-0.4,0-0.5,0c-8.4-0.7-16.6-1.4-25-2.1c-0.2,0-0.5,0-0.7-0.1
			c-1.9-0.2-1.9,2.8,0,3c0.4,0,0.7,0.1,1.1,0.1c8.3,0.7,16.5,1.4,24.7,2c0.2,0,0.5,0,0.7,0.1c0.4,0,0.7,0.1,1.1,0.1
			c0.5,0,0.9-0.1,1.1-0.4C122.4,773.8,121.8,773.7,121.3,773.5z"/>
		<path fill="#1B2A54" d="M98.4,752.4c3.1,1.1,6,2.8,8.5,4.9c1.5,1.2,3.6-0.9,2.1-2.1c-2.2-1.8-4.5-3.3-7-4.4
			c-0.9-0.4-1.9-0.8-2.8-1.2c-1.1-0.4-1.8,0.4-1.8,1.3C97.4,751.5,97.7,752.2,98.4,752.4z"/>
		<path fill="#1B2A54" d="M111.9,762.6c0.6,0.6,1.5,0.6,2.1,0s0.6-1.5,0-2.1c-0.6-0.6-1.2-1.3-1.9-1.9c-0.6-0.6-1.5-0.6-2.1,0
			c-0.6,0.6-0.6,1.5,0,2.1C110.6,761.3,111.3,761.9,111.9,762.6z"/>
		<path fill="#1B2A54" d="M117,768.1c0.5,0.6,1.6,0.5,2.1,0c0.6-0.6,0.5-1.5,0-2.1l-1.6-2.1c-0.5-0.6-1.6-0.5-2.1,0
			c-0.6,0.6-0.5,1.5,0,2.1C116,766.7,116.5,767.4,117,768.1z"/>
		<path fill="#1B2A54" d="M6.1,761.2c0.7-0.4,1-1.4,0.5-2.1c-0.7-1-1.2-2.1-1.6-3.3c0-0.2-0.1-0.4-0.1-0.5c-0.1-0.7-0.6-1-1.1-1.1
			c-0.9-0.1-2,0.6-1.8,1.9c0.2,1.1,0.6,2.1,1.1,3.1c0.3,0.5,0.6,1,0.9,1.5C4.5,761.3,5.3,761.6,6.1,761.2z"/>
		<path fill="#1B2A54" d="M7.3,768.8c0.5,1.9,3.4,1.1,2.9-0.8c-0.2-0.9-0.5-1.7-0.7-2.6c-0.5-1.9-3.4-1.1-2.9,0.8
			C6.9,767.1,7.1,768,7.3,768.8z"/>
		<path fill="#1B2A54" d="M11.6,778.4c0.5,0,0.9,0.3,1.2,0.6c0-0.1,0-0.2,0-0.3c-0.2-2-0.7-3.9-1.6-5.7c-0.9-1.7-3.4-0.2-2.6,1.5
			c0.6,1.3,1.1,2.7,1.2,4.2c0,0.3,0.1,0.6,0.3,0.8l0,0C10.3,778.9,10.8,778.4,11.6,778.4z"/>
		<path fill="#1B2A54" d="M10.7,781.3c-1.5-1.3,0.7-3.4,2.1-2.1l0.1,0.1c0-0.1-0.1-0.1-0.1-0.2c-0.3-0.4-0.8-0.6-1.2-0.6
			c-0.7,0-1.3,0.5-1.5,1.2c0,0.1,0,0.2,0,0.3c-0.1,1.2,0.2,2.3,0.7,3.4c0.3,0.5,0.6,1,1,1.5c0.1,0.1,0.3,0.2,0.4,0.3
			c0.8,0.4,1.8-0.1,2.1-0.9C13.1,783.2,11.9,782.3,10.7,781.3z"/>
		<path fill="#1B2A54" d="M12.9,779.2L12.9,779.2c-1.6-1.3-3.7,0.8-2.2,2c1.2,1,2.4,1.9,3.6,2.8c0.3,0.2,0.6,0.5,1,0.7
			c14.8,10.1,33.9,12.5,50.8,6c0.1,0,0.1-0.1,0.2-0.1c1.8-0.7,1-3.6-0.8-2.9c-0.2,0.1-0.3,0.1-0.5,0.2
			C47.5,794.7,27.3,791.4,12.9,779.2z"/>
		<path fill="#1B2A54" d="M122.1,770.6c-0.6-0.2-1.1,0-1.4,0.3c-0.1,0.1-0.2,0.2-0.3,0.4c-0.4,0.8-0.2,1.9,0.9,2.2
			c0.5,0.2,1.1,0.3,1.6,0.5c0.8,0.2,1.6,0.5,2.3,0.7c19.1,5.5,39,6.6,58.6,3.3c0.1,0,0.3-0.1,0.4-0.1c1.4-0.6,0.6-3.1-1.2-2.8
			c-0.2,0-0.5,0.1-0.7,0.1C162.2,778.5,141.6,776.9,122.1,770.6z"/>
		<path fill="#1B2A54" d="M111.7,132.3c0.6-0.6,0.5-1.5,0-2.1c-0.6-0.7-1.1-1.4-1.7-2.1c-0.5-0.6-1.6-0.5-2.1,0
			c-0.6,0.6-0.5,1.5,0,2.1c0.6,0.7,1.1,1.4,1.7,2.1C110.1,132.9,111.2,132.8,111.7,132.3z"/>
		<path fill="#1B2A54" d="M118.1,139.5c0.1-0.8-0.7-1.5-1.5-1.5c-0.9,0-1.4,0.7-1.5,1.5c-0.2,1.9,0.3,3.8,1.2,5.4
			c0.1,0.1,0.1,0.3,0.2,0.4c1.1,1.6,3.7,0.1,2.6-1.5c-0.2-0.3-0.4-0.7-0.6-1C118.1,141.7,118,140.6,118.1,139.5z"/>
		<path fill="#1B2A54" d="M121.1,134.8c-0.8,0.2-1.2,1-1,1.8c0.1,0.7,0.3,1.4,0.4,2.1c0.1,0.5,0.4,0.8,0.9,1c0.3,0.1,0.7,0.2,1,0.1
			c0.8-0.2,1.2-1,1-1.8c0-0.2-0.1-0.4-0.1-0.6c-0.1-0.5-0.2-1-0.3-1.5C122.8,135,121.8,134.6,121.1,134.8z"/>
		<path fill="#1B2A54" d="M55.4,98.5l-2,3.9c-0.9,1.7,1.7,3.2,2.6,1.5c0.7-1.3,1.4-2.6,2-3.9C58.9,98.3,56.3,96.8,55.4,98.5z"/>
		<path fill="#1B2A54" d="M60.9,107.3c0.5-0.6,0.6-1.5,0-2.1c-0.5-0.5-1.6-0.6-2.1,0c-0.7,0.8-1.4,1.7-2.1,2.5
			c-0.5,0.6-0.6,1.5,0,2.1c0.5,0.5,1.6,0.6,2.1,0C59.5,109,60.2,108.2,60.9,107.3z"/>
		<path fill="#1B2A54" d="M50.6,108c0.6-0.5,0.5-1.6,0-2.1c-0.6-0.6-1.5-0.5-2.1,0c-1.3,1.2-2.3,2.6-3,4.3c-0.3,0.8,0.3,1.6,1,1.8
			c0.9,0.2,1.5-0.3,1.8-1C48.9,109.8,49.7,108.9,50.6,108z"/>
		<path fill="#1B2A54" d="M52.2,117.1c0.9-1.3,1.8-2.6,2.8-3.9c0.5-0.7,0.1-1.7-0.5-2.1c-0.8-0.4-1.6-0.1-2.1,0.5l-2.8,3.9
			c-0.5,0.7-0.1,1.7,0.5,2.1C50.9,117.9,51.7,117.6,52.2,117.1z"/>
		<path fill="#1B2A54" d="M54.7,118.6c-0.8-0.4-1.6-0.1-2.1,0.5c-0.8,1.1-1.7,2.3-2.5,3.4c-0.5,0.7-0.1,1.7,0.5,2.1
			c0.8,0.4,1.6,0.1,2.1-0.5c0.8-1.1,1.7-2.3,2.5-3.4C55.7,120,55.3,119,54.7,118.6z"/>
		<path fill="#1B2A54" d="M53.4,133.2c1-1.8,2.2-3.3,3.7-4.7c1.4-1.3-0.7-3.5-2.1-2.1c-1.6,1.6-3,3.3-4.1,5.3c0,0,0,0.1-0.1,0.1
			c-0.8,1.4,0.8,2.7,2,2.1C53,133.7,53.2,133.5,53.4,133.2z"/>
		<path fill="#1B2A54" d="M46,121.2c0.3-1.1,0.6-2.1,0.9-3.2c0.5-1.9-2.4-2.7-2.9-0.8c-0.1,0.3-0.1,0.5-0.2,0.8
			c-0.2,0.8-0.5,1.6-0.7,2.4c-0.4,1.4,1.1,2.2,2.1,1.7C45.5,122,45.8,121.7,46,121.2z"/>
		<path fill="#1B2A54" d="M49.2,126.2c0.2-0.7-0.3-1.7-1-1.8c-0.7-0.2-1.3,0.1-1.6,0.6c-0.1,0.1-0.2,0.3-0.2,0.4
			c-0.2,0.5-0.3,0.9-0.5,1.4c-0.2,0.7,0.3,1.7,1,1.8c0.6,0.1,1.1,0,1.5-0.4c0.2-0.2,0.3-0.4,0.4-0.6C48.9,127.1,49,126.7,49.2,126.2
			z"/>
		<path fill="#1B2A54" d="M44.2,87c1.1-1.7,1.4-3.5,1.7-5.4c0.2-1.2,0.2-2.5,0.7-3.7c0.2-0.7,0.6-1.3,1.2-1.8
			c1.3-1.1,2.2-0.8,2.5,0.8c-0.5,1.9,2.4,2.7,2.9,0.8c0.9-3.6-2.9-6.3-6.1-4.7c-5,2.4-3,8.6-5.4,12.5C40.6,87.1,43.2,88.6,44.2,87z"
			/>
		<path fill="#1B2A54" d="M48.7,89.6c-0.2-0.8-1-1.2-1.8-1c-0.7,0.1-1.3,0.2-2,0.3c-0.8,0.1-1.2,1.1-1,1.8c0.2,0.8,1,1.2,1.8,1
			c0.7-0.1,1.3-0.2,2-0.3C48.5,91.3,48.9,90.4,48.7,89.6z"/>
		<path fill="#1B2A54" d="M65.7,35.8c-6.3,4.1-10.7,9.7-13.3,16.8c-0.7,1.8,2.2,2.6,2.9,0.8c2.3-6.3,6.4-11.4,11.9-15
			C68.8,37.3,67.3,34.7,65.7,35.8z"/>
		<path fill="#1B2A54" d="M61.1,52.3c-2.4,4.5-4.2,9.2-5.5,14c-0.1,0.6-0.3,1.1-0.4,1.7c-0.4,1.9,2.5,2.7,2.9,0.8l0,0
			c1.2-5.3,3.1-10.2,5.6-15C64.5,52.1,62,50.6,61.1,52.3z"/>
		<path fill="#FFFFFF" d="M92.2,311.8c16.5-4.8,22.8-26.8,11.6-39.9c-8.2-9.5-22.7-9.3-32.7-3.2c-0.1,0.1-0.2,0.1-0.3,0.2
			c-9.9,7.2-13.4,19.4-7.6,30.5C68.5,309.6,81.3,315,92.2,311.8z M72.6,271.4c9.8-6.1,24.2-5.7,30.7,5c4.3,6.9,4.1,16.2,0.1,23.2
			c-5.6,9.7-18,12.9-27.9,7.9C61.1,300.1,59.3,280.7,72.6,271.4z"/>
		<path fill="#FFFFFF" d="M80.6,299.9c4.9-1.1,9.6-2.6,14.5-3.9c1.8-0.5,5.4-0.7,6-3.1c0.5-2.2-2.6-4.7-3.7-6.1
			c-3-3.7-5.8-7.8-9.1-11.2c-1.9-2-4.1-3-6.7-2c-1.2,0.4-1.2,1.8-0.7,2.5c-1.2,4.6-2.5,9.1-3.7,13.6c-0.6,2.3-2.7,6.5-1.6,8.9
			C76.7,300.7,78.8,300.3,80.6,299.9z M79.7,292.2c1.4-5.2,2.8-10.4,4.3-15.6c1.2,0.5,2.5,1.5,3.1,2c1,0.9,1.9,2.4,2.8,3.4
			c1.7,2.1,3.3,4.1,5,6.2c0.6,0.8,1.9,1.9,2.2,2.8c0.3,0.4,0.5,0.8,0.8,1.2c-0.9,0.2-1.7,0.5-2.6,0.7c-2.6,0.7-5.1,1.4-7.7,2.1
			c-2.2,0.6-4.6,1.5-6.9,1.8c-2.5,0.4-1.8,0.7-1.9-1.2C78.7,294.6,79.5,293.1,79.7,292.2z"/>
	</g>
</g>
</svg>
