<?xml version="1.0" encoding="utf-8"?>
<!-- Generator: Adobe Illustrator 19.0.0, SVG Export Plug-In . SVG Version: 6.00 Build 0)  -->
<svg version="1.2" baseProfile="tiny" preserveAspectRatio="none" id="Layer_1" xmlns="http://www.w3.org/2000/svg" xmlns:xlink="http://www.w3.org/1999/xlink"
	 x="0px" y="0px" viewBox="0 0 10.3 18.4" xml:space="preserve">
<path fill="#FFFFFF" d="M10.3,9.3c0-0.3-0.1-0.5-0.3-0.7L1.7,0.3C1.5,0.1,1.3,0,1,0h0C0.7,0,0.5,0.1,0.3,0.3S0,0.7,0,1v0
	c0,0.3,0.1,0.5,0.3,0.7l7.6,7.6l-7.5,7.5c-0.4,0.4-0.4,1,0,1.4c0.2,0.2,0.5,0.3,0.7,0.3s0.5-0.1,0.7-0.3L10,10
	C10.2,9.8,10.3,9.5,10.3,9.3L10.3,9.3z"/>
</svg>
