<?xml version="1.0" encoding="utf-8"?>
<!-- Generator: Adobe Illustrator 19.0.0, SVG Export Plug-In . SVG Version: 6.00 Build 0)  -->
<svg version="1.2" baseProfile="tiny" id="Layer_1" xmlns="http://www.w3.org/2000/svg" xmlns:xlink="http://www.w3.org/1999/xlink"
	 x="0px" y="0px" viewBox="0 0 853.3 206.4" xml:space="preserve">
<g id="XMLID_150_">
	<path id="XMLID_18_" fill="#FFFFFF" stroke="#FFFFFF" stroke-width="5" stroke-miterlimit="10" d="M7,112.4h48c2.5,0,4.5-2,4.5-4.5
		V85.2c0-1.2,0.5-2.3,1.3-3.2l18.7-18.7c1.7-1.7,4.6-1.7,6.3,0l10.6,10.6c0.8,0.8,2,1.3,3.2,1.3h11.8c2.5,0,4.5-2,4.5-4.5V41.6
		c0-1.2,0.5-2.3,1.3-3.2l19.3-19.3c1.7-1.7,4.6-1.7,6.3,0L164,40.4c0.8,0.8,1.3,2,1.3,3.2V80c0,2.5,2,4.5,4.5,4.5h13.7
		c2.5,0,4.5-2,4.5-4.5V54.3c0-2.5,2-4.5,4.5-4.5H207c2.5,0,4.5,2,4.5,4.5v13.4c0,2.5,2,4.5,4.5,4.5H231c2.5,0,4.5-2,4.5-4.5v-5
		c0-2.5,2-4.5,4.5-4.5h7.8c2.5,0,4.5,2,4.5,4.5v27.9c0,2.5,2,4.5,4.5,4.5h8.9c2.5,0,4.5-2,4.5-4.5V36c0-1.2,0.5-2.3,1.3-3.2l14-14
		c1.7-1.7,4.6-1.7,6.3,0l11.7,11.7c0.8,0.8,1.3,2,1.3,3.2v25.8c0,2.5,2,4.5,4.5,4.5h27.9c2.5,0,4.5,2,4.5,4.5v15.4
		c0,2.5,2,4.5,4.5,4.5h31.7c2.5,0,4.5-2,4.5-4.5V63.4c0-1.2,0.5-2.3,1.3-3.2l20.8-20.8c1.7-1.7,4.6-1.7,6.3,0l20.2,20.2
		c0.8,0.8,1.3,2,1.3,3.2v16c0,2.5,2,4.5,4.5,4.5h10.6c2.5,0,4.5-2,4.5-4.5V68.5c0-2.5,2-4.5,4.5-4.5l0,0c2.5,0,4.5,2,4.5,4.5v29.3
		c0,2.5,2,4.5,4.5,4.5h15.1c2.5,0,4.5-2,4.5-4.5V50c0-1.2,0.5-2.3,1.3-3.2L507.7,25c1.7-1.7,4.6-1.7,6.3,0l19.6,19.6
		c0.8,0.8,1.3,2,1.3,3.2v60.2c0,2.5,2,4.5,4.5,4.5h36.3c2.5,0,4.5-2,4.5-4.5V83c0-1.2,0.5-2.3,1.3-3.2l12.4-12.4
		c1.7-1.7,4.6-1.7,6.3,0L610.8,78c0.8,0.8,1.3,2,1.3,3.2v10.6c0,2.5,2,4.5,4.5,4.5h6c2.5,0,4.5-2,4.5-4.5v-8.4V68.5
		c0-2.5,2-4.5,4.5-4.5h8.4c2.5,0,4.5,2,4.5,4.5v19.8c0,2.5,2,4.5,4.5,4.5H664c2.5,0,4.5-2,4.5-4.5V43.1c0-2.5,2-4.5,4.5-4.5h2.8
		c2.5,0,4.5,2,4.5,4.5v64.8c0,2.5,2,4.5,4.5,4.5h4.5c2.5,0,4.5-2,4.5-4.5V89.7c0-1.2,0.5-2.3,1.3-3.2l22.1-22.1
		c1.7-1.7,4.6-1.7,6.3,0l14.1,14.1c2.8,2.8,7.6,0.8,7.6-3.2v-41c0-1.2,0.5-2.3,1.3-3.2l20.9-20.9c1.7-1.7,4.6-1.7,6.3,0l19.1,19.1
		c0.8,0.8,1.3,2,1.3,3.2v26.2c0,2.5,2,4.5,4.5,4.5h12.7c2.5,0,4.5-2,4.5-4.5V33.2c0-1.2,0.5-2.3,1.3-3.2l26.3-26.3
		C846,1,850.8,3,850.8,7v192.5c0,2.5-2,4.5-4.5,4.5H7c-2.5,0-4.5-2-4.5-4.5v-82.6C2.5,114.4,4.5,112.4,7,112.4z"/>
	<path id="XMLID_14_" fill="#F2F2F2" d="M140.1,39.1h-4.7c-1.1,0-2-0.9-2-2v-4.2c0-1.1,0.9-2,2-2h4.7c1.1,0,2,0.9,2,2V37
		C142.2,38.2,141.3,39.1,140.1,39.1z"/>
	<g id="XMLID_22_">
		<path id="XMLID_19_" fill="#F2F2F2" d="M153.8,56H149c-1.1,0-2-0.9-2-2v-4.2c0-1.1,0.9-2,2-2h4.7c1.1,0,2,0.9,2,2V54
			C155.8,55.1,154.9,56,153.8,56z"/>
		<path id="XMLID_20_" fill="#F2F2F2" d="M140.1,56h-4.7c-1.1,0-2-0.9-2-2v-4.2c0-1.1,0.9-2,2-2h4.7c1.1,0,2,0.9,2,2V54
			C142.2,55.1,141.3,56,140.1,56z"/>
		<path id="XMLID_21_" fill="#F2F2F2" d="M126.5,56h-4.7c-1.1,0-2-0.9-2-2v-4.2c0-1.1,0.9-2,2-2h4.7c1.1,0,2,0.9,2,2V54
			C128.5,55.1,127.6,56,126.5,56z"/>
	</g>
	<g id="XMLID_23_">
		<path id="XMLID_26_" fill="#F2F2F2" d="M153.8,70.6H149c-1.1,0-2-0.9-2-2v-4.2c0-1.1,0.9-2,2-2h4.7c1.1,0,2,0.9,2,2v4.2
			C155.8,69.7,154.9,70.6,153.8,70.6z"/>
		<path id="XMLID_25_" fill="#F2F2F2" d="M140.1,70.6h-4.7c-1.1,0-2-0.9-2-2v-4.2c0-1.1,0.9-2,2-2h4.7c1.1,0,2,0.9,2,2v4.2
			C142.2,69.7,141.3,70.6,140.1,70.6z"/>
		<path id="XMLID_24_" fill="#F2F2F2" d="M126.5,70.6h-4.7c-1.1,0-2-0.9-2-2v-4.2c0-1.1,0.9-2,2-2h4.7c1.1,0,2,0.9,2,2v4.2
			C128.5,69.7,127.6,70.6,126.5,70.6z"/>
	</g>
	<g id="XMLID_27_">
		<path id="XMLID_30_" fill="#F2F2F2" d="M153.8,85.2H149c-1.1,0-2-0.9-2-2V79c0-1.1,0.9-2,2-2h4.7c1.1,0,2,0.9,2,2v4.2
			C155.8,84.3,154.9,85.2,153.8,85.2z"/>
		<path id="XMLID_29_" fill="#F2F2F2" d="M140.1,85.2h-4.7c-1.1,0-2-0.9-2-2V79c0-1.1,0.9-2,2-2h4.7c1.1,0,2,0.9,2,2v4.2
			C142.2,84.3,141.3,85.2,140.1,85.2z"/>
		<path id="XMLID_28_" fill="#F2F2F2" d="M126.5,85.2h-4.7c-1.1,0-2-0.9-2-2V79c0-1.1,0.9-2,2-2h4.7c1.1,0,2,0.9,2,2v4.2
			C128.5,84.3,127.6,85.2,126.5,85.2z"/>
	</g>
	<g id="XMLID_31_">
		<path id="XMLID_34_" fill="#F2F2F2" d="M153.8,99.9H149c-1.1,0-2-0.9-2-2v-4.2c0-1.1,0.9-2,2-2h4.7c1.1,0,2,0.9,2,2v4.2
			C155.8,98.9,154.9,99.9,153.8,99.9z"/>
		<path id="XMLID_33_" fill="#F2F2F2" d="M140.1,99.9h-4.7c-1.1,0-2-0.9-2-2v-4.2c0-1.1,0.9-2,2-2h4.7c1.1,0,2,0.9,2,2v4.2
			C142.2,98.9,141.3,99.9,140.1,99.9z"/>
		<path id="XMLID_32_" fill="#F2F2F2" d="M126.5,99.9h-4.7c-1.1,0-2-0.9-2-2v-4.2c0-1.1,0.9-2,2-2h4.7c1.1,0,2,0.9,2,2v4.2
			C128.5,98.9,127.6,99.9,126.5,99.9z"/>
	</g>
	<g id="XMLID_35_">
		<path id="XMLID_38_" fill="#F2F2F2" d="M153.8,114.5H149c-1.1,0-2-0.9-2-2v-4.2c0-1.1,0.9-2,2-2h4.7c1.1,0,2,0.9,2,2v4.2
			C155.8,113.6,154.9,114.5,153.8,114.5z"/>
		<path id="XMLID_37_" fill="#F2F2F2" d="M140.1,114.5h-4.7c-1.1,0-2-0.9-2-2v-4.2c0-1.1,0.9-2,2-2h4.7c1.1,0,2,0.9,2,2v4.2
			C142.2,113.6,141.3,114.5,140.1,114.5z"/>
		<path id="XMLID_36_" fill="#F2F2F2" d="M126.5,114.5h-4.7c-1.1,0-2-0.9-2-2v-4.2c0-1.1,0.9-2,2-2h4.7c1.1,0,2,0.9,2,2v4.2
			C128.5,113.6,127.6,114.5,126.5,114.5z"/>
	</g>
	<path id="XMLID_59_" fill="#F2F2F2" d="M287.6,39.3h-4.7c-1.1,0-2-0.9-2-2v-4.2c0-1.1,0.9-2,2-2h4.7c1.1,0,2,0.9,2,2v4.2
		C289.7,38.4,288.8,39.3,287.6,39.3z"/>
	<g id="XMLID_39_">
		<path id="XMLID_57_" fill="#F2F2F2" d="M294.9,54.5h-4.7c-1.1,0-2-0.9-2-2v-4.2c0-1.1,0.9-2,2-2h4.7c1.1,0,2,0.9,2,2v4.2
			C296.9,53.6,296,54.5,294.9,54.5z"/>
		<path id="XMLID_56_" fill="#F2F2F2" d="M281.3,54.5h-4.7c-1.1,0-2-0.9-2-2v-4.2c0-1.1,0.9-2,2-2h4.7c1.1,0,2,0.9,2,2v4.2
			C283.3,53.6,282.4,54.5,281.3,54.5z"/>
	</g>
	<g id="XMLID_43_">
		<path id="XMLID_53_" fill="#F2F2F2" d="M294.9,69.7h-4.7c-1.1,0-2-0.9-2-2v-4.2c0-1.1,0.9-2,2-2h4.7c1.1,0,2,0.9,2,2v4.2
			C296.9,68.8,296,69.7,294.9,69.7z"/>
		<path id="XMLID_52_" fill="#F2F2F2" d="M281.3,69.7h-4.7c-1.1,0-2-0.9-2-2v-4.2c0-1.1,0.9-2,2-2h4.7c1.1,0,2,0.9,2,2v4.2
			C283.3,68.8,282.4,69.7,281.3,69.7z"/>
	</g>
	<g id="XMLID_51_">
		<path id="XMLID_58_" fill="#F2F2F2" d="M327.3,84.9h-4.7c-1.1,0-2-0.9-2-2v-4.2c0-1.1,0.9-2,2-2h4.7c1.1,0,2,0.9,2,2v4.2
			C329.3,84,328.4,84.9,327.3,84.9z"/>
		<path id="XMLID_50_" fill="#F2F2F2" d="M311.5,84.9h-4.7c-1.1,0-2-0.9-2-2v-4.2c0-1.1,0.9-2,2-2h4.7c1.1,0,2,0.9,2,2v4.2
			C313.5,84,312.6,84.9,311.5,84.9z"/>
	</g>
	<g id="XMLID_47_">
		<path id="XMLID_49_" fill="#F2F2F2" d="M294.9,84.9h-4.7c-1.1,0-2-0.9-2-2v-4.2c0-1.1,0.9-2,2-2h4.7c1.1,0,2,0.9,2,2v4.2
			C296.9,84,296,84.9,294.9,84.9z"/>
		<path id="XMLID_48_" fill="#F2F2F2" d="M281.3,84.9h-4.7c-1.1,0-2-0.9-2-2v-4.2c0-1.1,0.9-2,2-2h4.7c1.1,0,2,0.9,2,2v4.2
			C283.3,84,282.4,84.9,281.3,84.9z"/>
	</g>
	<g id="XMLID_60_">
		<path id="XMLID_54_" fill="#F2F2F2" d="M327.3,100.1h-4.7c-1.1,0-2-0.9-2-2v-4.2c0-1.1,0.9-2,2-2h4.7c1.1,0,2,0.9,2,2v4.2
			C329.3,99.2,328.4,100.1,327.3,100.1z"/>
		<path id="XMLID_46_" fill="#F2F2F2" d="M311.5,100.1h-4.7c-1.1,0-2-0.9-2-2v-4.2c0-1.1,0.9-2,2-2h4.7c1.1,0,2,0.9,2,2v4.2
			C313.5,99.2,312.6,100.1,311.5,100.1z"/>
	</g>
	<g id="XMLID_55_">
		<path id="XMLID_45_" fill="#F2F2F2" d="M294.9,100.1h-4.7c-1.1,0-2-0.9-2-2v-4.2c0-1.1,0.9-2,2-2h4.7c1.1,0,2,0.9,2,2v4.2
			C296.9,99.2,296,100.1,294.9,100.1z"/>
		<path id="XMLID_44_" fill="#F2F2F2" d="M281.3,100.1h-4.7c-1.1,0-2-0.9-2-2v-4.2c0-1.1,0.9-2,2-2h4.7c1.1,0,2,0.9,2,2v4.2
			C283.3,99.2,282.4,100.1,281.3,100.1z"/>
	</g>
	<g id="XMLID_63_">
		<path id="XMLID_41_" fill="#F2F2F2" d="M294.9,115.3h-4.7c-1.1,0-2-0.9-2-2v-4.2c0-1.1,0.9-2,2-2h4.7c1.1,0,2,0.9,2,2v4.2
			C296.9,114.4,296,115.3,294.9,115.3z"/>
		<path id="XMLID_40_" fill="#F2F2F2" d="M281.3,115.3h-4.7c-1.1,0-2-0.9-2-2v-4.2c0-1.1,0.9-2,2-2h4.7c1.1,0,2,0.9,2,2v4.2
			C283.3,114.4,282.4,115.3,281.3,115.3z"/>
	</g>
	<g id="XMLID_62_">
		<path id="XMLID_42_" fill="#F2F2F2" d="M311.5,115.3h-4.7c-1.1,0-2-0.9-2-2v-4.2c0-1.1,0.9-2,2-2h4.7c1.1,0,2,0.9,2,2v4.2
			C313.5,114.4,312.6,115.3,311.5,115.3z"/>
		<path id="XMLID_61_" fill="#F2F2F2" d="M327.3,115.3h-4.7c-1.1,0-2-0.9-2-2v-4.2c0-1.1,0.9-2,2-2h4.7c1.1,0,2,0.9,2,2v4.2
			C329.3,114.4,328.4,115.3,327.3,115.3z"/>
	</g>
	<path id="XMLID_79_" fill="#F2F2F2" d="M511.2,39.8h-4.7c-1.1,0-2-0.9-2-2v-4.2c0-1.1,0.9-2,2-2h4.7c1.1,0,2,0.9,2,2v4.2
		C513.3,38.9,512.4,39.8,511.2,39.8z"/>
	<g id="XMLID_76_">
		<path id="XMLID_78_" fill="#F2F2F2" d="M524.9,55.4h-4.7c-1.1,0-2-0.9-2-2v-4.2c0-1.1,0.9-2,2-2h4.7c1.1,0,2,0.9,2,2v4.2
			C526.9,54.5,526,55.4,524.9,55.4z"/>
		<path id="XMLID_77_" fill="#F2F2F2" d="M511.2,55.4h-4.7c-1.1,0-2-0.9-2-2v-4.2c0-1.1,0.9-2,2-2h4.7c1.1,0,2,0.9,2,2v4.2
			C513.3,54.5,512.4,55.4,511.2,55.4z"/>
	</g>
	<g id="XMLID_73_">
		<path id="XMLID_75_" fill="#F2F2F2" d="M524.9,71h-4.7c-1.1,0-2-0.9-2-2v-4.2c0-1.1,0.9-2,2-2h4.7c1.1,0,2,0.9,2,2V69
			C526.9,70.1,526,71,524.9,71z"/>
		<path id="XMLID_74_" fill="#F2F2F2" d="M511.2,71h-4.7c-1.1,0-2-0.9-2-2v-4.2c0-1.1,0.9-2,2-2h4.7c1.1,0,2,0.9,2,2V69
			C513.3,70.1,512.4,71,511.2,71z"/>
	</g>
	<g id="XMLID_70_">
		<path id="XMLID_72_" fill="#F2F2F2" d="M524.9,86.6h-4.7c-1.1,0-2-0.9-2-2v-4.2c0-1.1,0.9-2,2-2h4.7c1.1,0,2,0.9,2,2v4.2
			C526.9,85.7,526,86.6,524.9,86.6z"/>
		<path id="XMLID_71_" fill="#F2F2F2" d="M511.2,86.6h-4.7c-1.1,0-2-0.9-2-2v-4.2c0-1.1,0.9-2,2-2h4.7c1.1,0,2,0.9,2,2v4.2
			C513.3,85.7,512.4,86.6,511.2,86.6z"/>
	</g>
	<g id="XMLID_67_">
		<path id="XMLID_69_" fill="#F2F2F2" d="M524.9,102.2h-4.7c-1.1,0-2-0.9-2-2v-4.2c0-1.1,0.9-2,2-2h4.7c1.1,0,2,0.9,2,2v4.2
			C526.9,101.3,526,102.2,524.9,102.2z"/>
		<path id="XMLID_68_" fill="#F2F2F2" d="M511.2,102.2h-4.7c-1.1,0-2-0.9-2-2v-4.2c0-1.1,0.9-2,2-2h4.7c1.1,0,2,0.9,2,2v4.2
			C513.3,101.3,512.4,102.2,511.2,102.2z"/>
	</g>
	<g id="XMLID_64_">
		<path id="XMLID_66_" fill="#F2F2F2" d="M524.9,117.8h-4.7c-1.1,0-2-0.9-2-2v-4.2c0-1.1,0.9-2,2-2h4.7c1.1,0,2,0.9,2,2v4.2
			C526.9,116.9,526,117.8,524.9,117.8z"/>
		<path id="XMLID_65_" fill="#F2F2F2" d="M511.2,117.8h-4.7c-1.1,0-2-0.9-2-2v-4.2c0-1.1,0.9-2,2-2h4.7c1.1,0,2,0.9,2,2v4.2
			C513.3,116.9,512.4,117.8,511.2,117.8z"/>
	</g>
	<g id="XMLID_80_">
		<path id="XMLID_82_" fill="#F2F2F2" d="M605.6,117.8h-4.7c-1.1,0-2-0.9-2-2v-4.2c0-1.1,0.9-2,2-2h4.7c1.1,0,2,0.9,2,2v4.2
			C607.6,116.9,606.7,117.8,605.6,117.8z"/>
		<path id="XMLID_81_" fill="#F2F2F2" d="M592,117.8h-4.7c-1.1,0-2-0.9-2-2v-4.2c0-1.1,0.9-2,2-2h4.7c1.1,0,2,0.9,2,2v4.2
			C594,116.9,593.1,117.8,592,117.8z"/>
	</g>
	<g id="XMLID_83_">
		<path id="XMLID_85_" fill="#F2F2F2" d="M605.6,104.6h-4.7c-1.1,0-2-0.9-2-2v-4.2c0-1.1,0.9-2,2-2h4.7c1.1,0,2,0.9,2,2v4.2
			C607.6,103.6,606.7,104.6,605.6,104.6z"/>
		<path id="XMLID_84_" fill="#F2F2F2" d="M592,104.6h-4.7c-1.1,0-2-0.9-2-2v-4.2c0-1.1,0.9-2,2-2h4.7c1.1,0,2,0.9,2,2v4.2
			C594,103.6,593.1,104.6,592,104.6z"/>
	</g>
	<g id="XMLID_89_">
		<path id="XMLID_91_" fill="#F2F2F2" d="M636.6,117.8h-4.7c-1.1,0-2-0.9-2-2v-4.2c0-1.1,0.9-2,2-2h4.7c1.1,0,2,0.9,2,2v4.2
			C638.6,116.9,637.7,117.8,636.6,117.8z"/>
		<path id="XMLID_90_" fill="#F2F2F2" d="M623,117.8h-4.7c-1.1,0-2-0.9-2-2v-4.2c0-1.1,0.9-2,2-2h4.7c1.1,0,2,0.9,2,2v4.2
			C625,116.9,624.1,117.8,623,117.8z"/>
	</g>
	<g id="XMLID_86_">
		<path id="XMLID_88_" fill="#F2F2F2" d="M636.6,104.8h-4.7c-1.1,0-2-0.9-2-2v-4.2c0-1.1,0.9-2,2-2h4.7c1.1,0,2,0.9,2,2v4.2
			C638.6,103.9,637.7,104.8,636.6,104.8z"/>
		<path id="XMLID_87_" fill="#F2F2F2" d="M623,104.8h-4.7c-1.1,0-2-0.9-2-2v-4.2c0-1.1,0.9-2,2-2h4.7c1.1,0,2,0.9,2,2v4.2
			C625,103.9,624.1,104.8,623,104.8z"/>
	</g>
	<g id="XMLID_95_">
		<path id="XMLID_97_" fill="#F2F2F2" d="M668.4,117.8h-4.7c-1.1,0-2-0.9-2-2v-4.2c0-1.1,0.9-2,2-2h4.7c1.1,0,2,0.9,2,2v4.2
			C670.4,116.9,669.5,117.8,668.4,117.8z"/>
		<path id="XMLID_96_" fill="#F2F2F2" d="M654.7,117.8H650c-1.1,0-2-0.9-2-2v-4.2c0-1.1,0.9-2,2-2h4.7c1.1,0,2,0.9,2,2v4.2
			C656.8,116.9,655.9,117.8,654.7,117.8z"/>
	</g>
	<g id="XMLID_92_">
		<path id="XMLID_94_" fill="#F2F2F2" d="M668.4,104.8h-4.7c-1.1,0-2-0.9-2-2v-4.2c0-1.1,0.9-2,2-2h4.7c1.1,0,2,0.9,2,2v4.2
			C670.4,103.9,669.5,104.8,668.4,104.8z"/>
		<path id="XMLID_93_" fill="#F2F2F2" d="M654.7,104.8H650c-1.1,0-2-0.9-2-2v-4.2c0-1.1,0.9-2,2-2h4.7c1.1,0,2,0.9,2,2v4.2
			C656.8,103.9,655.9,104.8,654.7,104.8z"/>
	</g>
	<path id="XMLID_98_" fill="#F2F2F2" d="M598.8,92.1H594c-1.1,0-2-0.9-2-2v-4.2c0-1.1,0.9-2,2-2h4.7c1.1,0,2,0.9,2,2V90
		C600.8,91.2,599.9,92.1,598.8,92.1z"/>
	<path id="XMLID_99_" fill="#F2F2F2" d="M598.8,80.1H594c-1.1,0-2-0.9-2-2v-4.2c0-1.1,0.9-2,2-2h4.7c1.1,0,2,0.9,2,2V78
		C600.8,79.2,599.9,80.1,598.8,80.1z"/>
	<path id="XMLID_101_" fill="#F2F2F2" d="M636.6,87.9h-4.7c-1.1,0-2-0.9-2-2v-4.2c0-1.1,0.9-2,2-2h4.7c1.1,0,2,0.9,2,2v4.2
		C638.6,87,637.7,87.9,636.6,87.9z"/>
	<path id="XMLID_100_" fill="#F2F2F2" d="M636.6,75.9h-4.7c-1.1,0-2-0.9-2-2v-4.2c0-1.1,0.9-2,2-2h4.7c1.1,0,2,0.9,2,2v4.2
		C638.6,75,637.7,75.9,636.6,75.9z"/>
	<g id="XMLID_105_">
		<path id="XMLID_107_" fill="#F2F2F2" d="M721,108h-4.7c-1.1,0-2-0.9-2-2v-4.2c0-1.1,0.9-2,2-2h4.7c1.1,0,2,0.9,2,2v4.2
			C723,107.1,722.1,108,721,108z"/>
		<path id="XMLID_106_" fill="#F2F2F2" d="M707.3,108h-4.7c-1.1,0-2-0.9-2-2v-4.2c0-1.1,0.9-2,2-2h4.7c1.1,0,2,0.9,2,2v4.2
			C709.4,107.1,708.5,108,707.3,108z"/>
	</g>
	<g id="XMLID_102_">
		<path id="XMLID_104_" fill="#F2F2F2" d="M721,94h-4.7c-1.1,0-2-0.9-2-2v-4.2c0-1.1,0.9-2,2-2h4.7c1.1,0,2,0.9,2,2V92
			C723,93.1,722.1,94,721,94z"/>
		<path id="XMLID_103_" fill="#F2F2F2" d="M707.3,94h-4.7c-1.1,0-2-0.9-2-2v-4.2c0-1.1,0.9-2,2-2h4.7c1.1,0,2,0.9,2,2V92
			C709.4,93.1,708.5,94,707.3,94z"/>
	</g>
	<g id="XMLID_108_">
		<path id="XMLID_110_" fill="#F2F2F2" d="M721.7,121.9H717c-1.1,0-2-0.9-2-2v-4.2c0-1.1,0.9-2,2-2h4.7c1.1,0,2,0.9,2,2v4.2
			C723.7,121,722.8,121.9,721.7,121.9z"/>
		<path id="XMLID_109_" fill="#F2F2F2" d="M708.1,121.9h-4.7c-1.1,0-2-0.9-2-2v-4.2c0-1.1,0.9-2,2-2h4.7c1.1,0,2,0.9,2,2v4.2
			C710.1,121,709.2,121.9,708.1,121.9z"/>
	</g>
	<path id="XMLID_111_" fill="#F2F2F2" d="M721.7,80.1H717c-1.1,0-2-0.9-2-2v-4.2c0-1.1,0.9-2,2-2h4.7c1.1,0,2,0.9,2,2V78
		C723.7,79.2,722.8,80.1,721.7,80.1z"/>
	<g id="XMLID_115_">
		<path id="XMLID_112_" fill="#F2F2F2" d="M737.3,94h-4.7c-1.1,0-2-0.9-2-2v-4.2c0-1.1,0.9-2,2-2h4.7c1.1,0,2,0.9,2,2V92
			C739.3,93.1,738.4,94,737.3,94z"/>
		<path id="XMLID_113_" fill="#F2F2F2" d="M737.3,108h-4.7c-1.1,0-2-0.9-2-2v-4.2c0-1.1,0.9-2,2-2h4.7c1.1,0,2,0.9,2,2v4.2
			C739.3,107.1,738.4,108,737.3,108z"/>
		<path id="XMLID_114_" fill="#F2F2F2" d="M737.3,121.9h-4.7c-1.1,0-2-0.9-2-2v-4.2c0-1.1,0.9-2,2-2h4.7c1.1,0,2,0.9,2,2v4.2
			C739.3,121,738.4,121.9,737.3,121.9z"/>
	</g>
	<path id="XMLID_136_" fill="#F2F2F2" d="M772.5,30.9h-4.7c-1.1,0-2-0.9-2-2v-4.2c0-1.1,0.9-2,2-2h4.7c1.1,0,2,0.9,2,2v4.2
		C774.6,30,773.7,30.9,772.5,30.9z"/>
	<g id="XMLID_132_">
		<path id="XMLID_135_" fill="#F2F2F2" d="M786.2,44.7h-4.7c-1.1,0-2-0.9-2-2v-4.2c0-1.1,0.9-2,2-2h4.7c1.1,0,2,0.9,2,2v4.2
			C788.2,43.8,787.3,44.7,786.2,44.7z"/>
		<path id="XMLID_134_" fill="#F2F2F2" d="M772.5,44.7h-4.7c-1.1,0-2-0.9-2-2v-4.2c0-1.1,0.9-2,2-2h4.7c1.1,0,2,0.9,2,2v4.2
			C774.6,43.8,773.7,44.7,772.5,44.7z"/>
		<path id="XMLID_133_" fill="#F2F2F2" d="M758.9,44.7h-4.7c-1.1,0-2-0.9-2-2v-4.2c0-1.1,0.9-2,2-2h4.7c1.1,0,2,0.9,2,2v4.2
			C761,43.8,760,44.7,758.9,44.7z"/>
	</g>
	<g id="XMLID_128_">
		<path id="XMLID_131_" fill="#F2F2F2" d="M786.2,58.5h-4.7c-1.1,0-2-0.9-2-2v-4.2c0-1.1,0.9-2,2-2h4.7c1.1,0,2,0.9,2,2v4.2
			C788.2,57.6,787.3,58.5,786.2,58.5z"/>
		<path id="XMLID_130_" fill="#F2F2F2" d="M772.5,58.5h-4.7c-1.1,0-2-0.9-2-2v-4.2c0-1.1,0.9-2,2-2h4.7c1.1,0,2,0.9,2,2v4.2
			C774.6,57.6,773.7,58.5,772.5,58.5z"/>
		<path id="XMLID_129_" fill="#F2F2F2" d="M758.9,58.5h-4.7c-1.1,0-2-0.9-2-2v-4.2c0-1.1,0.9-2,2-2h4.7c1.1,0,2,0.9,2,2v4.2
			C761,57.6,760,58.5,758.9,58.5z"/>
	</g>
	<g id="XMLID_124_">
		<path id="XMLID_127_" fill="#F2F2F2" d="M786.2,72.3h-4.7c-1.1,0-2-0.9-2-2V66c0-1.1,0.9-2,2-2h4.7c1.1,0,2,0.9,2,2v4.2
			C788.2,71.4,787.3,72.3,786.2,72.3z"/>
		<path id="XMLID_126_" fill="#F2F2F2" d="M772.5,72.3h-4.7c-1.1,0-2-0.9-2-2V66c0-1.1,0.9-2,2-2h4.7c1.1,0,2,0.9,2,2v4.2
			C774.6,71.4,773.7,72.3,772.5,72.3z"/>
		<path id="XMLID_125_" fill="#F2F2F2" d="M758.9,72.3h-4.7c-1.1,0-2-0.9-2-2V66c0-1.1,0.9-2,2-2h4.7c1.1,0,2,0.9,2,2v4.2
			C761,71.4,760,72.3,758.9,72.3z"/>
	</g>
	<g id="XMLID_120_">
		<path id="XMLID_123_" fill="#F2F2F2" d="M786.2,86.1h-4.7c-1.1,0-2-0.9-2-2v-4.2c0-1.1,0.9-2,2-2h4.7c1.1,0,2,0.9,2,2V84
			C788.2,85.2,787.3,86.1,786.2,86.1z"/>
		<path id="XMLID_122_" fill="#F2F2F2" d="M772.5,86.1h-4.7c-1.1,0-2-0.9-2-2v-4.2c0-1.1,0.9-2,2-2h4.7c1.1,0,2,0.9,2,2V84
			C774.6,85.2,773.7,86.1,772.5,86.1z"/>
		<path id="XMLID_121_" fill="#F2F2F2" d="M758.9,86.1h-4.7c-1.1,0-2-0.9-2-2v-4.2c0-1.1,0.9-2,2-2h4.7c1.1,0,2,0.9,2,2V84
			C761,85.2,760,86.1,758.9,86.1z"/>
	</g>
	<g id="XMLID_116_">
		<path id="XMLID_119_" fill="#F2F2F2" d="M786.2,99.9h-4.7c-1.1,0-2-0.9-2-2v-4.2c0-1.1,0.9-2,2-2h4.7c1.1,0,2,0.9,2,2v4.2
			C788.2,98.9,787.3,99.9,786.2,99.9z"/>
		<path id="XMLID_118_" fill="#F2F2F2" d="M772.5,99.9h-4.7c-1.1,0-2-0.9-2-2v-4.2c0-1.1,0.9-2,2-2h4.7c1.1,0,2,0.9,2,2v4.2
			C774.6,98.9,773.7,99.9,772.5,99.9z"/>
		<path id="XMLID_117_" fill="#F2F2F2" d="M758.9,99.9h-4.7c-1.1,0-2-0.9-2-2v-4.2c0-1.1,0.9-2,2-2h4.7c1.1,0,2,0.9,2,2v4.2
			C761,98.9,760,99.9,758.9,99.9z"/>
	</g>
	<g id="XMLID_137_">
		<path id="XMLID_140_" fill="#F2F2F2" d="M786.2,113.6h-4.7c-1.1,0-2-0.9-2-2v-4.2c0-1.1,0.9-2,2-2h4.7c1.1,0,2,0.9,2,2v4.2
			C788.2,112.7,787.3,113.6,786.2,113.6z"/>
		<path id="XMLID_139_" fill="#F2F2F2" d="M772.5,113.6h-4.7c-1.1,0-2-0.9-2-2v-4.2c0-1.1,0.9-2,2-2h4.7c1.1,0,2,0.9,2,2v4.2
			C774.6,112.7,773.7,113.6,772.5,113.6z"/>
		<path id="XMLID_138_" fill="#F2F2F2" d="M758.9,113.6h-4.7c-1.1,0-2-0.9-2-2v-4.2c0-1.1,0.9-2,2-2h4.7c1.1,0,2,0.9,2,2v4.2
			C761,112.7,760,113.6,758.9,113.6z"/>
	</g>
	<path id="XMLID_144_" fill="#F2F2F2" d="M807.8,80.1H803c-1.1,0-2-0.9-2-2v-4.2c0-1.1,0.9-2,2-2h4.7c1.1,0,2,0.9,2,2V78
		C809.8,79.2,808.9,80.1,807.8,80.1z"/>
	<path id="XMLID_143_" fill="#F2F2F2" d="M807.8,96.9H803c-1.1,0-2-0.9-2-2v-4.2c0-1.1,0.9-2,2-2h4.7c1.1,0,2,0.9,2,2v4.2
		C809.8,95.9,808.9,96.9,807.8,96.9z"/>
	<path id="XMLID_142_" fill="#F2F2F2" d="M807.8,113.6H803c-1.1,0-2-0.9-2-2v-4.2c0-1.1,0.9-2,2-2h4.7c1.1,0,2,0.9,2,2v4.2
		C809.8,112.7,808.9,113.6,807.8,113.6z"/>
	<g id="XMLID_149_">
		<path id="XMLID_147_" fill="#F2F2F2" d="M829,43.6h-4.7c-1.1,0-2-0.9-2-2v-4.2c0-1.1,0.9-2,2-2h4.7c1.1,0,2,0.9,2,2v4.2
			C831.1,42.6,830.2,43.6,829,43.6z"/>
		<path id="XMLID_146_" fill="#F2F2F2" d="M829,57.3h-4.7c-1.1,0-2-0.9-2-2v-4.2c0-1.1,0.9-2,2-2h4.7c1.1,0,2,0.9,2,2v4.2
			C831.1,56.4,830.2,57.3,829,57.3z"/>
		<path id="XMLID_145_" fill="#F2F2F2" d="M829,71.1h-4.7c-1.1,0-2-0.9-2-2v-4.2c0-1.1,0.9-2,2-2h4.7c1.1,0,2,0.9,2,2v4.2
			C831.1,70.2,830.2,71.1,829,71.1z"/>
		<path id="XMLID_148_" fill="#F2F2F2" d="M829,84.9h-4.7c-1.1,0-2-0.9-2-2v-4.2c0-1.1,0.9-2,2-2h4.7c1.1,0,2,0.9,2,2v4.2
			C831.1,84,830.2,84.9,829,84.9z"/>
		<path id="XMLID_141_" fill="#F2F2F2" d="M829,98.7h-4.7c-1.1,0-2-0.9-2-2v-4.2c0-1.1,0.9-2,2-2h4.7c1.1,0,2,0.9,2,2v4.2
			C831.1,97.8,830.2,98.7,829,98.7z"/>
	</g>
</g>
</svg>
